<?xml version="1.0" encoding="UTF-8"?>
<svg width="558px" height="564px" viewBox="0 0 558 564" version="1.1" xmlns="http://www.w3.org/2000/svg" xmlns:xlink="http://www.w3.org/1999/xlink">
    <title>Illustration 16 0</title>
    <g id="🤩-Illustrations" stroke="none" stroke-width="1" fill="none" fill-rule="evenodd">
        <g id="Illustration-16">
            <path d="M510.1094,285.7217 C510.1334,285.4207 510.2004,285.1317 510.2004,284.8257 L510.2004,279.8767 C504.7874,278.4047 498.3414,275.9017 492.6014,271.6397 C485.8234,266.6087 481.7514,258.2277 479.3744,251.2247 L476.5994,251.2247 C470.4144,251.2247 465.4004,256.2397 465.4004,262.4247 L465.4004,274.3887 C472.4014,274.0177 490.9584,274.3687 510.1094,285.7217" id="Fill-2306" fill="#CDD1DF"></path>
            <path d="M493.2705,270.7402 C498.7825,274.8322 504.9645,277.2712 510.2005,278.7232 L510.2005,262.4252 C510.2005,256.2392 505.1855,251.2242 498.9995,251.2242 L480.5985,251.2242 C482.9575,258.0162 486.9055,266.0162 493.2705,270.7402" id="Fill-2308" fill="#CDD1DF"></path>
            <path d="M496.0547,289.3477 C490.0907,289.8977 486.3617,293.3937 484.3617,296.0257 L498.9997,296.0257 C502.3297,296.0257 505.2877,294.5427 507.3397,292.2357 C504.5427,290.4797 500.6797,288.9197 496.0547,289.3477" id="Fill-2310" fill="#CDD1DF"></path>
            <path d="M495.9512,288.2324 C500.9882,287.7634 505.1262,289.4524 508.0802,291.3374 C509.0042,290.0524 509.6722,288.5774 509.9842,286.9644 C490.8632,275.4604 472.2602,275.1314 465.4002,275.5054 L465.4002,284.8254 C465.4002,291.0104 470.4142,296.0254 476.5992,296.0254 L482.9872,296.0254 C484.9802,293.1734 489.0742,288.8654 495.9512,288.2324" id="Fill-2312" fill="#CDD1DF"></path>
            <path d="M58.6895,170.4248 C58.6895,172.1928 57.2565,173.6248 55.4905,173.6248 C53.7225,173.6248 52.2905,172.1928 52.2905,170.4248 C52.2905,168.6568 53.7225,167.2248 55.4905,167.2248 C57.2565,167.2248 58.6895,168.6568 58.6895,170.4248" id="Fill-2314" fill="#CDD1DF"></path>
            <path d="M90.6895,170.4248 C90.6895,172.1928 89.2565,173.6248 87.4905,173.6248 C85.7225,173.6248 84.2905,172.1928 84.2905,170.4248 C84.2905,168.6568 85.7225,167.2248 87.4905,167.2248 C89.2565,167.2248 90.6895,168.6568 90.6895,170.4248" id="Fill-2316" fill="#CDD1DF"></path>
            <path d="M122.6895,170.4248 C122.6895,172.1928 121.2565,173.6248 119.4905,173.6248 C117.7225,173.6248 116.2905,172.1928 116.2905,170.4248 C116.2905,168.6568 117.7225,167.2248 119.4905,167.2248 C121.2565,167.2248 122.6895,168.6568 122.6895,170.4248" id="Fill-2318" fill="#CDD1DF"></path>
            <path d="M154.6895,170.4248 C154.6895,172.1928 153.2565,173.6248 151.4905,173.6248 C149.7225,173.6248 148.2905,172.1928 148.2905,170.4248 C148.2905,168.6568 149.7225,167.2248 151.4905,167.2248 C153.2565,167.2248 154.6895,168.6568 154.6895,170.4248" id="Fill-2320" fill="#CDD1DF"></path>
            <path d="M58.6895,202.4248 C58.6895,204.1928 57.2565,205.6248 55.4905,205.6248 C53.7225,205.6248 52.2905,204.1928 52.2905,202.4248 C52.2905,200.6568 53.7225,199.2248 55.4905,199.2248 C57.2565,199.2248 58.6895,200.6568 58.6895,202.4248" id="Fill-2322" fill="#CDD1DF"></path>
            <path d="M90.6895,202.4248 C90.6895,204.1928 89.2565,205.6248 87.4905,205.6248 C85.7225,205.6248 84.2905,204.1928 84.2905,202.4248 C84.2905,200.6568 85.7225,199.2248 87.4905,199.2248 C89.2565,199.2248 90.6895,200.6568 90.6895,202.4248" id="Fill-2324" fill="#CDD1DF"></path>
            <path d="M124.29,202.4248 C124.29,205.0758 122.141,207.2248 119.49,207.2248 C116.839,207.2248 114.689,205.0758 114.689,202.4248 C114.689,199.7748 116.839,197.6248 119.49,197.6248 C122.141,197.6248 124.29,199.7748 124.29,202.4248" id="Fill-2326" fill="#CDD1DF"></path>
            <path d="M156.29,202.4248 C156.29,205.0758 154.141,207.2248 151.49,207.2248 C148.839,207.2248 146.689,205.0758 146.689,202.4248 C146.689,199.7748 148.839,197.6248 151.49,197.6248 C154.141,197.6248 156.29,199.7748 156.29,202.4248" id="Fill-2328" fill="#CDD1DF"></path>
            <path d="M58.6895,234.4248 C58.6895,236.1928 57.2565,237.6248 55.4905,237.6248 C53.7225,237.6248 52.2905,236.1928 52.2905,234.4248 C52.2905,232.6568 53.7225,231.2248 55.4905,231.2248 C57.2565,231.2248 58.6895,232.6568 58.6895,234.4248" id="Fill-2330" fill="#CDD1DF"></path>
            <path d="M92.29,234.4248 C92.29,237.0758 90.141,239.2248 87.49,239.2248 C84.839,239.2248 82.689,237.0758 82.689,234.4248 C82.689,231.7748 84.839,229.6248 87.49,229.6248 C90.141,229.6248 92.29,231.7748 92.29,234.4248" id="Fill-2332" fill="#CDD1DF"></path>
            <path d="M124.29,234.4248 C124.29,237.0758 122.141,239.2248 119.49,239.2248 C116.839,239.2248 114.689,237.0758 114.689,234.4248 C114.689,231.7748 116.839,229.6248 119.49,229.6248 C122.141,229.6248 124.29,231.7748 124.29,234.4248" id="Fill-2334" fill="#CDD1DF"></path>
            <path d="M156.29,234.4248 C156.29,237.0758 154.141,239.2248 151.49,239.2248 C148.839,239.2248 146.689,237.0758 146.689,234.4248 C146.689,231.7748 148.839,229.6248 151.49,229.6248 C154.141,229.6248 156.29,231.7748 156.29,234.4248" id="Fill-2336" fill="#CDD1DF"></path>
            <path d="M58.6895,266.4248 C58.6895,268.1928 57.2565,269.6248 55.4905,269.6248 C53.7225,269.6248 52.2905,268.1928 52.2905,266.4248 C52.2905,264.6568 53.7225,263.2248 55.4905,263.2248 C57.2565,263.2248 58.6895,264.6568 58.6895,266.4248" id="Fill-2338" fill="#CDD1DF"></path>
            <path d="M92.29,266.4248 C92.29,269.0758 90.141,271.2248 87.49,271.2248 C84.839,271.2248 82.689,269.0758 82.689,266.4248 C82.689,263.7748 84.839,261.6248 87.49,261.6248 C90.141,261.6248 92.29,263.7748 92.29,266.4248" id="Fill-2340" fill="#CDD1DF"></path>
            <path d="M124.29,266.4248 C124.29,269.0758 122.141,271.2248 119.49,271.2248 C116.839,271.2248 114.689,269.0758 114.689,266.4248 C114.689,263.7748 116.839,261.6248 119.49,261.6248 C122.141,261.6248 124.29,263.7748 124.29,266.4248" id="Fill-2342" fill="#CDD1DF"></path>
            <path d="M156.29,266.4248 C156.29,269.0758 154.141,271.2248 151.49,271.2248 C148.839,271.2248 146.689,269.0758 146.689,266.4248 C146.689,263.7748 148.839,261.6248 151.49,261.6248 C154.141,261.6248 156.29,263.7748 156.29,266.4248" id="Fill-2344" fill="#CDD1DF"></path>
            <path d="M121.0908,94.9326 L101.8908,94.9326 C101.8908,64.9356 126.2938,40.5336 156.2908,40.5336 L156.2908,59.7326 C136.8808,59.7326 121.0908,75.5236 121.0908,94.9326" id="Fill-2346" fill="#CDD1DF"></path>
            <polygon id="Fill-2348" fill="#CDD1DF" points="16.7959 357.0469 8.7959 365.0469 0.7959 357.0469 8.7959 349.0469"></polygon>
            <path d="M419.291,480.5205 L415.358,563.8365 L506.54,563.8365 C506.54,563.8365 511.658,551.5665 503.622,537.3065 C494.222,520.6245 466.877,524.1075 466.877,524.1075 L468.937,480.5205 L419.291,480.5205 Z" id="Fill-2350" fill="#FFC4A3"></path>
            <polygon id="Fill-2352" fill="#F99175" points="467.6562 507.6172 468.9362 480.5202 419.2912 480.5202 418.2852 501.8162"></polygon>
            <path d="M136.5225,474.0996 L54.6265,451.3716 L22.1845,534.6886 C22.1845,534.6886 39.2045,547.0806 61.2505,541.0686 C81.8945,535.4376 85.0895,507.6646 85.0895,507.6646 L124.3295,518.9456 L136.5225,474.0996 Z" id="Fill-2354" fill="#F99175"></path>
            <path d="M54.626,451.3721 L22.185,534.6881 C22.185,534.6881 39.205,547.0811 61.25,541.0681 C81.895,535.4371 85.09,507.6651 85.09,507.6651 L92.354,509.7531 L94.381,501.0561 C95.364,491.5931 83.948,488.5221 83.948,488.5221 L86.554,460.2321 L54.626,451.3721 Z" id="Fill-2356" fill="#D3D6E2"></path>
            <path d="M459.4531,41.8457 C459.4531,41.8457 451.8141,89.1807 444.4121,125.3987 C437.2161,126.8427 426.0671,127.8747 414.8021,124.5427 C404.3901,121.4467 398.9051,116.3147 396.0731,112.3027 C405.0991,91.0687 417.5151,62.8737 426.6571,45.2667 L459.4531,41.8457 Z" id="Fill-2358" fill="#FFC4A3"></path>
            <path d="M425.374,111.2607 C410.418,109.5447 400.467,102.1927 400.42,102.1577 C398.91,105.6567 397.449,109.0667 396.073,112.3027 C398.905,116.3147 404.391,121.4467 414.802,124.5427 C426.067,127.8747 437.216,126.8427 444.412,125.3987 C445.519,119.9847 446.63,114.3227 447.721,108.6077 C447.713,108.6117 440.358,112.9807 425.374,111.2607" id="Fill-2360" fill="#F99175"></path>
            <path d="M397.9082,195.6709 C429.9772,188.5449 429.6132,186.5769 438.7072,150.9409 C441.0532,141.7459 443.6912,129.2619 446.2802,116.0229 C446.2732,116.0249 433.8492,121.4599 419.6602,117.5899 C405.4722,113.7209 400.4202,102.1639 400.4152,102.1539 C391.2272,123.3969 384.0252,140.9809 384.0252,140.9809 L336.6192,139.4499 C336.6192,139.4499 330.7492,151.4659 328.2322,168.9429 C324.9142,191.9839 326.6352,204.7649 326.6352,204.7649 C326.6352,204.7649 366.9412,202.5529 397.9082,195.6709" id="Fill-2362" fill="#D3D6E2"></path>
            <path d="M359.7002,69.2402 L332.0192,71.0932 C327.6652,71.3852 323.8242,68.2652 323.2182,63.9432 C322.6102,59.6222 325.4412,55.5652 329.7082,54.6452 L356.8272,48.7962 L359.7002,69.2402 Z" id="Fill-2364" fill="#848CAE"></path>
            <path d="M526.7412,71.0791 L363.3762,74.9171 C354.9712,75.1141 347.7522,68.9851 346.5822,60.6601 C345.4122,52.3351 350.6632,44.4531 358.7962,42.3271 L516.8892,0.9861 L526.7412,71.0791 Z" id="Fill-2366" fill="#848CAE"></path>
            <path d="M350.791,70.3672 C350.575,70.3672 350.359,70.2792 350.201,70.1092 C347.81,67.5082 346.283,64.2782 345.789,60.7712 C345.278,57.1312 345.914,53.4942 347.627,50.2502 C347.836,49.8572 348.32,49.7132 348.708,49.9162 C349.099,50.1222 349.248,50.6062 349.042,50.9972 C347.487,53.9422 346.911,57.2452 347.373,60.5502 C347.822,63.7322 349.206,66.6642 351.38,69.0252 C351.678,69.3492 351.658,69.8562 351.333,70.1562 C351.178,70.2972 350.984,70.3672 350.791,70.3672" id="Fill-2368" fill="#1D213A"></path>
            <path d="M556.8623,31.1074 C559.5823,50.4624 546.0963,68.3594 526.7413,71.0794 C507.3843,73.7994 489.4893,60.3134 486.7683,40.9584 C484.0493,21.6024 497.5343,3.7064 516.8893,0.9864 C536.2463,-1.7346 554.1413,11.7514 556.8623,31.1074" id="Fill-2370" fill="#848CAE"></path>
            <path d="M521.7393,72.2314 C513.9353,72.2314 506.3773,69.7154 500.0343,64.9354 C492.3143,59.1194 487.3223,50.6424 485.9763,41.0684 C484.6313,31.4974 487.0933,21.9734 492.9123,14.2524 C498.7293,6.5314 507.2063,1.5394 516.7793,0.1934 C517.2093,0.1384 517.6203,0.4354 517.6823,0.8754 C517.7443,1.3124 517.4393,1.7164 517.0023,1.7784 C507.8513,3.0644 499.7503,7.8354 494.1903,15.2154 C488.6303,22.5954 486.2753,31.6974 487.5603,40.8464 C488.8463,49.9974 493.6193,58.0984 500.9983,63.6584 C508.3773,69.2204 517.4823,71.5764 526.6303,70.2874 C527.0563,70.2324 527.4703,70.5294 527.5333,70.9684 C527.5933,71.4064 527.2893,71.8104 526.8513,71.8724 C525.1423,72.1124 523.4353,72.2314 521.7393,72.2314" id="Fill-2372" fill="#1D213A"></path>
            <path d="M521.7695,59.6299 C510.1045,59.6299 500.0795,50.8979 498.4515,39.3169 C497.5735,33.0749 499.1805,26.8659 502.9705,21.8329 C506.7635,16.8009 512.2905,13.5449 518.5325,12.6679 C519.6375,12.5129 520.7545,12.4349 521.8615,12.4349 C533.5265,12.4349 543.5515,21.1679 545.1785,32.7489 C546.0575,38.9899 544.4505,45.1989 540.6605,50.2329 C536.8675,55.2639 531.3395,58.5209 525.0985,59.3979 C523.9925,59.5529 522.8745,59.6299 521.7695,59.6299" id="Fill-2374" fill="#E8EAEF"></path>
            <path d="M260.584,83.6914 C260.584,83.6914 248.694,86.4084 242.52,78.1614 C242.52,78.1614 250.409,74.2294 249.063,65.0744 C246.391,46.8994 246.848,42.8954 252.229,36.3404 C258.827,28.3014 269.813,32.3794 269.813,32.3794 C269.813,32.3794 270.107,23.0604 281.413,21.0194 C292.924,18.9404 303.811,23.2994 309.984,29.5424 C317.764,37.4074 318.848,49.1114 329.247,49.5724 C329.247,49.5724 318.903,59.3364 305.572,51.7444 L260.584,83.6914 Z" id="Fill-2376" fill="#1D213A"></path>
            <path d="M265.9941,80.5098 L256.5261,134.2478 C256.5261,134.2478 272.5461,147.6148 291.1821,146.8228 C307.0961,146.1478 311.4081,136.9218 311.4081,136.9218 L310.1681,82.4928 L265.9941,80.5098 Z" id="Fill-2378" fill="#FFC4A3"></path>
            <path d="M331.9189,280.0937 C331.9189,280.0937 336.3429,294.1027 339.2919,312.9047 C339.2919,312.9047 397.1719,291.8907 431.8249,285.9917 C466.4799,280.0937 483.4379,287.8347 492.6539,323.9637 C501.8699,360.0917 500.7649,495.3897 500.7649,495.3897 L400.4889,495.3897 L405.6499,389.5847 L307.5879,406.5427 C307.5879,406.5427 303.5319,473.6387 297.6339,511.2417 C291.7349,548.8447 272.9339,561.7477 223.5329,556.2177 C174.1339,550.6887 98.5589,529.6747 98.5589,529.6747 C98.5589,529.6747 85.6549,503.4997 93.0279,473.6387 C100.4019,443.7777 118.8349,430.1377 118.8349,430.1377 L208.4189,455.5737 C208.4189,455.5737 209.3409,418.7677 214.6859,363.4097 C219.8419,310.0207 226.4829,280.0937 226.4829,280.0937 L331.9189,280.0937 Z" id="Fill-2380" fill="#1D213A"></path>
            <path d="M348.6035,67.3809 C348.2015,67.3809 347.8565,67.0799 347.8095,66.6719 C347.7595,66.2329 348.0755,65.8359 348.5135,65.7859 L489.4765,49.8279 C489.8955,49.7789 490.3105,50.0919 490.3625,50.5329 C490.4125,50.9719 490.0965,51.3689 489.6585,51.4189 L348.6955,67.3769 C348.6645,67.3799 348.6345,67.3809 348.6035,67.3809" id="Fill-2382" fill="#1D213A"></path>
            <path d="M350.4746,294.1758 C328.3556,238.8278 336.6196,139.4498 336.6196,139.4498 C336.6196,139.4498 309.6996,136.2828 286.5746,135.2108 C260.0316,133.9808 230.6156,128.7478 226.1146,158.9888 C220.2156,198.6198 225.3766,249.0028 210.6306,300.0008 C210.6306,300.0008 238.2806,313.6418 283.2556,312.9048 C328.2326,312.1668 350.4746,294.1758 350.4746,294.1758" id="Fill-2384" fill="#D3D6E2"></path>
            <path d="M311.127,124.583 L310.168,82.493 L298.204,81.956 L296.314,117.405 C296.314,117.405 301.702,122.176 311.127,124.583" id="Fill-2386" fill="#F99175"></path>
            <path d="M397.4307,90.125 C395.9547,95.228 388.4057,125.104 380.5897,153.711 C373.6597,155.392 363.2787,156.483 350.8027,153.445 C340.7747,151.057 334.3457,146.014 330.2757,141.029 C339.0647,123.923 351.2147,101.066 362.3337,83.047 C362.3337,83.047 359.6507,69.863 360.4757,57.801 C361.1837,47.685 363.1897,39.427 366.8167,37.274 C370.7097,34.974 373.8947,37.894 373.8947,37.894 C373.8947,37.894 374.8687,34.502 378.4957,33.115 C382.4487,31.611 384.8957,34.561 384.8957,34.561 C384.8957,34.561 386.5467,31.081 390.5297,30.313 C394.3927,29.576 396.4567,32.525 396.4567,32.525 L395.2177,44.264 C404.5377,65.911 400.9407,77.826 397.4307,90.125" id="Fill-2388" fill="#FFC4A3"></path>
            <path d="M259.4414,53.0303 C259.4414,53.0303 268.3864,45.3823 283.9674,41.3263 C300.6964,36.9713 309.7384,42.8623 317.6644,62.9543 C325.5904,83.0463 326.7824,106.2843 311.0904,114.4563 C297.1434,121.7193 275.8364,116.9243 267.0564,89.7513 C260.7734,70.3053 259.4414,53.0303 259.4414,53.0303" id="Fill-2390" fill="#FFC4A3"></path>
            <path d="M271.5947,43.0088 C267.3547,47.4328 278.0577,62.6778 275.4087,69.7368 C272.6087,77.2018 261.1797,79.3218 261.1797,79.3218 L255.6987,51.4508 L271.5947,43.0088 Z" id="Fill-2392" fill="#1D213A"></path>
            <path d="M285.4189,38.4619 C292.0549,37.1099 294.5969,56.0539 307.2929,59.4759 C321.4249,63.2849 329.2469,49.5719 329.2469,49.5719 C329.2469,49.5719 322.1899,54.6589 312.0969,44.4829 C298.5679,30.8439 285.4189,38.4619 285.4189,38.4619" id="Fill-2394" fill="#1D213A"></path>
            <path d="M441.1924,20.7803 C441.1924,20.7803 435.9724,15.7193 429.9354,19.5913 C423.6724,23.6063 426.2014,35.1853 432.4704,34.6593 C439.6134,34.0603 437.6314,27.1023 441.1924,20.7803" id="Fill-2396" fill="#FFC4A3"></path>
            <path d="M429.8896,23.7363 C429.8896,23.7363 424.4666,18.6343 418.4306,22.5063 C412.1676,26.5213 414.6826,37.9253 420.9646,37.5753 C428.5996,37.1483 426.3286,30.0573 429.8896,23.7363" id="Fill-2398" fill="#FFC4A3"></path>
            <path d="M427.3516,32.166 C427.0596,32.166 426.7786,32.005 426.6376,31.727 C425.0786,28.641 425.1506,24.631 426.8156,21.748 C427.0366,21.367 427.5266,21.236 427.9086,21.456 C428.2906,21.677 428.4216,22.166 428.2006,22.549 C426.8156,24.945 426.7606,28.422 428.0656,31.005 C428.2636,31.398 428.1066,31.88 427.7126,32.08 C427.5966,32.138 427.4736,32.166 427.3516,32.166" id="Fill-2400" fill="#1D213A"></path>
            <path d="M452.5,17.8232 C452.5,17.8232 447.632,13.0472 441.595,16.9182 C435.332,20.9332 436.825,33.0162 444.359,32.2632 C451.732,31.5262 448.939,24.1452 452.5,17.8232" id="Fill-2402" fill="#FFC4A3"></path>
            <path d="M438.498,29.5469 C438.195,29.5469 437.904,29.3729 437.77,29.0799 C436.33,25.9239 436.646,21.8179 438.558,18.8639 C438.8,18.4899 439.299,18.3879 439.664,18.6269 C440.036,18.8669 440.141,19.3619 439.901,19.7329 C438.3,22.2079 438.023,25.7779 439.227,28.4139 C439.409,28.8179 439.232,29.2909 438.831,29.4749 C438.724,29.5239 438.609,29.5469 438.498,29.5469" id="Fill-2404" fill="#1D213A"></path>
            <path d="M383.7158,43.1699 L383.7158,43.1699 C383.2738,43.1699 382.9158,42.8129 382.9158,42.3699 C382.9158,42.1979 382.9298,38.0999 384.1328,34.3169 C384.2678,33.8969 384.7218,33.6659 385.1378,33.7969 C385.5598,33.9319 385.7918,34.3809 385.6578,34.8019 C384.5308,38.3419 384.5158,42.3309 384.5158,42.3699 C384.5158,42.8129 384.1578,43.1699 383.7158,43.1699" id="Fill-2406" fill="#1D213A"></path>
            <path d="M373.0254,44.2891 L373.0234,44.2891 C372.5834,44.2871 372.2244,43.9301 372.2244,43.4891 C372.2244,43.4031 372.2344,41.3261 373.1064,37.6981 C373.2094,37.2711 373.6274,37.0131 374.0724,37.1071 C374.5024,37.2111 374.7654,37.6431 374.6624,38.0731 C373.8404,41.4941 373.8254,43.4711 373.8254,43.4901 C373.8234,43.9321 373.4654,44.2891 373.0254,44.2891" id="Fill-2408" fill="#1D213A"></path>
            <path d="M267.5264,77.9463 C267.5264,77.9463 262.6444,73.7093 256.5264,76.0323 C248.8454,78.9493 251.0454,91.7363 258.5554,95.4573 C265.2544,98.7753 272.4794,93.8053 272.4794,93.8053 L267.5264,77.9463 Z" id="Fill-2410" fill="#FFC4A3"></path>
            <path d="M536.8936,29.3193 C536.8936,34.2063 532.9316,38.1673 528.0456,38.1673 C523.1596,38.1673 519.1986,34.2063 519.1986,29.3193 C519.1986,24.4323 523.1596,20.4713 528.0456,20.4713 C532.9316,20.4713 536.8936,24.4323 536.8936,29.3193" id="Fill-2412" fill="#F3F4F7"></path>
            <path d="M311.4092,136.9219 L311.1272,124.5829 L258.8372,121.1339 L256.5262,134.2479 C256.5262,134.2479 272.5462,147.6149 291.1822,146.8229 C307.0962,146.1479 311.4092,136.9219 311.4092,136.9219" id="Fill-2414" fill="#D3D6E2"></path>
            <path d="M380.5898,153.7109 C382.2338,147.6939 383.8608,141.6329 385.4278,135.7469 C385.4168,135.7519 376.5188,140.5679 361.9038,138.8489 C346.0638,136.9849 335.8998,130.2929 335.8648,130.2709 C333.9028,134.0129 332.0098,137.6539 330.2758,141.0289 C334.3458,146.0139 340.7748,151.0569 350.8028,153.4449 C363.2778,156.4829 373.6588,155.3919 380.5898,153.7109" id="Fill-2416" fill="#F99175"></path>
            <path d="M300.5215,145.9795 C300.1895,145.9795 299.8775,145.7705 299.7635,145.4375 C299.6225,145.0185 299.8465,144.5645 300.2635,144.4215 C308.1545,141.7445 310.6615,136.6325 310.6855,136.5815 C310.8755,136.1815 311.3515,136.0055 311.7505,136.2005 C312.1485,136.3875 312.3205,136.8615 312.1345,137.2605 C312.0255,137.4955 309.3565,143.0255 300.7795,145.9375 C300.6935,145.9655 300.6075,145.9795 300.5215,145.9795" id="Fill-2418" fill="#1D213A"></path>
            <path d="M365.835,202.6758 C370.34,190.7828 377.392,165.6928 383.715,142.1338 C383.706,142.1388 372.281,148.6168 354.961,144.8088 C339.763,141.4678 335.863,130.2718 335.862,130.2688 C325.509,150.0138 317.848,165.8328 317.848,165.8328 C317.848,165.8328 273.243,134.4498 254.092,134.4338 C234.94,134.4158 223.36,160.7728 229.985,178.8968 C239.755,205.6248 296.816,224.9408 324.914,229.0338 C352.748,233.0898 356.062,228.4788 365.835,202.6758" id="Fill-2420" fill="#D3D6E2"></path>
            <path d="M339.1377,231.1299 C335.1857,231.1299 330.4937,230.6559 324.7987,229.8259 C306.9397,227.2249 271.8687,217.3989 248.4487,200.9919 C248.0877,200.7389 247.9977,200.2399 248.2527,199.8779 C248.5057,199.5159 249.0047,199.4299 249.3667,199.6829 C269.8987,214.0649 303.6737,225.1309 325.0297,228.2419 C352.8337,232.2939 355.5137,227.6619 365.0877,202.3929 C368.8337,192.5029 374.6747,172.7239 382.9437,141.9269 C383.0577,141.5019 383.4937,141.2479 383.9237,141.3619 C384.3497,141.4769 384.6037,141.9159 384.4877,142.3419 C376.2057,173.1909 370.3487,193.0189 366.5837,202.9579 C358.6037,224.0259 354.4327,231.1299 339.1377,231.1299" id="Fill-2422" fill="#1D213A"></path>
            <path d="M317.8467,166.6328 C317.6847,166.6328 317.5237,166.5828 317.3857,166.4868 C316.9767,166.1978 276.1897,137.6378 256.3967,135.3748 C255.9577,135.3248 255.6427,134.9278 255.6927,134.4888 C255.7427,134.0498 256.1537,133.7518 256.5777,133.7838 C275.4907,135.9468 311.6307,160.5468 317.5367,164.6408 C318.9627,161.7208 323.9817,151.4978 330.6817,138.4998 C330.8847,138.1078 331.3697,137.9508 331.7597,138.1558 C332.1517,138.3578 332.3067,138.8408 332.1037,139.2348 C324.1857,154.5908 318.6217,166.0678 318.5677,166.1818 C318.4637,166.3928 318.2757,166.5488 318.0467,166.6078 C317.9817,166.6248 317.9137,166.6328 317.8467,166.6328" id="Fill-2424" fill="#1D213A"></path>
            <path d="M307.5889,407.3437 C307.5699,407.3437 307.5519,407.3437 307.5339,407.3417 C307.0939,407.3127 306.7599,406.9317 306.7889,406.4897 C308.0649,387.4497 308.4429,362.7967 308.4469,362.5497 C308.4509,362.2077 308.6749,361.9077 308.9999,361.8017 C309.1219,361.7627 321.2249,357.6927 325.8199,344.9637 C325.9739,344.5497 326.4249,344.3407 326.8459,344.4827 C327.2609,344.6327 327.4769,345.0917 327.3259,345.5077 C322.9719,357.5657 312.5679,362.1687 310.0369,363.1297 C309.9739,366.9037 309.5569,389.1077 308.3859,406.5967 C308.3579,407.0207 308.0059,407.3437 307.5889,407.3437" id="Fill-2426" fill="#E8EAEF"></path>
            <path d="M405.6504,390.3848 L405.6194,390.3848 C405.1774,390.3668 404.8334,389.9948 404.8494,389.5528 L405.9264,361.7938 C405.9434,361.3538 406.2394,361.0608 406.7574,361.0258 C407.1984,361.0418 407.5444,361.4138 407.5264,361.8568 L406.4504,389.6148 C406.4324,390.0468 406.0784,390.3848 405.6504,390.3848" id="Fill-2428" fill="#E8EAEF"></path>
            <path d="M311.0908,182.6592 C311.0018,182.6592 310.9108,182.6452 310.8218,182.6122 C310.4058,182.4642 310.1898,182.0082 310.3378,181.5912 C310.3538,181.5452 312.0028,176.9432 317.1168,165.5062 C317.2988,165.1012 317.7738,164.9202 318.1738,165.1032 C318.5758,165.2832 318.7578,165.7562 318.5758,166.1592 C313.4968,177.5232 311.8618,182.0832 311.8438,182.1282 C311.7288,182.4552 311.4188,182.6592 311.0908,182.6592" id="Fill-2430" fill="#1D213A"></path>
            <path d="M503.6221,537.3066 C494.2221,520.6246 466.8771,524.1076 466.8771,524.1076 L467.2651,515.9176 L457.8161,515.9176 C450.2591,515.9176 449.1521,527.9066 449.1521,527.9066 L416.8741,531.7286 L415.3581,563.8366 L506.5401,563.8366 C506.5401,563.8366 511.6581,551.5666 503.6221,537.3066" id="Fill-2432" fill="#D3D6E2"></path>
            <path d="M507.9512,551.4707 L415.9792,551.4707 C415.5372,551.4707 415.1802,551.1127 415.1802,550.6697 C415.1802,550.2287 415.5372,549.8697 415.9792,549.8697 L507.9512,549.8697 C508.3932,549.8697 508.7522,550.2287 508.7522,550.6697 C508.7522,551.1127 508.3932,551.4707 507.9512,551.4707" id="Fill-2434" fill="#1D213A"></path>
            <path d="M34.2285,541.4248 C34.1325,541.4248 34.0345,541.4078 33.9395,541.3718 C33.5285,541.2128 33.3225,540.7478 33.4815,540.3358 L66.6115,454.6148 C66.7705,454.2028 67.2295,453.9968 67.6465,454.1578 C68.0575,454.3178 68.2635,454.7808 68.1045,455.1938 L34.9745,540.9138 C34.8515,541.2318 34.5485,541.4248 34.2285,541.4248" id="Fill-2436" fill="#1D213A"></path>
            <path d="M265.7676,86.7676 C265.4866,86.7676 265.2126,86.6176 265.0676,86.3536 C264.0026,84.4236 262.6796,83.2376 261.1306,82.8286 C258.9186,82.2446 256.9656,83.4216 256.9456,83.4326 C256.5706,83.6666 256.0766,83.5486 255.8456,83.1696 C255.6146,82.7936 255.7316,82.3016 256.1076,82.0706 C256.2106,82.0046 258.6686,80.5216 261.5406,81.2816 C263.5286,81.8066 265.1856,83.2526 266.4666,85.5806 C266.6816,85.9686 266.5406,86.4556 266.1536,86.6686 C266.0316,86.7366 265.8986,86.7676 265.7676,86.7676" id="Fill-2438" fill="#1D213A"></path>
            <path d="M240.6768,74.8262 C240.3338,74.8262 240.0178,74.6042 239.9108,74.2612 C239.7828,73.8382 240.0208,73.3902 240.4428,73.2612 C240.6578,73.1922 245.8278,71.4352 245.0408,62.6702 C244.0798,51.9552 245.0748,43.3922 253.0528,36.4342 C253.3878,36.1452 253.8928,36.1772 254.1828,36.5112 C254.4738,36.8462 254.4398,37.3492 254.1068,37.6402 C246.6378,44.1532 245.7168,52.3002 246.6348,62.5262 C247.5418,72.6432 241.1818,74.7092 240.9108,74.7922 C240.8328,74.8152 240.7528,74.8262 240.6768,74.8262" id="Fill-2440" fill="#1D213A"></path>
            <path d="M329.1035,46.6924 C328.0185,46.6924 323.6845,46.1014 318.5135,37.4484 C312.8955,28.0444 305.7085,24.2844 292.0025,23.5814 C291.5605,23.5594 291.2215,23.1824 291.2455,22.7424 C291.2675,22.3014 291.5785,21.9314 292.0835,21.9844 C306.4145,22.7184 313.9505,26.6874 319.8885,36.6274 C325.1125,45.3734 329.1145,45.0834 329.1535,45.0914 C329.5515,45.0394 329.9815,45.3614 330.0335,45.7924 C330.0835,46.2244 329.7895,46.6194 329.3575,46.6774 C329.3335,46.6814 329.2475,46.6924 329.1035,46.6924" id="Fill-2442" fill="#1D213A"></path>
            <path d="M275.8379,76.1357 C275.6279,76.1357 275.4199,76.0547 275.2639,75.8927 C274.9559,75.5757 274.9629,75.0707 275.2779,74.7627 C275.4479,74.5957 279.4469,70.5757 277.6279,63.4087 C277.0189,61.0127 275.5049,58.3417 274.0409,55.7597 C270.9249,50.2637 267.3959,44.0337 273.1539,40.0317 C273.5159,39.7787 274.0159,39.8687 274.2679,40.2317 C274.5209,40.5937 274.4299,41.0917 274.0669,41.3437 C269.8129,44.3017 271.7449,48.4657 275.4329,54.9707 C276.9479,57.6457 278.5179,60.4107 279.1779,63.0157 C281.2339,71.1147 276.5909,75.7187 276.3929,75.9107 C276.2369,76.0607 276.0369,76.1357 275.8379,76.1357" id="Fill-2444" fill="#1D213A"></path>
            <path d="M463.0996,532.8232 C463.0876,532.8232 463.0736,532.8232 463.0596,532.8222 C462.6196,532.8002 462.2786,532.4252 462.3016,531.9822 C462.5626,526.7832 466.2036,523.6302 466.3576,523.4982 C466.6986,523.2132 467.2016,523.2552 467.4846,523.5892 C467.7706,523.9252 467.7316,524.4292 467.3956,524.7162 C467.3646,524.7442 464.1246,527.5722 463.8986,532.0642 C463.8776,532.4902 463.5236,532.8232 463.0996,532.8232" id="Fill-2446" fill="#1D213A"></path>
            <path d="M470.7187,532.8232 C470.2867,532.8232 469.9327,532.4812 469.9187,532.0472 C469.7217,525.5202 473.7517,523.2192 473.9217,523.1232 C474.3077,522.9082 474.7947,523.0492 475.0097,523.4352 C475.2217,523.8222 475.0837,524.3062 474.6997,524.5212 C474.5607,524.5992 471.3537,526.4952 471.5187,532.0002 C471.5307,532.4402 471.1847,532.8092 470.7417,532.8232 L470.7187,532.8232 Z" id="Fill-2448" fill="#1D213A"></path>
            <path d="M478.5518,532.8232 C478.1358,532.8232 477.7858,532.5022 477.7548,532.0812 C477.2548,525.1332 481.4748,523.7672 481.6548,523.7132 C482.0828,523.5882 482.5268,523.8222 482.6538,524.2452 C482.7808,524.6662 482.5468,525.1092 482.1278,525.2402 C481.9948,525.2842 478.9478,526.3592 479.3518,531.9662 C479.3828,532.4062 479.0518,532.7892 478.6118,532.8222 C478.5908,532.8232 478.5728,532.8232 478.5518,532.8232" id="Fill-2450" fill="#1D213A"></path>
            <path d="M85.0908,508.4639 C84.7268,508.4639 84.3988,508.2159 84.3108,507.8489 C84.2658,507.6519 83.1218,503.0259 78.4918,501.7009 C78.0678,501.5809 77.8218,501.1379 77.9438,500.7129 C78.0648,500.2869 78.5028,500.0359 78.9328,500.1639 C84.4848,501.7499 85.8158,507.2519 85.8698,507.4859 C85.9688,507.9159 85.7008,508.3439 85.2718,508.4429 C85.2108,508.4579 85.1508,508.4639 85.0908,508.4639" id="Fill-2452" fill="#1D213A"></path>
            <path d="M83.1436,517.0469 C82.7496,517.0469 82.4066,516.7549 82.3516,516.3539 C82.3236,516.1389 81.5856,511.0759 76.6036,509.3049 C76.1856,509.1579 75.9686,508.6999 76.1176,508.2839 C76.2656,507.8689 76.7296,507.6469 77.1376,507.7989 C83.0626,509.9029 83.9066,515.8909 83.9396,516.1459 C83.9956,516.5829 83.6876,516.9829 83.2496,517.0409 C83.2136,517.0449 83.1796,517.0469 83.1436,517.0469" id="Fill-2454" fill="#1D213A"></path>
            <path d="M80.2471,524.4922 L80.2031,524.4922 C79.7631,524.4692 79.4251,524.0922 79.4471,523.6512 C79.4561,523.4452 79.6481,518.5722 75.2501,517.0022 C74.8341,516.8532 74.6171,516.3952 74.7661,515.9792 C74.9141,515.5622 75.3751,515.3442 75.7871,515.4952 C81.3231,517.4712 81.0471294,523.6752 81.0441,523.7372 C81.0201,524.1642 80.6671,524.4922 80.2471,524.4922" id="Fill-2456" fill="#1D213A"></path>
            <path d="M315.832,66.5811 C315.832,67.8031 314.842,68.7931 313.62,68.7931 C312.398,68.7931 311.408,67.8031 311.408,66.5811 C311.408,65.3591 312.398,64.3691 313.62,64.3691 C314.842,64.3691 315.832,65.3591 315.832,66.5811" id="Fill-2458" fill="#1D213A"></path>
            <path d="M288.7598,75.5029 C288.5858,75.5029 288.4108,75.4469 288.2638,75.3309 C287.9168,75.0579 287.8578,74.5549 288.1308,74.2079 C288.3878,73.8809 288.6748,73.6389 288.9748,73.4639 C288.7758,73.4059 288.5598,73.3569 288.3258,73.3199 C286.5418,73.0499 285.7248,74.2829 285.7158,74.2949 C285.4788,74.6669 284.9848,74.7759 284.6118,74.5339 C284.2388,74.2949 284.1308,73.8019 284.3718,73.4299 C284.4268,73.3439 285.7628,71.3109 288.5688,71.7389 C290.8228,72.0839 291.9658,73.4379 292.0128,73.4939 C292.2438,73.7739 292.2598,74.1739 292.0488,74.4689 C291.8388,74.7639 291.4558,74.8809 291.1148,74.7529 C291.0108,74.7169 290.0208,74.3969 289.3878,75.1979 C289.2298,75.3989 288.9948,75.5029 288.7598,75.5029" id="Fill-2460" fill="#1D213A"></path>
            <path d="M289.3633,63.9687 C288.7723,65.4967 285.6493,65.7837 282.4653,66.4127 C279.2573,66.9117 276.2253,67.7087 275.1463,66.4757 C274.0323,65.3097 276.4663,61.5047 281.4433,60.6187 C286.4243,59.7487 290.0113,62.4917 289.3633,63.9687" id="Fill-2462" fill="#1D213A"></path>
            <path d="M308.8828,84.0264 C308.1658,84.0264 307.4018,83.9274 306.5998,83.7094 C306.0888,83.5704 305.7868,83.0444 305.9268,82.5334 C306.0678,82.0234 306.5938,81.7154 307.1038,81.8594 C310.0528,82.6624 312.2638,81.3674 313.1328,79.7204 C313.5988,78.8404 313.8078,77.5284 312.8648,76.7214 C311.1038,75.2234 309.1118,77.1674 308.8938,77.3964 C308.6798,77.6144 308.3778,77.7244 308.0748,77.6794 C307.7738,77.6384 307.5078,77.4584 307.3618,77.1904 L304.2908,71.5724 C304.0358,71.1074 304.2058,70.5254 304.6718,70.2714 C305.1358,70.0174 305.7208,70.1894 305.9718,70.6534 L308.4868,75.2504 C309.9088,74.2734 312.1168,73.5674 314.1098,75.2634 C315.5718,76.5134 315.8618,78.6644 314.8278,80.6174 C313.8488,82.4704 311.7248,84.0264 308.8828,84.0264" id="Fill-2464" fill="#F99175"></path>
            <path d="M310.0459,94.2412 C310.0459,97.1742 308.0659,99.5502 305.6219,99.5502 C303.1789,99.5502 301.1979,97.1742 301.1979,94.2412 C301.1979,91.3092 303.1789,88.9322 305.6219,88.9322 C308.0659,88.9322 310.0459,91.3092 310.0459,94.2412" id="Fill-2466" fill="#1D213A"></path>
        </g>
    </g>
</svg>