<?xml version="1.0" encoding="UTF-8"?>
<svg width="438px" height="526px" viewBox="0 0 438 526" version="1.1" xmlns="http://www.w3.org/2000/svg" xmlns:xlink="http://www.w3.org/1999/xlink">
    <title>Illustration 4 0</title>
    <g id="🤩-Illustrations" stroke="none" stroke-width="1" fill="none" fill-rule="evenodd">
        <g id="Illustration-4">
            <path d="M430.1768,216.5107 C427.2788,216.5107 425.7518,214.9857 424.5238,213.7597 C423.3778,212.6147 422.4718,211.7107 420.5658,211.7107 C418.6588,211.7107 417.7548,212.6147 416.6098,213.7597 C415.3828,214.9857 413.8548,216.5107 410.9558,216.5107 C408.0598,216.5107 406.5338,214.9847 405.3098,213.7587 C404.1658,212.6147 403.2628,211.7107 401.3618,211.7107 C399.4588,211.7107 398.5568,212.6147 397.4118,213.7597 C396.1878,214.9847 394.6638,216.5107 391.7688,216.5107 C388.8728,216.5107 387.3488,214.9847 386.1228,213.7587 C384.9798,212.6147 384.0758,211.7107 382.1768,211.7107 C381.5138,211.7107 380.9768,211.1737 380.9768,210.5107 C380.9768,209.8477 381.5138,209.3107 382.1768,209.3107 C385.0728,209.3107 386.5958,210.8367 387.8208,212.0617 C388.9638,213.2067 389.8668,214.1107 391.7688,214.1107 C393.6688,214.1107 394.5728,213.2067 395.7158,212.0627 C396.9408,210.8367 398.4658,209.3107 401.3618,209.3107 C404.2558,209.3107 405.7808,210.8367 407.0058,212.0617 C408.1508,213.2067 409.0548,214.1107 410.9558,214.1107 C412.8628,214.1107 413.7678,213.2067 414.9118,212.0617 C416.1388,210.8357 417.6668,209.3107 420.5658,209.3107 C423.4658,209.3107 424.9918,210.8367 426.2208,212.0617 C427.3648,213.2067 428.2708,214.1107 430.1768,214.1107 C430.8388,214.1107 431.3768,214.6477 431.3768,215.3107 C431.3768,215.9727 430.8388,216.5107 430.1768,216.5107" id="Fill-534" fill="#CDD1DF"></path>
            <path d="M430.1768,229.3105 C427.2788,229.3105 425.7518,227.7855 424.5238,226.5605 C423.3778,225.4155 422.4718,224.5105 420.5658,224.5105 C418.6588,224.5105 417.7548,225.4145 416.6098,226.5605 C415.3828,227.7855 413.8548,229.3105 410.9558,229.3105 C408.0598,229.3105 406.5338,227.7845 405.3098,226.5585 C404.1658,225.4145 403.2628,224.5105 401.3618,224.5105 C399.4588,224.5105 398.5568,225.4145 397.4118,226.5595 C396.1878,227.7845 394.6638,229.3105 391.7688,229.3105 C388.8728,229.3105 387.3488,227.7845 386.1228,226.5585 C384.9798,225.4145 384.0758,224.5105 382.1768,224.5105 C381.5138,224.5105 380.9768,223.9735 380.9768,223.3105 C380.9768,222.6475 381.5138,222.1105 382.1768,222.1105 C385.0728,222.1105 386.5958,223.6365 387.8208,224.8625 C388.9638,226.0065 389.8668,226.9105 391.7688,226.9105 C393.6688,226.9105 394.5728,226.0065 395.7158,224.8625 C396.9408,223.6365 398.4658,222.1105 401.3618,222.1105 C404.2558,222.1105 405.7808,223.6365 407.0058,224.8625 C408.1508,226.0065 409.0548,226.9105 410.9558,226.9105 C412.8628,226.9105 413.7678,226.0065 414.9118,224.8615 C416.1388,223.6355 417.6668,222.1105 420.5658,222.1105 C423.4658,222.1105 424.9918,223.6365 426.2208,224.8625 C427.3648,226.0065 428.2708,226.9105 430.1768,226.9105 C430.8388,226.9105 431.3768,227.4485 431.3768,228.1105 C431.3768,228.7725 430.8388,229.3105 430.1768,229.3105" id="Fill-536" fill="#CDD1DF"></path>
            <path d="M430.1768,242.1108 C427.2788,242.1108 425.7518,240.5858 424.5238,239.3598 C423.3778,238.2148 422.4718,237.3108 420.5658,237.3108 C418.6588,237.3108 417.7548,238.2148 416.6098,239.3598 C415.3828,240.5858 413.8548,242.1108 410.9558,242.1108 C408.0598,242.1108 406.5338,240.5848 405.3098,239.3588 C404.1658,238.2148 403.2628,237.3108 401.3618,237.3108 C399.4588,237.3108 398.5568,238.2148 397.4118,239.3588 C396.1878,240.5848 394.6638,242.1108 391.7688,242.1108 C388.8728,242.1108 387.3488,240.5848 386.1228,239.3588 C384.9798,238.2148 384.0758,237.3108 382.1768,237.3108 C381.5138,237.3108 380.9768,236.7728 380.9768,236.1108 C380.9768,235.4478 381.5138,234.9108 382.1768,234.9108 C385.0728,234.9108 386.5958,236.4368 387.8208,237.6618 C388.9638,238.8068 389.8668,239.7108 391.7688,239.7108 C393.6688,239.7108 394.5728,238.8068 395.7158,237.6628 C396.9408,236.4368 398.4658,234.9108 401.3618,234.9108 C404.2558,234.9108 405.7808,236.4368 407.0058,237.6618 C408.1508,238.8068 409.0548,239.7108 410.9558,239.7108 C412.8628,239.7108 413.7678,238.8068 414.9118,237.6618 C416.1388,236.4358 417.6668,234.9108 420.5658,234.9108 C423.4658,234.9108 424.9918,236.4368 426.2208,237.6618 C427.3648,238.8068 428.2708,239.7108 430.1768,239.7108 C430.8388,239.7108 431.3768,240.2478 431.3768,240.9108 C431.3768,241.5728 430.8388,242.1108 430.1768,242.1108" id="Fill-538" fill="#CDD1DF"></path>
            <path d="M430.1768,254.9106 C427.2788,254.9106 425.7518,253.3856 424.5238,252.1596 C423.3778,251.0146 422.4718,250.1106 420.5658,250.1106 C418.6588,250.1106 417.7548,251.0146 416.6098,252.1596 C415.3828,253.3856 413.8548,254.9106 410.9558,254.9106 C408.0598,254.9106 406.5338,253.3846 405.3098,252.1586 C404.1658,251.0146 403.2628,250.1106 401.3618,250.1106 C399.4588,250.1106 398.5568,251.0146 397.4118,252.1596 C396.1878,253.3846 394.6638,254.9106 391.7688,254.9106 C388.8728,254.9106 387.3488,253.3846 386.1228,252.1586 C384.9798,251.0146 384.0758,250.1106 382.1768,250.1106 C381.5138,250.1106 380.9768,249.5736 380.9768,248.9106 C380.9768,248.2476 381.5138,247.7106 382.1768,247.7106 C385.0728,247.7106 386.5958,249.2366 387.8208,250.4626 C388.9638,251.6066 389.8668,252.5106 391.7688,252.5106 C393.6688,252.5106 394.5728,251.6066 395.7158,250.4626 C396.9408,249.2366 398.4658,247.7106 401.3618,247.7106 C404.2558,247.7106 405.7808,249.2366 407.0058,250.4626 C408.1508,251.6066 409.0548,252.5106 410.9558,252.5106 C412.8628,252.5106 413.7678,251.6066 414.9118,250.4616 C416.1388,249.2356 417.6668,247.7106 420.5658,247.7106 C423.4658,247.7106 424.9918,249.2366 426.2208,250.4626 C427.3648,251.6066 428.2708,252.5106 430.1768,252.5106 C430.8388,252.5106 431.3768,253.0486 431.3768,253.7106 C431.3768,254.3726 430.8388,254.9106 430.1768,254.9106" id="Fill-540" fill="#CDD1DF"></path>
            <path d="M59.3721,52.3618 C59.3721,54.1298 57.9391,55.5618 56.1731,55.5618 C54.4051,55.5618 52.9731,54.1298 52.9731,52.3618 C52.9731,50.5948 54.4051,49.1618 56.1731,49.1618 C57.9391,49.1618 59.3721,50.5948 59.3721,52.3618" id="Fill-542" fill="#CDD1DF"></path>
            <path d="M91.3721,52.3618 C91.3721,54.1298 89.9391,55.5618 88.1731,55.5618 C86.4051,55.5618 84.9731,54.1298 84.9731,52.3618 C84.9731,50.5948 86.4051,49.1618 88.1731,49.1618 C89.9391,49.1618 91.3721,50.5948 91.3721,52.3618" id="Fill-544" fill="#CDD1DF"></path>
            <path d="M123.3721,52.3618 C123.3721,54.1298 121.9391,55.5618 120.1731,55.5618 C118.4051,55.5618 116.9731,54.1298 116.9731,52.3618 C116.9731,50.5948 118.4051,49.1618 120.1731,49.1618 C121.9391,49.1618 123.3721,50.5948 123.3721,52.3618" id="Fill-546" fill="#CDD1DF"></path>
            <path d="M155.3721,52.3618 C155.3721,54.1298 153.9391,55.5618 152.1731,55.5618 C150.4051,55.5618 148.9731,54.1298 148.9731,52.3618 C148.9731,50.5948 150.4051,49.1618 152.1731,49.1618 C153.9391,49.1618 155.3721,50.5948 155.3721,52.3618" id="Fill-548" fill="#CDD1DF"></path>
            <path d="M60.9727,84.3618 C60.9727,87.0128 58.8237,89.1618 56.1727,89.1618 C53.5217,89.1618 51.3717,87.0128 51.3717,84.3618 C51.3717,81.7108 53.5217,79.5618 56.1727,79.5618 C58.8237,79.5618 60.9727,81.7108 60.9727,84.3618" id="Fill-550" fill="#CDD1DF"></path>
            <path d="M92.9727,84.3618 C92.9727,87.0128 90.8237,89.1618 88.1727,89.1618 C85.5217,89.1618 83.3717,87.0128 83.3717,84.3618 C83.3717,81.7108 85.5217,79.5618 88.1727,79.5618 C90.8237,79.5618 92.9727,81.7108 92.9727,84.3618" id="Fill-552" fill="#CDD1DF"></path>
            <path d="M123.3721,84.3618 C123.3721,86.1298 121.9391,87.5618 120.1731,87.5618 C118.4051,87.5618 116.9731,86.1298 116.9731,84.3618 C116.9731,82.5948 118.4051,81.1618 120.1731,81.1618 C121.9391,81.1618 123.3721,82.5948 123.3721,84.3618" id="Fill-554" fill="#CDD1DF"></path>
            <path d="M155.3721,84.3618 C155.3721,86.1298 153.9391,87.5618 152.1731,87.5618 C150.4051,87.5618 148.9731,86.1298 148.9731,84.3618 C148.9731,82.5948 150.4051,81.1618 152.1731,81.1618 C153.9391,81.1618 155.3721,82.5948 155.3721,84.3618" id="Fill-556" fill="#CDD1DF"></path>
            <path d="M60.9727,116.3618 C60.9727,119.0128 58.8237,121.1618 56.1727,121.1618 C53.5217,121.1618 51.3717,119.0128 51.3717,116.3618 C51.3717,113.7108 53.5217,111.5618 56.1727,111.5618 C58.8237,111.5618 60.9727,113.7108 60.9727,116.3618" id="Fill-558" fill="#CDD1DF"></path>
            <path d="M92.9727,116.3618 C92.9727,119.0128 90.8237,121.1618 88.1727,121.1618 C85.5217,121.1618 83.3717,119.0128 83.3717,116.3618 C83.3717,113.7108 85.5217,111.5618 88.1727,111.5618 C90.8237,111.5618 92.9727,113.7108 92.9727,116.3618" id="Fill-560" fill="#CDD1DF"></path>
            <path d="M124.9727,116.3618 C124.9727,119.0128 122.8237,121.1618 120.1727,121.1618 C117.5217,121.1618 115.3717,119.0128 115.3717,116.3618 C115.3717,113.7108 117.5217,111.5618 120.1727,111.5618 C122.8237,111.5618 124.9727,113.7108 124.9727,116.3618" id="Fill-562" fill="#CDD1DF"></path>
            <path d="M155.3721,116.3618 C155.3721,118.1298 153.9391,119.5618 152.1731,119.5618 C150.4051,119.5618 148.9731,118.1298 148.9731,116.3618 C148.9731,114.5948 150.4051,113.1618 152.1731,113.1618 C153.9391,113.1618 155.3721,114.5948 155.3721,116.3618" id="Fill-564" fill="#CDD1DF"></path>
            <path d="M60.9727,148.3618 C60.9727,151.0128 58.8237,153.1618 56.1727,153.1618 C53.5217,153.1618 51.3717,151.0128 51.3717,148.3618 C51.3717,145.7108 53.5217,143.5618 56.1727,143.5618 C58.8237,143.5618 60.9727,145.7108 60.9727,148.3618" id="Fill-566" fill="#CDD1DF"></path>
            <path d="M92.9727,148.3618 C92.9727,151.0128 90.8237,153.1618 88.1727,153.1618 C85.5217,153.1618 83.3717,151.0128 83.3717,148.3618 C83.3717,145.7108 85.5217,143.5618 88.1727,143.5618 C90.8237,143.5618 92.9727,145.7108 92.9727,148.3618" id="Fill-568" fill="#CDD1DF"></path>
            <path d="M124.9727,148.3618 C124.9727,151.0128 122.8237,153.1618 120.1727,153.1618 C117.5217,153.1618 115.3717,151.0128 115.3717,148.3618 C115.3717,145.7108 117.5217,143.5618 120.1727,143.5618 C122.8237,143.5618 124.9727,145.7108 124.9727,148.3618" id="Fill-570" fill="#CDD1DF"></path>
            <path d="M155.3721,148.3618 C155.3721,150.1298 153.9391,151.5618 152.1731,151.5618 C150.4051,151.5618 148.9731,150.1298 148.9731,148.3618 C148.9731,146.5948 150.4051,145.1618 152.1731,145.1618 C153.9391,145.1618 155.3721,146.5948 155.3721,148.3618" id="Fill-572" fill="#CDD1DF"></path>
            <path d="M412.248,165.9624 L393.049,165.9624 C393.049,146.5524 377.258,130.7624 357.849,130.7624 L357.849,111.5624 C387.846,111.5624 412.248,135.9664 412.248,165.9624" id="Fill-574" fill="#CDD1DF"></path>
            <polygon id="Fill-576" fill="#CDD1DF" points="17.7646 203.8936 9.7646 211.8936 1.7646 203.8936 9.7646 195.8936"></polygon>
            <path d="M2.0059,420.6709 C2.0059,420.6709 10.4639,440.2139 44.4699,443.3049 C79.4499,446.4849 96.9099,432.2689 96.9099,432.2689 C96.9099,432.2689 89.9049,407.9499 52.5139,403.8349 C15.1209,399.7199 2.0059,420.6709 2.0059,420.6709" id="Fill-578" fill="#E8EAEF"></path>
            <path d="M83.5664,401.2163 L83.5664,501.4823 L5.3734,525.8003 C5.3734,525.8003 -2.4276,515.6733 1.0634,499.6113 C5.3734,479.7823 33.0584,471.3643 33.0584,471.3643 L31.9364,401.2163 L83.5664,401.2163 Z" id="Fill-580" fill="#825656"></path>
            <path d="M31.9365,401.2163 L32.3435,426.6883 C32.3435,426.6883 38.1385,420.7423 55.8235,419.3203 C73.7625,417.8793 83.5665,426.0483 83.5665,426.0483 L83.5665,401.2163 L31.9365,401.2163 Z" id="Fill-582" fill="#5B3636"></path>
            <path d="M2.0059,420.6709 C2.0059,420.6709 10.2369,310.6769 28.1949,271.0199 C46.1529,231.3619 90.9239,242.0879 96.6599,279.2509 C102.3109,315.8529 96.9099,432.2689 96.9099,432.2689 C96.9099,432.2689 85.0629,413.1879 49.9769,410.5689 C12.6209,407.7809 2.0059,420.6709 2.0059,420.6709" id="Fill-584" fill="#1D213A"></path>
            <path d="M219,339.8594 L376.521,339.8594 L376.521,245.9004 C341.714,246.3274 293.077,271.3944 279.982,279.6244 C279.982,279.6244 275.119,254.1844 267.637,232.1104 L219,232.1104 L170.363,232.1104 C162.881,254.1844 158.018,279.6244 158.018,279.6244 C144.923,271.3944 96.286,246.3274 61.479,245.9004 L61.479,339.8594 L219,339.8594 Z" id="Fill-586" fill="#1D213A"></path>
            <path d="M219,282.2437 C262.773,282.2437 286.717,257.9257 286.717,257.9257 C286.717,257.9257 272.939,225.7447 269.198,189.4547 C265.457,153.1647 268.505,119.9337 268.505,119.9337 C268.505,119.9337 236.958,111.6417 219,111.6417 C201.042,111.6417 169.495,119.9337 169.495,119.9337 C169.495,119.9337 172.543,153.1647 168.802,189.4547 C165.061,225.7447 151.283,257.9257 151.283,257.9257 C151.283,257.9257 175.227,282.2437 219,282.2437" id="Fill-588" fill="#D3D6E2"></path>
            <path d="M309.9131,214.7139 C309.9131,214.7139 303.8921,225.1499 279.7021,225.9059 C256.7871,226.6239 249.4911,219.3899 249.4911,219.3899 C249.4911,219.3899 255.4861,198.8199 278.2371,197.5659 C303.1331,196.1939 309.9131,214.7139 309.9131,214.7139" id="Fill-590" fill="#1D213A"></path>
            <path d="M128.0869,214.7139 C128.0869,214.7139 134.1079,225.1499 158.2979,225.9059 C181.2129,226.6239 188.5089,219.3899 188.5089,219.3899 C188.5089,219.3899 182.5139,198.8199 159.7639,197.5659 C134.8669,196.1939 128.0869,214.7139 128.0869,214.7139" id="Fill-592" fill="#1D213A"></path>
            <path d="M219,126.6064 C238.829,126.6064 243.963,114.5204 243.963,114.5204 L237.831,76.4734 L219,76.4734 L200.169,76.4734 L194.037,114.5204 C194.037,114.5204 199.171,126.6064 219,126.6064" id="Fill-594" fill="#825656"></path>
            <path d="M257.5352,198.1895 C257.5352,198.1895 254.7922,223.6305 254.5422,263.0385 C254.2882,303.2315 256.5372,365.0505 256.5372,365.0505 C256.5372,365.0505 246.8962,367.2555 243.6302,374.6745 C240.9492,380.7635 239.1002,401.2475 240.7532,408.5645 C242.4452,416.0565 248.8992,415.8435 250.1462,412.4395 C250.1462,412.4395 249.1572,420.1405 254.9262,421.7725 C259.9572,423.1955 262.4922,418.6125 262.4922,418.6125 C262.4922,418.6125 263.5842,422.8215 268.5722,422.8215 C273.5602,422.8215 275.1192,418.5195 275.1192,418.5195 C278.9232,422.5325 286.4362,423.8505 289.5852,408.2625 C291.6582,398.0005 300.7202,343.8175 302.6802,285.7355 C304.6752,226.6235 299.4372,194.9475 299.4372,194.9475 C299.4372,194.9475 292.2042,189.7095 278.4862,190.2085 C264.7682,190.7075 257.5352,198.1895 257.5352,198.1895" id="Fill-596" fill="#825656"></path>
            <path d="M250.1484,413.2397 C250.1044,413.2397 250.0594,413.2367 250.0154,413.2287 C249.5804,413.1557 249.2844,412.7437 249.3574,412.3077 C249.9734,408.6107 250.0044,404.8607 249.4764,397.4447 C249.0414,391.2747 250.6144,385.0947 250.6814,384.8347 C250.7924,384.4077 251.2244,384.1437 251.6564,384.2607 C252.0844,384.3707 252.3404,384.8077 252.2314,385.2347 C252.2154,385.2957 250.6544,391.4287 251.0734,397.3317 C251.6094,404.8887 251.5754,408.7337 250.9354,412.5707 C250.8704,412.9627 250.5314,413.2397 250.1484,413.2397" id="Fill-598" fill="#1D213A"></path>
            <path d="M262.4922,419.4131 C262.3922,419.4131 262.2892,419.3931 262.1902,419.3531 C261.7812,419.1861 261.5842,418.7201 261.7522,418.3101 C261.7652,418.2781 263.1012,414.9381 263.2212,410.0511 C263.2312,409.6101 263.5622,409.2841 264.0412,409.2711 C264.4812,409.2821 264.8312,409.6491 264.8202,410.0901 C264.692191,415.2901 263.2922,418.7701 263.2322,418.9161 C263.1062,419.2261 262.8072,419.4131 262.4922,419.4131" id="Fill-600" fill="#1D213A"></path>
            <path d="M275.1191,419.3193 C275.0211,419.3193 274.9221,419.3013 274.8251,419.2633 C274.4141,419.1003 274.2131,418.6363 274.3751,418.2253 C274.3881,418.1923 275.6841,414.8383 275.5651,410.0913 C275.5551,409.6493 275.9031,409.2813 276.3461,409.2713 L276.3651,409.2713 C276.7991,409.2713 277.1541,409.6163 277.1661,410.0503 C277.2941,415.1433 275.9201,418.6673 275.8621,418.8143 C275.7371,419.1283 275.4371,419.3193 275.1191,419.3193" id="Fill-602" fill="#1D213A"></path>
            <path d="M180.4648,198.1895 C180.4648,198.1895 183.2088,223.6305 183.4578,263.0385 C183.7118,303.2315 181.4628,365.0505 181.4628,365.0505 C181.4628,365.0505 191.1038,367.2555 194.3698,374.6745 C197.0508,380.7635 198.8998,401.2475 197.2468,408.5645 C195.5548,416.0565 189.1008,415.8435 187.8538,412.4395 C187.8538,412.4395 188.8428,420.1405 183.0738,421.7725 C178.0428,423.1955 175.5078,418.6125 175.5078,418.6125 C175.5078,418.6125 174.4168,422.8215 169.4278,422.8215 C164.4398,422.8215 162.8808,418.5195 162.8808,418.5195 C159.0768,422.5325 151.5638,423.8505 148.4148,408.2625 C146.3418,398.0005 137.2808,343.8175 135.3198,285.7355 C133.3248,226.6235 138.5628,194.9475 138.5628,194.9475 C138.5628,194.9475 145.7958,189.7095 159.5138,190.2085 C173.2318,190.7075 180.4648,198.1895 180.4648,198.1895" id="Fill-604" fill="#825656"></path>
            <path d="M187.8535,413.2397 C187.4705,413.2397 187.1305,412.9627 187.0655,412.5707 C186.4245,408.7297 186.3905,404.8837 186.9265,397.3307 C187.3455,391.4197 185.7845,385.2967 185.7685,385.2347 C185.6595,384.8077 185.9165,384.3707 186.3435,384.2607 C186.7795,384.1437 187.2075,384.4077 187.3185,384.8347 C187.3855,385.0947 188.9585,391.2747 188.5235,397.4447 C187.9975,404.8547 188.0265,408.6057 188.6435,412.3077 C188.7165,412.7437 188.4215,413.1557 187.9865,413.2287 C187.9425,413.2367 187.8965,413.2397 187.8535,413.2397" id="Fill-606" fill="#1D213A"></path>
            <path d="M175.5078,419.4131 C175.1928,419.4131 174.8938,419.2261 174.7678,418.9161 C174.7078,418.7701 173.3078,415.2901 173.1798,410.0901 C173.1688,409.6491 173.5188,409.2821 173.9588,409.2711 L173.9798,409.2711 C174.4118,409.2711 174.7688,409.6161 174.7788,410.0511 C174.8988,414.9381 176.2348,418.2781 176.2478,418.3101 C176.4158,418.7201 176.2188,419.1861 175.8098,419.3531 C175.7108,419.3931 175.6078,419.4131 175.5078,419.4131" id="Fill-608" fill="#1D213A"></path>
            <path d="M277.6621,210.2949 C293.4561,207.2319 301.3001,211.7179 301.3111,211.7249 C300.3791,200.6619 299.4371,194.9469 299.4371,194.9469 C299.4371,194.9469 292.2041,189.7099 278.4861,190.2079 C264.7681,190.7069 257.5351,198.1899 257.5351,198.1899 C257.5351,198.1899 256.5631,207.2049 255.7241,222.8109 L255.7291,222.8119 C255.7291,222.8119 261.7001,213.3909 277.6621,210.2949" id="Fill-610" fill="#5B3636"></path>
            <path d="M162.8809,419.3193 C162.5629,419.3193 162.2629,419.1283 162.1379,418.8143 C162.0799,418.6673 160.7059,415.1433 160.8339,410.0503 C160.8459,409.6103 161.1519,409.2843 161.6539,409.2713 C162.0969,409.2813 162.4449,409.6493 162.4349,410.0913 C162.3159,414.8383 163.6119,418.1923 163.6249,418.2253 C163.7869,418.6363 163.5859,419.1003 163.1749,419.2633 C163.0779,419.3013 162.9789,419.3193 162.8809,419.3193" id="Fill-612" fill="#1D213A"></path>
            <path d="M268.5049,119.9336 C282.4149,123.2396 305.9839,173.7466 309.9129,214.7136 C309.9129,214.7136 302.2429,201.6196 279.6089,202.9286 C256.9739,204.2386 249.4909,219.3906 249.4909,219.3906 C249.4909,219.3906 246.8719,192.0796 252.6089,164.3816 C258.2479,137.1516 268.5049,119.9336 268.5049,119.9336" id="Fill-614" fill="#D3D6E2"></path>
            <path d="M159.5137,190.208 C145.7957,189.709 138.5627,194.947 138.5627,194.947 C138.5627,194.947 137.7137,200.089 136.8297,210.077 C136.8337,210.075 147.3587,205.66 161.9037,209.131 C178.4067,213.07 182.2757,222.808 182.2767,222.812 C181.4367,207.205 180.4647,198.19 180.4647,198.19 C180.4647,198.19 173.2317,190.707 159.5137,190.208" id="Fill-616" fill="#5B3636"></path>
            <path d="M249.4902,220.1904 C249.0842,220.1904 248.7362,219.8804 248.6952,219.4664 C248.6692,219.1924 246.1302,191.7164 251.8252,164.2194 C251.9142,163.7864 252.3492,163.5144 252.7702,163.5984 C253.2032,163.6884 253.4812,164.1114 253.3902,164.5444 C247.7452,191.8074 250.2622,219.0424 250.2892,219.3144 C250.3312,219.7534 250.0082,220.1444 249.5682,220.1864 C249.5422,220.1894 249.5172,220.1904 249.4902,220.1904" id="Fill-618" fill="#1D213A"></path>
            <path d="M169.4951,119.9336 C155.5861,123.2396 132.0161,173.7466 128.0871,214.7136 C128.0871,214.7136 135.7571,201.6196 158.3911,202.9286 C181.0261,204.2386 188.5091,219.3906 188.5091,219.3906 C188.5091,219.3906 191.1281,192.0796 185.3911,164.3816 C179.7521,137.1516 169.4951,119.9336 169.4951,119.9336" id="Fill-620" fill="#D3D6E2"></path>
            <path d="M188.5107,220.1904 C188.4847,220.1904 188.4587,220.1894 188.4327,220.1864 C187.9937,220.1444 187.6697,219.7534 187.7127,219.3144 C187.7397,219.0424 190.2527,191.7974 184.6097,164.5444 C184.5187,164.1114 184.7967,163.6884 185.2297,163.5984 C185.6607,163.5144 186.0857,163.7864 186.1747,164.2194 C191.8697,191.7164 189.3307,219.1924 189.3067,219.4664 C189.2657,219.8804 188.9167,220.1904 188.5107,220.1904" id="Fill-622" fill="#1D213A"></path>
            <path d="M99.2363,340.6592 L99.2343,340.6592 C98.7923,340.6582 98.4343,340.3002 98.4353,339.8572 C98.4653,324.9222 98.2423,312.1062 97.7733,301.7642 C97.7533,301.3232 98.0933,300.9502 98.5363,300.9292 C98.9873,300.8882 99.3493,301.2512 99.3703,301.6932 C99.8413,312.0582 100.0653,324.9002 100.0363,339.8612 C100.0343,340.3022 99.6763,340.6592 99.2363,340.6592" id="Fill-624" fill="#E8EAEF"></path>
            <path d="M435.9941,420.6709 C435.9941,420.6709 427.5361,440.2139 393.5301,443.3049 C358.5501,446.4849 341.0901,432.2689 341.0901,432.2689 C341.0901,432.2689 348.0951,407.9499 385.4861,403.8349 C422.8791,399.7199 435.9941,420.6709 435.9941,420.6709" id="Fill-626" fill="#E8EAEF"></path>
            <path d="M354.4336,401.2163 L354.4336,501.4823 L432.6266,525.8003 C432.6266,525.8003 440.4276,515.6733 436.9366,499.6113 C432.6266,479.7823 404.9416,471.3643 404.9416,471.3643 L406.0636,401.2163 L354.4336,401.2163 Z" id="Fill-628" fill="#825656"></path>
            <path d="M405.6611,426.3662 L406.0631,401.2162 L354.4331,401.2162 L354.4331,425.4082 C354.4331,425.4082 362.9811,418.2122 380.1201,418.6002 C397.2581,418.9882 405.6601,426.3662 405.6611,426.3662" id="Fill-630" fill="#5B3636"></path>
            <path d="M435.9941,420.6709 C435.9941,420.6709 427.7631,310.6769 409.8051,271.0199 C391.8471,231.3619 347.0761,242.0879 341.3401,279.2509 C335.6891,315.8529 341.0901,432.2689 341.0901,432.2689 C341.0901,432.2689 352.9371,413.1879 388.0231,410.5689 C425.3791,407.7809 435.9941,420.6709 435.9941,420.6709" id="Fill-632" fill="#1D213A"></path>
            <path d="M338.7627,339.667 C338.3207,339.667 337.9627,339.309 337.9627,338.868 C337.9437,322.473 338.2297,308.697 338.8157,297.921 C338.8407,297.481 339.2167,297.148 339.6587,297.166 C340.0987,297.189 340.4377,297.567 340.4117,298.008 C339.8297,308.754 339.5437,322.501 339.5627,338.866 C339.5627,339.308 339.2047,339.666 338.7637,339.667 L338.7627,339.667 Z" id="Fill-634" fill="#E8EAEF"></path>
            <path d="M83.5664,473.3857 L52.9404,471.3777 C52.9404,471.3777 51.0174,460.4857 44.6114,461.4467 C38.2044,462.4077 32.9334,463.5087 32.9324,463.5087 L33.0584,471.3647 C33.0584,471.3647 5.3734,479.7827 1.0634,499.6117 C-2.4276,515.6727 5.3734,525.8007 5.3734,525.8007 L83.5664,501.4827 L83.5664,473.3857 Z" id="Fill-636" fill="#1D213A"></path>
            <path d="M436.9365,499.6118 C432.6265,479.7828 404.9415,471.3648 404.9415,471.3648 L405.0675,463.5078 C405.0665,463.5078 401.2645,462.6078 394.4305,461.3868 C387.5965,460.1658 387.3775,470.8438 387.3775,470.8438 L354.4335,474.8578 L354.4335,501.4828 L432.6265,525.7998 C432.6265,525.7998 440.4275,515.6728 436.9365,499.6118" id="Fill-638" fill="#1D213A"></path>
            <path d="M1.2607,516.3857 C0.9237,516.3857 0.6097,516.1697 0.4997,515.8317 C0.3647,515.4117 0.5957,514.9597 1.0157,514.8247 L83.3207,488.2357 C83.7437,488.0977 84.1907,488.3307 84.3257,488.7507 C84.4627,489.1707 84.2317,489.6227 83.8107,489.7577 L1.5057,516.3467 C1.4247,516.3727 1.3417,516.3857 1.2607,516.3857" id="Fill-640" fill="#E8EAEF"></path>
            <path d="M436.9561,516.3857 C436.8751,516.3857 436.7921,516.3727 436.7111,516.3467 L354.1891,489.7587 C353.7681,489.6227 353.5371,489.1717 353.6741,488.7517 C353.8101,488.3307 354.2641,488.1027 354.6801,488.2347 L437.2011,514.8237 C437.6221,514.9597 437.8531,515.4107 437.7171,515.8307 C437.6071,516.1697 437.2941,516.3857 436.9561,516.3857" id="Fill-642" fill="#E8EAEF"></path>
            <path d="M40.3389,477.623 C40.0309,477.623 39.7359,477.443 39.6049,477.142 C37.6799,472.709 33.0219,472.165 32.9749,472.16 C32.5359,472.113 32.2169,471.719 32.2639,471.28 C32.3099,470.84 32.7059,470.521 33.1439,470.569 C33.3729,470.593 38.7789,471.226 41.0729,476.504 C41.2479,476.91 41.0629,477.381 40.6579,477.557 C40.5549,477.602 40.4449,477.623 40.3389,477.623" id="Fill-644" fill="#E8EAEF"></path>
            <path d="M33.0596,480.3999 C32.7056,480.3999 32.3826,480.1649 32.2866,479.8069 C31.3356,476.2589 25.9956,474.8839 25.9406,474.8709 C25.5126,474.7629 25.2516,474.3299 25.3576,473.9009 C25.4636,473.4749 25.8956,473.2139 26.3266,473.3179 C26.5836,473.3819 32.6356,474.9299 33.8326,479.3929 C33.9476,479.8189 33.6936,480.2579 33.2676,480.3729 C33.1976,480.3909 33.1276,480.3999 33.0596,480.3999" id="Fill-646" fill="#E8EAEF"></path>
            <path d="M25.3906,484.1904 C25.0726,484.1904 24.7706,483.9984 24.6466,483.6834 C22.7836,478.9544 18.7046,478.8584 18.6636,478.8584 C18.2216,478.8544 17.8676,478.4924 17.8715664,478.0514 C17.8766,477.6084 18.2206,477.2084 18.6796,477.2594 C18.8906,477.2614 23.8796,477.3764 26.1346,483.0974 C26.2966,483.5084 26.0956,483.9724 25.6846,484.1344 C25.5876,484.1724 25.4896,484.1904 25.3906,484.1904" id="Fill-648" fill="#E8EAEF"></path>
            <path d="M397.4199,477.4097 C397.3149,477.4097 397.2049,477.3887 397.1019,477.3437 C396.6969,477.1677 396.5109,476.6957 396.6859,476.2907 C398.9919,470.9917 404.6509,470.5807 404.8909,470.5657 C405.3649,470.5517 405.7089,470.8737 405.7369,471.3127 C405.7659,471.7537 405.4329,472.1337 404.9919,472.1627 C404.7919,472.1767 400.0609,472.5417 398.1539,476.9287 C398.0239,477.2297 397.7289,477.4097 397.4199,477.4097" id="Fill-650" fill="#E8EAEF"></path>
            <path d="M406.1768,481.2544 C406.1068,481.2544 406.0328,481.2454 405.9608,481.2244 C405.5358,481.1064 405.2868,480.6634 405.4058,480.2384 C407.0308,474.4384 412.6348,473.8274 412.8718,473.8044 C413.2948,473.7694 413.6998,474.0814 413.7448,474.5214 C413.7888,474.9594 413.4688,475.3514 413.0298,475.3964 C412.8358,475.4174 408.2708,475.9424 406.9478,480.6704 C406.8488,481.0234 406.5268,481.2544 406.1768,481.2544" id="Fill-652" fill="#E8EAEF"></path>
            <path d="M237.8311,76.4736 L225.6241,76.4736 L225.6241,103.0696 C225.6241,103.0696 232.7081,105.4336 242.2291,103.7666 L237.8311,76.4736 Z" id="Fill-654" fill="#5B3636"></path>
            <path d="M414.7187,484.8848 C414.6457,484.8848 414.5687,484.8748 414.4947,484.8528 C414.0707,484.7298 413.8257,484.2848 413.9497,483.8608 C415.2757,479.3228 419.2947,478.3238 421.1997,478.4348 C421.6407,478.4588 421.9767,478.8338 421.9527,479.2748 C421.9317,479.7138 421.5497,480.0308 421.1147,480.0328 C420.9437,480.0228 416.7797,479.8768 415.4877,484.3088 C415.3847,484.6578 415.0657,484.8848 414.7187,484.8848" id="Fill-656" fill="#E8EAEF"></path>
            <path d="M199.541,30.1768 C199.541,30.1768 194.793,42.2228 193.623,60.0468 C192.131,82.7958 196.439,102.1968 219,103.4588 C241.385,104.7108 248.139,81.9948 247.377,63.4898 C246.616,45.0298 243.656,31.5558 243.656,31.5558 L199.541,30.1768 Z" id="Fill-658" fill="#825656"></path>
            <path d="M241.1572,19.3198 C247.3932,12.9788 258.8862,17.8128 259.8242,27.9838 C260.6282,36.6978 252.9472,40.1298 252.9472,40.1298 C259.8242,37.8968 265.1932,47.6078 260.7182,53.9738 C256.6982,59.6898 250.0002,58.5278 250.0002,58.5278 C244.3432,58.2308 240.8892,54.0628 240.4132,48.3468 C239.8972,42.1568 243.8072,38.9388 243.8072,38.9388 C243.8072,38.9388 238.5962,43.1718 228.3262,40.5468 C217.6082,37.8078 217.3102,31.5558 217.3102,31.5558 C217.3102,31.5558 216.0602,36.9148 208.9152,39.3558 C201.7732,41.7958 197.7202,39.5028 197.7202,39.5028 C197.7202,39.5028 202.0092,43.6378 201.5922,48.6448 C201.0552,55.0748 196.3222,57.9928 191.8392,57.0228 C191.8392,57.0228 185.8192,58.1368 182.2002,53.4538 C177.6552,47.5728 180.1072,38.0868 188.4632,38.3438 C188.4632,38.3438 183.3252,36.1408 182.7762,28.9958 C182.1202,20.4648 191.1412,15.7468 198.5542,20.3018 C198.5542,20.3018 195.1612,11.6388 202.7532,6.9048 C210.8502,1.8558 219.5442,7.3518 219.9902,12.5318 C219.9902,12.5318 219.7242,6.3988 227.2242,3.6898 C233.6552,1.3678 240.2642,5.2078 242.2292,9.9418 C244.3532,15.0588 241.1572,19.3198 241.1572,19.3198" id="Fill-660" fill="#1D213A"></path>
            <path d="M196.709,56.5127 C196.709,56.5127 194.148,52.2167 188.85,53.4077 C183.55,54.5987 182.001,60.4127 184.324,65.3757 C186.944,70.9727 193.533,71.3297 196.709,69.1267 L196.709,56.5127 Z" id="Fill-662" fill="#825656"></path>
            <path d="M244.7637,56.7959 C244.7637,56.7959 248.9277,52.9019 254.1977,55.4919 C259.4667,58.0819 257.9487,68.1739 252.8577,70.3859 C248.5907,72.2399 244.8197,69.9609 244.8197,69.9609 L244.7637,56.7959 Z" id="Fill-664" fill="#825656"></path>
            <path d="M192.9316,63.6577 C192.5686,63.6577 192.2396,63.4097 192.1536,63.0417 C191.7816,61.4687 191.1436,60.4327 190.3126,60.0477 C189.3376,59.5967 188.2906,60.1157 188.2796,60.1207 C187.8906,60.3237 187.4086,60.1677 187.2046,59.7767 C187.0026,59.3867 187.1506,58.9077 187.5386,58.7027 C187.6066,58.6657 189.2576,57.8137 190.9626,58.5847 C192.2856,59.1867 193.2106,60.5627 193.7086,62.6737 C193.8106,63.1037 193.5446,63.5337 193.1156,63.6367 C193.0526,63.6507 192.9926,63.6577 192.9316,63.6577" id="Fill-666" fill="#1D213A"></path>
            <path d="M248.1387,64.1616 C248.0647,64.1616 247.9877,64.1516 247.9117,64.1286 C247.4897,64.0036 247.2467,63.5576 247.3717,63.1346 C247.8877,61.3896 248.7817,60.2036 250.0287,59.6096 C251.8077,58.7646 253.6037,59.4946 253.6777,59.5266 C254.0857,59.6956 254.2787,60.1646 254.1097,60.5726 C253.9397,60.9796 253.4747,61.1696 253.0657,61.0046 C253.0287,60.9896 251.8207,60.5226 250.7017,61.0606 C249.8887,61.4536 249.2857,62.3036 248.9067,63.5876 C248.8027,63.9366 248.4847,64.1616 248.1387,64.1616" id="Fill-668" fill="#1D213A"></path>
            <path d="M231.8545,63.0737 C231.8545,64.1357 232.7145,64.9957 233.7765,64.9957 C234.8375,64.9957 235.6985,64.1357 235.6985,63.0737 C235.6985,62.0117 234.8375,61.1517 233.7765,61.1517 C232.7145,61.1517 231.8545,62.0117 231.8545,63.0737" id="Fill-670" fill="#1D213A"></path>
            <path d="M204.8447,62.2412 C204.8447,63.3032 205.7047,64.1632 206.7667,64.1632 C207.8277,64.1632 208.6887,63.3032 208.6887,62.2412 C208.6887,61.1792 207.8277,60.3192 206.7667,60.3192 C205.7047,60.3192 204.8447,61.1792 204.8447,62.2412" id="Fill-672" fill="#1D213A"></path>
            <path d="M229.4385,50.9688 C229.9525,52.2968 232.6665,52.5468 235.4335,53.0928 C238.2205,53.5258 240.8555,54.2188 241.7925,53.1468 C242.7605,52.1338 240.6465,48.8268 236.3205,48.0578 C231.9935,47.3018 228.8755,49.6858 229.4385,50.9688" id="Fill-674" fill="#1D213A"></path>
            <path d="M212.5928,50.9688 C212.0788,52.2968 209.3648,52.5468 206.5988,53.0928 C203.8118,53.5258 201.1768,54.2188 200.2388,53.1468 C199.2708,52.1338 201.3858,48.8268 205.7108,48.0578 C210.0378,47.3018 213.1558,49.6858 212.5928,50.9688" id="Fill-676" fill="#1D213A"></path>
            <path d="M220.8145,73.4058 C219.9765,73.4058 218.9665,73.2208 217.7715,72.7218 C217.3645,72.5528 217.1715,72.0838 217.3405,71.6768 C217.5095,71.2688 217.9845,71.0758 218.3875,71.2458 C220.3205,72.0498 221.9425,71.9828 222.8285,71.0578 C223.4065,70.4558 223.5675,69.5578 223.2265,68.8238 C222.5015,67.2608 221.4425,67.5828 221.1355,67.7188 C220.8905,67.8308 220.5985,67.8078 220.3705,67.6598 C220.1435,67.5118 220.0025,67.2618 220.0025,66.9918 L220.0025,63.3618 C220.0025,62.9198 220.3595,62.5618 220.8015,62.5618 C221.2445,62.5618 221.6015,62.9198 221.6015,63.3618 L221.6015,66.0098 C221.9215,65.9978 222.3185,66.0358 222.7205,66.1808 C223.5525,66.4838 224.2125,67.1458 224.6775,68.1518 C225.2935,69.4788 225.0135,71.0928 223.9815,72.1668 C223.5445,72.6208 222.5395,73.4058 220.8145,73.4058" id="Fill-678" fill="#5B3636"></path>
            <path d="M232.2686,43.9644 C230.3406,43.9644 228.2446,43.6824 226.0096,42.9824 C216.1196,39.8794 216.5806,29.6764 216.5876,29.5734 C216.6116,29.1314 216.9826,28.8004 217.4296,28.8194 C217.8706,28.8444 218.2076,29.2214 218.1846,29.6624 C218.1656,30.0314 217.8026,38.7314 226.4876,41.4554 C236.8306,44.6984 244.1506,38.0684 244.2206,38.0004 C244.5466,37.7004 245.0546,37.7224 245.3516,38.0454 C245.6516,38.3694 245.6306,38.8754 245.3076,39.1754 C245.0466,39.4164 240.0156,43.9644 232.2686,43.9644" id="Fill-680" fill="#1D213A"></path>
            <path d="M204.6816,43.0068 C197.6176,43.0068 195.3566,38.3518 195.2496,38.1248 C195.0626,37.7248 195.2366,37.2488 195.6376,37.0618 C196.0356,36.8768 196.5126,37.0478 196.6986,37.4458 C196.8026,37.6608 199.3466,42.6988 207.9196,41.0858 C216.5776,39.4578 217.2756,29.6688 217.2816,29.5698 C217.3076,29.1298 217.6796,28.7998 218.1276,28.8198 C218.5686,28.8468 218.9046,29.2258 218.8776,29.6668 C218.8716,29.7788 218.0856,40.8018 208.2166,42.6578 C206.9236,42.9018 205.7466,43.0068 204.6816,43.0068" id="Fill-682" fill="#1D213A"></path>
            <path d="M190.167,39.2231 C188.336,39.2231 185.526,38.8141 183.025,36.7481 C179.268,33.6441 178.664,27.9571 181.56,22.9191 C181.779,22.5351 182.271,22.4041 182.651,22.6241 C183.034,22.8441 183.167,23.3331 182.947,23.7161 C180.834,27.3921 180.354,32.4671 184.044,35.5151 C187.503,38.3711 191.756,37.4951 191.802,37.4861 C192.231,37.3961 192.661,37.6661 192.752,38.0991 C192.846,38.5311 192.57,38.9561 192.139,39.0501 C192.061,39.0671 191.302,39.2231 190.167,39.2231" id="Fill-684" fill="#1D213A"></path>
            <path d="M199.2598,21.9287 C198.9878,21.9287 198.7218,21.7897 198.5728,21.5387 C194.8388,15.2977 188.8768,17.9717 188.6268,18.0897 C188.2298,18.2737 187.7528,18.1047 187.5648,17.7027 C187.3768,17.3037 187.5488,16.8287 187.9468,16.6397 C188.0238,16.6047 195.4588,13.2147 199.9458,20.7187 C200.1738,21.0967 200.0488,21.5887 199.6698,21.8157 C199.5408,21.8917 199.4008,21.9287 199.2598,21.9287" id="Fill-686" fill="#1D213A"></path>
            <path d="M220.3955,15.5757 C220.0595,15.5757 219.7475,15.3627 219.6355,15.0277 C219.5655,14.8157 217.9455,9.8047 220.3415,5.4777 C221.7865,2.8717 224.3565,1.1037 227.9815,0.2227 C228.4165,0.1167 228.8455,0.3837 228.9485,0.8117 C229.0515,1.2417 228.7895,1.6737 228.3595,1.7777 C225.1875,2.5487 222.9605,4.0547 221.7425,6.2537 C219.6815,9.9717 221.1385,14.4787 221.1545,14.5227 C221.2935,14.9427 221.0675,15.3957 220.6465,15.5347 C220.5645,15.5617 220.4785,15.5757 220.3955,15.5757" id="Fill-688" fill="#1D213A"></path>
            <path d="M239.8096,21.9287 C239.5996,21.9287 239.3906,21.8467 239.2326,21.6827 C238.9266,21.3657 238.9356,20.8587 239.2546,20.5527 C244.6736,15.3337 243.8856,10.5957 242.9346,8.2367 C241.4846,4.6417 238.0236,2.2277 235.6986,2.2277 C235.2556,2.2277 234.8986,1.8697 234.8986,1.4277 C234.8986,0.9857 235.2556,0.6277 235.6986,0.6277 C238.5956,0.6277 242.6486,3.2497 244.4186,7.6377 C245.5206,10.3717 246.4586,15.8337 240.3646,21.7047 C240.2086,21.8547 240.0096,21.9287 239.8096,21.9287" id="Fill-690" fill="#1D213A"></path>
            <path d="M264.7705,48.7124 C264.3305,48.7124 263.9735,48.3554 263.9705,47.9154 C263.9685,47.7234 263.8955,43.1804 259.6545,40.8084 C256.0375,38.7844 251.5995,41.5564 251.5565,41.5854 C251.1765,41.8224 250.6875,41.7114 250.4515,41.3414 C250.2135,40.9694 250.3225,40.4754 250.6935,40.2374 C250.9065,40.0994 255.9715,36.9154 260.4355,39.4114 C265.5125,42.2514 265.5705,47.6834 265.5705,47.9134 C265.5705,48.3534 265.2135,48.7104 264.7715,48.7124 L264.7705,48.7124 Z" id="Fill-692" fill="#1D213A"></path>
            <path d="M218.7217,78.9463 C222.1237,79.3253 223.9587,77.2133 225.1007,79.0023 C226.5837,81.3263 222.5247,86.1733 217.4057,85.0663 C213.4077,84.2013 211.5177,78.6983 213.2067,77.7253 C214.8247,76.7943 215.8707,78.6283 218.7217,78.9463" id="Fill-694" fill="#E8EAEF"></path>
        </g>
    </g>
</svg>