<?xml version="1.0" encoding="UTF-8"?>
<svg width="491px" height="781px" viewBox="0 0 491 781" version="1.1" xmlns="http://www.w3.org/2000/svg" xmlns:xlink="http://www.w3.org/1999/xlink">
    <title>Illustration 20 0</title>
    <g id="🤩-Illustrations" stroke="none" stroke-width="1" fill="none" fill-rule="evenodd">
        <g id="Illustration-20">
            <path d="M370.5566,635.9287 C367.6596,635.9287 366.1306,634.4047 364.9066,633.1787 C363.7596,632.0337 362.8536,631.1287 360.9476,631.1287 C359.0406,631.1287 358.1346,632.0337 356.9876,633.1787 C355.7626,634.4047 354.2346,635.9287 351.3376,635.9287 C348.4436,635.9287 346.9186,634.4047 345.6906,633.1777 C344.5466,632.0337 343.6436,631.1287 341.7406,631.1287 C339.8406,631.1287 338.9376,632.0327 337.7966,633.1757 C336.5726,634.4027 335.0466,635.9287 332.1506,635.9287 C329.2526,635.9287 327.7286,634.4047 326.5026,633.1777 C325.3596,632.0327 324.4556,631.1287 322.5566,631.1287 C321.8936,631.1287 321.3566,630.5917 321.3566,629.9287 C321.3566,629.2667 321.8936,628.7297 322.5566,628.7297 C325.4526,628.7297 326.9786,630.2537 328.2026,631.4807 C329.3466,632.6257 330.2496,633.5297 332.1506,633.5297 C334.0496,633.5297 334.9526,632.6237 336.0966,631.4807 C337.3226,630.2537 338.8466,628.7297 341.7406,628.7297 C344.6376,628.7297 346.1616,630.2557 347.3906,631.4807 C348.5346,632.6257 349.4376,633.5297 351.3376,633.5297 C353.2406,633.5297 354.1466,632.6237 355.2936,631.4807 C356.5186,630.2537 358.0466,628.7297 360.9476,628.7297 C363.8466,628.7297 365.3746,630.2537 366.5996,631.4807 C367.7466,632.6237 368.6536,633.5297 370.5566,633.5297 C371.2186,633.5297 371.7556,634.0667 371.7556,634.7297 C371.7556,635.3917 371.2186,635.9287 370.5566,635.9287" id="Fill-2948" fill="#CDD1DF"></path>
            <path d="M370.5566,648.7295 C367.6596,648.7295 366.1306,647.2045 364.9066,645.9795 C363.7596,644.8335 362.8536,643.9285 360.9476,643.9285 C359.0406,643.9285 358.1346,644.8335 356.9876,645.9795 C355.7626,647.2045 354.2346,648.7295 351.3376,648.7295 C348.4436,648.7295 346.9186,647.2045 345.6906,645.9775 C344.5466,644.8335 343.6436,643.9285 341.7406,643.9285 C339.8406,643.9285 338.9376,644.8325 337.7966,645.9755 C336.5726,647.2025 335.0466,648.7295 332.1506,648.7295 C329.2526,648.7295 327.7286,647.2045 326.5026,645.9775 C325.3596,644.8325 324.4556,643.9285 322.5566,643.9285 C321.8936,643.9285 321.3566,643.3915 321.3566,642.7295 C321.3566,642.0665 321.8936,641.5295 322.5566,641.5295 C325.4526,641.5295 326.9786,643.0535 328.2026,644.2805 C329.3466,645.4255 330.2496,646.3295 332.1506,646.3295 C334.0496,646.3295 334.9526,645.4245 336.0966,644.2805 C337.3226,643.0535 338.8466,641.5295 341.7406,641.5295 C344.6376,641.5295 346.1616,643.0555 347.3906,644.2805 C348.5346,645.4255 349.4376,646.3295 351.3376,646.3295 C353.2406,646.3295 354.1466,645.4245 355.2936,644.2805 C356.5186,643.0535 358.0466,641.5295 360.9476,641.5295 C363.8466,641.5295 365.3746,643.0535 366.5996,644.2805 C367.7466,645.4245 368.6536,646.3295 370.5566,646.3295 C371.2186,646.3295 371.7556,646.8665 371.7556,647.5295 C371.7556,648.1915 371.2186,648.7295 370.5566,648.7295" id="Fill-2950" fill="#CDD1DF"></path>
            <path d="M370.5566,661.5293 C367.6596,661.5293 366.1306,660.0043 364.9066,658.7793 C363.7596,657.6333 362.8536,656.7293 360.9476,656.7293 C359.0406,656.7293 358.1346,657.6333 356.9876,658.7793 C355.7626,660.0043 354.2346,661.5293 351.3376,661.5293 C348.4436,661.5293 346.9186,660.0043 345.6906,658.7773 C344.5466,657.6333 343.6436,656.7293 341.7406,656.7293 C339.8406,656.7293 338.9376,657.6323 337.7966,658.7763 C336.5726,660.0033 335.0466,661.5293 332.1506,661.5293 C329.2526,661.5293 327.7286,660.0043 326.5026,658.7773 C325.3596,657.6323 324.4556,656.7293 322.5566,656.7293 C321.8936,656.7293 321.3566,656.1913 321.3566,655.5293 C321.3566,654.8663 321.8936,654.3293 322.5566,654.3293 C325.4526,654.3293 326.9786,655.8543 328.2026,657.0813 C329.3466,658.2253 330.2496,659.1293 332.1506,659.1293 C334.0496,659.1293 334.9526,658.2243 336.0966,657.0813 C337.3226,655.8543 338.8466,654.3293 341.7406,654.3293 C344.6376,654.3293 346.1616,655.8553 347.3906,657.0813 C348.5346,658.2253 349.4376,659.1293 351.3376,659.1293 C353.2406,659.1293 354.1466,658.2243 355.2936,657.0813 C356.5186,655.8543 358.0466,654.3293 360.9476,654.3293 C363.8466,654.3293 365.3746,655.8543 366.5996,657.0813 C367.7466,658.2243 368.6536,659.1293 370.5566,659.1293 C371.2186,659.1293 371.7556,659.6673 371.7556,660.3293 C371.7556,660.9913 371.2186,661.5293 370.5566,661.5293" id="Fill-2952" fill="#CDD1DF"></path>
            <path d="M370.5566,674.3291 C367.6596,674.3291 366.1306,672.8041 364.9066,671.5791 C363.7596,670.4331 362.8536,669.5291 360.9476,669.5291 C359.0406,669.5291 358.1346,670.4331 356.9876,671.5791 C355.7626,672.8041 354.2346,674.3291 351.3376,674.3291 C348.4436,674.3291 346.9186,672.8041 345.6906,671.5771 C344.5466,670.4331 343.6436,669.5291 341.7406,669.5291 C339.8406,669.5291 338.9376,670.4331 337.7966,671.5761 C336.5726,672.8031 335.0466,674.3291 332.1506,674.3291 C329.2526,674.3291 327.7286,672.8041 326.5026,671.5771 C325.3596,670.4331 324.4556,669.5291 322.5566,669.5291 C321.8936,669.5291 321.3566,668.9911 321.3566,668.3291 C321.3566,667.6671 321.8936,667.1291 322.5566,667.1291 C325.4526,667.1291 326.9786,668.6541 328.2026,669.8811 C329.3466,671.0261 330.2496,671.9291 332.1506,671.9291 C334.0496,671.9291 334.9526,671.0241 336.0966,669.8811 C337.3226,668.6541 338.8466,667.1291 341.7406,667.1291 C344.6376,667.1291 346.1616,668.6551 347.3906,669.8811 C348.5346,671.0261 349.4376,671.9291 351.3376,671.9291 C353.2406,671.9291 354.1466,671.0241 355.2936,669.8811 C356.5186,668.6541 358.0466,667.1291 360.9476,667.1291 C363.8466,667.1291 365.3746,668.6541 366.5996,669.8811 C367.7466,671.0241 368.6536,671.9291 370.5566,671.9291 C371.2186,671.9291 371.7556,672.4671 371.7556,673.1291 C371.7556,673.7921 371.2186,674.3291 370.5566,674.3291" id="Fill-2954" fill="#CDD1DF"></path>
            <path d="M30.5996,113.4463 C30.5996,115.2143 29.1666,116.6463 27.4006,116.6463 C25.6326,116.6463 24.2006,115.2143 24.2006,113.4463 C24.2006,111.6783 25.6326,110.2463 27.4006,110.2463 C29.1666,110.2463 30.5996,111.6783 30.5996,113.4463" id="Fill-2956" fill="#CDD1DF"></path>
            <path d="M62.5996,113.4463 C62.5996,115.2143 61.1666,116.6463 59.4006,116.6463 C57.6326,116.6463 56.2006,115.2143 56.2006,113.4463 C56.2006,111.6783 57.6326,110.2463 59.4006,110.2463 C61.1666,110.2463 62.5996,111.6783 62.5996,113.4463" id="Fill-2958" fill="#CDD1DF"></path>
            <path d="M94.5996,113.4463 C94.5996,115.2143 93.1666,116.6463 91.4006,116.6463 C89.6326,116.6463 88.2006,115.2143 88.2006,113.4463 C88.2006,111.6783 89.6326,110.2463 91.4006,110.2463 C93.1666,110.2463 94.5996,111.6783 94.5996,113.4463" id="Fill-2960" fill="#CDD1DF"></path>
            <path d="M126.5996,113.4463 C126.5996,115.2143 125.1666,116.6463 123.4006,116.6463 C121.6326,116.6463 120.2006,115.2143 120.2006,113.4463 C120.2006,111.6783 121.6326,110.2463 123.4006,110.2463 C125.1666,110.2463 126.5996,111.6783 126.5996,113.4463" id="Fill-2962" fill="#CDD1DF"></path>
            <path d="M32.2002,145.4463 C32.2002,148.0973 30.0512,150.2463 27.4002,150.2463 C24.7492,150.2463 22.5992,148.0973 22.5992,145.4463 C22.5992,142.7953 24.7492,140.6463 27.4002,140.6463 C30.0512,140.6463 32.2002,142.7953 32.2002,145.4463" id="Fill-2964" fill="#CDD1DF"></path>
            <path d="M64.2002,145.4463 C64.2002,148.0973 62.0512,150.2463 59.4002,150.2463 C56.7492,150.2463 54.5992,148.0973 54.5992,145.4463 C54.5992,142.7953 56.7492,140.6463 59.4002,140.6463 C62.0512,140.6463 64.2002,142.7953 64.2002,145.4463" id="Fill-2966" fill="#CDD1DF"></path>
            <path d="M94.5996,145.4463 C94.5996,147.2143 93.1666,148.6463 91.4006,148.6463 C89.6326,148.6463 88.2006,147.2143 88.2006,145.4463 C88.2006,143.6783 89.6326,142.2463 91.4006,142.2463 C93.1666,142.2463 94.5996,143.6783 94.5996,145.4463" id="Fill-2968" fill="#CDD1DF"></path>
            <path d="M126.5996,145.4463 C126.5996,147.2143 125.1666,148.6463 123.4006,148.6463 C121.6326,148.6463 120.2006,147.2143 120.2006,145.4463 C120.2006,143.6783 121.6326,142.2463 123.4006,142.2463 C125.1666,142.2463 126.5996,143.6783 126.5996,145.4463" id="Fill-2970" fill="#CDD1DF"></path>
            <path d="M32.2002,177.4463 C32.2002,180.0973 30.0512,182.2463 27.4002,182.2463 C24.7492,182.2463 22.5992,180.0973 22.5992,177.4463 C22.5992,174.7953 24.7492,172.6463 27.4002,172.6463 C30.0512,172.6463 32.2002,174.7953 32.2002,177.4463" id="Fill-2972" fill="#CDD1DF"></path>
            <path d="M64.2002,177.4463 C64.2002,180.0973 62.0512,182.2463 59.4002,182.2463 C56.7492,182.2463 54.5992,180.0973 54.5992,177.4463 C54.5992,174.7953 56.7492,172.6463 59.4002,172.6463 C62.0512,172.6463 64.2002,174.7953 64.2002,177.4463" id="Fill-2974" fill="#CDD1DF"></path>
            <path d="M96.2002,177.4463 C96.2002,180.0973 94.0512,182.2463 91.4002,182.2463 C88.7492,182.2463 86.5992,180.0973 86.5992,177.4463 C86.5992,174.7953 88.7492,172.6463 91.4002,172.6463 C94.0512,172.6463 96.2002,174.7953 96.2002,177.4463" id="Fill-2976" fill="#CDD1DF"></path>
            <path d="M126.5996,177.4463 C126.5996,179.2143 125.1666,180.6463 123.4006,180.6463 C121.6326,180.6463 120.2006,179.2143 120.2006,177.4463 C120.2006,175.6783 121.6326,174.2463 123.4006,174.2463 C125.1666,174.2463 126.5996,175.6783 126.5996,177.4463" id="Fill-2978" fill="#CDD1DF"></path>
            <path d="M32.2002,209.4463 C32.2002,212.0973 30.0512,214.2463 27.4002,214.2463 C24.7492,214.2463 22.5992,212.0973 22.5992,209.4463 C22.5992,206.7953 24.7492,204.6463 27.4002,204.6463 C30.0512,204.6463 32.2002,206.7953 32.2002,209.4463" id="Fill-2980" fill="#CDD1DF"></path>
            <path d="M64.2002,209.4463 C64.2002,212.0973 62.0512,214.2463 59.4002,214.2463 C56.7492,214.2463 54.5992,212.0973 54.5992,209.4463 C54.5992,206.7953 56.7492,204.6463 59.4002,204.6463 C62.0512,204.6463 64.2002,206.7953 64.2002,209.4463" id="Fill-2982" fill="#CDD1DF"></path>
            <path d="M96.2002,209.4463 C96.2002,212.0973 94.0512,214.2463 91.4002,214.2463 C88.7492,214.2463 86.5992,212.0973 86.5992,209.4463 C86.5992,206.7953 88.7492,204.6463 91.4002,204.6463 C94.0512,204.6463 96.2002,206.7953 96.2002,209.4463" id="Fill-2984" fill="#CDD1DF"></path>
            <path d="M126.5996,209.4463 C126.5996,211.2143 125.1666,212.6463 123.4006,212.6463 C121.6326,212.6463 120.2006,211.2143 120.2006,209.4463 C120.2006,207.6783 121.6326,206.2463 123.4006,206.2463 C125.1666,206.2463 126.5996,207.6783 126.5996,209.4463" id="Fill-2986" fill="#CDD1DF"></path>
            <path d="M44.9092,494.085 C44.9332,493.783 45.0002,493.495 45.0002,493.188 L45.0002,488.24 C39.5882,486.767 33.1422,484.264 27.4012,480.003 C20.6232,474.971 16.5522,466.59 14.1742,459.588 L11.4002,459.588 C5.2142,459.588 0.2002,464.603 0.2002,470.788 L0.2002,482.752 C7.2012,482.381 25.7582,482.732 44.9092,494.085" id="Fill-2988" fill="#CDD1DF"></path>
            <path d="M28.0703,479.1025 C33.5833,483.1945 39.7643,485.6335 45.0003,487.0855 L45.0003,470.7885 C45.0003,464.6025 39.9853,459.5875 33.7993,459.5875 L15.3983,459.5875 C17.7573,466.3785 21.7053,474.3785 28.0703,479.1025" id="Fill-2990" fill="#CDD1DF"></path>
            <path d="M30.8545,497.7109 C24.8905,498.2599 21.1615,501.7569 19.1615,504.3879 L33.7995,504.3879 C37.1305,504.3879 40.0875,502.9049 42.1395,500.5979 C39.3425,498.8419 35.4795,497.2819 30.8545,497.7109" id="Fill-2992" fill="#CDD1DF"></path>
            <path d="M30.751,496.5947 C35.788,496.1267 39.926,497.8147 42.88,499.6997 C43.804,498.4147 44.472,496.9397 44.784,495.3267 C25.663,483.8227 7.06,483.4947 0.2,483.8687 L0.2,493.1877 C0.2,499.3727 5.214,504.3877 11.4,504.3877 L17.787,504.3877 C19.78,501.5357 23.874,497.2287 30.751,496.5947" id="Fill-2994" fill="#CDD1DF"></path>
            <path d="M348.5811,343.8154 L348.5811,324.6154 C367.9901,324.6154 383.7811,308.8244 383.7811,289.4154 L402.9811,289.4154 C402.9811,319.4124 378.5781,343.8154 348.5811,343.8154" id="Fill-2996" fill="#CDD1DF"></path>
            <polygon id="Fill-2998" fill="#CDD1DF" points="30.5996 335.8145 22.5996 343.8145 14.5996 335.8145 22.5996 327.8145"></polygon>
            <path d="M262.8975,702.0098 L269.0655,780.9678 L355.8365,780.9678 C355.8365,780.9678 360.7715,765.3408 350.2855,751.9758 C339.9175,738.7608 315.8115,743.5538 315.8115,743.5538 L313.0685,702.0098 L262.8975,702.0098 Z" id="Fill-3000" fill="#FFC4A3"></path>
            <path d="M169.2725,702.0098 L157.4835,780.9678 L77.7035,780.9678 C77.7035,780.9678 74.3445,766.3678 81.0015,755.0038 C91.0805,737.7948 114.6465,743.3388 114.6465,743.3388 L120.4035,702.0098 L169.2725,702.0098 Z" id="Fill-3002" fill="#FFC4A3"></path>
            <path d="M245.9365,21.9854 L204.1595,58.2764 C204.1595,58.2764 192.8205,61.8324 186.3385,51.7214 C186.3385,51.7214 194.8555,48.8364 194.2655,38.8434 C193.4925,25.7224 192.1505,19.4904 199.0875,14.0034 C205.4395,8.9784 213.3755,13.5474 213.3755,13.5474 C213.3755,13.5474 212.6895,4.4274 222.9605,1.6934 C233.2085,-1.0346 243.9995,1.3954 250.9995,7.7144 C258.2805,14.2874 259.9765,25.3434 269.3735,23.6594 C269.3735,23.6594 261.9695,35.1864 245.9365,21.9854" id="Fill-3004" fill="#1D213A"></path>
            <path d="M212.083,59.6572 L205.594,119.2412 C205.594,119.2412 219.032,130.1162 240.073,128.6422 C255.548,127.5582 258.991,117.4082 258.991,117.4082 L255.906,59.6572 L212.083,59.6572 Z" id="Fill-3006" fill="#FFC4A3"></path>
            <path d="M473.0322,148.3457 C466.3202,158.7747 438.9152,186.7057 413.5512,209.2747 C405.7202,207.3997 395.5882,203.0237 389.7642,192.9237 C384.2372,183.3177 383.7112,172.8557 384.4682,165.1577 L434.1122,140.9437 C434.1122,140.9437 432.2372,128.4747 437.1722,123.9997 C445.5282,116.4337 443.6852,117.0587 448.2262,113.1107 C451.3842,110.3797 454.7402,113.2097 454.7402,113.2097 C454.7402,113.2097 458.9512,106.5317 460.0692,103.2417 C461.2202,99.9507 463.5902,97.2857 467.8992,99.0307 C471.8142,100.6097 471.0912,105.3137 470.9262,106.2017 C471.8472,103.3727 475.7622,101.1357 479.3152,103.2417 C482.6712,105.2817 481.1902,110.2487 480.9932,110.9067 C482.4732,106.7287 488.9552,105.8727 490.0082,111.6627 C490.8632,116.5657 481.2572,135.6147 473.0322,148.3457" id="Fill-3008" fill="#FFC4A3"></path>
            <path d="M392.334,161.3203 L384.468,165.1573 C383.711,172.8553 384.237,183.3173 389.765,192.9243 C395.588,203.0233 405.721,207.3993 413.551,209.2743 C417.772,205.5173 422.048,201.6073 426.278,197.6593 C398.398,190.6153 392.336,161.3293 392.334,161.3203" id="Fill-3010" fill="#F99175"></path>
            <polygon id="Fill-3012" fill="#F99175" points="116.9131 727.0684 166.3601 721.5104 169.2721 702.0094 120.4031 702.0094"></polygon>
            <polygon id="Fill-3014" fill="#F99175" points="313.0684 702.0098 262.8974 702.0098 264.4404 721.7658 314.7004 726.7248"></polygon>
            <path d="M399.4971,188.1152 C389.9011,174.9552 392.3341,161.3202 392.3341,161.3192 L368.2231,173.0792 C322.1641,140.5912 301.4161,117.8872 285.2411,118.2592 L272.3551,173.5702 C272.3551,173.5702 319.5171,209.4382 344.7331,228.2642 C364.7471,243.2062 373.5191,242.6582 397.1661,223.3302 C404.5611,217.2852 412.6661,210.1872 420.7601,202.7762 C420.7271,202.7672 408.5281,200.5012 399.4971,188.1152" id="Fill-3016" fill="#D3D6E2"></path>
            <path d="M286.8857,261.5752 C286.8857,261.5752 295.2477,305.7142 309.2297,425.7962 C323.2117,545.8772 331.5737,715.5812 331.5737,715.5812 L247.6817,715.5812 L225.4747,407.9752 L185.9957,715.5812 L97.9907,715.5812 C97.9907,715.5812 119.4787,512.7382 140.0397,408.2842 C160.6017,303.8292 173.3847,261.5752 173.3847,261.5752 L286.8857,261.5752 Z" id="Fill-3018" fill="#1D213A"></path>
            <path d="M285.2412,118.2588 C285.2412,118.2588 285.2412,196.5998 302.5122,284.6048 C302.5122,284.6048 281.4032,299.0388 228.0212,299.01483 C182.3662,298.9938 157.4152,280.4918 157.4152,280.4918 C175.9212,201.1228 173.4962,124.0698 173.4962,124.0698 C173.4962,124.0698 202.4452,118.1558 231.3352,117.4368 C256.7612,116.8028 285.2412,118.2588 285.2412,118.2588" id="Fill-3020" fill="#D3D6E2"></path>
            <path d="M237.333,212.3779 C237.333,212.3779 245.199,192.8159 253.233,190.5819 C260.225,188.6389 261.185,194.4209 258.306,198.9439 C255.606,203.1859 242.953,217.9979 242.953,217.9979 L237.333,212.3779 Z" id="Fill-3022" fill="#F99175"></path>
            <path d="M288.7969,186.8555 C288.3849,186.8555 288.0369,186.5425 287.9999,186.1265 C287.1909,176.9205 286.4969,167.6045 285.9409,158.4305 C285.9159,157.9905 286.2499,157.6105 286.6929,157.5845 C287.1279,157.5295 287.5129,157.8935 287.5409,158.3345 C288.0939,167.4935 288.7839,176.7955 289.5939,185.9855 C289.6309,186.4255 289.3069,186.8135 288.8649,186.8525 C288.8439,186.8545 288.8179,186.8555 288.7969,186.8555" id="Fill-3024" fill="#1D213A"></path>
            <path d="M265.2422,197.6943 C263.0382,203.1883 254.5502,216.8743 240.5672,230.8563 C231.3552,240.0683 203.6872,258.7213 176.3482,273.2623 C168.8472,270.4333 162.0712,264.7093 159.6692,253.6223 C156.2482,237.8963 166.7092,227.0403 170.0322,224.0793 L169.7362,224.9013 L208.4912,216.6113 C208.4912,216.6113 211.4852,207.3663 219.4462,202.0043 C227.4082,196.6083 233.9882,192.2003 237.5412,189.4693 C241.0952,186.7383 247.1472,191.1143 243.5612,197.1343 C240.0092,203.1883 235.6332,205.0963 235.6332,205.0963 L243.4302,206.8733 C243.4302,206.8733 252.8392,195.5223 257.3462,192.8253 C262.2812,189.8973 267.4132,192.2003 265.2422,197.6943" id="Fill-3026" fill="#FFC4A3"></path>
            <path d="M258.1299,101.2949 L258.1299,101.2949 L255.9059,59.6569 L242.2169,59.6569 L242.3669,96.1759 C242.3669,96.1759 248.6329,100.4919 258.1299,101.2949" id="Fill-3028" fill="#F99175"></path>
            <path d="M225.4746,408.7764 C225.4476,408.7764 225.4156,408.7744 225.3876,408.7714 C224.9476,408.7224 224.6306,408.3274 224.6816,407.8864 L232.3566,338.7974 C232.3936,338.4524 232.6506,338.1714 232.9946,338.1024 C233.1246,338.0764 246.3256,335.2694 251.0406,322.1684 C251.1906,321.7514 251.6506,321.5424 252.0656,321.6854 C252.4816,321.8354 252.6976,322.2934 252.5466,322.7094 C248.0996,335.0584 236.5936,338.8074 233.8846,339.5304 L226.2686,408.0654 C226.2246,408.4724 225.8776,408.7764 225.4746,408.7764" id="Fill-3030" fill="#E8EAEF"></path>
            <path d="M205.6631,32.3438 C205.6631,32.3438 214.3491,24.4368 230.8751,21.1308 C247.4021,17.8258 259.5881,26.5108 263.7351,50.2968 C267.8791,74.0558 263.4761,92.2318 246.6251,95.6018 C227.5541,99.4148 205.6631,87.9528 205.6631,32.3438" id="Fill-3032" fill="#FFC4A3"></path>
            <path d="M215.3848,20.4561 C209.5518,25.4741 220.0348,41.6441 216.2928,49.0651 C212.9888,55.6171 204.3668,57.2321 204.3668,57.2321 L201.9048,29.3621 L215.3848,20.4561 Z" id="Fill-3034" fill="#1D213A"></path>
            <path d="M170.4688,224.7549 L170.4688,224.7449 L169.7368,224.9009 L170.0318,224.0789 C166.7088,227.0399 156.2478,237.8969 159.6688,253.6219 C162.0718,264.7089 168.8478,270.4339 176.3488,273.2629 C180.1908,271.2199 184.0318,269.0909 187.8348,266.9229 C162.7628,254.7299 170.4688,224.7549 170.4688,224.7549" id="Fill-3036" fill="#F99175"></path>
            <path d="M227.667,16.7568 C235.834,14.0338 237.292,28.8118 244.875,34.0618 C251.845,38.8868 267.722,34.7418 269.374,23.6588 C269.374,23.6588 262.646,28.3678 250.708,18.7978 C238.944,9.3678 227.667,16.7568 227.667,16.7568" id="Fill-3038" fill="#1D213A"></path>
            <path d="M210.5566,56.2275 C210.5566,56.2275 205.6626,50.9775 199.9596,54.4775 C193.5066,58.4375 195.5336,68.3755 201.9046,71.8795 C207.7376,75.0875 213.9586,72.4625 213.9586,72.4625 L210.5566,56.2275 Z" id="Fill-3040" fill="#FFC4A3"></path>
            <path d="M166.2305,250.3379 C162.2125,237.0519 169.7375,224.9109 169.7375,224.9109 L190.1085,170.0059 L173.4965,124.0689 C159.4025,127.3739 150.4235,136.5589 133.3605,175.4219 C121.3235,202.8369 109.1395,233.7169 104.8785,249.1349 C95.3815,283.5089 112.1785,298.1749 136.9215,290.6359 C149.8345,286.7009 166.2025,278.9349 182.2225,270.0899 C182.1615,270.0649 170.8305,265.5519 166.2305,250.3379" id="Fill-3042" fill="#D3D6E2"></path>
            <path d="M159.3379,282.5742 C159.036898,282.5742 158.7469,282.4022 158.6119,282.1102 C158.4249,281.7102 158.5999,281.2332 158.9999,281.0482 C166.1039,277.7562 173.7839,273.8342 181.8339,269.3892 C182.2159,269.1752 182.7059,269.3152 182.9219,269.7042 C183.1349,270.0902 182.9939,270.5772 182.6089,270.7902 C174.5259,275.2532 166.8099,279.1912 159.6749,282.4992 C159.5659,282.5512 159.4499,282.5742 159.3379,282.5742" id="Fill-3044" fill="#1D213A"></path>
            <path d="M170.4688,225.5537 C170.3778,225.5537 170.2868,225.5377 170.1998,225.5067 C169.7818,225.3577 169.5658,224.8997 169.7158,224.4837 L184.7498,182.5717 C184.9038,182.1547 185.3718,181.9467 185.7718,182.0887 C186.1908,182.2387 186.4068,182.6967 186.2558,183.1127 L171.2218,225.0247 C171.1038,225.3507 170.7968,225.5537 170.4688,225.5537" id="Fill-3046" fill="#1D213A"></path>
            <path d="M119.4844,236.4756 C119.1154,236.4756 118.7814,236.2196 118.7034,235.8426 C118.6094,235.4126 118.8844,234.9876 119.3154,234.8936 L170.2994,223.9716 C170.7284,223.8866 171.1594,224.1546 171.2504,224.5866 C171.3434,225.0186 171.0684,225.4436 170.6374,225.5376 L119.6534,236.4586 C119.5964,236.4696 119.5414,236.4756 119.4844,236.4756" id="Fill-3048" fill="#1D213A"></path>
            <path d="M354.9814,180.3369 C354.6844,180.3369 354.4004,180.1709 354.2624,179.8869 C354.0684,179.4899 354.2344,179.0119 354.6304,178.8179 L367.8724,172.3599 C368.2654,172.1679 368.7504,172.3309 368.9404,172.7299 C369.1344,173.1259 368.9684,173.6049 368.5724,173.7979 L355.3314,180.2559 C355.2184,180.3109 355.0994,180.3369 354.9814,180.3369" id="Fill-3050" fill="#1D213A"></path>
            <path d="M207.5488,101.2949 L205.5938,119.2409 C205.5938,119.2409 219.0318,130.1159 240.0728,128.6429 C255.5478,127.5589 258.9908,117.4079 258.9908,117.4079 L258.1298,101.2949 L207.5488,101.2949 Z" id="Fill-3052" fill="#D3D6E2"></path>
            <path d="M225.6875,128.5713 C225.6375,128.5713 225.5875,128.5663 225.5345,128.5573 C212.9005,126.0923 205.4035,120.1163 205.0905,119.8633 C204.7475,119.5853 204.6935,119.0823 204.9715,118.7383 C205.2525,118.3913 205.7595,118.3423 206.0965,118.6203 C206.1715,118.6783 213.6195,124.6043 225.8405,126.9853 C226.2755,127.0713 226.5565,127.4903 226.4715,127.9253 C226.3965,128.3053 226.0625,128.5713 225.6875,128.5713" id="Fill-3054" fill="#1D213A"></path>
            <path d="M445.9902,124.2744 C445.7872,124.2744 445.5842,124.1984 445.4312,124.0454 C445.1152,123.7354 445.1092,123.2294 445.4192,122.9134 C445.4692,122.8654 450.2682,117.9644 454.0962,112.7484 C454.3622,112.3914 454.8652,112.3164 455.2132,112.5764 C455.5682,112.8364 455.6462,113.3384 455.3852,113.6944 C451.4902,119.0054 446.6092,123.9854 446.5622,124.0354 C446.4032,124.1944 446.1972,124.2744 445.9902,124.2744" id="Fill-3056" fill="#1D213A"></path>
            <path d="M463.3066,119.1475 C463.1096,119.1475 462.9116,119.0765 462.7596,118.9305 C462.4376,118.6285 462.4216,118.1235 462.7216,117.8005 C462.7756,117.7465 467.9156,112.2135 470.1276,106.0615 C470.2816,105.6465 470.7346,105.4365 471.1536,105.5795 C471.5686,105.7295 471.7846,106.1865 471.6346,106.6025 C469.3096,113.0735 464.1096,118.6605 463.8906,118.8945 C463.7316,119.0635 463.5186,119.1475 463.3066,119.1475" id="Fill-3058" fill="#1D213A"></path>
            <path d="M471.875,125.0371 C471.69,125.0371 471.506,124.9751 471.356,124.8451 C471.019,124.5581 470.981,124.0531 471.266,123.7171 C471.331,123.6431 477.669,116.1931 480.229,110.6241 C480.416,110.2221 480.888,110.0481 481.291,110.2321 C481.69,110.4171 481.869,110.8911 481.685,111.2931 C479.028,117.0651 472.75,124.4441 472.484,124.7571 C472.325,124.9411 472.1,125.0371 471.875,125.0371" id="Fill-3060" fill="#1D213A"></path>
            <path d="M475.166,128.6006 C474.932,128.6006 474.703,128.4986 474.544,128.3036 C474.516,128.2696 471.675,124.7876 467.106,121.6756 C462.916,118.8196 458.3,117.6916 458.253,117.6806 C457.825,117.5776 457.56,117.1466 457.662,116.7166 C457.766,116.2876 458.178,116.0196 458.625,116.1236 C458.825,116.1706 463.565,117.3266 468.006,120.3546 C472.781,123.6056 475.669,127.1496 475.787,127.2976 C476.065,127.6416 476.013,128.1446 475.669,128.4226 C475.521,128.5426 475.344,128.6006 475.166,128.6006" id="Fill-3062" fill="#1D213A"></path>
            <path d="M450.3652,147.6543 C450.3032,147.6543 450.2372,147.6463 450.1752,147.6313 C449.7472,147.5263 449.4842,147.0923 449.5882,146.6633 C453.2622,131.7323 470.6592,130.5763 470.8382,130.5663 C471.1842,130.5353 471.6562,130.8783 471.6772,131.3193 C471.7062,131.7603 471.3692,132.1383 470.9272,132.1633 C470.7622,132.1733 454.5312,133.2723 451.1432,147.0453 C451.0522,147.4103 450.7242,147.6543 450.3652,147.6543" id="Fill-3064" fill="#1D213A"></path>
            <path d="M208.6777,64.1748 C208.3537,64.1748 208.0467,63.9748 207.9277,63.6518 C205.9407,58.2698 202.3127,59.4278 202.1657,59.4828 C201.7497,59.6208 201.2937,59.4018 201.1507,58.9878 C201.0057,58.5708 201.2217,58.1198 201.6347,57.9728 C201.6907,57.9488 206.8847,56.2038 209.4277,63.0978 C209.5807,63.5118 209.3687,63.9718 208.9557,64.1238 C208.8627,64.1588 208.7687,64.1748 208.6777,64.1748" id="Fill-3066" fill="#1D213A"></path>
            <path d="M125.3389,737.6328 L115.4419,737.6328 L114.6469,743.3388 C114.6469,743.3388 91.0799,737.7938 81.0009,755.0048 C74.3449,766.3678 77.7029,780.9678 77.7029,780.9678 L157.4839,780.9678 L161.3949,754.7738 L132.7409,748.7688 C132.7409,748.7688 132.5359,737.6328 125.3389,737.6328" id="Fill-3068" fill="#D3D6E2"></path>
            <path d="M315.8115,743.5537 L315.2795,735.4847 L306.1465,735.4847 C297.9205,735.4847 298.4695,747.5347 298.4695,747.5347 L266.8655,752.8017 L269.0655,780.9677 L355.8365,780.9677 C355.8365,780.9677 360.7715,765.3407 350.2855,751.9757 C339.9155,738.7607 315.8115,743.5537 315.8115,743.5537" id="Fill-3070" fill="#D3D6E2"></path>
            <path d="M159.0879,771.0322 L76.8999,771.0322 C76.4589,771.0322 76.0999,770.6752 76.0999,770.2322 C76.0999,769.7902 76.4589,769.4322 76.8999,769.4322 L159.0879,769.4322 C159.5279,769.4322 159.8879,769.7902 159.8879,770.2322 C159.8879,770.6752 159.5279,771.0322 159.0879,771.0322" id="Fill-3072" fill="#1D213A"></path>
            <path d="M356.9404,771.0322 L268.2284,771.0322 C267.7874,771.0322 267.4274,770.6752 267.4274,770.2322 C267.4274,769.7902 267.7874,769.4322 268.2284,769.4322 L356.9404,769.4322 C357.3804,769.4322 357.7404,769.7902 357.7404,770.2322 C357.7404,770.6752 357.3804,771.0322 356.9404,771.0322" id="Fill-3074" fill="#1D213A"></path>
            <path d="M309.9473,752.4463 C309.9163,752.4463 309.8813,752.4443 309.8493,752.4403 C309.4093,752.3863 309.0993,751.9873 309.1533,751.5483 C309.9873,744.7543 315.3283,742.8733 315.5563,742.7963 C315.9683,742.6593 316.4223,742.8793 316.5683,743.2953 C316.7093,743.7123 316.4873,744.1673 316.0723,744.3103 C315.8843,744.3763 311.4503,745.9753 310.7403,751.7453 C310.6903,752.1493 310.3463,752.4463 309.9473,752.4463" id="Fill-3076" fill="#1D213A"></path>
            <path d="M319.0312,751.418 L319.0002,751.418 C318.5592,751.401 318.2162,751.03 318.2312,750.589 C318.4532,744.655 322.7812,742.165 322.9662,742.062 C323.3492,741.845 323.8342,741.985 324.0502,742.368 C324.2682,742.751 324.1312,743.238 323.7502,743.457 C323.5962,743.543 320.0152,745.64 319.8312,750.647 C319.8152,751.079 319.4592,751.418 319.0312,751.418" id="Fill-3078" fill="#1D213A"></path>
            <path d="M327.2559,751.418 C326.8159,751.418 326.4559,751.061 326.4559,750.618 C326.4559,744.404 331.0659,742.37 331.2629,742.285 C331.6559,742.113 332.1349,742.298 332.3069,742.706 C332.4819,743.108 332.2969,743.579 331.8909,743.756 C331.7349,743.824 328.0569,745.493 328.0569,750.618 C328.0569,751.061 327.6969,751.418 327.2559,751.418" id="Fill-3080" fill="#1D213A"></path>
            <path d="M120.6094,752.4463 C120.2284,752.4463 119.8904,752.1753 119.8224,751.7873 C118.8754,746.4803 114.3254,744.0733 114.2784,744.0503 C113.8874,743.8463 113.7344,743.3633 113.9374,742.9713 C114.1404,742.5773 114.6254,742.4273 115.0154,742.6283 C115.2314,742.7403 120.3124,745.4303 121.3964,751.5063 C121.4744,751.9403 121.1844,752.3553 120.7504,752.4333 C120.7034,752.4413 120.6564,752.4463 120.6094,752.4463" id="Fill-3082" fill="#1D213A"></path>
            <path d="M111.3564,752.4463 L111.3284,752.4463 C110.8874,752.4303 110.5414,752.0583 110.5564,751.6183 C110.7474,746.3403 106.5994,743.1753 106.5594,743.1433 C106.2034,742.8783 106.1304,742.3783 106.3964,742.0223 C106.6594,741.6703 107.1694,741.5993 107.5154,741.8623 C107.7154,742.0103 112.3754,745.5713 112.1564,751.6753 C112.1404,752.1073 111.7844,752.4463 111.3564,752.4463" id="Fill-3084" fill="#1D213A"></path>
            <path d="M102.1035,752.4463 L102.0755,752.4463 C101.6345,752.4303 101.2875,752.0613 101.3025,751.6203 C101.4905,746.0013 98.6745,743.8183 98.5565,743.7273 C98.2035,743.4643 98.1275,742.9643 98.3905,742.6103 C98.6505,742.2563 99.1535,742.1773 99.5025,742.4403 C99.6505,742.5483 103.1225,745.1573 102.9035,751.6733 C102.8875,752.1053 102.5345,752.4463 102.1035,752.4463" id="Fill-3086" fill="#1D213A"></path>
            <path d="M217.9687,52.5215 C217.7837,52.5215 217.5967,52.4565 217.4437,52.3245 C217.1127,52.0355 217.0747,51.5295 217.3647,51.1965 C217.5497,50.9825 221.8777,45.8715 218.5057,39.8785 L218.3127,39.5385 C215.1557,33.9275 209.8687,24.5385 214.8377,19.8735 C215.1557,19.5715 215.6617,19.5845 215.9687,19.9075 C216.2687,20.2305 216.2527,20.7375 215.9317,21.0385 C211.8777,24.8465 216.9717,33.8935 219.7087,38.7525 L219.9007,39.0945 C223.8337,46.0845 218.6247,52.1865 218.5727,52.2485 C218.4117,52.4285 218.1907,52.5215 217.9687,52.5215" id="Fill-3088" fill="#1D213A"></path>
            <path d="M249.0498,39.4482 C246.8718,39.4482 244.4818,38.9442 242.3688,37.3502 C239.0218,34.8272 237.4898,30.5892 236.0098,26.4882 C233.8648,20.5602 232.3068,16.9652 227.7718,17.5502 C227.3438,17.6072 226.9318,17.2962 226.8748,16.8582 C226.8188,16.4202 227.1278,16.0192 227.5658,15.9622 C233.6408,15.1782 235.5998,20.6512 237.5128,25.9442 C238.9158,29.8242 240.3648,33.8372 243.3308,36.0732 C248.2088,39.7462 255.1878,36.5342 255.2558,36.5032 C255.6508,36.3192 256.1308,36.4852 256.3218,36.8852 C256.5098,37.2852 256.3378,37.7612 255.9378,37.9492 C255.7368,38.0452 252.6878,39.4482 249.0498,39.4482" id="Fill-3090" fill="#1D213A"></path>
            <path d="M186.3408,50.2588 C186.0938,50.2588 185.8498,50.1448 185.6938,49.9288 C185.4348,49.5718 185.5128,49.0718 185.8718,48.8118 C189.9218,45.8658 190.5778,39.7638 191.2758,33.3028 C191.9998,26.5728 192.7468,19.6128 197.6558,16.0418 C198.0158,15.7798 198.5158,15.8588 198.7758,16.2178 C199.0338,16.5738 198.9558,17.0758 198.5998,17.3348 C194.2628,20.4898 193.5528,27.0898 192.8648,33.4728 C192.1618,39.9978 191.4378,46.7448 186.8098,50.1058 C186.6688,50.2088 186.5028,50.2588 186.3408,50.2588" id="Fill-3092" fill="#1D213A"></path>
            <path d="M268.0469,21.9336007 C263.8279,21.9356 260.9349,17.7026 258.1279,13.5946 C257.5189,12.7046 256.9089,11.8116 256.2909,10.9676 C252.7559,6.1576 244.6119,1.3426 232.3539,2.2466 C231.8339,2.2746 231.5279,1.9466 231.4969,1.5066 C231.4629,1.0666 231.7939,0.6826 232.2339,0.6496 C245.1379,-0.2904 253.7909,4.8656 257.5779,10.0216 C258.2089,10.8786 258.8279,11.7856 259.4499,12.6916 C262.4059,17.0196 265.2289,21.1186 269.1969,20.2016 C269.6439,20.0976 270.0599,20.3756 270.1559,20.8036 C270.2529,21.2356 269.9819,21.6626 269.5529,21.7606 C269.0309,21.8786 268.5309,21.9336007 268.0469,21.9336007" id="Fill-3094" fill="#1D213A"></path>
            <path d="M230.3369,53.2744 C230.3369,54.3544 231.2129,55.2294 232.2919,55.2294 C233.3719,55.2294 234.2479,54.3544 234.2479,53.2744 C234.2479,52.1944 233.3719,51.3194 232.2919,51.3194 C231.2129,51.3194 230.3369,52.1944 230.3369,53.2744" id="Fill-3096" fill="#1D213A"></path>
            <path d="M255.5986,47.1035 C255.5986,48.1835 256.4736,49.0595 257.5536,49.0595 C258.6336,49.0595 259.5086,48.1835 259.5086,47.1035 C259.5086,46.0245 258.6336,45.1485 257.5536,45.1485 C256.4736,45.1485 255.5986,46.0245 255.5986,47.1035" id="Fill-3098" fill="#1D213A"></path>
            <path d="M232.9775,41.9277 C232.7425,43.4727 230.0595,44.1797 227.3855,45.2207 C224.6675,46.1417 222.1595,47.3237 220.9865,46.2917 C219.7925,45.3277 221.2195,41.3467 225.4165,39.8107 C229.6195,38.2887 233.2715,40.4227 232.9775,41.9277" id="Fill-3100" fill="#1D213A"></path>
            <path d="M260.2578,37.2334 C259.7948,38.4544 257.6918,38.4204 255.5328,38.6644 C253.3638,38.7984 251.2998,39.1974 250.6318,38.0754 C249.9378,37.0064 251.7328,34.0494 255.1028,33.7484 C258.4748,33.4604 260.7558,36.0594 260.2578,37.2334" id="Fill-3102" fill="#1D213A"></path>
            <path d="M251.7373,61.7139 C251.2033,61.7139 250.6343,61.6629 250.0313,61.5559 C249.5933,61.4779 249.3063,61.0619 249.3843,60.6259 C249.4593,60.1919 249.8783,59.9129 250.3123,59.9809 C253.2653,60.5139 255.0783,59.3619 255.7443,58.2179 C256.2373,57.3619 256.1873,56.4369 255.6033,55.7449 C254.4343,54.3499 252.1283,55.8779 252.1033,55.8939 C251.9163,56.0169 251.6813,56.0609 251.4663,56.0059 C251.2473,55.9519 251.0593,55.8089 250.9533,55.6099 L247.8183,49.8399 C247.6093,49.4519 247.7533,48.9669 248.1403,48.7559 C248.5343,48.5449 249.0153,48.6909 249.2243,49.0769 L251.9713,54.1369 C253.3493,53.4899 255.4563,53.0789 256.8283,54.7139 C257.8463,55.9279 257.9633,57.5769 257.1283,59.0199 C256.3533,60.3579 254.5283,61.7139 251.7373,61.7139" id="Fill-3104" fill="#F99175"></path>
            <path d="M248.0039,68.3809 C244.0709,68.5639 242.1209,66.0019 240.6779,67.9709 C238.8019,70.5279 243.1029,76.3939 249.0609,75.5039 C253.7149,74.8079 256.2929,68.6309 254.4249,67.3889 C252.6389,66.1999 251.2999,68.2279 248.0039,68.3809" id="Fill-3106" fill="#E8EAEF"></path>
        </g>
    </g>
</svg>