<?xml version="1.0" encoding="UTF-8"?>
<svg width="644px" height="670px" viewBox="0 0 644 670" version="1.1" xmlns="http://www.w3.org/2000/svg" xmlns:xlink="http://www.w3.org/1999/xlink">
    <title>Illustration 14 0</title>
    <g id="🤩-Illustrations" stroke="none" stroke-width="1" fill="none" fill-rule="evenodd">
        <g id="Illustration-14">
            <path d="M467.5298,336.2344 C464.6318,336.2344 463.1048,334.7094 461.8768,333.4844 C460.7318,332.3384 459.8248,331.4344 457.9188,331.4344 C456.0128,331.4344 455.1078,332.3384 453.9628,333.4824 C452.7368,334.7094 451.2078,336.2344 448.3098,336.2344 C445.4128,336.2344 443.8878,334.7084 442.6628,333.4824 C441.5188,332.3384 440.6158,331.4344 438.7148,331.4344 C436.8128,331.4344 435.9098,332.3384 434.7658,333.4824 C433.5408,334.7094 432.0158,336.2344 429.1208,336.2344 C426.2248,336.2344 424.7018,334.7084 423.4768,333.4824 C422.3328,332.3384 421.4298,331.4344 419.5298,331.4344 C418.8678,331.4344 418.3298,330.8964 418.3298,330.2344 C418.3298,329.5724 418.8678,329.0344 419.5298,329.0344 C422.4258,329.0344 423.9488,330.5604 425.1738,331.7864 C426.3178,332.9314 427.2208,333.8344 429.1208,333.8344 C431.0218,333.8344 431.9258,332.9314 433.0688,331.7864 C434.2938,330.5594 435.8188,329.0344 438.7148,329.0344 C441.6098,329.0344 443.1348,330.5594 444.3598,331.7864 C445.5038,332.9294 446.4078,333.8344 448.3098,333.8344 C450.2158,333.8344 451.1208,332.9294 452.2658,331.7864 C453.4928,330.5594 455.0208,329.0344 457.9188,329.0344 C460.8188,329.0344 462.3458,330.5594 463.5738,331.7864 C464.7188,332.9294 465.6238,333.8344 467.5298,333.8344 C468.1928,333.8344 468.7298,334.3724 468.7298,335.0344 C468.7298,335.6974 468.1928,336.2344 467.5298,336.2344" id="Fill-2090" fill="#CDD1DF"></path>
            <path d="M467.5298,349.0342 C464.6318,349.0342 463.1048,347.5102 461.8768,346.2842 C460.7318,345.1382 459.8248,344.2342 457.9188,344.2342 C456.0128,344.2342 455.1078,345.1382 453.9628,346.2832 C452.7368,347.5102 451.2078,349.0342 448.3098,349.0342 C445.4128,349.0342 443.8878,347.5082 442.6628,346.2832 C441.5188,345.1382 440.6158,344.2342 438.7148,344.2342 C436.8128,344.2342 435.9098,345.1382 434.7658,346.2832 C433.5408,347.5102 432.0158,349.0342 429.1208,349.0342 C426.2248,349.0342 424.7018,347.5082 423.4768,346.2832 C422.3328,345.1382 421.4298,344.2342 419.5298,344.2342 C418.8678,344.2342 418.3298,343.6972 418.3298,343.0342 C418.3298,342.3722 418.8678,341.8342 419.5298,341.8342 C422.4258,341.8342 423.9488,343.3612 425.1738,344.5862 C426.3178,345.7312 427.2208,346.6352 429.1208,346.6352 C431.0218,346.6352 431.9258,345.7312 433.0688,344.5862 C434.2938,343.3592 435.8188,341.8342 438.7148,341.8342 C441.6098,341.8342 443.1348,343.3592 444.3598,344.5862 C445.5038,345.7292 446.4078,346.6352 448.3098,346.6352 C450.2158,346.6352 451.1208,345.7292 452.2658,344.5862 C453.4928,343.3592 455.0208,341.8342 457.9188,341.8342 C460.8188,341.8342 462.3458,343.3592 463.5738,344.5862 C464.7188,345.7292 465.6238,346.6352 467.5298,346.6352 C468.1928,346.6352 468.7298,347.1722 468.7298,347.8342 C468.7298,348.4972 468.1928,349.0342 467.5298,349.0342" id="Fill-2092" fill="#CDD1DF"></path>
            <path d="M467.5298,361.834 C464.6318,361.834 463.1048,360.31 461.8768,359.084 C460.7318,357.939 459.8248,357.034 457.9188,357.034 C456.0128,357.034 455.1078,357.939 453.9628,359.083 C452.7368,360.31 451.2078,361.834 448.3098,361.834 C445.4128,361.834 443.8878,360.308 442.6628,359.083 C441.5188,357.938 440.6158,357.034 438.7148,357.034 C436.8128,357.034 435.9098,357.938 434.7658,359.083 C433.5408,360.31 432.0158,361.834 429.1208,361.834 C426.2248,361.834 424.7018,360.308 423.4768,359.083 C422.3328,357.938 421.4298,357.034 419.5298,357.034 C418.8678,357.034 418.3298,356.497 418.3298,355.834 C418.3298,355.172 418.8678,354.635 419.5298,354.635 C422.4258,354.635 423.9488,356.161 425.1738,357.386 C426.3178,358.531 427.2208,359.435 429.1208,359.435 C431.0218,359.435 431.9258,358.531 433.0688,357.386 C434.2938,356.159 435.8188,354.635 438.7148,354.635 C441.6098,354.635 443.1348,356.159 444.3598,357.386 C445.5038,358.529 446.4078,359.435 448.3098,359.435 C450.2158,359.435 451.1208,358.529 452.2658,357.386 C453.4928,356.159 455.0208,354.635 457.9188,354.635 C460.8188,354.635 462.3458,356.159 463.5738,357.386 C464.7188,358.529 465.6238,359.435 467.5298,359.435 C468.1928,359.435 468.7298,359.972 468.7298,360.635 C468.7298,361.297 468.1928,361.834 467.5298,361.834" id="Fill-2094" fill="#CDD1DF"></path>
            <path d="M467.5298,374.6348 C464.6318,374.6348 463.1048,373.1098 461.8768,371.8848 C460.7318,370.7388 459.8248,369.8338 457.9188,369.8338 C456.0128,369.8338 455.1078,370.7388 453.9628,371.8828 C452.7368,373.1098 451.2078,374.6348 448.3098,374.6348 C445.4128,374.6348 443.8878,373.1078 442.6628,371.8828 C441.5188,370.7378 440.6158,369.8338 438.7148,369.8338 C436.8128,369.8338 435.9098,370.7378 434.7658,371.8828 C433.5408,373.1098 432.0158,374.6348 429.1208,374.6348 C426.2248,374.6348 424.7018,373.1078 423.4768,371.8828 C422.3328,370.7378 421.4298,369.8338 419.5298,369.8338 C418.8678,369.8338 418.3298,369.2968 418.3298,368.6348 C418.3298,367.9718 418.8678,367.4348 419.5298,367.4348 C422.4258,367.4348 423.9488,368.9608 425.1738,370.1858 C426.3178,371.3308 427.2208,372.2348 429.1208,372.2348 C431.0218,372.2348 431.9258,371.3308 433.0688,370.1858 C434.2938,368.9588 435.8188,367.4348 438.7148,367.4348 C441.6098,367.4348 443.1348,368.9588 444.3598,370.1858 C445.5038,371.3298 446.4078,372.2348 448.3098,372.2348 C450.2158,372.2348 451.1208,371.3298 452.2658,370.1858 C453.4928,368.9588 455.0208,367.4348 457.9188,367.4348 C460.8188,367.4348 462.3458,368.9588 463.5738,370.1858 C464.7188,371.3298 465.6238,372.2348 467.5298,372.2348 C468.1928,372.2348 468.7298,372.7718 468.7298,373.4348 C468.7298,374.0968 468.1928,374.6348 467.5298,374.6348" id="Fill-2096" fill="#CDD1DF"></path>
            <path d="M89.604,213.9092 C89.604,215.6762 88.171,217.1082 86.404,217.1082 C84.637,217.1082 83.204,215.6762 83.204,213.9092 C83.204,212.1412 84.637,210.7092 86.404,210.7092 C88.171,210.7092 89.604,212.1412 89.604,213.9092" id="Fill-2098" fill="#CDD1DF"></path>
            <path d="M121.604,213.9092 C121.604,215.6762 120.171,217.1082 118.404,217.1082 C116.637,217.1082 115.204,215.6762 115.204,213.9092 C115.204,212.1412 116.637,210.7092 118.404,210.7092 C120.171,210.7092 121.604,212.1412 121.604,213.9092" id="Fill-2100" fill="#CDD1DF"></path>
            <path d="M153.604,213.9092 C153.604,215.6762 152.171,217.1082 150.404,217.1082 C148.637,217.1082 147.204,215.6762 147.204,213.9092 C147.204,212.1412 148.637,210.7092 150.404,210.7092 C152.171,210.7092 153.604,212.1412 153.604,213.9092" id="Fill-2102" fill="#CDD1DF"></path>
            <path d="M185.604,213.9092 C185.604,215.6762 184.171,217.1082 182.404,217.1082 C180.637,217.1082 179.204,215.6762 179.204,213.9092 C179.204,212.1412 180.637,210.7092 182.404,210.7092 C184.171,210.7092 185.604,212.1412 185.604,213.9092" id="Fill-2104" fill="#CDD1DF"></path>
            <path d="M89.604,245.9092 C89.604,247.6762 88.171,249.1082 86.404,249.1082 C84.637,249.1082 83.204,247.6762 83.204,245.9092 C83.204,244.1412 84.637,242.7092 86.404,242.7092 C88.171,242.7092 89.604,244.1412 89.604,245.9092" id="Fill-2106" fill="#CDD1DF"></path>
            <path d="M121.604,245.9092 C121.604,247.6762 120.171,249.1082 118.404,249.1082 C116.637,249.1082 115.204,247.6762 115.204,245.9092 C115.204,244.1412 116.637,242.7092 118.404,242.7092 C120.171,242.7092 121.604,244.1412 121.604,245.9092" id="Fill-2108" fill="#CDD1DF"></path>
            <path d="M155.2041,245.9092 C155.2041,248.5592 153.0551,250.7092 150.4041,250.7092 C147.7531,250.7092 145.6041,248.5592 145.6041,245.9092 C145.6041,243.2582 147.7531,241.1082 150.4041,241.1082 C153.0551,241.1082 155.2041,243.2582 155.2041,245.9092" id="Fill-2110" fill="#CDD1DF"></path>
            <path d="M187.2041,245.9092 C187.2041,248.5592 185.0551,250.7092 182.4041,250.7092 C179.7531,250.7092 177.6041,248.5592 177.6041,245.9092 C177.6041,243.2582 179.7531,241.1082 182.4041,241.1082 C185.0551,241.1082 187.2041,243.2582 187.2041,245.9092" id="Fill-2112" fill="#CDD1DF"></path>
            <path d="M89.604,277.9092 C89.604,279.6762 88.171,281.1082 86.404,281.1082 C84.637,281.1082 83.204,279.6762 83.204,277.9092 C83.204,276.1412 84.637,274.7092 86.404,274.7092 C88.171,274.7092 89.604,276.1412 89.604,277.9092" id="Fill-2114" fill="#CDD1DF"></path>
            <path d="M123.2041,277.9092 C123.2041,280.5592 121.0551,282.7092 118.4041,282.7092 C115.7531,282.7092 113.6041,280.5592 113.6041,277.9092 C113.6041,275.2582 115.7531,273.1082 118.4041,273.1082 C121.0551,273.1082 123.2041,275.2582 123.2041,277.9092" id="Fill-2116" fill="#CDD1DF"></path>
            <path d="M155.2041,277.9092 C155.2041,280.5592 153.0551,282.7092 150.4041,282.7092 C147.7531,282.7092 145.6041,280.5592 145.6041,277.9092 C145.6041,275.2582 147.7531,273.1082 150.4041,273.1082 C153.0551,273.1082 155.2041,275.2582 155.2041,277.9092" id="Fill-2118" fill="#CDD1DF"></path>
            <path d="M187.2041,277.9092 C187.2041,280.5592 185.0551,282.7092 182.4041,282.7092 C179.7531,282.7092 177.6041,280.5592 177.6041,277.9092 C177.6041,275.2582 179.7531,273.1082 182.4041,273.1082 C185.0551,273.1082 187.2041,275.2582 187.2041,277.9092" id="Fill-2120" fill="#CDD1DF"></path>
            <path d="M89.604,309.9092 C89.604,311.6762 88.171,313.1082 86.404,313.1082 C84.637,313.1082 83.204,311.6762 83.204,309.9092 C83.204,308.1412 84.637,306.7092 86.404,306.7092 C88.171,306.7092 89.604,308.1412 89.604,309.9092" id="Fill-2122" fill="#CDD1DF"></path>
            <path d="M123.2041,309.9092 C123.2041,312.5592 121.0551,314.7092 118.4041,314.7092 C115.7531,314.7092 113.6041,312.5592 113.6041,309.9092 C113.6041,307.2582 115.7531,305.1082 118.4041,305.1082 C121.0551,305.1082 123.2041,307.2582 123.2041,309.9092" id="Fill-2124" fill="#CDD1DF"></path>
            <path d="M155.2041,309.9092 C155.2041,312.5592 153.0551,314.7092 150.4041,314.7092 C147.7531,314.7092 145.6041,312.5592 145.6041,309.9092 C145.6041,307.2582 147.7531,305.1082 150.4041,305.1082 C153.0551,305.1082 155.2041,307.2582 155.2041,309.9092" id="Fill-2126" fill="#CDD1DF"></path>
            <path d="M187.2041,309.9092 C187.2041,312.5592 185.0551,314.7092 182.4041,314.7092 C179.7531,314.7092 177.6041,312.5592 177.6041,309.9092 C177.6041,307.2582 179.7531,305.1082 182.4041,305.1082 C185.0551,305.1082 187.2041,307.2582 187.2041,309.9092" id="Fill-2128" fill="#CDD1DF"></path>
            <path d="M54.5439,388.7246 C24.5469,388.7246 0.1439,364.3226 0.1439,334.3256 L19.3439,334.3256 C19.3439,353.7346 35.1349,369.5256 54.5439,369.5256 L54.5439,388.7246 Z" id="Fill-2130" fill="#CDD1DF"></path>
            <path d="M550.6396,303.583 C550.6636,303.282 550.7296,302.993 550.7296,302.687 L550.7296,297.738 C545.3176,296.266 538.8716,293.763 533.1316,289.501 C526.3526,284.47 522.2816,276.089 519.9036,269.086 L517.1296,269.086 C510.9446,269.086 505.9306,274.101 505.9306,280.286 L505.9306,292.25 C512.9316,291.879 531.4886,292.23 550.6396,303.583" id="Fill-2132" fill="#CDD1DF"></path>
            <path d="M533.8003,288.6016 C539.3123,292.6936 545.4943,295.1326 550.7303,296.5846 L550.7303,280.2866 C550.7303,274.1006 545.7153,269.0856 539.5293,269.0856 L521.1293,269.0856 C523.4873,275.8776 527.4353,283.8776 533.8003,288.6016" id="Fill-2134" fill="#CDD1DF"></path>
            <path d="M536.5845,307.209 C530.6205,307.759 526.8915,311.255 524.8915,313.887 L539.5295,313.887 C542.8605,313.887 545.8185,312.404 547.8695,310.097 C545.0725,308.341 541.2095,306.781 536.5845,307.209" id="Fill-2136" fill="#CDD1DF"></path>
            <path d="M536.4814,306.0937 C541.5184,305.6247 545.6554,307.3137 548.6104,309.1987 C549.5344,307.9137 550.2014,306.4387 550.5144,304.8257 C531.3934,293.3217 512.7894,292.9927 505.9304,293.3667 L505.9304,302.6867 C505.9304,308.8717 510.9444,313.8867 517.1294,313.8867 L523.5174,313.8867 C525.5104,311.0347 529.6044,306.7267 536.4814,306.0937" id="Fill-2138" fill="#CDD1DF"></path>
            <polygon id="Fill-2140" fill="#CDD1DF" points="54.4038 157.9092 46.4038 165.9092 38.4038 157.9092 46.4038 149.9092"></polygon>
            <polygon id="Fill-2142" fill="#CDD1DF" points="493.1299 133.0312 485.1299 141.0312 477.1299 133.0312 485.1299 125.0312"></polygon>
            <path d="M455.208,582.3047 L474.709,669.8627 L569.431,669.8627 C569.431,669.8627 575.002,652.7487 562.267,637.6247 C549.531,622.5017 520.361,626.0837 520.361,626.0837 L510.926,582.3047 L455.208,582.3047 Z" id="Fill-2144" fill="#1D213A"></path>
            <path d="M213.8936,582.3047 L239.3646,669.8627 L148.6226,669.8627 C148.6226,669.8627 143.3166,656.8617 147.5616,644.1257 C151.8076,631.3907 174.3596,629.2677 174.3596,629.2677 L159.7676,582.3047 L213.8936,582.3047 Z" id="Fill-2146" fill="#1D213A"></path>
            <path d="M623.0483,208.0527 C623.0483,208.0527 626.2983,213.7897 624.1103,221.4507 C621.7673,229.6507 615.7853,233.9737 606.8833,233.5127 C594.9573,232.8937 590.8113,228.7147 590.8113,228.7147 L590.8113,208.0527 L623.0483,208.0527 Z" id="Fill-2148" fill="#1D213A"></path>
            <path d="M602.3096,233.8613 C602.0586,233.8613 601.8096,233.7423 601.6536,233.5183 C601.4006,233.1563 601.4896,232.6583 601.8516,232.4043 C613.8426,224.0393 608.7516,208.9553 608.5296,208.3173 C608.3846,207.9003 608.6036,207.4433 609.0206,207.2993 C609.4396,207.1483 609.8936,207.3723 610.0396,207.7893 C610.0986,207.9563 615.7626,224.6513 602.7676,233.7163 C602.6286,233.8143 602.4696,233.8613 602.3096,233.8613" id="Fill-2150" fill="#E8EAEF"></path>
            <path d="M346.5566,286.9971 C346.5566,286.9971 353.7206,320.0301 358.4966,346.6951 C358.4966,346.6951 409.0986,359.9061 453.2176,378.5341 C500.9766,398.6991 501.3746,417.5371 510.9266,450.5701 C520.4776,483.6031 542.7656,594.6431 542.7656,594.6431 L438.0946,594.6431 L411.7836,454.2351 C411.7836,454.2351 326.6576,435.8451 280.4906,417.5371 C280.4906,417.5371 247.9996,447.0201 206.0786,474.6141 L238.3036,594.6431 L135.6216,594.6431 C135.6216,594.6431 119.4996,532.5561 112.3516,492.1261 C105.1046,451.1331 107.3656,446.1921 134.2956,416.4761 C157.7636,390.5811 218.3066,342.6611 218.3066,342.6611 C218.3066,342.6611 226.1656,308.7681 237.7066,286.9971 L346.5566,286.9971 Z" id="Fill-2152" fill="#1D213A"></path>
            <path d="M217.4829,595.4424 L163.5999,595.4424 C163.1579,595.4424 162.7999,595.0844 162.7999,594.6424 C162.7999,594.2004 163.1579,593.8414 163.5999,593.8414 L217.4829,593.8414 C217.9249,593.8414 218.2829,594.2004 218.2829,594.6424 C218.2829,595.0844 217.9249,595.4424 217.4829,595.4424" id="Fill-2154" fill="#E8EAEF"></path>
            <path d="M513.5845,595.4424 L457.9555,595.4424 C457.5125,595.4424 457.1545,595.0844 457.1545,594.6424 C457.1545,594.2004 457.5125,593.8414 457.9555,593.8414 L513.5845,593.8414 C514.0265,593.8414 514.3845,594.2004 514.3845,594.6424 C514.3845,595.0844 514.0265,595.4424 513.5845,595.4424" id="Fill-2156" fill="#E8EAEF"></path>
            <path d="M362.1899,322.7021 C346.8149,240.2121 376.9229,174.1051 376.9229,174.1051 C376.9229,174.1051 343.1819,168.1371 321.6159,160.1711 C292.1649,149.2921 267.8219,140.7531 267.8219,140.7531 C267.8219,140.7531 231.1399,202.7691 217.6079,314.7371 C217.6079,314.7371 234.8329,332.6761 292.5809,333.3101 C337.6699,333.8061 362.1899,322.7021 362.1899,322.7021" id="Fill-2158" fill="#1D213A"></path>
            <path d="M363.0068,171.5801 C387.8718,176.6841 449.2378,184.3151 459.9838,184.3151 C470.7298,184.3151 484.8578,182.5241 519.0848,185.9071 C550.6758,189.0291 624.7938,199.0701 635.4968,200.1021 C646.5078,201.1641 646.6408,213.2361 635.8948,213.6341 C627.1358,213.9581 601.7678,210.8811 601.7678,210.8811 L605.6478,223.2191 C605.6478,223.2191 612.8308,223.5781 619.4888,228.3101 C626.0448,232.9701 622.9118,241.6871 614.3658,239.9981 C607.2058,238.5821 593.1168,237.8841 585.7488,235.5571 C580.0768,233.7661 572.7478,227.5631 572.7478,227.5631 C572.7478,227.5631 534.1428,233.2681 486.3838,237.7781 C438.6248,242.2891 343.6378,238.3091 343.6378,238.3091 C343.6378,238.3091 345.1088,220.7811 350.7248,201.6401 C357.1698,179.6721 363.0068,171.5801 363.0068,171.5801" id="Fill-2160" fill="#1D213A"></path>
            <path d="M619.4893,229.1113 C619.3283,229.1113 619.1663,229.0623 619.0253,228.9633 C612.6313,224.4193 605.6763,224.0213 605.6063,224.0173 C605.2723,224.0023 604.9853,223.7783 604.8853,223.4593 L601.0053,211.1223 C600.9223,210.8623 600.9783,210.5803 601.1523,210.3703 C601.3253,210.1613 601.5813,210.0453 601.8643,210.0883 C601.9883,210.1013 614.3813,211.5993 624.7033,212.3823 C625.1443,212.4173 625.4733,212.8013 625.4413,213.2423 C625.4063,213.6823 625.0253,214.0003 624.5813,213.9793 C616.1313,213.3383 606.3013,212.2203 602.9023,211.8223 L606.2483,222.4653 C608.1063,222.6533 614.1813,223.5573 619.9533,227.6593 C620.3133,227.9143 620.3973,228.4143 620.1413,228.7753 C619.9853,228.9943 619.7393,229.1113 619.4893,229.1113" id="Fill-2162" fill="#E8EAEF"></path>
            <path d="M284.9414,146.8662 L276.3414,54.9882 C276.3414,54.9882 290.7014,55.3502 307.3844,53.6622 C332.4844,51.1212 359.7864,47.8912 359.7864,47.8912 C359.7864,47.8912 366.8174,58.1732 373.4504,59.2332 C380.0844,60.2952 395.2074,60.0302 398.9214,58.1732 C402.6364,56.3152 402.3714,49.4172 402.3714,49.4172 C402.3714,49.4172 415.4394,49.9902 426.0514,49.8812 C435.7024,49.7812 437.0954,39.1362 427.3334,37.0782 C417.2624,34.9562 403.6974,34.2932 403.6974,34.2932 C403.6974,34.2932 407.2154,25.8812 402.1404,22.1992 C402.1404,22.1992 405.8534,16.2512 397.9934,11.0772 C390.5224,6.1592 379.9844,7.5952 378.3924,12.7682 C378.3924,12.7682 372.4554,10.3472 359.1894,14.0622 C359.1894,14.0622 288.0154,1.6582 256.7074,0.3312 C225.3984,-0.9948 220.0914,2.9842 218.5004,60.8262 C216.5314,132.3602 241.8144,225.5022 241.8144,225.5022 L284.9414,146.8662 Z" id="Fill-2164" fill="#1D213A"></path>
            <path d="M293.3164,149.9424 L316.6684,111.4074 L360.8234,133.4814 L349.0264,170.2424 C349.0264,170.2424 338.6984,177.8694 318.6364,171.0914 C299.0024,164.4594 293.3164,149.9424 293.3164,149.9424" id="Fill-2166" fill="#1D213A"></path>
            <path d="M309.7339,89.9521 C309.7339,89.9521 305.4139,126.3801 324.0099,141.2571 C342.1359,155.7581 370.9799,151.7711 378.2309,131.9291 C385.4809,112.0851 382.6839,68.8441 354.3389,61.5131 C325.5719,54.0711 295.2989,73.6591 295.1869,79.4591 C294.9909,89.5711 309.7339,89.9521 309.7339,89.9521" id="Fill-2168" fill="#1D213A"></path>
            <path d="M349.0596,150.7559 C344.5066,150.7559 339.9156,149.9869 335.5216,148.4719 C335.1046,148.3279 334.8836,147.8719 335.0266,147.4549 C335.1706,147.0369 335.6286,146.8159 336.0436,146.9589 C342.2196,149.0909 348.8016,149.6909 355.0726,148.6819 C355.5016,148.6119 355.9176,148.9089 355.9896,149.3459 C356.0586,149.7809 355.7616,150.1929 355.3256,150.2629 C353.2616,150.5919 351.1646,150.7559 349.0596,150.7559" id="Fill-2170" fill="#E8EAEF"></path>
            <path d="M381.499,114.2881 C381.929,106.3251 381.222,97.6181 379.001,89.5641 C363.607,86.6001 338.406,90.7791 338.406,102.7181 C338.406,114.8551 360.688,117.2371 381.499,114.2881" id="Fill-2172" fill="#FFC4A3"></path>
            <path d="M402.3721,50.2168 C402.3341,50.2168 402.2951,50.2138 402.2581,50.2088 C401.8211,50.1468 401.5161,49.7418 401.5791,49.3048 C402.2461,44.6138 401.6061,38.2968 399.0961,35.2988 C398.2141,34.2448 397.1641,33.6908 395.9751,33.6488 C394.1281,33.5838 392.4411,34.3178 391.1381,35.7788 C389.1661,37.9898 388.2831,41.6248 388.8341,45.2638 C388.9021,45.7008 388.6001,46.1098 388.1641,46.1748 C387.7411,46.2418 387.3191,45.9428 387.2531,45.5048 C386.6221,41.3438 387.6281,37.3108 389.9441,34.7138 C391.5751,32.8858 393.7091,31.9668 396.0321,32.0488 C397.6941,32.1078 399.1381,32.8568 400.3221,34.2708 C403.2641,37.7838 403.8561,44.6438 403.1631,49.5298 C403.1061,49.9298 402.7631,50.2168 402.3721,50.2168" id="Fill-2174" fill="#E8EAEF"></path>
            <path d="M388.2207,40.8066 C387.9347,40.8066 387.6587,40.6516 387.5137,40.3806 C380.8447,27.8386 367.7267,28.4656 367.5947,28.4716 C367.1257,28.5266 366.7757,28.1606 366.7487,27.7206 C366.7217,27.2796 367.0597,26.9006 367.5007,26.8746 C367.6587,26.8616 381.7817,26.1936 388.9267,39.6306 C389.1347,40.0206 388.9867,40.5046 388.5957,40.7126 C388.4767,40.7766 388.3487,40.8066 388.2207,40.8066" id="Fill-2176" fill="#E8EAEF"></path>
            <path d="M380.1909,32.0391 C380.0249,32.0391 379.8599,31.9891 379.7169,31.8831 C378.0029,30.6221 376.8209,27.9351 376.9049,25.4921 C376.9789,23.3471 377.9909,21.5501 379.7549,20.4331 C383.8459,17.8361 393.6909,17.4971 402.4709,21.4721 C402.8739,21.6531 403.0519,22.1281 402.8689,22.5291 C402.6879,22.9331 402.2099,23.1091 401.8109,22.9281 C393.7799,19.2941 384.3629,19.4001 380.6109,21.7831 C378.9409,22.8441 378.5429,24.4161 378.5039,25.5471 C378.4279,27.7371 379.5609,29.7831 380.6649,30.5961 C381.0209,30.8561 381.0969,31.3571 380.8349,31.7131 C380.6779,31.9271 380.4359,32.0391 380.1909,32.0391" id="Fill-2178" fill="#E8EAEF"></path>
            <path d="M380.1831,21.9082 C379.9741,21.9082 379.7661,21.8262 379.6101,21.6662 C379.4611,21.5122 376.0171,17.8832 377.6271,12.5372 C377.7531,12.1152 378.1921,11.8772 378.6231,12.0032 C379.0451,12.1302 379.2861,12.5762 379.1581,13.0002 C377.8171,17.4532 380.7281,20.5202 380.7561,20.5502 C381.0641,20.8672 381.0571,21.3752 380.7411,21.6812 C380.5841,21.8332 380.3831,21.9082 380.1831,21.9082" id="Fill-2180" fill="#E8EAEF"></path>
            <path d="M354.4277,106.793 C354.4277,107.838 355.2747,108.685 356.3197,108.685 C357.3647,108.685 358.2117,107.838 358.2117,106.793 C358.2117,105.748 357.3647,104.9 356.3197,104.9 C355.2747,104.9 354.4277,105.748 354.4277,106.793" id="Fill-2182" fill="#1D213A"></path>
            <path d="M375.7656,105.8232 C375.7656,106.8692 376.6126,107.7162 377.6576,107.7162 C378.7036,107.7162 379.5506,106.8692 379.5506,105.8232 C379.5506,104.7782 378.7036,103.9312 377.6576,103.9312 C376.6126,103.9312 375.7656,104.7782 375.7656,105.8232" id="Fill-2184" fill="#1D213A"></path>
            <path d="M347.7905,100.6299 C348.7345,101.8109 351.3255,101.1059 354.0705,100.6849 C356.7935,100.1409 359.4685,99.9179 359.9525,98.4849 C360.4855,97.1009 357.3635,94.4529 353.1025,95.1969 C348.8445,95.9549 346.8155,99.5109 347.7905,100.6299" id="Fill-2186" fill="#1D213A"></path>
            <path d="M373.3477,97.8662 C373.7447,99.1052 375.6127,99.0462 377.5277,99.2702 C379.4517,99.3822 381.2807,99.7642 381.8867,98.6132 C382.5157,97.5162 380.9557,94.5242 377.9657,94.2572 C374.9747,94.0022 372.9187,96.6772 373.3477,97.8662" id="Fill-2188" fill="#1D213A"></path>
            <path d="M280.4907,418.3379 C280.2757,418.3379 280.0607,418.2519 279.9037,418.0809 C279.6037,417.7559 279.6237,417.2499 279.9477,416.9499 C297.5507,400.6639 311.3797,384.1699 311.5177,384.0059 C311.8027,383.6689 312.3097,383.6229 312.6437,383.9039 C312.9827,384.1879 313.0287,384.6919 312.7457,385.0309 C312.6067,385.1969 298.7117,401.7709 281.0347,418.1249 C280.8797,418.2679 280.6847,418.3379 280.4907,418.3379" id="Fill-2190" fill="#E8EAEF"></path>
            <path d="M206.0786,475.4141 C205.7236,475.4141 205.4006,475.1781 205.3056,474.8181 L201.1146,459.0141 C201.0016,458.5881 201.2546,458.1501 201.6826,458.0361 C202.1116,457.9191 202.5476,458.1771 202.6616,458.6041 L206.8516,474.4091 C206.9646,474.8361 206.7116,475.2731 206.2836,475.3881 C206.2146,475.4061 206.1456,475.4141 206.0786,475.4141" id="Fill-2192" fill="#E8EAEF"></path>
            <path d="M371.0098,113.6191 C370.6378,113.6191 370.3028,113.3561 370.2268,112.9761 L369.1268,107.5181 C369.0398,107.0861 369.3208,106.6641 369.7538,106.5761 C370.1798,106.4871 370.6078,106.7701 370.6958,107.2031 L371.7958,112.6611 C371.8838,113.0941 371.6018,113.5151 371.1688,113.6031 C371.1158,113.6141 371.0628,113.6191 371.0098,113.6191" id="Fill-2194" fill="#F99175"></path>
            <path d="M195.3862,633.9277 C195.2562,633.9277 195.1252,633.8967 195.0032,633.8297 C194.9242,633.7857 186.8092,629.4427 174.4002,630.0657 C173.8872,630.1127 173.5832,629.7477 173.5612,629.3077 C173.5372,628.8657 173.8782,628.4907 174.3192,628.4687 C187.2202,627.8017 195.4282,632.2397 195.7722,632.4267 C196.1592,632.6387 196.3022,633.1247 196.0892,633.5127 C195.9442,633.7787 195.6692,633.9277 195.3862,633.9277" id="Fill-2196" fill="#E8EAEF"></path>
        </g>
    </g>
</svg>