<?xml version="1.0" encoding="UTF-8"?>
<svg width="454px" height="448px" viewBox="0 0 454 448" version="1.1" xmlns="http://www.w3.org/2000/svg" xmlns:xlink="http://www.w3.org/1999/xlink">
    <title>Illustration 2 0</title>
    <g id="🤩-Illustrations" stroke="none" stroke-width="1" fill="none" fill-rule="evenodd">
        <g id="Illustration-2">
            <path d="M154.1943,48.2393 C151.2963,48.2393 149.7693,46.7143 148.5413,45.4883 C147.3963,44.3433 146.4893,43.4393 144.5833,43.4393 C142.6773,43.4393 141.7723,44.3433 140.6273,45.4883 C139.4013,46.7143 137.8723,48.2393 134.9743,48.2393 C132.0773,48.2393 130.5523,46.7133 129.3273,45.4873 C128.1833,44.3433 127.2803,43.4393 125.3793,43.4393 C123.4773,43.4393 122.5743,44.3433 121.4303,45.4873 C120.2053,46.7133 118.6803,48.2393 115.7853,48.2393 C112.8893,48.2393 111.3663,46.7133 110.1413,45.4873 C108.9973,44.3433 108.0943,43.4393 106.1943,43.4393 C105.5323,43.4393 104.9943,42.9013 104.9943,42.2393 C104.9943,41.5763 105.5323,41.0393 106.1943,41.0393 C109.0903,41.0393 110.6133,42.5653 111.8383,43.7903 C112.9823,44.9353 113.8853,45.8393 115.7853,45.8393 C117.6863,45.8393 118.5903,44.9353 119.7333,43.7903 C120.9583,42.5653 122.4833,41.0393 125.3793,41.0393 C128.2743,41.0393 129.7993,42.5653 131.0243,43.7903 C132.1683,44.9353 133.0723,45.8393 134.9743,45.8393 C136.8803,45.8393 137.7853,44.9353 138.9303,43.7903 C140.1573,42.5643 141.6853,41.0393 144.5833,41.0393 C147.4833,41.0393 149.0103,42.5653 150.2383,43.7903 C151.3833,44.9353 152.2883,45.8393 154.1943,45.8393 C154.8573,45.8393 155.3943,46.3763 155.3943,47.0393 C155.3943,47.7013 154.8573,48.2393 154.1943,48.2393" id="Fill-178" fill="#CDD1DF"></path>
            <path d="M154.1943,61.0391 C151.2963,61.0391 149.7693,59.5141 148.5413,58.2881 C147.3963,57.1431 146.4893,56.2391 144.5833,56.2391 C142.6773,56.2391 141.7723,57.1431 140.6273,58.2881 C139.4013,59.5141 137.8723,61.0391 134.9743,61.0391 C132.0773,61.0391 130.5523,59.5131 129.3273,58.2871 C128.1833,57.1431 127.2803,56.2391 125.3793,56.2391 C123.4773,56.2391 122.5743,57.1431 121.4303,58.2881 C120.2053,59.5131 118.6803,61.0391 115.7853,61.0391 C112.8893,61.0391 111.3663,59.5131 110.1413,58.2881 C108.9973,57.1431 108.0943,56.2391 106.1943,56.2391 C105.5323,56.2391 104.9943,55.7021 104.9943,55.0391 C104.9943,54.3761 105.5323,53.8391 106.1943,53.8391 C109.0903,53.8391 110.6133,55.3651 111.8383,56.5911 C112.9823,57.7351 113.8853,58.6391 115.7853,58.6391 C117.6863,58.6391 118.5903,57.7351 119.7333,56.5911 C120.9583,55.3651 122.4833,53.8391 125.3793,53.8391 C128.2743,53.8391 129.7993,55.3651 131.0243,56.5911 C132.1683,57.7351 133.0723,58.6391 134.9743,58.6391 C136.8803,58.6391 137.7853,57.7351 138.9303,56.5901 C140.1573,55.3641 141.6853,53.8391 144.5833,53.8391 C147.4833,53.8391 149.0103,55.3651 150.2383,56.5911 C151.3833,57.7351 152.2883,58.6391 154.1943,58.6391 C154.8573,58.6391 155.3943,59.1771 155.3943,59.8391 C155.3943,60.5011 154.8573,61.0391 154.1943,61.0391" id="Fill-180" fill="#CDD1DF"></path>
            <path d="M154.1943,73.8389 C151.2963,73.8389 149.7693,72.3139 148.5413,71.0889 C147.3963,69.9439 146.4893,69.0389 144.5833,69.0389 C142.6773,69.0389 141.7723,69.9429 140.6273,71.0889 C139.4013,72.3139 137.8723,73.8389 134.9743,73.8389 C132.0773,73.8389 130.5523,72.3139 129.3273,71.0869 C128.1833,69.9429 127.2803,69.0389 125.3793,69.0389 C123.4773,69.0389 122.5743,69.9429 121.4303,71.0879 C120.2053,72.3139 118.6803,73.8389 115.7853,73.8389 C112.8893,73.8389 111.3663,72.3139 110.1413,71.0879 C108.9973,69.9429 108.0943,69.0389 106.1943,69.0389 C105.5323,69.0389 104.9943,68.5019 104.9943,67.8389 C104.9943,67.1769 105.5323,66.6389 106.1943,66.6389 C109.0903,66.6389 110.6133,68.1649 111.8383,69.3909 C112.9823,70.5349 113.8853,71.4389 115.7853,71.4389 C117.6863,71.4389 118.5903,70.5349 119.7333,69.3909 C120.9583,68.1649 122.4833,66.6389 125.3793,66.6389 C128.2743,66.6389 129.7993,68.1649 131.0243,69.3909 C132.1683,70.5349 133.0723,71.4389 134.9743,71.4389 C136.8803,71.4389 137.7853,70.5349 138.9303,69.3899 C140.1573,68.1639 141.6853,66.6389 144.5833,66.6389 C147.4833,66.6389 149.0103,68.1649 150.2383,69.3909 C151.3833,70.5349 152.2883,71.4389 154.1943,71.4389 C154.8573,71.4389 155.3943,71.9769 155.3943,72.6389 C155.3943,73.3019 154.8573,73.8389 154.1943,73.8389" id="Fill-182" fill="#CDD1DF"></path>
            <path d="M154.1943,86.6392 C151.2963,86.6392 149.7693,85.1142 148.5413,83.8882 C147.3963,82.7432 146.4893,81.8392 144.5833,81.8392 C142.6773,81.8392 141.7723,82.7432 140.6273,83.8882 C139.4013,85.1142 137.8723,86.6392 134.9743,86.6392 C132.0773,86.6392 130.5523,85.1132 129.3273,83.8872 C128.1833,82.7432 127.2803,81.8392 125.3793,81.8392 C123.4773,81.8392 122.5743,82.7432 121.4303,83.8882 C120.2053,85.1132 118.6803,86.6392 115.7853,86.6392 C112.8893,86.6392 111.3663,85.1132 110.1413,83.8882 C108.9973,82.7432 108.0943,81.8392 106.1943,81.8392 C105.5323,81.8392 104.9943,81.3022 104.9943,80.6392 C104.9943,79.9762 105.5323,79.4392 106.1943,79.4392 C109.0903,79.4392 110.6133,80.9652 111.8383,82.1902 C112.9823,83.3352 113.8853,84.2392 115.7853,84.2392 C117.6863,84.2392 118.5903,83.3352 119.7333,82.1902 C120.9583,80.9652 122.4833,79.4392 125.3793,79.4392 C128.2743,79.4392 129.7993,80.9652 131.0243,82.1902 C132.1683,83.3352 133.0723,84.2392 134.9743,84.2392 C136.8803,84.2392 137.7853,83.3352 138.9303,82.1902 C140.1573,80.9642 141.6853,79.4392 144.5833,79.4392 C147.4833,79.4392 149.0103,80.9652 150.2383,82.1902 C151.3833,83.3352 152.2883,84.2392 154.1943,84.2392 C154.8573,84.2392 155.3943,84.7762 155.3943,85.4392 C155.3943,86.1012 154.8573,86.6392 154.1943,86.6392" id="Fill-184" fill="#CDD1DF"></path>
            <path d="M346.333,123.2583 C346.333,125.0253 344.9,126.4583 343.133,126.4583 C341.366,126.4583 339.933,125.0253 339.933,123.2583 C339.933,121.4903 341.366,120.0583 343.133,120.0583 C344.9,120.0583 346.333,121.4903 346.333,123.2583" id="Fill-186" fill="#CDD1DF"></path>
            <path d="M379.9331,123.2583 C379.9331,125.9093 377.7841,128.0583 375.1331,128.0583 C372.4821,128.0583 370.3331,125.9093 370.3331,123.2583 C370.3331,120.6073 372.4821,118.4583 375.1331,118.4583 C377.7841,118.4583 379.9331,120.6073 379.9331,123.2583" id="Fill-188" fill="#CDD1DF"></path>
            <path d="M411.9331,123.2583 C411.9331,125.9093 409.7841,128.0583 407.1331,128.0583 C404.4821,128.0583 402.3331,125.9093 402.3331,123.2583 C402.3331,120.6073 404.4821,118.4583 407.1331,118.4583 C409.7841,118.4583 411.9331,120.6073 411.9331,123.2583" id="Fill-190" fill="#CDD1DF"></path>
            <path d="M443.9331,123.2583 C443.9331,125.9093 441.7841,128.0583 439.1331,128.0583 C436.4821,128.0583 434.3331,125.9093 434.3331,123.2583 C434.3331,120.6073 436.4821,118.4583 439.1331,118.4583 C441.7841,118.4583 443.9331,120.6073 443.9331,123.2583" id="Fill-192" fill="#CDD1DF"></path>
            <path d="M346.333,155.2583 C346.333,157.0253 344.9,158.4583 343.133,158.4583 C341.366,158.4583 339.933,157.0253 339.933,155.2583 C339.933,153.4903 341.366,152.0583 343.133,152.0583 C344.9,152.0583 346.333,153.4903 346.333,155.2583" id="Fill-194" fill="#CDD1DF"></path>
            <path d="M379.9331,155.2583 C379.9331,157.9093 377.7841,160.0583 375.1331,160.0583 C372.4821,160.0583 370.3331,157.9093 370.3331,155.2583 C370.3331,152.6073 372.4821,150.4583 375.1331,150.4583 C377.7841,150.4583 379.9331,152.6073 379.9331,155.2583" id="Fill-196" fill="#CDD1DF"></path>
            <path d="M411.9331,155.2583 C411.9331,157.9093 409.7841,160.0583 407.1331,160.0583 C404.4821,160.0583 402.3331,157.9093 402.3331,155.2583 C402.3331,152.6073 404.4821,150.4583 407.1331,150.4583 C409.7841,150.4583 411.9331,152.6073 411.9331,155.2583" id="Fill-198" fill="#CDD1DF"></path>
            <path d="M443.9331,155.2583 C443.9331,157.9093 441.7841,160.0583 439.1331,160.0583 C436.4821,160.0583 434.3331,157.9093 434.3331,155.2583 C434.3331,152.6073 436.4821,150.4583 439.1331,150.4583 C441.7841,150.4583 443.9331,152.6073 443.9331,155.2583" id="Fill-200" fill="#CDD1DF"></path>
            <path d="M346.333,187.2583 C346.333,189.0253 344.9,190.4583 343.133,190.4583 C341.366,190.4583 339.933,189.0253 339.933,187.2583 C339.933,185.4903 341.366,184.0583 343.133,184.0583 C344.9,184.0583 346.333,185.4903 346.333,187.2583" id="Fill-202" fill="#CDD1DF"></path>
            <path d="M378.333,187.2583 C378.333,189.0253 376.9,190.4583 375.133,190.4583 C373.366,190.4583 371.933,189.0253 371.933,187.2583 C371.933,185.4903 373.366,184.0583 375.133,184.0583 C376.9,184.0583 378.333,185.4903 378.333,187.2583" id="Fill-204" fill="#CDD1DF"></path>
            <path d="M411.9331,187.2583 C411.9331,189.9093 409.7841,192.0583 407.1331,192.0583 C404.4821,192.0583 402.3331,189.9093 402.3331,187.2583 C402.3331,184.6073 404.4821,182.4583 407.1331,182.4583 C409.7841,182.4583 411.9331,184.6073 411.9331,187.2583" id="Fill-206" fill="#CDD1DF"></path>
            <path d="M443.9331,187.2583 C443.9331,189.9093 441.7841,192.0583 439.1331,192.0583 C436.4821,192.0583 434.3331,189.9093 434.3331,187.2583 C434.3331,184.6073 436.4821,182.4583 439.1331,182.4583 C441.7841,182.4583 443.9331,184.6073 443.9331,187.2583" id="Fill-208" fill="#CDD1DF"></path>
            <path d="M346.333,219.2583 C346.333,221.0253 344.9,222.4583 343.133,222.4583 C341.366,222.4583 339.933,221.0253 339.933,219.2583 C339.933,217.4903 341.366,216.0583 343.133,216.0583 C344.9,216.0583 346.333,217.4903 346.333,219.2583" id="Fill-210" fill="#CDD1DF"></path>
            <path d="M378.333,219.2583 C378.333,221.0253 376.9,222.4583 375.133,222.4583 C373.366,222.4583 371.933,221.0253 371.933,219.2583 C371.933,217.4903 373.366,216.0583 375.133,216.0583 C376.9,216.0583 378.333,217.4903 378.333,219.2583" id="Fill-212" fill="#CDD1DF"></path>
            <path d="M410.333,219.2583 C410.333,221.0253 408.9,222.4583 407.133,222.4583 C405.366,222.4583 403.933,221.0253 403.933,219.2583 C403.933,217.4903 405.366,216.0583 407.133,216.0583 C408.9,216.0583 410.333,217.4903 410.333,219.2583" id="Fill-214" fill="#CDD1DF"></path>
            <path d="M442.333,219.2583 C442.333,221.0253 440.9,222.4583 439.133,222.4583 C437.366,222.4583 435.933,221.0253 435.933,219.2583 C435.933,217.4903 437.366,216.0583 439.133,216.0583 C440.9,216.0583 442.333,217.4903 442.333,219.2583" id="Fill-216" fill="#CDD1DF"></path>
            <path d="M399.1338,375.4688 L399.1338,356.2688 C418.5428,356.2688 434.3338,340.4778 434.3338,321.0688 L453.5338,321.0688 C453.5338,351.0648 429.1308,375.4688 399.1338,375.4688" id="Fill-218" fill="#CDD1DF"></path>
            <path d="M74.2188,235.834 C76.3018,237.365 79.2908,236.968 82.7528,236.509 C88.1318,235.797 94.5728,234.949 100.8848,240.518 L100.8848,237.92 C100.8848,231.735 95.8698,226.72 89.6848,226.72 L73.3948,226.72 C72.0988,229.834 71.3378,233.714 74.2188,235.834" id="Fill-220" fill="#CDD1DF"></path>
            <path d="M82.8999,237.6196 C79.1979,238.1106 75.9949,238.5326 73.5559,236.7366 C70.2109,234.2756 70.8429,230.1026 72.1699,226.7206 L67.2849,226.7206 C61.0989,226.7206 56.0849,231.7346 56.0849,237.9206 L56.0849,250.9076 C61.5259,249.0086 73.9489,246.0656 86.0309,252.9996 C93.0019,256.9996 95.9479,263.3926 97.1909,268.5806 C99.4439,266.5326 100.8849,263.6056 100.8849,260.3206 L100.8849,242.0856 C94.6619,236.0916 88.2289,236.9146 82.8999,237.6196" id="Fill-222" fill="#CDD1DF"></path>
            <path d="M71.936,257.8682 C66.677,254.7642 60.842,255.2612 56.084,256.6702 L56.084,260.3202 C56.084,266.5062 61.099,271.5202 67.285,271.5202 L79.148,271.5202 C79.019,266.7212 77.49,261.1442 71.936,257.8682" id="Fill-224" fill="#CDD1DF"></path>
            <path d="M85.4751,253.9712 C73.4481,247.0672 61.0971,250.2762 56.0841,252.0962 L56.0841,255.5212 C61.0221,254.1162 67.0401,253.6832 72.5051,256.9022 C78.5041,260.4402 80.1331,266.4192 80.2631,271.5202 L89.6841,271.5202 C92.1371,271.5202 94.3871,270.7092 96.2321,269.3722 C95.1201,264.3262 92.3471,257.9152 85.4751,253.9712" id="Fill-226" fill="#CDD1DF"></path>
            <polygon id="Fill-228" fill="#CDD1DF" points="16.4663 310.415 8.4663 318.415 0.4663 310.415 8.4663 302.415"></polygon>
            <polygon id="Fill-230" fill="#CDD1DF" points="415.1333 68.2544 407.1333 76.2544 399.1333 68.2544 407.1333 60.2544"></polygon>
            <path d="M65.1309,24.4282 C65.1309,24.4282 56.0829,15.4862 52.4109,9.4762 C48.1149,2.4432 54.1899,-2.3218 59.1269,1.1742 C63.2739,4.1102 77.8049,16.5762 87.4409,31.4882 C97.0759,46.3992 131.8179,116.2322 131.8179,116.2322 L141.2949,118.8612 L150.4709,125.8012 L144.3999,179.6962 C91.5849,158.1632 90.7099,156.5422 85.5479,140.3682 C80.3859,124.1952 64.8669,71.4292 61.2539,57.5782 L65.1309,24.4282 Z" id="Fill-232" fill="#FFC4A3"></path>
            <path d="M61.5454,19.3579 C61.5454,19.3579 56.2684,17.2059 53.5304,21.3609 C51.2224,24.8639 53.7164,28.2189 53.7164,28.2189 C53.7164,28.2189 49.8914,28.2369 48.9214,32.8309 C47.9534,37.4239 50.7124,43.6629 54.7064,45.2099 C58.7004,46.7559 61.9294,43.0969 60.0834,38.4989 L70.0624,31.4019 L61.5454,19.3579 Z" id="Fill-234" fill="#FFC4A3"></path>
            <path d="M365.0845,218.6992 C365.0845,218.6992 362.5615,236.6062 343.2905,247.3882 C324.0205,258.1712 301.996379,257.0242 301.996379,257.0242 C301.996379,257.0242 301.7675,230.0602 321.2675,218.0772 C340.7675,206.0952 365.0845,218.6992 365.0845,218.6992" id="Fill-236" fill="#1D213A"></path>
            <path d="M227.6675,80.48 C227.6675,80.48 222.3055,71.423 224.2265,61.209 C226.4055,49.624 239.7115,45.954 248.0855,51.803 L227.6675,80.48 Z" id="Fill-238" fill="#1D213A"></path>
            <path d="M236.8506,50.9258 C234.9006,50.9258 232.9346,51.2968 231.0836,52.0518 C226.6426,53.8658 223.5806,57.6468 222.6806,62.4268 C221.2196,70.1928 224.1366,77.3428 225.4396,80.0238 L244.6216,53.0868 C242.2996,51.6588 239.5896,50.9258 236.8506,50.9258 M225.3346,82.3498 C225.3246,82.3498 225.3136,82.3498 225.3006,82.3488 C225.0306,82.3388 224.7856,82.1908 224.6456,81.9578 C224.4206,81.5768 219.1536,72.5228 221.1086,62.1318 C222.1106,56.8068 225.5256,52.5928 230.4786,50.5718 C235.6846,48.4468 241.7116,49.0748 246.2116,52.2188 C246.3866,52.3408 246.5056,52.5278 246.5426,52.7378 C246.5796,52.9478 246.5286,53.1638 246.4056,53.3388 L225.9866,82.0138 C225.8366,82.2248 225.5926,82.3498 225.3346,82.3498" id="Fill-240" fill="#1D213A"></path>
            <path d="M242.170598,55.0322 C242.170598,55.0322 241.9589,47.6932 252.7669,44.6832 C266.3589,40.8982 283.0109,50.4842 288.3959,64.7692 C294.2699,80.3492 286.1919,92.1062 298.2119,109.3282 C309.7389,125.8452 304.3429,144.6002 288.9209,149.5902 C271.2129,155.3192 255.4259,143.3382 255.4259,143.3382 L242.170598,55.0322 Z" id="Fill-242" fill="#1D213A"></path>
            <path d="M234.3779,99.2915 C234.3779,99.2915 215.1709,96.7085 209.8509,110.8765 C204.7279,124.5195 215.6239,139.0945 232.9159,137.0375 L234.3779,99.2915 Z" id="Fill-244" fill="#1D213A"></path>
            <path d="M209.4712,130.2852 C209.2202,130.2852 208.9702,130.1652 208.8152,129.9422 C205.0512,124.5392 204.2442,117.8382 206.6042,111.5582 C212.0872,96.9642 231.7902,99.4332 231.9872,99.4622 C232.4242,99.5212 232.7322,99.9232 232.6732,100.3612 C232.6132,100.7972 232.2132,101.1062 231.7742,101.0482 C231.5932,101.0242 213.1372,98.7192 208.1002,112.1212 C205.9302,117.9012 206.6692,124.0632 210.1272,129.0282 C210.3802,129.3902 210.2912,129.8892 209.9292,130.1412 C209.7902,130.2382 209.6292,130.2852 209.4712,130.2852" id="Fill-246" fill="#1D213A"></path>
            <path d="M62.4663,345.8975 C73.0453,328.3705 135.7553,313.5835 168.3313,308.9945 C168.3313,308.9945 181.9643,273.5415 193.6643,256.3355 L259.4283,256.3355 L259.4283,375.0175 L62.4663,375.0175 L62.4663,345.8975 Z" id="Fill-248" fill="#1D213A"></path>
            <path d="M379.46,278.6768 C358.088,233.6238 336.982,209.4218 336.982,209.4218 C336.982,209.4218 308.42,211.7158 302.397,240.2948 L323.562,278.6768 L379.46,278.6768 Z" id="Fill-250" fill="#FFC4A3"></path>
            <path d="M350.5693,227.6987 C342.4263,215.6777 336.9823,209.4217 336.9823,209.4217 C336.9823,209.4217 308.4203,211.7157 302.3973,240.2947 L307.4653,249.4857 C323.1143,224.2847 350.4543,227.6837 350.5693,227.6987" id="Fill-252" fill="#F99175"></path>
            <path d="M244.7178,146.9067 C219.5808,139.1647 202.6508,135.3407 202.6508,135.3407 C202.6508,135.3407 187.2918,210.2237 154.7108,268.4817 C154.7108,268.4817 169.6398,288.4567 218.0318,297.6297 C265.4488,306.6177 301.9968,293.7297 301.9968,293.7297 C301.9968,293.7297 287.3148,233.3947 295.8908,164.1127 C295.8908,164.1127 268.9768,154.3797 244.7178,146.9067" id="Fill-254" fill="#D3D6E2"></path>
            <path d="M295.8911,164.1128 C308.1911,168.7008 333.8851,186.1098 365.0841,218.6988 C365.0841,218.6988 342.7741,212.4608 324.4791,224.6768 C305.3021,237.4818 301.9961,257.0238 301.9961,257.0238 C301.9961,257.0238 288.2321,237.0658 284.1231,209.6318 C280.1821,183.3138 295.8911,164.1128 295.8911,164.1128" id="Fill-256" fill="#D3D6E2"></path>
            <path d="M301.9961,257.8242 C301.7431,257.8242 301.4931,257.7032 301.3381,257.4782 C301.1991,257.2772 287.4211,237.0522 283.3321,209.7502 C282.7681,205.9892 282.5741,202.1492 282.7551,198.3372 C282.7771,197.8952 283.1731,197.5582 283.5911,197.5752 C284.0341,197.5962 284.3741,197.9702 284.3521,198.4112 C284.1771,202.1202 284.3661,205.8552 284.9131,209.5122 C288.9461,236.4332 302.5181,256.3722 302.6551,256.5702 C302.9051,256.9332 302.8131,257.4322 302.4511,257.6822 C302.3111,257.7782 302.1541,257.8242 301.9961,257.8242" id="Fill-258" fill="#1D213A"></path>
            <path d="M281.6763,216.4185 C300.6203,239.3595 325.8553,304.5125 325.8553,356.3585 C325.8553,408.2055 304.4773,427.3435 249.7843,427.3435 L249.7843,216.4185 L281.6763,216.4185" id="Fill-260" fill="#1D213A"></path>
            <path d="M123.8213,137.2324 C118.4723,151.9684 122.0513,170.3964 122.0573,170.4254 C128.2403,173.0704 135.5823,176.1014 144.4003,179.6954 L150.4713,125.8014 L141.2943,118.8614 C141.2943,118.8614 129.1743,122.4854 123.8213,137.2324" id="Fill-262" fill="#F99175"></path>
            <path d="M202.6509,135.3403 C184.8249,130.3893 141.2949,118.8613 141.2949,118.8613 C141.2949,118.8613 129.5949,127.8083 125.6369,149.8323 C121.6439,172.0573 131.8319,189.5773 131.8319,189.5773 L195.3209,193.3623 L202.6509,135.3403 Z" id="Fill-264" fill="#D3D6E2"></path>
            <path d="M186.8525,193.6577 C186.7695,193.6577 186.6855,193.6457 186.6025,193.6177 C186.1835,193.4797 185.9545,193.0287 186.0925,192.6077 C189.8115,181.2837 193.2665,169.6257 196.3585,157.9587 C196.4725,157.5327 196.9075,157.2747 197.3365,157.3897 C197.7645,157.5027 198.0185,157.9417 197.9055,158.3677 C194.8035,170.0657 191.3415,181.7527 187.6115,193.1077 C187.5025,193.4447 187.1885,193.6577 186.8525,193.6577" id="Fill-266" fill="#1D213A"></path>
            <path d="M275.6509,99.6519 L270.1829,155.1659 C270.1829,155.1659 246.9979,170.0009 231.8799,165.0649 C224.3589,162.6089 221.8109,140.2399 221.8109,140.2399 L238.9089,91.4989 L275.6509,99.6519 Z" id="Fill-268" fill="#FFC4A3"></path>
            <path d="M225.9858,128.3374 C234.6528,128.4264 241.6918,125.4294 241.6918,125.4294 L250.5468,94.0814 L238.9088,91.4994 L225.9858,128.3374 Z" id="Fill-270" fill="#F99175"></path>
            <path d="M278.1567,68.7061 C278.1567,68.7061 254.1517,52.2611 238.2837,59.1061 C223.5557,65.4601 210.2037,113.0741 231.8797,122.7411 C249.4277,130.5681 265.4287,121.7571 272.9017,100.4121 C278.5767,84.2011 278.1567,68.7061 278.1567,68.7061" id="Fill-272" fill="#FFC4A3"></path>
            <path d="M273.8237,97.6157 C277.0807,85.7317 272.0587,73.9417 272.0587,73.9417 C272.0587,73.9417 258.4767,75.7297 250.0347,69.8117 C240.6397,63.2257 242.1797,53.6387 242.1797,53.6387 C242.1797,53.6387 265.6357,53.6387 282.9557,68.6647 C282.9557,68.6647 283.9877,83.4617 277.1057,99.2917 L273.8237,97.6157 Z" id="Fill-274" fill="#1D213A"></path>
            <path d="M273.7251,384.918 C276.9461,409.47 266.5711,431.078 250.5501,433.18 C234.5301,435.282 218.9311,417.082 215.7101,392.529 C212.4891,367.977 222.8641,346.369 238.8851,344.267 C254.9051,342.165 270.5041,360.365 273.7251,384.918" id="Fill-276" fill="#1D213A"></path>
            <path d="M208.0532,378.6689 L281.8662,384.2519 L322.0002,437.1349 C322.0002,437.1349 310.9442,449.5569 292.8772,447.8359 C274.8112,446.1159 261.5792,421.3689 261.5792,421.3689 L208.0532,418.5859 L208.0532,378.6689 Z" id="Fill-278" fill="#F99175"></path>
            <path d="M322.0005,437.1348 L281.8655,384.2528 L263.1145,382.8338 L262.1045,404.2808 C262.1045,404.2808 253.5705,404.4258 253.632164,410.6138 C253.7065,417.8868 254.0515,420.9778 254.0515,420.9778 L261.5795,421.3688 C261.5795,421.3688 274.8115,446.1158 292.8775,447.8368 C310.9435,449.5568 322.0005,437.1348 322.0005,437.1348" id="Fill-280" fill="#1D213A"></path>
            <path d="M270.6694,383.4058 L315.0214,442.7238 C319.6064,439.9568 322.1434,437.1348 322.1434,437.1348 L281.8654,384.2528 L270.6694,383.4058 Z" id="Fill-282" fill="#E8EAEF"></path>
            <path d="M215.71,392.5293 C212.489,367.9763 222.864,346.3693 238.885,344.2673 C238.885,344.2673 131.659,335.8263 106.195,334.7943 C80.73,333.7613 60.427,336.8593 57.445,358.5383 C54.578,379.3783 62.033,393.7533 101.377,409.4673 C137.517,423.9023 238.45,437.1113 250.55,433.1803 C234.53,435.2813 218.931,417.0823 215.71,392.5293" id="Fill-284" fill="#1D213A"></path>
            <path d="M238.8867,345.0674 C238.8647,345.0674 238.8427,345.0664 238.8227,345.0654 C237.7507,344.9804 131.3197,336.6134 106.1617,335.5934 C105.7207,335.5754 105.3777,335.2044 105.394094,334.7624 C105.4127,334.3214 105.7867,333.9664 106.2277,333.9954 C131.4147,335.0164 237.8757,343.3854 238.9477,343.4694 C239.3877,343.5054 239.7177,343.8894 239.6817,344.3294 C239.6497,344.7494 239.2997,345.0674 238.8867,345.0674" id="Fill-286" fill="#E8EAEF"></path>
            <path d="M274.4673,360.2588 L271.7143,443.3058 L196.3203,443.3058 C196.3203,443.3058 192.9273,430.1858 199.2943,418.6148 C205.6613,407.0458 225.5003,406.8008 225.5003,406.8008 L226.5203,360.2588 L274.4673,360.2588 Z" id="Fill-288" fill="#FFC4A3"></path>
            <polygon id="Fill-290" fill="#F99175" points="226.0869 380.0332 274.0409 373.1432 274.4679 360.2592 226.5209 360.2592"></polygon>
            <path d="M206.3325,366.7969 C206.3325,366.7969 210.3095,258.0389 226.6355,224.6769 C242.4645,192.3299 283.7585,199.2129 291.3285,237.5189 C298.3335,272.9699 296.4905,366.7969 296.4905,366.7969 L206.3325,366.7969 Z" id="Fill-292" fill="#1D213A"></path>
            <path d="M296.4912,367.5967 L206.3322,367.5967 C206.1152,367.5967 205.9072,367.5087 205.7552,367.3527 C205.6052,367.1967 205.5242,366.9847 205.531659,366.7677 C205.5442,366.4227 206.8382,331.8917 210.8052,296.2157 C210.8542,295.7757 211.2272,295.4587 211.6902,295.5087 C212.1292,295.5577 212.4442,295.9527 212.3962,296.3917 C208.7772,328.9367 207.3872,360.5277 207.1652,365.9967 L295.7052,365.9967 C295.8332,358.4577 296.7162,298.5677 293.3352,259.3467 C293.2982,258.9077 293.6222,258.5187 294.0632,258.4817 C294.4722,258.4387 294.8892,258.7677 294.9292,259.2097 C298.5322,300.9987 297.3032,366.1597 297.2912,366.8127 C297.2822,367.2487 296.9272,367.5967 296.4912,367.5967" id="Fill-294" fill="#E8EAEF"></path>
            <path d="M215.5078,254.8149 C215.5078,254.8149 212.6408,253.5249 213.2148,249.3959 C213.7858,245.2869 219.9248,241.3669 240.7438,239.1299 C261.7898,236.8689 343.7498,251.5179 366.2318,263.4479 C388.7138,275.3769 386.8788,313.2299 354.3018,311.9679 C321.6848,310.7049 251.5208,272.1649 251.5208,272.1649 C251.5208,272.1649 237.7618,276.5239 225.3738,272.1649 L214.3818,274.5109 C214.3818,274.5109 210.9258,273.4269 210.920792,269.8709 C210.9148,265.8569 214.4188,264.8239 214.4188,264.8239 C214.4188,264.8239 211.0758,263.4579 211.2588,259.3729 C211.4368,255.4179 215.5078,254.8149 215.5078,254.8149" id="Fill-296" fill="#FFC4A3"></path>
            <path d="M358.2959,260.7827 C358.2019,260.7827 358.1069,260.7667 358.0149,260.7317 C345.0669,255.8757 322.8579,250.3607 298.6099,245.9817 C298.1759,245.9027 297.8869,245.4867 297.9649,245.0517 C298.0429,244.6147 298.4619,244.3297 298.8949,244.4067 C323.2319,248.8037 345.5429,254.3457 358.5769,259.2337 C358.9909,259.3887 359.2009,259.8497 359.0449,260.2637 C358.9239,260.5847 358.6199,260.7827 358.2959,260.7827" id="Fill-298" fill="#1D213A"></path>
            <path d="M79.5703,27.3159 C79.5703,27.3159 73.8603,25.2939 67.4663,26.6809 C67.4663,26.6809 63.3523,23.2289 59.2223,23.2289 C55.0933,23.2289 47.3363,23.5449 46.9213,28.3479 C46.5333,32.8209 50.4783,34.4229 56.6423,34.6709 L59.7623,36.8619 C59.7623,36.8619 56.2983,41.2089 61.2533,57.5789 L79.5703,27.3159 Z" id="Fill-300" fill="#FFC4A3"></path>
            <path d="M58.665,45.7646 C58.251,45.7646 57.899,45.4436 57.868,45.0236 C57.543,40.5646 58.226,38.1886 58.715,37.1036 L56.373,35.4596 C51.806,35.2486 48.946,34.3216 47.382,32.5456 C46.399,31.4286 45.976,29.9936 46.124,28.2786 C46.63,22.4286 56.108,22.4286 59.223,22.4286 C62.971,22.4286 66.602,24.9966 67.671,25.8216 C70.105,25.3386 72.694,25.2636 75.384,25.5986 C75.823,25.6536 76.134,26.0526 76.079,26.4916 C76.024,26.9296 75.607,27.2446 75.186,27.1856 C72.538,26.8566 70.002,26.9486 67.635,27.4626 C67.401,27.5126 67.143,27.4526 66.952,27.2936 C66.913,27.2606 63.005,24.0286 59.223,24.0286 C51.737,24.0286 47.974,25.4636 47.718,28.4166 C47.607,29.6966 47.89,30.7016 48.582,31.4886 C49.848,32.9236 52.493,33.7026 56.674,33.8716 C56.827,33.8776 56.976,33.9286 57.101,34.0166 L60.221,36.2066 C60.402,36.3336 60.522,36.5296 60.554,36.7476 C60.585,36.9666 60.524,37.1876 60.387,37.3606 C60.384,37.3666 59.051,39.2496 59.465,44.9066 C59.496,45.3466 59.165,45.7306 58.724,45.7626 C58.706,45.7646 58.685,45.7646 58.665,45.7646" id="Fill-302" fill="#1D213A"></path>
            <path d="M58.6509,41.8945 C58.6149,41.8945 58.5809,41.8925 58.5459,41.8875 C58.3409,41.8605 53.5429,41.1575 52.6519,34.4845 C52.5949,34.0465 52.9019,33.6445 53.3399,33.5855 C53.7669,33.5245 54.1809,33.8345 54.2399,34.2735 C54.9599,39.6865 58.6039,40.2795 58.7589,40.3025 C59.1929,40.3655 59.4989,40.7685 59.4389,41.2045 C59.3839,41.6035 59.0429,41.8945 58.6509,41.8945" id="Fill-304" fill="#1D213A"></path>
            <path d="M64.3945,25.4907 C64.1445,25.4907 63.8975,25.3737 63.7415,25.1527 C62.3385,23.1697 59.3075,19.4697 59.2755,19.4327 C58.9965,19.0917 59.0455,18.5877 59.3865,18.3067 C59.7305,18.0287 60.2335,18.0757 60.5135,18.4187 C60.6385,18.5717 63.6115,22.1987 65.0475,24.2287 C65.3025,24.5887 65.2175,25.0887 64.8565,25.3437 C64.7165,25.4427 64.5555,25.4907 64.3945,25.4907" id="Fill-306" fill="#1D213A"></path>
            <path d="M263.4351,77.5234 C258.8231,77.5234 253.3871,76.6144 248.5041,73.4254 C238.1861,66.6904 241.3711,53.5744 241.4051,53.4424 C241.5131,53.0144 241.9561,52.7544 242.3761,52.8644 C242.8041,52.9714 243.0631,53.4064 242.9561,53.8354 C242.8321,54.3284 240.0291,65.9814 249.3791,72.0864 C259.8491,78.9204 273.5771,74.4514 273.7161,74.4064 C274.1371,74.2674 274.5911,74.4924 274.7291,74.9114 C274.8701,75.3294 274.6441,75.7824 274.2261,75.9234 C273.8941,76.0344 269.3371,77.5234 263.4351,77.5234" id="Fill-308" fill="#1D213A"></path>
            <path d="M287.0557,154.0884 C286.6947,154.0884 286.3667,153.8424 286.2777,153.4764 C286.1747,153.0464 286.4387,152.6144 286.8687,152.5104 C295.5947,150.4004 302.2777,144.3544 305.2017,135.9234 C307.9507,128.0054 306.7617,119.3964 302.0977,113.4564 C290.9617,99.2714 288.8507,92.1804 288.4857,79.3214 C288.4727,78.8804 288.8217,78.5104 289.2617,78.4984 C289.6967,78.4784 290.0727,78.8344 290.0847,79.2754 C290.4447,91.9544 292.4127,98.5284 303.3567,112.4684 C308.3527,118.8324 309.6387,128.0204 306.7147,136.4474 C303.6067,145.4034 296.5107,151.8254 287.2427,154.0654 C287.1807,154.0814 287.1167,154.0884 287.0557,154.0884" id="Fill-310" fill="#1D213A"></path>
            <path d="M272.6572,414.8662 L244.6182,409.9902 C244.6182,409.9902 243.0122,401.0682 237.1242,400.3422 C231.8122,399.6852 225.6412,400.3422 225.6412,400.3422 L225.5002,406.8012 C225.5002,406.8012 205.6612,407.0452 199.2942,418.6152 C192.9272,430.1852 196.3202,443.3052 196.3202,443.3052 L271.7142,443.3052 L272.6572,414.8662 Z" id="Fill-312" fill="#1D213A"></path>
            <path d="M271.7148,444.1055 C271.7068,444.1055 271.6978,444.1055 271.6888,444.1045 C271.2458,444.0905 270.9008,443.7205 270.9148,443.2785 L271.8568,414.8395 C271.8708,414.4075 272.2278,414.0665 272.6568,414.0665 C272.6648,414.0665 272.6738,414.0665 272.6838,414.0675 C273.1258,414.0815 273.4708,414.4515 273.4568,414.8935 L272.5148,443.3325 C272.5008,443.7645 272.1448,444.1055 271.7148,444.1055" id="Fill-314" fill="#E8EAEF"></path>
            <path d="M272.0269,433.8828 L272.0269,433.8828 L195.2929,433.8828 C195.1649,439.3518 196.1769,443.3058 196.1769,443.3058 L271.7149,443.3058 L272.0269,433.8828 Z" id="Fill-316" fill="#E8EAEF"></path>
            <path d="M231.5928,411.147 C231.3538,411.147 231.1148,411.039 230.9588,410.834 C228.5198,407.653 225.6228,407.603 225.5008,407.602 C225.0598,407.599 224.701798,407.242 224.701798,406.802 C224.7008,406.359 225.0118,405.991 225.5008,406.001 C225.7358,406.001 229.3198,406.066 232.2278,409.86 C232.4958,410.211 232.4308,410.713 232.0808,410.982 C231.9348,411.093 231.7628,411.147 231.5928,411.147" id="Fill-318" fill="#E8EAEF"></path>
            <path d="M224.4556,412.8125 C224.1526,412.8125 223.8616,412.6385 223.7276,412.3435 C222.1396,408.8495 218.8096,408.2825 218.7776,408.2765 C218.3396,408.2075 218.0426,407.7965 218.1116,407.3605 C218.1806,406.9245 218.5966,406.6195 219.0276,406.6965 C219.1996,406.7245 223.2446,407.4135 225.1836,411.6815 C225.3666,412.0835 225.1886,412.5575 224.7866,412.7405 C224.6786,412.7905 224.5666,412.8125 224.4556,412.8125" id="Fill-320" fill="#E8EAEF"></path>
            <path d="M217.854,414.7158 C217.521,414.7158 217.21,414.5068 217.096,414.1738 C215.651,409.9358 211.371,410.2568 211.324,410.2608 C210.882,410.2978 210.496,409.9738 210.458,409.5328 C210.421,409.0928 210.746,408.7048 211.187,408.6668 C213.104,408.5018 217.132,409.3298 218.612,413.6568 C218.754,414.0748 218.53,414.5298 218.112,414.6728 C218.027,414.7018 217.94,414.7158 217.854,414.7158" id="Fill-322" fill="#E8EAEF"></path>
            <path d="M248.9731,88.6841 C248.9731,89.8671 249.9311,90.8251 251.1141,90.8251 C252.2971,90.8251 253.2551,89.8671 253.2551,88.6841 C253.2551,87.5011 252.2971,86.5431 251.1141,86.5431 C249.9311,86.5431 248.9731,87.5011 248.9731,88.6841" id="Fill-324" fill="#1D213A"></path>
            <path d="M226.2124,81.5503 C226.2124,82.7333 227.1704,83.6913 228.3534,83.6913 C229.5364,83.6913 230.4944,82.7333 230.4944,81.5503 C230.4944,80.3673 229.5364,79.4093 228.3534,79.4093 C227.1704,79.4093 226.2124,80.3673 226.2124,81.5503" id="Fill-326" fill="#1D213A"></path>
            <path d="M249.5713,75.7388 C249.9903,76.7808 252.7933,75.9308 255.6243,77.2908 C258.4873,78.5868 261.1683,81.9928 262.2373,81.6448 C263.3323,81.3448 261.4193,78.4458 256.9853,76.3728 C252.5483,74.3088 249.0973,74.7068 249.5713,75.7388" id="Fill-328" fill="#1D213A"></path>
            <path d="M234.9888,71.0649 C234.3618,71.6439 232.2618,70.3429 230.0688,70.1809 C227.8808,69.9599 225.7608,70.8919 225.2438,70.2119 C224.6928,69.5579 226.8868,68.2459 230.2998,68.5409 C233.7118,68.8429 235.6458,70.5159 234.9888,71.0649" id="Fill-330" fill="#1D213A"></path>
            <path d="M236.0693,102.0186 C238.8243,102.4396 241.3213,100.5676 242.3163,102.1266 C243.6093,104.1516 240.0193,108.5396 235.6113,107.4096 C232.1593,106.5246 230.4823,101.8616 231.9543,101.0146 C233.3623,100.2036 233.5993,101.6416 236.0693,102.0186" id="Fill-332" fill="#1D213A"></path>
            <path d="M215.5088,255.6147 C215.1618,255.6147 214.8428,255.3877 214.7398,255.0387 C214.6158,254.6147 214.8608,254.1707 215.2848,254.0467 C217.6238,253.3647 220.3208,252.7337 220.3488,252.7277 C220.7798,252.6317 221.2098,252.8957 221.3098,253.3237 C221.4098,253.7547 221.1428,254.1847 220.7118,254.2847 C220.6848,254.2917 218.0288,254.9127 215.7318,255.5827 C215.6568,255.6047 215.5818,255.6147 215.5088,255.6147" id="Fill-334" fill="#1D213A"></path>
            <path d="M214.4194,265.624 C214.0854,265.624 213.7724,265.413 213.6604,265.078 C213.5214,264.659 213.7474,264.206 214.1664,264.065 C216.3024,263.352 220.2414,262.733 220.4074,262.708 C220.8364,262.647 221.2554,262.937 221.3214,263.375 C221.3884,263.812 221.0894,264.221 220.6534,264.289 C220.6144,264.295 216.6824,264.912 214.6724,265.583 C214.5884,265.611 214.5034,265.624 214.4194,265.624" id="Fill-336" fill="#1D213A"></path>
            <path d="M251.3525,80.2944 C246.2835,80.2944 242.1605,84.4184 242.1605,89.4864 C242.1605,94.5554 246.2835,98.6784 251.3525,98.6784 C256.4205,98.6784 260.5445,94.5554 260.5445,89.4864 C260.5445,84.4184 256.4205,80.2944 251.3525,80.2944 M251.3525,100.2784 C245.4005,100.2784 240.5605,95.4374 240.5605,89.4864 C240.5605,83.5364 245.4005,78.6944 251.3525,78.6944 C257.3035,78.6944 262.1445,83.5364 262.1445,89.4864 C262.1445,95.4374 257.3035,100.2784 251.3525,100.2784" id="Fill-338" fill="#1D213A"></path>
            <path d="M226.7852,73.1357 C222.4152,73.1357 218.6462,76.7837 218.2252,81.5837 C217.7842,86.6327 221.2132,91.0727 225.8712,91.4807 C230.4852,91.8867 234.6762,88.1117 235.1182,83.0627 L235.9152,83.1317 L235.1182,83.0627 C235.5602,78.0127 232.1302,73.5727 227.4722,73.1657 C227.2432,73.1457 227.0132,73.1357 226.7852,73.1357 M226.5582,93.1107 C226.2842,93.1107 226.0092,93.0987 225.7302,93.0737 C220.1942,92.5897 216.1132,87.3727 216.6322,81.4447 C217.1512,75.5167 222.0832,71.0967 227.6132,71.5717 C233.1492,72.0557 237.2302,77.2737 236.7122,83.2017 C236.2202,88.8317 231.7492,93.1107 226.5582,93.1107" id="Fill-340" fill="#1D213A"></path>
            <path d="M237.001,85.3535 L234.564,90.0345 C234.564,90.0345 231.569,87.4375 229.615,89.6415 C227.28,92.2735 230.776,97.2535 236.129,95.2025" id="Fill-342" fill="#FFC4A3"></path>
            <path d="M233.6885,96.4805 C231.5385,96.4805 229.8275,95.4415 228.9055,94.1105 C227.7535,92.4475 227.7975,90.4855 229.0165,89.1105 C230.6315,87.2925 232.8545,87.9515 234.2835,88.8415 L236.2915,84.9835 C236.4965,84.5925 236.9835,84.4415 237.3695,84.6435 C237.7615,84.8475 237.9155,85.3305 237.7095,85.7225 L235.2745,90.4035 C235.1615,90.6205 234.9555,90.7725 234.7165,90.8195 C234.4805,90.8645 234.2275,90.7995 234.0425,90.6395 C233.9445,90.5565 231.6115,88.5905 230.2135,90.1725 C229.5015,90.9755 229.5035,92.1645 230.2215,93.2005 C231.0825,94.4425 233.0715,95.5165 235.8425,94.4555 C236.2535,94.2995 236.7175,94.5035 236.8765,94.9165 C237.0335,95.3295 236.8275,95.7915 236.4155,95.9495 C235.4525,96.3185 234.5355,96.4795 233.6885,96.4805" id="Fill-344" fill="#F99175"></path>
            <path d="M242.1538,86.3765 C241.9648,86.3765 241.7748,86.3095 241.6208,86.1735 C238.7118,83.5795 236.1398,83.9075 236.0318,83.9235 C235.5978,83.9825 235.1898,83.6835 235.1258,83.2495 C235.0618,82.8145 235.3568,82.4095 235.7918,82.3415 C235.9308,82.3255 239.1868,81.8565 242.6868,84.9795 C243.0168,85.2735 243.0448,85.7795 242.7508,86.1095 C242.5928,86.2865 242.3738,86.3765 242.1538,86.3765" id="Fill-346" fill="#1D213A"></path>
            <path d="M289.4946,104.9814 C289.4346,104.9814 289.3726,104.9744 289.3116,104.9604 C288.8816,104.8594 288.6146,104.4284 288.7166,103.9984 C289.2726,101.6284 288.1786,97.6834 284.6776,96.4394 C280.7136,95.0314 261.5746,88.6304 261.3816,88.5654 C260.9616,88.4254 260.7366,87.9724 260.8756,87.5534 C261.0166,87.1354 261.4836,86.9124 261.8886,87.0484 C262.0816,87.1124 281.2356,93.5184 285.2116,94.9314 C289.7926,96.5594 290.9416,101.5224 290.2726,104.3644 C290.1866,104.7324 289.8586,104.9814 289.4946,104.9814" id="Fill-348" fill="#1D213A"></path>
            <path d="M272.0376,93.0972 C272.0376,93.0972 279.7006,90.1902 284.4326,94.4912 C289.4746,99.0752 287.1006,109.3532 278.5816,110.9392 C271.1866,112.3152 268.9446,106.1822 268.9446,106.1822 L272.0376,93.0972 Z" id="Fill-350" fill="#FFC4A3"></path>
            <path d="M275.1304,101.5693 C274.9634,101.5693 274.7964,101.5183 274.6524,101.4113 C274.2974,101.1473 274.2244,100.6463 274.4884,100.2913 C277.5264,96.2193 281.6754,97.2973 283.4434,98.4343 C283.8134,98.6733 283.9214,99.1653 283.6834,99.5363 C283.4464,99.9083 282.9554,100.0173 282.5804,99.7813 C282.4214,99.6823 278.6604,97.3683 275.7724,101.2473 C275.6144,101.4583 275.3744,101.5693 275.1304,101.5693" id="Fill-352" fill="#1D213A"></path>
            <path d="M241.9204,104.9917 C240.9274,104.1577 239.6644,103.6357 238.2664,103.6357 C236.2614,103.6357 234.5044,104.6737 233.4854,106.2367 C234.0864,106.7687 234.7944,107.1997 235.6114,107.4097 C238.3634,108.1157 240.7954,106.6697 241.9204,104.9917" id="Fill-354" fill="#FF5A5A"></path>
        </g>
    </g>
</svg>