<?xml version="1.0" encoding="UTF-8"?>
<svg width="672px" height="500px" viewBox="0 0 672 500" version="1.1" xmlns="http://www.w3.org/2000/svg" xmlns:xlink="http://www.w3.org/1999/xlink">
    <title>Illustration 17 0</title>
    <g id="🤩-Illustrations" stroke="none" stroke-width="1" fill="none" fill-rule="evenodd">
        <g id="Illustration-17">
            <path d="M670.7642,349.6348 C667.8642,349.6348 666.3382,348.1098 665.1092,346.8828 C663.9642,345.7388 663.0592,344.8338 661.1532,344.8338 C659.2472,344.8338 658.3412,345.7388 657.1952,346.8848 C655.9672,348.1098 654.4412,349.6348 651.5422,349.6348 C648.6472,349.6348 647.1222,348.1098 645.8972,346.8828 C644.7532,345.7388 643.8482,344.8338 641.9472,344.8338 C640.0472,344.8338 639.1442,345.7378 638.0002,346.8828 C636.7752,348.1078 635.2502,349.6348 632.3552,349.6348 C629.4592,349.6348 627.9362,348.1078 626.7112,346.8828 C625.5672,345.7378 624.6642,344.8338 622.7642,344.8338 C622.1012,344.8338 621.5642,344.2968 621.5642,343.6348 C621.5642,342.9718 622.1012,342.4348 622.7642,342.4348 C625.6602,342.4348 627.1832,343.9608 628.4082,345.1858 C629.5522,346.3308 630.4552,347.2348 632.3552,347.2348 C634.2562,347.2348 635.1602,346.3298 636.3032,345.1858 C637.5282,343.9588 639.0522,342.4348 641.9472,342.4348 C644.8442,342.4348 646.3692,343.9608 647.5942,345.1858 C648.7382,346.3308 649.6402,347.2348 651.5422,347.2348 C653.4492,347.2348 654.3532,346.3298 655.4982,345.1858 C656.7262,343.9588 658.2532,342.4348 661.1532,342.4348 C664.0522,342.4348 665.5782,343.9588 666.8062,345.1848 C667.9512,346.3298 668.8582,347.2348 670.7642,347.2348 C671.4272,347.2348 671.9642,347.7718 671.9642,348.4348 C671.9642,349.0968 671.4272,349.6348 670.7642,349.6348" id="Fill-2470" fill="#CDD1DF"></path>
            <path d="M670.7642,362.4346 C667.8642,362.4346 666.3382,360.9096 665.1092,359.6826 C663.9642,358.5386 663.0592,357.6346 661.1532,357.6346 C659.2472,357.6346 658.3412,358.5386 657.1952,359.6846 C655.9672,360.9096 654.4412,362.4346 651.5422,362.4346 C648.6472,362.4346 647.1222,360.9096 645.8972,359.6826 C644.7532,358.5386 643.8482,357.6346 641.9472,357.6346 C640.0472,357.6346 639.1442,358.5376 638.0002,359.6826 C636.7752,360.9086 635.2502,362.4346 632.3552,362.4346 C629.4592,362.4346 627.9362,360.9086 626.7112,359.6826 C625.5672,358.5376 624.6642,357.6346 622.7642,357.6346 C622.1012,357.6346 621.5642,357.0966 621.5642,356.4346 C621.5642,355.7716 622.1012,355.2346 622.7642,355.2346 C625.6602,355.2346 627.1832,356.7606 628.4082,357.9866 C629.5522,359.1306 630.4552,360.0346 632.3552,360.0346 C634.2562,360.0346 635.1602,359.1296 636.3032,357.9866 C637.5282,356.7596 639.0522,355.2346 641.9472,355.2346 C644.8442,355.2346 646.3692,356.7606 647.5942,357.9866 C648.7382,359.1306 649.6402,360.0346 651.5422,360.0346 C653.4492,360.0346 654.3532,359.1296 655.4982,357.9866 C656.7262,356.7596 658.2532,355.2346 661.1532,355.2346 C664.0522,355.2346 665.5782,356.7596 666.8062,357.9846 C667.9512,359.1296 668.8582,360.0346 670.7642,360.0346 C671.4272,360.0346 671.9642,360.5726 671.9642,361.2346 C671.9642,361.8966 671.4272,362.4346 670.7642,362.4346" id="Fill-2472" fill="#CDD1DF"></path>
            <path d="M670.7642,375.2344 C667.8642,375.2344 666.3382,373.7094 665.1092,372.4824 C663.9642,371.3384 663.0592,370.4344 661.1532,370.4344 C659.2472,370.4344 658.3412,371.3384 657.1952,372.4844 C655.9672,373.7094 654.4412,375.2344 651.5422,375.2344 C648.6472,375.2344 647.1222,373.7094 645.8972,372.4824 C644.7532,371.3384 643.8482,370.4344 641.9472,370.4344 C640.0472,370.4344 639.1442,371.3384 638.0002,372.4824 C636.7752,373.7084 635.2502,375.2344 632.3552,375.2344 C629.4592,375.2344 627.9362,373.7084 626.7112,372.4824 C625.5672,371.3384 624.6642,370.4344 622.7642,370.4344 C622.1012,370.4344 621.5642,369.8964 621.5642,369.2344 C621.5642,368.5724 622.1012,368.0344 622.7642,368.0344 C625.6602,368.0344 627.1832,369.5604 628.4082,370.7864 C629.5522,371.9314 630.4552,372.8344 632.3552,372.8344 C634.2562,372.8344 635.1602,371.9294 636.3032,370.7864 C637.5282,369.5594 639.0522,368.0344 641.9472,368.0344 C644.8442,368.0344 646.3692,369.5604 647.5942,370.7864 C648.7382,371.9314 649.6402,372.8344 651.5422,372.8344 C653.4492,372.8344 654.3532,371.9294 655.4982,370.7864 C656.7262,369.5594 658.2532,368.0344 661.1532,368.0344 C664.0522,368.0344 665.5782,369.5594 666.8062,370.7844 C667.9512,371.9294 668.8582,372.8344 670.7642,372.8344 C671.4272,372.8344 671.9642,373.3724 671.9642,374.0344 C671.9642,374.6974 671.4272,375.2344 670.7642,375.2344" id="Fill-2474" fill="#CDD1DF"></path>
            <path d="M670.7642,388.0342 C667.8642,388.0342 666.3382,386.5102 665.1092,385.2832 C663.9642,384.1382 663.0592,383.2342 661.1532,383.2342 C659.2472,383.2342 658.3412,384.1382 657.1952,385.2842 C655.9672,386.5102 654.4412,388.0342 651.5422,388.0342 C648.6472,388.0342 647.1222,386.5102 645.8972,385.2832 C644.7532,384.1382 643.8482,383.2342 641.9472,383.2342 C640.0472,383.2342 639.1442,384.1382 638.0002,385.2832 C636.7752,386.5082 635.2502,388.0342 632.3552,388.0342 C629.4592,388.0342 627.9362,386.5082 626.7112,385.2832 C625.5672,384.1382 624.6642,383.2342 622.7642,383.2342 C622.1012,383.2342 621.5642,382.6972 621.5642,382.0342 C621.5642,381.3722 622.1012,380.8342 622.7642,380.8342 C625.6602,380.8342 627.1832,382.3612 628.4082,383.5862 C629.5522,384.7312 630.4552,385.6352 632.3552,385.6352 C634.2562,385.6352 635.1602,384.7292 636.3032,383.5862 C637.5282,382.3592 639.0522,380.8342 641.9472,380.8342 C644.8442,380.8342 646.3692,382.3612 647.5942,383.5862 C648.7382,384.7312 649.6402,385.6352 651.5422,385.6352 C653.4492,385.6352 654.3532,384.7292 655.4982,383.5862 C656.7262,382.3592 658.2532,380.8342 661.1532,380.8342 C664.0522,380.8342 665.5782,382.3592 666.8062,383.5842 C667.9512,384.7292 668.8582,385.6352 670.7642,385.6352 C671.4272,385.6352 671.9642,386.1722 671.9642,386.8342 C671.9642,387.4972 671.4272,388.0342 670.7642,388.0342" id="Fill-2476" fill="#CDD1DF"></path>
            <path d="M145.167,148.6797 C145.167,151.3307 143.018,153.4807 140.367,153.4807 C137.716,153.4807 135.567,151.3307 135.567,148.6797 C135.567,146.0297 137.716,143.8797 140.367,143.8797 C143.018,143.8797 145.167,146.0297 145.167,148.6797" id="Fill-2478" fill="#CDD1DF"></path>
            <path d="M177.167,148.6797 C177.167,151.3307 175.018,153.4807 172.367,153.4807 C169.716,153.4807 167.567,151.3307 167.567,148.6797 C167.567,146.0297 169.716,143.8797 172.367,143.8797 C175.018,143.8797 177.167,146.0297 177.167,148.6797" id="Fill-2480" fill="#CDD1DF"></path>
            <path d="M209.167,148.6797 C209.167,151.3307 207.018,153.4807 204.367,153.4807 C201.716,153.4807 199.567,151.3307 199.567,148.6797 C199.567,146.0297 201.716,143.8797 204.367,143.8797 C207.018,143.8797 209.167,146.0297 209.167,148.6797" id="Fill-2482" fill="#CDD1DF"></path>
            <path d="M239.5669,148.6797 C239.5669,150.4477 238.1339,151.8797 236.3669,151.8797 C234.5999,151.8797 233.1669,150.4477 233.1669,148.6797 C233.1669,146.9127 234.5999,145.4807 236.3669,145.4807 C238.1339,145.4807 239.5669,146.9127 239.5669,148.6797" id="Fill-2484" fill="#CDD1DF"></path>
            <path d="M145.167,180.6797 C145.167,183.3307 143.018,185.4807 140.367,185.4807 C137.716,185.4807 135.567,183.3307 135.567,180.6797 C135.567,178.0297 137.716,175.8797 140.367,175.8797 C143.018,175.8797 145.167,178.0297 145.167,180.6797" id="Fill-2486" fill="#CDD1DF"></path>
            <path d="M177.167,180.6797 C177.167,183.3307 175.018,185.4807 172.367,185.4807 C169.716,185.4807 167.567,183.3307 167.567,180.6797 C167.567,178.0297 169.716,175.8797 172.367,175.8797 C175.018,175.8797 177.167,178.0297 177.167,180.6797" id="Fill-2488" fill="#CDD1DF"></path>
            <path d="M209.167,180.6797 C209.167,183.3307 207.018,185.4807 204.367,185.4807 C201.716,185.4807 199.567,183.3307 199.567,180.6797 C199.567,178.0297 201.716,175.8797 204.367,175.8797 C207.018,175.8797 209.167,178.0297 209.167,180.6797" id="Fill-2490" fill="#CDD1DF"></path>
            <path d="M239.5669,180.6797 C239.5669,182.4477 238.1339,183.8797 236.3669,183.8797 C234.5999,183.8797 233.1669,182.4477 233.1669,180.6797 C233.1669,178.9127 234.5999,177.4807 236.3669,177.4807 C238.1339,177.4807 239.5669,178.9127 239.5669,180.6797" id="Fill-2492" fill="#CDD1DF"></path>
            <path d="M145.167,212.6797 C145.167,215.3307 143.018,217.4807 140.367,217.4807 C137.716,217.4807 135.567,215.3307 135.567,212.6797 C135.567,210.0297 137.716,207.8797 140.367,207.8797 C143.018,207.8797 145.167,210.0297 145.167,212.6797" id="Fill-2494" fill="#CDD1DF"></path>
            <path d="M177.167,212.6797 C177.167,215.3307 175.018,217.4807 172.367,217.4807 C169.716,217.4807 167.567,215.3307 167.567,212.6797 C167.567,210.0297 169.716,207.8797 172.367,207.8797 C175.018,207.8797 177.167,210.0297 177.167,212.6797" id="Fill-2496" fill="#CDD1DF"></path>
            <path d="M207.5669,212.6797 C207.5669,214.4477 206.1339,215.8797 204.3669,215.8797 C202.5999,215.8797 201.1669,214.4477 201.1669,212.6797 C201.1669,210.9127 202.5999,209.4807 204.3669,209.4807 C206.1339,209.4807 207.5669,210.9127 207.5669,212.6797" id="Fill-2498" fill="#CDD1DF"></path>
            <path d="M239.5669,212.6797 C239.5669,214.4477 238.1339,215.8797 236.3669,215.8797 C234.5999,215.8797 233.1669,214.4477 233.1669,212.6797 C233.1669,210.9127 234.5999,209.4807 236.3669,209.4807 C238.1339,209.4807 239.5669,210.9127 239.5669,212.6797" id="Fill-2500" fill="#CDD1DF"></path>
            <path d="M143.5669,244.6797 C143.5669,246.4477 142.1339,247.8797 140.3669,247.8797 C138.5999,247.8797 137.1669,246.4477 137.1669,244.6797 C137.1669,242.9127 138.5999,241.4807 140.3669,241.4807 C142.1339,241.4807 143.5669,242.9127 143.5669,244.6797" id="Fill-2502" fill="#CDD1DF"></path>
            <path d="M175.5669,244.6797 C175.5669,246.4477 174.1339,247.8797 172.3669,247.8797 C170.5999,247.8797 169.1669,246.4477 169.1669,244.6797 C169.1669,242.9127 170.5999,241.4807 172.3669,241.4807 C174.1339,241.4807 175.5669,242.9127 175.5669,244.6797" id="Fill-2504" fill="#CDD1DF"></path>
            <path d="M207.5669,244.6797 C207.5669,246.4477 206.1339,247.8797 204.3669,247.8797 C202.5999,247.8797 201.1669,246.4477 201.1669,244.6797 C201.1669,242.9127 202.5999,241.4807 204.3669,241.4807 C206.1339,241.4807 207.5669,242.9127 207.5669,244.6797" id="Fill-2506" fill="#CDD1DF"></path>
            <path d="M239.5669,244.6797 C239.5669,246.4477 238.1339,247.8797 236.3669,247.8797 C234.5999,247.8797 233.1669,246.4477 233.1669,244.6797 C233.1669,242.9127 234.5999,241.4807 236.3669,241.4807 C238.1339,241.4807 239.5669,242.9127 239.5669,244.6797" id="Fill-2508" fill="#CDD1DF"></path>
            <path d="M87.5674,123.7031 L68.3674,123.7031 C68.3674,93.7061 92.7704,69.3031 122.7674,69.3031 L122.7674,88.5031 C103.3584,88.5031 87.5674,104.2941 87.5674,123.7031" id="Fill-2510" fill="#CDD1DF"></path>
            <polygon id="Fill-2512" fill="#CDD1DF" points="497.7656 66.1025 489.7656 74.1025 481.7656 66.1025 489.7656 58.1025"></polygon>
            <polygon id="Fill-2514" fill="#CDD1DF" points="42.9575 294.7998 34.9575 302.7998 26.9575 294.7998 34.9575 286.7998"></polygon>
            <path d="M241.3296,397.7129 L230.1546,489.0299 L134.9026,489.0299 C134.9026,489.0299 127.7206,465.8039 143.1886,454.6279 C160.1186,442.3959 181.4546,443.9209 181.4546,443.9209 L186.5736,397.7129 L241.3296,397.7129 Z" id="Fill-2516" fill="#F99175"></path>
            <path d="M234.3291,454.915 L200.2091,446.538 C200.2091,446.538 199.6871,433.489 191.0751,433.489 L182.6101,433.489 L181.4551,443.921 C181.4551,443.921 160.1191,442.395 143.1891,454.628 C127.7211,465.804 134.9021,489.03 134.9021,489.03 L230.1541,489.03 L234.3291,454.915 Z" id="Fill-2518" fill="#1D213A"></path>
            <path d="M325.9937,39.6963 C325.9937,48.7763 318.6327,56.1363 309.5527,56.1363 C300.4727,56.1363 293.1127,48.7763 293.1127,39.6963 C293.1127,30.6163 300.4727,23.2563 309.5527,23.2563 C318.6327,23.2563 325.9937,30.6163 325.9937,39.6963" id="Fill-2520" fill="#F99175"></path>
            <path d="M303.3457,44.833 C303.2837,44.833 303.2187,44.825 303.1567,44.81 C302.7267,44.705 302.4647,44.271 302.5687,43.844 C305.3267,32.529 317.2157,34.74 317.3317,34.768 C317.7637,34.854 318.0457,35.271 317.9607,35.706 C317.8747,36.139 317.4397,36.428 317.0217,36.336 C316.5967,36.255 306.5177,34.406 304.1217,44.222 C304.0327,44.588 303.7067,44.833 303.3457,44.833" id="Fill-2522" fill="#1D213A"></path>
            <path d="M399.6499,373.585 C399.6499,373.585 372.6399,334.245 336.6269,297.384 C292.3869,252.102 248.5149,219.378 214.8519,228.32 C176.3959,238.536 157.7369,300.972 137.7729,406.857 L240.5929,406.857 L249.9869,335.484 L399.6499,373.585 Z" id="Fill-2524" fill="#1D213A"></path>
            <path d="M601.1621,175.9443 C601.1621,175.9443 586.5501,177.6833 575.4051,171.3663 C565.7811,165.9103 559.8271,154.3313 564.4361,148.8713 C569.0451,143.4113 589.7491,143.1413 604.0001,161.6493 C618.2511,180.1573 609.6841,199.6383 616.8941,216.4953 C625.6541,236.9763 616.8941,254.9913 595.1781,257.9533 C571.7291,261.1503 553.8821,244.5653 553.8821,244.5653 L601.1621,175.9443 Z" id="Fill-2526" fill="#1D213A"></path>
            <path d="M573.4619,154.0605 C573.4619,154.0605 566.4429,146.9035 553.8819,150.6365 C539.8699,154.8015 535.0879,173.4945 540.5179,182.3165 L573.4619,154.0605 Z" id="Fill-2528" fill="#1D213A"></path>
            <path d="M434.4883,167.0977 C429.3993,162.9877 414.8853,169.8657 398.4753,187.5177 C381.2523,206.0467 375.1183,227.6797 382.1653,232.9257 C389.2123,238.1717 415.5683,235.2747 431.6173,214.3977 C447.6673,193.5207 439.5773,171.2077 434.4883,167.0977" id="Fill-2530" fill="#1D213A"></path>
            <path d="M452.0239,193.8086 L402.9119,151.7656 C402.9119,151.7656 392.9949,131.6716 377.5979,103.2266 C362.2019,74.7826 317.5769,10.8456 311.0529,4.3226 C304.5289,-2.2024 293.5679,-0.8974 299.8319,10.5846 C306.0939,22.0676 314.1839,37.9866 314.1839,37.9866 L308.4429,44.7716 C308.4429,44.7716 304.7079,39.5516 297.9639,33.2886 C291.2199,27.0256 281.5639,33.2886 288.0879,41.9006 C294.6119,50.5126 301.1359,60.4286 303.7459,67.4746 C306.3559,74.5206 314.1839,80.5236 319.9249,80.2616 C319.9249,80.2616 335.0619,134.0206 343.9339,162.2046 C352.8069,190.3886 359.0699,196.9126 375.7719,209.1776 C392.4729,221.4436 419.2219,239.3196 419.2219,239.3196 C419.2219,239.3196 448.9719,228.9466 452.0239,193.8086" id="Fill-2532" fill="#FFC4A3"></path>
            <path d="M419.2217,239.3193 C419.2217,239.3193 448.9717,228.9463 452.0237,193.8083 L433.2917,177.7723 C433.2917,177.7723 433.5107,191.2603 421.1797,206.0323 C408.8547,220.7983 393.9707,222.0913 393.9557,222.0923 C407.0207,231.1643 419.2217,239.3193 419.2217,239.3193" id="Fill-2534" fill="#F99175"></path>
            <path d="M146.1382,451.7773 L57.1352,489.0303 L0.0352,419.6643 C0.0352,419.6643 12.6782,402.0173 36.5842,401.9643 C60.4632,401.9123 70.7712,424.8783 70.7712,424.8783 L123.5332,401.2803 L146.1382,451.7773 Z" id="Fill-2536" fill="#FFC4A3"></path>
            <polygon id="Fill-2538" fill="#F99175" points="129.2173 458.8594 146.1383 451.7774 123.5333 401.2804 96.8013 413.2364"></polygon>
            <path d="M496.0757,225.8799 C496.0757,225.8799 461.3027,189.0189 434.4887,167.0979 C434.4887,167.0979 442.0557,190.6499 424.7017,211.1349 C408.2707,230.5319 382.1647,232.9259 382.1647,232.9259 C382.1647,232.9259 421.0487,263.7199 465.7347,279.0049 C465.7347,279.0049 481.2357,275.0059 490.1717,256.3469 C496.8257,242.4509 496.0757,225.8799 496.0757,225.8799" id="Fill-2540" fill="#D3D6E2"></path>
            <path d="M427.9644,335.7451 C403.3654,351.1411 385.1664,366.9311 385.1664,366.9311 C385.1664,366.9311 319.8954,332.6651 289.6234,323.2701 C259.3514,313.8761 254.1624,313.9551 204.3184,330.9171 C158.5064,346.5081 93.9974,373.2931 93.9974,373.2931 L135.6854,463.6171 L263.0354,408.8141 C263.0354,408.8141 363.6364,464.4001 405.9134,480.0571 C448.1894,495.7161 467.0784,492.0571 484.5934,459.7031 C503.3824,424.9951 518.3934,384.2931 518.3934,384.2931 L427.9644,335.7451 Z" id="Fill-2542" fill="#1D213A"></path>
            <path d="M398.2798,374.3984 C398.1548,374.3984 398.0288,374.3694 397.9098,374.3074 C397.1268,373.8984 319.2438,333.3014 289.3858,324.0344 C258.9058,314.5784 253.3618,315.0734 204.5768,331.6744 C189.5848,336.7764 171.0388,343.6044 149.4568,351.9654 C149.0438,352.1294 148.5798,351.9214 148.4218,351.5094 C148.2608,351.0964 148.4658,350.6344 148.8788,350.4744 C170.4828,342.1044 189.0488,335.2684 204.0608,330.1594 C253.3008,313.4044 258.9128,312.9034 289.8618,322.5054 C319.8548,331.8154 397.8658,372.4794 398.6508,372.8884 C399.0428,373.0934 399.1938,373.5764 398.9888,373.9684 C398.8458,374.2424 398.5678,374.3984 398.2798,374.3984" id="Fill-2544" fill="#E8EAEF"></path>
            <path d="M593.0234,276.5068 C593.0234,276.5068 551.5304,348.9238 543.3104,416.2518 C543.3104,416.2518 495.1624,417.8188 454.0604,393.5488 C412.9594,369.2788 401.6064,336.0058 401.6064,336.0058 C466.9784,290.9898 496.0754,225.8798 496.0754,225.8798 C496.0754,225.8798 520.9934,236.6898 545.0714,249.1058 C572.1464,263.0678 593.0234,276.5068 593.0234,276.5068" id="Fill-2546" fill="#D3D6E2"></path>
            <path d="M462.9238,278.8174 C462.7488,278.8174 462.5738,278.7604 462.4268,278.6434 C462.0798,278.3704 462.0218,277.8674 462.2968,277.5204 C469.6658,268.2134 476.5298,258.4514 482.6968,248.5054 C482.9328,248.1304 483.4268,248.0184 483.7988,248.2484 C484.1738,248.4814 484.2888,248.9744 484.0568,249.3494 C477.8568,259.3464 470.9578,269.1594 463.5498,278.5134 C463.3928,278.7134 463.1598,278.8174 462.9238,278.8174" id="Fill-2548" fill="#1D213A"></path>
            <path d="M568.6128,385.4199 L577.5618,431.1269 C577.5618,431.1269 537.8398,439.9099 491.5418,457.4519 C491.5418,457.4519 472.2298,453.9289 455.9198,457.8439 C442.2338,461.1279 430.2718,485.3009 434.4878,491.3119 C439.0878,497.8679 447.0148,493.5629 447.0148,493.5629 C447.0148,493.5629 449.2378,496.4959 454.4518,497.3789 C460.2258,498.3579 463.1618,495.5989 463.1618,495.5989 C463.1618,495.5989 465.5108,499.4159 472.9438,499.5839 C482.7678,499.8069 487.8558,497.6729 489.0288,494.9309 C489.0288,494.9309 496.9888,496.1079 504.9478,491.0189 C504.9478,491.0189 581.1498,490.2349 611.9438,482.7979 C642.7378,475.3599 641.2848,465.1619 638.1048,443.5089 C633.9298,415.0779 624.5998,373.9769 624.5998,373.9769 L568.6128,385.4199 Z" id="Fill-2550" fill="#FFC4A3"></path>
            <path d="M521.0835,237.2891 L553.8815,183.8851 L590.0225,202.0021 L567.8085,261.4301 C567.8085,261.4301 529.8705,265.5461 519.5695,258.0991 C515.2105,254.9471 521.0835,237.2891 521.0835,237.2891" id="Fill-2552" fill="#FFC4A3"></path>
            <path d="M553.8818,183.8848 L528.8048,224.7158 C535.2428,226.5398 539.0848,226.2608 539.0848,226.2608 L560.1198,187.0118 L553.8818,183.8848 Z" id="Fill-2554" fill="#F99175"></path>
            <path d="M601.1621,175.9443 C601.1621,175.9443 588.9161,156.8733 568.9271,156.837263 C548.7911,156.8003 528.2751,184.6413 528.240067,207.1043 C528.2051,229.2203 555.8971,236.4633 573.4621,225.1103 C591.6331,213.3663 601.1621,175.9443 601.1621,175.9443" id="Fill-2556" fill="#FFC4A3"></path>
            <path d="M605.4805,177.0723 L593.9435,203.4163 L590.8595,201.8913 C597.3985,183.4633 591.4205,165.9103 591.4205,165.9103 C591.4205,165.9103 599.3115,169.6693 605.4805,177.0723" id="Fill-2558" fill="#1D213A"></path>
            <path d="M601.1621,175.9443 C601.1621,175.9443 586.5501,177.6833 575.4051,171.3663 C565.7811,165.9103 559.8271,154.3313 564.4361,148.8713 C569.0451,143.4113 589.7491,143.1413 604.0001,161.6493 L601.1621,175.9443 Z" id="Fill-2560" fill="#1D213A"></path>
            <path d="M629.0483,394.5283 C626.5423,382.5343 624.6003,373.9763 624.6003,373.9763 L568.6123,385.4203 L574.3463,414.7053 C619.8553,415.0373 629.0443,394.5383 629.0483,394.5283" id="Fill-2562" fill="#F99175"></path>
            <path d="M587.481,199.3174 C587.481,199.3174 597.207,198.7204 598.831,205.8644 C600.26,212.1554 595.299,217.6014 588.874,218.0634 C582.521,218.5214 578.736,215.3894 578.736,215.3894 L587.481,199.3174 Z" id="Fill-2564" fill="#FFC4A3"></path>
            <path d="M593.0234,276.5068 C606.9844,285.1178 616.8654,335.0438 641.9174,383.5828 C641.9174,383.5828 629.3224,399.3148 603.8474,405.1768 C574.4294,411.9458 560.1244,403.9968 560.1244,403.9968 C560.1244,403.9968 552.1114,368.4958 552.117397,316.9938 L593.0234,276.5068 Z" id="Fill-2566" fill="#D3D6E2"></path>
            <path d="M554.5347,366.8457 C554.1287,366.8457 553.7817,366.5367 553.7407,366.1247 C552.1317,349.9897 551.3157,333.4587 551.317696,316.9947 C551.317696,316.5527 551.6757,316.1957 552.1177,316.1957 C552.5597,316.1957 552.9177,316.5527 552.9177,316.9947 C552.9157,333.4067 553.7287,349.8827 555.3317,365.9657 C555.3767,366.4067 555.0547,366.7967 554.6157,366.8407 C554.5897,366.8437 554.5607,366.8457 554.5347,366.8457" id="Fill-2568" fill="#1D213A"></path>
            <path d="M577.5596,431.9268 C577.1816,431.9268 576.8456,431.6578 576.7756,431.2718 C576.6936,430.8378 576.9816,430.4198 577.4156,430.3408 C592.7536,427.4938 604.9286,428.7658 605.0486,428.7798 C605.4876,428.8278 605.8046,429.2218 605.7576,429.6608 C605.7096,430.1018 605.3036,430.4118 604.8766,430.3698 C604.7576,430.3578 592.7986,429.1138 577.7066,431.9118 C577.6586,431.9218 577.6076,431.9268 577.5596,431.9268" id="Fill-2570" fill="#1D213A"></path>
            <path d="M447.0142,494.3623 C446.7722,494.3623 446.5332,494.2533 446.3752,494.0443 C445.0782,492.3253 444.6232,489.7713 445.0622,486.6623 C445.8582,481.0393 449.5502,474.0213 453.1252,471.3413 C453.4762,471.0763 453.9782,471.1483 454.2452,471.5023 C454.5102,471.8543 454.4372,472.3563 454.0842,472.6223 C451.2162,474.7713 447.4562,481.1593 446.6472,486.8853 C446.2692,489.5653 446.6162,491.7083 447.6532,493.0813 C447.9192,493.4323 447.8482,493.9343 447.4952,494.2013 C447.3512,494.3093 447.1832,494.3623 447.0142,494.3623" id="Fill-2572" fill="#1D213A"></path>
            <path d="M463.1626,496.3984 C462.9596,496.3984 462.7546,496.3204 462.5986,496.1664 C457.2846,490.8884 461.5956,479.3414 465.5016,474.3594 C465.7716,474.0094 466.2756,473.9514 466.6246,474.2234 C466.9726,474.4974 467.0336,474.9984 466.7616,475.3464 C463.3646,479.6774 459.2156,490.5514 463.7266,495.0314 C464.0386,495.3414 464.0426,495.8484 463.7296,496.1624 C463.5736,496.3204 463.3696,496.3984 463.1626,496.3984" id="Fill-2574" fill="#1D213A"></path>
            <path d="M489.0283,495.7314 C488.8863,495.7314 488.7423,495.6934 488.6113,495.6144 C488.2343,495.3844 488.1153,494.8924 488.3453,494.5134 C489.2473,493.0364 489.2523,490.2444 487.6863,488.3104 C485.8093,486.0004 482.3423,485.5854 477.9093,487.1534 C477.4983,487.2964 477.0363,487.0814 476.8893,486.6644 C476.7423,486.2484 476.9613,485.7914 477.3783,485.6434 C484.2783,483.2094 487.5783,485.6374 488.9283,487.3024 C491.0373,489.9064 490.9063,493.3904 489.7113,495.3484 C489.5613,495.5954 489.2973,495.7314 489.0283,495.7314" id="Fill-2576" fill="#1D213A"></path>
            <path d="M476.6689,491.4639 C476.6389,491.4639 476.6079,491.4629 476.5779,491.4589 C476.1389,491.4089 475.8239,491.0139 475.8719,490.5749 C476.5719,484.3309 480.5449,478.7319 480.7139,478.4969 C480.9709,478.1329 481.4739,478.0529 481.8299,478.3129 C482.1899,478.5699 482.2719,479.0679 482.0139,479.4279 C481.9749,479.4829 478.1139,484.9329 477.4629,490.7529 C477.4159,491.1619 477.0699,491.4639 476.6689,491.4639" id="Fill-2578" fill="#1D213A"></path>
            <path d="M586.5659,208.166 C586.2929,208.166 586.0249,208.025 585.8769,207.771 C585.6519,207.391 585.7799,206.9 586.1599,206.677 C591.6819,203.424 595.5329,206.62 595.6949,206.756 C596.0309,207.044 596.0719,207.549 595.7859,207.885 C595.4989,208.221 594.9969,208.263 594.6599,207.975 C594.5059,207.85 591.4629,205.411 586.9719,208.055 C586.8439,208.13 586.7049,208.166 586.5659,208.166" id="Fill-2580" fill="#1D213A"></path>
            <path d="M57.1357,489.0303 L86.7147,476.6493 L75.9257,445.1553 C75.9257,445.1553 84.3417,438.6433 81.4057,430.8143 C79.4787,425.6773 76.8617,422.1543 76.8617,422.1543 L70.7717,424.8783 C70.7717,424.8783 60.4627,401.9123 36.5847,401.965208 C12.6777,402.0173 0.0357,419.6643 0.0357,419.6643 L57.1357,489.0303 Z" id="Fill-2582" fill="#1D213A"></path>
            <path d="M231.7778,475.7646 L133.2588,475.7646 C133.0738,483.0836 134.9028,489.0306 134.9028,489.0306 L230.1538,489.0306 L231.7778,475.7646 Z" id="Fill-2584" fill="#E8EAEF"></path>
            <path d="M69.8789,483.6963 L69.8789,483.6963 L11.1169,409.6393 C3.8219,414.4203 0.0359,419.6643 0.0359,419.6643 L57.1359,489.0303 L69.8789,483.6963 Z" id="Fill-2586" fill="#E8EAEF"></path>
            <path d="M66.8564,431.9404 C66.6294,431.9404 66.4044,431.8454 66.2474,431.6594 C65.9604,431.3234 66.0024,430.8174 66.3374,430.5314 C69.5534,427.7944 69.9734,424.8094 69.9784,424.7784 C70.0344,424.3414 70.4314,424.0394 70.8704,424.0864 C71.3084,424.1404 71.6194,424.5364 71.5654,424.9734 C71.5484,425.1194 71.0934,428.5834 67.3754,431.7504 C67.2254,431.8784 67.0414,431.9404 66.8564,431.9404" id="Fill-2588" fill="#E8EAEF"></path>
            <path d="M60.9844,426.8516 C60.7034,426.8516 60.4294,426.7036 60.2844,426.4396 C60.0704,426.0516 60.2114,425.5656 60.5974,425.3516 C65.1734,422.8236 66.0614,418.3266 66.0704,418.2816 C66.1514,417.8466 66.5784,417.5546 67.0034,417.6426 C67.4374,417.7236 67.7234,418.1406 67.6424,418.5756 C67.6034,418.7886 66.6004,423.8646 61.3724,426.7516 C61.2484,426.8206 61.1154,426.8516 60.9844,426.8516" id="Fill-2590" fill="#E8EAEF"></path>
            <path d="M55.5049,420.8496 C55.2359,420.8496 54.9719,420.7136 54.8219,420.4666 C54.5919,420.0886 54.7109,419.5966 55.0879,419.3676 C59.9749,416.3876 60.1779,411.9556 60.1849,411.7686 C60.1999,411.3286 60.5429,410.9976 61.0079,410.9946 C61.4489,411.0076 61.7959,411.3716 61.7849,411.8126 C61.7779,412.0346 61.5779,417.2836 55.9219,420.7326 C55.7909,420.8126 55.6469,420.8496 55.5049,420.8496" id="Fill-2592" fill="#E8EAEF"></path>
            <path d="M590.4316,179.1484 C584.8496,179.1484 577.5336,178.0734 571.2286,173.6034 C559.4426,165.2484 562.1756,152.0344 562.2046,151.9034 C562.3006,151.4714 562.7286,151.2054 563.1566,151.2924 C563.5876,151.3854 563.8616,151.8124 563.7676,152.2444 C563.6596,152.7444 561.2486,164.5674 572.1536,172.2964 C583.4566,180.3144 598.7346,176.7124 598.8896,176.6744 C599.3106,176.5754 599.7516,176.8344 599.8546,177.2624 C599.9596,177.6904 599.6976,178.1234 599.2676,178.2284 C598.9606,178.3024 595.3766,179.1484 590.4316,179.1484" id="Fill-2594" fill="#1D213A"></path>
            <path d="M589.8203,262.3301 C589.2893,262.3301 588.9593,262.3181 588.8733,262.3151 C588.4333,262.2971 588.0893,261.9251 588.1063,261.4841 C588.1253,261.0421 588.5343,260.7481 588.9373,260.7161 C589.1053,260.7261 604.9703,261.2481 613.8113,252.9721 C622.7793,244.5751 625.1013,233.6841 620.5253,221.4781 C620.0423,220.1901 619.4973,218.8021 618.9143,217.3141 C615.1793,207.7891 610.0643,194.7441 609.3823,179.0841 C609.3643,178.6431 609.7063,178.2701 610.1483,178.249737 C610.5893,178.2371 610.9643,178.5751 610.9833,179.0161 C611.6523,194.4081 616.7093,207.3091 620.4033,216.7291 C620.9893,218.2251 621.5373,219.6221 622.0223,220.9161 C626.8453,233.7761 624.3843,245.2661 614.9043,254.1411 C606.7483,261.7761 593.4903,262.3301 589.8203,262.3301" id="Fill-2596" fill="#1D213A"></path>
            <path d="M540.1704,179.0508 C540.1704,180.0778 541.0034,180.9118 542.0314,180.9118 C543.0594,180.9118 543.8924,180.0778 543.8924,179.0508 C543.8924,178.0228 543.0594,177.1898 542.0314,177.1898 C541.0034,177.1898 540.1704,178.0228 540.1704,179.0508" id="Fill-2598" fill="#1D213A"></path>
            <path d="M561.3774,192.1543 C561.3774,193.1813 562.2104,194.0153 563.2384,194.0153 C564.2664,194.0153 565.0994,193.1813 565.0994,192.1543 C565.0994,191.1263 564.2664,190.2933 563.2384,190.2933 C562.2104,190.2933 561.3774,191.1263 561.3774,192.1543" id="Fill-2600" fill="#1D213A"></path>
            <path d="M551.582,169.8467 C550.95,170.1187 549.047,169.5277 547.045,169.0117 C545.053,168.4567 543.109,168.0187 542.698,167.4657 C542.253,166.9227 544.397,166.4487 547.509,167.2797 C550.62,168.1157 552.239,169.5987 551.582,169.8467" id="Fill-2602" fill="#1D213A"></path>
            <path d="M575.3628,188.7715 C574.5158,188.6105 572.7188,186.6875 570.7728,184.7725 C568.8578,182.8255 566.9358,181.0305 566.7738,180.1825 C566.5698,179.3225 569.2008,180.3285 572.2108,183.3345 C575.2168,186.3435 576.2228,188.9755 575.3628,188.7715" id="Fill-2604" fill="#1D213A"></path>
            <path d="M563.6299,183.1719 C558.4579,183.1719 554.2519,187.3779 554.2519,192.5499 C554.2519,197.7219 558.4579,201.9279 563.6299,201.9279 C568.8019,201.9279 573.0079,197.7219 573.0079,192.5499 C573.0079,187.3779 568.8019,183.1719 563.6299,183.1719 M563.6299,203.5279 C557.5769,203.5279 552.6519,198.6039 552.6519,192.5499 C552.6519,186.4969 557.5769,181.5719 563.6299,181.5719 C569.6829,181.5719 574.6079,186.4969 574.6079,192.5499 C574.6079,198.6039 569.6829,203.5279 563.6299,203.5279" id="Fill-2606" fill="#1D213A"></path>
            <path d="M541.7002,168.1826 C538.5522,168.1826 535.3752,169.9586 533.5782,173.0726 C530.9942,177.5486 532.2302,183.1196 536.3332,185.4906 C540.4372,187.8576 545.8802,186.1436 548.4662,181.6656 C549.7232,179.4866 550.1252,176.9896 549.5942,174.6326 C549.0672,172.3016 547.6892,170.3886 545.7112,169.2466 C544.4592,168.5256 543.0832,168.1826 541.7002,168.1826 M540.3392,188.1546 C538.6862,188.1546 537.0362,187.7426 535.5332,186.8746 C530.6662,184.0626 529.1672,177.5126 532.1942,172.2716 C535.2192,167.0286 541.6422,165.0526 546.5112,167.8626 C548.8802,169.2296 550.5282,171.5096 551.1552,174.2816 C551.7732,177.0316 551.3112,179.9376 549.8502,182.4656 C547.7582,186.0886 544.0422,188.1546 540.3392,188.1546" id="Fill-2608" fill="#1D213A"></path>
            <path d="M549.186,184.8447 L545.072,188.3107 C545.072,188.3107 543.353,184.7317 540.17,186.7487 C537.7,188.3147 539.07,194.0347 544.462,194.015747" id="Fill-2610" fill="#FFC4A3"></path>
            <path d="M544.436,194.8154 C540.88,194.8154 538.959,192.5674 538.395,190.6354 C537.849,188.7634 538.389,186.9294 539.742,186.0734 C540.852,185.3674 541.947,185.1624 543,185.4654 C544.044,185.7634 544.794,186.5124 545.253,187.1124 L548.67,184.2324 C549.008,183.9534 549.513,183.9924 549.799,184.3304 C550.083,184.6674 550.039,185.1714 549.702,185.4584 L545.588,188.9234 C545.397,189.0814 545.139,189.1464 544.906,189.0914 C544.666,189.0424 544.461,188.8804 544.352,188.6594 C544.346,188.6464 543.685,187.3204 542.552,187.0024 C541.949,186.8284 541.316,186.9704 540.599,187.4234 C539.855,187.8954 539.586,189.0054 539.932,190.1874 C540.359,191.6534 541.768,193.2154 544.436,193.2154 C544.445,193.2154 544.449,193.2134 544.463,193.2154 C544.903,193.2154 545.261,193.5724 545.263,194.0124 C545.264,194.4654 544.913,194.8104 544.436,194.8154" id="Fill-2612" fill="#F99175"></path>
            <path d="M555.897,186.752 C555.53,186.752 555.2,186.498 555.116,186.127 C554.075,181.494 549.96,181.692 549.788,181.711 C549.355,181.75 548.967,181.408 548.936,180.967 C548.906,180.526 549.236,180.147 549.675,180.114 C551.635,179.986 555.602,180.977 556.678,185.776 C556.773,186.208 556.503,186.636 556.072,186.732 C556.013,186.745 555.955,186.752 555.897,186.752" id="Fill-2614" fill="#1D213A"></path>
            <path d="M602.2236,215.6357 C602.1216,215.6357 602.0206,215.6167 601.9206,215.5757 C601.5126,215.4087 601.3156,214.9427 601.4826,214.5327 C601.5186,214.4437 605.0576,205.5727 599.2286,202.7127 C594.3866,200.3357 573.7596,193.3777 573.5536,193.3077 C573.1346,193.1667 572.9096,192.7127 573.0506,192.2947 C573.1906,191.8767 573.6506,191.6567 574.0626,191.7917 C574.9156,192.0797 594.9966,198.8537 599.9326,201.2757 C605.6706,204.0907 604.4236,211.5747 602.9646,215.1387 C602.8376,215.4487 602.5386,215.6357 602.2236,215.6357" id="Fill-2616" fill="#1D213A"></path>
            <path d="M545.8794,201.2246 C542.3804,200.4646 541.5964,197.6626 539.2354,198.9056 C536.4964,200.3476 537.9574,207.3896 544.1434,208.2576 C549.4404,208.9996 552.8014,203.7406 550.9904,201.9606 C549.6094,200.6056 548.0834,201.7036 545.8794,201.2246" id="Fill-2618" fill="#1D213A"></path>
            <path d="M540.5786,206.7549 C541.5176,207.4889 542.6886,208.0529 544.1436,208.2569 C547.4616,208.7229 550.0186,206.8319 551.0216,204.9169 C550.5026,204.4999 549.9386,204.1249 549.2906,203.8589 C546.0216,202.5209 542.3506,203.8229 540.5786,206.7549" id="Fill-2620" fill="#FF5A5A"></path>
            <path d="M551.0879,205.1348 C551.7749,203.9168 551.8739,202.6688 551.1499,201.9588 C549.7339,200.5688 548.1679,201.6948 545.9069,201.2038 C542.3179,200.4248 541.5129,197.5498 539.0919,198.8238 C538.3879,199.1958 537.9549,199.9248 537.7999,200.8248 C538.9599,202.0318 540.6919,203.3588 543.3039,204.2468 C546.4989,205.3338 549.2299,205.3448 551.0879,205.1348" id="Fill-2622" fill="#E8EAEF"></path>
        </g>
    </g>
</svg>