<?xml version="1.0" encoding="UTF-8"?>
<svg width="418px" height="782px" viewBox="0 0 418 782" version="1.1" xmlns="http://www.w3.org/2000/svg" xmlns:xlink="http://www.w3.org/1999/xlink">
    <title>Illustration 7 0</title>
    <g id="🤩-Illustrations" stroke="none" stroke-width="1" fill="none" fill-rule="evenodd">
        <g id="Illustration-7">
            <path d="M89.3203,56.4082 C84.8453,61.0262 78.9613,64.0852 73.5833,66.1042 L73.5833,76.1392 C73.5833,76.4472 73.6493,76.7362 73.6743,77.0362 C83.7893,68.0442 102.3073,52.7512 107.5663,56.3082 C110.7033,58.4372 107.7973,63.3662 104.9883,68.1312 C102.3943,72.5302 99.7113,77.0802 101.8773,78.8732 C104.5163,81.0592 111.9113,75.8222 118.3833,70.2212 L118.3833,53.7402 C118.3833,47.5542 113.3693,42.5402 107.1833,42.5402 L97.5113,42.5402 C95.8883,47.2382 93.3413,52.2592 89.3203,56.4082" id="Fill-1025" fill="#CDD1DF"></path>
            <path d="M101.1611,79.7363 C98.2631,77.3333 101.1911,72.3653 104.0231,67.5613 C106.5701,63.2403 109.2031,58.7733 106.9371,57.2363 C102.5841,54.2773 84.8801,68.5803 73.8191,78.4233 C74.8741,83.5133 79.3811,87.3403 84.7831,87.3403 L107.1831,87.3403 C113.3691,87.3403 118.3841,82.3253 118.3841,76.1393 L118.3841,71.7293 C112.0161,77.1533 104.3881,82.4053 101.1611,79.7363" id="Fill-1027" fill="#CDD1DF"></path>
            <path d="M88.5176,55.6299 C92.3096,51.7159 94.7446,46.9979 96.3266,42.5399 L84.7836,42.5399 C78.5976,42.5399 73.5826,47.5539 73.5826,53.7399 L73.5826,64.9119 C78.7236,62.9419 84.2786,60.0039 88.5176,55.6299" id="Fill-1029" fill="#CDD1DF"></path>
            <path d="M135.665,566.6875 C132.765,566.6875 131.238,565.1625 130.01,563.9365 C128.864,562.7915 127.96,561.8875 126.054,561.8875 C124.147,561.8875 123.243,562.7915 122.098,563.9365 C120.869,565.1625 119.343,566.6875 116.442,566.6875 C113.548,566.6875 112.022,565.1625 110.798,563.9365 C109.653,562.7905 108.751,561.8875 106.849,561.8875 C104.947,561.8875 104.044,562.7905 102.9,563.9365 C101.676,565.1625 100.15,566.6875 97.255,566.6875 C94.36,566.6875 92.837,565.1605 91.611,563.9365 C90.468,562.7905 89.564,561.8875 87.665,561.8875 C87.002,561.8875 86.465,561.3505 86.465,560.6875 C86.465,560.0245 87.002,559.4875 87.665,559.4875 C90.56,559.4875 92.083,561.0145 93.309,562.2385 C94.452,563.3845 95.355,564.2875 97.255,564.2875 C99.157,564.2875 100.06,563.3845 101.204,562.2385 C102.429,561.0125 103.954,559.4875 106.849,559.4875 C109.744,559.4875 111.269,561.0125 112.494,562.2385 C113.638,563.3845 114.541,564.2875 116.442,564.2875 C118.349,564.2875 119.255,563.3825 120.4,562.2375 C121.629,561.0125 123.155,559.4875 126.054,559.4875 C128.952,559.4875 130.478,561.0125 131.707,562.2375 C132.852,563.3825 133.759,564.2875 135.665,564.2875 C136.327,564.2875 136.864,564.8245 136.864,565.4875 C136.864,566.1495 136.327,566.6875 135.665,566.6875" id="Fill-1031" fill="#CDD1DF"></path>
            <path d="M135.665,579.4873 C132.765,579.4873 131.238,577.9623 130.01,576.7363 C128.864,575.5923 127.96,574.6873 126.054,574.6873 C124.147,574.6873 123.243,575.5923 122.098,576.7363 C120.869,577.9623 119.343,579.4873 116.442,579.4873 C113.548,579.4873 112.022,577.9623 110.798,576.7363 C109.653,575.5903 108.751,574.6873 106.849,574.6873 C104.947,574.6873 104.044,575.5903 102.9,576.7363 C101.676,577.9623 100.15,579.4873 97.255,579.4873 C94.36,579.4873 92.837,577.9613 91.611,576.7363 C90.468,575.5903 89.564,574.6873 87.665,574.6873 C87.002,574.6873 86.465,574.1503 86.465,573.4873 C86.465,572.8243 87.002,572.2873 87.665,572.2873 C90.56,572.2873 92.083,573.8143 93.309,575.0393 C94.452,576.1843 95.355,577.0873 97.255,577.0873 C99.157,577.0873 100.06,576.1843 101.204,575.0393 C102.429,573.8123 103.954,572.2873 106.849,572.2873 C109.744,572.2873 111.269,573.8123 112.494,575.0393 C113.638,576.1843 114.541,577.0873 116.442,577.0873 C118.349,577.0873 119.255,576.1823 120.4,575.0373 C121.629,573.8123 123.155,572.2873 126.054,572.2873 C128.952,572.2873 130.478,573.8123 131.707,575.0373 C132.852,576.1823 133.759,577.0873 135.665,577.0873 C136.327,577.0873 136.864,577.6253 136.864,578.2873 C136.864,578.9493 136.327,579.4873 135.665,579.4873" id="Fill-1033" fill="#CDD1DF"></path>
            <path d="M135.665,592.2876 C132.765,592.2876 131.238,590.7626 130.01,589.5356 C128.864,588.3916 127.96,587.4876 126.054,587.4876 C124.147,587.4876 123.243,588.3916 122.098,589.5356 C120.869,590.7626 119.343,592.2876 116.442,592.2876 C113.548,592.2876 112.022,590.7626 110.798,589.5356 C109.653,588.3906 108.751,587.4876 106.849,587.4876 C104.947,587.4876 104.044,588.3906 102.9,589.5356 C101.676,590.7626 100.15,592.2876 97.255,592.2876 C94.36,592.2876 92.837,590.7606 91.611,589.5356 C90.468,588.3906 89.564,587.4876 87.665,587.4876 C87.002,587.4876 86.465,586.9496 86.465,586.2876 C86.465,585.6246 87.002,585.0876 87.665,585.0876 C90.56,585.0876 92.083,586.6136 93.309,587.8386 C94.452,588.9846 95.355,589.8876 97.255,589.8876 C99.157,589.8876 100.06,588.9846 101.204,587.8386 C102.429,586.6126 103.954,585.0876 106.849,585.0876 C109.744,585.0876 111.269,586.6126 112.494,587.8386 C113.638,588.9846 114.541,589.8876 116.442,589.8876 C118.349,589.8876 119.255,588.9826 120.4,587.8376 C121.629,586.6126 123.155,585.0876 126.054,585.0876 C128.952,585.0876 130.478,586.6126 131.707,587.8376 C132.852,588.9826 133.759,589.8876 135.665,589.8876 C136.327,589.8876 136.864,590.4246 136.864,591.0876 C136.864,591.7496 136.327,592.2876 135.665,592.2876" id="Fill-1035" fill="#CDD1DF"></path>
            <path d="M135.665,605.0874 C132.765,605.0874 131.238,603.5624 130.01,602.3364 C128.864,601.1914 127.96,600.2874 126.054,600.2874 C124.147,600.2874 123.243,601.1914 122.098,602.3364 C120.869,603.5624 119.343,605.0874 116.442,605.0874 C113.548,605.0874 112.022,603.5624 110.798,602.3364 C109.653,601.1904 108.751,600.2874 106.849,600.2874 C104.947,600.2874 104.044,601.1904 102.9,602.3364 C101.676,603.5624 100.15,605.0874 97.255,605.0874 C94.36,605.0874 92.837,603.5614 91.611,602.3364 C90.468,601.1904 89.564,600.2874 87.665,600.2874 C87.002,600.2874 86.465,599.7504 86.465,599.0874 C86.465,598.4244 87.002,597.8874 87.665,597.8874 C90.56,597.8874 92.083,599.4144 93.309,600.6394 C94.452,601.7844 95.355,602.6874 97.255,602.6874 C99.157,602.6874 100.06,601.7844 101.204,600.6394 C102.429,599.4124 103.954,597.8874 106.849,597.8874 C109.744,597.8874 111.269,599.4124 112.494,600.6394 C113.638,601.7844 114.541,602.6874 116.442,602.6874 C118.349,602.6874 119.255,601.7824 120.4,600.6374 C121.629,599.4124 123.155,597.8874 126.054,597.8874 C128.952,597.8874 130.478,599.4124 131.707,600.6374 C132.852,601.7824 133.759,602.6874 135.665,602.6874 C136.327,602.6874 136.864,603.2254 136.864,603.8874 C136.864,604.5494 136.327,605.0874 135.665,605.0874" id="Fill-1037" fill="#CDD1DF"></path>
            <path d="M316.5898,242.5508 C316.5898,244.3178 315.1568,245.7508 313.3898,245.7508 C311.6228,245.7508 310.1908,244.3178 310.1908,242.5508 C310.1908,240.7838 311.6228,239.3508 313.3898,239.3508 C315.1568,239.3508 316.5898,240.7838 316.5898,242.5508" id="Fill-1039" fill="#CDD1DF"></path>
            <path d="M348.5898,242.5508 C348.5898,244.3178 347.1568,245.7508 345.3898,245.7508 C343.6228,245.7508 342.1908,244.3178 342.1908,242.5508 C342.1908,240.7838 343.6228,239.3508 345.3898,239.3508 C347.1568,239.3508 348.5898,240.7838 348.5898,242.5508" id="Fill-1041" fill="#CDD1DF"></path>
            <path d="M380.5898,242.5508 C380.5898,244.3178 379.1568,245.7508 377.3898,245.7508 C375.6228,245.7508 374.1908,244.3178 374.1908,242.5508 C374.1908,240.7838 375.6228,239.3508 377.3898,239.3508 C379.1568,239.3508 380.5898,240.7838 380.5898,242.5508" id="Fill-1043" fill="#CDD1DF"></path>
            <path d="M412.5898,242.5508 C412.5898,244.3178 411.1568,245.7508 409.3898,245.7508 C407.6228,245.7508 406.1908,244.3178 406.1908,242.5508 C406.1908,240.7838 407.6228,239.3508 409.3898,239.3508 C411.1568,239.3508 412.5898,240.7838 412.5898,242.5508" id="Fill-1045" fill="#CDD1DF"></path>
            <path d="M316.5898,274.5508 C316.5898,276.3178 315.1568,277.7508 313.3898,277.7508 C311.6228,277.7508 310.1908,276.3178 310.1908,274.5508 C310.1908,272.7838 311.6228,271.3508 313.3898,271.3508 C315.1568,271.3508 316.5898,272.7838 316.5898,274.5508" id="Fill-1047" fill="#CDD1DF"></path>
            <path d="M348.5898,274.5508 C348.5898,276.3178 347.1568,277.7508 345.3898,277.7508 C343.6228,277.7508 342.1908,276.3178 342.1908,274.5508 C342.1908,272.7838 343.6228,271.3508 345.3898,271.3508 C347.1568,271.3508 348.5898,272.7838 348.5898,274.5508" id="Fill-1049" fill="#CDD1DF"></path>
            <path d="M382.1904,274.5508 C382.1904,277.2018 380.0414,279.3508 377.3894,279.3508 C374.7394,279.3508 372.5894,277.2018 372.5894,274.5508 C372.5894,271.8998 374.7394,269.7508 377.3894,269.7508 C380.0414,269.7508 382.1904,271.8998 382.1904,274.5508" id="Fill-1051" fill="#CDD1DF"></path>
            <path d="M414.1904,274.5508 C414.1904,277.2018 412.0414,279.3508 409.3894,279.3508 C406.7394,279.3508 404.5894,277.2018 404.5894,274.5508 C404.5894,271.8998 406.7394,269.7508 409.3894,269.7508 C412.0414,269.7508 414.1904,271.8998 414.1904,274.5508" id="Fill-1053" fill="#CDD1DF"></path>
            <path d="M316.5898,306.5508 C316.5898,308.3178 315.1568,309.7508 313.3898,309.7508 C311.6228,309.7508 310.1908,308.3178 310.1908,306.5508 C310.1908,304.7838 311.6228,303.3508 313.3898,303.3508 C315.1568,303.3508 316.5898,304.7838 316.5898,306.5508" id="Fill-1055" fill="#CDD1DF"></path>
            <path d="M350.1904,306.5508 C350.1904,309.2018 348.0414,311.3508 345.3894,311.3508 C342.7394,311.3508 340.5894,309.2018 340.5894,306.5508 C340.5894,303.8998 342.7394,301.7508 345.3894,301.7508 C348.0414,301.7508 350.1904,303.8998 350.1904,306.5508" id="Fill-1057" fill="#CDD1DF"></path>
            <path d="M382.1904,306.5508 C382.1904,309.2018 380.0414,311.3508 377.3894,311.3508 C374.7394,311.3508 372.5894,309.2018 372.5894,306.5508 C372.5894,303.8998 374.7394,301.7508 377.3894,301.7508 C380.0414,301.7508 382.1904,303.8998 382.1904,306.5508" id="Fill-1059" fill="#CDD1DF"></path>
            <path d="M414.1904,306.5508 C414.1904,309.2018 412.0414,311.3508 409.3894,311.3508 C406.7394,311.3508 404.5894,309.2018 404.5894,306.5508 C404.5894,303.8998 406.7394,301.7508 409.3894,301.7508 C412.0414,301.7508 414.1904,303.8998 414.1904,306.5508" id="Fill-1061" fill="#CDD1DF"></path>
            <path d="M316.5898,338.5508 C316.5898,340.3178 315.1568,341.7508 313.3898,341.7508 C311.6228,341.7508 310.1908,340.3178 310.1908,338.5508 C310.1908,336.7838 311.6228,335.3508 313.3898,335.3508 C315.1568,335.3508 316.5898,336.7838 316.5898,338.5508" id="Fill-1063" fill="#CDD1DF"></path>
            <path d="M350.1904,338.5508 C350.1904,341.2018 348.0414,343.3508 345.3894,343.3508 C342.7394,343.3508 340.5894,341.2018 340.5894,338.5508 C340.5894,335.8998 342.7394,333.7508 345.3894,333.7508 C348.0414,333.7508 350.1904,335.8998 350.1904,338.5508" id="Fill-1065" fill="#CDD1DF"></path>
            <path d="M382.1904,338.5508 C382.1904,341.2018 380.0414,343.3508 377.3894,343.3508 C374.7394,343.3508 372.5894,341.2018 372.5894,338.5508 C372.5894,335.8998 374.7394,333.7508 377.3894,333.7508 C380.0414,333.7508 382.1904,335.8998 382.1904,338.5508" id="Fill-1067" fill="#CDD1DF"></path>
            <path d="M414.1904,338.5508 C414.1904,341.2018 412.0414,343.3508 409.3894,343.3508 C406.7394,343.3508 404.5894,341.2018 404.5894,338.5508 C404.5894,335.8998 406.7394,333.7508 409.3894,333.7508 C412.0414,333.7508 414.1904,335.8998 414.1904,338.5508" id="Fill-1069" fill="#CDD1DF"></path>
            <path d="M76.6104,328.4063 C46.6134,328.4063 22.2104,304.0033 22.2104,274.0063 L41.4104,274.0063 C41.4104,293.4153 57.2004,309.2063 76.6104,309.2063 L76.6104,328.4063 Z" id="Fill-1071" fill="#CDD1DF"></path>
            <polygon id="Fill-1073" fill="#CDD1DF" points="417.3896 549.2607 409.3896 557.2607 401.3896 549.2607 409.3896 541.2607"></polygon>
            <polygon id="Fill-1075" fill="#CDD1DF" points="16.6104 354.8608 8.6104 362.8608 0.6104 354.8608 8.6104 346.8608"></polygon>
            <path d="M215.8096,692.6514 L215.8096,781.0514 L142.4766,781.0514 C142.4766,781.0514 138.1766,766.4514 145.2766,756.1844 C153.5276,744.2544 172.9636,746.3464 172.9636,746.3464 L170.0776,692.6514 L215.8096,692.6514 Z" id="Fill-1077" fill="#FFC4A3"></path>
            <path d="M215.8096,692.6514 L215.8096,781.0514 L289.1436,781.0514 C289.1436,781.0514 293.4436,766.4514 286.3436,756.1844 C278.0926,744.2544 258.6566,746.3464 258.6566,746.3464 L261.5426,692.6514 L215.8096,692.6514 Z" id="Fill-1079" fill="#FFC4A3"></path>
            <path d="M171.2891,715.1953 C184.4131,719.1473 199.5771,721.5773 215.8101,721.9883 L215.8101,692.6513 L170.0771,692.6513 L171.2891,715.1953 Z" id="Fill-1081" fill="#F99175"></path>
            <path d="M215.8105,721.9888 C217.4445,722.0298 219.0885,722.0508 220.7435,722.0508 C234.8085,722.0508 248.1535,720.5268 260.1905,717.8088 L261.5425,692.6508 L215.8105,692.6508 L215.8105,721.9888 Z" id="Fill-1083" fill="#F99175"></path>
            <path d="M251.877,104.4653 C251.59,104.4653 251.31,104.3093 251.168,104.0353 C250.963,103.6433 251.114,103.1603 251.507,102.9563 C263.657,96.6173 268.582,86.8603 265.374,75.4833 C261.648,62.2683 245.645,54.4043 245.483,54.3263 C245.087,54.1343 244.919,53.6563 245.111,53.2583 C245.304,52.8593 245.783,52.6953 246.181,52.8853 C246.864,53.2163 262.994,61.1473 266.915,75.0483 C270.349,87.2333 265.14,97.6473 252.247,104.3753 C252.129,104.4363 252.002,104.4653 251.877,104.4653" id="Fill-1085" fill="#1D213A"></path>
            <path d="M169.2773,96.5981 C169.0413,96.5981 168.8053,96.4941 168.6473,96.2931 C164.0353,90.4221 161.0083,77.3751 167.3293,68.1471 C173.8353,58.6421 184.9733,53.1181 185.4443,52.8871 C185.8353,52.6941 186.3193,52.8571 186.5143,53.2541 C186.7083,53.6511 186.5443,54.1301 186.1473,54.3251 C186.0363,54.3791 174.9113,59.9011 168.6473,69.0501 C162.7623,77.6471 165.5973,89.8211 169.9073,95.3041 C170.1783,95.6511 170.1193,96.1551 169.7703,96.4271 C169.6263,96.5431 169.4503,96.5981 169.2773,96.5981" id="Fill-1087" fill="#1D213A"></path>
            <path d="M215.8096,53.606 L247.4146,53.606 C247.4146,53.606 267.6366,68.105 262.9186,85.846 C257.1806,107.427 226.1756,104.542 215.8096,104.542 C205.4446,104.542 174.4396,107.427 168.7016,85.846 C163.9836,68.105 184.2056,53.606 184.2056,53.606 L215.8096,53.606 Z" id="Fill-1089" fill="#1D213A"></path>
            <path d="M247.0967,49.9175 C247.0967,49.9175 253.2067,35.5665 249.5127,22.9555 C245.8257,10.3645 235.2687,0.0625 214.7927,0.6985 C195.9577,1.2835 193.1717,13.5435 193.1717,13.5435 C193.1717,13.5435 185.2857,11.7635 181.2167,22.7005 C177.1467,33.6385 184.7777,49.4085 184.7777,49.4085 L247.0967,49.9175 Z" id="Fill-1091" fill="#1D213A"></path>
            <path d="M115.9883,256.667 C133.0603,239.384 152.1723,204.343 160.8773,182.051 L126.2103,159.651 L79.8093,228.984 L115.9883,256.667 Z" id="Fill-1093" fill="#F99175"></path>
            <path d="M315.6318,256.667 C298.5598,239.384 279.4478,204.343 270.7428,182.051 L305.4098,159.651 L351.8098,228.984 L315.6318,256.667 Z" id="Fill-1095" fill="#F99175"></path>
            <path d="M167.7021,111.0063 C141.7781,115.4513 126.7431,163.6513 93.3481,187.2043 C93.3481,187.2043 120.3441,226.8513 175.0101,217.2513 L167.7021,111.0063 Z" id="Fill-1097" fill="#D3D6E2"></path>
            <path d="M279.8096,258.0513 C279.8096,258.0513 296.2416,299.2513 302.2096,400.9843 C309.1506,519.2783 293.9436,709.2513 293.9436,709.2513 L215.8096,709.2513 L137.6766,709.2513 C137.6766,709.2513 122.4696,519.2783 129.4106,400.9843 C135.3786,299.2513 151.8096,258.0513 151.8096,258.0513 L279.8096,258.0513 Z" id="Fill-1099" fill="#1D213A"></path>
            <path d="M215.8096,286.4512 C270.0776,286.4512 296.1056,269.2512 296.1056,269.2512 C269.9436,198.4512 263.9176,111.0062 263.9176,111.0062 C263.9176,111.0062 241.9436,106.4512 215.8096,106.4512 C189.6766,106.4512 167.7026,111.0062 167.7026,111.0062 C167.7026,111.0062 161.6766,198.4512 135.5146,269.2512 C135.5146,269.2512 161.5426,286.4512 215.8096,286.4512" id="Fill-1101" fill="#D3D6E2"></path>
            <path d="M263.918,111.0063 C289.842,115.4513 304.877,163.6513 338.272,187.2043 C338.272,187.2043 311.276,226.8513 256.61,217.2513 L263.918,111.0063 Z" id="Fill-1103" fill="#D3D6E2"></path>
            <path d="M280.9316,219.2173 C280.5696,219.2173 280.2436,218.9703 280.1536,218.6043 C274.9466,196.9703 270.6086,173.5473 267.2646,148.9843 C267.2046,148.5473 267.5116,148.1433 267.9496,148.0843 C268.3736,148.0033 268.7896,148.3293 268.8486,148.7683 C272.1866,173.2763 276.5126,196.6473 281.7096,218.2293 C281.8136,218.6593 281.5486,219.0923 281.1186,219.1953 C281.0566,219.2093 280.9936,219.2173 280.9316,219.2173" id="Fill-1105" fill="#1D213A"></path>
            <path d="M150.6885,219.2202 C150.6265,219.2202 150.5635,219.2122 150.5015,219.1982 C150.0715,219.0952 149.8065,218.6622 149.9105,218.2332 C155.0865,196.7342 159.4025,173.4452 162.7385,149.0122 C162.7975,148.5732 163.1975,148.2482 163.6375,148.3282 C164.0755,148.3872 164.3835,148.7902 164.3225,149.2282 C160.9805,173.7142 156.6555,197.0562 151.4655,218.6082 C151.3765,218.9732 151.0505,219.2202 150.6885,219.2202" id="Fill-1107" fill="#1D213A"></path>
            <path d="M215.8096,69.8511 L235.4636,69.8511 L239.8096,107.8031 C239.8096,107.8031 226.7686,127.0511 215.8096,127.0511 C204.8516,127.0511 191.8096,107.8031 191.8096,107.8031 L196.1566,69.8511 L215.8096,69.8511 Z" id="Fill-1109" fill="#FFC4A3"></path>
            <path d="M104.4404,143.1543 C104.4404,143.1543 79.4974,199.7843 76.8064,221.3793 C74.1164,242.9743 80.3894,260.4843 95.9764,262.8813 C111.5624,265.2783 125.2644,255.4833 130.0414,231.8953 C134.8184,208.3073 134.8154,146.9023 134.8154,146.9023 L104.4404,143.1543 Z" id="Fill-1111" fill="#FFC4A3"></path>
            <path d="M101.9863,151.1123 C106.1753,158.5933 117.9653,165.5163 128.4523,162.1023 C140.6223,158.1393 137.9223,146.9943 135.6613,133.4323 C133.7783,122.1413 132.1933,105.3623 131.1823,96.6683 C130.1723,87.9753 118.4723,89.3803 118.3593,97.3253 C118.2353,106.0883 119.5653,110.9603 119.5653,110.9603 L103.4873,115.2303 L101.9863,151.1123 Z" id="Fill-1113" fill="#FFC4A3"></path>
            <path d="M122.7041,163.8032 C121.1341,163.8032 119.5271,163.6212 117.8921,163.2612 C117.4601,163.1652 117.1881,162.7392 117.2831,162.3072 C117.3791,161.8762 117.8011,161.6082 118.2361,161.6982 C121.7441,162.4732 125.0981,162.3562 128.2041,161.3402 C130.9551,160.4472 132.9681,159.1642 134.3561,157.4222 C134.6341,157.0762 135.1381,157.0182 135.4801,157.2952 C135.8251,157.5702 135.8841,158.0732 135.6061,158.4182 C134.0171,160.4142 131.7591,161.8672 128.6991,162.8622 C126.7771,163.4892 124.7721,163.8032 122.7041,163.8032" id="Fill-1115" fill="#1D213A"></path>
            <path d="M327.1797,143.1543 C327.1797,143.1543 352.1227,199.7843 354.8137,221.3793 C357.5037,242.9743 351.2307,260.4843 335.6437,262.8813 C320.0577,265.2783 306.3557,255.4833 301.5787,231.8953 C296.8017,208.3073 296.8047,146.9023 296.8047,146.9023 L327.1797,143.1543 Z" id="Fill-1117" fill="#FFC4A3"></path>
            <path d="M329.6338,151.1123 C325.4448,158.5933 313.6548,165.5163 303.1678,162.1023 C290.9978,158.1393 293.6978,146.9943 295.9588,133.4323 C297.8418,122.1413 299.4268,105.3623 300.4378,96.6683 C301.4478,87.9753 313.1478,89.3803 313.2608,97.3253 C313.3848,106.0883 312.0548,110.9603 312.0548,110.9603 L328.1328,115.2303 L329.6338,151.1123 Z" id="Fill-1119" fill="#FFC4A3"></path>
            <path d="M308.916,163.8032 C306.848,163.8032 304.843,163.4892 302.919,162.8622 C299.861,161.8672 297.603,160.4142 296.013,158.4182 C295.736,158.0732 295.794,157.5702 296.14,157.2952 C296.485,157.0182 296.988,157.0762 297.263,157.4222 C298.652,159.1642 300.665,160.4472 303.415,161.3402 C306.522,162.3532 309.877,162.4732 313.384,161.6982 C313.816,161.6082 314.241,161.8762 314.337,162.3072 C314.432,162.7392 314.16,163.1652 313.728,163.2612 C312.093,163.6212 310.486,163.8032 308.916,163.8032" id="Fill-1121" fill="#1D213A"></path>
            <path d="M192.6934,44.7832 C192.6934,44.7832 188.9464,41.0742 183.4774,42.9822 C176.6784,45.3532 177.4954,57.6432 183.6274,60.3822 C188.6824,62.6392 192.8934,60.9332 192.8934,60.9332 L192.6934,44.7832 Z" id="Fill-1123" fill="#FFC4A3"></path>
            <path d="M191.1768,53.6318 C190.8478,53.6318 190.5378,53.4258 190.4228,53.0978 C188.6138,47.9498 183.3408,49.4958 183.1138,49.5628 C182.6978,49.6918 182.2438,49.4558 182.1138,49.0338 C181.9838,48.6128 182.2178,48.1658 182.6398,48.0338 C185.0398,47.2878 190.0678,47.2728 191.9318,52.5668 C192.0788,52.9828 191.8608,53.4398 191.4428,53.5868 C191.3558,53.6168 191.2648,53.6318 191.1768,53.6318" id="Fill-1125" fill="#1D213A"></path>
            <path d="M238.9346,44.7832 C238.9346,44.7832 242.6816,41.0742 248.1506,42.9822 C254.9486,45.3532 254.1326,57.6432 247.9996,60.3822 C242.9446,62.6392 238.7336,60.9332 238.7336,60.9332 L238.9346,44.7832 Z" id="Fill-1127" fill="#FFC4A3"></path>
            <path d="M240.4502,53.6318 C240.3632,53.6318 240.2722,53.6168 240.1842,53.5868 C239.7672,53.4398 239.5492,52.9828 239.6962,52.5668 C241.5592,47.2728 246.5962,47.2878 248.9882,48.0338 C249.4102,48.1658 249.6442,48.6128 249.5142,49.0338 C249.3842,49.4558 248.9312,49.6888 248.5142,49.5628 C248.2902,49.4938 243.0162,47.9478 241.2052,53.0978 C241.0902,53.4258 240.7802,53.6318 240.4502,53.6318" id="Fill-1129" fill="#1D213A"></path>
            <path d="M235.4639,69.8511 L221.9929,69.8511 L221.9929,93.0031 C221.9929,93.0031 229.7629,95.5881 238.0699,92.6101 L235.4639,69.8511 Z" id="Fill-1131" fill="#F99175"></path>
            <path d="M215.8096,93.668 C233.2976,93.668 244.3096,79.169 244.3076,52.461 C244.3076,34.719 239.7196,18.122 215.8096,18.122 C191.9006,18.122 187.3126,34.719 187.3126,52.461 C187.3106,79.169 198.3226,93.668 215.8096,93.668" id="Fill-1133" fill="#FFC4A3"></path>
            <path d="M202.8379,15.7061 C202.8379,15.7061 206.2719,26.7701 219.7529,30.2781 C233.2949,33.8011 241.8819,28.5511 241.8819,28.5511 C241.8819,28.5511 237.0499,19.0131 224.8399,15.7061 C212.6309,12.3991 202.8379,15.7061 202.8379,15.7061" id="Fill-1135" fill="#1D213A"></path>
            <path d="M227.3535,35.5435 C224.2905,35.5435 220.9395,35.1195 217.4315,33.9935 C204.0275,29.6895 203.2835,14.4205 203.2775,14.2675 C203.2595,13.8255 203.6035,13.4545 204.0455,13.4365 C204.5875,13.4365 204.8585,13.7645 204.8765,14.2035 C204.8815,14.3465 205.5955,28.5115 217.9225,32.4705 C231.1285,36.7135 242.3635,30.3065 242.4735,30.2405 C242.8505,30.0185 243.3445,30.1465 243.5675,30.5295 C243.7905,30.9105 243.6615,31.4005 243.2805,31.6235 C242.9185,31.8335 236.4135,35.5435 227.3535,35.5435" id="Fill-1137" fill="#1D213A"></path>
            <path d="M215.8105,754.3511 L190.0105,749.9321 C190.0105,749.9321 189.6105,738.3391 182.6775,738.3391 L172.5335,738.3391 L172.9635,746.3461 C172.9635,746.3461 153.5275,744.2541 145.2765,756.1841 C138.1765,766.4511 142.4765,781.0511 142.4765,781.0511 L215.8105,781.0511 L215.8105,754.3511 Z" id="Fill-1139" fill="#1D213A"></path>
            <path d="M215.8105,769.9331 L141.2145,769.9331 C141.0325,776.0941 142.4765,781.0511 142.4765,781.0511 L215.8105,781.0511 L215.8105,769.9331 Z" id="Fill-1141" fill="#E8EAEF"></path>
            <path d="M177.1758,752.8325 C176.7828,752.8325 176.4418,752.5435 176.3848,752.1435 C175.8618,748.3875 172.8038,747.1435 172.6738,747.0925 C172.2628,746.9315 172.0598,746.4685 172.2198,746.0575 C172.3798,745.6485 172.8398,745.4415 173.2488,745.6005 C173.4148,745.6645 177.3118,747.2095 177.9698,751.9215 C178.0298,752.3595 177.7258,752.7645 177.2878,752.8245 C177.2508,752.8295 177.2128,752.8325 177.1758,752.8325" id="Fill-1143" fill="#E8EAEF"></path>
            <path d="M169.876,752.8325 C169.497,752.8325 169.16,752.5625 169.09,752.1765 C168.385,748.2965 165.744,747.1325 165.634,747.0845 C165.229,746.9125 165.036,746.4455 165.205,746.0395 C165.374,745.6345 165.837,745.4385 166.244,745.6055 C166.39,745.6655 169.796,747.1135 170.665,751.8895 C170.743,752.3245 170.455,752.7405 170.021,752.8205 C169.973,752.8285 169.924,752.8325 169.876,752.8325" id="Fill-1145" fill="#E8EAEF"></path>
            <path d="M161.876,752.8325 C161.494,752.8325 161.155,752.5575 161.088,752.1685 C160.572,749.1565 158.774,748.2015 158.699,748.1625 C158.309,747.9605 158.149,747.4825 158.346,747.0905 C158.543,746.6965 159.013,746.5375 159.408,746.7285 C159.515,746.7795 162.004,748.0395 162.666,751.8965 C162.739,752.3325 162.447,752.7465 162.013,752.8215 C161.966,752.8295 161.921,752.8325 161.876,752.8325" id="Fill-1147" fill="#E8EAEF"></path>
            <path d="M215.8096,754.3511 L241.6096,749.9321 C241.6096,749.9321 242.0096,738.3391 248.9426,738.3391 L259.0866,738.3391 L258.6566,746.3461 C258.6566,746.3461 278.0926,744.2541 286.3436,756.1841 C293.4436,766.4511 289.1436,781.0511 289.1436,781.0511 L215.8096,781.0511 L215.8096,754.3511 Z" id="Fill-1149" fill="#1D213A"></path>
            <path d="M290.4053,769.9331 L215.8103,769.9331 L215.8093,769.9331 L215.8093,781.0511 L289.1433,781.0511 C289.1433,781.0511 290.5883,776.0941 290.4053,769.9331" id="Fill-1151" fill="#E8EAEF"></path>
            <path d="M254.4443,752.8325 C254.4073,752.8325 254.3693,752.8295 254.3323,752.8245 C253.8943,752.7645 253.5903,752.3595 253.6503,751.9215 C254.3083,747.2095 258.2053,745.6645 258.3713,745.6005 C258.7833,745.4405 259.2413,745.6465 259.4003,746.0575 C259.5593,746.4685 259.3563,746.9315 258.9463,747.0925 C258.8163,747.1435 255.7583,748.3875 255.2353,752.1435 C255.1783,752.5435 254.8373,752.8325 254.4443,752.8325" id="Fill-1153" fill="#E8EAEF"></path>
            <path d="M261.7441,752.8325 C261.6961,752.8325 261.6471,752.8285 261.5981,752.8205 C261.1651,752.7405 260.8771,752.3245 260.9551,751.8895 C261.8241,747.1135 265.2301,745.6655 265.3761,745.6055 C265.7831,745.4405 266.2521,745.6345 266.4191,746.0435 C266.5871,746.4495 266.3921,746.9155 265.9861,747.0845 C265.8741,747.1325 263.2351,748.2965 262.5301,752.1765 C262.4601,752.5625 262.1221,752.8325 261.7441,752.8325" id="Fill-1155" fill="#E8EAEF"></path>
            <path d="M269.7441,752.8325 C269.6991,752.8325 269.6531,752.8295 269.6061,752.8215 C269.1731,752.7465 268.8801,752.3325 268.9541,751.8965 C269.6161,748.0395 272.1051,746.7795 272.2121,746.7285 C272.6021,746.5375 273.0871,746.6965 273.2821,747.0955 C273.4731,747.4905 273.3131,747.9655 272.9211,748.1625 C272.8431,748.2035 271.0481,749.1595 270.5321,752.1685 C270.4651,752.5575 270.1261,752.8325 269.7441,752.8325" id="Fill-1157" fill="#E8EAEF"></path>
            <path d="M215.8096,781.8516 C215.3686,781.8516 215.0096,781.4936 215.0096,781.0516 L215.0096,342.4516 C215.0096,342.1046 215.2356,341.7966 215.5646,341.6906 C215.6296,341.6686 222.6056,339.1526 224.8866,324.3296 C224.9556,323.8936 225.3586,323.5936 225.7986,323.6606 C226.2356,323.7276 226.5356,324.1356 226.4676,324.5736 C224.3726,338.1956 218.4656,342.0796 216.6106,342.9796 L216.6106,781.0516 C216.6106,781.4936 216.2516,781.8516 215.8096,781.8516" id="Fill-1159" fill="#E8EAEF"></path>
            <path d="M200.3086,51.9937 C200.3086,53.0437 201.1606,53.8957 202.2096,53.8957 C203.2606,53.8957 204.1126,53.0437 204.1126,51.9937 C204.1126,50.9437 203.2606,50.0917 202.2096,50.0917 C201.1606,50.0917 200.3086,50.9437 200.3086,51.9937" id="Fill-1161" fill="#1D213A"></path>
            <path d="M206.6543,40.9077 C205.9793,41.5587 203.2933,40.6837 200.5163,40.9547 C197.7333,41.1707 195.0673,42.5127 194.2893,41.9897 C193.4733,41.4937 195.9703,39.8717 200.3003,39.4907 C204.6313,39.1147 207.3713,40.2787 206.6543,40.9077" id="Fill-1163" fill="#1D213A"></path>
            <path d="M231.3115,51.9937 C231.3115,53.0437 230.4595,53.8957 229.4105,53.8957 C228.3595,53.8957 227.5075,53.0437 227.5075,51.9937 C227.5075,50.9437 228.3595,50.0917 229.4105,50.0917 C230.4595,50.0917 231.3115,50.9437 231.3115,51.9937" id="Fill-1165" fill="#1D213A"></path>
            <path d="M224.9619,40.9507 C225.6359,41.6137 228.3219,40.7377 231.0999,41.0087 C233.8819,41.2237 236.5479,42.5687 237.3269,42.0327 C238.1439,41.5247 235.6499,39.8727 231.3189,39.4907 C226.9889,39.1147 224.2459,40.3087 224.9619,40.9507" id="Fill-1167" fill="#1D213A"></path>
            <path d="M215.96,64.4116 C215.595,64.4116 215.199,64.3846 214.77,64.3246 C214.332,64.2636 214.027,63.8586 214.088,63.4206 C214.149,62.9826 214.559,62.6796 214.991,62.7396 C216.663,62.9716 217.869,62.6236 218.392,61.7596 C218.814,61.0616 218.71,60.1506 218.366,59.6736 C217.583,58.5826 216.393,59.0106 216.346,59.0316 C216.101,59.1216 215.824,59.0896 215.608,58.9396 C215.393,58.7896 215.265,58.5446 215.265,58.2816 L215.265,53.5936 C215.265,53.1516 215.622,52.7936 216.064,52.7936 C216.507,52.7936 216.864,53.1516 216.864,53.5936 L216.864,57.3406 C217.81,57.3306 218.864,57.6236 219.666,58.7386 C220.427,59.7996 220.468,61.4166 219.762,62.5866 C219.324,63.3116 218.275,64.4116 215.96,64.4116" id="Fill-1169" fill="#F99175"></path>
            <path d="M305.4102,220.3193 L126.2102,220.3193 C115.6062,220.3193 107.0102,211.7233 107.0102,201.1193 L107.0102,95.5193 C107.0102,84.9153 115.6062,76.3193 126.2102,76.3193 L305.4102,76.3193 C316.0142,76.3193 324.6102,84.9153 324.6102,95.5193 L324.6102,201.1193 C324.6102,211.7233 316.0142,220.3193 305.4102,220.3193" id="Fill-1171" fill="#F3F4F7"></path>
            <path d="M101.9863,151.1123 C101.9863,151.1123 104.1003,145.9623 108.5413,143.8893 C112.9813,141.8173 119.4223,141.1403 119.438336,134.6623 C119.4543,129.0223 114.1023,128.8183 114.1023,128.8183 C114.1023,128.8183 119.6233,127.6493 118.6053,121.9583 C117.6203,116.4453 111.5583,117.7203 111.5583,117.7203 C111.5583,117.7203 117.2863,116.9063 115.7693,110.5203 C114.2523,104.1333 105.7443,105.8293 101.2113,108.9773 C96.6773,112.1253 95.1413,115.6253 95.7773,119.2313 C96.5493,123.6063 99.4223,124.3623 99.4223,124.3623 C99.4223,124.3623 96.0203,126.3343 96.6853,131.5963 C97.1823,135.5203 100.8103,137.2293 100.8103,137.2293 C100.8103,137.2293 97.8123,138.5403 98.1463,143.7653 C98.4793,148.9583 101.9863,151.1123 101.9863,151.1123" id="Fill-1173" fill="#FFC4A3"></path>
            <path d="M99.4229,125.1606 C99.2629,125.1606 99.1039,125.1136 98.9649,125.0166 C98.6039,124.7646 98.5149,124.2666 98.7669,123.9046 C98.9189,123.6836 102.6289,118.4826 111.4189,116.9326 C111.8509,116.8436 112.2679,117.1446 112.3459,117.5806 C112.4229,118.0166 112.1319,118.4316 111.6969,118.5076 C103.5989,119.9376 100.1109,124.7716 100.0769,124.8216 C99.9229,125.0416 99.6739,125.1606 99.4229,125.1606" id="Fill-1175" fill="#1D213A"></path>
            <path d="M100.8096,138.0298 C100.6416,138.0298 100.4726,137.9768 100.3276,137.8668 C99.9756,137.6018 99.9056,137.0998 100.1706,136.7488 C100.3696,136.4858 105.1136,130.3048 113.9036,128.0438 C114.3326,127.9328 114.7676,128.1908 114.8786,128.6188 C114.9886,129.0468 114.7306,129.4828 114.3036,129.5938 C106.0726,131.7098 101.4936,137.6528 101.4476,137.7128 C101.2906,137.9208 101.0516,138.0298 100.8096,138.0298" id="Fill-1177" fill="#1D213A"></path>
            <path d="M329.6338,151.1123 C329.6338,151.1123 327.5198,145.9623 323.0788,143.8893 C318.6388,141.8173 312.1978,141.1403 312.181764,134.6623 C312.1658,129.0223 317.5168,128.8183 317.5168,128.8183 C317.5168,128.8183 311.9968,127.6493 313.0148,121.9583 C313.9998,116.4453 320.0608,117.7203 320.0608,117.7203 C320.0608,117.7203 314.3338,116.9063 315.8508,110.5203 C317.3678,104.1333 325.8758,105.8293 330.4088,108.9773 C334.9428,112.1253 336.4788,115.6253 335.8418,119.2313 C335.0708,123.6063 332.1978,124.3623 332.1978,124.3623 C332.1978,124.3623 335.5998,126.3343 334.9348,131.5963 C334.4378,135.5203 330.8098,137.2293 330.8098,137.2293 C330.8098,137.2293 333.8078,138.5403 333.4738,143.7653 C333.1408,148.9583 329.6338,151.1123 329.6338,151.1123" id="Fill-1179" fill="#FFC4A3"></path>
            <path d="M332.1973,125.1606 C331.9463,125.1606 331.6973,125.0416 331.5433,124.8216 C331.5093,124.7716 328.0203,119.9376 319.9233,118.5076 C319.4883,118.4316 319.1973,118.0166 319.2743,117.5806 C319.3503,117.1466 319.7723,116.8456 320.2003,116.9326 C328.9913,118.4826 332.7003,123.6836 332.8533,123.9046 C333.1053,124.2666 333.0163,124.7646 332.6553,125.0166 C332.5163,125.1136 332.3563,125.1606 332.1973,125.1606" id="Fill-1181" fill="#1D213A"></path>
            <path d="M330.8096,138.0298 C330.5676,138.0298 330.3296,137.9208 330.1726,137.7128 C330.1266,137.6528 325.5476,131.7098 317.3166,129.5938 C316.8896,129.4828 316.6316,129.0468 316.7416,128.6188 C316.8526,128.1908 317.2856,127.9328 317.7156,128.0438 C326.5066,130.3048 331.2506,136.4858 331.4496,136.7488 C331.7146,137.0998 331.6446,137.6018 331.2926,137.8668 C331.1476,137.9768 330.9786,138.0298 330.8096,138.0298" id="Fill-1183" fill="#1D213A"></path>
            <path d="M215.8096,781.7329 C215.3686,781.7329 215.0096,781.3749 215.0096,780.9329 L215.0096,770.3519 C215.0096,769.9089 215.3686,769.5509 215.8096,769.5509 C216.2516,769.5509 216.6106,769.9089 216.6106,770.3519 L216.6106,780.9329 C216.6106,781.3749 216.2516,781.7329 215.8096,781.7329" id="Fill-1185" fill="#1D213A"></path>
            <path d="M215.8096,754.7329 C215.3686,754.7329 215.0096,754.3749 215.0096,753.9329 L215.0096,710.3519 C215.0096,709.9089 215.3686,709.5509 215.8096,709.5509 C216.2516,709.5509 216.6106,709.9089 216.6106,710.3519 L216.6106,753.9329 C216.6106,754.3749 216.2516,754.7329 215.8096,754.7329" id="Fill-1187" fill="#1D213A"></path>
            <path d="M202.21,43.3208 C197.356,43.3208 193.41,47.2688 193.41,52.1208 C193.41,56.9728 197.356,60.9208 202.21,60.9208 C207.064,60.9208 211.01,56.9728 211.01,52.1208 C211.01,47.2688 207.064,43.3208 202.21,43.3208 M202.21,62.5208 C196.476,62.5208 191.81,57.8558 191.81,52.1208 C191.81,46.3868 196.476,41.7208 202.21,41.7208 C207.944,41.7208 212.61,46.3868 212.61,52.1208 C212.61,57.8558 207.944,62.5208 202.21,62.5208" id="Fill-1189" fill="#1D213A"></path>
            <path d="M229.4102,43.3208 C224.5562,43.3208 220.6102,47.2688 220.6102,52.1208 C220.6102,56.9728 224.5562,60.9208 229.4102,60.9208 C234.2632,60.9208 238.2102,56.9728 238.2102,52.1208 C238.2102,47.2688 234.2632,43.3208 229.4102,43.3208 M229.4102,62.5208 C223.6762,62.5208 219.0102,57.8558 219.0102,52.1208 C219.0102,46.3868 223.6762,41.7208 229.4102,41.7208 C235.1442,41.7208 239.8092,46.3868 239.8092,52.1208 C239.8092,57.8558 235.1442,62.5208 229.4102,62.5208" id="Fill-1191" fill="#1D213A"></path>
            <path d="M220.0254,50.7178 C219.8564,50.7178 219.6864,50.6648 219.5414,50.5548 C217.3454,48.8858 214.2674,48.8798 212.0594,50.5378 C211.7124,50.8008 211.1994,50.7448 210.9314,50.3948 C210.6654,50.0458 210.7144,49.5578 211.0614,49.2878 L211.0874,49.2678 C213.8764,47.1728 217.7464,47.1818 220.5094,49.2808 C220.8614,49.5488 220.9304,50.0498 220.6634,50.4018 C220.5044,50.6098 220.2664,50.7178 220.0254,50.7178" id="Fill-1193" fill="#1D213A"></path>
            <path d="M194.5205,47.1812 C194.3795,47.1812 194.2385,47.1442 194.1105,47.0682 L187.5195,43.1232 C187.1395,42.8962 187.0165,42.4052 187.2445,42.0262 C187.4695,41.6462 187.9615,41.5232 188.3405,41.7502 L194.9315,45.6942 C195.3115,45.9222 195.4345,46.4132 195.2075,46.7922 C195.0565,47.0422 194.7925,47.1812 194.5205,47.1812" id="Fill-1195" fill="#1D213A"></path>
            <path d="M237.0986,47.1812 C236.8246,47.1812 236.5556,47.0392 236.4076,46.7842 C236.1846,46.4012 236.3146,45.9112 236.6976,45.6902 L243.3016,41.8482 C243.6806,41.6272 244.1726,41.7542 244.3956,42.1372 C244.6186,42.5192 244.4886,43.0092 244.1056,43.2312 L237.5006,47.0732 C237.3736,47.1462 237.2366,47.1812 237.0986,47.1812" id="Fill-1197" fill="#1D213A"></path>
            <path d="M214.5752,72.4014 C214.3662,72.4014 214.1472,72.3894 213.9182,72.3644 C210.7542,72.0234 210.1612,69.6124 210.1382,69.5094 C210.0402,69.0784 210.3062,68.6494 210.7382,68.5494 C211.1682,68.4524 211.5902,68.7154 211.6942,69.1394 C211.7152,69.2124 212.1022,70.5594 214.0902,70.7744 C216.0722,70.9854 216.6862,69.8194 216.7122,69.7694 C216.9112,69.3804 217.3822,69.2184 217.7782,69.4074 C218.1712,69.6004 218.3402,70.0634 218.1552,70.4594 C218.1142,70.5444 217.2152,72.4014 214.5752,72.4014" id="Fill-1199" fill="#1D213A"></path>
        </g>
    </g>
</svg>