<?xml version="1.0" encoding="UTF-8"?>
<svg width="746px" height="306px" viewBox="0 0 746 306" version="1.1" xmlns="http://www.w3.org/2000/svg" xmlns:xlink="http://www.w3.org/1999/xlink">
    <title>Illustration 12 0</title>
    <g id="🤩-Illustrations" stroke="none" stroke-width="1" fill="none" fill-rule="evenodd">
        <g id="Illustration-12">
            <path d="M268.6094,106.2686 C265.7094,106.2686 264.1824,104.7436 262.9544,103.5176 C261.8094,102.3736 260.9044,101.4686 258.9984,101.4686 C257.0914,101.4686 256.1874,102.3736 255.0424,103.5176 C253.8134,104.7436 252.2874,106.2686 249.3874,106.2686 C246.4924,106.2686 244.9664,104.7436 243.7424,103.5176 C242.5984,102.3716 241.6954,101.4686 239.7944,101.4686 C237.8914,101.4686 236.9894,102.3716 235.8444,103.5176 C234.6204,104.7436 233.0944,106.2686 230.2004,106.2686 C227.3044,106.2686 225.7814,104.7426 224.5554,103.5176 C223.4124,102.3716 222.5084,101.4686 220.6094,101.4686 C219.9464,101.4686 219.4094,100.9316 219.4094,100.2686 C219.4094,99.6056 219.9464,99.0686 220.6094,99.0686 C223.5054,99.0686 225.0284,100.5956 226.2534,101.8206 C227.3964,102.9656 228.2994,103.8686 230.2004,103.8686 C232.1014,103.8686 233.0054,102.9656 234.1484,101.8206 C235.3734,100.5936 236.8984,99.0686 239.7944,99.0686 C242.6884,99.0686 244.2134,100.5936 245.4384,101.8206 C246.5834,102.9656 247.4854,103.8686 249.3874,103.8686 C251.2944,103.8686 252.2004,102.9636 253.3444,101.8186 C254.5734,100.5936 256.0994,99.0686 258.9984,99.0686 C261.8964,99.0686 263.4224,100.5936 264.6514,101.8186 C265.7964,102.9636 266.7034,103.8686 268.6094,103.8686 C269.2714,103.8686 269.8094,104.4066 269.8094,105.0686 C269.8094,105.7306 269.2714,106.2686 268.6094,106.2686" id="Fill-1758" fill="#CDD1DF"></path>
            <path d="M268.6094,119.0688 C265.7094,119.0688 264.1824,117.5438 262.9544,116.3168 C261.8094,115.1728 260.9044,114.2688 258.9984,114.2688 C257.0914,114.2688 256.1874,115.1728 255.0424,116.3168 C253.8134,117.5438 252.2874,119.0688 249.3874,119.0688 C246.4924,119.0688 244.9664,117.5438 243.7424,116.3168 C242.5984,115.1718 241.6954,114.2688 239.7944,114.2688 C237.8914,114.2688 236.9894,115.1718 235.8444,116.3168 C234.6204,117.5438 233.0944,119.0688 230.2004,119.0688 C227.3044,119.0688 225.7814,117.5418 224.5554,116.3168 C223.4124,115.1718 222.5084,114.2688 220.6094,114.2688 C219.9464,114.2688 219.4094,113.7308 219.4094,113.0688 C219.4094,112.4058 219.9464,111.8688 220.6094,111.8688 C223.5054,111.8688 225.0284,113.3948 226.2534,114.6198 C227.3964,115.7658 228.2994,116.6688 230.2004,116.6688 C232.1014,116.6688 233.0054,115.7658 234.1484,114.6198 C235.3734,113.3938 236.8984,111.8688 239.7944,111.8688 C242.6884,111.8688 244.2134,113.3938 245.4384,114.6198 C246.5834,115.7658 247.4854,116.6688 249.3874,116.6688 C251.2944,116.6688 252.2004,115.7638 253.3444,114.6188 C254.5734,113.3938 256.0994,111.8688 258.9984,111.8688 C261.8964,111.8688 263.4224,113.3938 264.6514,114.6188 C265.7964,115.7638 266.7034,116.6688 268.6094,116.6688 C269.2714,116.6688 269.8094,117.2058 269.8094,117.8688 C269.8094,118.5308 269.2714,119.0688 268.6094,119.0688" id="Fill-1760" fill="#CDD1DF"></path>
            <path d="M268.6094,131.8687 C265.7094,131.8687 264.1824,130.3437 262.9544,129.1177 C261.8094,127.9727 260.9044,127.0687 258.9984,127.0687 C257.0914,127.0687 256.1874,127.9727 255.0424,129.1177 C253.8134,130.3437 252.2874,131.8687 249.3874,131.8687 C246.4924,131.8687 244.9664,130.3437 243.7424,129.1177 C242.5984,127.9717 241.6954,127.0687 239.7944,127.0687 C237.8914,127.0687 236.9894,127.9717 235.8444,129.1177 C234.6204,130.3437 233.0944,131.8687 230.2004,131.8687 C227.3044,131.8687 225.7814,130.3427 224.5554,129.1177 C223.4124,127.9717 222.5084,127.0687 220.6094,127.0687 C219.9464,127.0687 219.4094,126.5317 219.4094,125.8687 C219.4094,125.2057 219.9464,124.6687 220.6094,124.6687 C223.5054,124.6687 225.0284,126.1957 226.2534,127.4207 C227.3964,128.5657 228.2994,129.4687 230.2004,129.4687 C232.1014,129.4687 233.0054,128.5657 234.1484,127.4207 C235.3734,126.1937 236.8984,124.6687 239.7944,124.6687 C242.6884,124.6687 244.2134,126.1937 245.4384,127.4207 C246.5834,128.5657 247.4854,129.4687 249.3874,129.4687 C251.2944,129.4687 252.2004,128.5637 253.3444,127.4187 C254.5734,126.1937 256.0994,124.6687 258.9984,124.6687 C261.8964,124.6687 263.4224,126.1937 264.6514,127.4187 C265.7964,128.5637 266.7034,129.4687 268.6094,129.4687 C269.2714,129.4687 269.8094,130.0067 269.8094,130.6687 C269.8094,131.3307 269.2714,131.8687 268.6094,131.8687" id="Fill-1762" fill="#CDD1DF"></path>
            <path d="M268.6094,144.6685 C265.7094,144.6685 264.1824,143.1435 262.9544,141.9175 C261.8094,140.7735 260.9044,139.8685 258.9984,139.8685 C257.0914,139.8685 256.1874,140.7735 255.0424,141.9175 C253.8134,143.1435 252.2874,144.6685 249.3874,144.6685 C246.4924,144.6685 244.9664,143.1435 243.7424,141.9175 C242.5984,140.7725 241.6954,139.8685 239.7944,139.8685 C237.8914,139.8685 236.9894,140.7725 235.8444,141.9175 C234.6204,143.1435 233.0944,144.6685 230.2004,144.6685 C227.3044,144.6685 225.7814,143.1425 224.5554,141.9175 C223.4124,140.7725 222.5084,139.8685 220.6094,139.8685 C219.9464,139.8685 219.4094,139.3315 219.4094,138.6685 C219.4094,138.0065 219.9464,137.4685 220.6094,137.4685 C223.5054,137.4685 225.0284,138.9955 226.2534,140.2205 C227.3964,141.3655 228.2994,142.2685 230.2004,142.2685 C232.1014,142.2685 233.0054,141.3655 234.1484,140.2205 C235.3734,138.9935 236.8984,137.4685 239.7944,137.4685 C242.6884,137.4685 244.2134,138.9935 245.4384,140.2205 C246.5834,141.3655 247.4854,142.2685 249.3874,142.2685 C251.2944,142.2685 252.2004,141.3635 253.3444,140.2185 C254.5734,138.9935 256.0994,137.4685 258.9984,137.4685 C261.8964,137.4685 263.4224,138.9935 264.6514,140.2185 C265.7964,141.3635 266.7034,142.2685 268.6094,142.2685 C269.2714,142.2685 269.8094,142.8065 269.8094,143.4685 C269.8094,144.1315 269.2714,144.6685 268.6094,144.6685" id="Fill-1764" fill="#CDD1DF"></path>
            <path d="M610.0967,71.6738 C610.0967,74.3248 607.9477,76.4738 605.2967,76.4738 C602.6457,76.4738 600.4967,74.3248 600.4967,71.6738 C600.4967,69.0228 602.6457,66.8738 605.2967,66.8738 C607.9477,66.8738 610.0967,69.0228 610.0967,71.6738" id="Fill-1766" fill="#CDD1DF"></path>
            <path d="M642.0967,71.6738 C642.0967,74.3248 639.9477,76.4738 637.2967,76.4738 C634.6457,76.4738 632.4967,74.3248 632.4967,71.6738 C632.4967,69.0228 634.6457,66.8738 637.2967,66.8738 C639.9477,66.8738 642.0967,69.0228 642.0967,71.6738" id="Fill-1768" fill="#CDD1DF"></path>
            <path d="M674.0967,71.6738 C674.0967,74.3248 671.9477,76.4738 669.2967,76.4738 C666.6457,76.4738 664.4967,74.3248 664.4967,71.6738 C664.4967,69.0228 666.6457,66.8738 669.2967,66.8738 C671.9477,66.8738 674.0967,69.0228 674.0967,71.6738" id="Fill-1770" fill="#CDD1DF"></path>
            <path d="M704.4971,71.6738 C704.4971,73.4418 703.0631,74.8738 701.2971,74.8738 C699.5291,74.8738 698.0971,73.4418 698.0971,71.6738 C698.0971,69.9068 699.5291,68.4738 701.2971,68.4738 C703.0631,68.4738 704.4971,69.9068 704.4971,71.6738" id="Fill-1772" fill="#CDD1DF"></path>
            <path d="M610.0967,103.6738 C610.0967,106.3248 607.9477,108.4738 605.2967,108.4738 C602.6457,108.4738 600.4967,106.3248 600.4967,103.6738 C600.4967,101.0228 602.6457,98.8738 605.2967,98.8738 C607.9477,98.8738 610.0967,101.0228 610.0967,103.6738" id="Fill-1774" fill="#CDD1DF"></path>
            <path d="M642.0967,103.6738 C642.0967,106.3248 639.9477,108.4738 637.2967,108.4738 C634.6457,108.4738 632.4967,106.3248 632.4967,103.6738 C632.4967,101.0228 634.6457,98.8738 637.2967,98.8738 C639.9477,98.8738 642.0967,101.0228 642.0967,103.6738" id="Fill-1776" fill="#CDD1DF"></path>
            <path d="M674.0967,103.6738 C674.0967,106.3248 671.9477,108.4738 669.2967,108.4738 C666.6457,108.4738 664.4967,106.3248 664.4967,103.6738 C664.4967,101.0228 666.6457,98.8738 669.2967,98.8738 C671.9477,98.8738 674.0967,101.0228 674.0967,103.6738" id="Fill-1778" fill="#CDD1DF"></path>
            <path d="M704.4971,103.6738 C704.4971,105.4418 703.0631,106.8738 701.2971,106.8738 C699.5291,106.8738 698.0971,105.4418 698.0971,103.6738 C698.0971,101.9068 699.5291,100.4738 701.2971,100.4738 C703.0631,100.4738 704.4971,101.9068 704.4971,103.6738" id="Fill-1780" fill="#CDD1DF"></path>
            <path d="M610.0967,135.6738 C610.0967,138.3248 607.9477,140.4738 605.2967,140.4738 C602.6457,140.4738 600.4967,138.3248 600.4967,135.6738 C600.4967,133.0228 602.6457,130.8738 605.2967,130.8738 C607.9477,130.8738 610.0967,133.0228 610.0967,135.6738" id="Fill-1782" fill="#CDD1DF"></path>
            <path d="M642.0967,135.6738 C642.0967,138.3248 639.9477,140.4738 637.2967,140.4738 C634.6457,140.4738 632.4967,138.3248 632.4967,135.6738 C632.4967,133.0228 634.6457,130.8738 637.2967,130.8738 C639.9477,130.8738 642.0967,133.0228 642.0967,135.6738" id="Fill-1784" fill="#CDD1DF"></path>
            <path d="M672.4971,135.6738 C672.4971,137.4418 671.0631,138.8738 669.2971,138.8738 C667.5291,138.8738 666.0971,137.4418 666.0971,135.6738 C666.0971,133.9068 667.5291,132.4738 669.2971,132.4738 C671.0631,132.4738 672.4971,133.9068 672.4971,135.6738" id="Fill-1786" fill="#CDD1DF"></path>
            <path d="M704.4971,135.6738 C704.4971,137.4418 703.0631,138.8738 701.2971,138.8738 C699.5291,138.8738 698.0971,137.4418 698.0971,135.6738 C698.0971,133.9068 699.5291,132.4738 701.2971,132.4738 C703.0631,132.4738 704.4971,133.9068 704.4971,135.6738" id="Fill-1788" fill="#CDD1DF"></path>
            <path d="M608.4971,167.6738 C608.4971,169.4418 607.0631,170.8738 605.2971,170.8738 C603.5291,170.8738 602.0971,169.4418 602.0971,167.6738 C602.0971,165.9058 603.5291,164.4738 605.2971,164.4738 C607.0631,164.4738 608.4971,165.9058 608.4971,167.6738" id="Fill-1790" fill="#CDD1DF"></path>
            <path d="M640.4971,167.6738 C640.4971,169.4418 639.0631,170.8738 637.2971,170.8738 C635.5291,170.8738 634.0971,169.4418 634.0971,167.6738 C634.0971,165.9058 635.5291,164.4738 637.2971,164.4738 C639.0631,164.4738 640.4971,165.9058 640.4971,167.6738" id="Fill-1792" fill="#CDD1DF"></path>
            <path d="M672.4971,167.6738 C672.4971,169.4418 671.0631,170.8738 669.2971,170.8738 C667.5291,170.8738 666.0971,169.4418 666.0971,167.6738 C666.0971,165.9058 667.5291,164.4738 669.2971,164.4738 C671.0631,164.4738 672.4971,165.9058 672.4971,167.6738" id="Fill-1794" fill="#CDD1DF"></path>
            <path d="M704.4971,167.6738 C704.4971,169.4418 703.0631,170.8738 701.2971,170.8738 C699.5291,170.8738 698.0971,169.4418 698.0971,167.6738 C698.0971,165.9058 699.5291,164.4738 701.2971,164.4738 C703.0631,164.4738 704.4971,165.9058 704.4971,167.6738" id="Fill-1796" fill="#CDD1DF"></path>
            <path d="M147.0684,58.5132 C146.5664,58.1352 146.0694,58.0072 145.5464,58.0912 C142.0204,58.7262 140.6604,67.0732 140.2384,73.0422 L152.1784,73.0422 C152.1794,73.0422 152.1804,73.0412 152.1814,73.0412 C151.3964,68.1822 149.7704,60.5452 147.0684,58.5132" id="Fill-1798" fill="#CDD1DF"></path>
            <path d="M145.3496,56.9883 C146.1786,56.8303 146.9886,57.0503 147.7416,57.6173 C150.7726,59.8983 152.4996,67.9153 153.3056,72.9283 C154.8676,72.7703 156.3226,72.3033 157.6266,71.5713 C154.8036,56.6563 149.9256,38.6333 145.4906,38.6333 L145.4586,38.6333 C142.4936,38.6913 141.5396,42.1363 140.4386,46.1273 C139.2696,50.3623 137.9436,55.1583 133.5326,55.8273 C133.3846,55.8503 133.2406,55.8603 133.0956,55.8603 C127.7806,55.8603 123.7206,41.1433 121.6666,31.7553 C119.7646,33.7623 118.5786,36.4573 118.5786,39.4423 L118.5786,61.8423 C118.5786,68.0283 123.5936,73.0423 129.7796,73.0423 L139.1046,73.0423 C139.4756,67.3263 140.7776,57.8113 145.3496,56.9883" id="Fill-1800" fill="#CDD1DF"></path>
            <path d="M152.1787,28.2417 L129.7797,28.2417 C127.0467,28.2417 124.5767,29.2587 122.6327,30.8837 C124.8087,40.8827 128.7757,54.7427 133.0647,54.7427 C133.1647,54.7427 133.2637,54.7347 133.3637,54.7207 C137.0567,54.1597 138.2277,49.9257 139.3587,45.8307 C140.4777,41.7777 141.6347,37.5867 145.4367,37.5147 C145.4517,37.5127 145.4677,37.5127 145.4837,37.5127 C151.4737,37.5127 156.4807,59.6657 158.6457,70.9607 C161.5017,68.9307 163.3787,65.6127 163.3787,61.8417 L163.3787,39.4417 C163.3787,33.2567 158.3647,28.2417 152.1787,28.2417" id="Fill-1802" fill="#CDD1DF"></path>
            <path d="M745.6963,54.8672 L726.4973,54.8672 C726.4973,35.4572 710.7063,19.6672 691.2973,19.6672 L691.2973,0.4672 C721.2943,0.4672 745.6963,24.8702 745.6963,54.8672" id="Fill-1804" fill="#CDD1DF"></path>
            <polygon id="Fill-1806" fill="#CDD1DF" points="16.3037 237.1641 8.3037 245.1641 0.3037 237.1641 8.3037 229.1641"></polygon>
            <polygon id="Fill-1808" fill="#CDD1DF" points="745.6963 213.4189 737.6963 221.4189 729.6963 213.4189 737.6963 205.4189"></polygon>
            <path d="M259.1855,266.2217 L87.7825,266.2217 C83.3315,266.2217 79.3995,263.3297 78.0725,259.0827 L43.6445,148.9167 C41.6435,142.5127 46.4275,136.0057 53.1365,136.0057 L219.3165,136.0057 C223.7665,136.0057 227.6995,138.8977 229.0265,143.1447 L265.0115,258.2967 C266.2405,262.2277 263.3035,266.2217 259.1855,266.2217" id="Fill-1810" fill="#E8EAEF"></path>
            <path d="M268.3271,258.2969 L232.3421,143.1449 C231.0141,138.8979 227.0811,136.0059 222.6321,136.0059 L57.8571,136.0059 C53.7391,136.0059 50.8031,139.9999 52.0311,143.9299 L88.0161,259.0829 C89.3441,263.3299 93.2771,266.2219 97.7261,266.2219 L262.5011,266.2219 C266.6181,266.2219 269.5551,262.2279 268.3271,258.2969" id="Fill-1812" fill="#1D213A"></path>
            <polygon id="Fill-1814" fill="#FFFFFF" points="97.7266 256.2764 63.0886 145.9514 222.6316 145.9514 257.2696 256.2764"></polygon>
            <path d="M367.4395,276.5146 L100.9195,276.5146 C95.8585,276.5146 91.7555,272.4116 91.7555,267.3516 L91.7555,264.3066 L376.6035,264.3066 L376.6035,267.3516 C376.6035,272.4116 372.5015,276.5146 367.4395,276.5146" id="Fill-1816" fill="#E8EAEF"></path>
            <path d="M181.0283,277.3145 C180.5863,277.3145 180.2273,276.9565 180.2273,276.5135 C180.2273,276.0725 180.5863,275.7135 181.0283,275.7135 C186.0703,275.7135 190.1733,271.6125 190.1733,266.5705 L190.1733,264.3075 C190.1733,263.8655 190.5313,263.5075 190.9733,263.5075 C191.4153,263.5075 191.7733,263.8655 191.7733,264.3075 L191.7733,266.5705 C191.7733,272.4945 186.9533,277.3145 181.0283,277.3145" id="Fill-1818" fill="#1D213A"></path>
            <path d="M487.2725,117.6782 C440.1545,124.3742 381.5795,159.4272 374.4525,193.1652 C368.4615,221.5162 396.2785,281.0962 396.2785,281.0962 L642.1685,281.0962 C642.1685,281.0962 639.1155,185.4952 620.9015,162.6002 C602.1235,138.9962 535.8025,110.7822 487.2725,117.6782" id="Fill-1820" fill="#1D213A"></path>
            <path d="M425.2969,21.6606 C425.2969,21.6606 397.3359,18.1176 390.1019,42.9246 C383.7419,64.7326 398.3149,85.3506 398.3149,85.3506 L425.2969,21.6606 Z" id="Fill-1822" fill="#825656"></path>
            <path d="M451.0703,281.8965 C450.7743,281.8965 450.4893,281.7315 450.3513,281.4475 L420.0603,219.1815 C419.8673,218.7845 420.0323,218.3045 420.4293,218.1125 C420.8203,217.9215 421.3053,218.0835 421.4983,218.4815 L451.7893,280.7475 C451.9823,281.1435 451.8173,281.6235 451.4203,281.8155 C451.3073,281.8705 451.1883,281.8965 451.0703,281.8965" id="Fill-1824" fill="#E8EAEF"></path>
            <path d="M419.6484,261.7598 C419.6484,261.7598 420.7794,234.3298 414.1204,234.3298 C408.1644,234.3298 410.2714,261.7598 410.2714,261.7598 L393.4714,261.7598 C385.8354,158.9128 413.3264,107.9938 413.3264,107.9938 L452.2714,107.8718 C451.2634,196.5748 460.6704,261.7598 460.6704,261.7598 L419.6484,261.7598 Z" id="Fill-1826" fill="#825656"></path>
            <path d="M433.9512,129.2603 C433.9512,129.2603 456.8602,174.6963 467.5512,183.0963 C475.8772,189.6373 500.2322,182.4803 511.0782,165.5333 C523.2972,146.4423 520.1312,128.4183 520.1312,128.4183 L481.2972,91.9693 L433.9512,129.2603 Z" id="Fill-1828" fill="#FFC4A3"></path>
            <path d="M461.6328,225.9736 C461.2328,225.9736 460.8878,225.6736 460.8388,225.2656 C456.6248,188.8276 452.3548,137.3636 452.3128,136.8486 C452.2748,136.4076 452.6028,136.0216 453.0438,135.9856 C453.4448,135.9526 453.8678,136.2746 453.9058,136.7176 C453.9498,137.2326 458.2168,188.6696 462.4298,225.0806 C462.4798,225.5206 462.1648,225.9166 461.7268,225.9686 C461.6948,225.9716 461.6638,225.9736 461.6328,225.9736" id="Fill-1830" fill="#825656"></path>
            <path d="M387.3701,262.5518 C386.9421,262.5518 386.5871,262.2128 386.5701,261.7808 C382.2201,144.5578 410.4501,107.7378 410.7351,107.3798 C411.0131,107.0338 411.5131,106.9798 411.8591,107.2528 C412.2041,107.5268 412.2611,108.0308 411.9871,108.3768 C411.7041,108.7308 383.8451,145.2298 388.1701,261.7218 C388.1851,262.1638 387.8421,262.5338 387.3991,262.5518 L387.3701,262.5518 Z" id="Fill-1832" fill="#825656"></path>
            <path d="M457.3545,170.4795 C457.3725,170.4705 466.9845,165.7865 472.2655,149.6895 L449.4205,117.0755 L433.9515,129.2605 C433.9515,129.2605 446.4975,154.1375 457.3545,170.4795" id="Fill-1834" fill="#F99175"></path>
            <path d="M479.8115,35.792 C479.8115,35.792 433.9515,21.587 412.7595,35.906 C392.2205,49.784 386.1615,107.83 402.0695,138.732 C418.6785,170.996 467.8285,171.323 481.2215,134.987 C495.6145,95.94 479.8115,35.792 479.8115,35.792" id="Fill-1836" fill="#FFC4A3"></path>
            <path d="M487.251,91.9692 C487.251,91.9692 484.352,70.3332 473.66,52.7692 C473.66,52.7692 453.297,55.3152 433.951,47.1692 C414.605,39.0242 406.078,21.3962 408.998,14.7932 C414.229,2.9612 467.794,-0.9458 507.26,27.3152 C538.188,49.4602 554.224,80.0062 565.551,151.5322 C576.948,223.4992 574.206,281.0962 574.206,281.0962 L483.333,281.0962 C483.333,281.0962 480.023,203.2062 500.313,105.7072 L487.251,91.9692 Z" id="Fill-1838" fill="#825656"></path>
            <path d="M575.542,228.583 C575.109,228.583 574.755,228.239 574.742,227.805 C572.131,129.87 555.492,92.512 539.561,68.884 C539.313,68.519 539.409,68.022 539.776,67.773 C540.141,67.53 540.639,67.622 540.888,67.991 C556.946,91.809 573.72,129.417 576.342254,227.761 C576.353,228.203 576.005,228.57 575.563,228.583 L575.542,228.583 Z" id="Fill-1840" fill="#825656"></path>
            <path d="M540.2236,173.5645 C540.2236,173.5645 528.0086,174.9955 520.4996,179.5465 C513.0016,184.0905 514.1976,197.7405 524.3986,197.728508 C532.9076,197.7185 540.2236,196.4605 540.2236,196.4605 L540.2236,173.5645 Z" id="Fill-1842" fill="#FFC4A3"></path>
            <path d="M549.7695,198.8584 C549.7695,198.8584 547.5345,199.9054 547.1565,212.2374 C546.7745,224.7104 528.6415,228.2784 527.8265,209.6914 C527.0785,192.6454 535.5145,158.4694 552.3145,152.3604 C569.1155,146.2514 605.2575,159.9204 619.5145,177.5604 C630.7785,191.4964 641.9155,281.0964 641.9155,281.0964 L568.0965,281.0964 L570.3875,214.4054 C570.3875,214.4054 562.8775,210.8314 560.4595,204.7324 C560.4595,204.7324 553.3325,204.4394 549.7695,198.8584" id="Fill-1844" fill="#FFC4A3"></path>
            <path d="M528.4932,198.4297 C528.4582,198.4297 528.4232,198.4277 528.3882,198.4237 C527.9482,198.3647 527.6402,197.9627 527.6982,197.5257 C528.7512,189.5797 530.8562,181.3277 533.6302,174.2867 C533.7922,173.8767 534.2582,173.6717 534.6672,173.8377 C535.0782,173.9977 535.2792,174.4627 535.1172,174.8747 C532.3912,181.7967 530.3202,189.9157 529.2862,197.7347 C529.2312,198.1377 528.8892,198.4297 528.4932,198.4297" id="Fill-1846" fill="#1D213A"></path>
            <path d="M549.7705,199.6592 C549.4985,199.6592 549.2345,199.5202 549.0835,199.2702 C546.7665,195.3962 546.5365,187.3772 548.5205,179.7632 C550.6665,171.5292 554.9935,165.1892 560.7035,161.9082 C561.0795,161.6892 561.5715,161.8172 561.7945,162.2032 C562.0155,162.5862 561.8825,163.0752 561.4995,163.2952 C554.3025,167.4312 551.2495,175.6402 550.0685,180.1672 C547.9665,188.2292 548.6725,195.4672 550.4565,198.4482 C550.6845,198.8282 550.5605,199.3182 550.1805,199.5452 C550.0515,199.6232 549.9115,199.6592 549.7705,199.6592" id="Fill-1848" fill="#1D213A"></path>
            <path d="M583.6387,211.6309 C582.5777,211.6309 581.5087,211.5489 580.4437,211.3779 C575.8047,210.6359 572.0447,208.4109 569.5707,204.9449 C566.6437,200.8459 565.6847,195.2889 566.7997,188.8769 C568.9037,176.7759 576.6217,168.9239 576.9507,168.5959 C577.2627,168.2829 577.7667,168.2839 578.0787,168.5939 C578.3937,168.9059 578.3937,169.4119 578.0827,169.7249 C578.0057,169.8029 570.3887,177.5649 568.3747,189.1519 C567.3357,195.1329 568.2007,200.2719 570.8717,204.0159 C573.0937,207.1249 576.4907,209.1249 580.6967,209.7969 C585.7847,210.6109 590.9507,209.2829 594.5357,206.2479 C597.1807,204.0099 598.6497,201.0369 598.6727,197.8779 C598.6877,195.9379 598.1437,194.3969 597.0577,193.2969 C595.2037,191.4219 592.3367,191.3859 592.3097,191.3859 C591.8677,191.3849 591.5107,191.0259 591.5127,190.5839 C591.5127,190.1429 591.8697,189.7859 592.3107,189.7859 C592.4537,189.7859 595.8527,189.8129 598.1827,192.1589 C599.5867,193.5749 600.2897,195.5029 600.273967,197.8909 C600.2467,201.5219 598.5767,204.9249 595.5707,207.4709 C592.3907,210.1609 588.0917,211.6309 583.6387,211.6309" id="Fill-1850" fill="#1D213A"></path>
            <path d="M477.2246,281.8965 C476.7826,281.8965 476.424478,281.5395 476.424478,281.0965 C476.3596,184.2815 502.3446,103.3595 502.6076,102.5535 C502.7466,102.1345 503.1906,101.9045 503.6176,102.0405 C504.0366,102.1785 504.2656,102.6295 504.1296,103.0495 C503.8676,103.8535 477.9606,184.5445 478.0246,281.0965 C478.0246,281.5375 477.6666,281.8965 477.2246,281.8965" id="Fill-1852" fill="#825656"></path>
            <path d="M587.6328,198.6846 C587.4848,198.6846 587.3338,198.6436 587.2008,198.5576 C586.8288,198.3206 586.7198,197.8256 586.9588,197.4536 L596.3138,182.8566 C596.5558,182.4826 597.0498,182.3766 597.4188,182.6146 C597.7898,182.8516 597.8998,183.3466 597.6608,183.7186 L588.3058,198.3156 C588.1538,198.5546 587.8958,198.6846 587.6328,198.6846" id="Fill-1854" fill="#1D213A"></path>
            <path d="M560.4609,205.5332 C560.0189,205.5332 559.6609,205.1752 559.6609,204.7322 C559.6609,204.2912 560.0189,203.9322 560.4609,203.9322 C566.4999,203.9322 568.0599,201.5342 568.0729,201.5112 C568.3049,201.1402 568.7899,201.0172 569.1669,201.2392 C569.5419,201.4632 569.6719,201.9392 569.4539,202.3172 C569.3799,202.4482 567.5319,205.5332 560.4609,205.5332" id="Fill-1856" fill="#1D213A"></path>
            <path d="M591.998,219.6484 C585.336,219.6484 574.931,218.1854 569.964,215.0844 C569.589,214.8514 569.475,214.3574 569.709,213.9824 C569.945,213.6064 570.442,213.4944 570.811,213.7284 C576.786,217.4584 591.725,218.7114 596.245,217.7294 C596.688,217.6344 597.102,217.9084 597.196,218.3404 C597.292,218.7714 597.017,219.1984 596.586,219.2924 C595.508,219.5284 593.906,219.6484 591.998,219.6484" id="Fill-1858" fill="#1D213A"></path>
            <path d="M477.2256,85.3511 C477.2256,85.3511 485.4336,74.9281 497.8436,78.2891 C511.5496,82.0011 511.1426,104.7101 500.4686,110.7861 C491.5726,115.8501 482.4966,113.7041 482.4966,113.7041 L477.2256,85.3511 Z" id="Fill-1860" fill="#FFC4A3"></path>
            <path d="M486.0244,95.4248 C485.9354,95.4248 485.8434,95.4088 485.7544,95.3778 C485.3384,95.2278 485.1234,94.7698 485.2714,94.3548 C488.5604,85.1908 498.0084,86.4328 498.1154,86.4498 C498.5514,86.5118 498.8544,86.9168 498.7924,87.3548 C498.7314,87.7918 498.3264,88.0878 497.8884,88.0338 C497.5574,87.9848 489.6184,86.9778 486.7784,94.8948 C486.6614,95.2218 486.3524,95.4248 486.0244,95.4248" id="Fill-1862" fill="#1D213A"></path>
            <path d="M457.5205,58.8013 C451.1685,58.8013 444.1875,57.8953 437.5315,55.1783 C413.3795,45.3153 413.3575,26.3623 413.3605,26.1723 C413.3675,25.7343 413.7235,25.3833 414.1615,25.3833 L414.1695,25.3833 C414.6125,25.3893 414.9655,25.7513 414.9605,26.1923 C414.9585,26.3713 415.0375,44.2643 438.1375,53.6973 C457.4185,61.5693 479.5965,53.7643 479.8185,53.6843 C480.2275,53.5403 480.6925,53.7503 480.8415,54.1673 C480.9905,54.5823 480.7745,55.0403 480.3595,55.1903 C480.2085,55.2453 470.1045,58.8013 457.5205,58.8013" id="Fill-1864" fill="#825656"></path>
            <path d="M448.8301,99.1113 C448.8301,101.0933 447.2231,102.7003 445.2401,102.7003 C443.2591,102.7003 441.6511,101.0933 441.6511,99.1113 C441.6511,97.1293 443.2591,95.5223 445.2401,95.5223 C447.2231,95.5223 448.8301,97.1293 448.8301,99.1113" id="Fill-1866" fill="#1D213A"></path>
            <path d="M404.251,99.1113 C404.251,101.0933 402.644,102.7003 400.662,102.7003 C398.68,102.7003 397.072,101.0933 397.072,99.1113 C397.072,97.1293 398.68,95.5223 400.662,95.5223 C402.644,95.5223 404.251,97.1293 404.251,99.1113" id="Fill-1868" fill="#1D213A"></path>
            <path d="M459.7041,83.8447 C458.3411,84.4907 453.5701,84.2317 448.6021,83.8337 C443.6401,83.3637 438.8471,82.7847 437.6151,81.9117 C436.3091,81.0657 441.1451,79.6727 448.8821,80.3457 C456.6161,81.0267 461.1371,83.2377 459.7041,83.8447" id="Fill-1870" fill="#825656"></path>
            <path d="M407.3125,81.5444 C406.3785,82.3694 402.6885,82.7544 398.8725,83.1234 C395.0495,83.4234 391.3835,83.6814 390.3215,83.0314 C389.2065,82.4174 392.6515,80.3534 398.6015,79.8294 C404.5525,79.3124 408.3035,80.7464 407.3125,81.5444" id="Fill-1872" fill="#825656"></path>
            <path d="M415.8857,116.4702 C414.0997,116.4702 412.4137,115.9052 411.1857,115.0042 C409.2667,113.5982 408.5517,111.5532 409.2717,109.5332 C409.7267,108.2562 410.5247,107.3612 411.6487,106.8712 C413.2587,106.1732 415.1307,106.5232 416.2077,106.8372 L418.0947,99.3612 C418.2027,98.9322 418.6337,98.6672 419.0657,98.7812 C419.4927,98.8892 419.7547,99.3232 419.6457,99.7512 L417.5447,108.0732 C417.4897,108.3012 417.3337,108.4912 417.1247,108.5952 C416.9137,108.6982 416.6697,108.7072 416.4537,108.6122 C416.4297,108.6012 414.0127,107.5902 412.2817,108.3422 C411.5737,108.6512 411.0827,109.2152 410.7787,110.0702 C410.1017,111.9692 411.4997,113.2502 412.1307,113.7142 C414.0337,115.1082 417.3157,115.4872 419.9137,113.5182 C420.2627,113.2532 420.7657,113.3202 421.0337,113.6732 C421.3017,114.0252 421.2327,114.5262 420.8797,114.7932 C419.3217,115.9732 417.5597,116.4702 415.8857,116.4702" id="Fill-1874" fill="#F99175"></path>
            <path d="M414.4561,262.5596 C414.0501,262.5596 413.7031,262.2516 413.6611,261.8376 C411.5751,240.7186 413.6461,227.7816 413.6691,227.6536 C413.7391,227.2166 414.1621,226.9156 414.5871,226.9946 C415.0231,227.0656 415.3181,227.4766 415.2471,227.9126 C415.2271,228.0386 413.1901,240.7916 415.2551,261.6816 C415.2971,262.1206 414.9771,262.5126 414.5361,262.5566 C414.5091,262.5576 414.4821,262.5596 414.4561,262.5596" id="Fill-1876" fill="#825656"></path>
            <path d="M431.0684,126.2822 C425.7074,127.2302 422.9884,123.7402 420.3824,126.8492 C417.3594,130.4582 423.4754,139.5252 432.6814,137.1802 C440.5634,135.1722 442.2604,125.8312 438.6854,124.3712 C435.9624,123.2602 434.4454,125.6852 431.0684,126.2822" id="Fill-1878" fill="#1D213A"></path>
            <path d="M426.7979,137.1211 C428.5429,137.6131 430.5159,137.7311 432.6819,137.1801 C437.6189,135.9221 440.1269,131.7871 440.4349,128.5141 C439.4629,128.2251 438.4539,128.0231 437.3889,128.0231 C432.0169,128.0231 427.6019,131.9741 426.7979,137.1211" id="Fill-1880" fill="#1D213A"></path>
            <path d="M440.6533,128.7822 C440.9183,126.6722 440.3373,124.8592 438.9103,124.2772 C436.1153,123.1362 434.5603,125.6242 431.0953,126.2372 C425.5953,127.2102 422.8063,123.6282 420.1323,126.8192 C419.3563,127.7452 419.1693,129.0222 419.4693,130.3792 C421.7973,131.4092 425.0003,132.2762 429.1863,132.0212 C434.3093,131.7082 438.1593,130.1492 440.6533,128.7822" id="Fill-1882" fill="#E8EAEF"></path>
            <path d="M308.5244,204.7324 L308.5244,204.7324 C295.0284,204.7324 284.0874,215.6734 284.0874,229.1694 L284.0874,257.0744 C284.0874,258.5324 285.2704,259.7144 286.7284,259.7144 C287.8834,259.7144 288.9044,258.9634 289.2494,257.8614 L292.6624,246.9404 C294.8304,240.0024 301.2554,235.2784 308.5244,235.2784 L308.5244,204.7324 Z" id="Fill-1884" fill="#1D213A"></path>
            <path d="M332.9609,204.7324 L332.9609,204.7324 C346.4569,204.7324 357.3979,215.6734 357.3979,229.1694 L357.3979,257.0744 C357.3979,258.5324 356.2149,259.7144 354.7569,259.7144 C353.6019,259.7144 352.5809,258.9634 352.2359,257.8614 L348.8229,246.9404 C346.6549,240.0024 340.2299,235.2784 332.9609,235.2784 L332.9609,204.7324 Z" id="Fill-1886" fill="#1D213A"></path>
            <path d="M332.9609,250.5508 L308.5239,250.5508 C306.8379,250.5508 305.4699,249.1838 305.4699,247.4958 L305.4699,238.3328 L336.0159,238.3328 L336.0159,247.4958 C336.0159,249.1838 334.6479,250.5508 332.9609,250.5508" id="Fill-1888" fill="#848CAE"></path>
            <path d="M335.6328,241.3877 C338.4018,241.3877 340.8438,239.5487 341.5378,236.8687 C343.4998,229.2997 345.1788,219.4267 345.1788,207.7867 C345.1788,170.6737 331.5238,131.4237 320.7418,131.4237 C309.9618,131.4237 296.3068,170.6737 296.3068,207.7867 C296.3068,219.4267 297.9858,229.2997 299.9468,236.8687 C300.6418,239.5487 303.0838,241.3877 305.8528,241.3877 L335.6328,241.3877 Z" id="Fill-1890" fill="#E8EAEF"></path>
            <path d="M326.8516,232.2236 C326.8516,247.4066 324.1166,259.7146 320.7426,259.7146 C317.3696,259.7146 314.6336,247.4066 314.6336,232.2236 C314.6336,217.0406 317.3696,204.7326 320.7426,204.7326 C324.1166,204.7326 326.8516,217.0406 326.8516,232.2236" id="Fill-1892" fill="#1D213A"></path>
            <path d="M304.4268,155.8604 L337.0588,155.8604 C332.2888,141.3164 326.1548,131.4234 320.7418,131.4234 C315.3308,131.4234 309.1968,141.3164 304.4268,155.8604" id="Fill-1894" fill="#1D213A"></path>
            <polygon id="Fill-1896" fill="#D3D6E2" points="378.7793 278.042 262.7063 278.042 268.8153 259.715 372.6703 259.715"></polygon>
            <path d="M559.8535,265.8242 L520.1445,265.8242 L520.1445,244.4422 C520.1445,239.3812 524.2475,235.2782 529.3075,235.2782 L550.6895,235.2782 C555.7505,235.2782 559.8535,239.3812 559.8535,244.4422 L559.8535,265.8242 Z" id="Fill-1898" fill="#1D213A"></path>
            <polygon id="Fill-1900" fill="#1D213A" points="378.7793 278.042 348.2333 278.042 342.1243 259.715 372.6703 259.715"></polygon>
            <polygon id="Fill-1902" fill="#E8EAEF" points="585.8174 278.042 494.1804 278.042 500.2904 259.715 579.7084 259.715"></polygon>
            <path d="M558.3252,278.8418 C557.9422,278.8418 557.6022,278.5658 557.5372,278.1738 L554.4822,259.8458 C554.4092,259.4088 554.7042,258.9968 555.1402,258.9248 C555.5702,258.8518 555.9872,259.1458 556.0602,259.5828 L559.1152,277.9108 C559.1882,278.3468 558.8932,278.7598 558.4582,278.8308 C558.4142,278.8388 558.3682,278.8418 558.3252,278.8418" id="Fill-1904" fill="#1D213A"></path>
            <polygon id="Fill-1906" fill="#D3D6E2" points="692.5693 305.5332 57.2233 305.5332 38.8963 274.9872 710.8963 274.9872"></polygon>
            <polygon id="Fill-1908" fill="#1D213A" points="692.5693 305.5332 545.9513 305.5332 564.2783 274.9872 710.8963 274.9872"></polygon>
        </g>
    </g>
</svg>