<?xml version="1.0" encoding="UTF-8"?>
<svg width="428px" height="782px" viewBox="0 0 428 782" version="1.1" xmlns="http://www.w3.org/2000/svg" xmlns:xlink="http://www.w3.org/1999/xlink">
    <title>Illustration 18 0</title>
    <g id="🤩-Illustrations" stroke="none" stroke-width="1" fill="none" fill-rule="evenodd">
        <g id="Illustration-18">
            <path d="M102.8921,168.0605 C98.4171,172.6785 92.5331,175.7375 87.1551,177.7565 L87.1551,187.7925 C87.1551,188.0995 87.2211,188.3885 87.2451,188.6895 C97.3601,179.6975 115.8791,164.4045 121.1371,167.9605 C124.2751,170.0905 121.3691,175.0185 118.5591,179.7845 C115.9651,184.1825 113.2831,188.7325 115.4481,190.5265 C118.0881,192.7115 125.4821,187.4745 131.9541,181.8735 L131.9541,165.3925 C131.9541,159.2065 126.9401,154.1925 120.7551,154.1925 L111.0831,154.1925 C109.4601,158.8905 106.9131,163.9125 102.8921,168.0605" id="Fill-2626" fill="#CDD1DF"></path>
            <path d="M114.7329,191.3887 C111.8349,188.9867 114.7619,184.0187 117.5949,179.2137 C120.1419,174.8937 122.7749,170.4267 120.5089,168.8887 C116.1549,165.9307 98.4509,180.2327 87.3899,190.0767 C88.4449,195.1657 92.9519,198.9927 98.3549,198.9927 L120.7549,198.9927 C126.9409,198.9927 131.9549,193.9787 131.9549,187.7927 L131.9549,183.3827 C125.5879,188.8067 117.9599,194.0587 114.7329,191.3887" id="Fill-2628" fill="#CDD1DF"></path>
            <path d="M102.0889,167.2832 C105.8809,163.3692 108.3159,158.6502 109.8979,154.1922 L98.3549,154.1922 C92.1689,154.1922 87.1549,159.2072 87.1549,165.3922 L87.1549,176.5642 C92.2949,174.5952 97.8499,171.6562 102.0889,167.2832" id="Fill-2630" fill="#CDD1DF"></path>
            <path d="M8.4663,480.2676 C8.4663,482.0356 7.0333,483.4676 5.2663,483.4676 C3.4993,483.4676 2.0663,482.0356 2.0663,480.2676 C2.0663,478.4996 3.4993,477.0676 5.2663,477.0676 C7.0333,477.0676 8.4663,478.4996 8.4663,480.2676" id="Fill-2632" fill="#CDD1DF"></path>
            <path d="M40.4663,480.2676 C40.4663,482.0356 39.0333,483.4676 37.2663,483.4676 C35.4993,483.4676 34.0663,482.0356 34.0663,480.2676 C34.0663,478.4996 35.4993,477.0676 37.2663,477.0676 C39.0333,477.0676 40.4663,478.4996 40.4663,480.2676" id="Fill-2634" fill="#CDD1DF"></path>
            <path d="M72.4663,480.2676 C72.4663,482.0356 71.0333,483.4676 69.2663,483.4676 C67.4993,483.4676 66.0663,482.0356 66.0663,480.2676 C66.0663,478.4996 67.4993,477.0676 69.2663,477.0676 C71.0333,477.0676 72.4663,478.4996 72.4663,480.2676" id="Fill-2636" fill="#CDD1DF"></path>
            <path d="M104.4663,480.2676 C104.4663,482.0356 103.0333,483.4676 101.2663,483.4676 C99.4993,483.4676 98.0663,482.0356 98.0663,480.2676 C98.0663,478.4996 99.4993,477.0676 101.2663,477.0676 C103.0333,477.0676 104.4663,478.4996 104.4663,480.2676" id="Fill-2638" fill="#CDD1DF"></path>
            <path d="M10.0664,512.2676 C10.0664,514.9186 7.9174,517.0676 5.2664,517.0676 C2.6154,517.0676 0.4664,514.9186 0.4664,512.2676 C0.4664,509.6166 2.6154,507.4676 5.2664,507.4676 C7.9174,507.4676 10.0664,509.6166 10.0664,512.2676" id="Fill-2640" fill="#CDD1DF"></path>
            <path d="M42.0664,512.2676 C42.0664,514.9186 39.9174,517.0676 37.2664,517.0676 C34.6154,517.0676 32.4664,514.9186 32.4664,512.2676 C32.4664,509.6166 34.6154,507.4676 37.2664,507.4676 C39.9174,507.4676 42.0664,509.6166 42.0664,512.2676" id="Fill-2642" fill="#CDD1DF"></path>
            <path d="M72.4663,512.2676 C72.4663,514.0356 71.0333,515.4676 69.2663,515.4676 C67.4993,515.4676 66.0663,514.0356 66.0663,512.2676 C66.0663,510.4996 67.4993,509.0676 69.2663,509.0676 C71.0333,509.0676 72.4663,510.4996 72.4663,512.2676" id="Fill-2644" fill="#CDD1DF"></path>
            <path d="M104.4663,512.2676 C104.4663,514.0356 103.0333,515.4676 101.2663,515.4676 C99.4993,515.4676 98.0663,514.0356 98.0663,512.2676 C98.0663,510.4996 99.4993,509.0676 101.2663,509.0676 C103.0333,509.0676 104.4663,510.4996 104.4663,512.2676" id="Fill-2646" fill="#CDD1DF"></path>
            <path d="M10.0664,544.2676 C10.0664,546.9186 7.9174,549.0676 5.2664,549.0676 C2.6154,549.0676 0.4664,546.9186 0.4664,544.2676 C0.4664,541.6166 2.6154,539.4676 5.2664,539.4676 C7.9174,539.4676 10.0664,541.6166 10.0664,544.2676" id="Fill-2648" fill="#CDD1DF"></path>
            <path d="M42.0664,544.2676 C42.0664,546.9186 39.9174,549.0676 37.2664,549.0676 C34.6154,549.0676 32.4664,546.9186 32.4664,544.2676 C32.4664,541.6166 34.6154,539.4676 37.2664,539.4676 C39.9174,539.4676 42.0664,541.6166 42.0664,544.2676" id="Fill-2650" fill="#CDD1DF"></path>
            <path d="M74.0664,544.2676 C74.0664,546.9186 71.9174,549.0676 69.2664,549.0676 C66.6154,549.0676 64.4664,546.9186 64.4664,544.2676 C64.4664,541.6166 66.6154,539.4676 69.2664,539.4676 C71.9174,539.4676 74.0664,541.6166 74.0664,544.2676" id="Fill-2652" fill="#CDD1DF"></path>
            <path d="M104.4663,544.2676 C104.4663,546.0356 103.0333,547.4676 101.2663,547.4676 C99.4993,547.4676 98.0663,546.0356 98.0663,544.2676 C98.0663,542.4996 99.4993,541.0676 101.2663,541.0676 C103.0333,541.0676 104.4663,542.4996 104.4663,544.2676" id="Fill-2654" fill="#CDD1DF"></path>
            <path d="M10.0664,576.2676 C10.0664,578.9186 7.9174,581.0676 5.2664,581.0676 C2.6154,581.0676 0.4664,578.9186 0.4664,576.2676 C0.4664,573.6166 2.6154,571.4676 5.2664,571.4676 C7.9174,571.4676 10.0664,573.6166 10.0664,576.2676" id="Fill-2656" fill="#CDD1DF"></path>
            <path d="M42.0664,576.2676 C42.0664,578.9186 39.9174,581.0676 37.2664,581.0676 C34.6154,581.0676 32.4664,578.9186 32.4664,576.2676 C32.4664,573.6166 34.6154,571.4676 37.2664,571.4676 C39.9174,571.4676 42.0664,573.6166 42.0664,576.2676" id="Fill-2658" fill="#CDD1DF"></path>
            <path d="M74.0664,576.2676 C74.0664,578.9186 71.9174,581.0676 69.2664,581.0676 C66.6154,581.0676 64.4664,578.9186 64.4664,576.2676 C64.4664,573.6166 66.6154,571.4676 69.2664,571.4676 C71.9174,571.4676 74.0664,573.6166 74.0664,576.2676" id="Fill-2660" fill="#CDD1DF"></path>
            <path d="M104.4663,576.2676 C104.4663,578.0356 103.0333,579.4676 101.2663,579.4676 C99.4993,579.4676 98.0663,578.0356 98.0663,576.2676 C98.0663,574.4996 99.4993,573.0676 101.2663,573.0676 C103.0333,573.0676 104.4663,574.4996 104.4663,576.2676" id="Fill-2662" fill="#CDD1DF"></path>
            <path d="M402.9526,128.4639 L383.7526,128.4639 C383.7526,109.0549 367.9626,93.2639 348.5526,93.2639 L348.5526,74.0649 C378.5496,74.0649 402.9526,98.4669 402.9526,128.4639" id="Fill-2664" fill="#CDD1DF"></path>
            <polygon id="Fill-2666" fill="#CDD1DF" points="427.5337 573.0674 419.5337 581.0674 411.5337 573.0674 419.5337 565.0674"></polygon>
            <polygon id="Fill-2668" fill="#CDD1DF" points="38.4658 256.6934 30.4658 264.6934 22.4658 256.6934 30.4658 248.6934"></polygon>
            <path d="M149.5566,688.3027 L127.0126,772.9067 L30.7236,749.6227 C30.7236,749.6227 27.5666,729.8917 43.3516,718.4477 C59.1366,707.0027 85.8956,716.8257 85.8956,716.8257 L93.7466,676.8847 L149.5566,688.3027 Z" id="Fill-2670" fill="#FFC4A3"></path>
            <polygon id="Fill-2672" fill="#F99175" points="89.0322 700.8701 144.7902 706.1891 149.5562 688.3031 93.7472 676.8851"></polygon>
            <path d="M360.0391,687.0742 L375.6271,781.1932 L277.3651,781.1932 C277.3651,781.1932 272.2351,765.0132 281.7061,751.5952 C291.9471,737.0882 314.3111,739.7172 314.3111,739.7172 L305.3711,689.0922 L360.0391,687.0742 Z" id="Fill-2674" fill="#FFC4A3"></path>
            <polygon id="Fill-2676" fill="#F99175" points="360.0391 687.0742 305.3711 689.0922 310.0251 715.4462 363.2151 706.2502"></polygon>
            <path d="M198.9219,277.0898 L127.7319,318.1628 C120.4389,338.1148 103.8959,339.5678 103.8959,339.5678 C106.1059,341.9978 104.4009,348.3128 96.8559,349.0378 C89.3109,349.7648 87.8579,344.4288 87.8579,344.4288 C87.8579,344.4288 84.4489,346.3868 80.3129,344.4288 C76.1769,342.4718 75.7039,338.5888 75.7039,338.5888 C67.9379,340.0408 62.8859,334.4528 65.5069,326.1818 C68.0319,318.1938 74.6619,313.8378 74.6619,313.8378 C74.6619,313.8378 76.9659,296.5368 83.6919,291.8968 C92.7519,285.6138 110.4629,284.1298 110.4629,284.1298 L164.7319,232.7658 C174.7389,235.6388 187.9669,241.6058 193.6499,253.6018 C197.3119,261.3678 198.6699,269.7018 198.9219,277.0898" id="Fill-2678" fill="#FFC4A3"></path>
            <path d="M164.7314,232.7656 L154.4224,242.5226 C154.4784,242.5416 182.9394,252.2096 176.5854,289.9776 L198.9214,277.0896 C198.6694,269.7026 197.3124,261.3686 193.6494,253.6016 C187.9664,241.6056 174.7384,235.6386 164.7314,232.7656" id="Fill-2680" fill="#F99175"></path>
            <path d="M154.4204,242.5215 C154.4204,242.5215 169.5904,243.3525 179.4944,257.4085 C189.3634,271.4155 185.2804,284.9615 185.2794,284.9625 L201.8894,275.3775 L201.8894,197.5775 L154.4204,242.5215 Z" id="Fill-2682" fill="#1D213A"></path>
            <path d="M377.1211,700.2666 L277.2331,703.8456 C249.5481,539.6516 231.9831,414.4536 231.9831,414.4536 L162.0021,703.8456 L58.3481,684.3776 C58.3481,684.3776 81.5591,587.7266 116.2261,472.3316 C152.8031,350.5796 195.1511,250.2886 195.1511,250.2886 L300.3851,250.2886 L377.1211,700.2666 Z" id="Fill-2684" fill="#D3D6E2"></path>
            <path d="M231.981,415.2529 C231.59,415.2529 231.248,414.9659 231.19,414.5669 C225.747,376.9329 222.205,343.9009 221.762,339.7339 C219.058,338.3589 204.078,330.0499 200.681,313.0599 C200.593,312.6269 200.875,312.2049 201.309,312.1189 C201.722,312.0289 202.162,312.3109 202.25,312.7469 C205.806,330.5289 222.673,338.4039 222.843,338.4819 C223.101,338.5999 223.278,338.8469 223.308,339.1279 C223.343,339.4749 226.981,374.2969 232.775,414.3389 C232.837,414.7759 232.534,415.1819 232.097,415.2449 C232.058,415.2499 232.02,415.2529 231.981,415.2529" id="Fill-2686" fill="#1D213A"></path>
            <path d="M248.0649,110.0313 C217.7339,108.2233 205.4119,119.7993 194.4939,175.4413 C186.7239,215.0413 187.3899,239.7653 169.6319,280.4123 C169.6319,280.4123 190.9419,298.5643 238.6919,301.3273 C286.4409,304.0903 318.8009,289.0933 318.8009,289.0933 C318.8009,289.0933 307.3569,256.3403 297.4909,203.8543 C287.6259,151.3693 281.8229,112.0443 248.0649,110.0313" id="Fill-2688" fill="#1D213A"></path>
            <path d="M178.7183,257.1514 C178.6383,257.1514 178.5573,257.1384 178.4783,257.1144 C178.0563,256.9814 177.8233,256.5314 177.9563,256.1114 C183.1163,239.7634 185.5283,225.5214 187.9323,209.9224 C188.0013,209.4864 188.4213,209.1924 188.8453,209.2534 C189.2813,209.3204 189.5813,209.7294 189.5133,210.1664 C187.0993,225.8314 184.6773,240.1374 179.4813,256.5914 C179.3733,256.9344 179.0593,257.1514 178.7183,257.1514" id="Fill-2690" fill="#E8EAEF"></path>
            <path d="M419.5337,370.9795 C419.5337,375.6205 416.3767,381.6195 413.3777,384.3655 C408.4527,388.8165 400.4017,385.0915 400.4017,385.0915 C400.4017,385.0915 393.7727,390.2375 386.9537,385.5015 C386.9537,385.5015 383.5127,389.6375 374.9257,384.9025 C366.3377,380.1675 355.1947,360.9085 349.7637,346.6075 C345.2487,334.6735 334.9887,296.7905 329.5587,270.8715 C334.8307,265.7245 343.9237,259.5685 357.2777,259.1265 C367.7587,258.7795 374.8307,261.3365 379.4707,264.2085 C384.9647,296.5685 389.0367,342.6295 389.0367,342.6295 C389.0367,342.6295 400.6227,346.5765 404.0337,371.8325 C404.0337,371.8325 405.2007,368.0755 409.6527,365.4555 C414.1357,362.8335 419.5337,365.7395 419.5337,370.9795" id="Fill-2692" fill="#FFC4A3"></path>
            <path d="M212.8496,67.1455 C212.8496,67.1455 198.0446,80.9285 188.9686,119.0095 C180.9456,152.6735 180.7686,180.3745 180.7686,180.3745 L207.5166,180.3745 C207.5166,180.3745 208.9096,124.1985 212.8496,67.1455" id="Fill-2694" fill="#825656"></path>
            <path d="M199.6392,69.8877 L209.3562,129.7007 C219.8992,133.0287 255.6302,107.0057 255.6302,107.0057 L241.1502,61.2717 L199.6392,69.8877 Z" id="Fill-2696" fill="#FFC4A3"></path>
            <path d="M381.9878,280.5967 L381.9938,280.5947 C381.1968,274.9457 380.3528,269.4007 379.4708,264.2087 C374.8308,261.3367 367.7588,258.7797 357.2778,259.1267 C343.9238,259.5687 334.8308,265.7247 329.5588,270.8707 C330.9378,277.4527 332.6298,284.8077 334.4588,292.3117 C350.5748,269.2077 381.9878,280.5967 381.9878,280.5967" id="Fill-2698" fill="#F99175"></path>
            <path d="M219.6714,91.6191 L215.1584,66.6671 L206.8364,68.3931 L199.6384,69.8881 L204.9504,102.5771 C206.7854,101.8621 213.7964,98.7951 219.6714,91.6191" id="Fill-2700" fill="#F99175"></path>
            <path d="M381.9878,280.5967 C379.3688,262.0467 376.2418,244.6407 372.9958,237.1347 C367.5788,224.6057 344.1288,186.7087 316.6958,157.1577 C289.1228,127.4527 278.8118,113.7477 248.0648,110.0317 C248.0648,110.0317 236.7528,156.8087 254.1868,184.9437 C277.2338,222.1387 326.9568,257.1287 326.9568,257.1287 C328.1108,264.3867 330.2028,274.3007 332.7038,284.9627 L332.7048,284.9627 C332.7048,284.9627 340.5128,273.4097 356.6858,271.6127 C374.4238,269.6417 381.9708,280.5717 381.9878,280.5967" id="Fill-2702" fill="#1D213A"></path>
            <path d="M176.6733,181.1748 C176.6593,181.1748 176.6433,181.1748 176.6293,181.1748 C176.1873,181.1508 175.8493,180.7718 175.8743,180.3308 C179.9393,107.1688 205.1033,79.7398 205.3573,79.4718 C205.6623,79.1538 206.1653,79.1348 206.4873,79.4408 C206.8093,79.7438 206.8233,80.2498 206.5203,80.5708 C206.2713,80.8358 181.4993,107.9218 177.4713,180.4188 C177.4483,180.8458 177.0953,181.1748 176.6733,181.1748" id="Fill-2704" fill="#825656"></path>
            <path d="M305.1655,240.8877 C304.9825,240.8877 304.8015,240.8257 304.6515,240.7007 C288.5985,227.2047 266.6945,206.6507 253.5055,185.3657 C250.8245,181.0367 248.6595,176.0057 247.0685,170.4107 C246.9485,169.9867 247.1945,169.5437 247.6205,169.4217 C248.0495,169.3027 248.4885,169.5487 248.6085,169.9737 C250.1575,175.4247 252.2625,180.3207 254.8655,184.5217 C267.9435,205.6277 289.7165,226.0547 305.6795,239.4747 C306.0185,239.7597 306.0615,240.2637 305.7775,240.6017 C305.6205,240.7907 305.3935,240.8877 305.1655,240.8877" id="Fill-2706" fill="#E8EAEF"></path>
            <path d="M190.6787,13.8418 C190.6787,13.8418 182.1287,27.0618 180.8787,48.9638 C179.5757,71.8088 189.8897,92.5708 208.8317,93.2278 C226.7347,93.8498 242.1517,79.0048 241.2567,55.6718 C240.2697,29.9558 232.7727,13.8418 232.7727,13.8418 L190.6787,13.8418 Z" id="Fill-2708" fill="#FFC4A3"></path>
            <path d="M207.8452,224.9121 L207.8262,224.9121 C207.3862,224.9011 207.0352,224.5361 207.044992,224.0941 C207.0562,223.6281 208.1752,176.9981 214.6842,134.5571 C221.2142,91.9901 242.7412,59.3171 242.9592,58.9921 C243.2072,58.6231 243.7022,58.5261 244.0682,58.7701 C244.4352,59.0161 244.5352,59.5131 244.2902,59.8801 C244.0762,60.2011 222.7392,92.5971 216.2652,134.8001 C209.7712,177.1391 208.6562,223.6661 208.6452,224.1311 C208.6362,224.5651 208.2792,224.9121 207.8452,224.9121" id="Fill-2710" fill="#825656"></path>
            <path d="M285.8638,119.6104 C273.8638,129.0824 259.4638,128.0904 255.1438,151.3544 C250.6958,175.1314 253.5438,224.1224 253.5438,224.1224 L230.7918,224.1224 C230.7918,224.1224 231.4638,203.3864 226.3758,203.3864 C221.3198,203.3864 222.1838,224.1224 222.1838,224.1224 L212.6478,224.1224 C212.6478,224.1224 211.9758,163.3544 221.8638,118.8744 C231.7198,74.4264 242.3758,58.7784 242.3758,58.7784 L242.3758,50.4904 L234.2158,50.4904 C231.7198,31.8024 216.6478,21.3704 216.6478,21.3704 C202.7918,27.0664 184.9678,24.1864 185.9278,14.9704 C187.3998,1.4024 221.8638,-5.0296 239.2078,7.6104 C255.0158,19.0984 259.6238,39.2584 275.2078,62.1714 C296.2958,93.2424 295.9118,111.6424 285.8638,119.6104" id="Fill-2712" fill="#825656"></path>
            <path d="M230.9355,42.5723 C230.9355,42.5723 236.3905,36.1523 243.4935,39.5753 C250.0545,42.7363 250.9255,54.7653 243.6245,59.4353 C238.1135,62.9613 233.1015,61.2713 233.1015,61.2713 L230.9355,42.5723 Z" id="Fill-2714" fill="#FFC4A3"></path>
            <path d="M82.7373,326.3486 C82.6463,326.3486 82.5563,326.3466 82.4653,326.3456 C80.2653,326.2886 78.3153,325.4086 76.8263,323.7986 C74.7063,321.5056 73.6573,317.9586 73.8743,313.8106 C73.8963,313.3716 74.2853,313.0106 74.7153,313.0546 C75.1553,313.0766 75.4953,313.4526 75.4713,313.8956 C75.2803,317.5546 76.2023,320.7686 78.0013,322.7106 C79.2073,324.0156 80.7233,324.7006 82.5063,324.7446 C85.8143,324.8096 90.0543,323.3746 90.5063,309.9136 C90.5173,309.6196 90.6893,309.3536 90.9543,309.2216 C91.2163,309.0966 91.5353,309.1196 91.7763,309.2916 C91.8483,309.3466 99.1433,314.4946 109.8043,312.1216 C110.2453,312.0236 110.6633,312.2996 110.7593,312.7296 C110.8543,313.1606 110.5823,313.5876 110.1513,313.6846 C101.2373,315.6656 94.6463,312.7966 92.0453,311.3406 C91.4743,321.5606 88.4993,326.3486 82.7373,326.3486" id="Fill-2716" fill="#1D213A"></path>
            <path d="M75.7046,339.3906 C75.3306,339.3906 74.9966,339.1266 74.9216,338.7466 C74.8356,338.3126 75.1166,337.8926 75.5496,337.8066 C80.8796,336.7476 86.5306,332.5836 87.6436,328.8966 C88.1246,327.2996 87.7406,325.8676 86.5026,324.6376 C86.1906,324.3266 86.1866,323.8206 86.4996,323.5056 C86.8106,323.1926 87.3166,323.1926 87.6306,323.5026 C89.2966,325.1586 89.8306,327.1826 89.1746,329.3596 C87.7596,334.0496 81.1476,338.3256 75.8626,339.3746 C75.8086,339.3856 75.7576,339.3906 75.7046,339.3906" id="Fill-2718" fill="#1D213A"></path>
            <path d="M70.2856,327.167 C70.1446,327.167 70.0026,327.131 69.8746,327.053 C69.4946,326.826 69.3716,326.334 69.5996,325.956 C71.8016,322.287 75.8436,320.95 76.0146,320.896 C76.4336,320.76 76.8846,320.99 77.0216,321.409 C77.1576,321.83 76.9266,322.279 76.5076,322.417 C76.4716,322.43 72.8556,323.638 70.9716,326.778 C70.8216,327.028 70.5566,327.167 70.2856,327.167" id="Fill-2720" fill="#1D213A"></path>
            <path d="M87.8638,345.2266 C87.5418,345.2266 87.2378,345.0296 87.1148,344.7106 C86.9588,344.2966 87.1668,343.8356 87.5798,343.6776 C91.7278,342.1046 94.6518,339.2596 95.3998,336.0686 C95.7908,334.4016 95.4838,332.8726 94.5588,331.8746 C92.1028,329.2216 88.6218,330.3726 88.4748,330.4236 C88.0608,330.5676 87.5998,330.3456 87.4578,329.9276 C87.3138,329.5126 87.5328,329.0576 87.9478,328.9126 C88.1328,328.8456 92.5528,327.3546 95.7338,330.7876 C97.0248,332.1816 97.4718,334.2396 96.9578,336.4326 C96.0878,340.1436 92.7938,343.4116 88.1478,345.1746 C88.0538,345.2086 87.9578,345.2266 87.8638,345.2266" id="Fill-2722" fill="#1D213A"></path>
            <path d="M103.9092,340.3643 C103.6342,340.3643 103.3672,340.2213 103.2182,339.9673 C101.1932,336.5053 96.2402,337.6503 96.1872,337.6613 C95.7532,337.7563 95.3252,337.4983 95.2212,337.0703 C95.1182,336.6403 95.3822,336.2093 95.8122,336.1043 C96.0622,336.0423 101.9782,334.6773 104.5992,339.1613 C104.8232,339.5423 104.6932,340.0313 104.3122,340.2553 C104.1852,340.3303 104.0462,340.3643 103.9092,340.3643" id="Fill-2724" fill="#1D213A"></path>
            <path d="M400.4014,385.8926 C400.2704,385.8926 400.1374,385.8616 400.0154,385.7916 C393.9624,382.4606 390.0014,374.2496 389.8354,373.9016 C389.6454,373.5026 389.8154,373.0266 390.2134,372.8356 C390.6074,372.6426 391.0874,372.8146 391.2794,373.2136 C391.3184,373.2936 395.1904,381.3096 400.7874,384.3906 C401.1744,384.6046 401.3154,385.0906 401.1014,385.4786 C400.9564,385.7426 400.6824,385.8926 400.4014,385.8926" id="Fill-2726" fill="#1D213A"></path>
            <path d="M386.9526,386.3018 C386.8106,386.3018 386.6686,386.2638 386.5386,386.1858 C380.8236,382.7248 377.1266,376.3298 376.9716,376.0598 C376.7526,375.6768 376.8856,375.1878 377.2696,374.9688 C377.6496,374.7498 378.1396,374.8808 378.3606,375.2658 C378.3966,375.3278 382.0136,381.5748 387.3666,384.8178 C387.7446,385.0468 387.8656,385.5368 387.6376,385.9158 C387.4876,386.1638 387.2236,386.3018 386.9526,386.3018" id="Fill-2728" fill="#1D213A"></path>
            <path d="M234.6826,52.4746 C234.6266,52.4746 234.5716,52.4686 234.5156,52.4576 C234.0826,52.3656 233.8066,51.9406 233.8976,51.5096 C235.7636,42.6976 242.3306,43.3656 242.4046,43.3826 C242.8436,43.4346 243.1556,43.8326 243.1026,44.2716 C243.0516,44.7106 242.6516,45.0176 242.2186,44.9716 C242.0156,44.9476 237.0216,44.4896 235.4636,51.8406 C235.3846,52.2166 235.0516,52.4746 234.6826,52.4746" id="Fill-2730" fill="#1D213A"></path>
            <path d="M370.1182,747.9326 L334.2932,745.5586 C334.2932,745.5586 331.6272,733.9176 324.1292,734.1336 C316.6322,734.3496 313.3252,734.1336 313.3252,734.1336 L314.3112,739.7166 C314.3112,739.7166 291.9472,737.0876 281.7052,751.5956 C272.2352,765.0136 277.3652,781.1936 277.3652,781.1936 L375.6272,781.1936 L370.1182,747.9326 Z" id="Fill-2732" fill="#1D213A"></path>
            <path d="M135.5747,740.7725 L103.5327,726.2225 C103.5327,726.2225 105.9007,713.3965 99.1917,712.0155 C92.4837,710.6345 87.3387,709.4865 87.3387,709.4865 L85.8957,716.8265 C85.8957,716.8265 59.1367,707.0025 43.3517,718.4475 C27.5667,729.8915 30.7237,749.6235 30.7237,749.6235 L127.0117,772.9055 L135.5747,740.7725 Z" id="Fill-2734" fill="#1D213A"></path>
            <path d="M258.0933,224.9121 C257.6753,224.9121 257.3223,224.5841 257.2963,224.1611 C257.2703,223.7311 254.7433,181.0501 256.0463,161.7531 C257.3783,142.0491 266.4203,127.5451 284.5013,116.1111 C284.8703,115.8781 285.3653,115.9841 285.6063,116.3591 C285.8423,116.7321 285.7313,117.2281 285.3573,117.4641 C267.7433,128.6011 258.9373,142.7091 257.6433,161.8621 C256.3463,181.0571 258.8683,223.6381 258.8933,224.0641 C258.9203,224.5061 258.5843,224.8851 258.1433,224.9121 C258.1263,224.9121 258.1113,224.9121 258.0933,224.9121" id="Fill-2736" fill="#825656"></path>
            <path d="M200.4966,27.7793 C198.2636,27.7793 195.9556,27.5603 193.6266,27.0333 C190.6836,26.3673 188.5886,24.9013 187.4016,22.6763 C184.9916,18.1663 187.2376,12.2093 187.3336,11.9583 C187.4936,11.5473 187.9606,11.3423 188.3666,11.4983 C188.7796,11.6563 188.9856,12.1203 188.8276,12.5313 C188.8076,12.5883 186.7496,18.0683 188.8156,21.9273 C189.7766,23.7213 191.5126,24.9163 193.9796,25.4733 C207.0346,28.4243 219.9076,21.0033 220.0356,20.9263 C220.4136,20.7083 220.9076,20.8303 221.1306,21.2133 C221.3546,21.5933 221.2256,22.0843 220.8456,22.3073 C220.3926,22.5733 211.3636,27.7793 200.4966,27.7793" id="Fill-2738" fill="#825656"></path>
            <path d="M289.2046,110.8311 C288.9996,110.8311 288.7966,110.7531 288.6406,110.5991 C288.3266,110.2861 288.3266,109.7791 288.6376,109.4671 C301.4416,96.6071 283.1406,67.1561 272.8246,55.6951 C262.2376,43.9331 249.5746,22.4351 249.4466,22.2191 C249.2236,21.8381 249.3506,21.3491 249.7326,21.1231 C250.1046,20.9041 250.6006,21.0251 250.8276,21.4091 C250.9526,21.6231 263.5356,42.9841 274.0156,54.6231 C285.0876,66.9281 303.5096,96.7991 289.7716,110.5961 C289.6156,110.7531 289.4096,110.8311 289.2046,110.8311" id="Fill-2740" fill="#825656"></path>
            <path d="M373.334,768.1504 L276.126,768.1504 C275.684,768.1504 275.326,767.7924 275.326,767.3494 C275.326,766.9084 275.684,766.5494 276.126,766.5494 L373.334,766.5494 C373.776,766.5494 374.134,766.9084 374.134,767.3494 C374.134,767.7924 373.776,768.1504 373.334,768.1504" id="Fill-2742" fill="#E8EAEF"></path>
            <path d="M130.395,761.0107 C130.333,761.0107 130.269,761.0027 130.205,760.9877 L31.462,736.6827 C31.033,736.5777 30.77,736.1437 30.876,735.7157 C30.982,735.2857 31.411,735.0217 31.843,735.1297 L130.585,759.4347 C131.015,759.5387 131.278,759.9737 131.171,760.4017 C131.082,760.7677 130.756,761.0107 130.395,761.0107" id="Fill-2744" fill="#E8EAEF"></path>
            <path d="M199.6392,50.123 C199.6392,51.382 200.6592,52.401 201.9172,52.401 C203.1752,52.401 204.1952,51.382 204.1952,50.123 C204.1952,48.865 203.1752,47.845 201.9172,47.845 C200.6592,47.845 199.6392,48.865 199.6392,50.123" id="Fill-2746" fill="#1D213A"></path>
            <path d="M182.4878,50.8164 C182.4878,52.0744 183.0178,53.0944 183.6718,53.0944 C184.3258,53.0944 184.8558,52.0744 184.8558,50.8164 C184.8558,49.5584 184.3258,48.5384 183.6718,48.5384 C183.0178,48.5384 182.4878,49.5584 182.4878,50.8164" id="Fill-2748" fill="#1D213A"></path>
            <path d="M198.2056,41.5625 C198.9406,42.2195 202.0006,42.6625 205.1556,43.2435 C208.3206,43.7765 211.3466,44.4075 212.2626,44.0415 C213.2196,43.7045 210.4566,41.9645 205.5346,41.0945 C200.6116,40.2295 197.4206,40.9185 198.2056,41.5625" id="Fill-2750" fill="#825656"></path>
            <path d="M186.4937,41.6602 C186.2837,42.2752 184.9647,42.5252 183.6287,42.9092 C182.2807,43.2442 181.0137,43.6872 180.5227,43.2602 C180.0187,42.8592 180.9517,41.2842 183.0427,40.7212 C185.1347,40.1632 186.7297,41.0612 186.4937,41.6602" id="Fill-2752" fill="#825656"></path>
            <path d="M185.8169,64.166 C184.6579,64.166 183.5329,63.873 182.5509,63.278 C180.8339,62.236 179.9749,60.511 180.2549,58.666 C180.4369,57.456 180.9799,56.576 181.8689,56.05 C183.0169,55.372 184.4549,55.508 185.3469,55.693 L186.9499,49.909 C187.0659,49.484 187.5059,49.232 187.9339,49.353 C188.3589,49.471 188.6089,49.911 188.4899,50.338 L186.6749,56.888 C186.6149,57.102 186.4679,57.281 186.2699,57.385 C186.0719,57.486 185.8389,57.5 185.6309,57.425 C185.1219,57.242 183.6009,56.88 182.6789,57.43 C182.2219,57.701 181.9449,58.185 181.8359,58.904 C181.6559,60.091 182.2339,61.214 183.3809,61.909 C184.7089,62.714 187.1029,63.041 189.4839,61.302 C189.8389,61.044 190.3389,61.12 190.6029,61.477 C190.8619,61.833 190.7839,62.334 190.4279,62.596 C189.0029,63.635 187.3779,64.166 185.8169,64.166" id="Fill-2754" fill="#F99175"></path>
            <path d="M319.6543,749.1221 C319.2763,749.1221 318.9403,748.8511 318.8683,748.4661 C317.7783,742.5231 314.0953,740.5081 313.9393,740.4251 C313.5503,740.2191 313.4003,739.7361 313.6043,739.3471 C313.8073,738.9561 314.2903,738.8031 314.6793,739.0081 C314.8633,739.1031 319.2023,741.4251 320.4433,748.1781 C320.5233,748.6121 320.2363,749.0291 319.8003,749.1091 C319.7513,749.1171 319.7023,749.1221 319.6543,749.1221" id="Fill-2756" fill="#E8EAEF"></path>
            <path d="M310.5796,749.9111 C310.1526,749.9111 309.7986,749.5751 309.7796,749.1451 C309.5346,743.4891 306.1266,740.2751 306.0916,740.2441 C305.7686,739.9431 305.7476,739.4371 306.0486,739.1121 C306.3486,738.7911 306.8546,738.7681 307.1796,739.0681 C307.3386,739.2171 311.1046,742.7681 311.3796,749.0761 C311.3976,749.5171 311.0566,749.8901 310.6136,749.9111 L310.5796,749.9111 Z" id="Fill-2758" fill="#E8EAEF"></path>
            <path d="M300.978,749.9111 L300.962,749.9111 C300.52,749.9011 300.168,749.5371 300.178,749.0961 C300.296,743.1361 298.34,741.4901 298.322,741.4741 C297.982,741.2011 297.917,740.7031 298.183,740.3571 C298.448,740.0131 298.936,739.9391 299.283,740.1971 C299.553,740.3951 301.914,742.3301 301.778,749.1271 C301.769,749.5621 301.412,749.9111 300.978,749.9111" id="Fill-2760" fill="#E8EAEF"></path>
            <path d="M89.0327,726.8906 C88.5997,726.8906 88.2437,726.5466 88.2327,726.1116 C88.0807,720.3516 85.3447,717.4096 85.3167,717.3796 C85.0137,717.0606 85.0247,716.5546 85.3417,716.2496 C85.6607,715.9436 86.1637,715.9556 86.4697,716.2706 C86.6007,716.4066 89.6637,719.6506 89.8327,726.0706 C89.8437,726.5106 89.4947,726.8776 89.0527,726.8906 L89.0327,726.8906 Z" id="Fill-2762" fill="#E8EAEF"></path>
            <path d="M80.3823,725.6953 C80.3563,725.6953 80.3273,725.6933 80.3013,725.6903 C79.8623,725.6463 79.5403,725.2563 79.5853,724.8153 C80.1993,718.6533 77.7463,715.2113 77.7213,715.1773 C77.4603,714.8223 77.5373,714.3223 77.8923,714.0593 C78.2483,713.8013 78.7453,713.8733 79.0073,714.2263 C79.1243,714.3843 81.8573,718.1563 81.1763,724.9743 C81.1353,725.3873 80.7873,725.6953 80.3823,725.6953" id="Fill-2764" fill="#E8EAEF"></path>
            <path d="M71.5698,725.6953 C71.5368,725.6953 71.5048,725.6933 71.4718,725.6893 C71.0328,725.6353 70.7198,725.2363 70.7748,724.7993 C71.7528,716.8283 68.6858,713.8153 68.6538,713.7873 C68.3358,713.4843 68.3168,712.9793 68.6168,712.6583 C68.9188,712.3393 69.4168,712.3173 69.7398,712.6113 C69.8918,712.7523 73.4508,716.1253 72.3618,724.9923 C72.3118,725.3983 71.9678,725.6953 71.5698,725.6953" id="Fill-2766" fill="#E8EAEF"></path>
            <path d="M193.6201,72.2402 C191.5601,72.2402 190.7401,71.1402 190.6461,71.0022 C190.3961,70.6372 190.4891,70.1382 190.8541,69.8902 C191.2101,69.6452 191.7001,69.7312 191.9541,70.0812 C191.9961,70.1332 192.5531,70.7862 194.1431,70.6112 C196.5591,70.3422 197.4951,67.9392 197.5331,67.8382 C197.6891,67.4252 198.1531,67.2162 198.5621,67.3692 C198.9741,67.5232 199.1851,67.9812 199.0331,68.3932 C198.9811,68.5342 197.7311,71.8222 194.3201,72.2012 C194.0721,72.2282 193.8391,72.2402 193.6201,72.2402" id="Fill-2768" fill="#1D213A"></path>
            <path d="M224.9995,224.9219 C224.5635,224.9219 224.2075,224.5729 224.1995,224.1359 C223.9345,209.0799 225.7945,199.2159 225.8135,199.1169 C225.8965,198.6829 226.3045,198.3969 226.7515,198.4829 C227.1845,198.5679 227.4685,198.9859 227.3855,199.4199 C227.3665,199.5159 225.5375,209.2329 225.7995,224.1079 C225.8075,224.5499 225.4565,224.9139 225.0135,224.9219 L224.9995,224.9219 Z" id="Fill-2770" fill="#825656"></path>
            <path d="M211.7217,561.4004 L186.1217,561.4004 C184.7967,561.4004 183.7217,560.3254 183.7217,559.0004 C183.7217,557.6744 184.7967,556.5994 186.1217,556.5994 L211.7217,556.5994 C213.0467,556.5994 214.1217,557.6744 214.1217,559.0004 C214.1217,560.3254 213.0467,561.4004 211.7217,561.4004" id="Fill-2772" fill="#D3D6E2"></path>
            <path d="M184.7559,679.2842 L149.5559,679.2842 C148.2309,679.2842 147.1559,678.2092 147.1559,676.8852 C147.1559,675.5592 148.2309,674.4842 149.5559,674.4842 L184.7559,674.4842 C186.0809,674.4842 187.1559,675.5592 187.1559,676.8852 C187.1559,678.2092 186.0809,679.2842 184.7559,679.2842" id="Fill-2774" fill="#D3D6E2"></path>
            <path d="M227.7495,583.4668 L182.9495,583.4668 C181.6245,583.4668 180.5495,582.3928 180.5495,581.0678 C180.5495,579.7418 181.6245,578.6668 182.9495,578.6668 L227.7495,578.6668 C229.0745,578.6668 230.1495,579.7418 230.1495,581.0678 C230.1495,582.3928 229.0745,583.4668 227.7495,583.4668" id="Fill-2776" fill="#D3D6E2"></path>
            <path d="M371.7764,494.2002 L326.9764,494.2002 C325.6514,494.2002 324.5764,493.1252 324.5764,491.8002 C324.5764,490.4742 325.6514,489.4002 326.9764,489.4002 L371.7764,489.4002 C373.1014,489.4002 374.1764,490.4742 374.1764,491.8002 C374.1764,493.1252 373.1014,494.2002 371.7764,494.2002" id="Fill-2778" fill="#D3D6E2"></path>
            <path d="M358.584,190.7324 L326.584,190.7324 C325.259,190.7324 324.184,189.6584 324.184,188.3334 C324.184,187.0074 325.259,185.9324 326.584,185.9324 L358.584,185.9324 C359.909,185.9324 360.984,187.0074 360.984,188.3334 C360.984,189.6584 359.909,190.7324 358.584,190.7324" id="Fill-2780" fill="#1D213A"></path>
            <path d="M342.584,437.4004 L291.384,437.4004 C290.059,437.4004 288.984,436.3254 288.984,435.0004 C288.984,433.6744 290.059,432.5994 291.384,432.5994 L342.584,432.5994 C343.909,432.5994 344.984,433.6744 344.984,435.0004 C344.984,436.3254 343.909,437.4004 342.584,437.4004" id="Fill-2782" fill="#D3D6E2"></path>
        </g>
    </g>
</svg>