<?xml version="1.0" encoding="UTF-8"?>
<svg width="406px" height="514px" viewBox="0 0 406 514" version="1.1" xmlns="http://www.w3.org/2000/svg" xmlns:xlink="http://www.w3.org/1999/xlink">
    <title>Illustration 15 0</title>
    <g id="🤩-Illustrations" stroke="none" stroke-width="1" fill="none" fill-rule="evenodd">
        <g id="Illustration-15">
            <path d="M404.5215,338.9785 C401.6225,338.9785 400.0935,337.4535 398.8695,336.2265 C397.7215,335.0825 396.8155,334.1775 394.9095,334.1775 C393.0055,334.1775 392.0995,335.0825 390.9535,336.2265 C389.7285,337.4535 388.2005,338.9785 385.2995,338.9785 C382.4035,338.9785 380.8775,337.4535 379.6535,336.2265 C378.5095,335.0815 377.6065,334.1775 375.7065,334.1775 C373.8065,334.1775 372.9035,335.0815 371.7595,336.2265 C370.5345,337.4535 369.0095,338.9785 366.1125,338.9785 C363.2155,338.9785 361.6905,337.4515 360.4655,336.2245 C359.3255,335.0815 358.4215,334.1775 356.5215,334.1775 C355.8595,334.1775 355.3225,333.6405 355.3225,332.9785 C355.3225,332.3155 355.8595,331.7785 356.5215,331.7785 C359.4165,331.7785 360.9405,333.3025 362.1665,334.5295 C363.3095,335.6735 364.2125,336.5785 366.1125,336.5785 C368.0125,336.5785 368.9165,335.6745 370.0595,334.5295 C371.2845,333.3025 372.8095,331.7785 375.7065,331.7785 C378.6035,331.7785 380.1275,333.3025 381.3535,334.5295 C382.4975,335.6745 383.4005,336.5785 385.2995,336.5785 C387.2065,336.5785 388.1125,335.6735 389.2595,334.5285 C390.4845,333.3025 392.0125,331.7785 394.9095,331.7785 C397.8095,331.7785 399.3375,333.3025 400.5625,334.5295 C401.7085,335.6735 402.6155,336.5785 404.5215,336.5785 C405.1845,336.5785 405.7215,337.1155 405.7215,337.7785 C405.7215,338.4405 405.1845,338.9785 404.5215,338.9785" id="Fill-2200" fill="#CDD1DF"></path>
            <path d="M404.5215,351.7783 C401.6225,351.7783 400.0935,350.2533 398.8695,349.0263 C397.7215,347.8823 396.8155,346.9783 394.9095,346.9783 C393.0055,346.9783 392.0995,347.8823 390.9535,349.0263 C389.7285,350.2533 388.2005,351.7783 385.2995,351.7783 C382.4035,351.7783 380.8775,350.2533 379.6535,349.0263 C378.5095,347.8813 377.6065,346.9783 375.7065,346.9783 C373.8065,346.9783 372.9035,347.8813 371.7595,349.0263 C370.5345,350.2533 369.0095,351.7783 366.1125,351.7783 C363.2155,351.7783 361.6905,350.2523 360.4655,349.0253 C359.3255,347.8813 358.4215,346.9783 356.5215,346.9783 C355.8595,346.9783 355.3225,346.4403 355.3225,345.7783 C355.3225,345.1153 355.8595,344.5783 356.5215,344.5783 C359.4165,344.5783 360.9405,346.1033 362.1665,347.3303 C363.3095,348.4733 364.2125,349.3783 366.1125,349.3783 C368.0125,349.3783 368.9165,348.4743 370.0595,347.3303 C371.2845,346.1033 372.8095,344.5783 375.7065,344.5783 C378.6035,344.5783 380.1275,346.1033 381.3535,347.3303 C382.4975,348.4743 383.4005,349.3783 385.2995,349.3783 C387.2065,349.3783 388.1125,348.4733 389.2595,347.3283 C390.4845,346.1033 392.0125,344.5783 394.9095,344.5783 C397.8095,344.5783 399.3375,346.1033 400.5625,347.3303 C401.7085,348.4733 402.6155,349.3783 404.5215,349.3783 C405.1845,349.3783 405.7215,349.9163 405.7215,350.5783 C405.7215,351.2403 405.1845,351.7783 404.5215,351.7783" id="Fill-2202" fill="#CDD1DF"></path>
            <path d="M404.5215,364.5781 C401.6225,364.5781 400.0935,363.0531 398.8695,361.8261 C397.7215,360.6821 396.8155,359.7781 394.9095,359.7781 C393.0055,359.7781 392.0995,360.6821 390.9535,361.8261 C389.7285,363.0531 388.2005,364.5781 385.2995,364.5781 C382.4035,364.5781 380.8775,363.0531 379.6535,361.8261 C378.5095,360.6821 377.6065,359.7781 375.7065,359.7781 C373.8065,359.7781 372.9035,360.6821 371.7595,361.8261 C370.5345,363.0531 369.0095,364.5781 366.1125,364.5781 C363.2155,364.5781 361.6905,363.0521 360.4655,361.8251 C359.3255,360.6821 358.4215,359.7781 356.5215,359.7781 C355.8595,359.7781 355.3225,359.2401 355.3225,358.5781 C355.3225,357.9161 355.8595,357.3781 356.5215,357.3781 C359.4165,357.3781 360.9405,358.9031 362.1665,360.1301 C363.3095,361.2731 364.2125,362.1781 366.1125,362.1781 C368.0125,362.1781 368.9165,361.2751 370.0595,360.1301 C371.2845,358.9031 372.8095,357.3781 375.7065,357.3781 C378.6035,357.3781 380.1275,358.9031 381.3535,360.1301 C382.4975,361.2751 383.4005,362.1781 385.2995,362.1781 C387.2065,362.1781 388.1125,361.2731 389.2595,360.1281 C390.4845,358.9031 392.0125,357.3781 394.9095,357.3781 C397.8095,357.3781 399.3375,358.9031 400.5625,360.1301 C401.7085,361.2731 402.6155,362.1781 404.5215,362.1781 C405.1845,362.1781 405.7215,362.7161 405.7215,363.3781 C405.7215,364.0411 405.1845,364.5781 404.5215,364.5781" id="Fill-2204" fill="#CDD1DF"></path>
            <path d="M404.5215,377.3779 C401.6225,377.3779 400.0935,375.8539 398.8695,374.6269 C397.7215,373.4819 396.8155,372.5779 394.9095,372.5779 C393.0055,372.5779 392.0995,373.4819 390.9535,374.6269 C389.7285,375.8539 388.2005,377.3779 385.2995,377.3779 C382.4035,377.3779 380.8775,375.8539 379.6535,374.6269 C378.5095,373.4819 377.6065,372.5779 375.7065,372.5779 C373.8065,372.5779 372.9035,373.4819 371.7595,374.6269 C370.5345,375.8539 369.0095,377.3779 366.1125,377.3779 C363.2155,377.3779 361.6905,375.8519 360.4655,374.6249 C359.3255,373.4819 358.4215,372.5779 356.5215,372.5779 C355.8595,372.5779 355.3225,372.0409 355.3225,371.3779 C355.3225,370.7159 355.8595,370.1779 356.5215,370.1779 C359.4165,370.1779 360.9405,371.7029 362.1665,372.9299 C363.3095,374.0729 364.2125,374.9789 366.1125,374.9789 C368.0125,374.9789 368.9165,374.0749 370.0595,372.9299 C371.2845,371.7029 372.8095,370.1779 375.7065,370.1779 C378.6035,370.1779 380.1275,371.7029 381.3535,372.9299 C382.4975,374.0749 383.4005,374.9789 385.2995,374.9789 C387.2065,374.9789 388.1125,374.0729 389.2595,372.9279 C390.4845,371.7029 392.0125,370.1779 394.9095,370.1779 C397.8095,370.1779 399.3375,371.7029 400.5625,372.9299 C401.7085,374.0729 402.6155,374.9789 404.5215,374.9789 C405.1845,374.9789 405.7215,375.5159 405.7215,376.1779 C405.7215,376.8409 405.1845,377.3779 404.5215,377.3779" id="Fill-2206" fill="#CDD1DF"></path>
            <path d="M8.2793,126.2002 C8.2793,127.9682 6.8463,129.4002 5.0793,129.4002 C3.3123,129.4002 1.8803,127.9682 1.8803,126.2002 C1.8803,124.4322 3.3123,123.0002 5.0793,123.0002 C6.8463,123.0002 8.2793,124.4322 8.2793,126.2002" id="Fill-2208" fill="#CDD1DF"></path>
            <path d="M40.2793,126.2002 C40.2793,127.9682 38.8463,129.4002 37.0793,129.4002 C35.3123,129.4002 33.8803,127.9682 33.8803,126.2002 C33.8803,124.4322 35.3123,123.0002 37.0793,123.0002 C38.8463,123.0002 40.2793,124.4322 40.2793,126.2002" id="Fill-2210" fill="#CDD1DF"></path>
            <path d="M72.2793,126.2002 C72.2793,127.9682 70.8463,129.4002 69.0793,129.4002 C67.3123,129.4002 65.8803,127.9682 65.8803,126.2002 C65.8803,124.4322 67.3123,123.0002 69.0793,123.0002 C70.8463,123.0002 72.2793,124.4322 72.2793,126.2002" id="Fill-2212" fill="#CDD1DF"></path>
            <path d="M104.2793,126.2002 C104.2793,127.9682 102.8463,129.4002 101.0793,129.4002 C99.3123,129.4002 97.8803,127.9682 97.8803,126.2002 C97.8803,124.4322 99.3123,123.0002 101.0793,123.0002 C102.8463,123.0002 104.2793,124.4322 104.2793,126.2002" id="Fill-2214" fill="#CDD1DF"></path>
            <path d="M9.8799,158.2002 C9.8799,160.8502 7.7309,163.0002 5.0789,163.0002 C2.4289,163.0002 0.2789,160.8502 0.2789,158.2002 C0.2789,155.5492 2.4289,153.4002 5.0789,153.4002 C7.7309,153.4002 9.8799,155.5492 9.8799,158.2002" id="Fill-2216" fill="#CDD1DF"></path>
            <path d="M41.8799,158.2002 C41.8799,160.8502 39.7309,163.0002 37.0789,163.0002 C34.4289,163.0002 32.2789,160.8502 32.2789,158.2002 C32.2789,155.5492 34.4289,153.4002 37.0789,153.4002 C39.7309,153.4002 41.8799,155.5492 41.8799,158.2002" id="Fill-2218" fill="#CDD1DF"></path>
            <path d="M72.2793,158.2002 C72.2793,159.9682 70.8463,161.4002 69.0793,161.4002 C67.3123,161.4002 65.8803,159.9682 65.8803,158.2002 C65.8803,156.4322 67.3123,155.0002 69.0793,155.0002 C70.8463,155.0002 72.2793,156.4322 72.2793,158.2002" id="Fill-2220" fill="#CDD1DF"></path>
            <path d="M104.2793,158.2002 C104.2793,159.9682 102.8463,161.4002 101.0793,161.4002 C99.3123,161.4002 97.8803,159.9682 97.8803,158.2002 C97.8803,156.4322 99.3123,155.0002 101.0793,155.0002 C102.8463,155.0002 104.2793,156.4322 104.2793,158.2002" id="Fill-2222" fill="#CDD1DF"></path>
            <path d="M9.8799,190.2002 C9.8799,192.8502 7.7309,195.0002 5.0789,195.0002 C2.4289,195.0002 0.2789,192.8502 0.2789,190.2002 C0.2789,187.5492 2.4289,185.4002 5.0789,185.4002 C7.7309,185.4002 9.8799,187.5492 9.8799,190.2002" id="Fill-2224" fill="#CDD1DF"></path>
            <path d="M41.8799,190.2002 C41.8799,192.8502 39.7309,195.0002 37.0789,195.0002 C34.4289,195.0002 32.2789,192.8502 32.2789,190.2002 C32.2789,187.5492 34.4289,185.4002 37.0789,185.4002 C39.7309,185.4002 41.8799,187.5492 41.8799,190.2002" id="Fill-2226" fill="#CDD1DF"></path>
            <path d="M73.8799,190.2002 C73.8799,192.8502 71.7309,195.0002 69.0789,195.0002 C66.4289,195.0002 64.2789,192.8502 64.2789,190.2002 C64.2789,187.5492 66.4289,185.4002 69.0789,185.4002 C71.7309,185.4002 73.8799,187.5492 73.8799,190.2002" id="Fill-2228" fill="#CDD1DF"></path>
            <path d="M104.2793,190.2002 C104.2793,191.9682 102.8463,193.4002 101.0793,193.4002 C99.3123,193.4002 97.8803,191.9682 97.8803,190.2002 C97.8803,188.4322 99.3123,187.0002 101.0793,187.0002 C102.8463,187.0002 104.2793,188.4322 104.2793,190.2002" id="Fill-2230" fill="#CDD1DF"></path>
            <path d="M9.8799,222.2002 C9.8799,224.8502 7.7309,227.0002 5.0789,227.0002 C2.4289,227.0002 0.2789,224.8502 0.2789,222.2002 C0.2789,219.5492 2.4289,217.4002 5.0789,217.4002 C7.7309,217.4002 9.8799,219.5492 9.8799,222.2002" id="Fill-2232" fill="#CDD1DF"></path>
            <path d="M41.8799,222.2002 C41.8799,224.8502 39.7309,227.0002 37.0789,227.0002 C34.4289,227.0002 32.2789,224.8502 32.2789,222.2002 C32.2789,219.5492 34.4289,217.4002 37.0789,217.4002 C39.7309,217.4002 41.8799,219.5492 41.8799,222.2002" id="Fill-2234" fill="#CDD1DF"></path>
            <path d="M73.8799,222.2002 C73.8799,224.8502 71.7309,227.0002 69.0789,227.0002 C66.4289,227.0002 64.2789,224.8502 64.2789,222.2002 C64.2789,219.5492 66.4289,217.4002 69.0789,217.4002 C71.7309,217.4002 73.8799,219.5492 73.8799,222.2002" id="Fill-2236" fill="#CDD1DF"></path>
            <path d="M104.2793,222.2002 C104.2793,223.9682 102.8463,225.4002 101.0793,225.4002 C99.3123,225.4002 97.8803,223.9682 97.8803,222.2002 C97.8803,220.4322 99.3123,219.0002 101.0793,219.0002 C102.8463,219.0002 104.2793,220.4322 104.2793,222.2002" id="Fill-2238" fill="#CDD1DF"></path>
            <path d="M54.6777,376.1016 C24.6817,376.1016 0.2787,351.6986 0.2787,321.7016 L19.4787,321.7016 C19.4787,341.1116 35.2687,356.9016 54.6777,356.9016 L54.6777,376.1016 Z" id="Fill-2240" fill="#CDD1DF"></path>
            <polygon id="Fill-2242" fill="#CDD1DF" points="356.5215 449.4004 348.5215 457.4004 340.5215 449.4004 348.5215 441.4004"></polygon>
            <path d="M341.9795,160.083 C341.9795,160.083 333.7825,198.884 330.6755,237.752 L293.3945,290.368 C293.3945,290.368 307.5325,305.065 332.4605,324.873 C359.1655,346.092 388.5145,350.52 391.6875,288.914 C394.8605,227.308 368.6895,123.126 363.6605,113.878 C358.5375,104.459 344.9535,101.908 338.0125,101.451 C329.4865,100.89 327.2195,108.458 334.3445,113.383 C341.0865,118.043 347.2345,118.836 347.2345,118.836 L349.9115,140.318 L341.9795,160.083 Z" id="Fill-2244" fill="#825656"></path>
            <path d="M335.9512,195.0107 C307.0332,186.7187 278.1152,178.4267 249.1982,170.1347 C255.0512,132.3287 265.6372,95.4097 280.7082,60.2477 C309.6252,68.5397 338.5432,76.8317 367.4612,85.1237 C352.3902,120.2857 341.8042,157.2047 335.9512,195.0107" id="Fill-2246" fill="#E8EAEF"></path>
            <path d="M332.5742,193.9092 C301.7882,186.2332 271.0022,178.5562 240.2162,170.8812 C244.9932,130.8162 254.7932,91.5132 269.3842,53.8942 L361.7422,76.9222 C347.1512,114.5402 337.3512,153.8442 332.5742,193.9092" id="Fill-2248" fill="#F3F4F7"></path>
            <path d="M356.5215,135.2949 L345.0525,135.2949 C345.0525,135.2949 343.3275,127.4839 338.1125,122.0089 C332.1635,115.7619 323.3435,119.6069 326.7625,128.2709 C330.2795,137.1789 330.3765,143.6179 333.4525,152.9439 C336.4265,161.9669 355.3345,166.1299 355.3345,166.1299 L356.5215,135.2949 Z" id="Fill-2250" fill="#825656"></path>
            <polygon id="Fill-2252" fill="#825656" points="174.082 112.1709 161.397 171.9339 228.007 171.9339 226.926 112.1709"></polygon>
            <path d="M96.876,250.8398 C96.876,250.8398 71.758,287.8568 73.344,307.6868 C74.931,327.5168 109.832,334.1268 138.388,326.9878 L138.388,250.8398 L96.876,250.8398 Z" id="Fill-2254" fill="#825656"></path>
            <path d="M85.7158,269.5469 L85.7198,269.5449 C85.7198,269.5449 96.8498,292.8779 138.3878,300.9499 L138.3878,250.8399 L96.8758,250.8399 C96.8758,250.8399 91.3958,258.9179 85.7158,269.5469" id="Fill-2256" fill="#5B3636"></path>
            <path d="M133.3643,163.5859 C118.0283,167.2879 108.7743,210.9149 73.3433,255.5989 C73.3433,255.5989 94.2323,288.9139 135.2153,288.9139 L133.3643,163.5859 Z" id="Fill-2258" fill="#D3D6E2"></path>
            <path d="M283.0166,367.7061 C283.0166,367.7061 299.1456,442.7971 304.9616,512.6001 L106.9236,512.6001 C110.6246,415.2991 122.2586,367.7061 122.2586,367.7061 L283.0166,367.7061 Z" id="Fill-2260" fill="#1D213A"></path>
            <path d="M267.6816,163.5859 C267.6816,163.5859 269.2676,273.5779 303.1116,384.6279 C303.1116,384.6279 265.4336,409.3499 186.5086,404.1939 C119.2426,399.7999 103.7506,384.6279 103.7506,384.6279 C128.0766,290.4999 133.3646,163.5859 133.3646,163.5859 C133.3646,163.5859 157.5716,156.3989 188.2966,155.5809 C227.7556,154.5299 267.6816,163.5859 267.6816,163.5859" id="Fill-2262" fill="#D3D6E2"></path>
            <path d="M121.9434,288.4893 C121.9094,288.4893 121.8724,288.4873 121.8384,288.4813 C121.3964,288.4223 121.0904,288.0183 121.1504,287.5813 C124.7874,260.7993 127.7844,232.3203 130.0624,202.9393 C130.0934,202.5023 130.4244,202.1423 130.9224,202.2053 C131.3624,202.2373 131.6904,202.6233 131.6564,203.0643 C129.3784,232.4743 126.3754,260.9823 122.7374,287.7973 C122.6814,288.1983 122.3384,288.4893 121.9434,288.4893" id="Fill-2264" fill="#1D213A"></path>
            <path d="M373.9717,272.2627 C373.7997,272.2627 373.6247,272.2077 373.4817,272.0937 L330.1847,238.3827 C329.8337,238.1117 329.7717,237.6097 330.0437,237.2597 C330.3127,236.9107 330.8227,236.8487 331.1657,237.1197 L374.4627,270.8307 C374.8127,271.1037 374.8747,271.6047 374.6037,271.9547 C374.4477,272.1567 374.2087,272.2627 373.9717,272.2627" id="Fill-2266" fill="#1D213A"></path>
            <path d="M246.1201,115.124 C243.1381,127.34 236.9191,134.511 227.5271,133.717 C205.1271,131.813 203.4451,84.411 214.2961,46.654 L238.5371,46.654 C238.5371,46.654 246.3101,63.28 247.8651,85.49 C248.4991,94.247 248.3081,102.211 247.2941,109.064 C243.7711,108.715 244.0251,106.272 241.6141,106.716 C238.6641,107.256 240.8851,114.934 246.1201,115.124" id="Fill-2268" fill="#825656"></path>
            <path d="M196.5342,87.7812 C197.5552,56.1122 205.3452,41.5542 205.3452,41.5542 L238.9302,41.5542 C242.9522,47.4282 242.1852,54.8982 236.3762,57.5802 C228.9462,61.0102 221.4342,56.4952 221.4342,56.4952 C225.6362,59.6872 229.2032,68.6912 224.4202,76.0642 C219.5362,83.5932 209.7192,80.8532 209.7192,80.8532 L209.7192,87.7812 L196.5342,87.7812 Z" id="Fill-2270" fill="#1D213A"></path>
            <path d="M217.3486,100.9336 C217.3486,100.9336 216.7096,107.3186 213.6456,115.3646 C210.5806,123.4096 206.1116,125.9626 197.0446,125.9626 L171.1556,125.9626 C171.1556,125.9626 168.3646,113.3826 163.5876,103.2326 C163.5876,103.2326 160.1556,107.9526 153.4996,107.0356 C144.2096,105.7546 140.9526,93.1126 151.2016,88.6116 C151.2016,88.6116 142.9006,91.2286 138.0476,82.9286 C133.1956,74.6276 139.8356,66.0726 147.2426,67.7326 C147.2426,67.7326 133.5746,63.1256 138.5396,50.1606 C143.1566,38.1066 156.8196,42.4486 156.8196,42.4486 C156.8196,42.4486 146.6036,29.8056 157.3296,20.2286 C167.0806,11.5226 176.8696,21.1866 176.8696,21.1866 C176.8696,21.1866 174.8616,8.0296 185.2896,5.0546 C195.8886,2.0316 199.8536,13.1416 199.8536,13.1416 C199.8536,13.1416 200.5096,-0.6424 211.3466,0.6906 C223.7976,2.2236 221.1156,16.3976 221.1156,16.3976 C221.1156,16.3976 229.9266,6.4376 238.7386,11.9926 C249.3406,18.6766 241.4456,30.3806 241.4456,30.3806 C254.6366,25.8786 259.3286,43.1186 251.7636,48.9606 C244.4696,54.5916 236.6306,50.4936 236.6306,50.4936 L217.3486,50.4936 L217.3486,100.9336 Z" id="Fill-2272" fill="#1D213A"></path>
            <path d="M355.7754,257.2949 C355.7754,257.2949 330.7294,237.0729 330.6754,237.7519 L293.3944,290.3679 C293.3944,290.3679 300.2934,298.1729 318.5754,313.4569 C354.9684,297.8849 355.7754,257.2949 355.7754,257.2949" id="Fill-2274" fill="#5B3636"></path>
            <path d="M203.4316,513.4004 C203.0496,513.4004 202.7126,513.1284 202.6436,512.7404 L192.4216,455.6094 C189.4406,454.8144 174.4436,450.2204 163.9186,435.8674 C163.6566,435.5104 163.7346,435.0094 164.0906,434.7484 C164.4376,434.4864 164.9436,434.5604 165.2056,434.9204 C176.5156,450.3384 193.1246,454.1404 193.2906,454.1774 C193.6066,454.2474 193.8496,454.5004 193.9066,454.8184 L204.2186,512.4594 C204.2966,512.8934 204.0056,513.3094 203.5726,513.3874 C203.5256,513.3954 203.4786,513.4004 203.4316,513.4004" id="Fill-2276" fill="#E8EAEF"></path>
            <path d="M246,231.8027 C262.657,275.9577 296.567,311.9167 296.567,311.9167 C296.567,311.9167 322.999,303.9917 340.194,284.2207 C359.165,262.4067 359.165,240.1977 359.165,240.1977 C359.165,240.1977 348.523,236.6277 321.157,210.4517 C290.928,181.5357 284.272,167.0237 267.682,163.5857 L246,231.8027 Z" id="Fill-2278" fill="#D3D6E2"></path>
            <path d="M281.5723,294.6455 C281.3313,294.6455 281.0933,294.5375 280.9343,294.3305 C269.9093,279.8565 254.7683,257.3075 245.2503,232.0855 C245.0963,231.6715 245.3023,231.2105 245.7183,231.0545 C246.1193,230.9005 246.5913,231.1065 246.7503,231.5205 C256.1973,256.5625 271.2473,278.9715 282.2093,293.3615 C282.4743,293.7125 282.4093,294.2135 282.0563,294.4815 C281.9123,294.5915 281.7403,294.6455 281.5723,294.6455" id="Fill-2280" fill="#1D213A"></path>
            <path d="M219.0186,80.4443 C219.0186,80.4443 214.6006,72.3713 206.5416,75.9653 C198.8716,79.3873 198.3486,91.1793 204.6876,97.4993 C210.5776,103.3713 218.4366,101.8203 218.4366,101.8203 L219.0186,80.4443 Z" id="Fill-2282" fill="#825656"></path>
            <path d="M215.9248,89.3252 C215.5748,89.3252 215.2558,89.0962 215.1558,88.7442 C213.4998,82.9312 208.0258,82.8332 207.7908,82.8312 C207.3498,82.8282 206.9938,82.4712 206.9938,82.0292 C206.9968,81.5882 207.3538,81.2312 207.7938,81.2312 C207.8618,81.2312 214.7028,81.3122 216.6938,88.3062 C216.8158,88.7312 216.5688,89.1742 216.1438,89.2942 C216.0718,89.3152 215.9968,89.3252 215.9248,89.3252" id="Fill-2284" fill="#1D213A"></path>
            <path d="M232.8223,61.9092 C224.5253,61.9092 217.1313,54.7992 216.7913,54.4672 C216.4743,54.1582 216.4683,53.6512 216.7783,53.3362 C217.0843,53.0212 217.5913,53.0112 217.9093,53.3202 C217.9943,53.4032 226.5843,61.6222 234.9533,60.1252 C237.1343,59.7372 238.7313,58.7632 239.6973,57.2322 C241.7063,54.0522 240.4813,49.4712 240.4683,49.4252 C240.3533,48.9982 240.6033,48.5572 241.0283,48.4402 C241.4713,48.3282 241.8963,48.5762 242.0123,49.0002 C242.0723,49.2162 243.4313,54.3152 241.0503,58.0882 C239.8313,60.0152 237.8753,61.2312 235.2343,61.7002 C234.4253,61.8442 233.6193,61.9092 232.8223,61.9092" id="Fill-2286" fill="#1D213A"></path>
            <path d="M146.2529,107.2891 C146.0779,107.2891 145.8999,107.2311 145.7529,107.1141 C145.5219,106.9281 140.0779,102.4661 142.1779,94.7761 C144.3099,86.9591 154.8539,87.6901 155.3069,87.7281 C155.7469,87.7631 156.0749,88.1461 156.0409,88.5881 C156.0059,89.0281 155.6219,89.3691 155.1819,89.3221 C155.0879,89.3231 145.5029,88.6621 143.7219,95.1981 C141.8969,101.8851 146.7029,105.8251 146.7529,105.8641 C147.0969,106.1411 147.1529,106.6431 146.8779,106.9891 C146.7189,107.1851 146.4869,107.2891 146.2529,107.2891" id="Fill-2288" fill="#1D213A"></path>
            <path d="M149.9434,68.6934 C148.1744,68.6934 141.6724,68.3704 137.0684,63.8534 C134.0964,60.9394 132.7594,56.5484 133.4874,52.1044 C134.2874,47.2234 137.4474,43.1154 142.1534,40.8344 C152.1194,36.0104 160.8464,43.6794 160.9344,43.7594 C161.2624,44.0544 161.2914,44.5594 160.9974,44.8884 C160.7004,45.2164 160.1934,45.2454 159.8654,44.9504 C159.5444,44.6594 151.8434,37.9174 142.8534,42.2754 C138.6194,44.3254 135.7814,48.0034 135.0654,52.3644 C134.4224,56.2944 135.5904,60.1614 138.1874,62.7094 C142.9594,67.3884 150.2244,67.0844 150.3154,67.0884 C150.7624,67.0254 151.1304,67.4064 151.1534,67.8464 C151.1744,68.2894 150.8344,68.6644 150.3904,68.6844 C150.3494,68.6874 150.1934,68.6934 149.9434,68.6934" id="Fill-2290" fill="#1D213A"></path>
            <path d="M177.9814,25.0264 C177.7374,25.0264 177.5004,24.9174 177.3434,24.7084 C177.0494,24.3224 170.2624,15.1484 175.0154,7.3514 C179.5964,-0.1656 187.6434,0.6854 187.9904,0.7244 C188.4274,0.7764 188.7404,1.1734 188.6904,1.6124 C188.6404,2.0524 188.1874,2.3614 187.8064,2.3154 C187.4974,2.2754 180.4124,1.5674 176.3844,8.1824 C172.1974,15.0484 178.5564,23.6594 178.6224,23.7454 C178.8844,24.0984 178.8154,24.5994 178.4624,24.8654 C178.3184,24.9734 178.1504,25.0264 177.9814,25.0264" id="Fill-2292" fill="#1D213A"></path>
            <path d="M237.9688,33.5527 C237.6098,33.5527 237.2838,33.3107 237.1938,32.9487 C237.0878,32.5207 237.3468,32.0857 237.7718,31.9787 C238.0158,31.9157 243.7028,30.3967 245.5288,24.0057 C246.5748,20.3407 245.4848,15.6327 242.8748,12.5547 C241.1568,10.5327 237.9968,8.2477 232.7058,8.8597 C222.2248,10.0657 220.4318,20.1897 220.4158,20.2917 C220.3408,20.7287 219.9118,21.0237 219.4938,20.9497 C219.0598,20.8777 218.7628,20.4657 218.8338,20.0297 C218.8538,19.9157 220.8568,8.6127 232.5258,7.2687 C238.5308,6.5797 242.1248,9.2007 244.0938,11.5207 C247.0318,14.9817 248.2528,20.2967 247.0658,24.4477 C244.9818,31.7467 238.4408,33.4587 238.1618,33.5297 C238.0968,33.5447 238.0308,33.5527 237.9688,33.5527" id="Fill-2294" fill="#1D213A"></path>
            <path d="M170.3467,130.5645 C169.9377,130.5645 169.5907,130.2525 169.5497,129.8385 C169.5097,129.4005 169.8307,129.0095 170.2717,128.9665 C170.3807,128.9585 181.5567,127.9245 195.9477,128.9655 C196.3877,128.9985 196.7187,129.3805 196.6847,129.8225 C196.6537,130.2605 196.3407,130.5785 195.8277,130.5625 C181.5877,129.5285 170.5337,130.5485 170.4217,130.5605 C170.3967,130.5625 170.3717,130.5645 170.3467,130.5645" id="Fill-2296" fill="#1D213A"></path>
            <path d="M246.1914,103.6943 C252.8284,106.3803 255.7394,101.6383 254.5284,98.6373 C253.4864,96.0593 250.7884,96.7663 250.7884,96.7663 L247.0914,88.5243 L246.1914,103.6943 Z" id="Fill-2298" fill="#825656"></path>
            <path d="M241.4453,85.9072 C241.4453,87.3522 242.3333,88.5242 243.4273,88.5242 C244.5233,88.5242 245.4113,87.3522 245.4113,85.9072 C245.4113,84.4612 244.5233,83.2892 243.4273,83.2892 C242.3333,83.2892 241.4453,84.4612 241.4453,85.9072" id="Fill-2300" fill="#1D213A"></path>
            <path d="M236.9746,75.418 C238.1006,76.799 240.6206,75.813 243.3386,75.164 C246.0166,74.367 248.6926,73.961 248.9766,72.202 C249.3176,70.5 245.7786,67.457 241.5736,68.574 C237.3716,69.709 235.8286,74.114 236.9746,75.418" id="Fill-2302" fill="#1D213A"></path>
        </g>
    </g>
</svg>