<?xml version="1.0" encoding="UTF-8"?>
<svg width="533px" height="568px" viewBox="0 0 533 568" version="1.1" xmlns="http://www.w3.org/2000/svg" xmlns:xlink="http://www.w3.org/1999/xlink">
    <title>Illustration 6 0</title>
    <g id="🤩-Illustrations" stroke="none" stroke-width="1" fill="none" fill-rule="evenodd">
        <g id="Illustration-6">
            <path d="M448.3091,446.3535 C445.4111,446.3535 443.8821,444.8285 442.6561,443.6025 C441.5111,442.4575 440.6061,441.5535 438.7001,441.5535 C436.7931,441.5535 435.8871,442.4575 434.7421,443.6035 C433.5141,444.8285 431.9871,446.3535 429.0891,446.3535 C426.1921,446.3535 424.6671,444.8265 423.4421,443.6025 C422.2981,442.4565 421.3951,441.5535 419.4941,441.5535 C417.5921,441.5535 416.6891,442.4575 415.5451,443.6025 C414.3201,444.8285 412.7961,446.3535 409.9011,446.3535 C407.0061,446.3535 405.4821,444.8285 404.2571,443.6025 C403.1141,442.4575 402.2101,441.5535 400.3091,441.5535 C399.6461,441.5535 399.1091,441.0165 399.1091,440.3535 C399.1091,439.6905 399.6461,439.1535 400.3091,439.1535 C403.2051,439.1535 404.7291,440.6805 405.9551,441.9045 C407.0981,443.0505 408.0011,443.9535 409.9011,443.9535 C411.8011,443.9535 412.7051,443.0505 413.8481,441.9045 C415.0731,440.6805 416.5981,439.1535 419.4941,439.1535 C422.3891,439.1535 423.9131,440.6785 425.1391,441.9045 C426.2831,443.0485 427.1871,443.9535 429.0891,443.9535 C430.9951,443.9535 431.9001,443.0485 433.0451,441.9045 C434.2731,440.6785 435.8001,439.1535 438.7001,439.1535 C441.5981,439.1535 443.1261,440.6785 444.3531,441.9045 C445.4981,443.0485 446.4031,443.9535 448.3091,443.9535 C448.9721,443.9535 449.5091,444.4905 449.5091,445.1535 C449.5091,445.8155 448.9721,446.3535 448.3091,446.3535" id="Fill-877" fill="#CDD1DF"></path>
            <path d="M448.3091,459.1533 C445.4111,459.1533 443.8821,457.6283 442.6561,456.4023 C441.5111,455.2583 440.6061,454.3533 438.7001,454.3533 C436.7931,454.3533 435.8871,455.2583 434.7421,456.4033 C433.5141,457.6283 431.9871,459.1533 429.0891,459.1533 C426.1921,459.1533 424.6671,457.6273 423.4421,456.4023 C422.2981,455.2563 421.3951,454.3533 419.4941,454.3533 C417.5921,454.3533 416.6891,455.2583 415.5451,456.4023 C414.3201,457.6283 412.7961,459.1533 409.9011,459.1533 C407.0061,459.1533 405.4821,457.6283 404.2571,456.4023 C403.1141,455.2583 402.2101,454.3533 400.3091,454.3533 C399.6461,454.3533 399.1091,453.8163 399.1091,453.1533 C399.1091,452.4903 399.6461,451.9533 400.3091,451.9533 C403.2051,451.9533 404.7291,453.4803 405.9551,454.7053 C407.0981,455.8503 408.0011,456.7533 409.9011,456.7533 C411.8011,456.7533 412.7051,455.8503 413.8481,454.7053 C415.0731,453.4803 416.5981,451.9533 419.4941,451.9533 C422.3891,451.9533 423.9131,453.4783 425.1391,454.7053 C426.2831,455.8483 427.1871,456.7533 429.0891,456.7533 C430.9951,456.7533 431.9001,455.8483 433.0451,454.7053 C434.2731,453.4783 435.8001,451.9533 438.7001,451.9533 C441.5981,451.9533 443.1261,453.4783 444.3531,454.7053 C445.4981,455.8483 446.4031,456.7533 448.3091,456.7533 C448.9721,456.7533 449.5091,457.2913 449.5091,457.9533 C449.5091,458.6153 448.9721,459.1533 448.3091,459.1533" id="Fill-879" fill="#CDD1DF"></path>
            <path d="M448.3091,471.9536 C445.4111,471.9536 443.8821,470.4286 442.6561,469.2016 C441.5111,468.0576 440.6061,467.1536 438.7001,467.1536 C436.7931,467.1536 435.8871,468.0576 434.7421,469.2036 C433.5141,470.4286 431.9871,471.9536 429.0891,471.9536 C426.1921,471.9536 424.6671,470.4266 423.4421,469.2016 C422.2981,468.0566 421.3951,467.1536 419.4941,467.1536 C417.5921,467.1536 416.6891,468.0576 415.5451,469.2016 C414.3201,470.4286 412.7961,471.9536 409.9011,471.9536 C407.0061,471.9536 405.4821,470.4286 404.2571,469.2016 C403.1141,468.0576 402.2101,467.1536 400.3091,467.1536 C399.6461,467.1536 399.1091,466.6156 399.1091,465.9536 C399.1091,465.2906 399.6461,464.7536 400.3091,464.7536 C403.2051,464.7536 404.7291,466.2796 405.9551,467.5046 C407.0981,468.6506 408.0011,469.5536 409.9011,469.5536 C411.8011,469.5536 412.7051,468.6506 413.8481,467.5046 C415.0731,466.2796 416.5981,464.7536 419.4941,464.7536 C422.3891,464.7536 423.9131,466.2786 425.1391,467.5046 C426.2831,468.6486 427.1871,469.5536 429.0891,469.5536 C430.9951,469.5536 431.9001,468.6486 433.0451,467.5046 C434.2731,466.2786 435.8001,464.7536 438.7001,464.7536 C441.5981,464.7536 443.1261,466.2786 444.3531,467.5046 C445.4981,468.6486 446.4031,469.5536 448.3091,469.5536 C448.9721,469.5536 449.5091,470.0906 449.5091,470.7536 C449.5091,471.4156 448.9721,471.9536 448.3091,471.9536" id="Fill-881" fill="#CDD1DF"></path>
            <path d="M448.3091,484.7534 C445.4111,484.7534 443.8821,483.2284 442.6561,482.0024 C441.5111,480.8574 440.6061,479.9534 438.7001,479.9534 C436.7931,479.9534 435.8871,480.8574 434.7421,482.0034 C433.5141,483.2284 431.9871,484.7534 429.0891,484.7534 C426.1921,484.7534 424.6671,483.2274 423.4421,482.0024 C422.2981,480.8564 421.3951,479.9534 419.4941,479.9534 C417.5921,479.9534 416.6891,480.8574 415.5451,482.0024 C414.3201,483.2284 412.7961,484.7534 409.9011,484.7534 C407.0061,484.7534 405.4821,483.2284 404.2571,482.0024 C403.1141,480.8574 402.2101,479.9534 400.3091,479.9534 C399.6461,479.9534 399.1091,479.4164 399.1091,478.7534 C399.1091,478.0904 399.6461,477.5534 400.3091,477.5534 C403.2051,477.5534 404.7291,479.0804 405.9551,480.3054 C407.0981,481.4504 408.0011,482.3534 409.9011,482.3534 C411.8011,482.3534 412.7051,481.4504 413.8481,480.3054 C415.0731,479.0804 416.5981,477.5534 419.4941,477.5534 C422.3891,477.5534 423.9131,479.0784 425.1391,480.3054 C426.2831,481.4484 427.1871,482.3534 429.0891,482.3534 C430.9951,482.3534 431.9001,481.4484 433.0451,480.3054 C434.2731,479.0784 435.8001,477.5534 438.7001,477.5534 C441.5981,477.5534 443.1261,479.0784 444.3531,480.3054 C445.4981,481.4484 446.4031,482.3534 448.3091,482.3534 C448.9721,482.3534 449.5091,482.8914 449.5091,483.5534 C449.5091,484.2154 448.9721,484.7534 448.3091,484.7534" id="Fill-883" fill="#CDD1DF"></path>
            <path d="M6.5273,260.8408 C6.5273,262.6078 5.0943,264.0408 3.3273,264.0408 C1.5603,264.0408 0.1273,262.6078 0.1273,260.8408 C0.1273,259.0728 1.5603,257.6408 3.3273,257.6408 C5.0943,257.6408 6.5273,259.0728 6.5273,260.8408" id="Fill-885" fill="#CDD1DF"></path>
            <path d="M40.1274,260.8408 C40.1274,263.4918 37.9784,265.6408 35.3274,265.6408 C32.6764,265.6408 30.5274,263.4918 30.5274,260.8408 C30.5274,258.1898 32.6764,256.0408 35.3274,256.0408 C37.9784,256.0408 40.1274,258.1898 40.1274,260.8408" id="Fill-887" fill="#CDD1DF"></path>
            <path d="M72.1274,260.8408 C72.1274,263.4918 69.9784,265.6408 67.3274,265.6408 C64.6764,265.6408 62.5274,263.4918 62.5274,260.8408 C62.5274,258.1898 64.6764,256.0408 67.3274,256.0408 C69.9784,256.0408 72.1274,258.1898 72.1274,260.8408" id="Fill-889" fill="#CDD1DF"></path>
            <path d="M104.1274,260.8408 C104.1274,263.4918 101.9784,265.6408 99.3274,265.6408 C96.6764,265.6408 94.5274,263.4918 94.5274,260.8408 C94.5274,258.1898 96.6764,256.0408 99.3274,256.0408 C101.9784,256.0408 104.1274,258.1898 104.1274,260.8408" id="Fill-891" fill="#CDD1DF"></path>
            <path d="M6.5273,292.8408 C6.5273,294.6078 5.0943,296.0408 3.3273,296.0408 C1.5603,296.0408 0.1273,294.6078 0.1273,292.8408 C0.1273,291.0728 1.5603,289.6408 3.3273,289.6408 C5.0943,289.6408 6.5273,291.0728 6.5273,292.8408" id="Fill-893" fill="#CDD1DF"></path>
            <path d="M40.1274,292.8408 C40.1274,295.4918 37.9784,297.6408 35.3274,297.6408 C32.6764,297.6408 30.5274,295.4918 30.5274,292.8408 C30.5274,290.1898 32.6764,288.0408 35.3274,288.0408 C37.9784,288.0408 40.1274,290.1898 40.1274,292.8408" id="Fill-895" fill="#CDD1DF"></path>
            <path d="M72.1274,292.8408 C72.1274,295.4918 69.9784,297.6408 67.3274,297.6408 C64.6764,297.6408 62.5274,295.4918 62.5274,292.8408 C62.5274,290.1898 64.6764,288.0408 67.3274,288.0408 C69.9784,288.0408 72.1274,290.1898 72.1274,292.8408" id="Fill-897" fill="#CDD1DF"></path>
            <path d="M104.1274,292.8408 C104.1274,295.4918 101.9784,297.6408 99.3274,297.6408 C96.6764,297.6408 94.5274,295.4918 94.5274,292.8408 C94.5274,290.1898 96.6764,288.0408 99.3274,288.0408 C101.9784,288.0408 104.1274,290.1898 104.1274,292.8408" id="Fill-899" fill="#CDD1DF"></path>
            <path d="M6.5273,324.8408 C6.5273,326.6078 5.0943,328.0408 3.3273,328.0408 C1.5603,328.0408 0.1273,326.6078 0.1273,324.8408 C0.1273,323.0728 1.5603,321.6408 3.3273,321.6408 C5.0943,321.6408 6.5273,323.0728 6.5273,324.8408" id="Fill-901" fill="#CDD1DF"></path>
            <path d="M38.5273,324.8408 C38.5273,326.6078 37.0943,328.0408 35.3273,328.0408 C33.5603,328.0408 32.1273,326.6078 32.1273,324.8408 C32.1273,323.0728 33.5603,321.6408 35.3273,321.6408 C37.0943,321.6408 38.5273,323.0728 38.5273,324.8408" id="Fill-903" fill="#CDD1DF"></path>
            <path d="M72.1274,324.8408 C72.1274,327.4918 69.9784,329.6408 67.3274,329.6408 C64.6764,329.6408 62.5274,327.4918 62.5274,324.8408 C62.5274,322.1898 64.6764,320.0408 67.3274,320.0408 C69.9784,320.0408 72.1274,322.1898 72.1274,324.8408" id="Fill-905" fill="#CDD1DF"></path>
            <path d="M104.1274,324.8408 C104.1274,327.4918 101.9784,329.6408 99.3274,329.6408 C96.6764,329.6408 94.5274,327.4918 94.5274,324.8408 C94.5274,322.1898 96.6764,320.0408 99.3274,320.0408 C101.9784,320.0408 104.1274,322.1898 104.1274,324.8408" id="Fill-907" fill="#CDD1DF"></path>
            <path d="M6.5273,356.8408 C6.5273,358.6078 5.0943,360.0408 3.3273,360.0408 C1.5603,360.0408 0.1273,358.6078 0.1273,356.8408 C0.1273,355.0728 1.5603,353.6408 3.3273,353.6408 C5.0943,353.6408 6.5273,355.0728 6.5273,356.8408" id="Fill-909" fill="#CDD1DF"></path>
            <path d="M38.5273,356.8408 C38.5273,358.6078 37.0943,360.0408 35.3273,360.0408 C33.5603,360.0408 32.1273,358.6078 32.1273,356.8408 C32.1273,355.0728 33.5603,353.6408 35.3273,353.6408 C37.0943,353.6408 38.5273,355.0728 38.5273,356.8408" id="Fill-911" fill="#CDD1DF"></path>
            <path d="M70.5273,356.8408 C70.5273,358.6078 69.0943,360.0408 67.3273,360.0408 C65.5603,360.0408 64.1273,358.6078 64.1273,356.8408 C64.1273,355.0728 65.5603,353.6408 67.3273,353.6408 C69.0943,353.6408 70.5273,355.0728 70.5273,356.8408" id="Fill-913" fill="#CDD1DF"></path>
            <path d="M102.5273,356.8408 C102.5273,358.6078 101.0943,360.0408 99.3273,360.0408 C97.5603,360.0408 96.1273,358.6078 96.1273,356.8408 C96.1273,355.0728 97.5603,353.6408 99.3273,353.6408 C101.0943,353.6408 102.5273,355.0728 102.5273,356.8408" id="Fill-915" fill="#CDD1DF"></path>
            <path d="M68.9277,204.6362 L49.7277,204.6362 C49.7277,174.6392 74.1307,150.2362 104.1277,150.2362 L104.1277,169.4362 C84.7187,169.4362 68.9277,185.2272 68.9277,204.6362" id="Fill-917" fill="#CDD1DF"></path>
            <path d="M486.8105,299.7251 C486.8345,299.4241 486.9005,299.1351 486.9005,298.8281 L486.9005,293.8801 C481.4885,292.4071 475.0425,289.9041 469.3025,285.6431 C462.5235,280.6111 458.4525,272.2301 456.0745,265.2281 L453.3005,265.2281 C447.1155,265.2281 442.1015,270.2431 442.1015,276.4281 L442.1015,288.3921 C449.1025,288.0211 467.6595,288.3721 486.8105,299.7251" id="Fill-919" fill="#CDD1DF"></path>
            <path d="M469.9712,284.7432 C475.4832,288.8352 481.6652,291.2742 486.9012,292.7272 L486.9012,276.4282 C486.9012,270.2432 481.8862,265.2282 475.7002,265.2282 L457.3002,265.2282 C459.6582,272.0192 463.6062,280.0202 469.9712,284.7432" id="Fill-921" fill="#CDD1DF"></path>
            <path d="M472.7554,303.3511 C466.7914,303.9001 463.0624,307.3971 461.0624,310.0281 L475.7004,310.0281 C479.0314,310.0281 481.9894,308.5461 484.0404,306.2391 C481.2434,304.4821 477.3804,302.9231 472.7554,303.3511" id="Fill-923" fill="#CDD1DF"></path>
            <path d="M472.6523,302.2354 C477.6893,301.7674 481.8263,303.4554 484.7813,305.3414 C485.7053,304.0554 486.3723,302.5804 486.6853,300.9674 C467.5643,289.4634 448.9603,289.1354 442.1013,289.5094 L442.1013,298.8284 C442.1013,305.0144 447.1153,310.0284 453.3003,310.0284 L459.6883,310.0284 C461.6813,307.1764 465.7753,302.8684 472.6523,302.2354" id="Fill-925" fill="#CDD1DF"></path>
            <polygon id="Fill-927" fill="#CDD1DF" points="532.4751 344.0405 524.4751 352.0405 516.4751 344.0405 524.4751 336.0405"></polygon>
            <path d="M518.082,33.5317 C518.082,41.4847 511.635,47.9317 503.682,47.9317 C495.729,47.9317 489.282,41.4847 489.282,33.5317 C489.282,25.5787 495.729,19.1317 503.682,19.1317 C511.635,19.1317 518.082,25.5787 518.082,33.5317" id="Fill-929" fill="#5B3636"></path>
            <path d="M386.0044,198.6738 C386.0044,198.6738 410.3304,195.8888 435.7894,190.7598 C467.1374,184.4448 473.3334,181.1078 481.8674,157.6408 C492.8674,127.3908 506.7344,62.1888 506.7344,62.1888 C506.7344,62.1888 514.6014,55.7878 513.1344,44.1888 C511.9254,34.6308 503.6824,28.3218 503.6824,28.3218 C503.6824,28.3218 512.8984,17.1308 516.9664,9.4738 C521.0274,1.8318 513.0534,-2.5392 508.1674,2.1738 C504.5004,5.7108 490.5674,20.7738 479.1674,37.7738 C468.4924,53.6928 429.3514,133.5718 429.3514,133.5718 L398.4424,136.3338 L386.0044,143.2758 L386.0044,198.6738 Z" id="Fill-931" fill="#825656"></path>
            <path d="M386.0044,198.6738 C386.0044,198.6738 396.4354,197.4758 410.7564,195.2168 L398.4424,136.3328 L386.0044,143.2758 L386.0044,198.6738 Z" id="Fill-933" fill="#5B3636"></path>
            <path d="M496.1338,29.7739 L505.1788,34.2219 C505.1788,34.2219 510.8108,27.8409 516.4298,24.7749 C522.2968,21.5759 527.1898,27.5929 522.9338,34.7079 C518.4868,42.1419 502.0008,60.7079 502.0008,60.7079 L496.1338,29.7739 Z" id="Fill-935" fill="#825656"></path>
            <path d="M504.3667,36.1548 C504.1917,36.1548 504.0167,36.0988 503.8697,35.9818 C503.5247,35.7078 503.4657,35.2048 503.7407,34.8578 C503.8077,34.7718 505.4287,32.7288 506.7907,31.3768 C507.1047,31.0648 507.6107,31.0678 507.9217,31.3798 C508.2337,31.6938 508.2307,32.1998 507.9187,32.5108 C506.6247,33.7958 505.0107,35.8318 504.9937,35.8518 C504.8357,36.0508 504.6027,36.1548 504.3667,36.1548" id="Fill-937" fill="#1D213A"></path>
            <path d="M322.7646,145.3623 C339.4666,142.1743 398.4426,136.3333 398.4426,136.3333 L402.4266,211.7493 C402.4266,211.7493 368.1686,215.9743 321.9906,209.3873 L322.7646,145.3623 Z" id="Fill-939" fill="#D3D6E2"></path>
            <path d="M135.4526,477.3164 L66.3896,460.3134 L26.7766,540.3644 C26.7766,540.3644 41.8586,553.2404 61.0666,549.1074 C82.1336,544.5744 89.3336,516.5744 89.3336,516.5744 L122.4676,526.4554 L135.4526,477.3164 Z" id="Fill-941" fill="#825656"></path>
            <path d="M160.2671,256.374 C160.2671,256.374 169.1491,270.174 191.8671,275.374 C216.6531,281.047 230.1341,274.441 230.1341,274.441 C230.1341,274.441 224.5341,253.507 200.0001,248.174 C174.1201,242.548 160.2671,256.374 160.2671,256.374" id="Fill-943" fill="#1D213A"></path>
            <path d="M181.0669,232.9741 C167.4669,268.1741 158.6669,312.5741 157.7179,334.1711 C157.0149,350.1591 196.9419,359.3011 206.7419,345.7011 C217.0269,331.4271 231.9489,244.2131 231.9489,244.2131 L181.0669,232.9741 Z" id="Fill-945" fill="#825656"></path>
            <path d="M135.4526,477.3164 L110.1806,471.0944 C110.1806,471.0944 93.7446,491.8694 97.0056,518.8614 L122.4676,526.4554 L135.4526,477.3164 Z" id="Fill-947" fill="#5B3636"></path>
            <path d="M228.0684,99.1855 C228.0684,99.1855 224.3194,105.6855 216.8214,103.9925 C207.6294,101.9165 206.7844,87.9085 216.8214,86.5785 C216.8214,86.5785 209.8074,87.1835 206.6634,80.0475 C203.5224,72.9205 208.3564,63.6015 218.3934,66.3825 C218.3934,66.3825 208.8464,62.1805 212.9514,51.5075 C216.5794,42.0745 229.1564,41.9545 232.7844,48.0005 C232.7844,48.0005 227.2214,36.6935 236.2924,32.6425 C244.1764,29.1205 250.3504,33.5795 252.1644,40.9565 C252.1644,40.9565 254.4354,31.3805 264.4104,32.4305 C274.7484,33.5185 275.3534,45.2195 271.9664,48.6055 C271.9664,48.6055 281.2784,44.1305 285.3904,52.1125 C290.0964,61.2475 282.3674,70.3735 272.0884,68.8015 L228.0684,99.1855 Z" id="Fill-949" fill="#1D213A"></path>
            <path d="M244.0005,311.2407 C244.0005,311.2407 229.4695,365.5567 240.9885,476.3567 L129.4665,448.5737 C129.4665,448.5737 107.0665,459.3737 103.6285,496.9667 C100.7555,528.3737 119.7335,551.7737 119.7335,551.7737 C119.7335,551.7737 215.0665,567.7737 281.8675,567.7737 C319.8675,567.7737 333.6005,556.0407 333.6005,556.0407 C333.6005,556.0407 389.6005,578.4407 408.5995,546.8977 C433.6355,505.3327 350.6675,311.2407 350.6675,311.2407 L244.0005,311.2407 Z" id="Fill-951" fill="#1D213A"></path>
            <path d="M333.5996,556.8408 C333.3546,556.8408 333.1106,556.7288 332.9546,556.5138 C332.6936,556.1578 332.7696,555.6568 333.1266,555.3958 C357.8636,537.2638 315.9216,381.9498 315.4956,380.3828 C315.3906,380.0018 315.5836,379.5998 315.9466,379.4408 C316.0686,379.3878 328.1596,373.9128 331.7546,357.9968 C331.8496,357.5658 332.2696,357.2878 332.7106,357.3938 C333.1416,357.4908 333.4126,357.9188 333.3136,358.3498 C329.9706,373.1568 319.8636,379.2388 317.2126,380.6048 C320.5766,393.0708 359.1206,538.3268 334.0736,556.6858 C333.9296,556.7908 333.7636,556.8408 333.5996,556.8408" id="Fill-953" fill="#E8EAEF"></path>
            <path d="M322.7646,145.3623 C322.7646,145.3623 335.4666,240.1743 366.3596,311.2403 C366.3596,311.2403 350.5996,330.2753 310.1336,336.5743 C253.6006,345.3743 225.0666,330.9743 225.0666,330.9743 C231.9486,250.9743 214.6666,172.3073 214.6666,172.3073 C214.6666,172.3073 240.8586,161.3503 269.6006,154.9743 C297.0666,148.8803 322.7646,145.3623 322.7646,145.3623" id="Fill-955" fill="#D3D6E2"></path>
            <path d="M226.7651,272.1499 C229.8851,256.2729 231.9491,244.2129 231.9491,244.2129 L181.0671,232.9739 C177.0221,243.4419 173.4141,254.7249 170.2991,265.9789 C170.5851,265.8159 195.3641,251.8109 226.7651,272.1499" id="Fill-957" fill="#5B3636"></path>
            <path d="M335.0527,211.8096 C334.6867,211.8096 334.3577,211.5586 334.2727,211.1876 C331.5667,199.2976 329.0537,187.0726 326.8037,174.8536 C326.7247,174.4186 327.0117,174.0016 327.4467,173.9206 C327.8827,173.8536 328.2987,174.1286 328.3797,174.5626 C330.6227,186.7616 333.1307,198.9646 335.8327,210.8316 C335.9307,211.2626 335.6607,211.6906 335.2307,211.7896 C335.1697,211.8036 335.1107,211.8096 335.0527,211.8096" id="Fill-959" fill="#1D213A"></path>
            <path d="M214.667,172.3076 C200,177.6406 172.267,230.5076 160.267,256.3736 C160.267,256.3736 176.513,249.1546 198.267,253.7736 C219.787,258.3436 230.134,274.4406 230.134,274.4406 C230.134,274.4406 236.515,246.1216 232.134,216.3076 C227.334,183.6406 214.667,172.3076 214.667,172.3076" id="Fill-961" fill="#D3D6E2"></path>
            <path d="M230.1343,275.2407 C230.0763,275.2407 230.0173,275.2347 229.9593,275.2207 C229.5283,275.1237 229.2563,274.6957 229.3543,274.2637 C229.4173,273.9827 235.6513,245.7397 231.3423,216.4237 C231.2783,215.9877 231.5813,215.5817 232.0183,215.5157 C232.4523,215.4657 232.8613,215.7537 232.9263,216.1927 C237.2783,245.8097 230.9793,274.3317 230.9133,274.6177 C230.8313,274.9897 230.5013,275.2407 230.1343,275.2407" id="Fill-963" fill="#1D213A"></path>
            <path d="M235.0669,99.4487 L244.8039,161.6097 C244.8039,161.6097 258.2669,167.9737 276.8669,162.7737 C292.0039,158.5417 294.2749,150.0137 294.2749,150.0137 L278.0699,89.1737 L235.0669,99.4487 Z" id="Fill-965" fill="#825656"></path>
            <path d="M275.4141,129.6006 C275.4141,129.6006 280.3381,131.3516 288.6691,128.9696 L278.0701,89.1736 L265.3971,92.2016 L275.4141,129.6006 Z" id="Fill-967" fill="#5B3636"></path>
            <path d="M226.1333,69.708 C226.1333,69.708 254.2623,50.642 268.9443,60.094 C282.1863,68.62 291.2193,91.875 290.4693,109.502 C289.5023,132.237 259.6473,137.252 246.8063,124.882 C231.9323,110.551 226.1333,69.708 226.1333,69.708" id="Fill-969" fill="#825656"></path>
            <path d="M228.1675,97.9551 C228.1675,97.9551 237.8435,98.5471 238.5595,88.9361 C239.1945,80.4111 231.2125,77.3871 231.2125,77.3871 C231.2125,77.3871 239.9805,78.7781 243.6685,71.8851 C246.8115,66.0131 243.7675,60.6811 243.7675,60.6811 C243.7675,60.6811 255.0595,65.9481 263.5015,63.4801 C270.7435,61.3631 269.9115,55.3771 269.9115,55.3771 C269.9115,55.3771 243.6655,48.4741 221.2925,69.5171 L228.1675,97.9551 Z" id="Fill-971" fill="#1D213A"></path>
            <path d="M235.6313,95.4702 C235.6313,95.4702 227.9673,90.4552 222.5683,96.3552 C216.3943,103.1002 222.4673,113.4552 229.6673,114.7552 C236.8673,116.0542 241.1843,111.7182 241.1843,111.7182 L235.6313,95.4702 Z" id="Fill-973" fill="#825656"></path>
            <path d="M290.5132,262.5776 C290.5132,262.5776 285.0672,273.3736 273.6672,274.4406 C273.6672,274.4406 224.2672,340.9736 209.8672,352.9736 C195.4672,364.9736 173.9322,364.3176 164.2482,353.1876 C154.6672,342.1746 155.1332,322.6636 168.7332,307.4636 C182.3332,292.2636 250.8282,244.1286 262.6672,235.7736 C276.4182,226.0706 291.5972,217.3846 299.6672,213.6746 C308.3672,209.6746 310.4672,217.6746 307.3392,222.1806 C303.9132,227.1156 294.3672,233.1746 294.3672,233.1746 C294.3672,233.1746 300.6672,233.9736 303.2672,238.3736 C305.8672,242.7736 300.8672,246.8316 300.8672,246.8316 C300.8672,246.8316 304.5672,248.1746 304.6672,255.1746 C304.7392,260.1896 301.3672,269.2736 295.6672,268.9736 C289.2632,268.6376 290.5132,262.5776 290.5132,262.5776" id="Fill-975" fill="#825656"></path>
            <path d="M175.9888,301.3364 C175.7668,301.3364 175.5448,301.2444 175.3868,301.0634 C175.0948,300.7304 175.1298,300.2254 175.4628,299.9344 C184.5358,292.0024 199.8888,280.1074 221.0918,264.5834 C221.4448,264.3224 221.9468,264.3984 222.2088,264.7564 C222.4698,265.1124 222.3938,265.6124 222.0358,265.8734 C200.8698,281.3724 185.5538,293.2364 176.5148,301.1374 C176.3638,301.2704 176.1758,301.3364 175.9888,301.3364" id="Fill-977" fill="#1D213A"></path>
            <path d="M300.8667,247.6313 C300.7557,247.6313 300.6437,247.6083 300.5367,247.5593 C293.9057,244.5563 287.8627,244.5223 287.8017,244.5223 C287.3587,244.5223 287.0017,244.1643 287.0017,243.7223 C287.0017,243.2793 287.3587,242.9223 287.8017,242.9223 C288.0617,242.9223 294.2547,242.9583 301.1967,246.1033 C301.5997,246.2843 301.7777,246.7593 301.5957,247.1613 C301.4627,247.4563 301.1717,247.6313 300.8667,247.6313" id="Fill-979" fill="#1D213A"></path>
            <path d="M294.3687,233.9736 C294.3187,233.9736 294.2667,233.9696 294.2167,233.9596 C291.9917,233.5336 287.6577,233.9676 287.6137,233.9696 C287.2047,234.0186 286.7807,233.6936 286.7387,233.2546 C286.6937,232.8146 287.0137,232.4226 287.4527,232.3786 C287.6397,232.3576 292.0607,231.9206 294.5167,232.3876 C294.9517,232.4706 295.2357,232.8896 295.1527,233.3236 C295.0797,233.7066 294.7437,233.9736 294.3687,233.9736" id="Fill-981" fill="#1D213A"></path>
            <path d="M290.5137,263.377 C290.4307,263.377 290.3467,263.364 290.2637,263.336 C289.8437,263.199 289.6157,262.746 289.7547,262.327 L291.8077,256.105 C291.9447,255.685 292.3937,255.454 292.8167,255.596 C293.2377,255.733 293.4657,256.186 293.3267,256.605 L291.2727,262.827 C291.1617,263.165 290.8497,263.377 290.5137,263.377" id="Fill-983" fill="#1D213A"></path>
            <path d="M425.667,143.0552 C425.562,143.0552 425.456,143.0342 425.355,142.9912 C424.948,142.8192 424.757,142.3482 424.931,141.9422 L428.615,133.2602 C428.787,132.8522 429.257,132.6612 429.664,132.8362 C430.07,133.0082 430.261,133.4782 430.087,133.8852 L426.403,142.5672 C426.275,142.8722 425.978,143.0552 425.667,143.0552" id="Fill-985" fill="#1D213A"></path>
            <path d="M66.3896,460.3135 L26.7766,540.3645 C26.7766,540.3645 41.8586,553.2405 61.0666,549.1075 C82.1336,544.5745 89.3336,516.5745 89.3336,516.5745 L97.0056,518.8615 C97.0056,518.8615 97.8326,516.4805 99.0676,511.0545 C100.4076,505.1685 91.1056,502.1115 91.1056,502.1115 L92.9226,466.8455 L66.3896,460.3135 Z" id="Fill-987" fill="#1D213A"></path>
            <path d="M233.5342,104.4551 C233.2632,104.4551 232.9982,104.3161 232.8482,104.0661 C230.8262,100.6961 226.5872,102.1751 226.4082,102.2381 C225.9952,102.3891 225.5342,102.1751 225.3822,101.7601 C225.2322,101.3441 225.4452,100.8861 225.8592,100.7351 C227.8012,100.0241 232.0502,99.6301 234.2202,103.2441 C234.4482,103.6221 234.3252,104.1141 233.9452,104.3411 C233.8172,104.4191 233.6752,104.4551 233.5342,104.4551" id="Fill-989" fill="#1D213A"></path>
            <path d="M276.2764,96.8989 C275.8854,96.8989 275.5454,96.6129 275.4854,96.2139 C275.4214,95.7769 275.7244,95.3709 276.1624,95.3069 C279.1204,94.8739 281.1374,93.5349 281.5564,91.7249 C281.7934,90.6959 281.4354,89.6819 280.6434,89.1389 C279.0984,88.0769 277.2924,90.2599 277.2734,90.2799 C277.1124,90.4739 276.8484,90.5649 276.6204,90.5739 C276.3664,90.5629 276.1354,90.4349 275.9934,90.2269 L272.5514,85.2069 C272.3014,84.8409 272.3934,84.3439 272.7574,84.0939 C273.1244,83.8439 273.6214,83.9379 273.8704,84.2999 L276.7654,88.5219 C277.9274,87.5189 279.7964,86.6189 281.5464,87.8189 C282.8874,88.7349 283.5034,90.4109 283.1154,92.0869 C282.5424,94.5609 280.0294,96.3579 276.3934,96.8909 C276.3544,96.8959 276.3154,96.8989 276.2764,96.8989" id="Fill-991" fill="#5B3636"></path>
            <path d="M260.7417,90.8071 C260.7417,91.8571 259.8907,92.7091 258.8397,92.7091 C257.7897,92.7091 256.9387,91.8571 256.9387,90.8071 C256.9387,89.7571 257.7897,88.9061 258.8397,88.9061 C259.8907,88.9061 260.7417,89.7571 260.7417,90.8071" id="Fill-993" fill="#1D213A"></path>
            <path d="M283.1514,82.0684 C283.1514,83.1184 282.2994,83.9704 281.2494,83.9704 C280.1994,83.9704 279.3474,83.1184 279.3474,82.0684 C279.3474,81.0184 280.1994,80.1664 281.2494,80.1664 C282.2994,80.1664 283.1514,81.0184 283.1514,82.0684" id="Fill-995" fill="#1D213A"></path>
            <path d="M248.0894,87.3105 C249.3224,87.9895 251.5394,86.4535 253.9834,85.1075 C256.3714,83.6635 258.8094,82.5125 258.8384,81.1045 C258.9284,79.7205 255.2224,78.5595 251.4544,80.7275 C247.6934,82.9065 246.8464,86.6965 248.0894,87.3105" id="Fill-997" fill="#1D213A"></path>
            <path d="M282.5967,72.4878 C282.3487,73.8018 280.2277,74.1398 278.0997,74.7678 C275.9427,75.2878 273.9367,76.0558 273.0647,75.0418 C272.1757,74.0858 273.4537,70.7828 276.7907,69.8828 C280.1307,68.9948 282.8887,71.2148 282.5967,72.4878" id="Fill-999" fill="#1D213A"></path>
            <path d="M39.3276,548.1333 C39.2076,548.1333 39.0876,548.1063 38.9736,548.0503 C38.5766,547.8533 38.4156,547.3733 38.6106,546.9783 L79.9356,463.4703 C80.1326,463.0703 80.6126,462.9123 81.0076,463.1083 C81.4046,463.3053 81.5656,463.7843 81.3696,464.1803 L40.0446,547.6883 C39.9056,547.9703 39.6216,548.1333 39.3276,548.1333" id="Fill-1001" fill="#E8EAEF"></path>
            <path d="M89.334,517.3721 C88.984,517.3721 88.664,517.1431 88.564,516.7891 C88.551,516.7441 87.217,512.2061 82.456,510.1921 C82.048,510.0191 81.857,509.5501 82.029,509.1441 C82.203,508.7351 82.676,508.5521 83.078,508.7171 C88.572,511.0421 90.045,516.1441 90.105,516.3601 C90.223,516.7851 89.975,517.2241 89.55,517.3421 C89.478,517.3631 89.406,517.3721 89.334,517.3721" id="Fill-1003" fill="#E8EAEF"></path>
            <path d="M86.6528,524.877 C86.3388,524.877 86.0408,524.69 85.9138,524.381 C85.8938,524.333 83.8688,519.55 79.0288,517.299 C78.6298,517.113 78.4558,516.636 78.6418,516.236 C78.8298,515.835 79.3038,515.66 79.7048,515.849 C85.1268,518.371 87.3028,523.553 87.3938,523.774 C87.5608,524.182 87.3648,524.647 86.9578,524.816 C86.8578,524.856 86.7548,524.877 86.6528,524.877" id="Fill-1005" fill="#E8EAEF"></path>
            <path d="M83.0107,532.0894 C82.7047,532.0894 82.4117,531.9114 82.2797,531.6144 C82.2577,531.5634 79.9857,526.5614 75.2907,524.8264 C74.8747,524.6734 74.6637,524.2144 74.8167,523.8004 C74.9697,523.3844 75.4367,523.1724 75.8437,523.3264 C81.1857,525.2984 83.6397,530.7364 83.7417,530.9654 C83.9217,531.3694 83.7387,531.8404 83.3337,532.0204 C83.2297,532.0674 83.1197,532.0894 83.0107,532.0894" id="Fill-1007" fill="#E8EAEF"></path>
            <path d="M208.9341,102.3877 C208.6901,102.3877 208.4481,102.2757 208.2901,102.0627 C208.1321,101.8497 204.4501,96.7637 206.9421,90.9407 C209.9551,83.9007 219.6891,86.1187 219.7861,86.1437 C220.2151,86.2457 220.4811,86.6767 220.3791,87.1067 C220.2761,87.5347 219.8471,87.8067 219.4171,87.6997 C219.3351,87.6817 210.8951,85.7717 208.4131,91.5687 C206.2781,96.5597 209.5431,101.0677 209.5781,101.1127 C209.8401,101.4677 209.7651,101.9697 209.4091,102.2317 C209.2671,102.3367 209.1001,102.3877 208.9341,102.3877" id="Fill-1009" fill="#1D213A"></path>
            <path d="M235.4824,79.2861 C231.9324,79.2861 228.9294,78.5001 228.6594,78.4271 C228.2324,78.3131 227.9794,77.8731 228.0954,77.4471 C228.2094,77.0221 228.6604,76.7701 229.0744,76.8831 C229.2094,76.9161 242.5094,80.3891 245.5074,72.3301 C248.3634,64.6501 241.6374,58.8091 241.3494,58.5641 C241.0134,58.2781 240.9714,57.7741 241.2574,57.4381 C241.5424,57.1051 242.0464,57.0581 242.3844,57.3441 C242.4624,57.4111 250.2594,64.1441 247.0074,72.8861 C245.0714,78.0911 239.8624,79.2861 235.4824,79.2861" id="Fill-1011" fill="#1D213A"></path>
            <path d="M258.7075,67.7002 C248.7715,67.7002 242.0905,59.9912 241.7915,59.6412 C241.5055,59.3052 241.5465,58.8002 241.8825,58.5142 C242.2165,58.2272 242.7215,58.2662 243.0105,58.6032 C243.0825,58.6882 250.4345,67.1252 260.6545,65.9922 C270.0665,64.9532 270.5205,58.2032 270.5355,57.9172 C270.5595,57.4772 270.9095,57.1112 271.3715,57.1582 C271.8115,57.1782 272.1525,57.5492 272.1345,57.9892 C272.1295,58.0742 271.6455,66.3892 260.8295,67.5832 C260.1075,67.6622 259.3995,67.7002 258.7075,67.7002" id="Fill-1013" fill="#1D213A"></path>
            <path d="M288.6699,56.0532 C288.2299,56.0532 287.8719,55.6972 287.8699,55.2562 C287.8689,54.9772 287.7689,48.3912 281.4109,46.8312 C275.3039,45.3392 270.9329,50.6362 270.8899,50.6892 C270.6089,51.0322 270.1089,51.0892 269.7649,50.8092 C269.4209,50.5332 269.3669,50.0322 269.6439,49.6862 C269.8469,49.4362 274.6859,43.5252 281.7919,45.2782 C289.3819,47.1392 289.4699,55.1742 289.4699,55.2552 C289.4699,55.6962 289.1119,56.0532 288.6709,56.0532 L288.6699,56.0532 Z" id="Fill-1015" fill="#1D213A"></path>
            <path d="M220.8667,67.6987 C220.7687,67.6987 211.0737,67.5747 209.2207,56.9697 C208.4367,52.4957 209.7467,48.3707 212.9077,45.3547 C216.2867,42.1317 221.3257,40.6877 225.7417,41.6737 C233.3297,43.3707 234.8857,50.0517 234.9487,50.3367 C235.0437,50.7657 234.7717,51.1927 234.3407,51.2877 C233.9157,51.3757 233.4827,51.1117 233.3857,50.6827 C233.3307,50.4397 231.9627,44.7047 225.3917,43.2367 C221.4837,42.3577 217.0147,43.6467 214.0127,46.5127 C211.2497,49.1467 210.1077,52.7627 210.7947,56.6937 C212.4197,65.9927 220.5227,66.0987 220.8667,66.0987 C221.3087,66.0987 221.6667,66.4567 221.6667,66.8987 C221.6667,67.3407 221.3087,67.6987 220.8667,67.6987" id="Fill-1017" fill="#1D213A"></path>
            <path d="M252.0684,43.4551 C252.0424,43.4551 252.0134,43.4541 251.9874,43.4501 C251.5484,43.4071 251.2264,43.0141 251.2714,42.5751 C251.7574,37.7111 250.4344,33.8271 247.5464,31.6351 C245.0344,29.7281 241.6384,29.3991 238.2284,30.7331 C237.8194,30.8951 237.3534,30.6911 237.1924,30.2781 C237.0304,29.8681 237.2344,29.4031 237.6464,29.2431 C241.5904,27.7041 245.5484,28.1111 248.5134,30.3601 C251.8144,32.8641 253.4004,37.3751 252.8624,42.7351 C252.8214,43.1471 252.4734,43.4551 252.0684,43.4551" id="Fill-1019" fill="#1D213A"></path>
            <path d="M279.3345,107.1611 C279.3345,109.8121 277.5435,111.9611 275.3345,111.9611 C273.1255,111.9611 271.3345,109.8121 271.3345,107.1611 C271.3345,104.5101 273.1255,102.3611 275.3345,102.3611 C277.5435,102.3611 279.3345,104.5101 279.3345,107.1611" id="Fill-1021" fill="#1D213A"></path>
        </g>
    </g>
</svg>