<?xml version="1.0" encoding="UTF-8"?>
<svg width="522px" height="468px" viewBox="0 0 522 468" version="1.1" xmlns="http://www.w3.org/2000/svg" xmlns:xlink="http://www.w3.org/1999/xlink">
    <title>Illustration 10 0</title>
    <g id="🤩-Illustrations" stroke="none" stroke-width="1" fill="none" fill-rule="evenodd">
        <g id="Illustration-10">
            <path d="M427.4521,252.8955 C427.4521,255.5455 425.3031,257.6955 422.6521,257.6955 C420.0011,257.6955 417.8521,255.5455 417.8521,252.8955 C417.8521,250.2445 420.0011,248.0945 422.6521,248.0945 C425.3031,248.0945 427.4521,250.2445 427.4521,252.8955" id="Fill-1458" fill="#CDD1DF"></path>
            <path d="M459.4521,252.8955 C459.4521,255.5455 457.3031,257.6955 454.6521,257.6955 C452.0011,257.6955 449.8521,255.5455 449.8521,252.8955 C449.8521,250.2445 452.0011,248.0945 454.6521,248.0945 C457.3031,248.0945 459.4521,250.2445 459.4521,252.8955" id="Fill-1460" fill="#CDD1DF"></path>
            <path d="M491.4521,252.8955 C491.4521,255.5455 489.3031,257.6955 486.6521,257.6955 C484.0011,257.6955 481.8521,255.5455 481.8521,252.8955 C481.8521,250.2445 484.0011,248.0945 486.6521,248.0945 C489.3031,248.0945 491.4521,250.2445 491.4521,252.8955" id="Fill-1462" fill="#CDD1DF"></path>
            <path d="M521.8521,252.8955 C521.8521,254.6625 520.4191,256.0945 518.6521,256.0945 C516.8851,256.0945 515.4521,254.6625 515.4521,252.8955 C515.4521,251.1275 516.8851,249.6955 518.6521,249.6955 C520.4191,249.6955 521.8521,251.1275 521.8521,252.8955" id="Fill-1464" fill="#CDD1DF"></path>
            <path d="M427.4521,284.8955 C427.4521,287.5455 425.3031,289.6955 422.6521,289.6955 C420.0011,289.6955 417.8521,287.5455 417.8521,284.8955 C417.8521,282.2445 420.0011,280.0945 422.6521,280.0945 C425.3031,280.0945 427.4521,282.2445 427.4521,284.8955" id="Fill-1466" fill="#CDD1DF"></path>
            <path d="M459.4521,284.8955 C459.4521,287.5455 457.3031,289.6955 454.6521,289.6955 C452.0011,289.6955 449.8521,287.5455 449.8521,284.8955 C449.8521,282.2445 452.0011,280.0945 454.6521,280.0945 C457.3031,280.0945 459.4521,282.2445 459.4521,284.8955" id="Fill-1468" fill="#CDD1DF"></path>
            <path d="M491.4521,284.8955 C491.4521,287.5455 489.3031,289.6955 486.6521,289.6955 C484.0011,289.6955 481.8521,287.5455 481.8521,284.8955 C481.8521,282.2445 484.0011,280.0945 486.6521,280.0945 C489.3031,280.0945 491.4521,282.2445 491.4521,284.8955" id="Fill-1470" fill="#CDD1DF"></path>
            <path d="M521.8521,284.8955 C521.8521,286.6625 520.4191,288.0945 518.6521,288.0945 C516.8851,288.0945 515.4521,286.6625 515.4521,284.8955 C515.4521,283.1275 516.8851,281.6955 518.6521,281.6955 C520.4191,281.6955 521.8521,283.1275 521.8521,284.8955" id="Fill-1472" fill="#CDD1DF"></path>
            <path d="M427.4521,316.8955 C427.4521,319.5455 425.3031,321.6955 422.6521,321.6955 C420.0011,321.6955 417.8521,319.5455 417.8521,316.8955 C417.8521,314.2445 420.0011,312.0945 422.6521,312.0945 C425.3031,312.0945 427.4521,314.2445 427.4521,316.8955" id="Fill-1474" fill="#CDD1DF"></path>
            <path d="M459.4521,316.8955 C459.4521,319.5455 457.3031,321.6955 454.6521,321.6955 C452.0011,321.6955 449.8521,319.5455 449.8521,316.8955 C449.8521,314.2445 452.0011,312.0945 454.6521,312.0945 C457.3031,312.0945 459.4521,314.2445 459.4521,316.8955" id="Fill-1476" fill="#CDD1DF"></path>
            <path d="M489.8521,316.8955 C489.8521,318.6625 488.4191,320.0945 486.6521,320.0945 C484.8851,320.0945 483.4521,318.6625 483.4521,316.8955 C483.4521,315.1275 484.8851,313.6955 486.6521,313.6955 C488.4191,313.6955 489.8521,315.1275 489.8521,316.8955" id="Fill-1478" fill="#CDD1DF"></path>
            <path d="M521.8521,316.8955 C521.8521,318.6625 520.4191,320.0945 518.6521,320.0945 C516.8851,320.0945 515.4521,318.6625 515.4521,316.8955 C515.4521,315.1275 516.8851,313.6955 518.6521,313.6955 C520.4191,313.6955 521.8521,315.1275 521.8521,316.8955" id="Fill-1480" fill="#CDD1DF"></path>
            <path d="M425.8521,348.8955 C425.8521,350.6625 424.4191,352.0945 422.6521,352.0945 C420.8851,352.0945 419.4521,350.6625 419.4521,348.8955 C419.4521,347.1275 420.8851,345.6955 422.6521,345.6955 C424.4191,345.6955 425.8521,347.1275 425.8521,348.8955" id="Fill-1482" fill="#CDD1DF"></path>
            <path d="M457.8521,348.8955 C457.8521,350.6625 456.4191,352.0945 454.6521,352.0945 C452.8851,352.0945 451.4521,350.6625 451.4521,348.8955 C451.4521,347.1275 452.8851,345.6955 454.6521,345.6955 C456.4191,345.6955 457.8521,347.1275 457.8521,348.8955" id="Fill-1484" fill="#CDD1DF"></path>
            <path d="M489.8521,348.8955 C489.8521,350.6625 488.4191,352.0945 486.6521,352.0945 C484.8851,352.0945 483.4521,350.6625 483.4521,348.8955 C483.4521,347.1275 484.8851,345.6955 486.6521,345.6955 C488.4191,345.6955 489.8521,347.1275 489.8521,348.8955" id="Fill-1486" fill="#CDD1DF"></path>
            <path d="M521.8521,348.8955 C521.8521,350.6625 520.4191,352.0945 518.6521,352.0945 C516.8851,352.0945 515.4521,350.6625 515.4521,348.8955 C515.4521,347.1275 516.8851,345.6955 518.6521,345.6955 C520.4191,345.6955 521.8521,347.1275 521.8521,348.8955" id="Fill-1488" fill="#CDD1DF"></path>
            <path d="M105.6382,385.5996 C102.7382,385.5996 101.2102,384.0756 99.9852,382.8486 C98.8382,381.7046 97.9322,380.7996 96.0262,380.7996 C94.1222,380.7996 93.2162,381.7046 92.0702,382.8486 C90.8452,384.0756 89.3162,385.5996 86.4162,385.5996 C83.5192,385.5996 81.9942,384.0756 80.7692,382.8486 C79.6262,381.7036 78.7222,380.7996 76.8232,380.7996 C74.9232,380.7996 74.0192,381.7036 72.8762,382.8486 C71.6512,384.0756 70.1262,385.5996 67.2292,385.5996 C64.3322,385.5996 62.8072,384.0736 61.5822,382.8466 C60.4412,381.7036 59.5382,380.7996 57.6382,380.7996 C56.9762,380.7996 56.4382,380.2626 56.4382,379.5996 C56.4382,378.9376 56.9762,378.4006 57.6382,378.4006 C60.5322,378.4006 62.0572,379.9246 63.2822,381.1516 C64.4262,382.2946 65.3292,383.2006 67.2292,383.2006 C69.1292,383.2006 70.0322,382.2966 71.1762,381.1516 C72.4012,379.9246 73.9262,378.4006 76.8232,378.4006 C79.7202,378.4006 81.2442,379.9246 82.4702,381.1516 C83.6132,382.2966 84.5162,383.2006 86.4162,383.2006 C88.3232,383.2006 89.2292,382.2946 90.3762,381.1506 C91.6012,379.9246 93.1292,378.4006 96.0262,378.4006 C98.9262,378.4006 100.4542,379.9246 101.6792,381.1516 C102.8252,382.2946 103.7322,383.2006 105.6382,383.2006 C106.3012,383.2006 106.8382,383.7376 106.8382,384.4006 C106.8382,385.0626 106.3012,385.5996 105.6382,385.5996" id="Fill-1490" fill="#CDD1DF"></path>
            <path d="M105.6382,398.4004 C102.7382,398.4004 101.2102,396.8754 99.9852,395.6484 C98.8382,394.5044 97.9322,393.5994 96.0262,393.5994 C94.1222,393.5994 93.2162,394.5044 92.0702,395.6484 C90.8452,396.8754 89.3162,398.4004 86.4162,398.4004 C83.5192,398.4004 81.9942,396.8754 80.7692,395.6484 C79.6262,394.5034 78.7222,393.5994 76.8232,393.5994 C74.9232,393.5994 74.0192,394.5034 72.8762,395.6484 C71.6512,396.8754 70.1262,398.4004 67.2292,398.4004 C64.3322,398.4004 62.8072,396.8734 61.5822,395.6464 C60.4412,394.5034 59.5382,393.5994 57.6382,393.5994 C56.9762,393.5994 56.4382,393.0624 56.4382,392.4004 C56.4382,391.7374 56.9762,391.2004 57.6382,391.2004 C60.5322,391.2004 62.0572,392.7244 63.2822,393.9514 C64.4262,395.0954 65.3292,396.0004 67.2292,396.0004 C69.1292,396.0004 70.0322,395.0964 71.1762,393.9514 C72.4012,392.7244 73.9262,391.2004 76.8232,391.2004 C79.7202,391.2004 81.2442,392.7244 82.4702,393.9514 C83.6132,395.0964 84.5162,396.0004 86.4162,396.0004 C88.3232,396.0004 89.2292,395.0954 90.3762,393.9504 C91.6012,392.7244 93.1292,391.2004 96.0262,391.2004 C98.9262,391.2004 100.4542,392.7244 101.6792,393.9514 C102.8252,395.0954 103.7322,396.0004 105.6382,396.0004 C106.3012,396.0004 106.8382,396.5374 106.8382,397.2004 C106.8382,397.8624 106.3012,398.4004 105.6382,398.4004" id="Fill-1492" fill="#CDD1DF"></path>
            <path d="M105.6382,411.2002 C102.7382,411.2002 101.2102,409.6752 99.9852,408.4482 C98.8382,407.3042 97.9322,406.4002 96.0262,406.4002 C94.1222,406.4002 93.2162,407.3042 92.0702,408.4482 C90.8452,409.6752 89.3162,411.2002 86.4162,411.2002 C83.5192,411.2002 81.9942,409.6752 80.7692,408.4482 C79.6262,407.3032 78.7222,406.4002 76.8232,406.4002 C74.9232,406.4002 74.0192,407.3032 72.8762,408.4482 C71.6512,409.6752 70.1262,411.2002 67.2292,411.2002 C64.3322,411.2002 62.8072,409.6742 61.5822,408.4472 C60.4412,407.3032 59.5382,406.4002 57.6382,406.4002 C56.9762,406.4002 56.4382,405.8622 56.4382,405.2002 C56.4382,404.5372 56.9762,404.0002 57.6382,404.0002 C60.5322,404.0002 62.0572,405.5252 63.2822,406.7522 C64.4262,407.8952 65.3292,408.8002 67.2292,408.8002 C69.1292,408.8002 70.0322,407.8962 71.1762,406.7522 C72.4012,405.5252 73.9262,404.0002 76.8232,404.0002 C79.7202,404.0002 81.2442,405.5252 82.4702,406.7522 C83.6132,407.8962 84.5162,408.8002 86.4162,408.8002 C88.3232,408.8002 89.2292,407.8952 90.3762,406.7502 C91.6012,405.5252 93.1292,404.0002 96.0262,404.0002 C98.9262,404.0002 100.4542,405.5252 101.6792,406.7522 C102.8252,407.8952 103.7322,408.8002 105.6382,408.8002 C106.3012,408.8002 106.8382,409.3382 106.8382,410.0002 C106.8382,410.6622 106.3012,411.2002 105.6382,411.2002" id="Fill-1494" fill="#CDD1DF"></path>
            <path d="M105.6382,424 C102.7382,424 101.2102,422.475 99.9852,421.248 C98.8382,420.104 97.9322,419.2 96.0262,419.2 C94.1222,419.2 93.2162,420.104 92.0702,421.248 C90.8452,422.475 89.3162,424 86.4162,424 C83.5192,424 81.9942,422.475 80.7692,421.248 C79.6262,420.104 78.7222,419.2 76.8232,419.2 C74.9232,419.2 74.0192,420.104 72.8762,421.248 C71.6512,422.475 70.1262,424 67.2292,424 C64.3322,424 62.8072,422.474 61.5822,421.247 C60.4412,420.104 59.5382,419.2 57.6382,419.2 C56.9762,419.2 56.4382,418.662 56.4382,418 C56.4382,417.338 56.9762,416.8 57.6382,416.8 C60.5322,416.8 62.0572,418.325 63.2822,419.552 C64.4262,420.695 65.3292,421.6 67.2292,421.6 C69.1292,421.6 70.0322,420.697 71.1762,419.552 C72.4012,418.325 73.9262,416.8 76.8232,416.8 C79.7202,416.8 81.2442,418.325 82.4702,419.552 C83.6132,420.697 84.5162,421.6 86.4162,421.6 C88.3232,421.6 89.2292,420.695 90.3762,419.55 C91.6012,418.325 93.1292,416.8 96.0262,416.8 C98.9262,416.8 100.4542,418.325 101.6792,419.552 C102.8252,420.695 103.7322,421.6 105.6382,421.6 C106.3012,421.6 106.8382,422.138 106.8382,422.8 C106.8382,423.463 106.3012,424 105.6382,424" id="Fill-1496" fill="#CDD1DF"></path>
            <path d="M19.3477,378.1172 L0.1477,378.1172 C0.1477,348.1202 24.5507,323.7172 54.5477,323.7172 L54.5477,342.9172 C35.1387,342.9172 19.3477,358.7082 19.3477,378.1172" id="Fill-1498" fill="#CDD1DF"></path>
            <polygon id="Fill-1500" fill="#CDD1DF" points="164.7227 146.1924 156.7227 154.1924 148.7227 146.1924 156.7227 138.1924"></polygon>
            <polygon id="Fill-1502" fill="#CDD1DF" points="494.6523 411.5996 486.6523 419.5996 478.6523 411.5996 486.6523 403.5996"></polygon>
            <path d="M123.3228,215.6499 C112.1228,212.2499 98.8038,225.1459 90.2168,249.8569 C79.7228,280.0499 84.3478,304.4589 101.7898,311.4499 C119.8548,318.6919 144.7228,296.8509 147.5228,264.8509 C150.0578,235.8749 134.4588,219.0299 123.3228,215.6499" id="Fill-1504" fill="#1D213A"></path>
            <path d="M155.3936,249.0254 L109.9226,219.1004 C109.9226,219.1004 107.4936,197.9754 100.0136,169.2454 C94.0006,146.1524 86.5896,115.5004 86.5896,115.5004 C86.5896,115.5004 94.8306,113.8634 100.3226,110.1674 C107.2566,105.5004 106.9586,97.8544 105.1226,87.6334 C103.5236,78.7314 98.9236,76.2314 98.9236,76.2314 C98.9236,76.2314 99.9236,70.3314 97.7896,66.8344 C94.5586,61.5394 88.8566,63.3674 88.8566,63.3674 C88.8566,63.3674 87.5226,59.7674 84.3226,58.4344 C80.4596,56.8244 77.3896,58.5674 77.3896,58.5674 C77.3896,58.5674 75.6566,54.0334 70.8566,53.6334 C66.0566,53.2334 59.9226,54.4344 53.7896,68.5674 C47.6566,82.7004 44.5896,109.7674 42.8566,137.1004 C41.1226,164.4344 42.2106,215.2874 44.4556,234.4344 C46.9896,256.0344 45.9426,257.2614 66.7226,272.1674 C92.1896,290.4334 135.9766,312.9274 135.9766,312.9274 C135.9766,312.9274 155.1386,302.0684 158.6556,281.8364 C162.1896,261.5014 155.3936,249.0254 155.3936,249.0254" id="Fill-1506" fill="#825656"></path>
            <path d="M372.123,181.25 C381.029,174.481 398.323,179.583 414.589,194.117 C430.221,208.082 443.456,238.308 431.923,252.65 C420.335,267.061 387.392,257.307 370.323,239.65 C353.889,222.65 362.123,188.85 372.123,181.25" id="Fill-1508" fill="#1D213A"></path>
            <path d="M357.0884,222.9873 L391.7224,172.2503 C391.7224,172.2503 392.2474,151.4463 394.4974,116.9693 C396.6824,83.4783 399.2724,59.7913 399.2724,59.7913 C399.2724,59.7913 392.7904,60.5973 388.4564,60.2503 C380.8784,59.6423 378.4124,52.9953 375.7894,42.7833 C373.1904,32.6643 381.5224,30.0503 381.5224,30.0503 C381.5224,30.0503 376.9524,17.8433 383.7224,12.4503 C387.6564,9.3173 392.1894,11.8503 392.1894,11.8503 C392.1894,11.8503 391.4484,6.9623 396.5874,4.9123 C401.2564,3.0503 405.1234,6.3833 405.1234,6.3833 C405.1234,6.3833 407.6564,-1.4837 415.5234,0.6503 C423.9204,2.9273 431.9224,14.2503 439.1234,39.6503 C446.3224,65.0503 454.0674,127.6843 455.7224,162.6503 C457.3224,196.4503 455.5034,198.2113 439.9224,219.0503 C423.9224,240.4503 402.4774,265.3133 402.4774,265.3133 C402.4774,265.3133 361.7224,258.4503 357.0884,222.9873" id="Fill-1510" fill="#825656"></path>
            <path d="M129.7236,269.3311 C122.6236,290.8311 106.6006,296.9631 106.5896,296.9681 C122.7376,306.1241 135.9766,312.9271 135.9766,312.9271 C135.9766,312.9271 155.1386,302.0681 158.6546,281.8361 C162.1896,261.5001 155.3936,249.0251 155.3936,249.0251 L131.3466,233.2001 C131.3466,233.2001 136.5666,248.6091 129.7236,269.3311" id="Fill-1512" fill="#5B3636"></path>
            <path d="M342.9229,242.4502 C342.9229,242.4502 353.2549,347.6762 373.2559,467.7172 L180.7229,467.7172 C195.4019,355.0792 200.5869,255.9222 200.5869,255.9222 C200.5869,255.9222 236.2369,248.3802 272.3229,245.2502 C308.3229,242.1282 342.9229,242.4502 342.9229,242.4502" id="Fill-1514" fill="#D3D6E2"></path>
            <path d="M371.6089,201.7163 L357.0879,222.9873 C361.7229,258.4503 402.4779,265.3133 402.4779,265.3133 C402.4779,265.3133 410.0039,256.5823 419.4519,245.0383 C419.4219,245.0383 400.3119,244.7193 385.5239,230.7313 C370.7239,216.7313 371.6089,201.7163 371.6089,201.7163" id="Fill-1516" fill="#5B3636"></path>
            <path d="M203.7861,255.9219 C203.7861,255.9219 154.5231,228.7169 123.3231,215.6499 C123.3231,215.6499 139.7231,226.0499 140.4561,252.2499 C141.2921,282.1159 123.9231,309.0499 101.7891,311.4499 C101.7891,311.4499 154.3231,335.4499 211.6561,339.7169 L203.7861,255.9219 Z" id="Fill-1518" fill="#D3D6E2"></path>
            <path d="M331.1211,242.5 C331.1211,242.5 353.3231,200.85 372.1231,181.25 C372.1231,181.25 355.8951,211.273 374.9601,233.867 C394.5231,257.05 426.3231,257.05 431.9231,252.65 C431.9231,252.65 393.9231,304.783 337.9231,339.717 L331.1211,242.5 Z" id="Fill-1520" fill="#D3D6E2"></path>
            <path d="M194.6323,338.6826 C194.6103,338.6826 194.5853,338.6816 194.5633,338.6796 C194.1223,338.6426 193.7983,338.2546 193.8353,337.8146 C195.1353,322.7106 196.3253,307.7076 197.3723,293.2206 C197.4013,292.7816 197.8043,292.4486 198.2263,292.4796 C198.6663,292.5126 199.0013,292.8956 198.9663,293.3356 C197.9233,307.8296 196.7323,322.8406 195.4293,337.9516 C195.3943,338.3696 195.0443,338.6826 194.6323,338.6826" id="Fill-1522" fill="#1D213A"></path>
            <path d="M353.0415,330.3965 C352.6445,330.3965 352.3005,330.1015 352.2475,329.6985 C350.3535,314.8905 348.5445,300.1155 346.8725,285.7865 C346.8195,285.3465 347.1355,284.9505 347.5725,284.8985 C347.9945,284.8515 348.4075,285.1615 348.4605,285.6015 C350.1325,299.9245 351.9415,314.6935 353.8355,329.4955 C353.8915,329.9325 353.5825,330.3345 353.1415,330.3905 C353.1065,330.3955 353.0755,330.3965 353.0415,330.3965" id="Fill-1524" fill="#1D213A"></path>
            <path d="M240.3286,186.5679 L235.8346,249.8329 C235.8346,249.8329 242.8566,266.1779 266.5896,266.11707 C294.6276,266.0449 303.3936,243.2719 303.3936,243.2719 L293.5226,183.2499 L240.3286,186.5679 Z" id="Fill-1526" fill="#825656"></path>
            <path d="M299.7896,221.3569 L293.5226,183.2499 L269.0306,184.7779 L271.5496,223.3579 C271.5496,223.3579 286.3236,227.3309 299.7896,221.3569" id="Fill-1528" fill="#5B3636"></path>
            <path d="M230.4438,122.4072 C230.4438,122.4072 225.8168,141.0502 225.8168,167.8522 C225.8178,197.1962 233.5128,223.7262 264.5768,223.740208 C299.3318,223.7572 308.4038,197.8382 305.5958,164.8452 C302.9298,133.5122 296.0438,117.4742 296.0438,117.4742 C296.0438,117.4742 279.9228,114.1162 261.2558,115.7172 C242.5898,117.3172 230.4438,122.4072 230.4438,122.4072" id="Fill-1530" fill="#825656"></path>
            <path d="M275.2563,87.8501 C276.1893,82.1171 286.1893,78.2501 293.9233,84.3671 C302.0593,90.8021 296.0563,101.9831 296.0563,101.9831 C297.9233,98.3831 310.4563,96.2501 315.2563,106.1171 C320.7533,117.4161 311.2563,124.2501 311.2563,124.2501 C317.5233,123.4501 323.6063,130.2721 321.2563,139.9831 C319.2563,148.2501 308.0563,153.0501 308.0563,153.0501 C308.0563,153.0501 300.3223,152.2501 295.4233,143.6501 C289.9443,134.0341 292.9893,123.7171 292.9893,123.7171 C292.9893,123.7171 285.9233,129.1831 273.3893,127.8501 C260.8563,126.5171 254.8983,117.5061 254.8983,117.5061 C254.8983,117.5061 253.5233,123.7171 247.6563,127.9831 C240.4733,133.2071 230.8563,130.9171 230.8563,130.9171 C230.8563,130.9171 234.5233,138.6781 232.3223,147.4501 C230.2103,155.8751 223.9503,159.8501 223.9503,159.8501 C223.9503,159.8501 210.8563,157.8501 207.9233,148.9171 C204.9563,139.8831 210.8563,133.3171 218.5393,134.4981 C218.5393,134.4981 208.4463,129.7411 209.1233,118.6501 C209.7893,107.7171 223.1233,103.9831 230.3223,109.1831 C230.3223,109.1831 222.2113,100.4011 228.1893,91.0501 C233.3893,82.9171 245.9233,83.7171 249.9233,90.9171 C249.9233,90.9171 247.6143,77.6511 260.4563,76.2501 C275.1233,74.6501 275.2563,87.8501 275.2563,87.8501" id="Fill-1532" fill="#1D213A"></path>
            <path d="M229.2227,157.8501 C229.2227,157.8501 224.6227,151.0501 215.3227,154.0431 C208.5107,156.2351 208.3417,169.6131 215.7227,175.5501 C221.6007,180.2781 229.2227,178.6501 229.2227,178.6501 L229.2227,157.8501 Z" id="Fill-1534" fill="#825656"></path>
            <path d="M299.7896,152.3833 C299.7896,152.3833 303.3896,144.9173 312.8566,146.3833 C322.3226,147.8503 322.9896,163.4503 316.9896,169.5123 C310.7966,175.7703 301.5226,174.3833 301.5226,174.3833 L299.7896,152.3833 Z" id="Fill-1536" fill="#825656"></path>
            <path d="M93.8569,88.2642 C93.8199,88.2642 93.7789,88.2612 93.7379,88.2552 C87.5599,87.3232 85.0639,84.2562 84.1259,82.5112 C83.0439,80.5032 82.9259,78.2732 83.7979,76.3952 C84.4009,75.0922 85.6169,74.1262 87.3139,73.6002 C90.6759,72.5532 95.6259,73.3512 99.3289,75.5422 C99.7109,75.7672 99.8359,76.2582 99.6099,76.6392 C99.3849,77.0202 98.8919,77.1392 98.5169,76.9202 C95.2199,74.9732 90.7109,74.2172 87.7889,75.1282 C86.5169,75.5222 85.6639,76.1752 85.2479,77.0692 C84.5909,78.4862 84.6949,80.1942 85.5349,81.7532 C86.3319,83.2362 88.4879,85.8452 93.9759,86.6732 C94.4139,86.7392 94.7129,87.1472 94.6479,87.5832 C94.5879,87.9792 94.2479,88.2642 93.8569,88.2642" id="Fill-1538" fill="#1D213A"></path>
            <path d="M89.6133,74.7861 C89.5703,74.7861 89.5233,74.7811 89.4763,74.7731 C89.0413,74.6981 88.7513,74.2841 88.8253,73.8501 C88.8323,73.8061 89.5513,69.4671 88.0823,63.5611 C87.9723,63.1311 88.2353,62.6971 88.6633,62.5911 C89.1013,62.4831 89.5263,62.7451 89.6323,63.1731 C91.1913,69.4301 90.4353,73.9341 90.4013,74.1231 C90.3323,74.5131 89.9943,74.7861 89.6133,74.7861" id="Fill-1540" fill="#1D213A"></path>
            <path d="M71.5415,82.1436 C71.0475,82.1436 70.5445,82.0886 70.0355,81.9796 C66.8975,81.2936 64.6195,78.6026 64.2295,75.1206 C63.5545,69.1066 65.5635,65.8986 65.6505,65.7646 C65.8915,65.3926 66.3945,65.2876 66.7535,65.5236 C67.1255,65.7626 67.2355,66.2576 66.9945,66.6296 C66.9795,66.6546 65.2135,69.5396 65.8165,74.9426 C66.1975,78.3266 68.4225,79.9896 70.3755,80.4156 C72.6665,80.9166 74.8855,79.8936 76.1725,77.7566 C78.8415,73.3216 78.5665,64.3906 76.6325,58.8296 C76.4885,58.4126 76.7075,57.9566 77.1255,57.8106 C77.5445,57.6666 77.9975,57.8856 78.1445,58.3046 C80.1855,64.1826 80.5385,73.6066 77.5415,78.5806 C76.1725,80.8596 73.9575,82.1436 71.5415,82.1436" id="Fill-1542" fill="#1D213A"></path>
            <path d="M82.3042,84.0654 C77.5952,84.0654 75.3042,79.7154 75.2762,79.6624 C75.0752,79.2704 75.2292,78.7904 75.6222,78.5884 C76.0012,78.3854 76.4942,78.5394 76.7002,78.9314 C76.8072,79.1394 79.4012,84.0004 84.9012,81.9614 C85.3042,81.8064 85.7762,82.0184 85.9292,82.4324 C86.0822,82.8464 85.8722,83.3074 85.4572,83.4614 C84.3072,83.8874 83.2572,84.0654 82.3042,84.0654" id="Fill-1544" fill="#1D213A"></path>
            <path d="M77.3228,105.2314 C77.2818,105.2314 77.2388,105.2284 77.1948,105.2204 C76.7578,105.1494 76.4638,104.7374 76.5318,104.3014 C79.0168,89.1074 69.7258,82.0264 69.3288,81.7324 C68.9758,81.4704 68.8978,80.9684 69.1598,80.6144 C69.4258,80.2574 69.9228,80.1824 70.2788,80.4454 C70.7068,80.7604 80.7608,88.3624 78.1138,104.5614 C78.0478,104.9534 77.7108,105.2314 77.3228,105.2314" id="Fill-1546" fill="#1D213A"></path>
            <path d="M82.7227,97.0312 L82.6947,97.0312 C82.2537,97.0152 81.9077,96.6452 81.9227,96.2032 C82.2447,86.8902 91.3257,86.1502 91.4167,86.1432 C91.8417,86.0962 92.2357,86.4452 92.2697,86.8842 C92.3007,87.3252 91.9697,87.7082 91.5287,87.7402 C91.2137,87.7642 83.7947,88.4032 83.5227,96.2592 C83.5077,96.6902 83.1507,97.0312 82.7227,97.0312" id="Fill-1548" fill="#1D213A"></path>
            <path d="M390.5728,42.1313 C390.2138,42.1313 389.8878,41.8893 389.7978,41.5263 C389.6888,41.0983 389.9478,40.6623 390.3788,40.5543 C396.1328,39.1093 398.2788,36.7843 399.0668,35.0893 C399.7448,33.6313 399.6888,32.0103 398.9038,30.4003 C397.0288,26.5673 388.7448,27.9123 381.8288,30.7893 C381.4258,30.9513 380.9568,30.7653 380.7848,30.3583 C380.6138,29.9483 380.8068,29.4813 381.2168,29.3113 C388.4788,26.2923 397.8508,24.5843 400.3418,29.7003 C401.3448,31.7573 401.4068,33.8543 400.5168,35.7643 C399.1758,38.6473 395.8038,40.8403 390.7668,42.1083 C390.7008,42.1233 390.6348,42.1313 390.5728,42.1313" id="Fill-1550" fill="#1D213A"></path>
            <path d="M395.1289,28.147 C394.8199,28.147 394.5259,27.967 394.3949,27.664 C394.2539,27.342 390.9699,19.653 391.3879,11.808 C391.4139,11.369 391.7159,11.001 392.2319,11.052 C392.6729,11.075 393.0099,11.452 392.9879,11.892 C392.5879,19.355 395.8289,26.953 395.8629,27.03 C396.0389,27.435 395.8509,27.906 395.4479,28.081 C395.3449,28.125 395.2349,28.147 395.1289,28.147" id="Fill-1552" fill="#1D213A"></path>
            <path d="M414.2759,28.9922 C412.2449,28.9922 410.3379,28.2762 409.0259,26.9622 C405.9629,23.9012 403.9819,13.3662 404.3229,6.3442 C404.3449,5.9032 404.7129,5.5312 405.1599,5.5842 C405.6039,5.6042 405.9449,5.9792 405.9229,6.4222 C405.6039,12.9782 407.4199,23.0982 410.1569,25.8312 C411.5039,27.1802 413.7009,27.7122 415.8879,27.2092 C418.0889,26.7092 419.7449,25.2972 420.4349,23.3312 C422.0509,18.7362 419.8039,13.0182 419.7789,12.9612 C419.6169,12.5522 419.8169,12.0862 420.2259,11.9222 C420.6289,11.7562 421.1009,11.9562 421.2669,12.3672 C421.3699,12.6232 423.7569,18.7042 421.9479,23.8622 C421.0699,26.3562 418.9919,28.1452 416.2419,28.7702 C415.5859,28.9202 414.9229,28.9922 414.2759,28.9922" id="Fill-1554" fill="#1D213A"></path>
            <path d="M401.9819,32.4189 C401.1669,32.4189 400.4139,32.2859 399.7789,32.0129 C399.3729,31.8389 399.1849,31.3669 399.3599,30.9619 C399.5349,30.5549 400.0069,30.3639 400.4099,30.5439 C401.7849,31.1339 404.0909,30.7749 406.0199,29.6729 C407.6259,28.7579 408.6379,27.5249 408.7979,26.2949 C408.8569,25.8549 409.2599,25.5439 409.6949,25.6029 C410.1319,25.6589 410.4409,26.0609 410.3849,26.4989 C410.1599,28.2329 408.8599,29.8969 406.8139,31.0629 C405.2599,31.9479 403.5129,32.4189 401.9819,32.4189" id="Fill-1556" fill="#1D213A"></path>
            <path d="M407.3228,42.6313 C407.1228,42.6313 406.9228,42.5573 406.7698,42.4093 C402.2848,38.1083 396.5318,39.8873 396.2948,39.9653 C395.8758,40.1033 395.4258,39.8703 395.2888,39.4503 C395.1508,39.0313 395.3828,38.5793 395.8008,38.4443 C396.0818,38.3533 402.6918,36.2783 407.8758,41.2533 C408.1948,41.5593 408.2068,42.0653 407.9008,42.3843 C407.7418,42.5483 407.5318,42.6313 407.3228,42.6313" id="Fill-1558" fill="#1D213A"></path>
            <path d="M412.0229,58.7314 C411.6639,58.7314 411.3359,58.4854 411.2449,58.1204 C407.0039,40.7544 417.1069,27.0044 417.2099,26.8674 C417.4759,26.5174 417.9729,26.4404 418.3289,26.7064 C418.6819,26.9714 418.7569,27.4714 418.4919,27.8264 C418.3949,27.9584 408.7449,41.1274 412.8009,57.7424 C412.9039,58.1704 412.6419,58.6034 412.2129,58.7084 C412.1479,58.7234 412.0849,58.7314 412.0229,58.7314" id="Fill-1560" fill="#1D213A"></path>
            <path d="M306.5913,159.5967 C306.5443,159.5967 306.4973,159.5927 306.4503,159.5847 C306.0133,159.5067 305.7263,159.0907 305.8043,158.6547 C307.1223,151.3277 314.0703,152.0757 314.1163,152.0827 C314.5543,152.1347 314.8663,152.5317 314.8163,152.9687 C314.7663,153.4077 314.3633,153.7107 313.9293,153.6717 C313.7073,153.6437 308.4293,153.1177 307.3793,158.9387 C307.3103,159.3257 306.9723,159.5967 306.5913,159.5967" id="Fill-1562" fill="#1D213A"></path>
            <path d="M225.1226,166.1313 C224.8136,166.1313 224.5166,165.9483 224.3856,165.6433 C222.2416,160.5983 217.4226,161.9373 217.2196,161.9973 C216.7826,162.1233 216.3516,161.8763 216.2266,161.4563 C216.1016,161.0343 216.3386,160.5903 216.7606,160.4643 C216.8316,160.4443 223.1446,158.6393 225.8606,165.0183 C226.0326,165.4243 225.8416,165.8953 225.4346,166.0673 C225.3316,166.1103 225.2286,166.1313 225.1226,166.1313" id="Fill-1564" fill="#1D213A"></path>
            <path d="M239.3042,134.4141 C230.9162,134.4141 227.6222,129.7171 227.4602,129.4791 C227.2132,129.1161 227.3072,128.6221 227.6732,128.3721 C228.0352,128.1281 228.5352,128.2171 228.7822,128.5801 C228.9542,128.8251 233.0822,134.6091 244.4602,132.2481 C256.0662,129.8341 254.2162,115.9871 254.1322,115.3981 C254.0702,114.9611 254.3722,114.5561 254.8072,114.4921 C255.2662,114.4391 255.6512,114.7331 255.7132,115.1691 C255.7382,115.3281 257.8722,131.0921 244.7852,133.8141 C242.7572,134.2361 240.9352,134.4141 239.3042,134.4141" id="Fill-1566" fill="#1D213A"></path>
            <path d="M276.7666,131.9814 C275.0136,131.9814 273.1386,131.7764 271.1416,131.3114 C255.6886,127.6964 252.6696,114.8344 252.6416,114.7044 C252.5476,114.2734 252.8166,113.8464 253.2476,113.7514 C253.6946,113.6474 254.1036,113.9264 254.2046,114.3564 C254.3136,114.8464 257.0636,126.3754 271.5036,129.7514 C286.2196,133.1964 293.7696,121.4244 293.8446,121.3044 C294.0856,120.9314 294.5786,120.8204 294.9476,121.0544 C295.322713,121.2894 295.4346,121.7824 295.2006,122.1574 C295.1286,122.2704 288.8606,131.9814 276.7666,131.9814" id="Fill-1568" fill="#1D213A"></path>
            <path d="M206.7915,154.0811 C206.5665,154.0811 206.3445,153.9871 206.1855,153.8031 C203.5915,150.7921 202.4105,146.3171 203.1035,142.1251 C203.6665,138.7091 205.4225,135.9091 207.9165,134.4421 C213.8825,130.9351 221.0945,134.2661 221.3975,134.4081 C221.7975,134.5971 221.9695,135.0721 221.7825,135.4721 C221.5915,135.8721 221.1105,136.0391 220.7165,135.8541 C220.6505,135.8231 213.9545,132.7471 208.7285,135.8201 C206.6445,137.0471 205.1695,139.4401 204.6825,142.3861 C204.0635,146.1231 205.1045,150.0991 207.3975,152.7591 C207.6855,153.0941 207.6475,153.5991 207.3135,153.8881 C207.1635,154.0171 206.9765,154.0811 206.7915,154.0811" id="Fill-1570" fill="#1D213A"></path>
            <path d="M307.5229,126.1313 C307.1479,126.1313 306.8159,125.8683 306.7379,125.4893 C306.6509,125.0573 306.9319,124.6343 307.3629,124.5473 C307.4569,124.5283 316.7789,122.5493 318.4409,115.1093 C319.3789,110.9153 318.5389,106.4403 316.1949,103.1373 C314.1449,100.2473 311.1819,98.5003 307.6289,98.0863 C299.5479,97.1093 294.2419,104.9953 294.1889,105.0753 C293.9449,105.4443 293.4509,105.5403 293.0789,105.2973 C292.7099,105.0533 292.6129,104.5563 292.8569,104.1873 C293.0949,103.8293 298.7729,95.4623 307.8159,96.4953 C311.7729,96.9593 315.2129,98.9893 317.5009,102.2113 C320.1009,105.8783 321.0389,110.8293 320.0039,115.4593 C318.1129,123.9223 308.1069,126.0293 307.6819,126.1153 C307.6259,126.1263 307.5729,126.1313 307.5229,126.1313" id="Fill-1572" fill="#1D213A"></path>
            <path d="M231.9917,111.1968 C231.9197,111.1968 231.8477,111.1878 231.7757,111.1668 C231.6847,111.1418 222.6377,108.4768 223.0567,97.1768 C223.2537,91.8918 225.9007,87.1798 230.3227,84.2498 C234.3537,81.5778 239.1037,80.8698 243.0387,82.3638 C251.1067,85.4308 251.8257,92.5598 251.8537,92.8608 C251.8917,93.2998 251.5697,93.6878 251.1287,93.7268 C250.6887,93.7798 250.3037,93.4438 250.2607,93.0028 C250.2357,92.7418 249.5757,86.5608 242.4697,83.8608 C239.0757,82.5688 234.7607,83.2278 231.2067,85.5828 C227.2197,88.2248 224.8317,92.4718 224.6577,97.2358 C224.2847,107.2448 231.8857,109.5338 232.2107,109.6268 C232.6327,109.7488 232.8787,110.1908 232.7607,110.6138 C232.6597,110.9678 232.3417,111.1968 231.9917,111.1968" id="Fill-1574" fill="#1D213A"></path>
            <path d="M274.9229,91.8311 C274.8629,91.8311 274.8009,91.8251 274.7379,91.8101 C274.3099,91.7081 274.0419,91.2781 274.1449,90.8491 C274.1639,90.7721 275.9099,83.1591 273.2849,78.7391 C270.1759,73.5051 263.9569,73.3691 259.5789,74.8391 C259.1569,74.9791 258.7039,74.7551 258.5639,74.3361 C258.4229,73.9171 258.6479,73.4641 259.0669,73.3231 C265.5789,71.1331 271.7009,72.9331 274.6599,77.9231 C277.6169,82.9011 275.7819,90.8781 275.7009,91.2161 C275.6129,91.5831 275.2849,91.8311 274.9229,91.8311" id="Fill-1576" fill="#1D213A"></path>
            <path d="M248.4883,164.9453 C248.2133,164.9453 247.9473,164.8033 247.7983,164.5493 C247.7633,164.4893 246.8883,163.0613 245.0073,162.9873 C243.1103,162.8653 242.3223,164.2843 242.2883,164.3433 C242.0603,164.7233 241.5703,164.8453 241.1973,164.6283 C240.8163,164.4073 240.6853,163.9243 240.9043,163.5443 C240.9543,163.4503 242.1633,161.3283 245.0703,161.3873 C247.8543,161.4983 249.1293,163.6543 249.1823,163.7453 C249.4013,164.1283 249.2693,164.6173 248.8883,164.8393 C248.7633,164.9113 248.6263,164.9453 248.4883,164.9453" id="Fill-1578" fill="#1D213A"></path>
            <path d="M280.9663,162.1313 C280.8293,162.1313 280.6913,162.0963 280.5633,162.0223 C280.1853,161.7993 280.0543,161.3173 280.2733,160.9363 C280.3253,160.8433 281.5973,158.6873 284.3823,158.5763 C287.2543,158.5033 288.4943,160.6393 288.5483,160.7333 C288.7663,161.1153 288.6353,161.6043 288.2513,161.8253 C287.8633,162.0393 287.3793,161.9073 287.1603,161.5263 C287.1293,161.4733 286.3323,160.0513 284.4453,160.1763 C282.5633,160.2503 281.6953,161.6783 281.6573,161.7373 C281.5073,161.9903 281.2383,162.1313 280.9663,162.1313" id="Fill-1580" fill="#1D213A"></path>
            <path d="M277.5479,148.7139 C278.3999,150.5869 282.1449,150.5819 285.9959,151.0039 C289.8619,151.2569 293.5479,151.9119 294.7129,150.2149 C295.9259,148.5999 292.6619,144.0469 286.6519,143.5119 C280.6389,142.9959 276.6339,146.9119 277.5479,148.7139" id="Fill-1582" fill="#1D213A"></path>
            <path d="M233.9536,153.7593 C235.2616,155.3483 238.8776,154.3743 242.7056,153.7843 C246.5066,153.0293 250.2366,152.7083 250.9226,150.7673 C251.6766,148.8923 247.3446,145.3413 241.4006,146.3793 C235.4596,147.4363 232.6036,152.2553 233.9536,153.7593" id="Fill-1584" fill="#1D213A"></path>
            <path d="M265.4038,175.3154 C265.1918,175.3154 264.9758,175.3094 264.7508,175.2984 C264.3098,175.2784 263.9698,174.9034 263.9878,174.4624 C264.0098,174.0224 264.3848,173.6404 264.8258,173.7014 C267.5758,173.8124 269.3418,173.0514 269.9508,171.5174 C270.4068,170.3674 270.0478,169.0244 269.4258,168.4924 C268.0098,167.2874 265.9448,168.7644 265.9228,168.7794 C265.6918,168.9504 265.3848,168.9794 265.1228,168.8604 C264.8608,168.7404 264.6818,168.4904 264.6568,168.2034 L263.9918,160.6224 C263.9538,160.1814 264.2788,159.7944 264.7198,159.7544 C265.1598,159.7314 265.5448,160.0444 265.5858,160.4814 L266.1448,166.8504 C267.2578,166.3774 268.9858,166.0124 270.4658,167.2764 C271.6948,168.3284 272.1128,170.4044 271.4388,172.1064 C270.9538,173.3314 269.5288,175.3144 265.4038,175.3154" id="Fill-1586" fill="#5B3636"></path>
            <path d="M266.436,183.6904 C271.554,183.3944 273.876,180.6034 275.868,182.1674 C279.909,185.3414 275.197,194.7494 266.627,194.7494 C260.265,194.7494 253.857,187.2974 257.688,183.6904 C260.145,181.3754 262.148,183.9384 266.436,183.6904" id="Fill-1588" fill="#1D213A"></path>
            <path d="M266.0928,186.9819 C262.8858,187.4069 260.3428,189.3009 259.3838,191.6579 C261.3078,193.4389 263.9668,194.7499 266.6278,194.7499 C269.9878,194.7499 272.7408,193.2959 274.6198,191.3459 C273.6408,188.3709 270.0678,186.4559 266.0928,186.9819" id="Fill-1590" fill="#FF5A5A"></path>
            <path d="M266.9336,187.6992 C271.5126,187.2232 275.1626,186.3132 277.5756,185.5772 C277.6036,184.1822 277.1386,182.9342 276.0816,182.1042 C274.0426,180.5032 271.6646,183.3612 266.4236,183.6632 C262.0326,183.9182 259.9816,181.2932 257.4656,183.6632 C256.3016,184.7592 256.0776,186.2032 256.4846,187.6902 C259.0016,187.9692 262.6186,188.1472 266.9336,187.6992" id="Fill-1592" fill="#E8EAEF"></path>
        </g>
    </g>
</svg>