<?xml version="1.0" encoding="UTF-8"?>
<svg width="502px" height="528px" viewBox="0 0 502 528" version="1.1" xmlns="http://www.w3.org/2000/svg" xmlns:xlink="http://www.w3.org/1999/xlink">
    <title>Illustration 11 0</title>
    <g id="🤩-Illustrations" stroke="none" stroke-width="1" fill="none" fill-rule="evenodd">
        <g id="Illustration-11">
            <path d="M92.8428,328.0098 C89.9448,328.0098 88.4158,326.4858 87.1898,325.2588 C86.0438,324.1148 85.1398,323.2098 83.2338,323.2098 C81.3268,323.2098 80.4208,324.1148 79.2758,325.2598 C78.0478,326.4858 76.5208,328.0098 73.6218,328.0098 C70.7258,328.0098 69.1998,326.4838 67.9758,325.2588 C66.8318,324.1138 65.9288,323.2098 64.0278,323.2098 C62.1258,323.2098 61.2228,324.1148 60.0788,325.2588 C58.8538,326.4858 57.3298,328.0098 54.4348,328.0098 C51.5398,328.0098 50.0168,326.4858 48.7908,325.2588 C47.6478,324.1148 46.7438,323.2098 44.8428,323.2098 C44.1808,323.2098 43.6428,322.6728 43.6428,322.0098 C43.6428,321.3478 44.1808,320.8108 44.8428,320.8108 C47.7388,320.8108 49.2628,322.3368 50.4888,323.5618 C51.6318,324.7068 52.5348,325.6108 54.4348,325.6108 C56.3348,325.6108 57.2388,324.7068 58.3818,323.5618 C59.6068,322.3368 61.1318,320.8108 64.0278,320.8108 C66.9228,320.8108 68.4468,322.3348 69.6728,323.5618 C70.8168,324.7048 71.7208,325.6108 73.6218,325.6108 C75.5288,325.6108 76.4338,324.7048 77.5788,323.5618 C78.8068,322.3348 80.3328,320.8108 83.2338,320.8108 C86.1318,320.8108 87.6598,322.3348 88.8868,323.5618 C90.0318,324.7048 90.9368,325.6108 92.8428,325.6108 C93.5048,325.6108 94.0428,326.1478 94.0428,326.8108 C94.0428,327.4728 93.5048,328.0098 92.8428,328.0098" id="Fill-1596" fill="#CDD1DF"></path>
            <path d="M92.8428,340.8105 C89.9448,340.8105 88.4158,339.2855 87.1898,338.0585 C86.0438,336.9145 85.1398,336.0095 83.2338,336.0095 C81.3268,336.0095 80.4208,336.9145 79.2758,338.0605 C78.0478,339.2855 76.5208,340.8105 73.6218,340.8105 C70.7258,340.8105 69.1998,339.2835 67.9758,338.0585 C66.8318,336.9135 65.9288,336.0095 64.0278,336.0095 C62.1258,336.0095 61.2228,336.9145 60.0788,338.0585 C58.8538,339.2855 57.3298,340.8105 54.4348,340.8105 C51.5398,340.8105 50.0168,339.2855 48.7908,338.0585 C47.6478,336.9145 46.7438,336.0095 44.8428,336.0095 C44.1808,336.0095 43.6428,335.4725 43.6428,334.8105 C43.6428,334.1475 44.1808,333.6105 44.8428,333.6105 C47.7388,333.6105 49.2628,335.1365 50.4888,336.3615 C51.6318,337.5065 52.5348,338.4105 54.4348,338.4105 C56.3348,338.4105 57.2388,337.5065 58.3818,336.3615 C59.6068,335.1365 61.1318,333.6105 64.0278,333.6105 C66.9228,333.6105 68.4468,335.1345 69.6728,336.3615 C70.8168,337.5055 71.7208,338.4105 73.6218,338.4105 C75.5288,338.4105 76.4338,337.5055 77.5788,336.3615 C78.8068,335.1345 80.3328,333.6105 83.2338,333.6105 C86.1318,333.6105 87.6598,335.1345 88.8868,336.3615 C90.0318,337.5055 90.9368,338.4105 92.8428,338.4105 C93.5048,338.4105 94.0428,338.9475 94.0428,339.6105 C94.0428,340.2725 93.5048,340.8105 92.8428,340.8105" id="Fill-1598" fill="#CDD1DF"></path>
            <path d="M92.8428,353.6104 C89.9448,353.6104 88.4158,352.0854 87.1898,350.8584 C86.0438,349.7144 85.1398,348.8104 83.2338,348.8104 C81.3268,348.8104 80.4208,349.7144 79.2758,350.8604 C78.0478,352.0854 76.5208,353.6104 73.6218,353.6104 C70.7258,353.6104 69.1998,352.0844 67.9758,350.8584 C66.8318,349.7134 65.9288,348.8104 64.0278,348.8104 C62.1258,348.8104 61.2228,349.7144 60.0788,350.8584 C58.8538,352.0854 57.3298,353.6104 54.4348,353.6104 C51.5398,353.6104 50.0168,352.0854 48.7908,350.8584 C47.6478,349.7144 46.7438,348.8104 44.8428,348.8104 C44.1808,348.8104 43.6428,348.2724 43.6428,347.6104 C43.6428,346.9474 44.1808,346.4104 44.8428,346.4104 C47.7388,346.4104 49.2628,347.9364 50.4888,349.1624 C51.6318,350.3064 52.5348,351.2104 54.4348,351.2104 C56.3348,351.2104 57.2388,350.3064 58.3818,349.1624 C59.6068,347.9364 61.1318,346.4104 64.0278,346.4104 C66.9228,346.4104 68.4468,347.9354 69.6728,349.1624 C70.8168,350.3054 71.7208,351.2104 73.6218,351.2104 C75.5288,351.2104 76.4338,350.3054 77.5788,349.1624 C78.8068,347.9354 80.3328,346.4104 83.2338,346.4104 C86.1318,346.4104 87.6598,347.9354 88.8868,349.1624 C90.0318,350.3054 90.9368,351.2104 92.8428,351.2104 C93.5048,351.2104 94.0428,351.7484 94.0428,352.4104 C94.0428,353.0724 93.5048,353.6104 92.8428,353.6104" id="Fill-1600" fill="#CDD1DF"></path>
            <path d="M92.8428,366.4102 C89.9448,366.4102 88.4158,364.8852 87.1898,363.6582 C86.0438,362.5142 85.1398,361.6102 83.2338,361.6102 C81.3268,361.6102 80.4208,362.5142 79.2758,363.6602 C78.0478,364.8852 76.5208,366.4102 73.6218,366.4102 C70.7258,366.4102 69.1998,364.8842 67.9758,363.6582 C66.8318,362.5142 65.9288,361.6102 64.0278,361.6102 C62.1258,361.6102 61.2228,362.5142 60.0788,363.6582 C58.8538,364.8852 57.3298,366.4102 54.4348,366.4102 C51.5398,366.4102 50.0168,364.8852 48.7908,363.6582 C47.6478,362.5142 46.7438,361.6102 44.8428,361.6102 C44.1808,361.6102 43.6428,361.0722 43.6428,360.4102 C43.6428,359.7482 44.1808,359.2102 44.8428,359.2102 C47.7388,359.2102 49.2628,360.7362 50.4888,361.9622 C51.6318,363.1072 52.5348,364.0102 54.4348,364.0102 C56.3348,364.0102 57.2388,363.1072 58.3818,361.9622 C59.6068,360.7362 61.1318,359.2102 64.0278,359.2102 C66.9228,359.2102 68.4468,360.7352 69.6728,361.9622 C70.8168,363.1052 71.7208,364.0102 73.6218,364.0102 C75.5288,364.0102 76.4338,363.1052 77.5788,361.9622 C78.8068,360.7352 80.3328,359.2102 83.2338,359.2102 C86.1318,359.2102 87.6598,360.7352 88.8868,361.9622 C90.0318,363.1052 90.9368,364.0102 92.8428,364.0102 C93.5048,364.0102 94.0428,364.5482 94.0428,365.2102 C94.0428,365.8732 93.5048,366.4102 92.8428,366.4102" id="Fill-1602" fill="#CDD1DF"></path>
            <path d="M345.8662,140.9077 C345.8662,142.6757 344.4332,144.1077 342.6662,144.1077 C340.8992,144.1077 339.4662,142.6757 339.4662,140.9077 C339.4662,139.1407 340.8992,137.7077 342.6662,137.7077 C344.4332,137.7077 345.8662,139.1407 345.8662,140.9077" id="Fill-1604" fill="#CDD1DF"></path>
            <path d="M377.8662,140.9077 C377.8662,142.6757 376.4332,144.1077 374.6662,144.1077 C372.8992,144.1077 371.4662,142.6757 371.4662,140.9077 C371.4662,139.1407 372.8992,137.7077 374.6662,137.7077 C376.4332,137.7077 377.8662,139.1407 377.8662,140.9077" id="Fill-1606" fill="#CDD1DF"></path>
            <path d="M409.8662,140.9077 C409.8662,142.6757 408.4332,144.1077 406.6662,144.1077 C404.8992,144.1077 403.4662,142.6757 403.4662,140.9077 C403.4662,139.1407 404.8992,137.7077 406.6662,137.7077 C408.4332,137.7077 409.8662,139.1407 409.8662,140.9077" id="Fill-1608" fill="#CDD1DF"></path>
            <path d="M441.8662,140.9077 C441.8662,142.6757 440.4332,144.1077 438.6662,144.1077 C436.8992,144.1077 435.4662,142.6757 435.4662,140.9077 C435.4662,139.1407 436.8992,137.7077 438.6662,137.7077 C440.4332,137.7077 441.8662,139.1407 441.8662,140.9077" id="Fill-1610" fill="#CDD1DF"></path>
            <path d="M347.4658,172.9077 C347.4658,175.5587 345.3178,177.7077 342.6658,177.7077 C340.0158,177.7077 337.8658,175.5587 337.8658,172.9077 C337.8658,170.2567 340.0158,168.1077 342.6658,168.1077 C345.3178,168.1077 347.4658,170.2567 347.4658,172.9077" id="Fill-1612" fill="#CDD1DF"></path>
            <path d="M379.4658,172.9077 C379.4658,175.5587 377.3178,177.7077 374.6658,177.7077 C372.0158,177.7077 369.8658,175.5587 369.8658,172.9077 C369.8658,170.2567 372.0158,168.1077 374.6658,168.1077 C377.3178,168.1077 379.4658,170.2567 379.4658,172.9077" id="Fill-1614" fill="#CDD1DF"></path>
            <path d="M409.8662,172.9077 C409.8662,174.6757 408.4332,176.1077 406.6662,176.1077 C404.8992,176.1077 403.4662,174.6757 403.4662,172.9077 C403.4662,171.1407 404.8992,169.7077 406.6662,169.7077 C408.4332,169.7077 409.8662,171.1407 409.8662,172.9077" id="Fill-1616" fill="#CDD1DF"></path>
            <path d="M441.8662,172.9077 C441.8662,174.6757 440.4332,176.1077 438.6662,176.1077 C436.8992,176.1077 435.4662,174.6757 435.4662,172.9077 C435.4662,171.1407 436.8992,169.7077 438.6662,169.7077 C440.4332,169.7077 441.8662,171.1407 441.8662,172.9077" id="Fill-1618" fill="#CDD1DF"></path>
            <path d="M347.4658,204.9077 C347.4658,207.5587 345.3178,209.7077 342.6658,209.7077 C340.0158,209.7077 337.8658,207.5587 337.8658,204.9077 C337.8658,202.2567 340.0158,200.1077 342.6658,200.1077 C345.3178,200.1077 347.4658,202.2567 347.4658,204.9077" id="Fill-1620" fill="#CDD1DF"></path>
            <path d="M379.4658,204.9077 C379.4658,207.5587 377.3178,209.7077 374.6658,209.7077 C372.0158,209.7077 369.8658,207.5587 369.8658,204.9077 C369.8658,202.2567 372.0158,200.1077 374.6658,200.1077 C377.3178,200.1077 379.4658,202.2567 379.4658,204.9077" id="Fill-1622" fill="#CDD1DF"></path>
            <path d="M411.4658,204.9077 C411.4658,207.5587 409.3178,209.7077 406.6658,209.7077 C404.0158,209.7077 401.8658,207.5587 401.8658,204.9077 C401.8658,202.2567 404.0158,200.1077 406.6658,200.1077 C409.3178,200.1077 411.4658,202.2567 411.4658,204.9077" id="Fill-1624" fill="#CDD1DF"></path>
            <path d="M441.8662,204.9077 C441.8662,206.6757 440.4332,208.1077 438.6662,208.1077 C436.8992,208.1077 435.4662,206.6757 435.4662,204.9077 C435.4662,203.1407 436.8992,201.7077 438.6662,201.7077 C440.4332,201.7077 441.8662,203.1407 441.8662,204.9077" id="Fill-1626" fill="#CDD1DF"></path>
            <path d="M347.4658,236.9077 C347.4658,239.5587 345.3178,241.7077 342.6658,241.7077 C340.0158,241.7077 337.8658,239.5587 337.8658,236.9077 C337.8658,234.2567 340.0158,232.1077 342.6658,232.1077 C345.3178,232.1077 347.4658,234.2567 347.4658,236.9077" id="Fill-1628" fill="#CDD1DF"></path>
            <path d="M379.4658,236.9077 C379.4658,239.5587 377.3178,241.7077 374.6658,241.7077 C372.0158,241.7077 369.8658,239.5587 369.8658,236.9077 C369.8658,234.2567 372.0158,232.1077 374.6658,232.1077 C377.3178,232.1077 379.4658,234.2567 379.4658,236.9077" id="Fill-1630" fill="#CDD1DF"></path>
            <path d="M411.4658,236.9077 C411.4658,239.5587 409.3178,241.7077 406.6658,241.7077 C404.0158,241.7077 401.8658,239.5587 401.8658,236.9077 C401.8658,234.2567 404.0158,232.1077 406.6658,232.1077 C409.3178,232.1077 411.4658,234.2567 411.4658,236.9077" id="Fill-1632" fill="#CDD1DF"></path>
            <path d="M441.8662,236.9077 C441.8662,238.6757 440.4332,240.1077 438.6662,240.1077 C436.8992,240.1077 435.4662,238.6757 435.4662,236.9077 C435.4662,235.1407 436.8992,233.7077 438.6662,233.7077 C440.4332,233.7077 441.8662,235.1407 441.8662,236.9077" id="Fill-1634" fill="#CDD1DF"></path>
            <path d="M44.7529,432.7676 C44.7769,432.4666 44.8429,432.1776 44.8429,431.8716 L44.8429,426.9226 C39.4309,425.4506 32.9849,422.9476 27.2439,418.6856 C20.4669,413.6546 16.3949,405.2736 14.0179,398.2706 L11.2429,398.2706 C5.0579,398.2706 0.0429,403.2856 0.0429,409.4706 L0.0429,421.4346 C7.0439,421.0636 25.6019,421.4146 44.7529,432.7676" id="Fill-1636" fill="#CDD1DF"></path>
            <path d="M27.9131,417.7861 C33.4261,421.8781 39.6071,424.3171 44.8431,425.7691 L44.8431,409.4711 C44.8431,403.2851 39.8291,398.2701 33.6431,398.2701 L15.2421,398.2701 C17.6001,405.0621 21.5491,413.0621 27.9131,417.7861" id="Fill-1638" fill="#CDD1DF"></path>
            <path d="M30.6973,436.3936 C24.7343,436.9436 21.0053,440.4396 19.0053,443.0716 L33.6433,443.0716 C36.9733,443.0716 39.9313,441.5886 41.9833,439.2816 C39.1853,437.5256 35.3233,435.9656 30.6973,436.3936" id="Fill-1640" fill="#CDD1DF"></path>
            <path d="M30.5947,435.2783 C35.6317,434.8093 39.7687,436.4983 42.7237,438.3833 C43.6477,437.0983 44.3157,435.6233 44.6277,434.0103 C25.5057,422.5063 6.9037,422.1773 0.0427,422.5513 L0.0427,431.8713 C0.0427,438.0563 5.0577,443.0713 11.2427,443.0713 L17.6297,443.0713 C19.6227,440.2193 23.7177,435.9113 30.5947,435.2783" id="Fill-1642" fill="#CDD1DF"></path>
            <path d="M447.5566,318.6006 L447.5566,299.4006 C466.9656,299.4006 482.7566,283.6106 482.7566,264.2006 L501.9566,264.2006 C501.9566,294.1976 477.5536,318.6006 447.5566,318.6006" id="Fill-1644" fill="#CDD1DF"></path>
            <polygon id="Fill-1646" fill="#CDD1DF" points="403.4658 484.5361 395.4658 492.5361 387.4658 484.5361 395.4658 476.5361"></polygon>
            <polygon id="Fill-1648" fill="#CDD1DF" points="30.4434 152.1406 22.4434 160.1406 14.4434 152.1406 22.4434 144.1406"></polygon>
            <path d="M464.3975,467.0186 C464.3975,467.0186 464.4055,472.4576 469.6685,473.5306 C474.9965,474.6156 479.2385,468.9926 479.5345,458.7326 C479.8305,448.4726 477.0675,440.7776 477.0675,440.7776 L455.4625,437.8186 L452.7005,463.7636 C452.7005,463.7636 452.8975,469.1896 457.9285,470.3726 C462.9605,471.5576 464.3975,467.0186 464.3975,467.0186" id="Fill-1650" fill="#F99175"></path>
            <path d="M464.3994,467.8184 C464.3614,467.8184 464.3244,467.8144 464.2864,467.8104 C463.8484,467.7494 463.5444,467.3444 463.6054,466.9074 C465.2854,454.9254 459.2254,440.3274 459.1654,440.1804 C458.9934,439.7744 459.1844,439.3054 459.5924,439.1334 C459.9964,438.9664 460.4694,439.1554 460.6394,439.5604 C460.8974,440.1724 466.9314,454.7054 465.1894,467.1294 C465.1334,467.5294 464.7914,467.8184 464.3994,467.8184" id="Fill-1652" fill="#1D213A"></path>
            <path d="M211.6934,158.8682 L224.5164,91.5472 L276.8024,94.5072 L276.8024,163.4282 C276.8024,163.4282 270.2724,172.9052 252.9284,173.7342 C226.2934,175.0082 211.6934,158.8682 211.6934,158.8682" id="Fill-1654" fill="#FFC4A3"></path>
            <path d="M307.2539,61.8857 C295.7439,63.3327 294.7579,46.7597 288.4439,35.7097 C282.1299,24.6607 264.3729,16.9007 255.1199,19.1257 C247.9869,20.8427 245.6289,29.3967 245.6289,29.3967 C245.6289,29.3967 236.5549,20.5837 226.2939,28.4757 C214.0499,37.8947 212.8769,69.3977 201.5379,66.1587 C201.5379,66.1587 199.0659,85.5727 218.3999,86.6147 L307.2539,61.8857 Z" id="Fill-1656" fill="#1D213A"></path>
            <path d="M484.668,474.8096 C476.177,474.3046 476.618,459.0256 476.618,459.0256 L460.897,442.9566 L456.036,453.5956 C456.036,453.5956 460.992,461.5816 461.844,470.9906 C462.57,478.9766 453.384,481.7236 448.554,473.0416 C442.776,462.6556 438.483,456.3726 431.886,447.6926 C427.118,441.4106 426.739,430.8976 426.739,430.8976 C426.739,430.8976 390.594,408.3576 358.488,383.3866 C360.382,374.3896 364.991,362.0456 376.104,352.0706 C387.058,342.2836 399.527,339.6316 409.062,339.3786 C416.953,348.8496 425.571,359.4256 433.938,370.0646 C459.981,403.2116 486.878,442.8626 489.688,454.0056 C492.719,465.9706 491.961,475.2516 484.668,474.8096" id="Fill-1658" fill="#FFC4A3"></path>
            <path d="M409.0615,339.3789 C399.5275,339.6319 387.0575,342.2829 376.1035,352.0699 C364.9915,362.0459 360.3815,374.3899 358.4885,383.3869 C366.2755,389.4429 374.2975,395.3539 381.9875,400.8369 C381.9755,400.6459 381.1745,386.8289 390.0565,372.8529 C399.9625,357.2659 421.2305,354.1919 421.2305,354.1919 L421.2455,354.1899 C417.0835,349.0659 412.9825,344.0849 409.0615,339.3789" id="Fill-1660" fill="#F99175"></path>
            <path d="M379.2246,304.3047 C347.2606,221.8317 327.5106,171.8507 313.3906,169.3277 C313.3906,169.3277 306.2016,206.5757 309.7526,259.5857 C314.1396,325.0627 328.8916,358.1067 328.8916,358.1067 C341.0656,370.0157 357.4626,382.9717 373.3526,394.6127 C373.3506,394.5827 372.8916,373.3787 387.6896,362.1327 C402.9746,350.5157 421.2286,354.1917 421.2306,354.1927 C399.3706,327.2427 379.2246,304.3047 379.2246,304.3047" id="Fill-1662" fill="#D3D6E2"></path>
            <path d="M324.9453,365.21 C324.9453,365.21 338.5593,440.186 346.0563,526.606 L128.2323,526.606 C142.9643,434.004 166.3113,365.21 166.3113,365.21 L324.9453,365.21 Z" id="Fill-1664" fill="#1D213A"></path>
            <path d="M313.3906,169.3276 C313.3906,169.3276 316.8556,300.0986 343.2666,396.3206 C343.2666,396.3206 318.8286,411.8726 252.5346,411.774071 C183.4596,411.6706 145.4546,387.1766 145.4546,387.1766 C176.1526,280.7976 177.1636,159.6176 177.1636,159.6176 C177.1636,159.6176 212.3506,157.3406 250.1666,160.6046 C289.0366,163.9586 313.3906,169.3276 313.3906,169.3276" id="Fill-1666" fill="#D3D6E2"></path>
            <path d="M335.5283,365.1318 C335.1583,365.1318 334.8273,364.8738 334.7463,364.4988 C324.0283,314.2668 318.4263,259.8698 315.6163,223.0818 C315.5833,222.6418 315.9133,222.2568 316.3533,222.2228 C316.7443,222.1818 317.1783,222.5178 317.2133,222.9598 C320.0193,259.6988 325.6113,314.0178 336.3113,364.1648 C336.4033,364.5978 336.1273,365.0228 335.6963,365.1148 C335.6393,365.1258 335.5833,365.1318 335.5283,365.1318" id="Fill-1668" fill="#1D213A"></path>
            <path d="M241.0928,527.3945 C241.0538,527.3945 241.0148,527.3915 240.9758,527.3865 C240.5438,527.3225 240.2468,526.9205 240.3098,526.4905 L248.2158,472.8685 C248.2598,472.5775 248.4618,472.3335 248.7388,472.2365 C248.9448,472.1655 269.2668,464.9985 276.2748,448.5585 C276.4448,448.1575 276.9068,447.9725 277.3098,448.1415 C277.7118,448.3135 277.8978,448.7755 277.7278,449.1775 C270.9468,465.0765 252.8948,472.3835 249.7098,473.5665 L241.8718,526.7205 C241.8148,527.1135 241.4778,527.3945 241.0928,527.3945" id="Fill-1670" fill="#E8EAEF"></path>
            <path d="M177.1641,159.6177 C161.9051,160.4077 151.7111,171.0617 120.7341,210.1277 C92.3921,245.8727 68.8431,277.0147 68.8431,293.7847 C68.8431,310.3597 97.6601,333.2957 113.7131,327.4587 C129.8101,321.6057 182.2941,257.4807 196.6971,230.4507 L177.1641,159.6177 Z" id="Fill-1672" fill="#D3D6E2"></path>
            <path d="M262.1699,93.6787 L260.1849,136.0537 C260.1849,136.0537 265.8849,141.4797 276.8029,143.7157 L276.8029,94.5067 L262.1699,93.6787 Z" id="Fill-1674" fill="#F99175"></path>
            <path d="M168.6318,271.9258 C168.4578,271.9258 168.2848,271.8688 168.1378,271.7558 C167.7908,271.4838 167.7308,270.9808 168.0018,270.6318 C180.6928,254.4208 190.8948,239.6378 195.9908,230.0738 C196.1998,229.6838 196.6888,229.5378 197.0738,229.7448 C197.4628,229.9518 197.6108,230.4368 197.4028,230.8268 C192.2648,240.4698 182.0088,255.3368 169.2618,271.6188 C169.1038,271.8218 168.8688,271.9258 168.6318,271.9258" id="Fill-1676" fill="#1D213A"></path>
            <path d="M228.2656,49.7187 C228.2656,49.7187 241.1466,46.1677 260.3666,46.1677 C281.9326,46.1667 291.2056,56.5127 293.5746,81.5057 C295.9416,106.4977 290.5586,135.9207 263.7806,136.1387 C240.6966,136.3257 219.6506,123.4457 228.2656,49.7187" id="Fill-1678" fill="#FFC4A3"></path>
            <path d="M221.6904,79.9971 C221.6904,79.9971 237.8024,81.3531 239.9074,73.0661 C242.6874,62.1201 234.8424,47.9431 242.1424,41.4321 L224.7504,45.5611 L221.6904,79.9971 Z" id="Fill-1680" fill="#1D213A"></path>
            <path d="M258.4531,40.2676 C267.1801,40.2676 267.5811,55.6506 274.8301,66.0956 C280.9461,74.9086 298.5511,74.6716 307.2541,61.8856 C307.2541,61.8856 296.5891,65.2396 287.7401,52.9046 C275.0271,35.1846 258.4531,40.2676 258.4531,40.2676" id="Fill-1682" fill="#1D213A"></path>
            <path d="M276.8027,143.7158 L215.6637,138.0268 L211.6937,158.8678 C211.6937,158.8678 226.2927,175.0078 252.9287,173.7338 C270.2727,172.9038 276.8027,163.4278 276.8027,163.4278 L276.8027,143.7158 Z" id="Fill-1684" fill="#D3D6E2"></path>
            <path d="M238.5693,173.5068 C238.5173,173.5068 238.4653,173.5028 238.4133,173.4908 C220.8793,170.0318 211.4933,159.8368 211.1003,159.4038 C210.8053,159.0768 210.8303,158.5708 211.1573,158.2758 C211.4833,157.9818 211.9893,158.0038 212.2863,158.3308 C212.3803,158.4338 221.7363,168.5698 238.7223,171.9228 C239.1573,172.0068 239.4383,172.4288 239.3523,172.8618 C239.2773,173.2428 238.9423,173.5068 238.5693,173.5068" id="Fill-1686" fill="#1D213A"></path>
            <path d="M120.333,170.9282 C120.333,170.9282 128.161,215.4082 131.477,250.3552 C124.657,256.4162 112.156,264.4032 94.51,263.6772 C81.313,263.1092 71.527,257.5842 64.866,251.8702 C68.812,203.5382 80.209,129.7622 84.312,114.8932 C90.753,91.3432 94.825,81.9982 102.181,84.6502 C111.114,87.8392 103.885,116.2192 103.885,116.2192 C103.885,116.2192 110.072,115.6192 113.229,119.0922 C113.229,119.0922 109.946,108.9902 116.923,107.2542 C125.194,105.2332 130.34,122.6592 132.455,133.7082 C134.412,144.0952 135.075,164.6142 120.333,170.9282" id="Fill-1688" fill="#FFC4A3"></path>
            <path d="M129.8994,235.6777 C129.8294,235.7347 117.1364,245.8797 96.6644,243.1577 C78.1224,240.6917 67.2414,227.4037 67.2364,227.3967 C66.2984,235.9677 65.4894,244.2377 64.8664,251.8707 C71.5274,257.5847 81.3134,263.1097 94.5094,263.6777 C112.1564,264.4037 124.6574,256.4167 131.4764,250.3547 C131.0244,245.5947 130.4874,240.6557 129.8994,235.6777" id="Fill-1690" fill="#F99175"></path>
            <path d="M100.3467,330.6152 C123.8917,330.6152 133.4937,307.2022 132.9677,273.5282 C132.8067,263.2182 131.5587,249.6012 129.9067,235.6722 C129.9037,235.6772 118.5627,251.8392 96.8617,251.8392 C75.1937,251.8392 66.3987,235.7302 66.3687,235.6772 C64.6177,252.9152 63.4907,268.4102 63.5152924,279.1842 C63.6077,317.8792 78.1167,330.6152 100.3467,330.6152" id="Fill-1692" fill="#D3D6E2"></path>
            <path d="M132.9678,274.3291 C132.5318,274.3291 132.1738,273.9781 132.1678,273.5411 C132.0248,264.3681 130.9958,251.6601 129.1138,235.7661 C129.0598,235.3271 129.3738,234.9311 129.8138,234.8791 C130.2438,234.8181 130.6508,235.1401 130.6998,235.5791 C132.5908,251.5261 133.6238,264.2901 133.7678,273.5171 C133.7748,273.9591 133.4228,274.3221 132.9808,274.3291 L132.9678,274.3291 Z" id="Fill-1694" fill="#1D213A"></path>
            <path d="M231.2793,80.6348 C231.2793,80.6348 226.3783,73.9868 217.7103,76.8478 C208.0143,80.0488 208.5373,94.5068 216.5263,99.4398 C223.2093,103.5658 230.8313,101.9058 230.8313,101.9058 L231.2793,80.6348 Z" id="Fill-1696" fill="#FFC4A3"></path>
            <path d="M117.5098,141.754066 C117.0648,141.7629 116.6758,141.4049 116.6758,140.9509 C116.6768,140.5099 117.0348,140.1539 117.4758,140.1539 C117.4888,140.1549 117.4968,140.1539 117.5098,140.1539 C118.6108,140.1539 120.1068,139.9349 121.0538,138.9039 C121.8428,138.0449 122.1648,136.7329 122.0098,135.0069 C121.5408,129.7669 117.4008,122.9229 112.7778,119.7509 C112.4128,119.5009 112.3218,119.0029 112.5718,118.6379 C112.8218,118.2759 113.3198,118.1819 113.6838,118.4319 C118.7318,121.8979 123.0898,129.1149 123.6038,134.8629 C123.7988,137.0589 123.3378,138.7799 122.2318,139.9869 C121.1688,141.1429 119.5378,141.754066 117.5098,141.754066" id="Fill-1698" fill="#1D213A"></path>
            <path d="M111.7363,149.5586 C110.4853,149.5586 109.2523,149.2086 108.2463,148.5176 C104.1683,145.7146 102.1943,139.1896 102.1113,138.9126 C101.9863,138.4896 102.2273,138.0446 102.6503,137.9176 C103.0823,137.7946 103.5203,138.0356 103.6453,138.4566 C103.6653,138.5196 105.5433,144.7196 109.1523,147.1996 C110.5513,148.1616 112.5693,148.2226 114.1683,147.3446 C114.9913,146.8946 116.3603,145.8136 116.2853,143.6426 C116.1473,139.6006 114.0243,128.4666 105.9603,125.5256 C98.0303,122.6386 92.2493,125.4596 92.1913,125.4886 C91.7983,125.6836 91.3163,125.5286 91.1183,125.1356 C90.9183,124.7416 91.0743,124.2606 91.4673,124.0616 C91.7253,123.9286 97.8943,120.8806 106.5073,124.0226 C115.4033,127.2666 117.7363,139.2456 117.8843,143.5896 C117.9603,145.7996 116.8843,147.6806 114.9363,148.7476 C113.9493,149.2896 112.8353,149.5586 111.7363,149.5586" id="Fill-1700" fill="#1D213A"></path>
            <path d="M108.832,167.5352 C108.765,167.5352 108.697,167.5272 108.629,167.5092 C108.202,167.3972 107.946,166.9602 108.059,166.5322 C111.458,153.5572 105.025,145.0492 104.96,144.9652 C104.689,144.6162 104.752,144.1132 105.101,143.8432 C105.449,143.5692 105.949,143.6342 106.223,143.9822 C106.51,144.3502 113.215,153.1652 109.605,166.9382 C109.512,167.2982 109.188,167.5352 108.832,167.5352" id="Fill-1702" fill="#1D213A"></path>
            <path d="M94.4941,118.8662 C94.1771,118.8662 93.8771,118.6762 93.7521,118.3632 C93.5881,117.9542 93.7861,117.4882 94.1971,117.3242 C94.4031,117.2402 99.3041,115.3322 103.9081,115.4192 C104.3481,115.4322 104.6971,115.8012 104.6841,116.2432 C104.6731,116.6832 104.3431,117.0582 103.8611,117.0192 C99.6501,116.8892 94.8411,118.7912 94.7911,118.8082 C94.6941,118.8472 94.5931,118.8662 94.4941,118.8662" id="Fill-1704" fill="#1D213A"></path>
            <path d="M456.0225,454.4023 C455.7465,454.4023 455.4755,454.2583 455.3295,453.9993 L450.9225,446.3033 C450.7025,445.9213 450.8355,445.4313 451.2195,445.2133 C451.5955,444.9933 452.0905,445.1233 452.3095,445.5093 L456.7155,453.2053 C456.9365,453.5883 456.8035,454.0773 456.4185,454.2963 C456.2935,454.3683 456.1585,454.4023 456.0225,454.4023" id="Fill-1706" fill="#1D213A"></path>
            <path d="M226.8848,88.876 C226.5748,88.876 226.2808,88.694 226.1508,88.393 C223.6968,82.698 218.1378,83.965 217.8998,84.018 C217.4788,84.124 217.0398,83.86 216.9338,83.431 C216.8298,83.002 217.0908,82.569 217.5198,82.465 C217.5898,82.448 224.6268,80.806 227.6188,87.759 C227.7938,88.165 227.6068,88.635 227.2018,88.81 C227.0988,88.855 226.9908,88.876 226.8848,88.876" id="Fill-1708" fill="#1D213A"></path>
            <path d="M240.5986,79.7007 C240.3686,79.7007 240.1376,79.6007 239.9806,79.4087 C239.7006,79.0677 239.7506,78.5637 240.0896,78.2827 C240.3136,78.0977 245.5326,73.6527 242.6026,65.0507 C237.8616,51.1207 237.5786,43.1697 241.7396,40.7417 C242.1196,40.5167 242.6116,40.6457 242.8326,41.0287 C243.0566,41.4097 242.9266,41.9007 242.5456,42.1227 C240.2396,43.4677 238.6416,48.4497 244.1186,64.5347 C247.4156,74.2227 241.3636,79.3087 241.1036,79.5207 C240.9546,79.6417 240.7776,79.7007 240.5986,79.7007" id="Fill-1710" fill="#1D213A"></path>
            <path d="M306.958,59.4819 C299.794,59.4819 297.191,52.6769 294.435,45.4789 C293.361,42.6729 292.251,39.7699 290.832,37.1569 C285.851,27.9809 273.736,21.4089 260.685,20.8039 C260.244,20.7839 259.902,20.4099 259.924,19.9679 C259.944,19.5269 260.34,19.1839 260.76,19.2069 C274.349,19.8349 286.999,26.7429 292.238,36.3949 C293.707,39.0989 294.837,42.0519 295.931,44.9069 C298.591,51.8619 300.897,57.8799 306.974,57.8799 C307.066,57.8789 307.176,57.8709 307.254,57.8779 C307.687,57.8779 308.041,58.2209 308.054301,58.6549 C308.066,59.0979 307.718,59.4649 307.275,59.4779 C307.169,59.4809 307.063,59.4819 306.958,59.4819" id="Fill-1712" fill="#1D213A"></path>
            <path d="M201.4336,64.1133 C201.0326,64.1133 200.6846,63.8103 200.6396,63.4023 C200.5906,62.9623 200.9076,62.5663 201.3456,62.5183 C205.9576,62.0053 209.6926,54.6733 213.6446,46.9083 C217.5246,39.2863 221.5356,31.4073 227.1036,28.4723 C227.4946,28.2683 227.9786,28.4153 228.1846,28.8073 C228.3916,29.1993 228.2416,29.6823 227.8506,29.8883 C222.7306,32.5853 218.8366,40.2353 215.0716,47.6343 C210.9156,55.7943 206.9936,63.5013 201.5246,64.1083 C201.4936,64.1123 201.4626,64.1133 201.4336,64.1133" id="Fill-1714" fill="#1D213A"></path>
            <path d="M284.2676,78.3091 C284.2676,79.7471 285.4336,80.9131 286.8716,80.9131 C288.3106,80.9131 289.4766,79.7471 289.4766,78.3091 C289.4766,76.8711 288.3106,75.7051 286.8716,75.7051 C285.4336,75.7051 284.2676,76.8711 284.2676,78.3091" id="Fill-1716" fill="#1D213A"></path>
            <path d="M251.7402,81.5054 C251.7402,82.9434 252.9062,84.1094 254.3442,84.1094 C255.7832,84.1094 256.9492,82.9434 256.9492,81.5054 C256.9492,80.0674 255.7832,78.9014 254.3442,78.9014 C252.9062,78.9014 251.7402,80.0674 251.7402,81.5054" id="Fill-1718" fill="#1D213A"></path>
            <path d="M242.5459,70.7749 C243.8409,72.1019 246.9949,70.9479 250.3699,70.1219 C253.7059,69.1499 257.0139,68.5729 257.4719,66.7749 C257.9969,65.0319 253.8429,62.1739 248.6129,63.5659 C243.3889,64.9749 241.2199,69.5269 242.5459,70.7749" id="Fill-1720" fill="#1D213A"></path>
            <path d="M276.1055,96.6587 C275.2115,96.6587 274.2825,96.4777 273.3615,96.0537 C272.9595,95.8697 272.7855,95.3947 272.9695,94.9927 C273.1535,94.5917 273.6265,94.4167 274.0305,94.6007 C276.2305,95.6117 278.6735,94.7777 279.9555,93.4337 C280.4205,92.9427 281.4205,91.6417 280.6315,90.1207 C280.3555,89.5887 279.9675,89.2587 279.4495,89.1107 C278.1475,88.7397 276.2855,89.5887 275.6835,89.9477 C275.4695,90.0747 275.2085,90.0947 274.9785,90.0037 C274.7495,89.9117 274.5725,89.7197 274.5045,89.4807 L272.2865,81.7257 C272.1655,81.3007 272.4105,80.8587 272.8345,80.7367 C273.2625,80.6087 273.7045,80.8607 273.8245,81.2847 L275.7785,88.1167 C276.7775,87.6837 278.4235,87.1577 279.8875,87.5717 C280.8395,87.8427 281.5675,88.4517 282.0505,89.3837 C282.9285,91.0747 282.5775,93.0007 281.1135,94.5367 C279.9865,95.7177 278.1375,96.6587 276.1055,96.6587" id="Fill-1722" fill="#F99175"></path>
            <path d="M268.2012,103.646 C272.9812,104.288 275.2602,101.097 277.6802,103.754 C280.4892,106.836 275.4102,115.087 267.1762,113.351 C260.1262,111.864 258.2782,103.659 261.3892,102.236 C263.7592,101.151 265.1902,103.242 268.2012,103.646" id="Fill-1724" fill="#1D213A"></path>
            <path d="M272.3809,113.0815 C270.8549,113.5815 269.1119,113.7595 267.1759,113.3505 C262.7589,112.4195 260.3879,108.8525 259.9939,105.9665 C260.8439,105.6755 261.7289,105.4595 262.6719,105.4195 C267.4269,105.2225 271.4799,108.5555 272.3809,113.0815" id="Fill-1726" fill="#FF5A5A"></path>
            <path d="M259.8105,106.2119 C259.4985,104.3539 259.9465,102.7279 261.1875,102.1599 C263.6185,101.0469 265.0865,103.1919 268.1755,103.6069 C273.0805,104.2649 275.4165,100.9919 277.9005,103.7169 C278.6215,104.5089 278.8345,105.6319 278.6195,106.8439 C276.5965,107.8419 273.7935,108.7269 270.0785,108.6559 C265.5335,108.5679 262.0685,107.3299 259.8105,106.2119" id="Fill-1728" fill="#E8EAEF"></path>
            <path d="M151.6113,72.0459 L148.4543,72.0459 C146.7113,72.0459 145.2983,70.6329 145.2983,68.8889 L145.2983,65.7329 L154.7683,65.7329 L154.7683,68.8889 C154.7683,70.6329 153.3543,72.0459 151.6113,72.0459" id="Fill-1730" fill="#848CAE"></path>
            <path d="M153.9795,69.6782 L146.0865,69.6782 C144.3435,69.6782 142.9295,68.2652 142.9295,66.5212 L142.9295,50.7372 L157.1355,50.7372 L157.1355,66.5212 C157.1355,68.2652 155.7225,69.6782 153.9795,69.6782" id="Fill-1732" fill="#E8EAEF"></path>
            <path d="M165.8174,34.9526 C165.8174,24.4916 158.7504,16.0116 150.0334,16.0116 C141.3154,16.0116 134.2484,24.4916 134.2484,34.9526 C134.2484,39.8286 135.7914,44.2636 138.3154,47.6156 C139.6934,49.4456 140.5624,51.6036 140.5624,53.8936 C140.5624,55.6376 141.9754,57.0506 143.7184,57.0506 L156.3464,57.0506 C158.0894,57.0506 159.5044,55.6376 159.5044,53.8936 L159.5044,53.8936 C159.5044,51.6036 160.3724,49.4456 161.7504,47.6156 C164.2754,44.2636 165.8174,39.8276 165.8174,34.9526" id="Fill-1734" fill="#1D213A"></path>
            <path d="M157.2148,66.2163 L142.8508,66.2163 C142.4078,66.2163 142.0508,65.8583 142.0508,65.4163 C142.0508,64.9743 142.4078,64.6163 142.8508,64.6163 L157.2148,64.6163 C157.6568,64.6163 158.0148,64.9743 158.0148,65.4163 C158.0148,65.8583 157.6568,66.2163 157.2148,66.2163" id="Fill-1736" fill="#848CAE"></path>
            <path d="M157.2148,61.0068 L142.8508,61.0068 C142.4078,61.0068 142.0508,60.6498 142.0508,60.2068 C142.0508,59.7648 142.4078,59.4068 142.8508,59.4068 L157.2148,59.4068 C157.6568,59.4068 158.0148,59.7648 158.0148,60.2068 C158.0148,60.6498 157.6568,61.0068 157.2148,61.0068" id="Fill-1738" fill="#848CAE"></path>
            <polygon id="Fill-1740" fill="#848CAE" points="153.5957 57.0508 151.9957 57.0508 151.9957 45.2228 148.0717 45.2228 148.0717 57.0508 146.4707 57.0508 146.4707 43.6228 153.5957 43.6228"></polygon>
            <path d="M144.9033,40.4883 C144.0383,40.4883 143.3353,41.1913 143.3353,42.0553 C143.3353,42.9193 144.0383,43.6223 144.9033,43.6223 L146.4703,43.6223 L146.4703,42.0553 C146.4703,41.1913 145.7673,40.4883 144.9033,40.4883 L144.9033,40.4883 Z M148.0713,45.2223 L144.9033,45.2223 C143.1573,45.2223 141.7353,43.8023 141.7353,42.0553 C141.7353,40.3083 143.1573,38.8883 144.9033,38.8883 C146.6503,38.8883 148.0713,40.3083 148.0713,42.0553 L148.0713,45.2223 Z" id="Fill-1742" fill="#848CAE"></path>
            <path d="M153.5957,43.6226 L155.1627,43.6226 C156.0277,43.6226 156.7307,42.9196 156.7307,42.0556 C156.7307,41.1916 156.0277,40.4886 155.1627,40.4886 C154.2987,40.4886 153.5957,41.1916 153.5957,42.0556 L153.5957,43.6226 Z M155.1627,45.2226 L151.9957,45.2226 L151.9957,42.0556 C151.9957,40.3086 153.4157,38.8886 155.1627,38.8886 C156.9097,38.8886 158.3297,40.3086 158.3297,42.0556 C158.3297,43.8026 156.9097,45.2226 155.1627,45.2226 L155.1627,45.2226 Z" id="Fill-1744" fill="#848CAE"></path>
            <path d="M159.8984,25.7466 C159.8984,28.3616 157.7784,30.4816 155.1634,30.4816 C152.5474,30.4816 150.4274,28.3616 150.4274,25.7466 C150.4274,23.1316 152.5474,21.0116 155.1634,21.0116 C157.7784,21.0116 159.8984,23.1316 159.8984,25.7466" id="Fill-1746" fill="#E8EAEF"></path>
            <path d="M162.2656,33.2441 C162.2656,34.5521 161.2056,35.6121 159.8986,35.6121 C158.5906,35.6121 157.5306,34.5521 157.5306,33.2441 C157.5306,31.9361 158.5906,30.8761 159.8986,30.8761 C161.2056,30.8761 162.2656,31.9361 162.2656,33.2441" id="Fill-1748" fill="#E8EAEF"></path>
            <path d="M150.0332,9.3193 C149.3712,9.3193 148.8332,8.7823 148.8332,8.1193 L148.8332,1.8053 C148.8332,1.1433 149.3712,0.6053 150.0332,0.6053 C150.6962,0.6053 151.2332,1.1433 151.2332,1.8053 L151.2332,8.1193 C151.2332,8.7823 150.6962,9.3193 150.0332,9.3193" id="Fill-1750" fill="#1D213A"></path>
            <path d="M165.4229,15.751 C165.1849,15.751 164.9459,15.681 164.7359,15.534 C164.1929,15.154 164.0619,14.405 164.4419,13.862 L168.0639,8.69 C168.4429,8.147 169.1869,8.015 169.7349,8.396 C170.2769,8.776 170.4079,9.524 170.0279,10.068 L166.4069,15.24 C166.1739,15.573 165.8009,15.751 165.4229,15.751" id="Fill-1752" fill="#1D213A"></path>
            <path d="M134.6426,15.751 C134.2646,15.751 133.8916,15.573 133.6586,15.238 L130.0386,10.066 C129.6586,9.524 129.7896,8.776 130.3326,8.396 C130.8766,8.017 131.6256,8.147 132.0036,8.691 L135.6236,13.863 C136.0036,14.405 135.8716,15.154 135.3296,15.534 C135.1196,15.681 134.8796,15.751 134.6426,15.751" id="Fill-1754" fill="#1D213A"></path>
        </g>
    </g>
</svg>