<?xml version="1.0" encoding="UTF-8"?>
<svg width="513px" height="483px" viewBox="0 0 513 483" version="1.1" xmlns="http://www.w3.org/2000/svg" xmlns:xlink="http://www.w3.org/1999/xlink">
    <title>Illustration 1 0</title>
    <g id="🤩-Illustrations" stroke="none" stroke-width="1" fill="none" fill-rule="evenodd">
        <g id="Illustration-1">
            <path d="M82.5825,129.7163 C82.5825,132.3673 80.4335,134.5163 77.7825,134.5163 C75.1315,134.5163 72.9825,132.3673 72.9825,129.7163 C72.9825,127.0653 75.1315,124.9163 77.7825,124.9163 C80.4335,124.9163 82.5825,127.0653 82.5825,129.7163" id="Fill-2" fill="#CDD1DF"></path>
            <path d="M114.5825,129.7163 C114.5825,132.3673 112.4335,134.5163 109.7825,134.5163 C107.1315,134.5163 104.9825,132.3673 104.9825,129.7163 C104.9825,127.0653 107.1315,124.9163 109.7825,124.9163 C112.4335,124.9163 114.5825,127.0653 114.5825,129.7163" id="Fill-4" fill="#CDD1DF"></path>
            <path d="M146.5825,129.7163 C146.5825,132.3673 144.4335,134.5163 141.7825,134.5163 C139.1315,134.5163 136.9825,132.3673 136.9825,129.7163 C136.9825,127.0653 139.1315,124.9163 141.7825,124.9163 C144.4335,124.9163 146.5825,127.0653 146.5825,129.7163" id="Fill-6" fill="#CDD1DF"></path>
            <path d="M176.9824,129.7163 C176.9824,131.4843 175.5494,132.9163 173.7824,132.9163 C172.0154,132.9163 170.5824,131.4843 170.5824,129.7163 C170.5824,127.9493 172.0154,126.5163 173.7824,126.5163 C175.5494,126.5163 176.9824,127.9493 176.9824,129.7163" id="Fill-8" fill="#CDD1DF"></path>
            <path d="M82.5825,161.7163 C82.5825,164.3673 80.4335,166.5163 77.7825,166.5163 C75.1315,166.5163 72.9825,164.3673 72.9825,161.7163 C72.9825,159.0653 75.1315,156.9163 77.7825,156.9163 C80.4335,156.9163 82.5825,159.0653 82.5825,161.7163" id="Fill-10" fill="#CDD1DF"></path>
            <path d="M114.5825,161.7163 C114.5825,164.3673 112.4335,166.5163 109.7825,166.5163 C107.1315,166.5163 104.9825,164.3673 104.9825,161.7163 C104.9825,159.0653 107.1315,156.9163 109.7825,156.9163 C112.4335,156.9163 114.5825,159.0653 114.5825,161.7163" id="Fill-12" fill="#CDD1DF"></path>
            <path d="M146.5825,161.7163 C146.5825,164.3673 144.4335,166.5163 141.7825,166.5163 C139.1315,166.5163 136.9825,164.3673 136.9825,161.7163 C136.9825,159.0653 139.1315,156.9163 141.7825,156.9163 C144.4335,156.9163 146.5825,159.0653 146.5825,161.7163" id="Fill-14" fill="#CDD1DF"></path>
            <path d="M176.9824,161.7163 C176.9824,163.4843 175.5494,164.9163 173.7824,164.9163 C172.0154,164.9163 170.5824,163.4843 170.5824,161.7163 C170.5824,159.9493 172.0154,158.5163 173.7824,158.5163 C175.5494,158.5163 176.9824,159.9493 176.9824,161.7163" id="Fill-16" fill="#CDD1DF"></path>
            <path d="M82.5825,193.7163 C82.5825,196.3673 80.4335,198.5163 77.7825,198.5163 C75.1315,198.5163 72.9825,196.3673 72.9825,193.7163 C72.9825,191.0653 75.1315,188.9163 77.7825,188.9163 C80.4335,188.9163 82.5825,191.0653 82.5825,193.7163" id="Fill-18" fill="#CDD1DF"></path>
            <path d="M114.5825,193.7163 C114.5825,196.3673 112.4335,198.5163 109.7825,198.5163 C107.1315,198.5163 104.9825,196.3673 104.9825,193.7163 C104.9825,191.0653 107.1315,188.9163 109.7825,188.9163 C112.4335,188.9163 114.5825,191.0653 114.5825,193.7163" id="Fill-20" fill="#CDD1DF"></path>
            <path d="M144.9824,193.7163 C144.9824,195.4843 143.5494,196.9163 141.7824,196.9163 C140.0154,196.9163 138.5824,195.4843 138.5824,193.7163 C138.5824,191.9493 140.0154,190.5163 141.7824,190.5163 C143.5494,190.5163 144.9824,191.9493 144.9824,193.7163" id="Fill-22" fill="#CDD1DF"></path>
            <path d="M176.9824,193.7163 C176.9824,195.4843 175.5494,196.9163 173.7824,196.9163 C172.0154,196.9163 170.5824,195.4843 170.5824,193.7163 C170.5824,191.9493 172.0154,190.5163 173.7824,190.5163 C175.5494,190.5163 176.9824,191.9493 176.9824,193.7163" id="Fill-24" fill="#CDD1DF"></path>
            <path d="M80.9824,225.7163 C80.9824,227.4843 79.5494,228.9163 77.7824,228.9163 C76.0154,228.9163 74.5824,227.4843 74.5824,225.7163 C74.5824,223.9493 76.0154,222.5163 77.7824,222.5163 C79.5494,222.5163 80.9824,223.9493 80.9824,225.7163" id="Fill-26" fill="#CDD1DF"></path>
            <path d="M112.9824,225.7163 C112.9824,227.4843 111.5494,228.9163 109.7824,228.9163 C108.0154,228.9163 106.5824,227.4843 106.5824,225.7163 C106.5824,223.9493 108.0154,222.5163 109.7824,222.5163 C111.5494,222.5163 112.9824,223.9493 112.9824,225.7163" id="Fill-28" fill="#CDD1DF"></path>
            <path d="M144.9824,225.7163 C144.9824,227.4843 143.5494,228.9163 141.7824,228.9163 C140.0154,228.9163 138.5824,227.4843 138.5824,225.7163 C138.5824,223.9493 140.0154,222.5163 141.7824,222.5163 C143.5494,222.5163 144.9824,223.9493 144.9824,225.7163" id="Fill-30" fill="#CDD1DF"></path>
            <path d="M176.9824,225.7163 C176.9824,227.4843 175.5494,228.9163 173.7824,228.9163 C172.0154,228.9163 170.5824,227.4843 170.5824,225.7163 C170.5824,223.9493 172.0154,222.5163 173.7824,222.5163 C175.5494,222.5163 176.9824,223.9493 176.9824,225.7163" id="Fill-32" fill="#CDD1DF"></path>
            <path d="M510.8711,224.8442 C507.9731,224.8442 506.4461,223.3192 505.2181,222.0932 C504.0731,220.9482 503.1661,220.0442 501.2601,220.0442 C499.3541,220.0442 498.4491,220.9482 497.3041,222.0932 C496.0781,223.3192 494.5491,224.8442 491.6511,224.8442 C488.7541,224.8442 487.2291,223.3182 486.0041,222.0922 C484.8601,220.9482 483.9571,220.0442 482.0561,220.0442 C480.1541,220.0442 479.2511,220.9482 478.1071,222.0922 C476.8821,223.3182 475.3591,224.8442 472.4631,224.8442 C469.5681,224.8442 468.0431,223.3182 466.8181,222.0922 C465.6741,220.9482 464.7711,220.0442 462.8711,220.0442 C462.2091,220.0442 461.6711,219.5062 461.6711,218.8442 C461.6711,218.1812 462.2091,217.6442 462.8711,217.6442 C465.7671,217.6442 467.2901,219.1702 468.5151,220.3952 C469.6591,221.5402 470.5621,222.4442 472.4631,222.4442 C474.3631,222.4442 475.2671,221.5402 476.4101,220.3962 C477.6351,219.1702 479.1601,217.6442 482.0561,217.6442 C484.9511,217.6442 486.4761,219.1702 487.7011,220.3952 C488.8451,221.5402 489.7491,222.4442 491.6511,222.4442 C493.5571,222.4442 494.4621,221.5402 495.6071,220.3952 C496.8341,219.1692 498.3621,217.6442 501.2601,217.6442 C504.1601,217.6442 505.6871,219.1702 506.9151,220.3952 C508.0601,221.5402 508.9651,222.4442 510.8711,222.4442 C511.5341,222.4442 512.0711,222.9812 512.0711,223.6442 C512.0711,224.3062 511.5341,224.8442 510.8711,224.8442" id="Fill-34" fill="#CDD1DF"></path>
            <path d="M510.8711,237.644 C507.9731,237.644 506.4461,236.119 505.2181,234.893 C504.0731,233.748 503.1661,232.844 501.2601,232.844 C499.3541,232.844 498.4491,233.748 497.3041,234.893 C496.0781,236.119 494.5491,237.644 491.6511,237.644 C488.7541,237.644 487.2291,236.118 486.0041,234.892 C484.8601,233.748 483.9571,232.844 482.0561,232.844 C480.1541,232.844 479.2511,233.748 478.1071,234.893 C476.8821,236.118 475.3591,237.644 472.4631,237.644 C469.5681,237.644 468.0431,236.118 466.8181,234.892 C465.6741,233.748 464.7711,232.844 462.8711,232.844 C462.2091,232.844 461.6711,232.307 461.6711,231.644 C461.6711,230.981 462.2091,230.444 462.8711,230.444 C465.7671,230.444 467.2901,231.97 468.5151,233.196 C469.6591,234.34 470.5621,235.244 472.4631,235.244 C474.3631,235.244 475.2671,234.34 476.4101,233.196 C477.6351,231.97 479.1601,230.444 482.0561,230.444 C484.9511,230.444 486.4761,231.97 487.7011,233.196 C488.8451,234.34 489.7491,235.244 491.6511,235.244 C493.5571,235.244 494.4621,234.34 495.6071,233.195 C496.8341,231.969 498.3621,230.444 501.2601,230.444 C504.1601,230.444 505.6871,231.97 506.9151,233.196 C508.0601,234.34 508.9651,235.244 510.8711,235.244 C511.5341,235.244 512.0711,235.782 512.0711,236.444 C512.0711,237.106 511.5341,237.644 510.8711,237.644" id="Fill-36" fill="#CDD1DF"></path>
            <path d="M510.8711,250.4438 C507.9731,250.4438 506.4461,248.9188 505.2181,247.6938 C504.0731,246.5488 503.1661,245.6438 501.2601,245.6438 C499.3541,245.6438 498.4491,246.5478 497.3041,247.6938 C496.0781,248.9188 494.5491,250.4438 491.6511,250.4438 C488.7541,250.4438 487.2291,248.9188 486.0041,247.6918 C484.8601,246.5478 483.9571,245.6438 482.0561,245.6438 C480.1541,245.6438 479.2511,246.5478 478.1071,247.6928 C476.8821,248.9188 475.3591,250.4438 472.4631,250.4438 C469.5681,250.4438 468.0431,248.9188 466.8181,247.6918 C465.6741,246.5478 464.7711,245.6438 462.8711,245.6438 C462.2091,245.6438 461.6711,245.1068 461.6711,244.4438 C461.6711,243.7818 462.2091,243.2438 462.8711,243.2438 C465.7671,243.2438 467.2901,244.7698 468.5151,245.9958 C469.6591,247.1398 470.5621,248.0438 472.4631,248.0438 C474.3631,248.0438 475.2671,247.1398 476.4101,245.9968 C477.6351,244.7698 479.1601,243.2438 482.0561,243.2438 C484.9511,243.2438 486.4761,244.7698 487.7011,245.9958 C488.8451,247.1398 489.7491,248.0438 491.6511,248.0438 C493.5571,248.0438 494.4621,247.1398 495.6071,245.9948 C496.8341,244.7688 498.3621,243.2438 501.2601,243.2438 C504.1601,243.2438 505.6871,244.7698 506.9151,245.9958 C508.0601,247.1398 508.9651,248.0438 510.8711,248.0438 C511.5341,248.0438 512.0711,248.5818 512.0711,249.2438 C512.0711,249.9068 511.5341,250.4438 510.8711,250.4438" id="Fill-38" fill="#CDD1DF"></path>
            <path d="M510.8711,263.2441 C507.9731,263.2441 506.4461,261.7191 505.2181,260.4931 C504.0731,259.3481 503.1661,258.4441 501.2601,258.4441 C499.3541,258.4441 498.4491,259.3481 497.3041,260.4931 C496.0781,261.7191 494.5491,263.2441 491.6511,263.2441 C488.7541,263.2441 487.2291,261.7181 486.0041,260.4921 C484.8601,259.3481 483.9571,258.4441 482.0561,258.4441 C480.1541,258.4441 479.2511,259.3481 478.1071,260.4931 C476.8821,261.7181 475.3591,263.2441 472.4631,263.2441 C469.5681,263.2441 468.0431,261.7181 466.8181,260.4921 C465.6741,259.3481 464.7711,258.4441 462.8711,258.4441 C462.2091,258.4441 461.6711,257.9071 461.6711,257.2441 C461.6711,256.5811 462.2091,256.0441 462.8711,256.0441 C465.7671,256.0441 467.2901,257.5701 468.5151,258.7951 C469.6591,259.9401 470.5621,260.8441 472.4631,260.8441 C474.3631,260.8441 475.2671,259.9401 476.4101,258.7961 C477.6351,257.5701 479.1601,256.0441 482.0561,256.0441 C484.9511,256.0441 486.4761,257.5701 487.7011,258.7951 C488.8451,259.9401 489.7491,260.8441 491.6511,260.8441 C493.5571,260.8441 494.4621,259.9401 495.6071,258.7951 C496.8341,257.5691 498.3621,256.0441 501.2601,256.0441 C504.1601,256.0441 505.6871,257.5701 506.9151,258.7951 C508.0601,259.9401 508.9651,260.8441 510.8711,260.8441 C511.5341,260.8441 512.0711,261.3811 512.0711,262.0441 C512.0711,262.7061 511.5341,263.2441 510.8711,263.2441" id="Fill-40" fill="#CDD1DF"></path>
            <path d="M55.0166,303.3979 C25.0196,303.3979 0.6166,278.9939 0.6166,248.9979 L19.8166,248.9979 C19.8166,268.4069 35.6076,284.1979 55.0166,284.1979 L55.0166,303.3979 Z" id="Fill-42" fill="#CDD1DF"></path>
            <polygon id="Fill-44" fill="#CDD1DF" points="41.6846 91.9824 33.6846 99.9824 25.6846 91.9824 33.6846 83.9824"></polygon>
            <polygon id="Fill-46" fill="#CDD1DF" points="510.8716 474.5063 502.8716 482.5063 494.8716 474.5063 502.8716 466.5063"></polygon>
            <path d="M332.1035,44.3677 C334.1865,45.8987 337.1755,45.5017 340.6385,45.0427 C346.0165,44.3307 352.4575,43.4827 358.7695,49.0527 L358.7695,46.4537 C358.7695,40.2687 353.7545,35.2547 347.5695,35.2547 L331.2795,35.2547 C329.9835,38.3677 329.2225,42.2477 332.1035,44.3677" id="Fill-48" fill="#CDD1DF"></path>
            <path d="M340.7852,46.1538 C337.0832,46.6438 333.8802,47.0658 331.4412,45.2708 C328.0962,42.8088 328.7282,38.6368 330.0542,35.2548 L325.1692,35.2548 C318.9842,35.2548 313.9702,40.2688 313.9702,46.4538 L313.9702,59.4408 C319.4112,57.5428 331.8342,54.5998 343.9162,61.5328 C350.8872,65.5338 353.8332,71.9268 355.0752,77.1148 C357.3292,75.0668 358.7692,72.1398 358.7692,68.8538 L358.7692,50.6198 C352.5472,44.6258 346.1142,45.4488 340.7852,46.1538" id="Fill-50" fill="#CDD1DF"></path>
            <path d="M329.8208,66.4019 C324.5618,63.2979 318.7268,63.7949 313.9698,65.2039 L313.9698,68.8539 C313.9698,75.0399 318.9838,80.0539 325.1698,80.0539 L337.0328,80.0539 C336.9038,75.2549 335.3758,69.6779 329.8208,66.4019" id="Fill-52" fill="#CDD1DF"></path>
            <path d="M343.3599,62.5054 C331.3329,55.6014 318.9819,58.8104 313.9699,60.6304 L313.9699,64.0554 C318.9069,62.6504 324.9249,62.2164 330.3899,65.4364 C336.3889,68.9744 338.0179,74.9534 338.1479,80.0544 L347.5689,80.0544 C350.0229,80.0544 352.2719,79.2434 354.1169,77.9054 C353.0049,72.8594 350.2319,66.4494 343.3599,62.5054" id="Fill-54" fill="#CDD1DF"></path>
            <path d="M212.8867,100.251 L220.0117,156.343 C220.0117,156.343 233.9287,167.253 255.3917,159.86 C272.0887,154.108 272.0887,143.046 272.0887,143.046 L256.1517,90.295 L212.8867,100.251 Z" id="Fill-56" fill="#FFC4A3"></path>
            <path d="M305.2046,137.1782 C332.7696,132.6202 391.6966,122.6152 391.6966,122.6152 C391.6966,122.6152 413.2406,43.3592 424.3096,30.1732 C432.8786,19.9662 448.1586,10.2322 453.8826,15.0882 C453.8826,15.0882 466.9836,4.2302 474.2046,0.8712 C481.2046,-2.3838 486.0066,4.7242 480.6886,10.9642 C476.5156,15.8612 465.7396,24.8012 465.7396,24.8012 C465.7396,24.8012 473.4756,24.8962 471.6856,34.6632 C471.6856,34.6632 477.2156,36.6032 476.2386,44.2542 C475.4226,50.6522 470.5416,56.7072 466.3086,56.3282 C463.6246,56.0882 462.5646,54.1842 462.5646,54.1842 C462.5646,54.1842 459.3086,60.6682 450.4106,63.1642 C450.4106,63.1642 450.0996,110.5242 446.2866,134.3562 C442.3796,158.7742 440.4376,162.1892 412.6436,174.0762 C359.3586,196.8662 305.2046,200.4482 305.2046,200.4482 L305.2046,137.1782 Z" id="Fill-58" fill="#FFC4A3"></path>
            <path d="M88.6504,345.812 C106.0624,326.119 175.4094,315.375 211.8744,316.352 C211.8744,316.352 213.8274,301.05 219.6874,284.445 L328.1034,283.469 L328.1034,368.769 L88.6504,366.49 L88.6504,345.812 Z" id="Fill-60" fill="#1D213A"></path>
            <path d="M253.9814,147.1621 C282.1974,140.2171 305.2044,137.1781 305.2044,137.1781 C305.2044,137.1781 320.6154,233.9821 341.7984,282.7301 C341.7984,282.7301 323.5454,302.3521 271.5234,306.9101 C226.2044,310.8811 202.1064,301.0501 202.1064,301.0501 C202.1064,301.0501 207.4064,230.9171 194.8174,164.5001 C194.8174,164.5001 216.6664,156.3481 253.9814,147.1621" id="Fill-62" fill="#D3D6E2"></path>
            <path d="M389.8794,194.939 C365.2184,201.099 331.8474,238.214 303.0344,325.468 L249.9654,325.793 L249.9654,427.046 C249.9654,427.046 275.3604,429.977 319.3134,429.977 C358.7074,429.977 373.0324,408.205 388.6594,348.278 C404.2874,288.353 413.7294,245.377 413.7294,245.377 L389.8794,194.939 Z" id="Fill-64" fill="#1D213A"></path>
            <path d="M303.0337,326.2676 C302.9507,326.2676 302.8667,326.2546 302.7827,326.2266 C302.3637,326.0886 302.1357,325.6366 302.2747,325.2166 C305.4357,315.6466 308.7447,306.4076 312.1107,297.7546 C312.2717,297.3416 312.7327,297.1356 313.1467,297.2986 C313.5567,297.4586 313.7617,297.9226 313.6007,298.3336 C310.2447,306.9616 306.9467,316.1756 303.7927,325.7186 C303.6817,326.0556 303.3697,326.2676 303.0337,326.2676" id="Fill-66" fill="#E8EAEF"></path>
            <path d="M282.6709,398.6816 C288.0019,422.7026 283.0109,444.2416 271.5239,446.7906 C260.0369,449.3406 246.4029,431.9336 241.0719,407.9136 C235.7409,383.8926 240.7319,362.3526 252.2189,359.8036 C263.7069,357.2546 277.3399,374.6606 282.6709,398.6816" id="Fill-68" fill="#1D213A"></path>
            <path d="M254.5308,360.3525 C253.8108,360.3525 253.0978,360.4295 252.3928,360.5855 C241.3558,363.0345 236.6258,384.1885 241.8528,407.7405 C247.0808,431.2915 260.3108,448.4485 271.3508,446.0095 C282.3888,443.5605 287.1168,422.4065 281.8898,398.8545 C276.9958,376.8075 265.0868,360.3525 254.5308,360.3525 M269.3038,447.8325 C257.9668,447.8325 245.3498,430.8795 240.2898,408.0865 C234.8728,383.6735 240.1478,361.6635 252.0468,359.0225 C263.9388,356.3755 278.0318,374.0955 283.4528,398.5085 C288.8698,422.9215 283.5958,444.9315 271.6978,447.5725 C270.9088,447.7475 270.1088,447.8325 269.3038,447.8325" id="Fill-70" fill="#E8EAEF"></path>
            <path d="M234.9893,374.9399 L321.9173,390.5669 L353.4453,459.0369 C353.4453,459.0369 341.7773,470.9629 322.5683,466.0799 C301.7533,460.7879 290.6703,430.4999 290.6703,430.4999 L234.9893,421.6599 L234.9893,374.9399 Z" id="Fill-72" fill="#FFC4A3"></path>
            <path d="M249.9658,377.6323 L234.9888,374.9403 L234.9888,421.6593 L259.6318,425.5713 C259.6318,425.5713 253.1798,418.5563 249.6038,402.4233 C245.9748,386.0483 249.9658,377.6323 249.9658,377.6323" id="Fill-74" fill="#F99175"></path>
            <path d="M270.0815,447.0078 C254.0375,448.4118 169.6565,429.6668 129.8425,414.5678 C88.5975,398.9288 77.7395,382.4528 81.6565,359.5748 C86.0045,334.1038 114.4745,337.2098 145.2925,341.1268 C175.8685,345.0158 253.6315,359.3588 254.8205,359.5748 C253.9565,359.5208 253.0915,359.6018 252.2275,359.7908 C240.7215,362.3568 235.7505,383.8838 241.0725,407.9238 C246.1775,430.9368 258.9255,447.8988 270.0815,447.0078" id="Fill-76" fill="#1D213A"></path>
            <path d="M269.2573,447.8403 C257.8863,447.8403 245.3053,430.7013 240.2913,408.0973 C235.0713,384.5153 239.4693,363.8803 250.2853,359.5563 C230.7603,355.9903 171.1333,345.2193 145.1913,341.9203 C138.4553,341.0643 131.8963,340.2563 125.7193,339.7723 C125.2793,339.7373 124.9493,339.3523 124.9853,338.9123 C125.0193,338.4703 125.3993,338.1503 125.8443,338.1763 C132.0573,338.6643 138.6363,339.4743 145.3933,340.3323 C173.5583,343.9163 241.3083,356.2793 254.6043,358.7213 L254.9653,358.7873 C255.3813,358.8633 255.6663,359.2513 255.6153,359.6713 C255.5633,360.0903 255.2183,360.3843 254.7713,360.3733 C254.0063,360.3243 253.2303,360.3893 252.3983,360.5723 C241.3713,363.0313 236.6403,384.1953 241.8543,407.7513 C246.8303,430.1803 259.2183,447.0853 270.0163,446.2093 C270.4523,446.1883 270.8433,446.5023 270.8773,446.9433 C270.9133,447.3833 270.5853,447.7703 270.1443,447.8053 C269.8493,447.8283 269.5523,447.8403 269.2573,447.8403" id="Fill-78" fill="#E8EAEF"></path>
            <path d="M228.9175,437.1489 C225.2165,443.9819 217.7895,439.8499 217.7895,439.8499 C217.7895,439.8499 217.0865,442.5239 213.5755,444.3069 C208.9565,446.6559 204.3915,443.9819 204.3915,443.9819 C204.3915,443.9819 199.5025,449.8439 191.3725,447.0889 C183.2155,444.3339 178.4345,430.7469 182.2435,427.0469 C185.1065,424.2649 189.0775,427.0469 189.0775,427.0469 C185.1875,411.4079 186.8085,395.4719 186.8085,395.4719 C186.8085,395.4719 146.7515,344.6649 138.9455,330.9979 C131.1395,317.3299 125.9265,305.2839 130.1675,291.6159 C132.2195,284.9989 137.8645,269.5219 144.4285,252.5049 L198.5845,276.7879 C195.4785,290.2389 192.5615,299.0979 192.5615,299.0979 C192.5615,299.0979 211.6575,341.4239 220.1115,367.6779 C228.5665,393.9589 233.0775,429.4509 228.9175,437.1489" id="Fill-80" fill="#FFC4A3"></path>
            <path d="M209.3218,338.5088 L209.3218,338.5088 C208.7018,336.9648 208.0808,335.4298 207.4608,333.9098 C201.0678,331.5318 189.6078,329.0948 176.2128,334.6438 C164.9538,339.3078 159.0328,348.4328 156.0168,355.3918 C158.1118,358.2018 160.2668,361.0668 162.4248,363.9128 C162.4258,363.9028 164.8478,351.8598 178.8988,343.5348 C192.9558,335.2068 209.3218,338.5088 209.3218,338.5088" id="Fill-82" fill="#F99175"></path>
            <path d="M205.5791,213.5791 C204.1841,178.4261 194.8171,164.5001 194.8171,164.5001 C182.2461,169.1931 176.7121,176.6811 165.3171,201.7501 C153.9221,226.8191 134.3881,277.9341 130.1551,291.6081 C125.9221,305.2821 131.1321,317.3291 138.9451,331.0021 C142.0261,336.3931 150.1181,347.5541 158.7881,359.0951 L158.7891,359.0951 C158.7891,359.0951 163.6181,341.8081 181.0531,336.2111 C198.6341,330.5681 209.3221,338.5091 209.3221,338.5091 C201.1221,318.0811 192.5571,299.0961 192.5571,299.0961 C192.5571,299.0961 207.2071,254.6011 205.5791,213.5791" id="Fill-84" fill="#D3D6E2"></path>
            <path d="M400.7739,91.2856 C404.6369,96.5076 412.1379,103.3066 426.1009,106.2366 C435.3729,108.1816 443.1909,107.4446 449.0049,106.0536 C449.2439,102.0166 449.4419,97.9806 449.6069,94.0776 C449.5969,94.0846 444.4849,97.9626 428.8019,96.4456 C413.1029,94.9256 402.8619,84.5076 402.8609,84.5066 C402.1439,86.8066 401.4489,89.0686 400.7739,91.2856" id="Fill-86" fill="#F99175"></path>
            <path d="M203.1182,253.5142 C203.0792,253.5142 203.0402,253.5122 202.9992,253.5062 C202.5622,253.4412 202.2602,253.0352 202.3262,252.5972 C204.4182,238.4252 205.2442,225.3082 204.7792,213.6112 C204.5462,207.6982 204.0652,201.9982 203.3522,196.6692 C203.2932,196.2312 203.6012,195.8282 204.0382,195.7702 C204.4552,195.7082 204.8772,196.0182 204.9372,196.4562 C205.6572,201.8342 206.1412,207.5842 206.3792,213.5472 C206.8462,225.3432 206.0152,238.5602 203.9092,252.8312 C203.8492,253.2282 203.5072,253.5142 203.1182,253.5142" id="Fill-88" fill="#1D213A"></path>
            <path d="M446.2861,134.3564 C447.7611,125.1394 448.7101,112.4064 449.3221,100.2524 C449.3071,100.2614 438.4611,107.5464 421.3261,101.3654 C406.7201,96.0964 402.8671,84.5264 402.8601,84.5064 C396.5651,104.7094 391.6961,122.6154 391.6961,122.6154 C391.6961,122.6154 332.7701,132.6204 305.2041,137.1784 L305.2041,200.4474 C305.2041,200.4474 359.3581,196.8664 412.6431,174.0764 C440.4371,162.1894 442.3791,158.7744 446.2861,134.3564" id="Fill-90" fill="#D3D6E2"></path>
            <path d="M317.2012,200.0024 C316.8342,200.0024 316.5022,199.7484 316.4202,199.3764 C313.9542,188.2714 311.5512,176.5884 309.2792,164.6504 C309.1962,164.2164 309.4802,163.7974 309.9152,163.7154 C310.3542,163.6334 310.7682,163.9174 310.8512,164.3524 C313.1192,176.2734 315.5192,187.9394 317.9822,199.0294 C318.0772,199.4604 317.8052,199.8874 317.3742,199.9834 C317.3162,199.9964 317.2572,200.0024 317.2012,200.0024" id="Fill-92" fill="#1D213A"></path>
            <path d="M401.3574,356.8311 L417.8534,437.7901 L492.8434,437.7901 C492.8434,437.7901 495.1224,425.2561 487.6334,415.0001 C479.3294,403.6261 459.0004,403.2561 459.0004,403.2561 L451.1704,356.8311 L401.3574,356.8311 Z" id="Fill-94" fill="#FFC4A3"></path>
            <path d="M442.5415,52.0542 C442.3555,52.0542 442.1695,51.9902 442.0185,51.8602 C441.6835,51.5712 441.6475,51.0652 441.9375,50.7312 C448.8885,42.6862 448.2045,29.6082 448.1965,29.4772 C448.1715,29.0672 448.4615,28.7072 448.8665,28.6412 C449.2725,28.5772 449.6605,28.8282 449.7685,29.2242 C449.7795,29.2672 450.9665,33.5122 455.7105,36.1482 C457.7555,37.2862 459.7605,37.2912 461.2135,36.1722 C462.7495,34.9852 463.3135,32.7312 462.6855,30.2912 C461.7555,26.6742 457.1155,19.4242 453.3185,15.6572 C453.0055,15.3452 453.0025,14.8382 453.3145,14.5252 C453.6255,14.2122 454.1325,14.2092 454.4465,14.5202 C458.4725,18.5182 463.2305,25.9892 464.2355,29.8922 C465.0245,32.9632 464.2415,35.8542 462.1895,37.4382 C460.2405,38.9462 457.5275,38.9892 454.9325,37.5462 C452.4075,36.1442 450.7835,34.3522 449.7665,32.8282 C449.5215,37.4632 448.3185,45.7942 443.1465,51.7782 C442.9885,51.9602 442.7655,52.0542 442.5415,52.0542" id="Fill-96" fill="#1D213A"></path>
            <path d="M459.2012,49.2729 C457.7052,49.2729 456.3932,48.7109 455.4592,47.6199 C453.9042,45.8029 453.3242,42.0979 456.3652,37.1449 C456.5952,36.7659 457.0852,36.6509 457.4652,36.8809 C457.8422,37.1129 457.9592,37.6059 457.7272,37.9819 C455.1372,42.2029 455.4852,45.1899 456.6742,46.5789 C457.6982,47.7759 459.4772,47.9969 461.4432,47.1779 C466.0212,45.2649 469.5572,40.5219 470.9042,34.4889 C471.0012,34.0589 471.4122,33.7849 471.8602,33.8819 C472.2912,33.9789 472.5622,34.4059 472.4672,34.8369 C471.0072,41.3759 467.1172,46.5419 462.0582,48.6549 C461.0682,49.0689 460.1012,49.2729 459.2012,49.2729" id="Fill-98" fill="#1D213A"></path>
            <path d="M462.5649,54.9839 C462.2869,54.9839 462.0149,54.8379 461.8679,54.5779 C459.9709,51.2189 461.4879,48.0959 462.5569,46.9139 C462.8539,46.5859 463.3589,46.5609 463.6839,46.8549 C464.0119,47.1489 464.0389,47.6529 463.7459,47.9829 C463.6519,48.0889 461.4669,50.6139 463.2619,53.7899 C463.4789,54.1749 463.3429,54.6629 462.9589,54.8809 C462.8339,54.9499 462.6989,54.9839 462.5649,54.9839" id="Fill-100" fill="#1D213A"></path>
            <path d="M192.7729,439.458 C192.4789,439.458 192.1979,439.296 192.0569,439.016 C191.9709,438.844 189.9319,434.717 188.3029,427.217 C188.2089,426.785 188.4819,426.359 188.9139,426.264 C189.3569,426.171 189.7719,426.446 189.8649,426.876 C191.4489,434.161 193.4679,438.26 193.4879,438.301 C193.6859,438.696 193.5239,439.177 193.1309,439.374 C193.0149,439.431 192.8929,439.458 192.7729,439.458" id="Fill-102" fill="#1D213A"></path>
            <path d="M204.3853,444.7759 C204.2123,444.7759 204.0373,444.7209 203.8913,444.6049 C203.5433,444.3329 203.4843,443.8289 203.7563,443.4819 C207.0703,439.2639 205.7813,431.7119 205.7683,431.6349 C205.6913,431.1999 205.9803,430.7859 206.4163,430.7079 C206.8403,430.6259 207.2663,430.9189 207.3433,431.3549 C207.4043,431.6929 208.7743,439.6859 205.0153,444.4709 C204.8573,444.6719 204.6213,444.7759 204.3853,444.7759" id="Fill-104" fill="#1D213A"></path>
            <path d="M217.7871,440.6377 C217.6741,440.6377 217.5601,440.6147 217.4511,440.5637 C217.0491,440.3787 216.8761,439.9037 217.0601,439.5017 C219.1491,434.9867 217.9431,429.4747 217.9311,429.4197 C217.8321,428.9897 218.1041,428.5607 218.5341,428.4637 C218.9741,428.3677 219.3941,428.6377 219.4901,429.0687 C219.5461,429.3147 220.8281,435.1697 218.5141,440.1737 C218.3771,440.4657 218.0881,440.6377 217.7871,440.6377" id="Fill-106" fill="#1D213A"></path>
            <path d="M218.0049,140.542 L217.6279,137.57 L220.0119,156.343 C220.0119,156.343 233.9289,167.253 255.3919,159.859 C272.0889,154.108 272.0889,143.046 272.0889,143.046 L267.7679,128.746 L218.0049,140.542 Z" id="Fill-108" fill="#D3D6E2"></path>
            <path d="M240.6465,163.229 C227.6495,163.229 219.8465,157.229 219.5185,156.973 C219.1715,156.7 219.1105,156.199 219.3825,155.85 C219.6545,155.504 220.1575,155.441 220.5035,155.713 C220.5805,155.772 228.2305,161.629 240.6505,161.629 C240.7045,161.63 240.7715,161.651 240.8085,161.629 C241.2495,161.629 241.6075,161.985 241.608514,162.426 C241.6115,162.923 241.1475,163.235 240.6465,163.229" id="Fill-110" fill="#1D213A"></path>
            <path d="M388.3354,137.9785 C388.2964,137.9785 388.2574,137.9755 388.2184,137.9695 C387.7804,137.9055 387.4774,137.4995 387.5414,137.0625 C387.5694,136.8795 388.2324,132.4515 390.9224,122.4085 C391.0404,121.9815 391.4744,121.7285 391.9044,121.8435 C392.3304,121.9575 392.5844,122.3965 392.4694,122.8225 C389.8054,132.7555 389.1324,137.2505 389.1264,137.2945 C389.0664,137.6925 388.7244,137.9785 388.3354,137.9785" id="Fill-112" fill="#1D213A"></path>
            <polygon id="Fill-114" fill="#F99175" points="451.1699 356.8311 401.3569 356.8311 404.5789 372.6441 454.9509 379.2471"></polygon>
            <path d="M192.5557,299.8965 C192.2527,299.8965 191.9637,299.7235 191.8287,299.4305 C184.9227,284.3615 176.0497,281.2195 175.9607,281.1885 C175.5417,281.0475 175.3167,280.5945 175.4557,280.1765 C175.5967,279.7585 176.0497,279.5335 176.4647,279.6705 C176.8527,279.7985 186.0587,283.0005 193.2827,298.7625 C193.4667,299.1645 193.2897,299.6395 192.8887,299.8235 C192.7807,299.8735 192.6677,299.8965 192.5557,299.8965" id="Fill-116" fill="#1D213A"></path>
            <path d="M393.3262,368.5518 L480.4712,368.5518 C480.4712,368.5518 457.3562,251.8878 433.2632,214.4478 C409.2182,177.0798 368.0052,193.1958 369.4152,229.0828 C371.0792,271.4228 393.3262,368.5518 393.3262,368.5518" id="Fill-118" fill="#1D213A"></path>
            <path d="M388.8604,349.0356 C388.4914,349.0356 388.1604,348.7786 388.0794,348.4026 C383.2734,325.9226 374.6184,283.4726 370.6554,251.7436 C370.6014,251.3056 370.9124,250.9046 371.3514,250.8496 C371.7774,250.7936 372.1884,251.1066 372.2434,251.5446 C376.1974,283.2136 384.8434,325.6126 389.6444,348.0686 C389.7364,348.5006 389.4624,348.9256 389.0294,349.0176 C388.9724,349.0296 388.9164,349.0356 388.8604,349.0356" id="Fill-120" fill="#E8EAEF"></path>
            <path d="M248.3569,128.6089 C248.3569,128.6089 256.6139,131.3899 267.7679,128.7459 L267.7689,128.7459 L256.1519,90.2959 L239.3089,94.1709 L248.3569,128.6089 Z" id="Fill-122" fill="#F99175"></path>
            <path d="M253.9004,65.1807 L210.4054,97.9457 C196.9264,101.5117 190.0064,97.3417 189.2344,92.8267 C188.1914,86.7287 192.5404,85.5467 194.1534,78.8057 C195.7674,72.0647 192.5274,63.0557 196.5974,57.5497 C201.6434,50.7227 209.9224,54.3207 209.9224,54.3207 C209.9224,54.3207 209.1684,41.8977 216.8534,38.5687 C225.8284,34.6807 239.4364,34.5447 251.6294,46.4937 C261.2744,55.9477 264.6104,61.4697 270.0204,61.1137 C270.0204,61.1137 268.6734,71.8947 253.9004,65.1807" id="Fill-124" fill="#1D213A"></path>
            <path d="M205.8872,78.5732 C205.8872,78.5732 213.4822,65.5152 232.2352,61.8232 C251.7402,57.9812 261.2372,70.2902 265.4032,85.3762 C269.5702,100.4632 269.4962,122.3862 251.6012,127.7882 C233.7962,133.1642 213.5032,125.2322 205.8872,78.5732" id="Fill-126" fill="#FFC4A3"></path>
            <path d="M205.8623,95.4038 C205.8623,95.4038 215.2203,94.5898 215.4293,86.9348 C215.6383,79.2788 209.6693,73.6398 209.9453,65.0108 L201.8093,76.3548 L205.8623,95.4038 Z" id="Fill-128" fill="#1D213A"></path>
            <path d="M224.7061,54.6201 C233.4141,60.7771 235.0081,67.5751 241.5051,72.6821 C249.2381,78.7601 268.3791,72.9111 270.0201,61.1131 C270.0201,61.1131 264.6411,69.2741 250.7351,59.2701 C236.8301,49.2661 224.7061,54.6201 224.7061,54.6201" id="Fill-130" fill="#1D213A"></path>
            <path d="M234.9917,319.4712 C234.9477,319.4712 234.9047,319.4682 234.8617,319.4612 C227.3187,318.2312 219.5747,317.4532 211.8437,317.1512 C211.4007,317.1342 211.0567,316.7622 211.0747,316.3212 C211.0917,315.8812 211.3747,315.5122 211.9057,315.5532 C219.7027,315.8572 227.5117,316.6412 235.1177,317.8812 C235.5557,317.9522 235.8507,318.3642 235.7797,318.8002 C235.7147,319.1922 235.3757,319.4712 234.9917,319.4712" id="Fill-132" fill="#E8EAEF"></path>
            <path d="M459.0005,403.2563 L457.7515,395.8543 L447.2635,395.8543 C440.3375,395.8543 441.9135,405.7713 441.9135,405.7713 L411.9675,408.9033 L417.8535,437.7903 L492.8435,437.7903 C492.8435,437.7903 495.1225,425.2563 487.6335,415.0003 C479.3295,403.6263 459.0005,403.2563 459.0005,403.2563" id="Fill-134" fill="#D3D6E2"></path>
            <path d="M353.4453,459.0371 L321.9173,390.5671 L290.8793,384.9871 L290.8793,409.4291 C285.1393,409.5981 280.7503,412.9741 282.1013,420.2331 C283.4513,427.4931 283.7313,429.2441 283.7313,429.2441 L283.6743,429.3891 L290.6703,430.5001 C290.6703,430.5001 301.7533,460.7871 322.5683,466.0791 C341.7773,470.9631 353.4453,459.0371 353.4453,459.0371" id="Fill-136" fill="#D3D6E2"></path>
            <path d="M492.5918,427.6216 L415.6178,427.6216 C415.1758,427.6216 414.8188,427.2636 414.8188,426.8216 C414.8188,426.3796 415.1758,426.0216 415.6178,426.0216 L492.5918,426.0216 C493.0338,426.0216 493.3918,426.3796 493.3918,426.8216 C493.3918,427.2636 493.0338,427.6216 492.5918,427.6216" id="Fill-138" fill="#1D213A"></path>
            <path d="M343.6992,465.8057 C343.3982,465.8057 343.1092,465.6347 342.9742,465.3427 L307.2202,388.3917 C307.0332,387.9917 307.2072,387.5157 307.6072,387.3287 C308.0072,387.1467 308.4872,387.3167 308.6702,387.7177 L344.4242,464.6687 C344.6102,465.0687 344.4372,465.5447 344.0372,465.7317 C343.9282,465.7827 343.8132,465.8057 343.6992,465.8057" id="Fill-140" fill="#1D213A"></path>
            <path d="M207.7104,96.2036 C207.2714,96.2036 206.9134,95.8486 206.910381,95.4086 C206.9074,94.9676 207.2634,94.6066 207.7044,94.6036 C211.8304,94.5746 214.7024,93.2276 216.0074,90.7066 C217.7854,87.2716 216.6554,81.7836 213.1304,76.7226 C206.8214,67.6636 208.4694,63.2956 208.5434,63.1146 C208.7094,62.7036 209.1754,62.5076 209.5854,62.6716 C209.9914,62.8356 210.1884,63.2956 210.0304,63.7026 C209.9964,63.8026 208.7634,67.6516 214.4434,75.8076 C218.3044,81.3496 219.4764,87.4866 217.4274,91.4426 C216.3144,93.5906 213.7274,96.1616 207.7164,96.2036 L207.7104,96.2036 Z" id="Fill-142" fill="#1D213A"></path>
            <path d="M213.2241,95.1509 C213.2241,95.1509 206.1861,89.9869 200.7101,93.6299 C194.3631,97.8499 195.6921,108.3519 203.5951,111.3459 C211.3421,114.2809 216.1641,107.5469 216.1641,107.5469 L213.2241,95.1509 Z" id="Fill-144" fill="#FFC4A3"></path>
            <path d="M201.5664,101.0073 C201.3714,101.0073 201.1754,100.9373 201.0234,100.7943 C200.6974,100.4933 200.6794,99.9863 200.9804,99.6623 C202.5574,97.9633 205.9054,97.0873 209.0114,98.8063 C209.3984,99.0203 209.5384,99.5083 209.3244,99.8943 C209.1084,100.2823 208.6244,100.4203 208.2364,100.2063 C205.9334,98.9293 203.3354,99.4793 202.1524,100.7523 C201.9944,100.9213 201.7804,101.0073 201.5664,101.0073" id="Fill-146" fill="#1D213A"></path>
            <path d="M186.8901,86.3848 C186.6191,86.3848 186.3541,86.2458 186.2041,85.9958 C185.9771,85.6178 186.0991,85.1278 186.4761,84.8988 C186.6541,84.7908 190.8491,82.1598 191.2681,74.7358 C191.7131,66.8168 192.3231,55.9968 203.0491,53.8358 C203.4771,53.7478 203.9041,54.0288 203.9921,54.4618 C204.0791,54.8948 203.7981,55.3168 203.3651,55.4048 C193.8511,57.3218 193.3061,67.0168 192.8671,74.8068 C192.3961,83.1458 187.5061,86.1488 187.2981,86.2718 C187.1701,86.3478 187.0291,86.3848 186.8901,86.3848" id="Fill-148" fill="#1D213A"></path>
            <path d="M270.3696,57.9111 C270.3446,57.9111 270.3216,57.9111 270.2966,57.9081 C265.9046,57.5141 261.7356,53.4281 256.9106,48.6981 C253.0336,44.8991 249.0256,40.9711 244.4856,38.5741 C234.4226,33.2601 218.8746,35.9161 214.7746,43.6431 C214.5686,44.0351 214.0856,44.1811 213.6936,43.9751 C213.3026,43.7671 213.1546,43.2841 213.3616,42.8931 C217.9056,34.3281 234.2856,31.3821 245.2326,37.1581 C249.9786,39.6651 254.2556,43.8561 258.0296,47.5561 C262.4446,51.8831 266.6166,55.9711 270.4396,56.3141 C270.8786,56.3541 271.2036,56.7431 271.1646,57.1831 C271.1276,57.5991 270.7796,57.9111 270.3696,57.9111" id="Fill-150" fill="#1D213A"></path>
            <path d="M259.9302,80.7593 C259.9302,81.8783 259.0232,82.7853 257.9042,82.7853 C256.7852,82.7853 255.8782,81.8783 255.8782,80.7593 C255.8782,79.6403 256.7852,78.7333 257.9042,78.7333 C259.0232,78.7333 259.9302,79.6403 259.9302,80.7593" id="Fill-152" fill="#1D213A"></path>
            <path d="M236.0708,88.9448 C236.0708,90.0638 235.1638,90.9708 234.0458,90.9708 C232.9258,90.9708 232.0198,90.0638 232.0198,88.9448 C232.0198,87.8258 232.9258,86.9198 234.0458,86.9198 C235.1638,86.9198 236.0708,87.8258 236.0708,88.9448" id="Fill-154" fill="#1D213A"></path>
            <path d="M252.2993,96.311 C251.4523,96.311 250.5333,96.149 249.5683,95.778 C249.1553,95.621 248.9493,95.158 249.1073,94.745 C249.2663,94.333 249.7293,94.13 250.1403,94.285 C252.7093,95.266 254.7653,94.399 255.6633,93.099 C256.2833,92.202 256.2803,91.246 255.6553,90.541 C254.3403,89.057 252.3553,90.717 252.2693,90.788 C252.0913,90.939 251.8513,91.008 251.6263,90.968 C251.3943,90.931 251.1913,90.795 251.0703,90.595 L248.3463,86.13 C248.1163,85.752 248.2353,85.26 248.6113,85.031 C248.9903,84.8 249.4803,84.918 249.7123,85.297 L251.9913,89.036 C253.2993,88.268 255.3263,87.753 256.8523,89.479 C257.9653,90.733 258.0153,92.512 256.9793,94.01 C256.0823,95.303 254.4103,96.311 252.2993,96.311" id="Fill-156" fill="#F99175"></path>
            <path d="M234.0361,76.9272 C233.8751,78.4192 231.1801,79.4132 228.5121,80.7242 C225.7931,81.9262 223.3001,83.3502 222.0531,82.5152 C220.7911,81.7472 222.0421,77.8042 226.2351,75.8412 C230.4341,73.8912 234.2591,75.4672 234.0361,76.9272" id="Fill-158" fill="#1D213A"></path>
            <path d="M250.7827,102.3193 C247.6817,102.8673 246.1517,100.1103 244.2877,102.1503 C242.2987,104.3273 246.3917,109.9783 251.7157,108.6223 C256.2737,107.4603 257.2557,102.0583 255.1877,101.2143 C253.6127,100.5713 252.7357,101.9743 250.7827,102.3193" id="Fill-160" fill="#1D213A"></path>
            <path d="M249.584,104.4966 C247.802,104.4966 246.234,105.3706 245.251,106.7016 C246.69,108.2216 249.048,109.3016 251.715,108.6216 C252.758,108.3556 253.59,107.8526 254.265,107.2486 C253.336,105.6126 251.6,104.4966 249.584,104.4966" id="Fill-162" fill="#FF5A5A"></path>
            <path d="M454.1055,409.7231 C454.0625,409.7231 454.0195,409.7201 453.9765,409.7131 C453.5405,409.6411 453.2435,409.2311 453.3145,408.7941 C454.0415,404.3311 457.2755,402.7021 458.8835,402.4641 C459.3185,402.4051 459.7275,402.7011 459.7915,403.1391 C459.8575,403.5751 459.5575,403.9791 459.1235,404.0461 C458.9795,404.0691 455.6085,404.6591 454.8935,409.0521 C454.8295,409.4441 454.4905,409.7231 454.1055,409.7231" id="Fill-164" fill="#1D213A"></path>
            <path d="M461.8916,410.8198 C461.8386,410.8198 461.7856,410.8148 461.7306,410.8038 C461.2976,410.7158 461.0176,410.2938 461.1056,409.8608 C462.3316,403.8178 466.2416,403.3068 466.4076,403.2888 C466.8416,403.2418 467.2416,403.5538 467.2926,403.9938 C467.3416,404.4308 467.0306,404.8248 466.5966,404.8778 C466.4556,404.8978 463.6526,405.3578 462.6746,410.1788 C462.5966,410.5578 462.2636,410.8198 461.8916,410.8198" id="Fill-166" fill="#1D213A"></path>
            <path d="M469.8262,412.4238 C469.7772,412.4238 469.7292,412.4198 469.6802,412.4108 C469.2462,412.3318 468.9572,411.9148 469.0372,411.4798 C470.1572,405.3598 474.1932,405.2898 474.3652,405.2898 C474.8072,405.2898 475.1652,405.6468 475.1652,406.0898 C475.1652,406.5278 474.8122,406.8838 474.3742,406.8888 C474.2542,406.8928 471.4792,407.0208 470.6122,411.7678 C470.5402,412.1528 470.2042,412.4238 469.8262,412.4238" id="Fill-168" fill="#1D213A"></path>
            <path d="M290.6714,431.2979 C290.5664,431.2979 290.4624,431.2779 290.3604,431.2359 C289.9554,431.0639 289.7634,430.5989 289.9324,430.1919 C289.9984,430.0359 291.5764,426.3619 296.3734,424.8109 C296.7974,424.6749 297.2464,424.9069 297.3804,425.3259 C297.5164,425.7469 297.2874,426.1969 296.8664,426.3329 C292.7974,427.6489 291.4634,430.6819 291.4084,430.8109 C291.2794,431.1139 290.9824,431.2979 290.6714,431.2979" id="Fill-170" fill="#1D213A"></path>
            <path d="M294.2148,439.1543 C294.0928,439.1543 293.9698,439.1273 293.8538,439.0673 C293.4618,438.8683 293.3038,438.3903 293.5028,437.9973 C293.5808,437.8423 295.4728,434.1873 300.6558,433.3423 C301.0758,433.2713 301.5008,433.5673 301.5728,434.0033 C301.6448,434.4403 301.3478,434.8513 300.9118,434.9223 C296.5668,435.6303 294.9948,438.5933 294.9288,438.7193 C294.7868,438.9953 294.5068,439.1543 294.2148,439.1543" id="Fill-172" fill="#1D213A"></path>
            <path d="M298.8057,447.0903 C298.6577,447.0903 298.5087,447.0493 298.3757,446.9653 C298.0027,446.7273 297.8927,446.2333 298.1307,445.8603 C298.2147,445.7283 300.2477,442.6153 305.0547,441.8953 C305.4887,441.8423 305.8977,442.1293 305.9637,442.5673 C306.0297,443.0043 305.7287,443.4123 305.2917,443.4773 C301.1977,444.0903 299.4977,446.6943 299.4807,446.7193 C299.3277,446.9593 299.0697,447.0903 298.8057,447.0903" id="Fill-174" fill="#1D213A"></path>
        </g>
    </g>
</svg>