<?xml version="1.0" encoding="UTF-8"?>
<svg width="371px" height="781px" viewBox="0 0 371 781" version="1.1" xmlns="http://www.w3.org/2000/svg" xmlns:xlink="http://www.w3.org/1999/xlink">
    <title>Illustration 13 0</title>
    <g id="🤩-Illustrations" stroke="none" stroke-width="1" fill="none" fill-rule="evenodd">
        <g id="Illustration-13">
            <path d="M19.8481,98.2148 C21.9311,99.7458 24.9201,99.3498 28.3821,98.8898 C33.7611,98.1788 40.2021,97.3298 46.5141,102.8998 L46.5141,100.3018 C46.5141,94.1158 41.4991,89.1018 35.3141,89.1018 L19.0241,89.1018 C17.7281,92.2148 16.9671,96.0948 19.8481,98.2148" id="Fill-1912" fill="#CDD1DF"></path>
            <path d="M28.5293,100.001 C24.8273,100.491 21.6243,100.913 19.1853,99.118 C15.8403,96.656 16.4723,92.484 17.7993,89.102 L12.9143,89.102 C6.7283,89.102 1.7143,94.116 1.7143,100.302 L1.7143,113.288 C7.1553,111.391 19.5783,108.447 31.6603,115.381 C38.6313,119.381 41.5773,125.774 42.8203,130.963 C45.0733,128.914 46.5143,125.987 46.5143,122.701 L46.5143,104.467 C40.2913,98.473 33.8583,99.296 28.5293,100.001" id="Fill-1914" fill="#CDD1DF"></path>
            <path d="M17.5654,120.249 C12.3064,117.145 6.4714,117.642 1.7134,119.051 L1.7134,122.701 C1.7134,128.888 6.7284,133.901 12.9144,133.901 L24.7774,133.901 C24.6484,129.103 23.1194,123.525 17.5654,120.249" id="Fill-1916" fill="#CDD1DF"></path>
            <path d="M31.1045,116.3525 C19.0775,109.4485 6.7265,112.6575 1.7135,114.4775 L1.7135,117.9025 C6.6515,116.4975 12.6695,116.0645 18.1345,119.2845 C24.1335,122.8225 25.7625,128.8005 25.8925,133.9015 L35.3135,133.9015 C37.7665,133.9015 40.0165,133.0905 41.8615,131.7525 C40.7495,126.7065 37.9765,120.2965 31.1045,116.3525" id="Fill-1918" fill="#CDD1DF"></path>
            <path d="M272.6465,249.1016 C272.6465,250.8696 271.2135,252.3016 269.4465,252.3016 C267.6795,252.3016 266.2465,250.8696 266.2465,249.1016 C266.2465,247.3336 267.6795,245.9016 269.4465,245.9016 C271.2135,245.9016 272.6465,247.3336 272.6465,249.1016" id="Fill-1920" fill="#CDD1DF"></path>
            <path d="M306.2466,249.1016 C306.2466,251.7526 304.0976,253.9016 301.4466,253.9016 C298.7956,253.9016 296.6466,251.7526 296.6466,249.1016 C296.6466,246.4506 298.7956,244.3016 301.4466,244.3016 C304.0976,244.3016 306.2466,246.4506 306.2466,249.1016" id="Fill-1922" fill="#CDD1DF"></path>
            <path d="M338.2466,249.1016 C338.2466,251.7526 336.0976,253.9016 333.4466,253.9016 C330.7956,253.9016 328.6466,251.7526 328.6466,249.1016 C328.6466,246.4506 330.7956,244.3016 333.4466,244.3016 C336.0976,244.3016 338.2466,246.4506 338.2466,249.1016" id="Fill-1924" fill="#CDD1DF"></path>
            <path d="M370.2466,249.1016 C370.2466,251.7526 368.0976,253.9016 365.4466,253.9016 C362.7956,253.9016 360.6466,251.7526 360.6466,249.1016 C360.6466,246.4506 362.7956,244.3016 365.4466,244.3016 C368.0976,244.3016 370.2466,246.4506 370.2466,249.1016" id="Fill-1926" fill="#CDD1DF"></path>
            <path d="M272.6465,281.1016 C272.6465,282.8696 271.2135,284.3016 269.4465,284.3016 C267.6795,284.3016 266.2465,282.8696 266.2465,281.1016 C266.2465,279.3336 267.6795,277.9016 269.4465,277.9016 C271.2135,277.9016 272.6465,279.3336 272.6465,281.1016" id="Fill-1928" fill="#CDD1DF"></path>
            <path d="M306.2466,281.1016 C306.2466,283.7526 304.0976,285.9016 301.4466,285.9016 C298.7956,285.9016 296.6466,283.7526 296.6466,281.1016 C296.6466,278.4506 298.7956,276.3016 301.4466,276.3016 C304.0976,276.3016 306.2466,278.4506 306.2466,281.1016" id="Fill-1930" fill="#CDD1DF"></path>
            <path d="M338.2466,281.1016 C338.2466,283.7526 336.0976,285.9016 333.4466,285.9016 C330.7956,285.9016 328.6466,283.7526 328.6466,281.1016 C328.6466,278.4506 330.7956,276.3016 333.4466,276.3016 C336.0976,276.3016 338.2466,278.4506 338.2466,281.1016" id="Fill-1932" fill="#CDD1DF"></path>
            <path d="M370.2466,281.1016 C370.2466,283.7526 368.0976,285.9016 365.4466,285.9016 C362.7956,285.9016 360.6466,283.7526 360.6466,281.1016 C360.6466,278.4506 362.7956,276.3016 365.4466,276.3016 C368.0976,276.3016 370.2466,278.4506 370.2466,281.1016" id="Fill-1934" fill="#CDD1DF"></path>
            <path d="M272.6465,313.1016 C272.6465,314.8696 271.2135,316.3016 269.4465,316.3016 C267.6795,316.3016 266.2465,314.8696 266.2465,313.1016 C266.2465,311.3336 267.6795,309.9016 269.4465,309.9016 C271.2135,309.9016 272.6465,311.3336 272.6465,313.1016" id="Fill-1936" fill="#CDD1DF"></path>
            <path d="M304.6465,313.1016 C304.6465,314.8696 303.2135,316.3016 301.4465,316.3016 C299.6795,316.3016 298.2465,314.8696 298.2465,313.1016 C298.2465,311.3336 299.6795,309.9016 301.4465,309.9016 C303.2135,309.9016 304.6465,311.3336 304.6465,313.1016" id="Fill-1938" fill="#CDD1DF"></path>
            <path d="M338.2466,313.1016 C338.2466,315.7526 336.0976,317.9016 333.4466,317.9016 C330.7956,317.9016 328.6466,315.7526 328.6466,313.1016 C328.6466,310.4506 330.7956,308.3016 333.4466,308.3016 C336.0976,308.3016 338.2466,310.4506 338.2466,313.1016" id="Fill-1940" fill="#CDD1DF"></path>
            <path d="M370.2466,313.1016 C370.2466,315.7526 368.0976,317.9016 365.4466,317.9016 C362.7956,317.9016 360.6466,315.7526 360.6466,313.1016 C360.6466,310.4506 362.7956,308.3016 365.4466,308.3016 C368.0976,308.3016 370.2466,310.4506 370.2466,313.1016" id="Fill-1942" fill="#CDD1DF"></path>
            <path d="M272.6465,345.1016 C272.6465,346.8696 271.2135,348.3016 269.4465,348.3016 C267.6795,348.3016 266.2465,346.8696 266.2465,345.1016 C266.2465,343.3336 267.6795,341.9016 269.4465,341.9016 C271.2135,341.9016 272.6465,343.3336 272.6465,345.1016" id="Fill-1944" fill="#CDD1DF"></path>
            <path d="M304.6465,345.1016 C304.6465,346.8696 303.2135,348.3016 301.4465,348.3016 C299.6795,348.3016 298.2465,346.8696 298.2465,345.1016 C298.2465,343.3336 299.6795,341.9016 301.4465,341.9016 C303.2135,341.9016 304.6465,343.3336 304.6465,345.1016" id="Fill-1946" fill="#CDD1DF"></path>
            <path d="M336.6465,345.1016 C336.6465,346.8696 335.2135,348.3016 333.4465,348.3016 C331.6795,348.3016 330.2465,346.8696 330.2465,345.1016 C330.2465,343.3336 331.6795,341.9016 333.4465,341.9016 C335.2135,341.9016 336.6465,343.3336 336.6465,345.1016" id="Fill-1948" fill="#CDD1DF"></path>
            <path d="M368.6465,345.1016 C368.6465,346.8696 367.2135,348.3016 365.4465,348.3016 C363.6795,348.3016 362.2465,346.8696 362.2465,345.1016 C362.2465,343.3336 363.6795,341.9016 365.4465,341.9016 C367.2135,341.9016 368.6465,343.3336 368.6465,345.1016" id="Fill-1950" fill="#CDD1DF"></path>
            <path d="M49.7144,486.9922 C46.8144,486.9922 45.2884,485.4682 44.0594,484.2412 C42.9144,483.0972 42.0094,482.1922 40.1034,482.1922 C38.1974,482.1922 37.2924,483.0972 36.1474,484.2412 C34.9194,485.4682 33.3924,486.9922 30.4924,486.9922 C27.5974,486.9922 26.0724,485.4682 24.8474,484.2412 C23.7034,483.0972 22.7984,482.1922 20.8974,482.1922 C18.9974,482.1922 18.0944,483.0962 16.9504,484.2412 C15.7254,485.4662 14.2004,486.9922 11.3054,486.9922 C8.4094,486.9922 6.8864,485.4662 5.6614,484.2412 C4.5174,483.0962 3.6144,482.1922 1.7144,482.1922 C1.0514,482.1922 0.5144,481.6552 0.5144,480.9922 C0.5144,480.3302 1.0514,479.7932 1.7144,479.7932 C4.6104,479.7932 6.1334,481.3192 7.3584,482.5442 C8.5024,483.6892 9.4054,484.5932 11.3054,484.5932 C13.2064,484.5932 14.1104,483.6872 15.2534,482.5442 C16.4784,481.3172 18.0024,479.7932 20.8974,479.7932 C23.7944,479.7932 25.3194,481.3192 26.5444,482.5442 C27.6884,483.6892 28.5904,484.5932 30.4924,484.5932 C32.3994,484.5932 33.3054,483.6872 34.4504,482.5432 C35.6784,481.3172 37.2054,479.7932 40.1034,479.7932 C43.0024,479.7932 44.5284,481.3172 45.7564,482.5432 C46.9014,483.6872 47.8084,484.5932 49.7144,484.5932 C50.3774,484.5932 50.9144,485.1302 50.9144,485.7932 C50.9144,486.4552 50.3774,486.9922 49.7144,486.9922" id="Fill-1952" fill="#CDD1DF"></path>
            <path d="M49.7144,499.793 C46.8144,499.793 45.2884,498.268 44.0594,497.041 C42.9144,495.897 42.0094,494.992 40.1034,494.992 C38.1974,494.992 37.2924,495.897 36.1474,497.041 C34.9194,498.268 33.3924,499.793 30.4924,499.793 C27.5974,499.793 26.0724,498.268 24.8474,497.041 C23.7034,495.897 22.7984,494.992 20.8974,494.992 C18.9974,494.992 18.0944,495.896 16.9504,497.041 C15.7254,498.266 14.2004,499.793 11.3054,499.793 C8.4094,499.793 6.8864,498.266 5.6614,497.041 C4.5174,495.896 3.6144,494.992 1.7144,494.992 C1.0514,494.992 0.5144,494.455 0.5144,493.793 C0.5144,493.13 1.0514,492.593 1.7144,492.593 C4.6104,492.593 6.1334,494.119 7.3584,495.344 C8.5024,496.489 9.4054,497.393 11.3054,497.393 C13.2064,497.393 14.1104,496.488 15.2534,495.344 C16.4784,494.117 18.0024,492.593 20.8974,492.593 C23.7944,492.593 25.3194,494.119 26.5444,495.344 C27.6884,496.489 28.5904,497.393 30.4924,497.393 C32.3994,497.393 33.3054,496.488 34.4504,495.343 C35.6784,494.117 37.2054,492.593 40.1034,492.593 C43.0024,492.593 44.5284,494.117 45.7564,495.343 C46.9014,496.488 47.8084,497.393 49.7144,497.393 C50.3774,497.393 50.9144,497.93 50.9144,498.593 C50.9144,499.255 50.3774,499.793 49.7144,499.793" id="Fill-1954" fill="#CDD1DF"></path>
            <path d="M49.7144,512.5928 C46.8144,512.5928 45.2884,511.0678 44.0594,509.8408 C42.9144,508.6968 42.0094,507.7928 40.1034,507.7928 C38.1974,507.7928 37.2924,508.6968 36.1474,509.8408 C34.9194,511.0678 33.3924,512.5928 30.4924,512.5928 C27.5974,512.5928 26.0724,511.0678 24.8474,509.8408 C23.7034,508.6968 22.7984,507.7928 20.8974,507.7928 C18.9974,507.7928 18.0944,508.6958 16.9504,509.8408 C15.7254,511.0668 14.2004,512.5928 11.3054,512.5928 C8.4094,512.5928 6.8864,511.0668 5.6614,509.8408 C4.5174,508.6958 3.6144,507.7928 1.7144,507.7928 C1.0514,507.7928 0.5144,507.2548 0.5144,506.5928 C0.5144,505.9298 1.0514,505.3928 1.7144,505.3928 C4.6104,505.3928 6.1334,506.9188 7.3584,508.1448 C8.5024,509.2888 9.4054,510.1928 11.3054,510.1928 C13.2064,510.1928 14.1104,509.2878 15.2534,508.1448 C16.4784,506.9178 18.0024,505.3928 20.8974,505.3928 C23.7944,505.3928 25.3194,506.9188 26.5444,508.1448 C27.6884,509.2888 28.5904,510.1928 30.4924,510.1928 C32.3994,510.1928 33.3054,509.2878 34.4504,508.1428 C35.6784,506.9178 37.2054,505.3928 40.1034,505.3928 C43.0024,505.3928 44.5284,506.9178 45.7564,508.1428 C46.9014,509.2878 47.8084,510.1928 49.7144,510.1928 C50.3774,510.1928 50.9144,510.7308 50.9144,511.3928 C50.9144,512.0548 50.3774,512.5928 49.7144,512.5928" id="Fill-1956" fill="#CDD1DF"></path>
            <path d="M49.7144,525.3926 C46.8144,525.3926 45.2884,523.8676 44.0594,522.6406 C42.9144,521.4966 42.0094,520.5926 40.1034,520.5926 C38.1974,520.5926 37.2924,521.4966 36.1474,522.6406 C34.9194,523.8676 33.3924,525.3926 30.4924,525.3926 C27.5974,525.3926 26.0724,523.8676 24.8474,522.6406 C23.7034,521.4966 22.7984,520.5926 20.8974,520.5926 C18.9974,520.5926 18.0944,521.4966 16.9504,522.6406 C15.7254,523.8666 14.2004,525.3926 11.3054,525.3926 C8.4094,525.3926 6.8864,523.8666 5.6614,522.6406 C4.5174,521.4966 3.6144,520.5926 1.7144,520.5926 C1.0514,520.5926 0.5144,520.0546 0.5144,519.3926 C0.5144,518.7306 1.0514,518.1926 1.7144,518.1926 C4.6104,518.1926 6.1334,519.7186 7.3584,520.9446 C8.5024,522.0896 9.4054,522.9926 11.3054,522.9926 C13.2064,522.9926 14.1104,522.0876 15.2534,520.9446 C16.4784,519.7176 18.0024,518.1926 20.8974,518.1926 C23.7944,518.1926 25.3194,519.7186 26.5444,520.9446 C27.6884,522.0896 28.5904,522.9926 30.4924,522.9926 C32.3994,522.9926 33.3054,522.0876 34.4504,520.9426 C35.6784,519.7176 37.2054,518.1926 40.1034,518.1926 C43.0024,518.1926 44.5284,519.7176 45.7564,520.9426 C46.9014,522.0876 47.8084,522.9926 49.7144,522.9926 C50.3774,522.9926 50.9144,523.5306 50.9144,524.1926 C50.9144,524.8556 50.3774,525.3926 49.7144,525.3926" id="Fill-1958" fill="#CDD1DF"></path>
            <path d="M336.2222,92.124 L317.0222,92.124 C317.0222,72.715 301.2312,56.924 281.8222,56.924 L281.8222,37.724 C311.8192,37.724 336.2222,62.127 336.2222,92.124" id="Fill-1960" fill="#CDD1DF"></path>
            <polygon id="Fill-1962" fill="#CDD1DF" points="17.7139 319.502 9.7139 327.502 1.7139 319.502 9.7139 311.502"></polygon>
            <polygon id="Fill-1964" fill="#CDD1DF" points="370.2466 516.1924 362.2466 524.1924 354.2466 516.1924 362.2466 508.1924"></polygon>
            <path d="M275.7246,695.9766 L280.8606,780.5156 L197.7696,780.5156 C197.7696,780.5156 193.4956,765.5716 199.1766,756.0986 C207.5136,742.1966 230.8216,743.5136 230.8216,743.5136 L226.9366,695.9766 L275.7246,695.9766 Z" id="Fill-1966" fill="#FFC4A3"></path>
            <path d="M138.249,695.9766 L132.324,780.5156 L52.393,780.5156 C52.393,780.5156 48.119,764.7816 53.8,755.3086 C62.137,741.4066 85.445,742.7236 85.445,742.7236 L89.461,695.9766 L138.249,695.9766 Z" id="Fill-1968" fill="#FFC4A3"></path>
            <path d="M134.354,751.5488 L101.445,745.8978 C101.445,745.8978 100.786,736.5208 94.55,736.5208 L85.978,736.5208 L85.445,742.7238 C85.445,742.7238 62.137,741.4058 53.8,755.3088 C48.119,764.7808 52.393,780.5158 52.393,780.5158 L132.324,780.5158 L134.354,751.5488 Z" id="Fill-1970" fill="#1D213A"></path>
            <path d="M279.1064,751.6406 L247.4794,745.8316 C247.4794,745.8316 246.2944,736.5206 239.9744,736.5206 L230.2504,736.5206 L230.8214,743.5136 C230.8214,743.5136 207.5134,742.1966 199.1764,756.0986 C193.4954,765.5716 197.7694,780.5156 197.7694,780.5156 L280.8604,780.5156 L279.1064,751.6406 Z" id="Fill-1972" fill="#1D213A"></path>
            <polygon id="Fill-1974" fill="#F99175" points="275.7246 695.9766 226.9366 695.9766 228.9446 720.5406 276.8506 714.5136"></polygon>
            <polygon id="Fill-1976" fill="#F99175" points="87.3691 720.3262 136.9991 713.8072 138.2491 695.9762 89.4611 695.9762"></polygon>
            <path d="M125.6299,105.4492 C104.4219,109.5572 82.0499,194.6402 82.0499,194.6402 L126.7929,207.8612 L125.6299,105.4492 Z" id="Fill-1978" fill="#1D213A"></path>
            <path d="M119.6821,249.1807 C119.6821,249.1807 101.0541,303.4587 84.9181,450.6537 C68.7211,598.4007 66.7461,708.2227 66.7461,708.2227 L156.8161,708.2227 L175.7781,426.9507 L201.8511,708.2227 L294.2921,708.2227 C294.2921,708.2227 289.3411,575.8907 269.0091,432.4817 C249.2571,293.1617 234.2451,249.1807 234.2451,249.1807 L119.6821,249.1807 Z" id="Fill-1980" fill="#D3D6E2"></path>
            <path d="M175.7769,427.75 C175.3599,427.75 175.0099,427.427 174.9799,427.005 L167.6729,319.205 C165.1509,318.349 154.8379,314.15 150.5299,301.586 C150.3859,301.169 150.6089,300.713 151.0269,300.57 C151.4429,300.424 151.8989,300.648 152.0429,301.067 C156.5939,314.343 168.5269,317.802 168.6479,317.836 C168.9739,317.927 169.2079,318.215 169.2319,318.552 L176.5769,426.896 C176.6069,427.336 176.2739,427.719 175.8329,427.75 C175.8149,427.75 175.7959,427.75 175.7769,427.75" id="Fill-1982" fill="#1D213A"></path>
            <path d="M235.6851,104.6387 C235.6851,104.6387 230.8211,179.3887 252.9441,258.9247 C252.9441,258.9247 223.8601,275.3537 169.4751,275.3557 C125.7391,275.3557 101.7731,258.9247 101.7731,258.9247 C122.3161,198.0877 125.6301,105.4497 125.6301,105.4497 C125.6301,105.4497 147.9441,100.8497 174.0011,99.9337 C200.2061,99.0117 235.6851,104.6387 235.6851,104.6387" id="Fill-1984" fill="#1D213A"></path>
            <path d="M118.2129,205.1924 C118.1659,205.1924 118.1189,205.1894 118.0719,205.1794 C117.6379,205.1034 117.3469,204.6894 117.4239,204.2544 C121.0189,183.8674 123.8789,161.3114 125.9209,137.2084 C125.9579,136.7674 126.4009,136.4604 126.7849,136.4784 C127.2259,136.5154 127.5519,136.9024 127.5149,137.3424 C125.4689,161.4944 122.6039,184.0984 118.9989,204.5314 C118.9299,204.9194 118.5929,205.1924 118.2129,205.1924" id="Fill-1986" fill="#E8EAEF"></path>
            <path d="M164.8159,221.3447 C164.8159,221.3447 162.3319,214.0897 160.1739,210.7067 C156.6189,205.1327 152.0759,205.4287 146.5449,203.4537 C141.0149,201.4787 136.0769,199.0097 133.3109,200.9187 C131.3499,202.2737 130.8249,207.2067 135.4839,210.8197 C139.9699,214.2967 145.8869,215.0087 145.8869,215.0087 L145.0359,221.4067 L164.8159,221.3447 Z" id="Fill-1988" fill="#FFC4A3"></path>
            <path d="M64.1802,149.1611 C64.1802,149.1611 68.1882,180.0441 72.4312,207.8611 L115.9272,207.8611 C115.9272,207.8611 104.8732,151.1631 95.4722,134.7971 C86.0462,118.3861 76.3542,113.6651 64.8292,115.0261 C56.1142,116.0571 52.6292,120.4591 52.6292,120.4591 C52.6292,120.4591 47.6192,119.7531 43.7292,123.5241 C38.5232,128.5731 37.2362,139.4371 39.7222,148.1591 C42.3302,157.3091 53.7732,155.4781 52.4842,147.1611 C51.3912,140.1151 51.9802,138.0821 51.9802,138.0821 L64.1802,149.1611 Z" id="Fill-1990" fill="#FFC4A3"></path>
            <path d="M52.6289,120.459 C47.5899,127.385 45.2919,138.17 46.9709,147.541 C48.5179,156.168 60.2319,155.144 60.0549,146.215 C59.8779,137.286 62.7959,129.507 65.8009,126.678 L52.6289,120.459 Z" id="Fill-1992" fill="#FFC4A3"></path>
            <path d="M50.7065,153.6445 C50.5895,153.6445 50.4705,153.6195 50.3585,153.5645 C48.1535,152.4945 46.6705,150.4065 46.1835,147.6815 C44.4865,138.2155 46.8155,127.0875 51.9815,119.9885 C52.2415,119.6285 52.7425,119.5535 53.0985,119.8115 C53.4565,120.0705 53.5345,120.5725 53.2755,120.9285 C48.3505,127.6995 46.1335,138.3355 47.7585,147.4005 C48.1535,149.6065 49.3255,151.2855 51.0555,152.1235 C51.4535,152.3175 51.6195,152.7955 51.4265,153.1925 C51.2885,153.4785 51.0035,153.6445 50.7065,153.6445" id="Fill-1994" fill="#1D213A"></path>
            <path d="M60.2598,167.0762 L56.9188,171.5992 C56.5368,172.1162 55.7188,171.8972 55.6478,171.2592 L55.0158,165.6712 C54.7778,163.5602 54.9368,161.4242 55.4868,159.3722 L73.0548,93.8082 C73.6088,91.7412 75.7338,90.5142 77.8018,91.0682 L77.8288,91.0762 C79.8958,91.6302 81.1228,93.7552 80.5688,95.8222 L63.0018,161.3862 C62.4518,163.4372 61.5218,165.3682 60.2598,167.0762" id="Fill-1996" fill="#E8EAEF"></path>
            <path d="M83.1284,132.1807 C83.1284,132.1807 67.9884,130.3517 61.1154,132.3347 C54.2424,134.3197 53.8554,143.6717 61.5574,144.3587 C68.8984,145.0117 73.8524,144.9197 73.8524,144.9197 L79.9454,150.4577 L83.1284,132.1807 Z" id="Fill-1998" fill="#FFC4A3"></path>
            <path d="M78.7974,154.291 C78.7194,154.291 78.6394,154.28 78.5594,154.255 C71.5514,152.075 70.0614,147.488 69.7444,145.663 C67.7554,145.598 64.8774,145.457 61.4874,145.155 C57.1474,144.77 55.3424,141.955 55.1004,139.45 C54.8114,136.447 56.7084,132.773 60.8944,131.566 C67.8454,129.562 82.5984,131.312 83.2234,131.387 C83.6634,131.439 83.9754,131.838 83.9224,132.275 C83.8704,132.715 83.4484,133.043 83.0334,132.974 C82.8814,132.957 67.9724,131.187 61.3384,133.104 C57.9894,134.069 56.4674,136.95 56.6944,139.297 C56.9264,141.713 58.7724,143.307 61.6284,143.562 C65.3954,143.895 68.5204,144.031 70.4804,144.085 C70.9064,144.098 71.2504,144.442 71.2584,144.869 C71.2644,145.09 71.5084,150.388 79.0344,152.727 C79.4564,152.858 79.6924,153.307 79.5614,153.729 C79.4554,154.07 79.1374,154.291 78.7974,154.291" id="Fill-2000" fill="#1D213A"></path>
            <path d="M149.8315,278.2695 L68.2725,278.2695 C64.6475,278.2695 61.4875,275.8015 60.6075,272.2855 L38.5395,184.0095 C37.6665,180.5195 40.3065,177.1375 43.9045,177.1375 L125.4635,177.1375 C129.0885,177.1375 132.2485,179.6055 133.1285,183.1225 L155.1975,271.3975 C156.0695,274.8875 153.4295,278.2695 149.8315,278.2695" id="Fill-2002" fill="#E8EAEF"></path>
            <path d="M145.6504,278.9658 C145.2664,278.9658 144.9534,278.6538 144.9534,278.2698 C144.9534,277.8848 145.2664,277.5718 145.6504,277.5718 C147.1504,277.5718 148.5394,276.8948 149.4614,275.7128 C150.3834,274.5308 150.7034,273.0208 150.3394,271.5668 L128.2704,183.2908 C127.4694,180.0778 124.5954,177.8348 121.2834,177.8348 C120.8994,177.8348 120.5864,177.5228 120.5864,177.1378 C120.5864,176.7538 120.8994,176.4418 121.2834,176.4418 C125.2364,176.4418 128.6664,179.1188 129.6244,182.9528 L151.6924,271.2288 C152.1614,273.1008 151.7474,275.0488 150.5594,276.5698 C149.3704,278.0928 147.5814,278.9658 145.6504,278.9658" id="Fill-2004" fill="#1D213A"></path>
            <path d="M230.9829,266.8242 C192.3319,263.5062 162.4659,254.1822 162.4659,254.1822 C162.4659,254.1822 146.5059,254.4352 133.5169,251.8122 C113.1009,247.6722 110.5419,243.4372 110.0989,240.4032 C109.5929,237.0532 112.0899,235.8522 112.0899,235.8522 C104.5679,234.3032 105.1059,224.9182 112.5639,225.3912 C120.7809,225.8652 131.7479,225.7392 131.7479,225.7392 C131.7479,225.7392 121.2229,223.9372 113.2589,220.7462 C104.1889,217.0802 107.2229,208.5472 115.4719,210.1902 C128.2079,212.7812 151.4679,214.7102 151.4679,214.7102 L164.8049,221.3462 C193.8169,218.5332 214.6119,216.9852 226.5259,216.1952 C230.8569,221.6942 234.7429,229.2472 235.6289,239.2022 C236.7029,251.0532 234.2379,260.1872 230.9829,266.8242" id="Fill-2006" fill="#FFC4A3"></path>
            <path d="M212.2959,264.6953 C218.2169,265.5243 224.4599,266.2633 230.9829,266.8243 C234.2379,260.1873 236.7029,251.0533 235.6289,239.2023 C234.7429,229.2473 230.8569,221.6943 226.5259,216.1953 C223.0939,216.4233 218.8999,216.7163 214.0089,217.0813 C214.0619,217.1693 222.1909,230.8023 220.3539,244.4543 C218.6939,256.7813 212.3889,264.5813 212.2959,264.6953" id="Fill-2008" fill="#F99175"></path>
            <path d="M264.0054,267.8789 C296.2674,267.0369 305.9954,253.3639 295.5504,220.1279 C278.8204,166.8939 252.9434,107.4399 235.6854,104.6389 L213.5054,154.6539 L238.3934,215.4839 C238.3934,215.4839 230.0664,215.8729 214.0054,217.0729 C214.0174,217.0819 225.1594,223.9779 227.3324,240.3719 C229.4404,256.2749 219.3274,265.5829 219.2974,265.6119 C233.0304,267.2599 248.2954,268.2889 264.0054,267.8789" id="Fill-2010" fill="#1D213A"></path>
            <path d="M214.0034,217.874 C213.5894,217.874 213.2394,217.554 213.2064,217.133 C213.1734,216.692 213.5044,216.309 213.9454,216.275 C226.5254,215.336 234.4364,214.89 237.2274,214.741 L212.7644,154.957 C212.5974,154.547 212.7924,154.08 213.2024,153.913 C213.6164,153.747 214.0784,153.941 214.2454,154.351 L239.1344,215.18 C239.2334,215.421 239.2084,215.694 239.0694,215.913 C238.9284,216.133 238.6904,216.27 238.4314,216.281 C238.3484,216.286 229.9264,216.687 214.0644,217.872 C214.0444,217.874 214.0244,217.874 214.0034,217.874" id="Fill-2012" fill="#E8EAEF"></path>
            <path d="M238.3926,216.2832 C237.9766,216.2832 237.6266,215.9612 237.5956,215.5412 C237.5646,215.1002 237.8956,214.7182 238.3366,214.6842 C250.9836,213.7722 263.9266,213.5022 264.0566,213.4992 C264.4966,213.5542 264.8616,213.8412 264.871808,214.2832 C264.8816,214.7232 264.5306,215.0902 264.0876,215.0982 C263.9596,215.1012 251.0556,215.3712 238.4526,216.2812 C238.4316,216.2832 238.4136,216.2832 238.3926,216.2832" id="Fill-2014" fill="#E8EAEF"></path>
            <path d="M135.394,15.415 C135.394,15.415 125.4,17.312 122.997,28.571 C120.876,38.503 126.413,48.969 131.852,52.101 L135.394,15.415 Z" id="Fill-2016" fill="#825656"></path>
            <path d="M150.7588,44.0205 L151.0848,102.5785 C151.0848,102.5785 154.3148,110.7835 168.6678,111.7055 C188.1818,112.9585 199.3508,101.5405 199.3508,101.5405 L189.2808,41.0235 L150.7588,44.0205 Z" id="Fill-2018" fill="#FFC4A3"></path>
            <path d="M151.0132,89.7061 C158.0802,89.0741 163.4692,85.8091 163.4692,85.8091 L159.4862,43.3421 L150.7592,44.0201 L151.0132,89.7061 Z" id="Fill-2020" fill="#F99175"></path>
            <path d="M114.7441,154.7891 C114.3021,154.7891 113.9441,154.4321 113.9441,153.9891 C113.9441,153.7771 114.0111,132.4211 119.8901,105.2801 C126.1471,76.3751 141.0541,59.0861 141.2031,58.9141 C141.4941,58.5801 142.0001,58.5491 142.3311,58.8401 C142.6641,59.1301 142.6971,59.6351 142.4071,59.9681 C142.2601,60.1371 127.6191,77.1411 121.4521,105.6171 C115.6131,132.5821 115.5441,153.7781 115.5441,153.9891 C115.5441,154.4321 115.1861,154.7891 114.7441,154.7891" id="Fill-2022" fill="#825656"></path>
            <path d="M139.625,153.9736 C139.625,153.9736 139.721,137.7176 136.233,137.7176 C132.745,137.7176 132.425,153.9736 132.425,153.9736 L118.697,153.9736 C121.161,80.0216 140.329,59.1896 140.329,59.1896 L152.713,59.1896 L157.961,153.9736 L139.625,153.9736 Z" id="Fill-2024" fill="#825656"></path>
            <path d="M170.9727,13.54 C170.9727,13.54 141.3397,8.457 131.7567,25.285 C125.3117,36.603 129.3057,61.091 140.8177,75.638 C153.9497,92.233 179.7737,87.375 183.6307,70.14 C188.6187,47.853 170.9727,13.54 170.9727,13.54" id="Fill-2026" fill="#FFC4A3"></path>
            <path d="M173.2114,177.9141 C172.7694,177.9141 172.4114,177.5571 172.4114,177.1141 C172.4114,176.6451 172.4394,129.9051 174.9164,99.7661 C177.3984,69.5471 186.3974,45.6971 186.4874,45.4601 C186.6474,45.0471 187.1024,44.8431 187.5204,44.9991 C187.9334,45.1551 188.1394,45.6171 187.9814,46.0311 C187.8924,46.2661 178.9734,69.9161 176.5094,99.8971 C174.0394,129.9711 174.0114,176.6471 174.0114,177.1141 C174.0114,177.5571 173.6534,177.9141 173.2114,177.9141" id="Fill-2028" fill="#825656"></path>
            <path d="M151.6812,15.415 C151.6812,15.415 168.7282,18.317 181.1442,39.917 L185.7742,38.997 L178.6272,13.54 C178.6272,13.54 164.7182,10.258 151.6812,15.415" id="Fill-2030" fill="#825656"></path>
            <path d="M224.3931,177.1094 L211.9771,177.1094 C211.9771,177.1094 211.9771,157.4294 208.1691,157.4294 C204.3611,157.4294 204.6811,177.1094 204.6811,177.1094 L176.7771,177.1094 C176.7771,177.1094 175.9771,141.8134 177.7051,110.0694 C179.4011,78.6454 184.5211,49.3334 184.5211,49.3334 L174.1531,14.5174 L166.8251,13.8134 C166.8251,13.8134 160.9371,22.8374 148.5531,24.8534 C136.1691,26.8374 127.8171,23.5734 127.0171,17.6214 C126.0891,10.9014 137.7691,1.5884 155.8811,0.2774 C175.7531,-1.1946 191.7531,9.4614 204.2331,32.6294 C217.5131,57.2694 221.8011,83.1574 223.5931,117.5254 C224.8411,141.9734 224.3931,177.1094 224.3931,177.1094" id="Fill-2032" fill="#825656"></path>
            <path d="M132.5239,239.9863 C132.4989,239.9863 132.4759,239.9843 132.4519,239.9833 C131.9049,239.9343 118.9879,238.7673 111.8579,236.6173 C111.4349,236.4913 111.1959,236.0443 111.3239,235.6213 C111.4519,235.1993 111.8929,234.9583 112.3209,235.0863 C119.2929,237.1873 132.4619,238.3773 132.5929,238.3893 C133.0329,238.4283 133.3579,238.8173 133.3189,239.2573 C133.2819,239.6743 132.9329,239.9863 132.5239,239.9863" id="Fill-2034" fill="#1D213A"></path>
            <path d="M147.9131,215.1943 C147.8041,215.1943 147.6911,215.1723 147.5851,215.1243 C144.7101,213.8333 140.9851,214.4753 140.9471,214.4813 C140.5241,214.5533 140.0991,214.2693 140.0191,213.8353 C139.9411,213.4003 140.2301,212.9843 140.6641,212.9063 C140.8381,212.8753 144.9111,212.1693 148.2411,213.6643 C148.6441,213.8453 148.8241,214.3193 148.6421,214.7223 C148.5101,215.0193 148.2181,215.1943 147.9131,215.1943" id="Fill-2036" fill="#1D213A"></path>
            <path d="M133.0254,771.3018 L50.9094,771.3018 C50.4674,771.3018 50.1094,770.9448 50.1094,770.5018 C50.1094,770.0598 50.4674,769.7018 50.9094,769.7018 L133.0254,769.7018 C133.4674,769.7018 133.8254,770.0598 133.8254,770.5018 C133.8254,770.9448 133.4674,771.3018 133.0254,771.3018" id="Fill-2038" fill="#E8EAEF"></path>
            <path d="M280.252,771.3018 L196.265,771.3018 C195.822,771.3018 195.464,770.9448 195.464,770.5018 C195.464,770.0598 195.822,769.7018 196.265,769.7018 L280.252,769.7018 C280.694,769.7018 281.052,770.0598 281.052,770.5018 C281.052,770.9448 280.694,771.3018 280.252,771.3018" id="Fill-2040" fill="#E8EAEF"></path>
            <path d="M228.9131,177.9375 L228.9001,177.9375 C228.4581,177.9295 228.1061,177.5665 228.1131,177.1255 C228.1191,176.7575 228.6631,140.0285 225.1531,103.3475 C221.6911,67.1675 212.1551,41.8405 195.1441,23.6445 C194.8431,23.3205 194.8601,22.8145 195.1821,22.5125 C195.5071,22.2105 196.0101,22.2305 196.3131,22.5505 C213.5791,41.0195 223.2491,66.6445 226.7471,103.1945 C230.2651,139.9675 229.7191,176.7835 229.7131,177.1505 C229.7051,177.5875 229.3491,177.9375 228.9131,177.9375" id="Fill-2042" fill="#825656"></path>
            <path d="M142.4053,28.9883 L142.4003,28.9883 C130.4603,28.9863 129.0783,19.9103 129.0663,19.8173 C129.0053,19.3823 129.3113,18.9803 129.7473,18.9193 C130.1803,18.8633 130.5883,19.1613 130.6503,19.5983 C130.6963,19.9163 131.8943,27.3863 142.4003,27.3873 L142.4033,27.3873 C156.0953,27.3873 163.8013,19.2473 163.8783,19.1663 C164.1783,18.8423 164.6883,18.8223 165.0083,19.1243 C165.3313,19.4243 165.3523,19.9293 165.0503,20.2543 C164.7203,20.6093 156.7843,28.9883 142.4053,28.9883" id="Fill-2044" fill="#825656"></path>
            <path d="M234.5488,749.8535 C234.1818,749.8535 233.8508,749.6005 233.7678,749.2265 C232.9188,745.4065 230.5898,744.2885 230.4908,744.2415 C230.0908,744.0565 229.9128,743.5825 230.0958,743.1835 C230.2738,742.7835 230.7388,742.6015 231.1458,742.7815 C231.2738,742.8375 234.2958,744.2285 235.3298,748.8795 C235.4248,749.3115 235.1528,749.7385 234.7218,749.8345 C234.6648,749.8475 234.6048,749.8535 234.5488,749.8535" id="Fill-2046" fill="#E8EAEF"></path>
            <path d="M227.7534,749.8535 C227.3774,749.8535 227.0424,749.5855 226.9694,749.2035 C226.2534,745.4335 224.0454,744.4925 223.9524,744.4535 C223.5454,744.2885 223.3444,743.8255 223.5064,743.4175 C223.6674,743.0065 224.1224,742.8065 224.5314,742.9625 C224.6594,743.0115 227.6494,744.2095 228.5414,748.9035 C228.6244,749.3375 228.3374,749.7565 227.9054,749.8395 C227.8534,749.8485 227.8034,749.8535 227.7534,749.8535" id="Fill-2048" fill="#E8EAEF"></path>
            <path d="M220.0894,749.8535 C219.6984,749.8535 219.3584,749.5675 219.2984,749.1685 C218.8614,746.1795 217.2254,745.5205 217.1564,745.4945 C216.7494,745.3375 216.5344,744.8815 216.6844,744.4705 C216.8334,744.0595 217.2804,743.8405 217.6914,743.9865 C217.7974,744.0235 220.2964,744.9295 220.8834,748.9375 C220.9474,749.3745 220.6444,749.7815 220.2064,749.8455 C220.1674,749.8505 220.1284,749.8535 220.0894,749.8535" id="Fill-2050" fill="#E8EAEF"></path>
            <path d="M88.1377,749.1562 C87.7267,749.1562 87.3767,748.8412 87.3427,748.4242 C87.0357,744.7422 85.1007,743.4532 85.0177,743.4002 C84.6507,743.1612 84.5377,742.6692 84.7727,742.2992 C85.0087,741.9262 85.5007,741.8142 85.8667,742.0442 C85.9767,742.1112 88.5597,743.7602 88.9367,748.2892 C88.9737,748.7302 88.6457,749.1172 88.2067,749.1532 C88.1827,749.1552 88.1607,749.1562 88.1377,749.1562" id="Fill-2052" fill="#E8EAEF"></path>
            <path d="M80.3862,749.1562 C79.9782,749.1562 79.6282,748.8442 79.5912,748.4282 C79.2862,745.0672 77.3922,743.7472 77.3112,743.6922 C76.9472,743.4452 76.8482,742.9502 77.0932,742.5852 C77.3382,742.2192 77.8222,742.1162 78.1942,742.3582 C78.3002,742.4272 80.8052,744.1142 81.1842,748.2852 C81.2252,748.7232 80.9002,749.1132 80.4602,749.1532 C80.4362,749.1552 80.4112,749.1562 80.3862,749.1562" id="Fill-2054" fill="#E8EAEF"></path>
            <path d="M72.2861,749.1562 C71.9001,749.1562 71.5611,748.8772 71.4991,748.4832 C71.1201,746.1362 69.8381,744.9732 69.8251,744.9612 C69.4951,744.6692 69.4631,744.1642 69.7521,743.8352 C70.0421,743.5042 70.5411,743.4662 70.8751,743.7552 C70.9461,743.8142 72.6021,745.2752 73.0771,748.2302 C73.1471,748.6662 72.8521,749.0772 72.4141,749.1472 C72.3721,749.1532 72.3281,749.1562 72.2861,749.1562" id="Fill-2056" fill="#E8EAEF"></path>
            <path d="M133.3828,55.6084 C133.3828,56.7184 134.2828,57.6194 135.3938,57.6194 C136.5048,57.6194 137.4048,56.7184 137.4048,55.6084 C137.4048,54.4974 136.5048,53.5964 135.3938,53.5964 C134.2828,53.5964 133.3828,54.4974 133.3828,55.6084" id="Fill-2058" fill="#1D213A"></path>
            <path d="M157.3174,52.1006 C157.3174,53.2106 158.2174,54.1116 159.3284,54.1116 C160.4394,54.1116 161.3394,53.2106 161.3394,52.1006 C161.3394,50.9896 160.4394,50.0886 159.3284,50.0886 C158.2174,50.0886 157.3174,50.9896 157.3174,52.1006" id="Fill-2060" fill="#1D213A"></path>
            <path d="M153.0845,41.5908 C153.8485,42.0278 156.0205,40.8448 159.3445,40.6678 C163.0105,40.4728 165.2395,41.6908 165.6675,40.9208 C166.0055,40.3138 163.6985,39.0348 159.2915,39.2668 C154.8855,39.5038 152.2805,41.1758 153.0845,41.5908" id="Fill-2062" fill="#825656"></path>
            <path d="M136.2842,43.7695 C135.8762,44.2745 133.9272,44.9175 131.9312,45.6615 C129.9242,46.3745 128.0182,47.1335 127.3812,47.0095 C126.7202,46.9105 128.3342,45.3775 131.4512,44.2415 C134.5702,43.1085 136.7262,43.2675 136.2842,43.7695" id="Fill-2064" fill="#825656"></path>
            <path d="M159.8174,43.2051 C155.2624,43.2051 151.5584,46.9101 151.5584,51.4631 C151.5584,56.0181 155.2624,59.7231 159.8174,59.7231 C164.3704,59.7231 168.0754,56.0181 168.0754,51.4631 C168.0754,46.9101 164.3704,43.2051 159.8174,43.2051 M159.8174,61.3221 C154.3814,61.3221 149.9584,56.8981 149.9584,51.4631 C149.9584,46.0271 154.3814,41.6051 159.8174,41.6051 C165.2534,41.6051 169.6754,46.0271 169.6754,51.4631 C169.6754,56.8981 165.2534,61.3221 159.8174,61.3221" id="Fill-2066" fill="#1D213A"></path>
            <path d="M135.7471,47.458 C131.5791,47.458 128.1861,51.163 128.1861,55.716 C128.1861,60.27 131.5791,63.974 135.7471,63.974 C139.9171,63.974 143.3091,60.27 143.3091,55.716 C143.3091,51.163 139.9171,47.458 135.7471,47.458 M135.7471,65.574 C130.6961,65.574 126.5861,61.152 126.5861,55.716 C126.5861,50.28 130.6961,45.858 135.7471,45.858 C140.7991,45.858 144.9101,50.28 144.9101,55.716 C144.9101,61.152 140.7991,65.574 135.7471,65.574" id="Fill-2068" fill="#1D213A"></path>
            <path d="M145.8833,65.5391 C145.4163,65.5391 144.9533,65.4801 144.5073,65.3531 C142.9193,64.9051 141.8723,63.7081 141.7083,62.1531 C141.6023,61.1411 141.8523,60.2421 142.4303,59.5541 C143.0613,58.8021 143.9363,58.4531 144.5643,58.2941 L144.9833,54.0221 C145.0313,53.5231 145.4603,53.1521 145.9733,53.2101 C146.4703,53.2581 146.8353,53.7021 146.7863,54.2001 L146.3003,59.1531 C146.2573,59.5931 145.9023,59.9371 145.4613,59.9681 C145.1613,59.9921 144.2673,60.1771 143.8133,60.7241 C143.5553,61.0351 143.4553,61.4411 143.5113,61.9631 C143.6273,63.0621 144.4923,63.4681 144.9993,63.6091 C146.2193,63.9531 148.0943,63.5781 149.3453,61.9521 C149.6553,61.5521 150.2253,61.4801 150.6163,61.7851 C151.0123,62.0911 151.0883,62.6581 150.7833,63.0551 C149.5783,64.6221 147.6983,65.5391 145.8833,65.5391" id="Fill-2070" fill="#F99175"></path>
            <path d="M143.5303,53.1992 C143.3583,53.1992 143.1863,53.1442 143.0413,53.0302 C142.6983,52.7622 142.6283,52.2732 142.8913,51.9262 C142.9863,51.7992 143.8913,50.6722 146.1763,50.2342 C148.8723,49.7252 151.0073,50.6972 151.0973,50.7382 C151.4953,50.9262 151.6673,51.3982 151.4833,51.7992 C151.2973,52.1952 150.8253,52.3722 150.4223,52.1892 C150.4053,52.1812 148.6553,51.3922 146.4773,51.8062 C144.8053,52.1272 144.1863,52.8672 144.1593,52.8982 C144.0003,53.0952 143.7663,53.1992 143.5303,53.1992" id="Fill-2072" fill="#1D213A"></path>
            <path d="M166.3428,45.9844 C166.0328,45.9844 165.7378,45.8034 165.6088,45.5004 C165.4328,45.0954 165.6208,44.6254 166.0268,44.4504 C166.7788,44.1274 184.4848,36.5074 188.4688,35.0974 C190.1288,34.5144 191.6758,34.5984 193.0628,35.3554 C196.2338,37.0854 197.3638,41.7424 197.4108,41.9394 C197.5128,42.3694 197.2468,42.8004 196.8178,42.9024 C196.3758,42.9974 195.9568,42.7364 195.8548,42.3084 C195.8438,42.2674 194.8368,38.1424 192.2938,36.7574 C191.3048,36.2184 190.2298,36.1714 189.0038,36.6064 C185.0678,37.9994 166.8428,45.8404 166.6578,45.9194 C166.5548,45.9644 166.4488,45.9844 166.3428,45.9844" id="Fill-2074" fill="#1D213A"></path>
            <path d="M178.0522,41.8906 C178.0522,41.8906 181.6062,35.0976 187.5642,37.0136 C193.3532,38.8746 194.4262,49.6876 190.3952,53.4736 C186.0502,57.5556 180.9832,55.8876 180.9832,55.8876 L178.0522,41.8906 Z" id="Fill-2076" fill="#FFC4A3"></path>
            <path d="M181.6084,48.0518 C181.5874,48.0518 181.5674,48.0518 181.5474,48.0508 C181.1064,48.0158 180.7754,47.6328 180.8084,47.1928 C181.0424,44.0798 182.8174,42.7208 184.2664,42.1288 C185.7784,41.5098 187.2274,41.6138 187.2954,41.6148 C187.7344,41.6488 188.0634,42.0308 188.0314,42.4708 C187.9994,42.9098 187.6084,43.2068 187.1764,43.2108 C186.7284,43.1718 182.7254,43.0308 182.4054,47.3118 C182.3724,47.7318 182.0224,48.0518 181.6084,48.0518" id="Fill-2078" fill="#1D213A"></path>
            <path d="M153.3662,71.2031 C151.8172,71.2031 150.9442,70.4841 150.8972,70.4451 C150.5612,70.1601 150.5172,69.6551 150.8032,69.3171 C151.0862,68.9831 151.5852,68.9411 151.9212,69.2161 C151.9732,69.2571 152.8352,69.8871 154.4282,69.4531 C156.0172,69.0231 156.3252,67.4801 156.3282,67.4651 C156.4092,67.0281 156.8302,66.7461 157.2622,66.8271 C157.6972,66.9081 157.9832,67.3271 157.9002,67.7621 C157.8822,67.8641 157.3922,70.3081 154.8472,70.9971 C154.3002,71.1451 153.8062,71.2031 153.3662,71.2031" id="Fill-2080" fill="#1D213A"></path>
            <path d="M99.6553,227.7031 C99.6553,231.5521 96.5353,234.6711 92.6873,234.6711 C88.8393,234.6711 85.7193,231.5521 85.7193,227.7031 C85.7193,223.8551 88.8393,220.7361 92.6873,220.7361 C96.5353,220.7361 99.6553,223.8551 99.6553,227.7031" id="Fill-2082" fill="#F3F4F7"></path>
            <path d="M135.5693,154.7891 C135.1373,154.7891 134.7833,154.4471 134.7693,154.0151 C134.4723,144.2441 135.4263,133.0671 135.4363,132.9571 C135.4733,132.5161 135.8803,132.1921 136.3013,132.2281 C136.7423,132.2661 137.0673,132.6531 137.0303,133.0941 C137.0203,133.2051 136.0733,144.2911 136.3693,153.9651 C136.3813,154.4061 136.0343,154.7751 135.5943,154.7891 L135.5693,154.7891 Z" id="Fill-2084" fill="#825656"></path>
            <path d="M208.7705,177.9102 C208.7505,177.9102 208.7295,177.9102 208.7085,177.9082 C208.2675,177.8742 207.9375,177.4892 207.9705,177.0492 C208.8545,165.3442 207.4875,153.0382 207.4735,152.9162 C207.4235,152.4762 207.7395,152.0802 208.1785,152.0302 C208.6125,151.9752 209.0125,152.2962 209.0645,152.7342 C209.0785,152.8592 210.4625,165.3162 209.5675,177.1712 C209.5345,177.5902 209.1845,177.9102 208.7705,177.9102" id="Fill-2086" fill="#825656"></path>
        </g>
    </g>
</svg>