<?xml version="1.0" encoding="UTF-8"?>
<svg width="584px" height="672px" viewBox="0 0 584 672" version="1.1" xmlns="http://www.w3.org/2000/svg" xmlns:xlink="http://www.w3.org/1999/xlink">
    <title>Illustration 19 0</title>
    <g id="🤩-Illustrations" stroke="none" stroke-width="1" fill="none" fill-rule="evenodd">
        <g id="Illustration-19">
            <path d="M184.5488,383.4844 C181.6508,383.4844 180.1228,381.9594 178.8958,380.7344 C177.7498,379.5884 176.8438,378.6844 174.9378,378.6844 C173.0308,378.6844 172.1268,379.5884 170.9818,380.7324 C169.7528,381.9594 168.2268,383.4844 165.3258,383.4844 C162.4318,383.4844 160.9058,381.9594 159.6818,380.7324 C158.5368,379.5874 157.6348,378.6844 155.7328,378.6844 C153.8308,378.6844 152.9278,379.5874 151.7838,380.7324 C150.5598,381.9594 149.0338,383.4844 146.1388,383.4844 C143.2438,383.4844 141.7208,381.9584 140.4948,380.7324 C139.3518,379.5874 138.4478,378.6844 136.5488,378.6844 C135.8858,378.6844 135.3488,378.1464 135.3488,377.4844 C135.3488,376.8214 135.8858,376.2844 136.5488,376.2844 C139.4438,376.2844 140.9668,377.8104 142.1928,379.0364 C143.3358,380.1804 144.2388,381.0844 146.1388,381.0844 C148.0408,381.0844 148.9438,380.1804 150.0878,379.0364 C151.3128,377.8094 152.8378,376.2844 155.7328,376.2844 C158.6278,376.2844 160.1528,377.8094 161.3778,379.0364 C162.5218,380.1804 163.4248,381.0844 165.3258,381.0844 C167.2328,381.0844 168.1388,380.1794 169.2838,379.0344 C170.5128,377.8094 172.0388,376.2844 174.9378,376.2844 C177.8378,376.2844 179.3638,377.8094 180.5918,379.0364 C181.7368,380.1794 182.6428,381.0844 184.5488,381.0844 C185.2108,381.0844 185.7478,381.6224 185.7478,382.2844 C185.7478,382.9464 185.2108,383.4844 184.5488,383.4844" id="Fill-2786" fill="#CDD1DF"></path>
            <path d="M184.5488,396.2842 C181.6508,396.2842 180.1228,394.7592 178.8958,393.5342 C177.7498,392.3882 176.8438,391.4842 174.9378,391.4842 C173.0308,391.4842 172.1268,392.3882 170.9818,393.5322 C169.7528,394.7592 168.2268,396.2842 165.3258,396.2842 C162.4318,396.2842 160.9058,394.7592 159.6818,393.5322 C158.5368,392.3882 157.6348,391.4842 155.7328,391.4842 C153.8308,391.4842 152.9278,392.3882 151.7838,393.5322 C150.5598,394.7592 149.0338,396.2842 146.1388,396.2842 C143.2438,396.2842 141.7208,394.7582 140.4948,393.5322 C139.3518,392.3882 138.4478,391.4842 136.5488,391.4842 C135.8858,391.4842 135.3488,390.9462 135.3488,390.2842 C135.3488,389.6222 135.8858,389.0842 136.5488,389.0842 C139.4438,389.0842 140.9668,390.6102 142.1928,391.8362 C143.3358,392.9812 144.2388,393.8842 146.1388,393.8842 C148.0408,393.8842 148.9438,392.9812 150.0878,391.8362 C151.3128,390.6092 152.8378,389.0842 155.7328,389.0842 C158.6278,389.0842 160.1528,390.6092 161.3778,391.8362 C162.5218,392.9812 163.4248,393.8842 165.3258,393.8842 C167.2328,393.8842 168.1388,392.9792 169.2838,391.8342 C170.5128,390.6092 172.0388,389.0842 174.9378,389.0842 C177.8378,389.0842 179.3638,390.6092 180.5918,391.8362 C181.7368,392.9792 182.6428,393.8842 184.5488,393.8842 C185.2108,393.8842 185.7478,394.4222 185.7478,395.0842 C185.7478,395.7472 185.2108,396.2842 184.5488,396.2842" id="Fill-2788" fill="#CDD1DF"></path>
            <path d="M184.5488,409.084 C181.6508,409.084 180.1228,407.56 178.8958,406.334 C177.7498,405.188 176.8438,404.284 174.9378,404.284 C173.0308,404.284 172.1268,405.188 170.9818,406.333 C169.7528,407.56 168.2268,409.084 165.3258,409.084 C162.4318,409.084 160.9058,407.56 159.6818,406.333 C158.5368,405.188 157.6348,404.284 155.7328,404.284 C153.8308,404.284 152.9278,405.188 151.7838,406.333 C150.5598,407.56 149.0338,409.084 146.1388,409.084 C143.2438,409.084 141.7208,407.558 140.4948,406.333 C139.3518,405.188 138.4478,404.284 136.5488,404.284 C135.8858,404.284 135.3488,403.747 135.3488,403.084 C135.3488,402.422 135.8858,401.884 136.5488,401.884 C139.4438,401.884 140.9668,403.411 142.1928,404.636 C143.3358,405.781 144.2388,406.685 146.1388,406.685 C148.0408,406.685 148.9438,405.781 150.0878,404.636 C151.3128,403.409 152.8378,401.884 155.7328,401.884 C158.6278,401.884 160.1528,403.409 161.3778,404.636 C162.5218,405.781 163.4248,406.685 165.3258,406.685 C167.2328,406.685 168.1388,405.779 169.2838,404.634 C170.5128,403.409 172.0388,401.884 174.9378,401.884 C177.8378,401.884 179.3638,403.409 180.5918,404.636 C181.7368,405.779 182.6428,406.685 184.5488,406.685 C185.2108,406.685 185.7478,407.222 185.7478,407.884 C185.7478,408.547 185.2108,409.084 184.5488,409.084" id="Fill-2790" fill="#CDD1DF"></path>
            <path d="M184.5488,421.8838 C181.6508,421.8838 180.1228,420.3598 178.8958,419.1338 C177.7498,417.9888 176.8438,417.0838 174.9378,417.0838 C173.0308,417.0838 172.1268,417.9888 170.9818,419.1328 C169.7528,420.3598 168.2268,421.8838 165.3258,421.8838 C162.4318,421.8838 160.9058,420.3598 159.6818,419.1328 C158.5368,417.9878 157.6348,417.0838 155.7328,417.0838 C153.8308,417.0838 152.9278,417.9878 151.7838,419.1328 C150.5598,420.3598 149.0338,421.8838 146.1388,421.8838 C143.2438,421.8838 141.7208,420.3578 140.4948,419.1328 C139.3518,417.9878 138.4478,417.0838 136.5488,417.0838 C135.8858,417.0838 135.3488,416.5468 135.3488,415.8838 C135.3488,415.2218 135.8858,414.6848 136.5488,414.6848 C139.4438,414.6848 140.9668,416.2108 142.1928,417.4358 C143.3358,418.5808 144.2388,419.4848 146.1388,419.4848 C148.0408,419.4848 148.9438,418.5808 150.0878,417.4358 C151.3128,416.2088 152.8378,414.6848 155.7328,414.6848 C158.6278,414.6848 160.1528,416.2088 161.3778,417.4358 C162.5218,418.5808 163.4248,419.4848 165.3258,419.4848 C167.2328,419.4848 168.1388,418.5788 169.2838,417.4348 C170.5128,416.2088 172.0388,414.6848 174.9378,414.6848 C177.8378,414.6848 179.3638,416.2088 180.5918,417.4358 C181.7368,418.5788 182.6428,419.4848 184.5488,419.4848 C185.2108,419.4848 185.7478,420.0218 185.7478,420.6848 C185.7478,421.3468 185.2108,421.8838 184.5488,421.8838" id="Fill-2792" fill="#CDD1DF"></path>
            <path d="M448.6729,315.2246 C448.6729,317.8756 446.5239,320.0256 443.8729,320.0256 C441.2219,320.0256 439.0719,317.8756 439.0719,315.2246 C439.0719,312.5746 441.2219,310.4246 443.8729,310.4246 C446.5239,310.4246 448.6729,312.5746 448.6729,315.2246" id="Fill-2794" fill="#CDD1DF"></path>
            <path d="M480.6729,315.2246 C480.6729,317.8756 478.5239,320.0256 475.8729,320.0256 C473.2219,320.0256 471.0719,317.8756 471.0719,315.2246 C471.0719,312.5746 473.2219,310.4246 475.8729,310.4246 C478.5239,310.4246 480.6729,312.5746 480.6729,315.2246" id="Fill-2796" fill="#CDD1DF"></path>
            <path d="M512.6729,315.2246 C512.6729,317.8756 510.5239,320.0256 507.8729,320.0256 C505.2219,320.0256 503.0719,317.8756 503.0719,315.2246 C503.0719,312.5746 505.2219,310.4246 507.8729,310.4246 C510.5239,310.4246 512.6729,312.5746 512.6729,315.2246" id="Fill-2798" fill="#CDD1DF"></path>
            <path d="M543.0723,315.2246 C543.0723,316.9926 541.6393,318.4246 539.8733,318.4246 C538.1053,318.4246 536.6733,316.9926 536.6733,315.2246 C536.6733,313.4576 538.1053,312.0256 539.8733,312.0256 C541.6393,312.0256 543.0723,313.4576 543.0723,315.2246" id="Fill-2800" fill="#CDD1DF"></path>
            <path d="M448.6729,347.2246 C448.6729,349.8756 446.5239,352.0256 443.8729,352.0256 C441.2219,352.0256 439.0719,349.8756 439.0719,347.2246 C439.0719,344.5746 441.2219,342.4246 443.8729,342.4246 C446.5239,342.4246 448.6729,344.5746 448.6729,347.2246" id="Fill-2802" fill="#CDD1DF"></path>
            <path d="M480.6729,347.2246 C480.6729,349.8756 478.5239,352.0256 475.8729,352.0256 C473.2219,352.0256 471.0719,349.8756 471.0719,347.2246 C471.0719,344.5746 473.2219,342.4246 475.8729,342.4246 C478.5239,342.4246 480.6729,344.5746 480.6729,347.2246" id="Fill-2804" fill="#CDD1DF"></path>
            <path d="M512.6729,347.2246 C512.6729,349.8756 510.5239,352.0256 507.8729,352.0256 C505.2219,352.0256 503.0719,349.8756 503.0719,347.2246 C503.0719,344.5746 505.2219,342.4246 507.8729,342.4246 C510.5239,342.4246 512.6729,344.5746 512.6729,347.2246" id="Fill-2806" fill="#CDD1DF"></path>
            <path d="M543.0723,347.2246 C543.0723,348.9926 541.6393,350.4246 539.8733,350.4246 C538.1053,350.4246 536.6733,348.9926 536.6733,347.2246 C536.6733,345.4576 538.1053,344.0256 539.8733,344.0256 C541.6393,344.0256 543.0723,345.4576 543.0723,347.2246" id="Fill-2808" fill="#CDD1DF"></path>
            <path d="M448.6729,379.2246 C448.6729,381.8756 446.5239,384.0256 443.8729,384.0256 C441.2219,384.0256 439.0719,381.8756 439.0719,379.2246 C439.0719,376.5746 441.2219,374.4246 443.8729,374.4246 C446.5239,374.4246 448.6729,376.5746 448.6729,379.2246" id="Fill-2810" fill="#CDD1DF"></path>
            <path d="M480.6729,379.2246 C480.6729,381.8756 478.5239,384.0256 475.8729,384.0256 C473.2219,384.0256 471.0719,381.8756 471.0719,379.2246 C471.0719,376.5746 473.2219,374.4246 475.8729,374.4246 C478.5239,374.4246 480.6729,376.5746 480.6729,379.2246" id="Fill-2812" fill="#CDD1DF"></path>
            <path d="M511.0723,379.2246 C511.0723,380.9926 509.6393,382.4246 507.8733,382.4246 C506.1053,382.4246 504.6733,380.9926 504.6733,379.2246 C504.6733,377.4576 506.1053,376.0256 507.8733,376.0256 C509.6393,376.0256 511.0723,377.4576 511.0723,379.2246" id="Fill-2814" fill="#CDD1DF"></path>
            <path d="M543.0723,379.2246 C543.0723,380.9926 541.6393,382.4246 539.8733,382.4246 C538.1053,382.4246 536.6733,380.9926 536.6733,379.2246 C536.6733,377.4576 538.1053,376.0256 539.8733,376.0256 C541.6393,376.0256 543.0723,377.4576 543.0723,379.2246" id="Fill-2816" fill="#CDD1DF"></path>
            <path d="M447.0723,411.2246 C447.0723,412.9926 445.6393,414.4246 443.8733,414.4246 C442.1053,414.4246 440.6733,412.9926 440.6733,411.2246 C440.6733,409.4576 442.1053,408.0256 443.8733,408.0256 C445.6393,408.0256 447.0723,409.4576 447.0723,411.2246" id="Fill-2818" fill="#CDD1DF"></path>
            <path d="M479.0723,411.2246 C479.0723,412.9926 477.6393,414.4246 475.8733,414.4246 C474.1053,414.4246 472.6733,412.9926 472.6733,411.2246 C472.6733,409.4576 474.1053,408.0256 475.8733,408.0256 C477.6393,408.0256 479.0723,409.4576 479.0723,411.2246" id="Fill-2820" fill="#CDD1DF"></path>
            <path d="M511.0723,411.2246 C511.0723,412.9926 509.6393,414.4246 507.8733,414.4246 C506.1053,414.4246 504.6733,412.9926 504.6733,411.2246 C504.6733,409.4576 506.1053,408.0256 507.8733,408.0256 C509.6393,408.0256 511.0723,409.4576 511.0723,411.2246" id="Fill-2822" fill="#CDD1DF"></path>
            <path d="M543.0723,411.2246 C543.0723,412.9926 541.6393,414.4246 539.8733,414.4246 C538.1053,414.4246 536.6733,412.9926 536.6733,411.2246 C536.6733,409.4576 538.1053,408.0256 539.8733,408.0256 C541.6393,408.0256 543.0723,409.4576 543.0723,411.2246" id="Fill-2824" fill="#CDD1DF"></path>
            <path d="M107.4854,253.3477 C103.0104,257.9657 97.1264,261.0247 91.7484,263.0427 L91.7484,273.0787 C91.7484,273.3867 91.8144,273.6747 91.8394,273.9757 C101.9534,264.9837 120.4724,249.6907 125.7304,253.2467 C128.8684,255.3767 125.9624,260.3047 123.1524,265.0707 C120.5584,269.4687 117.8764,274.0197 120.0424,275.8127 C122.6814,277.9977 130.0754,272.7617 136.5474,267.1607 L136.5474,250.6787 C136.5474,244.4937 131.5344,239.4797 125.3484,239.4797 L115.6764,239.4797 C114.0534,244.1767 111.5064,249.1987 107.4854,253.3477" id="Fill-2826" fill="#CDD1DF"></path>
            <path d="M119.3262,276.6758 C116.4282,274.2728 119.3552,269.3048 122.1882,264.4998 C124.7352,260.1798 127.3682,255.7128 125.1022,254.1758 C120.7482,251.2168 103.0442,265.5198 91.9832,275.3628 C93.0392,280.4518 97.5452,284.2798 102.9482,284.2798 L125.3482,284.2798 C131.5342,284.2798 136.5482,279.2648 136.5482,273.0788 L136.5482,268.6688 C130.1812,274.0928 122.5532,279.3448 119.3262,276.6758" id="Fill-2828" fill="#CDD1DF"></path>
            <path d="M106.6826,252.5693 C110.4746,248.6553 112.9096,243.9363 114.4916,239.4793 L102.9486,239.4793 C96.7626,239.4793 91.7476,244.4933 91.7476,250.6783 L91.7476,261.8513 C96.8886,259.8813 102.4436,256.9433 106.6826,252.5693" id="Fill-2830" fill="#CDD1DF"></path>
            <path d="M461.4736,72.5449 L442.2736,72.5449 C442.2736,53.1359 426.4826,37.3449 407.0736,37.3449 L407.0736,18.1459 C437.0706,18.1459 461.4736,42.5479 461.4736,72.5449" id="Fill-2832" fill="#CDD1DF"></path>
            <polygon id="Fill-2834" fill="#CDD1DF" points="152.5479 532.7305 144.5479 540.7305 136.5479 532.7305 144.5479 524.7305"></polygon>
            <polygon id="Fill-2836" fill="#CDD1DF" points="152.5479 62.6016 144.5479 70.6016 136.5479 62.6016 144.5479 54.6016"></polygon>
            <path d="M521.4727,542.1006 L580.4727,580.5006 L583.2727,669.7586 C583.2727,669.7586 559.4727,675.3006 542.2727,663.3006 C525.0727,651.3006 532.6247,607.3866 532.6247,607.3866 L491.0727,584.5006 C491.0727,584.5006 523.8727,583.3006 521.4727,542.1006" id="Fill-2838" fill="#825656"></path>
            <path d="M548.8682,559.9307 L521.4722,542.1007 C523.8722,583.3007 491.0722,584.4997 491.0722,584.4997 L519.7932,600.3197 C519.7932,600.3197 544.8622,590.8127 548.8682,559.9307" id="Fill-2840" fill="#5B3636"></path>
            <path d="M235.7607,61.9092 C233.0627,61.9092 230.5827,60.9932 228.6457,59.2002 C225.9277,56.6802 224.9897,53.0202 226.1977,49.6452 C228.7247,42.5982 238.3257,44.2812 238.4187,44.2942 C238.8537,44.3752 239.1387,44.7902 239.0597,45.2242 C238.9797,45.6572 238.5757,45.9402 238.1297,45.8682 C238.0437,45.8492 229.7707,44.4192 227.7047,50.1852 C226.7157,52.9462 227.4937,55.9512 229.7327,58.0262 C232.5097,60.5982 236.6657,61.0202 240.8467,59.1512 C241.2517,58.9672 241.7217,59.1512 241.9037,59.5552 C242.0837,59.9582 241.9037,60.4302 241.4997,60.6102 C239.5547,61.4812 237.6067,61.9092 235.7607,61.9092" id="Fill-2842" fill="#1D213A"></path>
            <path d="M180.6045,138.1475 C171.9695,138.9625 165.3105,154.4015 167.0005,176.5145 C168.6015,197.4615 180.6045,214.7815 190.4725,213.5015 C190.4725,213.5015 211.5235,203.2175 207.1315,173.1325 C202.7405,143.0475 180.6045,138.1475 180.6045,138.1475" id="Fill-2844" fill="#1D213A"></path>
            <path d="M27.4902,98.3125 C27.4902,98.3125 18.8682,100.1415 19.1292,107.9795 C19.3902,115.8175 27.4902,118.6915 27.4902,118.6915 L46.4312,118.6915 L46.4312,98.3125 L27.4902,98.3125 Z" id="Fill-2846" fill="#5B3636"></path>
            <path d="M180.6045,138.1475 L162.6965,139.9195 C162.6965,139.9195 142.7745,128.0325 117.4315,114.4465 C92.0875,100.8605 63.5445,92.8915 52.3105,91.5195 C41.1705,90.1605 14.1655,88.1235 6.3275,89.1685 C-1.5105,90.2135 -1.7725,100.4035 9.7235,101.4485 C21.2195,102.4935 32.1925,102.7535 32.1925,102.7535 L37.4175,110.0695 C37.4175,110.0695 25.6145,111.3985 20.8035,114.2495 C13.7505,118.4295 17.4305,129.4035 28.5355,126.7915 C43.9005,123.1755 50.0895,132.7995 63.4145,125.4845 C63.4145,125.4845 116.5825,171.1415 129.6455,181.8535 C142.7085,192.5655 143.6065,194.5015 169.1625,193.1535 C195.9865,191.7395 208.8065,189.7125 208.8065,189.7125 C208.8065,189.7125 210.8055,151.1675 180.6045,138.1475" id="Fill-2848" fill="#825656"></path>
            <path d="M188.7285,191.8516 C202.2315,190.7466 208.8065,189.7126 208.8065,189.7126 C208.8065,189.7126 210.8055,151.1666 180.6045,138.1476 C180.6045,138.1476 194.7985,162.9096 188.7285,191.8516" id="Fill-2850" fill="#5B3636"></path>
            <path d="M248.4014,132.7656 C248.4014,132.7656 211.9024,135.0866 180.6044,138.1476 C180.6044,138.1476 190.6884,143.0786 196.2724,168.9006 C204.2414,205.7436 190.4724,213.5006 190.4724,213.5006 C190.4724,213.5006 243.4724,204.9006 272.0694,188.9336 C272.0694,188.9336 269.8634,159.2976 248.4014,132.7656" id="Fill-2852" fill="#D3D6E2"></path>
            <path d="M301.8398,62.6621 C308.1068,67.3291 318.3018,63.3351 317.5728,54.1291 C316.9058,45.7121 308.6398,45.7291 308.6398,45.7291 C308.6398,45.7291 317.6108,44.3611 316.9058,35.7291 C316.0988,25.8251 305.8138,23.4631 301.1728,26.0561 C301.1728,26.0561 305.6438,17.7571 300.0438,12.0231 C294.4438,6.2901 284.2388,9.4631 283.7058,15.4631 C283.7058,15.4631 285.2278,4.6151 276.3698,1.3351 C269.1698,-1.3319 260.2098,2.3951 260.9058,10.5291 C260.9058,10.5291 257.1728,3.4631 248.5058,4.2631 C239.0648,5.1341 230.2388,16.6621 240.5058,27.3951 C240.5058,27.3951 234.3148,23.7961 229.2058,28.3951 C223.3208,33.6951 228.1068,44.8951 234.2388,45.0621 C234.2388,45.0621 227.9028,47.0711 229.5728,53.8621 C231.5728,61.9961 241.9728,59.4221 241.9728,59.4221 L301.8398,62.6621 Z" id="Fill-2854" fill="#1D213A"></path>
            <path d="M302.4336,513.9668 L358.7006,582.2338 L294.9096,654.5488 C294.9096,654.5488 272.5516,646.5288 268.8186,622.7948 C265.0846,599.0618 291.8516,582.9188 291.8516,582.9188 L258.3246,546.9708 C258.3246,546.9708 289.3666,544.1008 302.4336,513.9668" id="Fill-2856" fill="#825656"></path>
            <path d="M435.7393,132.501 C446.0723,134.101 445.2723,154.501 437.4723,171.501 C429.6733,188.501 411.7173,200.684 401.8733,195.834 C401.8733,195.834 386.9523,173.368 398.1513,148.968 C407.7323,128.097 435.7393,132.501 435.7393,132.501" id="Fill-2858" fill="#1D213A"></path>
            <path d="M328.9395,546.127 L302.4335,513.967 C289.3665,544.101 258.3245,546.97 258.3245,546.97 L281.4595,571.775 C281.4595,571.775 310.4065,570.672 328.9395,546.127" id="Fill-2860" fill="#5B3636"></path>
            <path d="M404.9482,133.6846 C404.9482,133.6846 447.8732,143.1006 458.5222,161.2886 C466.9252,175.6376 456.2722,197.9006 431.6732,194.7006 C410.6642,191.9676 388.6732,181.7006 388.6732,181.7006 C388.6732,181.7006 385.4722,153.9006 404.9482,133.6846" id="Fill-2862" fill="#825656"></path>
            <path d="M286.6729,247.3008 C286.6729,247.3008 278.6729,279.3008 273.8729,312.1008 C273.8729,312.1008 204.6729,376.9008 187.8729,400.1008 C171.0719,423.3008 173.4729,429.6998 181.0719,455.6998 C188.6729,481.6998 239.8729,576.5008 239.8729,576.5008 C239.8729,576.5008 270.6729,581.3008 299.0719,563.3008 C327.4729,545.3008 329.4729,519.3008 329.4729,519.3008 L271.0719,440.9008 L341.8729,358.9008 C341.8729,358.9008 365.8729,468.5008 371.0719,494.1008 C376.2729,519.6998 389.4729,532.5008 407.8729,549.6998 C426.2729,566.9008 487.8729,616.5008 487.8729,616.5008 C487.8729,616.5008 519.0719,608.9008 533.8729,584.5008 C548.6729,560.1008 540.2729,523.6998 540.2729,523.6998 L457.0719,464.5008 C457.0719,464.5008 447.8729,414.9008 434.2729,356.9008 C420.6729,298.9008 399.4729,247.3008 399.4729,247.3008 L286.6729,247.3008 Z" id="Fill-2864" fill="#1D213A"></path>
            <path d="M347.4053,106.0391 C347.4053,106.0391 373.1563,186.3701 419.5553,262.3701 C419.5553,262.3701 397.6523,289.1821 336.4733,294.7811 C293.1213,298.7501 266.6733,282.9001 266.6733,282.9001 C277.3403,203.4341 248.4013,132.7661 248.4013,132.7661 C248.4013,132.7661 270.1363,123.6051 293.6013,117.6291 C323.3233,110.0601 347.4053,106.0391 347.4053,106.0391" id="Fill-2866" fill="#D3D6E2"></path>
            <path d="M404.9482,133.6846 C385.4722,153.9006 388.6732,181.7006 388.6732,181.7006 C388.6732,181.7006 393.4562,183.9236 400.6492,186.5726 C403.2192,147.8456 428.4402,140.9406 428.4402,140.9406 C416.0972,136.1346 404.9482,133.6846 404.9482,133.6846" id="Fill-2868" fill="#5B3636"></path>
            <path d="M264.3652,193.6045 C263.9822,193.6045 263.6452,193.3285 263.5782,192.9385 C261.9672,183.4305 259.9392,173.8775 257.5492,164.5445 C257.4392,164.1175 257.6972,163.6805 258.1252,163.5715 C258.5592,163.4655 258.9902,163.7195 259.0982,164.1485 C261.5002,173.5245 263.5372,183.1205 265.1562,192.6695 C265.2292,193.1065 264.9352,193.5205 264.5022,193.5935 C264.4562,193.6015 264.4112,193.6045 264.3652,193.6045" id="Fill-2870" fill="#1D213A"></path>
            <path d="M347.4053,106.0391 C364.2723,102.7681 390.4063,125.0341 435.7393,132.5011 C435.7393,132.5011 413.8733,132.9001 404.5393,153.7001 C396.1673,172.3591 401.8733,195.8341 401.8733,195.8341 C401.8733,195.8341 367.2063,180.3671 344.5393,157.9671 L347.4053,106.0391 Z" id="Fill-2872" fill="#D3D6E2"></path>
            <path d="M377.9473,183.8799 C377.8063,183.8799 377.6623,183.8419 377.5343,183.7659 C367.8923,177.9559 359.3393,171.9459 352.1143,165.9059 C351.7753,165.6219 351.7293,165.1179 352.0123,164.7789 C352.2993,164.4389 352.8043,164.3969 353.1383,164.6779 C360.3013,170.6669 368.7873,176.6279 378.3593,182.3939 C378.7373,182.6219 378.8593,183.1139 378.6333,183.4919 C378.4813,183.7419 378.2173,183.8799 377.9473,183.8799" id="Fill-2874" fill="#1D213A"></path>
            <path d="M371.2725,335.4004 C371.0725,340.5014 379.2725,342.8004 381.7725,336.1004 C384.4865,328.8284 385.8735,314.5014 385.8735,314.5014 C398.0725,299.9004 398.3555,280.3444 398.3555,280.3444 C398.3555,280.3444 452.2705,206.1634 460.0055,181.4334 C468.1395,155.4334 437.9855,137.2674 419.7395,155.8344 C401.8475,174.0394 366.4725,268.9004 366.4725,268.9004 C366.4725,268.9004 356.2725,273.8344 350.6725,278.6334 C345.0725,283.4334 335.3345,301.0344 334.0705,305.4334 C332.8055,309.8344 340.6725,312.9004 344.9395,308.9004 C344.9395,308.9004 343.2065,313.7004 343.0725,318.2334 C342.9395,322.7674 343.0765,331.4834 348.4065,332.6334 C352.4225,333.5014 355.5015,330.1024 355.8755,325.2024 C356.1235,321.9504 355.1775,318.4104 355.1775,318.4104 L360.7725,308.9004 C360.7725,308.9004 358.9475,318.2004 358.9475,325.3004 C358.9475,332.9004 360.4965,338.3224 365.2865,339.0864 C369.7725,339.8004 371.2725,335.4004 371.2725,335.4004" id="Fill-2876" fill="#825656"></path>
            <path d="M400.5576,188.6416 C400.4406,188.6416 400.3206,188.6176 400.2076,188.5626 C399.8106,188.3686 399.6456,187.8906 399.8376,187.4926 C404.4116,178.0806 408.5256,170.4466 412.0676,164.8016 C412.3066,164.4276 412.8026,164.3156 413.1696,164.5476 C413.5446,164.7846 413.6586,165.2786 413.4236,165.6516 C409.9116,171.2476 405.8256,178.8326 401.2786,188.1926 C401.1386,188.4766 400.8546,188.6416 400.5576,188.6416" id="Fill-2878" fill="#1D213A"></path>
            <path d="M344.9395,309.7002 C344.8625,309.7002 344.7865,309.6882 344.7095,309.6652 C344.2865,309.5392 344.0445,309.0922 344.1735,308.6702 C346.6175,300.5362 353.0215,291.5682 353.2925,291.1902 C353.5515,290.8312 354.0485,290.7482 354.4095,291.0082 C354.7675,291.2652 354.8495,291.7652 354.5915,292.1252 C354.5265,292.2162 348.0725,301.2552 345.7055,309.1302 C345.6015,309.4762 345.2835,309.7002 344.9395,309.7002" id="Fill-2880" fill="#1D213A"></path>
            <path d="M371.2734,336.2002 C370.8484,336.2002 370.4944,335.8652 370.4744,335.4372 C370.1794,329.0672 371.4114,316.9172 373.4974,310.1872 C373.6274,309.7662 374.0684,309.5242 374.4984,309.6612 C374.9194,309.7922 375.1564,310.2402 375.0254,310.6622 C372.9864,317.2372 371.7844,329.1262 372.0724,335.3622 C372.0914,335.8042 371.7524,336.1782 371.3104,336.1982 C371.2984,336.2002 371.2864,336.2002 371.2734,336.2002" id="Fill-2882" fill="#1D213A"></path>
            <path d="M341.8721,359.7002 C341.4951,359.7002 341.1611,359.4322 341.0881,359.0502 L337.6391,340.9512 C335.1091,340.5322 325.1151,338.5202 320.4301,332.1922 C320.1671,331.8362 320.2421,331.3362 320.5971,331.0732 C320.9551,330.8122 321.4511,330.8862 321.7171,331.2392 C326.5911,337.8232 338.3071,339.4352 338.4241,339.4512 C338.7661,339.4972 339.0411,339.7562 339.1041,340.0952 L342.6591,358.7502 C342.7421,359.1842 342.4581,359.6022 342.0231,359.6852 C341.9721,359.6952 341.9221,359.7002 341.8721,359.7002" id="Fill-2884" fill="#E8EAEF"></path>
            <path d="M257.6064,457.9668 C257.4264,457.9668 257.2454,457.9058 257.0954,457.7818 C256.7554,457.5008 256.7084,456.9968 256.9904,456.6558 L270.4584,440.3888 C270.7394,440.0498 271.2444,440.0028 271.5844,440.2838 C271.9234,440.5658 271.9714,441.0708 271.6894,441.4088 L258.2214,457.6778 C258.0644,457.8678 257.8354,457.9668 257.6064,457.9668" id="Fill-2886" fill="#E8EAEF"></path>
            <path d="M294.1729,63.5029 L320.1849,111.3839 C320.1849,111.3839 315.3669,131.6449 290.8059,134.1009 C273.4729,135.8339 267.3749,125.6019 267.3749,125.6019 L253.5359,76.1709 L294.1729,63.5029 Z" id="Fill-2888" fill="#825656"></path>
            <path d="M264.7285,116.1484 C272.1845,113.5164 275.7535,107.6944 275.7535,107.6944 L264.2725,72.8234 L253.5365,76.1704 L264.7285,116.1484 Z" id="Fill-2890" fill="#5B3636"></path>
            <path d="M289.9727,35.8623 C289.9727,35.8623 268.5057,28.6623 251.7697,35.4633 C235.2497,42.1743 233.7337,73.6203 240.6397,93.0623 C248.9067,116.3353 279.1727,114.3953 288.5357,95.6443 C296.9657,78.7613 289.9727,35.8623 289.9727,35.8623" id="Fill-2892" fill="#825656"></path>
            <path d="M293.6025,32.0908 L295.4245,56.8778 C295.4245,56.8778 287.6845,60.7438 281.3635,56.4938 C275.9555,52.8578 277.5875,46.3168 277.5875,46.3168 C277.5875,46.3168 256.6395,49.0628 251.7695,31.9958 C251.7695,31.9958 267.3065,25.1958 293.6025,32.0908" id="Fill-2894" fill="#1D213A"></path>
            <path d="M287.8838,58.4824 C287.8838,58.4824 294.2398,53.0864 299.3728,56.3804 C305.5758,60.3634 305.5068,69.0774 299.8068,74.3774 C294.6058,79.2124 289.1068,77.7554 289.1068,77.7554 L287.8838,58.4824 Z" id="Fill-2896" fill="#825656"></path>
            <path d="M169.2734,145.5811 C169.1074,145.5811 168.9404,145.5291 168.7984,145.4251 L162.2204,140.5631 C161.8644,140.3021 161.7894,139.8001 162.0514,139.4451 C162.3174,139.0911 162.8204,139.0191 163.1694,139.2761 L169.7484,144.1381 C170.1044,144.3991 170.1794,144.9011 169.9174,145.2561 C169.7594,145.4691 169.5174,145.5811 169.2734,145.5811" id="Fill-2898" fill="#1D213A"></path>
            <path d="M290.2061,68.3809 C290.1281,68.3809 290.0491,68.3699 289.9691,68.3449 C289.5471,68.2139 289.3101,67.7659 289.4421,67.3439 C291.4351,60.9299 296.8001,60.0889 297.0261,60.0559 C297.4531,60.0049 297.8651,60.2949 297.9301,60.7319 C297.9951,61.1669 297.6931,61.5729 297.2581,61.6389 C297.0701,61.6689 292.6541,62.3999 290.9711,67.8189 C290.8641,68.1609 290.5471,68.3809 290.2061,68.3809" id="Fill-2900" fill="#1D213A"></path>
            <path d="M267.6201,49.0527 C264.4501,49.0527 260.9741,48.4357 257.6821,46.5777 C250.7681,42.6807 250.9591,32.4107 250.9711,31.9747 C250.9841,31.5337 251.3851,31.2577 251.7911,31.1967 C252.2321,31.2087 252.5811,31.5757 252.5701,32.0167 C252.5671,32.1147 252.3981,41.7637 258.4661,45.1847 C267.3921,50.2137 278.2241,45.2087 278.3311,45.1567 C278.7361,44.9697 279.2081,45.1407 279.3961,45.5387 C279.5861,45.9387 279.4141,46.4147 279.0161,46.6047 C278.7051,46.7507 273.7341,49.0527 267.6201,49.0527" id="Fill-2902" fill="#1D213A"></path>
            <path d="M318.7734,62.3809 C318.6434,62.3809 318.5134,62.3499 318.3924,62.2839 C318.0044,62.0729 317.8614,61.5889 318.0704,61.1999 C318.1044,61.1359 321.4734,54.7549 317.6224,49.3449 C313.8374,44.0249 305.2674,47.4849 305.1774,47.5209 C304.7794,47.6949 304.3024,47.4969 304.1344,47.0859 C303.9654,46.6779 304.1594,46.2109 304.5684,46.0419 C304.9704,45.8779 314.4094,42.0709 318.9244,48.4169 C323.3644,54.6529 319.6374,61.6689 319.4764,61.9639 C319.3314,62.2299 319.0564,62.3809 318.7734,62.3809" id="Fill-2904" fill="#1D213A"></path>
            <path d="M299.375,28.6807 C299.139,28.6807 298.906,28.5777 298.748,28.3797 C298.474,28.0347 298.529,27.5317 298.875,27.2557 C298.927,27.2137 304.041,23.0687 304.073,18.1767 C304.1,14.1577 302.557,10.7327 299.838,8.7767 C297.461,7.0677 294.477,6.6987 291.433,7.7377 C284.373,10.1547 283.697,17.3417 283.67,17.6467 C283.635,18.0857 283.276,18.4187 282.808,18.3777 C282.369,18.3417 282.041,17.9577 282.076,17.5167 C282.104,17.1697 282.846,8.9877 290.914,6.2247 C294.461,5.0087 297.963,5.4537 300.771,7.4777 C303.917,9.7407 305.703,13.6437 305.674,18.1857 C305.636,23.8497 300.107,28.3187 299.872,28.5057 C299.725,28.6247 299.549,28.6807 299.375,28.6807" id="Fill-2906" fill="#1D213A"></path>
            <path d="M262.0723,16.0811 C261.6643,16.0811 261.3153,15.7701 261.2763,15.3541 C261.2673,15.2511 260.2143,4.9401 252.3233,2.3411 C243.2443,-0.6509 236.6013,9.0281 236.5373,9.1281 C236.2913,9.4971 235.7953,9.5911 235.4263,9.3451 C235.0603,9.0991 234.9633,8.6021 235.2093,8.2341 C235.2813,8.1251 242.6123,-2.5469 252.8233,0.8211 C261.7203,3.7511 262.8263,14.7421 262.8703,15.2081 C262.9113,15.6481 262.5883,16.0371 262.1463,16.0781 C262.1223,16.0791 262.0963,16.0811 262.0723,16.0811" id="Fill-2908" fill="#1D213A"></path>
            <path d="M340.3174,559.9307 L311.5404,577.7907 C311.5404,577.7907 304.0734,567.4477 297.9394,571.1817 C291.8064,574.9137 287.0684,577.7897 287.0684,577.7907 L291.8514,582.9187 C291.8514,582.9187 265.0854,599.0617 268.8184,622.7947 C272.5514,646.5287 294.9094,654.5487 294.9094,654.5487 L358.7004,582.2337 L340.3174,559.9307 Z" id="Fill-2910" fill="#1D213A"></path>
            <path d="M562.0195,568.4902 L545.4075,596.2482 C545.4075,596.2482 537.4075,589.5812 532.3395,594.9142 C527.2735,600.2482 524.9935,603.1822 524.9925,603.1822 L532.6245,607.3862 C532.6245,607.3862 525.0725,651.3012 542.2725,663.3012 C559.4725,675.3012 583.2725,669.7592 583.2725,669.7592 L580.4725,580.5002 L562.0195,568.4902 Z" id="Fill-2912" fill="#1D213A"></path>
            <path d="M282.9004,648.0605 C282.7114,648.0605 282.5204,647.9935 282.3694,647.8575 C282.0374,647.5635 282.0094,647.0595 282.3024,646.7295 L349.4824,571.2455 C349.7754,570.9145 350.2814,570.8835 350.6114,571.1795 C350.9424,571.4735 350.9704,571.9775 350.6764,572.3075 L283.4974,647.7915 C283.3384,647.9695 283.1204,648.0605 282.9004,648.0605" id="Fill-2914" fill="#E8EAEF"></path>
            <path d="M570.4795,671.8359 C570.0435,671.8359 569.6875,671.4849 569.6795,671.0479 L568.0835,572.9719 C568.0765,572.5309 568.4295,572.1669 568.8725,572.1589 L568.8845,572.1589 C569.3205,572.1589 569.6765,572.5089 569.6845,572.9459 L571.2795,671.0239 C571.2875,671.4639 570.9345,671.8279 570.4925,671.8359 L570.4795,671.8359 Z" id="Fill-2916" fill="#E8EAEF"></path>
            <path d="M299.2734,587.5811 C299.0424,587.5811 298.8124,587.4811 298.6544,587.2871 C295.4144,583.3281 292.0954,583.6981 291.9584,583.7111 C291.5024,583.7661 291.1204,583.4591 291.0604,583.0231 C291.0024,582.5891 291.3044,582.1871 291.7404,582.1261 C291.9194,582.1001 296.0524,581.5811 299.8924,586.2741 C300.1714,586.6171 300.1224,587.1201 299.7794,587.3991 C299.6304,587.5211 299.4514,587.5811 299.2734,587.5811" id="Fill-2918" fill="#E8EAEF"></path>
            <path d="M293.6309,593.7158 C293.3229,593.7158 293.0309,593.5368 292.8989,593.2368 C290.9399,588.7888 285.6379,588.2768 285.5839,588.2718 C285.1439,588.2328 284.8179,587.8448 284.8569,587.4058 C284.8959,586.9658 285.2869,586.6418 285.7219,586.6778 C285.9799,586.6998 292.0269,587.2858 294.3639,592.5938 C294.5419,592.9968 294.3579,593.4698 293.9529,593.6488 C293.8489,593.6938 293.7389,593.7158 293.6309,593.7158" id="Fill-2920" fill="#E8EAEF"></path>
            <path d="M287.1406,599.5811 C286.8496,599.5811 286.5706,599.4221 286.4276,599.1451 C283.6586,593.7271 280.0936,593.7471 279.9066,593.7161 L279.8956,593.7161 C279.4606,593.7161 279.1016,593.3681 279.0906,592.9351 C279.0806,592.4951 279.4236,592.1301 279.8626,592.115054 C280.0446,592.115054 284.5886,592.0361 287.8536,598.4171 C288.0546,598.8101 287.8986,599.2921 287.5046,599.4931 C287.3876,599.5531 287.2636,599.5811 287.1406,599.5811" id="Fill-2922" fill="#E8EAEF"></path>
            <path d="M532.627,608.1846 C532.412,608.1846 532.198,608.0986 532.041,607.9296 C531.742,607.6076 531.756,607.1076 532.075,606.8056 C532.217,606.6716 535.654,603.5326 543.963,605.1966 C544.397,605.2826 544.678,605.7046 544.591,606.1376 C544.505,606.5736 544.058,606.8466 543.65,606.7656 C536.234,605.2816 533.198,607.9486 533.169,607.9736 C533.016,608.1146 532.82,608.1846 532.627,608.1846" id="Fill-2924" fill="#E8EAEF"></path>
            <path d="M531.6387,616.0049 C531.3537,616.0049 531.0777,615.8519 530.9327,615.5829 C530.7247,615.1929 530.8687,614.7089 531.2577,614.4999 C531.4827,614.3779 536.8627,611.5439 544.0287,613.6119 C544.4527,613.7339 544.6977,614.1779 544.5757,614.6029 C544.4517,615.0259 544.0017,615.2709 543.5837,615.1499 C537.0657,613.2689 532.0657,615.8829 532.0157,615.9089 C531.8957,615.9739 531.7677,616.0049 531.6387,616.0049" id="Fill-2926" fill="#E8EAEF"></path>
            <path d="M543.8066,625.7188 C543.6796,625.7188 543.5516,625.6888 543.4316,625.6248 C537.3536,622.4058 531.4706,625.5858 531.4116,625.6178 C531.0296,625.8308 530.5416,625.6938 530.3256,625.3058 C530.1116,624.9198 530.2516,624.4328 530.6376,624.2188 C530.9086,624.0708 537.3386,620.5858 544.1816,624.2118 C544.5726,624.4188 544.7206,624.9038 544.5126,625.2938 C544.3686,625.5638 544.0916,625.7188 543.8066,625.7188" id="Fill-2928" fill="#E8EAEF"></path>
            <path d="M240.623,65.6797 C240.623,66.7297 241.475,67.5807 242.525,67.5807 C243.575,67.5807 244.427,66.7297 244.427,65.6797 C244.427,64.6287 243.575,63.7777 242.525,63.7777 C241.475,63.7777 240.623,64.6287 240.623,65.6797" id="Fill-2930" fill="#1D213A"></path>
            <path d="M264.373,66.6387 C264.373,67.6887 265.225,68.5397 266.275,68.5397 C267.325,68.5397 268.177,67.6887 268.177,66.6387 C268.177,65.5877 267.325,64.7367 266.275,64.7367 C265.225,64.7367 264.373,65.5877 264.373,66.6387" id="Fill-2932" fill="#1D213A"></path>
            <path d="M274.4365,60.4209 C273.4205,61.3969 270.8825,60.4859 268.1725,59.8179 C265.4925,59.0419 262.8395,58.5619 262.4475,57.2089 C262.0025,55.8949 265.2825,53.8149 269.4825,54.9329 C273.6795,56.0649 275.4785,59.5059 274.4365,60.4209" id="Fill-2934" fill="#1D213A"></path>
            <path d="M235.9844,59.1777 C236.8554,60.1927 238.8614,59.4237 241.0184,58.9047 C243.1474,58.2757 245.2674,57.9387 245.5154,56.6237 C245.8084,55.3517 243.0494,53.1307 239.7104,54.0187 C236.3734,54.9197 235.0944,58.2217 235.9844,59.1777" id="Fill-2936" fill="#1D213A"></path>
            <path d="M249.7061,78.3369 C248.5101,78.3369 247.2871,78.0609 246.3101,77.4929 C244.8251,76.6299 244.1451,75.2269 244.4471,73.6419 C244.6541,72.5479 245.2081,71.7119 246.0451,71.2239 C247.1271,70.5889 248.4511,70.6719 249.2991,70.8209 L250.5001,66.2419 C250.6121,65.8139 251.0451,65.5579 251.4771,65.6719 C251.9031,65.7839 252.1591,66.2199 252.0471,66.6489 L250.6461,71.9839 C250.5911,72.1979 250.4481,72.3779 250.2531,72.4839 C250.0601,72.5869 249.8281,72.6079 249.6201,72.5399 C249.1481,72.3829 247.7291,72.0889 246.8491,72.6079 C246.4121,72.8639 246.1411,73.2999 246.0181,73.9419 C245.8441,74.8569 246.2141,75.5859 247.1151,76.1099 C248.6661,77.0109 251.2131,76.9459 252.3541,75.9739 C252.6891,75.6879 253.1931,75.7249 253.4811,76.0629 C253.7681,76.3989 253.7281,76.9029 253.3931,77.1889 C252.5031,77.9479 251.1231,78.3369 249.7061,78.3369" id="Fill-2938" fill="#5B3636"></path>
            <path d="M257.7637,84.0645 C253.9897,84.8785 251.9697,82.4765 250.2047,84.7505 C248.1587,87.3875 252.7337,93.6525 259.1967,91.7455 C264.7297,90.1125 265.6847,83.4475 263.1117,82.5075 C261.1517,81.7925 260.1417,83.5505 257.7637,84.0645" id="Fill-2940" fill="#1D213A"></path>
            <path d="M255.0254,91.8594 C256.2744,92.1624 257.6754,92.1934 259.1964,91.7454 C262.6624,90.7224 264.3304,87.7254 264.4614,85.3974 C263.7644,85.2184 263.0454,85.1024 262.2904,85.1304 C258.4814,85.2734 255.4584,88.1904 255.0254,91.8594" id="Fill-2942" fill="#FF5A5A"></path>
            <path d="M264.623,85.5811 C264.755,84.0791 264.295,82.8101 263.269,82.4351 C261.258,81.7001 260.221,83.5051 257.782,84.0311 C253.909,84.8671 251.837,82.4021 250.027,84.7341 C249.502,85.4121 249.402,86.3221 249.651,87.2751 C251.328,87.9441 253.621,88.4741 256.583,88.1821 C260.205,87.8241 262.892,86.6161 264.623,85.5811" id="Fill-2944" fill="#E8EAEF"></path>
        </g>
    </g>
</svg>