<?xml version="1.0" encoding="UTF-8"?>
<svg width="534px" height="462px" viewBox="0 0 534 462" version="1.1" xmlns="http://www.w3.org/2000/svg" xmlns:xlink="http://www.w3.org/1999/xlink">
    <title>Illustration 8 0</title>
    <g id="🤩-Illustrations" stroke="none" stroke-width="1" fill="none" fill-rule="evenodd">
        <g id="Illustration-8">
            <path d="M63.1084,102.582 C63.1084,104.35 61.6754,105.782 59.9084,105.782 C58.1414,105.782 56.7094,104.35 56.7094,102.582 C56.7094,100.815 58.1414,99.382 59.9084,99.382 C61.6754,99.382 63.1084,100.815 63.1084,102.582" id="Fill-1203" fill="#CDD1DF"></path>
            <path d="M95.1084,102.582 C95.1084,104.35 93.6754,105.782 91.9084,105.782 C90.1414,105.782 88.7094,104.35 88.7094,102.582 C88.7094,100.815 90.1414,99.382 91.9084,99.382 C93.6754,99.382 95.1084,100.815 95.1084,102.582" id="Fill-1205" fill="#CDD1DF"></path>
            <path d="M127.1084,102.582 C127.1084,104.35 125.6754,105.782 123.9084,105.782 C122.1414,105.782 120.7094,104.35 120.7094,102.582 C120.7094,100.815 122.1414,99.382 123.9084,99.382 C125.6754,99.382 127.1084,100.815 127.1084,102.582" id="Fill-1207" fill="#CDD1DF"></path>
            <path d="M159.1084,102.582 C159.1084,104.35 157.6754,105.782 155.9084,105.782 C154.1414,105.782 152.7094,104.35 152.7094,102.582 C152.7094,100.815 154.1414,99.382 155.9084,99.382 C157.6754,99.382 159.1084,100.815 159.1084,102.582" id="Fill-1209" fill="#CDD1DF"></path>
            <path d="M64.709,134.582 C64.709,137.233 62.56,139.382 59.908,139.382 C57.258,139.382 55.108,137.233 55.108,134.582 C55.108,131.931 57.258,129.782 59.908,129.782 C62.56,129.782 64.709,131.931 64.709,134.582" id="Fill-1211" fill="#CDD1DF"></path>
            <path d="M96.709,134.582 C96.709,137.233 94.56,139.382 91.908,139.382 C89.258,139.382 87.108,137.233 87.108,134.582 C87.108,131.931 89.258,129.782 91.908,129.782 C94.56,129.782 96.709,131.931 96.709,134.582" id="Fill-1213" fill="#CDD1DF"></path>
            <path d="M127.1084,134.582 C127.1084,136.35 125.6754,137.782 123.9084,137.782 C122.1414,137.782 120.7094,136.35 120.7094,134.582 C120.7094,132.815 122.1414,131.382 123.9084,131.382 C125.6754,131.382 127.1084,132.815 127.1084,134.582" id="Fill-1215" fill="#CDD1DF"></path>
            <path d="M159.1084,134.582 C159.1084,136.35 157.6754,137.782 155.9084,137.782 C154.1414,137.782 152.7094,136.35 152.7094,134.582 C152.7094,132.815 154.1414,131.382 155.9084,131.382 C157.6754,131.382 159.1084,132.815 159.1084,134.582" id="Fill-1217" fill="#CDD1DF"></path>
            <path d="M64.709,166.582 C64.709,169.233 62.56,171.382 59.908,171.382 C57.258,171.382 55.108,169.233 55.108,166.582 C55.108,163.931 57.258,161.782 59.908,161.782 C62.56,161.782 64.709,163.931 64.709,166.582" id="Fill-1219" fill="#CDD1DF"></path>
            <path d="M96.709,166.582 C96.709,169.233 94.56,171.382 91.908,171.382 C89.258,171.382 87.108,169.233 87.108,166.582 C87.108,163.931 89.258,161.782 91.908,161.782 C94.56,161.782 96.709,163.931 96.709,166.582" id="Fill-1221" fill="#CDD1DF"></path>
            <path d="M128.709,166.582 C128.709,169.233 126.56,171.382 123.908,171.382 C121.258,171.382 119.108,169.233 119.108,166.582 C119.108,163.931 121.258,161.782 123.908,161.782 C126.56,161.782 128.709,163.931 128.709,166.582" id="Fill-1223" fill="#CDD1DF"></path>
            <path d="M159.1084,166.582 C159.1084,168.35 157.6754,169.782 155.9084,169.782 C154.1414,169.782 152.7094,168.35 152.7094,166.582 C152.7094,164.815 154.1414,163.382 155.9084,163.382 C157.6754,163.382 159.1084,164.815 159.1084,166.582" id="Fill-1225" fill="#CDD1DF"></path>
            <path d="M64.709,198.582 C64.709,201.233 62.56,203.382 59.908,203.382 C57.258,203.382 55.108,201.233 55.108,198.582 C55.108,195.931 57.258,193.782 59.908,193.782 C62.56,193.782 64.709,195.931 64.709,198.582" id="Fill-1227" fill="#CDD1DF"></path>
            <path d="M96.709,198.582 C96.709,201.233 94.56,203.382 91.908,203.382 C89.258,203.382 87.108,201.233 87.108,198.582 C87.108,195.931 89.258,193.782 91.908,193.782 C94.56,193.782 96.709,195.931 96.709,198.582" id="Fill-1229" fill="#CDD1DF"></path>
            <path d="M128.709,198.582 C128.709,201.233 126.56,203.382 123.908,203.382 C121.258,203.382 119.108,201.233 119.108,198.582 C119.108,195.931 121.258,193.782 123.908,193.782 C126.56,193.782 128.709,195.931 128.709,198.582" id="Fill-1231" fill="#CDD1DF"></path>
            <path d="M159.1084,198.582 C159.1084,200.35 157.6754,201.782 155.9084,201.782 C154.1414,201.782 152.7094,200.35 152.7094,198.582 C152.7094,196.815 154.1414,195.382 155.9084,195.382 C157.6754,195.382 159.1084,196.815 159.1084,198.582" id="Fill-1233" fill="#CDD1DF"></path>
            <path d="M19.3252,96.5439 L0.1252,96.5439 C0.1252,66.5469 24.5282,42.1439 54.5242,42.1439 L54.5242,61.3439 C35.1152,61.3439 19.3252,77.1339 19.3252,96.5439" id="Fill-1235" fill="#CDD1DF"></path>
            <path d="M403.2168,111.4658 C403.2408,111.1648 403.3068,110.8768 403.3068,110.5688 L403.3068,105.6208 C397.8948,104.1478 391.4488,101.6448 385.7078,97.3838 C378.9308,92.3518 374.8588,83.9708 372.4818,76.9688 L369.7068,76.9688 C363.5218,76.9688 358.5068,81.9838 358.5068,88.1688 L358.5068,100.1328 C365.5078,99.7618 384.0658,100.1128 403.2168,111.4658" id="Fill-1237" fill="#CDD1DF"></path>
            <path d="M386.377,96.4839 C391.89,100.5759 398.071,103.0149 403.307,104.4679 L403.307,88.1689 C403.307,81.9839 398.293,76.9689 392.107,76.9689 L373.706,76.9689 C376.064,83.7599 380.013,91.7609 386.377,96.4839" id="Fill-1239" fill="#CDD1DF"></path>
            <path d="M389.1611,115.0918 C383.1981,115.6408 379.4691,119.1378 377.4691,121.7688 L392.1071,121.7688 C395.4371,121.7688 398.3951,120.2868 400.4471,117.9798 C397.6491,116.2228 393.7871,114.6638 389.1611,115.0918" id="Fill-1241" fill="#CDD1DF"></path>
            <path d="M389.0586,113.9761 C394.0956,113.5081 398.2326,115.1961 401.1876,117.0821 C402.1116,115.7961 402.7796,114.3211 403.0916,112.7081 C383.9696,101.2041 365.3676,100.8761 358.5066,101.2501 L358.5066,110.5691 C358.5066,116.7551 363.5216,121.7691 369.7066,121.7691 L376.0936,121.7691 C378.0866,118.9171 382.1816,114.6101 389.0586,113.9761" id="Fill-1243" fill="#CDD1DF"></path>
            <polygon id="Fill-1245" fill="#CDD1DF" points="16.124 224.8921 8.124 232.8921 0.124 224.8921 8.124 216.8921"></polygon>
            <polygon id="Fill-1247" fill="#CDD1DF" points="441.2422 48.0005 433.2422 56.0005 425.2422 48.0005 433.2422 40.0005"></polygon>
            <path d="M526.8604,100.4375 C526.8604,111.0415 518.2644,119.6375 507.6614,119.6375 C497.0564,119.6375 488.4614,111.0415 488.4614,100.4375 C488.4614,89.8335 497.0564,81.2375 507.6614,81.2375 C518.2644,81.2375 526.8604,89.8335 526.8604,100.4375" id="Fill-1249" fill="#F99175"></path>
            <path d="M524.9434,72.0278 C519.5994,80.0278 510.2874,90.6838 510.2874,90.6838 L512.8474,121.7238 C512.8474,121.7238 494.9264,161.9478 477.3274,197.7558 C467.1514,198.3318 453.7114,196.7638 441.0064,188.0278 C430.7674,180.9558 425.5834,170.2678 422.9264,161.0838 C441.0394,140.5718 466.2874,112.0598 474.5434,103.1638 C487.8874,88.7638 508.1434,68.0278 515.8874,62.1718 C523.5994,56.2838 530.2874,64.0278 524.9434,72.0278" id="Fill-1251" fill="#FFC4A3"></path>
            <path d="M488.4609,174.6577 C488.4609,174.6577 473.5409,177.5107 458.0739,170.0437 C442.6069,162.5767 436.4059,145.8657 436.4059,145.8657 L436.3919,145.8517 C431.7219,151.1287 427.1299,156.3247 422.9269,161.0837 C425.5829,170.2677 430.7679,180.9557 441.0069,188.0277 C453.7109,196.7637 467.1509,198.3317 477.3269,197.7557 C481.0839,190.1127 484.8539,182.2707 488.4619,174.6587 L488.4609,174.6577 Z" id="Fill-1253" fill="#F99175"></path>
            <path d="M497.873,98.563 L509.073,102.296 C509.073,102.296 517.124,93.655 523.257,89.255 C529.391,84.855 536.908,90.656 532.607,98.577 C528.509,106.126 525.273,112.177 521.141,122.71 C517.768,131.305 509.54,138.311 494.007,139.23 L497.873,98.563 Z" id="Fill-1255" fill="#FFC4A3"></path>
            <path d="M449.6064,176.563 C433.4544,164.77 436.4064,145.866 436.4064,145.865 C419.2974,165.203 403.3064,183.38 403.3064,183.38 C403.3064,183.38 317.7404,141.363 303.3454,139.563 L298.2734,205.363 C298.2734,205.363 343.2554,230.429 390.5404,252.03 C427.6064,268.963 439.4904,266.997 457.4724,235.763 C465.1834,222.371 475.0414,202.662 484.2974,183.38 C484.2864,183.384 466.4004,188.826 449.6064,176.563" id="Fill-1257" fill="#1D213A"></path>
            <path d="M271.4072,446.1079 C268.3992,450.5559 260.2072,447.7079 260.2072,447.7079 C260.2072,447.7079 261.9352,453.0839 258.3512,455.6439 C253.7432,458.8439 247.3432,455.4839 247.3432,455.4839 C248.0152,458.6199 244.3352,464.7639 230.9272,458.1719 C216.7832,451.1959 184.1432,413.3719 184.1432,413.3719 C184.1432,413.3719 148.3352,377.6919 118.0952,344.0279 C120.0792,334.3959 125.3592,321.4359 139.2152,312.6359 C153.4872,303.5799 167.7272,303.7719 177.7432,305.8199 L221.6152,383.1639 C221.6152,383.1639 233.6152,381.5639 241.9992,384.7639 C251.5352,388.3799 262.1272,399.8999 269.9992,404.8279 C277.8712,409.7559 274.5432,420.5719 263.8872,418.0439 C252.1432,415.2599 245.6152,409.5639 245.6152,409.5639 C249.4552,418.8439 254.3512,423.8679 262.7992,429.8839 C273.0072,437.1479 274.1592,441.9799 271.4072,446.1079" id="Fill-1259" fill="#FFC4A3"></path>
            <path d="M260.2061,448.4971 C260.1021,448.4971 260.0001,448.4761 259.8981,448.4361 C252.0941,445.1871 241.1541,437.5221 235.3491,429.1531 C235.0971,428.7901 235.1871,428.2901 235.5501,428.0391 C235.9121,427.7901 236.4091,427.8761 236.6641,428.2411 C242.2341,436.2701 253.1091,443.8781 260.5141,446.9581 C260.9221,447.1281 261.1141,447.5971 260.9451,448.0051 C260.8171,448.3111 260.5181,448.4971 260.2061,448.4971" id="Fill-1261" fill="#1D213A"></path>
            <path d="M247.3408,456.2969 C247.2268,456.2969 247.1118,456.2739 247.0008,456.2219 C241.0138,453.4269 230.7388,445.7219 224.9868,438.7049 C224.7078,438.3619 224.7578,437.8579 225.0988,437.5779 C225.4448,437.2979 225.9438,437.3489 226.2248,437.6889 C231.8368,444.5389 241.8498,452.0519 247.6798,454.7719 C248.0788,454.9599 248.2528,455.4349 248.0658,455.8359 C247.9298,456.1269 247.6408,456.2969 247.3408,456.2969" id="Fill-1263" fill="#1D213A"></path>
            <path d="M177.7432,305.8198 C167.7272,303.7718 153.4872,303.5798 139.2152,312.6358 C125.3592,321.4358 120.0792,334.3958 118.0962,344.0278 C124.3822,351.0268 130.9062,358.1078 137.3032,364.9418 L137.3042,364.9418 C137.3042,364.9418 137.3042,347.3768 152.2072,333.0438 C166.6482,319.1548 185.5552,319.6018 185.5552,319.6018 L185.5572,319.5958 L177.7432,305.8198 Z" id="Fill-1265" fill="#F99175"></path>
            <path d="M160.5986,275.603 C172.0226,202.419 170.4866,141.747 170.4866,141.747 C170.4866,141.747 211.8626,134.963 242.5506,134.963 C271.4786,134.963 303.3506,139.571 303.3506,139.571 L320.7896,275.603 L160.5986,275.603 Z" id="Fill-1267" fill="#1D213A"></path>
            <path d="M185.5547,319.6016 L160.5987,275.6026 C160.5987,275.6026 178.0067,229.3636 177.7407,189.3636 C177.5397,159.4496 170.4897,141.7376 170.4897,141.7376 C152.4067,144.2966 136.4067,164.0296 110.5397,212.5626 C86.3877,257.8796 72.9647,278.7476 77.4727,291.2296 C81.6907,302.9066 105.7007,330.7766 129.8737,356.9516 C129.8737,356.9366 130.4897,336.7526 146.2187,324.9986 C165.8067,310.3636 185.5547,319.6016 185.5547,319.6016" id="Fill-1269" fill="#1D213A"></path>
            <path d="M160.5986,276.4033 C160.5046,276.4033 160.4096,276.3873 160.3176,276.3513 C159.9036,276.1963 159.6936,275.7343 159.8496,275.3213 C159.9456,275.0673 169.4686,249.5753 174.2356,220.5073 C174.3056,220.0703 174.7276,219.7733 175.1546,219.8483 C175.5906,219.9203 175.8856,220.3313 175.8136,220.7673 C171.0216,249.9973 161.4436,275.6303 161.3466,275.8843 C161.2266,276.2063 160.9216,276.4033 160.5986,276.4033" id="Fill-1271" fill="#E8EAEF"></path>
            <path d="M160.5986,276.4033 C160.3176,276.4033 160.0436,276.2533 159.8986,275.9893 L150.2396,258.4563 C150.0246,258.0693 150.1646,257.5833 150.5526,257.3703 C150.9356,257.1533 151.4266,257.2973 151.6386,257.6843 L161.2976,275.2173 C161.5126,275.6043 161.3716,276.0913 160.9846,276.3033 C160.8626,276.3723 160.7296,276.4033 160.5986,276.4033" id="Fill-1273" fill="#E8EAEF"></path>
            <path d="M394.3057,193.4624 C394.1067,193.4624 393.9047,193.3874 393.7497,193.2374 C393.4327,192.9294 393.4247,192.4234 393.7317,192.1064 L402.7327,182.8234 C403.0417,182.5074 403.5477,182.4984 403.8647,182.8044 C404.1807,183.1124 404.1887,183.6184 403.8827,183.9364 L394.8807,193.2184 C394.7237,193.3814 394.5157,193.4624 394.3057,193.4624" id="Fill-1275" fill="#E8EAEF"></path>
            <path d="M206.9541,137.0381 C206.9541,137.0381 218.5361,158.4251 245.7061,155.4631 C266.8071,153.1631 267.7961,135.9131 267.7961,135.9131 L260.2541,71.2541 L209.8071,71.2541 L206.9541,137.0381 Z" id="Fill-1277" fill="#FFC4A3"></path>
            <path d="M265.0654,112.5 L260.2544,71.254 L244.6014,71.254 L247.1084,109.644 C247.1084,109.644 255.2314,112.733 265.0654,112.5" id="Fill-1279" fill="#F99175"></path>
            <path d="M225.9355,129.2119 C233.7435,163.1639 232.6875,196.0279 232.6875,196.0279 L198.6075,196.0279 C198.6075,196.0279 198.1915,172.4439 192.8155,172.4439 C187.4075,172.4439 186.6075,196.0279 186.6075,196.0279 L172.3995,196.0279 C172.3995,196.0279 178.0635,142.8439 175.0235,81.7879 C172.2715,26.7479 181.5505,15.6439 204.6875,12.1559 C204.6875,12.1559 216.7505,-4.4201 240.6235,2.6519 C266.0635,10.1719 266.0635,46.9079 266.0635,46.9079 L208.9115,78.5879 C208.9115,78.5879 219.5675,101.6279 225.9355,129.2119" id="Fill-1281" fill="#825656"></path>
            <path d="M315.1191,231.292 L304.3351,231.292 C304.3351,231.292 303.4071,205.372 298.2871,205.372 C293.1351,205.372 293.4551,231.292 293.4551,231.292 L266.8311,231.292 C266.8311,231.292 267.4391,138.748 263.3751,103.996 C260.7191,81.244 257.2641,63.644 257.2641,63.644 L269.5831,63.644 C269.5831,63.644 290.3831,88.444 301.5511,130.3 C313.9991,177.084 315.1191,231.292 315.1191,231.292" id="Fill-1283" fill="#825656"></path>
            <path d="M319.1406,232.0859 C318.7106,232.0859 318.3566,231.7469 318.3406,231.3139 C318.3186,230.6899 315.9426,168.3699 302.4466,126.6899 C289.0736,85.3919 267.4606,64.4169 267.2436,64.2099 C266.9246,63.9049 266.9136,63.3989 267.2186,63.0779 C267.5236,62.7609 268.0296,62.7489 268.3486,63.0529 C268.5686,63.2629 290.4616,84.4869 303.9686,126.1969 C317.5346,168.0919 319.9166,230.6299 319.941071,231.2579 C319.9556,231.6979 319.6106,232.0699 319.1686,232.0859 L319.1406,232.0859 Z" id="Fill-1285" fill="#825656"></path>
            <path d="M235.4062,167.4438 C234.9972,167.4438 234.6462,167.1298 234.6102,166.7128 C234.5922,166.4968 232.6772,144.8698 226.5052,123.5658 C218.7562,96.8128 206.4452,80.6928 206.3212,80.5328 C206.0522,80.1828 206.1152,79.6808 206.4662,79.4108 C206.8102,79.1408 207.3132,79.2028 207.5872,79.5548 C207.7122,79.7168 220.2092,96.0778 228.0422,123.1218 C234.2592,144.5808 236.1852,166.3578 236.2042,166.5748 C236.2422,167.0158 235.9172,167.4028 235.4762,167.4408 C235.4532,167.4428 235.4292,167.4438 235.4062,167.4438" id="Fill-1287" fill="#825656"></path>
            <path d="M262.9697,232.0859 C262.9587,232.0859 262.9467,232.0859 262.9347,232.0859 C262.4927,232.0649 262.1517,231.6919 262.1717,231.2499 C266.5547,133.6269 256.5777,64.4359 256.4767,63.7489 C256.4117,63.3109 256.7157,62.9049 257.1517,62.8389 C257.5997,62.7909 257.9947,63.0779 258.0607,63.5139 C258.1607,64.2029 268.1587,133.5339 263.7687,231.3219 C263.7497,231.7519 263.3967,232.0859 262.9697,232.0859" id="Fill-1289" fill="#825656"></path>
            <path d="M197.7168,31.9644 C197.7168,31.9644 212.6768,18.6824 236.8918,18.6723978 C260.6808,18.6624 276.6358,52.2304 274.6168,80.9624 C272.5998,109.6944 244.3318,117.0444 223.9018,102.1624 C204.7808,88.2354 197.7168,31.9644 197.7168,31.9644" id="Fill-1291" fill="#FFC4A3"></path>
            <path d="M259.7607,24.6768 C231.4297,33.3338 216.1827,25.5628 216.1827,25.5628 C216.1827,25.5628 221.1987,37.0718 216.9007,47.9078 C211.5777,61.3258 201.8207,63.6318 201.8207,63.6318 L194.9347,29.9888 C194.9347,29.9888 207.2077,18.8968 227.3477,16.1188 C248.7427,13.1678 259.7607,24.6768 259.7607,24.6768" id="Fill-1293" fill="#825656"></path>
            <path d="M209.3945,61.9595 C209.3945,61.9595 201.9975,58.2565 195.9515,62.5175 C189.0655,67.3705 192.3695,80.0455 200.8695,82.6505 C209.0015,85.1425 214.1825,79.0435 214.1825,79.0435 L209.3945,61.9595 Z" id="Fill-1295" fill="#FFC4A3"></path>
            <path d="M207.9092,71.3765 C207.7062,71.3765 207.5012,71.2985 207.3452,71.1435 C203.1722,67.0045 198.9402,69.5455 198.7632,69.6545 C198.3952,69.8855 197.8962,69.7745 197.6622,69.3995 C197.4302,69.0245 197.5422,68.5345 197.9142,68.2995 C197.9702,68.2645 203.3812,64.9515 208.4732,70.0095 C208.7862,70.3205 208.7892,70.8265 208.4762,71.1405 C208.3202,71.2985 208.1152,71.3765 207.9092,71.3765" id="Fill-1297" fill="#1D213A"></path>
            <path d="M167.209,196.8389 C167.178,196.8389 167.148,196.8389 167.117,196.8349 C166.678,196.7839 166.362,196.3879 166.412,195.9479 C170.811,157.1489 172.584,116.4629 173.881,86.7549 C174.563,71.0809 175.105,58.7019 175.813,52.5519 C175.862,52.1119 176.263,51.8049 176.7,51.8489 C177.139,51.8999 177.453,52.2969 177.403,52.7359 C176.7,58.8279 176.161,71.1829 175.48,86.8249 C174.183,116.5559 172.406,157.2739 168.003,196.1299 C167.956,196.5379 167.61,196.8389 167.209,196.8389" id="Fill-1299" fill="#825656"></path>
            <path d="M236.7187,32.3018 C218.9587,32.3018 212.2467,23.0558 211.9527,22.6358 C211.6997,22.2748 211.7857,21.7788 212.1467,21.5238 C212.5087,21.2708 213.0057,21.3548 213.2607,21.7158 C213.3327,21.8178 220.7317,31.9158 240.2857,30.5778 C255.3257,29.5598 259.1097,25.3078 259.1457,25.2658 C259.4277,24.9308 259.9347,24.8858 260.2707,25.1658 C260.6067,25.4458 260.6567,25.9408 260.3807,26.2808 C260.2217,26.4778 256.2917,31.0988 240.3957,32.1748 C239.1197,32.2608 237.8957,32.3018 236.7187,32.3018" id="Fill-1301" fill="#825656"></path>
            <path d="M233.6133,60.4673 C233.6133,61.9253 234.7953,63.1073 236.2533,63.1073 C237.7113,63.1073 238.8923,61.9253 238.8923,60.4673 C238.8923,59.0093 237.7113,57.8273 236.2533,57.8273 C234.7953,57.8273 233.6133,59.0093 233.6133,60.4673" id="Fill-1303" fill="#1D213A"></path>
            <path d="M262.4258,51.2007 C262.4258,52.6587 263.6078,53.8407 265.0658,53.8407 C266.5238,53.8407 267.7048,52.6587 267.7048,51.2007 C267.7048,49.7427 266.5238,48.5607 265.0658,48.5607 C263.6078,48.5607 262.4258,49.7427 262.4258,51.2007" id="Fill-1305" fill="#1D213A"></path>
            <path d="M221.1377,53.2954 C221.0027,54.2304 222.2477,54.6794 222.7417,53.8744 C224.4757,51.0504 226.0157,49.5664 230.2117,48.2174 C233.9997,47.0004 235.9997,48.0004 236.9997,47.0004 C238.4287,45.5714 232.5067,43.8604 227.0337,46.4014 C223.3287,48.1364 221.4417,51.1744 221.1377,53.2954" id="Fill-1307" fill="#825656"></path>
            <path d="M253.4766,41.1055 C254.3406,41.5005 258.1626,39.9015 261.1136,39.4075 C264.0576,38.8625 266.9126,38.4605 267.5886,37.7935 C268.3126,37.1415 265.3136,36.1715 260.7206,36.9785 C256.1296,37.7915 252.5746,40.7405 253.4766,41.1055" id="Fill-1309" fill="#825656"></path>
            <path d="M258.8281,68.9233 C258.4041,68.9233 258.0521,68.5923 258.0291,68.1643 C258.0061,67.7233 258.3451,67.3463 258.7871,67.3253 C261.2761,67.1963 262.8961,66.1703 263.2321,64.5073 C263.4951,63.2113 262.8701,61.7943 261.8101,61.2813 C260.2261,60.5183 258.4251,62.6643 258.4061,62.6873 C258.2391,62.8873 257.9811,62.9903 257.7241,62.9733 C257.4661,62.9513 257.2311,62.8063 257.0991,62.5813 L253.5951,56.5923 C253.3721,56.2113 253.5001,55.7203 253.8811,55.4973 C254.2631,55.2763 254.7531,55.4033 254.9761,55.7823 L257.9611,60.8823 C258.9321,60.0453 260.6811,58.9583 262.5081,59.8403 C264.2221,60.6703 265.2091,62.8123 264.8021,64.8253 C264.3151,67.2253 262.0991,68.7573 258.8681,68.9223 C258.8541,68.9233 258.8411,68.9233 258.8281,68.9233" id="Fill-1311" fill="#F99175"></path>
            <path d="M190.6074,196.8281 C190.1714,196.8281 189.8154,196.4781 189.8074,196.0401 C189.5084,178.0341 192.6964,164.2971 192.7294,164.1591 C192.8294,163.7331 193.2554,163.4561 193.6904,163.5651 C194.1224,163.6671 194.3874,164.0971 194.2864,164.5261 C194.2544,164.6621 191.1124,178.2191 191.4074,196.0161 C191.4154,196.4561 191.0624,196.8201 190.6204,196.8281 L190.6074,196.8281 Z" id="Fill-1313" fill="#825656"></path>
            <path d="M300.0732,232.0923 L300.0552,232.0923 C299.6142,232.0833 299.2632,231.7173 299.2732,231.2753 C299.6672,212.9863 297.5122,202.7143 297.4902,202.6123 C297.3982,202.1793 297.6732,201.7553 298.1062,201.6613 C298.5312,201.5783 298.9642,201.8433 299.0552,202.2753 C299.0782,202.3783 301.2702,212.8113 300.8732,231.3093 C300.8642,231.7453 300.5082,232.0923 300.0732,232.0923" id="Fill-1315" fill="#825656"></path>
            <path d="M505.8076,106.2437 C505.6016,106.2437 505.3966,106.1657 505.2406,106.0077 C504.9276,105.6937 504.9306,105.1877 505.2436,104.8767 L510.5086,99.6467 C510.8256,99.3357 511.3306,99.3357 511.6406,99.6497 C511.9536,99.9637 511.9506,100.4707 511.6376,100.7817 L506.3716,106.0107 C506.2156,106.1657 506.0106,106.2437 505.8076,106.2437" id="Fill-1317" fill="#1D213A"></path>
            <path d="M255.9619,76.27 C252.3979,76.632 249.5249,74.541 248.1459,76.477 C246.3549,78.994 251.2449,85.077 256.8019,83.374 C261.6759,81.879 262.9659,76.227 261.0459,75.186 C259.6459,74.427 259.1579,75.946 255.9619,76.27" id="Fill-1319" fill="#1D213A"></path>
            <path d="M253.3613,78.2163 C251.5063,78.2163 249.8493,79.0173 248.6803,80.2793 C250.1833,82.4983 253.3633,84.4273 256.8023,83.3733 C257.7573,83.0803 258.5353,82.5993 259.2183,82.0523 C258.2293,79.7963 255.9823,78.2163 253.3613,78.2163" id="Fill-1321" fill="#FF5A5A"></path>
        </g>
    </g>
</svg>