<?xml version="1.0" encoding="UTF-8"?>
<svg width="489px" height="796px" viewBox="0 0 489 796" version="1.1" xmlns="http://www.w3.org/2000/svg" xmlns:xlink="http://www.w3.org/1999/xlink">
    <title>Illustration 3 0</title>
    <g id="🤩-Illustrations" stroke="none" stroke-width="1" fill="none" fill-rule="evenodd">
        <g id="Illustration-3">
            <path d="M408.4482,631.6709 C405.5482,631.6709 404.0212,630.1459 402.7942,628.9199 C401.6482,627.7749 400.7432,626.8709 398.8372,626.8709 C396.9302,626.8709 396.0262,627.7749 394.8812,628.9199 C393.6532,630.1459 392.1262,631.6709 389.2262,631.6709 C386.3312,631.6709 384.8052,630.1459 383.5812,628.9199 C382.4372,627.7749 381.5322,626.8709 379.6312,626.8709 C377.7312,626.8709 376.8282,627.7749 375.6842,628.9189 C374.4592,630.1459 372.9342,631.6709 370.0392,631.6709 C367.1432,631.6709 365.6202,630.1459 364.3952,628.9199 C363.2512,627.7749 362.3482,626.8709 360.4482,626.8709 C359.7862,626.8709 359.2482,626.3339 359.2482,625.6709 C359.2482,625.0089 359.7862,624.4709 360.4482,624.4709 C363.3442,624.4709 364.8672,625.9969 366.0922,627.2229 C367.2352,628.3669 368.1382,629.2709 370.0392,629.2709 C371.9402,629.2709 372.8442,628.3669 373.9872,627.2229 C375.2122,625.9969 376.7352,624.4709 379.6312,624.4709 C382.5282,624.4709 384.0522,625.9969 385.2782,627.2239 C386.4222,628.3669 387.3252,629.2709 389.2262,629.2709 C391.1332,629.2709 392.0392,628.3659 393.1842,627.2219 C394.4122,625.9959 395.9382,624.4709 398.8372,624.4709 C401.7352,624.4709 403.2622,625.9959 404.4902,627.2219 C405.6352,628.3659 406.5422,629.2709 408.4482,629.2709 C409.1102,629.2709 409.6482,629.8089 409.6482,630.4709 C409.6482,631.1339 409.1102,631.6709 408.4482,631.6709" id="Fill-358" fill="#CDD1DF"></path>
            <path d="M408.4482,644.4712 C405.5482,644.4712 404.0212,642.9452 402.7942,641.7202 C401.6482,640.5752 400.7432,639.6712 398.8372,639.6712 C396.9302,639.6712 396.0262,640.5752 394.8812,641.7202 C393.6532,642.9452 392.1262,644.4712 389.2262,644.4712 C386.3312,644.4712 384.8052,642.9452 383.5812,641.7202 C382.4372,640.5752 381.5322,639.6712 379.6312,639.6712 C377.7312,639.6712 376.8282,640.5752 375.6842,641.7192 C374.4592,642.9452 372.9342,644.4712 370.0392,644.4712 C367.1432,644.4712 365.6202,642.9452 364.3952,641.7202 C363.2512,640.5752 362.3482,639.6712 360.4482,639.6712 C359.7862,639.6712 359.2482,639.1342 359.2482,638.4712 C359.2482,637.8082 359.7862,637.2712 360.4482,637.2712 C363.3442,637.2712 364.8672,638.7972 366.0922,640.0222 C367.2352,641.1672 368.1382,642.0712 370.0392,642.0712 C371.9402,642.0712 372.8442,641.1672 373.9872,640.0222 C375.2122,638.7972 376.7352,637.2712 379.6312,637.2712 C382.5282,637.2712 384.0522,638.7972 385.2782,640.0232 C386.4222,641.1672 387.3252,642.0712 389.2262,642.0712 C391.1332,642.0712 392.0392,641.1662 393.1842,640.0222 C394.4122,638.7962 395.9382,637.2712 398.8372,637.2712 C401.7352,637.2712 403.2622,638.7962 404.4902,640.0222 C405.6352,641.1662 406.5422,642.0712 408.4482,642.0712 C409.1102,642.0712 409.6482,642.6082 409.6482,643.2712 C409.6482,643.9332 409.1102,644.4712 408.4482,644.4712" id="Fill-360" fill="#CDD1DF"></path>
            <path d="M408.4482,657.271 C405.5482,657.271 404.0212,655.745 402.7942,654.52 C401.6482,653.375 400.7432,652.471 398.8372,652.471 C396.9302,652.471 396.0262,653.375 394.8812,654.52 C393.6532,655.745 392.1262,657.271 389.2262,657.271 C386.3312,657.271 384.8052,655.745 383.5812,654.52 C382.4372,653.375 381.5322,652.471 379.6312,652.471 C377.7312,652.471 376.8282,653.375 375.6842,654.519 C374.4592,655.745 372.9342,657.271 370.0392,657.271 C367.1432,657.271 365.6202,655.745 364.3952,654.52 C363.2512,653.375 362.3482,652.471 360.4482,652.471 C359.7862,652.471 359.2482,651.934 359.2482,651.271 C359.2482,650.608 359.7862,650.071 360.4482,650.071 C363.3442,650.071 364.8672,651.597 366.0922,652.823 C367.2352,653.967 368.1382,654.871 370.0392,654.871 C371.9402,654.871 372.8442,653.967 373.9872,652.823 C375.2122,651.597 376.7352,650.071 379.6312,650.071 C382.5282,650.071 384.0522,651.597 385.2782,652.823 C386.4222,653.967 387.3252,654.871 389.2262,654.871 C391.1332,654.871 392.0392,653.966 393.1842,652.822 C394.4122,651.596 395.9382,650.071 398.8372,650.071 C401.7352,650.071 403.2622,651.596 404.4902,652.822 C405.6352,653.966 406.5422,654.871 408.4482,654.871 C409.1102,654.871 409.6482,655.409 409.6482,656.071 C409.6482,656.733 409.1102,657.271 408.4482,657.271" id="Fill-362" fill="#CDD1DF"></path>
            <path d="M408.4482,670.0713 C405.5482,670.0713 404.0212,668.5453 402.7942,667.3193 C401.6482,666.1753 400.7432,665.2713 398.8372,665.2713 C396.9302,665.2713 396.0262,666.1753 394.8812,667.3193 C393.6532,668.5453 392.1262,670.0713 389.2262,670.0713 C386.3312,670.0713 384.8052,668.5453 383.5812,667.3193 C382.4372,666.1753 381.5322,665.2713 379.6312,665.2713 C377.7312,665.2713 376.8282,666.1753 375.6842,667.3193 C374.4592,668.5453 372.9342,670.0713 370.0392,670.0713 C367.1432,670.0713 365.6202,668.5453 364.3952,667.3193 C363.2512,666.1753 362.3482,665.2713 360.4482,665.2713 C359.7862,665.2713 359.2482,664.7333 359.2482,664.0713 C359.2482,663.4083 359.7862,662.8713 360.4482,662.8713 C363.3442,662.8713 364.8672,664.3973 366.0922,665.6223 C367.2352,666.7673 368.1382,667.6713 370.0392,667.6713 C371.9402,667.6713 372.8442,666.7673 373.9872,665.6223 C375.2122,664.3973 376.7352,662.8713 379.6312,662.8713 C382.5282,662.8713 384.0522,664.3973 385.2782,665.6233 C386.4222,666.7673 387.3252,667.6713 389.2262,667.6713 C391.1332,667.6713 392.0392,666.7663 393.1842,665.6223 C394.4122,664.3963 395.9382,662.8713 398.8372,662.8713 C401.7352,662.8713 403.2622,664.3963 404.4902,665.6223 C405.6352,666.7663 406.5422,667.6713 408.4482,667.6713 C409.1102,667.6713 409.6482,668.2083 409.6482,668.8713 C409.6482,669.5333 409.1102,670.0713 408.4482,670.0713" id="Fill-364" fill="#CDD1DF"></path>
            <path d="M55.7002,76.2832 C55.7002,78.0512 54.2672,79.4832 52.5002,79.4832 C50.7332,79.4832 49.3012,78.0512 49.3012,76.2832 C49.3012,74.5162 50.7332,73.0832 52.5002,73.0832 C54.2672,73.0832 55.7002,74.5162 55.7002,76.2832" id="Fill-366" fill="#CDD1DF"></path>
            <path d="M89.3008,76.2832 C89.3008,78.9342 87.1518,81.0832 84.4998,81.0832 C81.8498,81.0832 79.6998,78.9342 79.6998,76.2832 C79.6998,73.6322 81.8498,71.4832 84.4998,71.4832 C87.1518,71.4832 89.3008,73.6322 89.3008,76.2832" id="Fill-368" fill="#CDD1DF"></path>
            <path d="M121.3008,76.2832 C121.3008,78.9342 119.1518,81.0832 116.4998,81.0832 C113.8498,81.0832 111.6998,78.9342 111.6998,76.2832 C111.6998,73.6322 113.8498,71.4832 116.4998,71.4832 C119.1518,71.4832 121.3008,73.6322 121.3008,76.2832" id="Fill-370" fill="#CDD1DF"></path>
            <path d="M153.3008,76.2832 C153.3008,78.9342 151.1518,81.0832 148.4998,81.0832 C145.8498,81.0832 143.6998,78.9342 143.6998,76.2832 C143.6998,73.6322 145.8498,71.4832 148.4998,71.4832 C151.1518,71.4832 153.3008,73.6322 153.3008,76.2832" id="Fill-372" fill="#CDD1DF"></path>
            <path d="M55.7002,108.2832 C55.7002,110.0512 54.2672,111.4832 52.5002,111.4832 C50.7332,111.4832 49.3012,110.0512 49.3012,108.2832 C49.3012,106.5162 50.7332,105.0832 52.5002,105.0832 C54.2672,105.0832 55.7002,106.5162 55.7002,108.2832" id="Fill-374" fill="#CDD1DF"></path>
            <path d="M89.3008,108.2832 C89.3008,110.9342 87.1518,113.0832 84.4998,113.0832 C81.8498,113.0832 79.6998,110.9342 79.6998,108.2832 C79.6998,105.6322 81.8498,103.4832 84.4998,103.4832 C87.1518,103.4832 89.3008,105.6322 89.3008,108.2832" id="Fill-376" fill="#CDD1DF"></path>
            <path d="M121.3008,108.2832 C121.3008,110.9342 119.1518,113.0832 116.4998,113.0832 C113.8498,113.0832 111.6998,110.9342 111.6998,108.2832 C111.6998,105.6322 113.8498,103.4832 116.4998,103.4832 C119.1518,103.4832 121.3008,105.6322 121.3008,108.2832" id="Fill-378" fill="#CDD1DF"></path>
            <path d="M153.3008,108.2832 C153.3008,110.9342 151.1518,113.0832 148.4998,113.0832 C145.8498,113.0832 143.6998,110.9342 143.6998,108.2832 C143.6998,105.6322 145.8498,103.4832 148.4998,103.4832 C151.1518,103.4832 153.3008,105.6322 153.3008,108.2832" id="Fill-380" fill="#CDD1DF"></path>
            <path d="M55.7002,140.2832 C55.7002,142.0512 54.2672,143.4832 52.5002,143.4832 C50.7332,143.4832 49.3012,142.0512 49.3012,140.2832 C49.3012,138.5162 50.7332,137.0832 52.5002,137.0832 C54.2672,137.0832 55.7002,138.5162 55.7002,140.2832" id="Fill-382" fill="#CDD1DF"></path>
            <path d="M87.7002,140.2832 C87.7002,142.0512 86.2672,143.4832 84.5002,143.4832 C82.7332,143.4832 81.3012,142.0512 81.3012,140.2832 C81.3012,138.5162 82.7332,137.0832 84.5002,137.0832 C86.2672,137.0832 87.7002,138.5162 87.7002,140.2832" id="Fill-384" fill="#CDD1DF"></path>
            <path d="M121.3008,140.2832 C121.3008,142.9342 119.1518,145.0832 116.4998,145.0832 C113.8498,145.0832 111.6998,142.9342 111.6998,140.2832 C111.6998,137.6322 113.8498,135.4832 116.4998,135.4832 C119.1518,135.4832 121.3008,137.6322 121.3008,140.2832" id="Fill-386" fill="#CDD1DF"></path>
            <path d="M153.3008,140.2832 C153.3008,142.9342 151.1518,145.0832 148.4998,145.0832 C145.8498,145.0832 143.6998,142.9342 143.6998,140.2832 C143.6998,137.6322 145.8498,135.4832 148.4998,135.4832 C151.1518,135.4832 153.3008,137.6322 153.3008,140.2832" id="Fill-388" fill="#CDD1DF"></path>
            <path d="M55.7002,172.2832 C55.7002,174.0512 54.2672,175.4832 52.5002,175.4832 C50.7332,175.4832 49.3012,174.0512 49.3012,172.2832 C49.3012,170.5162 50.7332,169.0832 52.5002,169.0832 C54.2672,169.0832 55.7002,170.5162 55.7002,172.2832" id="Fill-390" fill="#CDD1DF"></path>
            <path d="M87.7002,172.2832 C87.7002,174.0512 86.2672,175.4832 84.5002,175.4832 C82.7332,175.4832 81.3012,174.0512 81.3012,172.2832 C81.3012,170.5162 82.7332,169.0832 84.5002,169.0832 C86.2672,169.0832 87.7002,170.5162 87.7002,172.2832" id="Fill-392" fill="#CDD1DF"></path>
            <path d="M119.7002,172.2832 C119.7002,174.0512 118.2672,175.4832 116.5002,175.4832 C114.7332,175.4832 113.3012,174.0512 113.3012,172.2832 C113.3012,170.5162 114.7332,169.0832 116.5002,169.0832 C118.2672,169.0832 119.7002,170.5162 119.7002,172.2832" id="Fill-394" fill="#CDD1DF"></path>
            <path d="M151.7002,172.2832 C151.7002,174.0512 150.2672,175.4832 148.5002,175.4832 C146.7332,175.4832 145.3012,174.0512 145.3012,172.2832 C145.3012,170.5162 146.7332,169.0832 148.5002,169.0832 C150.2672,169.0832 151.7002,170.5162 151.7002,172.2832" id="Fill-396" fill="#CDD1DF"></path>
            <path d="M55.165,456.3994 C25.169,456.3994 0.766,431.9954 0.766,401.9994 L19.966,401.9994 C19.966,421.4084 35.756,437.1994 55.165,437.1994 L55.165,456.3994 Z" id="Fill-398" fill="#CDD1DF"></path>
            <path d="M427.9629,312.062 C427.4619,311.684 426.9649,311.556 426.4419,311.64 C422.9149,312.275 421.5559,320.623 421.1339,326.591 L433.0739,326.591 C433.0749,326.591 433.0759,326.59 433.0769,326.59 C432.2919,321.731 430.6659,314.095 427.9629,312.062" id="Fill-400" fill="#CDD1DF"></path>
            <path d="M426.2441,310.5371 C427.0741,310.3791 427.8841,310.5991 428.6371,311.1671 C431.6681,313.4471 433.3951,321.4651 434.2011,326.4771 C435.7631,326.3191 437.2181,325.8521 438.5221,325.1201 C435.6991,310.2051 430.8211,292.1831 426.3851,292.1831 L426.3531,292.1831 C423.3891,292.2401 422.4351,295.6851 421.3341,299.6761 C420.1651,303.9111 418.8381,308.7071 414.4281,309.3761 C414.2801,309.4001 414.1351,309.4091 413.9911,309.4091 C408.6761,309.4091 404.6161,294.6931 402.5621,285.3041 C400.6601,287.3111 399.4741,290.0071 399.4741,292.9911 L399.4741,315.3911 C399.4741,321.5771 404.4881,326.5911 410.6751,326.5911 L420.0001,326.5911 C420.3711,320.8751 421.6731,311.3611 426.2441,310.5371" id="Fill-402" fill="#CDD1DF"></path>
            <path d="M433.0742,281.791 L410.6752,281.791 C407.9422,281.791 405.4722,282.808 403.5282,284.433 C405.7042,294.431 409.6712,308.292 413.9602,308.292 C414.0602,308.292 414.1582,308.284 414.2592,308.27 C417.9522,307.709 419.1232,303.475 420.2542,299.379 C421.3732,295.326 422.5302,291.136 426.3322,291.064 C426.3472,291.062 426.3632,291.062 426.3792,291.062 C432.3692,291.062 437.3762,313.215 439.5412,324.51 C442.3962,322.48 444.2742,319.162 444.2742,315.391 L444.2742,292.991 C444.2742,286.805 439.2602,281.791 433.0742,281.791" id="Fill-404" fill="#CDD1DF"></path>
            <polygon id="Fill-406" fill="#CDD1DF" points="73.3008 390.7988 65.3008 398.7988 57.3008 390.7988 65.3008 382.7988"></polygon>
            <polygon id="Fill-408" fill="#CDD1DF" points="429.874 787.6577 421.874 795.6577 413.874 787.6577 421.874 779.6577"></polygon>
            <path d="M324.4219,682.8774 L303.6759,731.7514 C303.6759,731.7514 323.5339,738.3064 325.9339,753.4344 C328.0889,767.0204 319.2639,779.4424 319.2639,779.4424 L238.1779,745.0234 L272.7719,660.9534 L324.4219,682.8774 Z" id="Fill-410" fill="#FFC4A3"></path>
            <polygon id="Fill-412" fill="#F99175" points="265.3447 679.0005 313.1547 709.4195 324.4217 682.8775 272.7717 660.9535"></polygon>
            <path d="M238.1777,745.0234 L319.2637,779.4424 C319.2637,779.4424 328.0887,767.0204 325.9337,753.4344 C323.5337,738.3064 303.6757,731.7514 303.6757,731.7514 L306.4887,725.1254 C306.4887,725.1254 304.6187,724.2104 298.7867,721.5954 C292.9537,718.9814 286.3177,728.2324 286.3177,728.2324 L248.0157,721.1154 L238.1777,745.0234 Z" id="Fill-414" fill="#1D213A"></path>
            <path d="M321.915,314.54 C321.915,314.54 379.434,476.504 387.478,504.928 C395.522,533.352 395.121,538.582 384.797,574.112 C373.09,614.402 340.819,705.305 340.819,705.305 L247.086,665.86 L292.774,531.417 L241.603,314.54 L321.915,314.54 Z" id="Fill-416" fill="#D3D6E2"></path>
            <path d="M200.625,119.772 C183.95,123.615 118.789,187.972 99.482,213.714 C80.176,239.457 81.458,246.114 112.354,275.122 C148.555,309.11 179.821,325.314 179.821,325.314 L187.126,282.97 L153.837,237.724 L208.084,176.441 L200.625,119.772 Z" id="Fill-418" fill="#FFC4A3"></path>
            <path d="M165.1377,253.0835 C158.5057,253.2745 150.2217,255.3475 142.1457,262.4235 C132.5997,270.7885 129.5887,281.2735 128.9947,289.8675 C133.5667,293.6905 137.9657,297.1865 142.1457,300.3785 C138.1527,261.5535 172.0097,262.4255 172.0097,262.4255 L165.1377,253.0835 Z" id="Fill-420" fill="#F99175"></path>
            <path d="M153.8369,237.7236 L208.0839,176.4416 L200.6249,119.7716 C183.9499,123.6156 118.7889,187.9716 99.4829,213.7146 C80.1759,239.4566 81.4579,246.1136 112.3539,275.1216 C120.8569,283.1046 129.0779,290.0936 136.6949,296.1346 C136.6849,296.0986 131.9409,279.6676 143.4599,268.2836 C155.9359,255.9526 172.0099,262.4256 172.0099,262.4256 L153.8369,237.7236 Z" id="Fill-422" fill="#1D213A"></path>
            <path d="M153.8369,238.5244 C153.5909,238.5244 153.3449,238.4094 153.1889,238.1924 C144.1979,225.7474 130.4619,223.3554 130.3249,223.3324 C129.8889,223.2604 129.5939,222.8494 129.6649,222.4134 C129.7369,221.9764 130.1489,221.6864 130.5839,221.7534 C131.1719,221.8494 145.0949,224.2564 154.4849,237.2554 C154.7449,237.6144 154.6639,238.1144 154.3059,238.3724 C154.1639,238.4754 153.9999,238.5244 153.8369,238.5244" id="Fill-424" fill="#E8EAEF"></path>
            <path d="M305.7656,112.4277 C316.8866,113.0237 387.6476,163.6747 387.6476,163.6747 L439.7686,122.4757 C439.7686,122.4757 444.6646,101.4167 451.2316,95.5267 C458.0696,89.3917 463.1306,93.6357 463.1306,93.6357 C463.1306,93.6357 469.6546,85.0257 475.6666,78.7337 C481.4326,72.6997 489.8456,78.1297 485.8236,86.0737 C482.0956,93.4367 476.0366,100.2857 476.0366,100.2857 C476.0366,100.2857 484.4826,101.0907 483.3426,108.7997 C483.3426,108.7997 489.2426,109.0677 488.8396,117.3137 C488.4576,125.1477 481.6666,133.4027 476.1306,129.9397 C476.1306,129.9397 475.9286,134.4207 473.1536,139.7047 C468.6276,148.3187 431.3956,203.8717 412.9436,222.0077 C393.0746,241.5347 388.4846,240.3287 361.1326,218.8097 C340.9466,202.9277 294.5636,162.2967 294.5636,162.2967 L305.7656,112.4277 Z" id="Fill-426" fill="#FFC4A3"></path>
            <path d="M459.4111,135.2085 C459.2681,135.2085 459.1251,135.1705 458.9931,135.0915 C458.6171,134.8615 458.4981,134.3695 458.7271,133.9925 C466.5871,121.1065 460.8281,108.9365 460.7701,108.8145 C460.6071,108.4805 460.6951,108.0795 460.9841,107.8445 C461.2701,107.6105 461.6821,107.6035 461.9771,107.8315 C466.8541,111.5965 470.8471,110.1885 472.3341,109.4105 C474.0531,108.5115 475.0731,107.1275 475.0361,106.3595 C474.9281,104.1885 470.6571,99.3535 462.7031,94.3115 C462.3291,94.0745 462.2191,93.5795 462.4561,93.2075 C462.6921,92.8335 463.1871,92.7235 463.5591,92.9595 C471.3451,97.8945 476.4761,103.1235 476.6331,106.2795 C476.7111,107.8215 475.2481,109.6925 473.0761,110.8275 C471.5401,111.6305 467.7741,113.0065 463.1201,110.4885 C464.5141,114.8305 466.3781,124.5225 460.0941,134.8255 C459.9431,135.0725 459.6801,135.2085 459.4111,135.2085" id="Fill-428" fill="#1D213A"></path>
            <path d="M472.917,124.5586 C472.31,124.5586 471.703,124.4656 471.105,124.2786 C468.979,123.6126 467.523,122.3706 466.778,120.5886 C465.058,116.4766 467.831,110.9896 467.951,110.7586 C468.149,110.3656 468.636,110.2106 469.028,110.4126 C469.42,110.6146 469.575,111.0966 469.375,111.4896 C469.349,111.5386 466.82,116.5526 468.256,119.9746 C468.818,121.3176 469.907,122.2266 471.583,122.7516 C472.99,123.1906 474.415,122.9386 475.837,121.9936 C479.477,119.5766 482.106,113.3496 482.547,108.7246 C482.589,108.2836 482.993,107.9546 483.42,108.0036 C483.859,108.0456 484.183,108.4356 484.141,108.8756 C483.67,113.8046 480.911,120.5446 476.724,123.3256 C475.49,124.1436 474.2,124.5586 472.917,124.5586" id="Fill-430" fill="#1D213A"></path>
            <path d="M450.4863,174.1367 C418.2993,176.6587 410.5623,145.5617 410.5623,145.5617 L402.5973,151.8567 C403.6753,158.2857 406.6953,166.2257 414.0253,174.1367 C422.2733,183.0377 432.4033,186.6327 440.5713,187.9997 C443.9463,183.3807 447.2933,178.6947 450.4863,174.1367" id="Fill-432" fill="#F99175"></path>
            <path d="M476.1309,130.7397 C475.9429,130.7397 475.7529,130.6747 475.6019,130.5397 C472.3109,127.6327 473.9359,123.3267 474.0059,123.1447 C474.1669,122.7317 474.6259,122.5317 475.0389,122.6887 C475.4499,122.8477 475.6539,123.3097 475.4979,123.7217 C475.4439,123.8627 474.2139,127.1807 476.6609,129.3397 C476.9919,129.6327 477.0239,130.1377 476.7319,130.4697 C476.5729,130.6487 476.3529,130.7397 476.1309,130.7397" id="Fill-434" fill="#1D213A"></path>
            <path d="M419.5225,170.1396 C409.1985,159.6816 410.5625,145.5616 410.5625,145.5616 L387.6475,163.6736 C387.6475,163.6736 316.8865,113.0236 305.7655,112.4276 L294.5635,162.2966 C294.5635,162.2966 340.9465,202.9286 361.1325,218.8096 C388.4845,240.3286 393.0745,241.5356 412.9445,222.0066 C421.5125,213.5856 434.1295,197.0946 445.6425,180.9826 C445.6395,180.9826 431.1115,181.8786 419.5225,170.1396" id="Fill-436" fill="#1D213A"></path>
            <path d="M237.5957,689.8193 L237.5957,742.9133 C237.5957,742.9133 258.4367,741.1893 266.5567,754.1763 C273.8487,765.8403 270.5777,780.7233 270.5777,780.7233 L182.4907,780.7233 L181.4857,689.8193 L237.5957,689.8193 Z" id="Fill-438" fill="#FFC4A3"></path>
            <polygon id="Fill-440" fill="#F99175" points="237.5957 689.8193 181.4857 689.8193 181.6997 709.2343 237.5957 719.2683"></polygon>
            <path d="M370.1025,177.2197 C369.8565,177.2197 369.6125,177.1057 369.4565,176.8897 C369.1965,176.5327 369.2745,176.0327 369.6325,175.7727 L387.1775,163.0277 C387.5345,162.7687 388.0325,162.8447 388.2945,163.2037 C388.5545,163.5617 388.4765,164.0617 388.1185,164.3217 L370.5735,177.0667 C370.4305,177.1697 370.2665,177.2197 370.1025,177.2197" id="Fill-442" fill="#E8EAEF"></path>
            <path d="M194.4082,251.792 C194.4082,251.792 175.5112,314.238 167.3722,449.343 C158.8872,590.201 159.8162,705.305 159.8162,705.305 L261.9832,705.305 C261.9832,705.305 267.8152,439.432 258.1622,335.054 L321.9152,314.54 L305.8262,251.792 L194.4082,251.792 Z" id="Fill-444" fill="#D3D6E2"></path>
            <path d="M261.7109,400.5562 C261.2819,400.5562 260.9279,400.2172 260.9109,399.7862 C260.0289,375.8562 258.8549,355.8622 257.4189,340.3582 C257.3859,340.0092 257.5869,339.6782 257.9119,339.5442 C258.0279,339.4972 269.5479,334.6522 276.2939,321.9412 C276.5029,321.5502 276.9819,321.4022 277.3749,321.6092 C277.7659,321.8172 277.9139,322.3012 277.7059,322.6912 C271.4509,334.4782 261.5209,339.6482 259.0649,340.7842 C260.4779,356.2352 261.6379,376.0612 262.5109,399.7262 C262.5259,400.1682 262.1809,400.5392 261.7399,400.5562 C261.7299,400.5562 261.7199,400.5562 261.7109,400.5562" id="Fill-446" fill="#1D213A"></path>
            <path d="M262.6064,672.9399 L262.5934,672.9399 C262.1514,672.9329 261.7974,672.5689 261.8054,672.1269 C262.0994,654.3099 262.3434,636.1179 262.5294,618.0549 C262.5324,617.6129 262.8014,617.2289 263.3364,617.2629 C263.7794,617.2679 264.1334,617.6299 264.1294,618.0719 C263.9434,636.1379 263.7004,654.3329 263.4064,672.1529 C263.3984,672.5909 263.0424,672.9399 262.6064,672.9399" id="Fill-448" fill="#1D213A"></path>
            <path d="M321.915,269.6768 C321.915,269.6768 305.96,281.5568 255.011,282.3618 C204.061,283.1658 181.365,266.7598 181.365,266.7598 C205.269,184.6198 200.625,119.7718 200.625,119.7718 C200.625,119.7718 225.381,112.6438 253.148,111.1768 C279.078,109.8058 305.766,112.4278 305.766,112.4278 C305.766,112.4278 302.608,192.6648 321.915,269.6768" id="Fill-450" fill="#1D213A"></path>
            <path d="M307.3027,174.1904 C306.8877,174.1904 306.5357,173.8684 306.5057,173.4464 C305.6647,161.5924 305.1227,149.6144 304.8937,137.8484 C304.8857,137.4074 305.2357,137.0414 305.6777,137.0324 C306.0867,137.0454 306.4847,137.3754 306.4927,137.8174 C306.7237,149.5564 307.2637,161.5064 308.1027,173.3344 C308.1337,173.7744 307.8017,174.1574 307.3607,174.1884 C307.3417,174.1904 307.3237,174.1904 307.3027,174.1904" id="Fill-452" fill="#E8EAEF"></path>
            <path d="M228.3965,57.3145 L228.3965,113.8635 C228.3965,113.8635 237.6915,125.8895 256.3515,123.6755 C273.2455,121.6715 277.6815,110.8775 277.6815,110.8775 L269.2225,54.1635 L228.3965,57.3145 Z" id="Fill-454" fill="#FFC4A3"></path>
            <path d="M274.1836,33.248 C277.6816,16.756 268.4146,1.414 248.4416,0.399 C227.3246,-0.673 224.2576,13.807 224.2576,13.807 C224.2576,13.807 210.8946,11.365 207.8696,27.32 C205.6666,38.937 215.7266,54.298 215.7266,54.298 L274.1836,33.248 Z" id="Fill-456" fill="#825656"></path>
            <path d="M269.2227,54.1636 L253.0387,55.4126 L255.6387,85.2876 C255.6387,85.2876 263.3907,93.5186 275.0927,93.5186 L269.2227,54.1636 Z" id="Fill-458" fill="#F99175"></path>
            <path d="M244.5742,146.6655 L218.5102,146.6655 C218.0592,142.6435 216.6112,130.9305 214.1012,130.9305 C211.4302,130.9305 211.3982,142.6115 211.4952,146.6655 L199.7822,146.6655 C199.7822,146.6655 198.6562,130.4475 202.4532,99.7495 C206.2182,69.4375 215.0672,57.1135 215.0672,57.1135 L228.3882,57.3065 C242.0002,93.4425 244.5742,146.6655 244.5742,146.6655" id="Fill-460" fill="#825656"></path>
            <path d="M299.792,170.7993 L293.164,170.7993 C293.164,170.7993 293.656,157.9193 290.985,157.9193 C287.671,157.9193 288.337,170.7993 288.337,170.7993 L266.488,170.7993 C262.755,92.5093 269.223,54.1533 269.223,54.1533 L279.681,54.1533 C279.681,54.1533 292.553,76.1633 296.832,109.6603 C301.595,146.8593 299.792,170.7993 299.792,170.7993" id="Fill-462" fill="#825656"></path>
            <path d="M176.2412,285.7808 C182.5362,278.5248 196.0152,275.8488 198.9072,280.8288 C200.7172,283.9468 197.5992,287.5668 197.5992,287.5668 C197.5992,287.5668 201.5902,287.6038 202.4612,292.0158 C203.2312,295.9128 199.2092,298.9288 199.2092,298.9288 C199.2092,298.9288 204.7392,299.6338 203.8202,305.0838 C202.7552,311.4078 186.7252,315.1808 179.5712,327.0008 C179.5712,327.0008 174.7522,324.1048 171.8842,318.1598 C166.3192,306.6298 169.8722,293.1208 176.2412,285.7808" id="Fill-464" fill="#FFC4A3"></path>
            <path d="M174.5342,323.1538 C174.3002,323.1538 174.0672,323.0508 173.9092,322.8528 C172.8232,321.4938 171.8992,320.0318 171.1642,318.5078 C165.4432,306.6548 169.0862,292.8088 175.6382,285.2568 C177.8102,282.7518 180.9892,280.5908 184.5872,279.1718 C185.0002,279.0128 185.4642,279.2118 185.6252,279.6228 C185.7872,280.0338 185.5862,280.4988 185.1752,280.6608 C181.8102,281.9868 178.8522,283.9908 176.8472,286.3048 C170.6382,293.4618 167.1852,306.5828 172.6042,317.8128 C173.2892,319.2278 174.1482,320.5888 175.1592,321.8548 C175.4352,322.1998 175.3782,322.7028 175.0342,322.9788 C174.8862,323.0968 174.7092,323.1538 174.5342,323.1538" id="Fill-466" fill="#1D213A"></path>
            <path d="M178.5205,296.9385 C178.3175,296.9385 178.1155,296.8615 177.9585,296.7085 C177.6435,296.3995 177.6405,295.8925 177.9505,295.5775 C184.1875,289.2335 192.0375,287.2865 197.5245,286.7695 C197.9515,286.7315 198.3565,287.0525 198.3965,287.4915 C198.4375,287.9315 198.1145,288.3215 197.6745,288.3635 C192.4535,288.8545 184.9905,290.6995 179.0905,296.6995 C178.9345,296.8585 178.7265,296.9385 178.5205,296.9385" id="Fill-468" fill="#1D213A"></path>
            <path d="M244.5859,117.5103 C244.1779,117.5103 243.8289,117.1983 243.7899,116.7833 C240.4919,80.9423 228.2009,63.1123 228.0779,62.9363 C227.8249,62.5753 227.9109,62.0763 228.2719,61.8223 C228.6329,61.5683 229.1329,61.6533 229.3879,62.0163 C229.5139,62.1953 242.0469,80.3753 245.3839,116.6363 C245.4249,117.0763 245.1019,117.4663 244.6609,117.5073 C244.6359,117.5093 244.6099,117.5103 244.5859,117.5103" id="Fill-470" fill="#825656"></path>
            <path d="M303.2783,160.8843 C302.8393,160.8843 302.4813,160.5303 302.4773,160.0913 C302.4743,159.7543 302.1463,126.0553 296.5943,98.4323 C291.7083,74.1083 277.1693,52.6843 277.0233,52.4713 C276.7733,52.1063 276.8653,51.6083 277.2313,51.3583 C277.5943,51.1113 278.0933,51.2023 278.3413,51.5663 C278.4903,51.7823 293.2123,73.4763 298.1643,98.1173 C303.7453,125.8933 304.0753,159.7393 304.078319,160.0783 C304.0813,160.5193 303.7263,160.8803 303.2843,160.8843 L303.2783,160.8843 Z" id="Fill-472" fill="#825656"></path>
            <path d="M262.7354,171.6104 C262.3054,171.6104 261.9504,171.2684 261.9354,170.8374 C259.6924,102.3654 268.3784,76.1534 268.4664,75.8974 C268.6074,75.4794 269.0634,75.2604 269.4824,75.3994 C269.8994,75.5424 270.1234,75.9974 269.9794,76.4154 C269.8934,76.6704 261.3024,102.6794 263.5364,170.7834 C263.5494,171.2254 263.2034,171.5954 262.7624,171.6094 C262.7534,171.6104 262.7434,171.6104 262.7354,171.6104" id="Fill-474" fill="#825656"></path>
            <path d="M180.7324,310.0439 C180.5674,310.0439 180.3994,309.9929 180.2554,309.8869 C179.9014,309.6239 179.8264,309.1229 180.0904,308.7669 C185.3704,301.6449 194.5264,298.7329 199.1064,298.1369 C199.5244,298.0769 199.9454,298.3879 200.0034,298.8269 C200.0594,299.2639 199.7514,299.6659 199.3124,299.7229 C194.9844,300.2879 186.3364,303.0279 181.3754,309.7199 C181.2184,309.9319 180.9764,310.0439 180.7324,310.0439" id="Fill-476" fill="#1D213A"></path>
            <path d="M223.1006,21.4199 C223.1006,21.4199 248.0856,10.3959 263.3246,17.3979 C278.2056,24.2349 283.1976,56.0219 278.4396,71.3519 C273.0096,88.8489 244.5866,90.4989 234.2296,72.9349 C226.1636,59.2569 223.1006,21.4199 223.1006,21.4199" id="Fill-478" fill="#FFC4A3"></path>
            <path d="M224.4404,48.1978 C224.4404,48.1978 240.4634,45.8508 237.6394,20.9878 C237.6394,20.9878 246.1904,26.9758 257.5584,24.9348 C268.0164,23.0578 270.0274,16.2498 270.0274,16.2498 C270.0274,16.2498 253.7374,0.3618 219.1454,21.2778 L224.4404,48.1978 Z" id="Fill-480" fill="#825656"></path>
            <path d="M197.4512,189.2539 C197.2632,189.2539 197.0732,189.1879 196.9222,189.0529 C196.5912,188.7599 196.5592,188.2549 196.8522,187.9229 L211.1312,171.7919 C211.4232,171.4609 211.9302,171.4309 212.2592,171.7239 C212.5912,172.0169 212.6222,172.5219 212.3282,172.8529 L198.0502,188.9839 C197.8912,189.1629 197.6722,189.2539 197.4512,189.2539" id="Fill-482" fill="#E8EAEF"></path>
            <path d="M237.5957,742.9136 L237.5957,735.2716 L228.9997,735.2716 C222.0287,735.2716 221.7597,748.1426 221.7597,748.1426 L182.1787,752.5646 L182.4907,780.7236 L270.5787,780.7236 C270.5787,780.7236 273.8487,765.8406 266.5567,754.1766 C258.4367,741.1886 237.5957,742.9136 237.5957,742.9136" id="Fill-484" fill="#1D213A"></path>
            <path d="M268.4971,758.6836 C268.1871,758.6836 267.8931,758.5026 267.7631,758.2016 C267.2141,756.9346 266.5811,755.7226 265.8781,754.6006 C258.1091,742.1706 237.8641,743.6926 237.6621,743.7116 C237.2561,743.7346 236.8361,743.4206 236.8001,742.9796 C236.7631,742.5396 237.0911,742.1536 237.5311,742.1176 C238.4031,742.0436 258.9531,740.5036 267.2341,753.7516 C267.9791,754.9426 268.6511,756.2256 269.2311,757.5656 C269.4061,757.9716 269.2201,758.4426 268.8131,758.6186 C268.7111,758.6626 268.6021,758.6836 268.4971,758.6836" id="Fill-486" fill="#E8EAEF"></path>
            <path d="M249.9893,46.7905 C249.9893,47.9005 249.0893,48.8015 247.9783,48.8015 C246.8673,48.8015 245.9673,47.9005 245.9673,46.7905 C245.9673,45.6795 246.8673,44.7795 247.9783,44.7795 C249.0893,44.7795 249.9893,45.6795 249.9893,46.7905" id="Fill-488" fill="#1D213A"></path>
            <path d="M273.9023,41.9463 C273.9023,43.0573 273.0023,43.9573 271.8903,43.9573 C270.7803,43.9573 269.8803,43.0573 269.8803,41.9463 C269.8803,40.8353 270.7803,39.9353 271.8903,39.9353 C273.0023,39.9353 273.9023,40.8353 273.9023,41.9463" id="Fill-490" fill="#1D213A"></path>
            <path d="M262.5273,62.1753 C259.0893,62.7013 255.9713,60.3643 254.7293,62.3103 C253.1173,64.8383 257.5963,70.3153 263.0983,68.9043 C267.4083,67.8003 269.5023,61.9793 267.6643,60.9213 C265.9063,59.9083 265.6113,61.7033 262.5273,62.1753" id="Fill-492" fill="#1D213A"></path>
            <path d="M262.7715,68.9644 C262.6795,65.9654 260.2345,63.5594 257.2135,63.5594 C256.2255,63.5594 255.3115,63.8384 254.5065,64.2884 C255.1215,66.8374 258.6155,69.8304 262.7715,68.9644" id="Fill-494" fill="#FF5A5A"></path>
            <path d="M268.2451,63.939 C267.0181,64.624 265.0201,65.48 262.3091,65.822 C259.2571,66.193 256.4601,65.68 254.6621,65.194 C254.1481,64.139 254.0631,63.083 254.5761,62.284 C255.8321,60.287 259.0281,62.684 262.5661,62.141 C265.7051,61.656 266.0191,59.83 267.8171,60.857 C268.5881,61.285 268.6731,62.541 268.2451,63.939" id="Fill-496" fill="#E8EAEF"></path>
            <path d="M266.4688,56.7158 C265.5248,56.7158 264.5048,56.5358 263.4328,56.1238 C263.0208,55.9658 262.8138,55.5038 262.9718,55.0908 C263.1308,54.6788 263.5918,54.4748 264.0048,54.6308 C267.1848,55.8468 269.4688,54.6088 270.4608,53.1778 C271.2968,51.9698 271.2978,50.5818 270.4618,49.6408 C268.8028,47.7708 266.0318,50.1318 266.0048,50.1568 C265.8188,50.3178 265.5688,50.3838 265.3308,50.3388 C265.0908,50.2918 264.8838,50.1388 264.7718,49.9218 L262.0268,44.6458 C261.8218,44.2538 261.9748,43.7708 262.3668,43.5678 C262.7528,43.3648 263.2418,43.5138 263.4458,43.9068 L265.7588,48.3528 C267.3338,47.3378 269.8528,46.5418 271.6588,48.5778 C273.0008,50.0908 273.0468,52.2538 271.7768,54.0888 C270.7548,55.5638 268.8568,56.7158 266.4688,56.7158" id="Fill-498" fill="#F99175"></path>
            <path d="M250.9072,36.6338 C250.4192,37.4548 247.8162,37.2828 245.1652,38.2788 C242.4932,39.2208 240.9692,41.2588 240.0662,40.9438 C239.1342,40.6658 240.1502,38.4048 244.2962,36.8918 C248.4442,35.3858 251.4422,35.8218 250.9072,36.6338" id="Fill-500" fill="#825656"></path>
            <path d="M266.5449,33.2822 C267.1489,33.7972 269.1829,32.5142 271.3069,32.3552 C273.4259,32.1432 275.4779,33.0682 275.9829,32.4562 C276.5219,31.8662 274.4049,30.7052 271.0999,30.9912 C267.7949,31.2832 265.9119,32.7942 266.5449,33.2822" id="Fill-502" fill="#825656"></path>
            <path d="M225.29,47.5908 L225.266,47.5908 C224.823,47.5828 224.474,47.2188 224.478947,46.7778 C224.487,46.3398 224.845,45.9908 225.281,45.9908 C225.292,45.9878 225.315,45.9908 225.356,45.9908 C226.321,45.9908 236.084,45.7448 239.183,35.9928 C242.425,25.7898 234.422,16.8138 234.341,16.7238 C234.044,16.3978 234.067,15.8918 234.395,15.5948 C234.724,15.2988 235.228,15.3218 235.524,15.6498 C235.883,16.0418 244.225,25.4048 240.708,36.4778 C237.229,47.4218 225.912,47.5908 225.29,47.5908" id="Fill-504" fill="#825656"></path>
            <path d="M253.7529,28.3647 C240.5639,28.3647 235.0009,18.8997 234.9419,18.7957 C234.7239,18.4117 234.8569,17.9247 235.2399,17.7057 C235.6229,17.4827 236.1099,17.6197 236.3309,18.0017 C236.5789,18.4287 242.5219,28.4467 257.3549,26.5267 C269.5479,24.9517 269.2479,18.3367 269.2299,18.0557 C269.2009,17.6167 269.5309,17.2347 269.9689,17.2017 C270.4039,17.1857 270.7889,17.4927 270.8249,17.9327 C270.8529,18.2747 271.3439,26.3327 257.5609,28.1147 C256.2269,28.2857 254.9579,28.3647 253.7529,28.3647" id="Fill-506" fill="#825656"></path>
            <path d="M196.0166,147.4766 L196.0156,147.4766 C195.5736,147.4756 195.2156,147.1166 195.216598,146.6746 C195.4166,77.4266 215.3126,56.2316 216.1596,55.3636 C216.4696,55.0466 216.9716,55.0416 217.2896,55.3486 C217.6066,55.6566 217.6146,56.1626 217.3056,56.4796 C217.1026,56.6886 197.0156,78.2056 196.8176,146.6786 C196.8156,147.1196 196.4576,147.4766 196.0166,147.4766" id="Fill-508" fill="#825656"></path>
            <path d="M230.0732,47.1245 C230.0732,47.1245 224.4012,41.8555 217.5372,45.6495 C209.8942,49.8735 212.3072,62.3425 220.2182,64.3535 C228.2872,66.4055 232.2182,61.7395 232.2182,61.7395 L230.0732,47.1245 Z" id="Fill-510" fill="#FFC4A3"></path>
            <path d="M227.4697,55.0977 C227.1877,55.0977 226.9117,54.9467 226.7667,54.6807 C224.4197,50.3667 219.6617,52.3337 219.4607,52.4187 C219.0527,52.5917 218.5827,52.4037 218.4107,51.9987 C218.2377,51.5927 218.4227,51.1237 218.8277,50.9497 C220.9947,50.0137 225.7317,49.4327 228.1727,53.9147 C228.3837,54.3037 228.2407,54.7887 227.8527,54.9997 C227.7317,55.0667 227.5997,55.0977 227.4697,55.0977" id="Fill-512" fill="#1D213A"></path>
            <path d="M214.3838,147.4766 C213.9738,147.4766 213.6228,147.1616 213.5888,146.7436 C212.6178,135.1396 214.1408,126.6396 214.1558,126.5546 C214.2378,126.1206 214.6608,125.8296 215.0868,125.9126 C215.5218,125.9926 215.8098,126.4086 215.7318,126.8426 C215.7158,126.9256 214.2328,135.2326 215.1828,146.6106 C215.2198,147.0496 214.8918,147.4366 214.4528,147.4736 C214.4298,147.4756 214.4068,147.4766 214.3838,147.4766" id="Fill-514" fill="#825656"></path>
            <path d="M234.9326,750.4507 C234.9216,750.4507 234.9116,750.4507 234.8996,750.4507 C234.4586,750.4327 234.1156,750.0597 234.1326,749.6187 C234.3516,744.1607 238.5686,742.1897 238.7476,742.1087 C239.1466,741.9257 239.6216,742.1057 239.8026,742.5047 C239.9876,742.9057 239.8106,743.3797 239.4116,743.5647 C239.2686,743.6317 235.9116,745.2377 235.7326,749.6827 C235.7156,750.1137 235.3606,750.4507 234.9326,750.4507" id="Fill-516" fill="#E8EAEF"></path>
            <path d="M242.6777,751.8584 C242.6567,751.8584 242.6337,751.8584 242.6107,751.8564 C242.1717,751.8204 241.8437,751.4334 241.8797,750.9934 C242.4107,744.4754 245.6687,742.6044 245.8057,742.5274 C246.1967,742.3134 246.6807,742.4534 246.8937,742.8404 C247.1067,743.2244 246.9687,743.7084 246.5867,743.9234 C246.5267,743.9604 243.9267,745.5724 243.4737,751.1234 C243.4387,751.5424 243.0887,751.8584 242.6777,751.8584" id="Fill-518" fill="#E8EAEF"></path>
            <path d="M250.2168,753.3672 C249.8028,753.3672 249.4508,753.0462 249.4198,752.6252 C248.9848,746.6472 253.2198,744.2872 253.4018,744.1902 C253.7868,743.9812 254.2688,744.1232 254.4818,744.5112 C254.6928,744.8972 254.5498,745.3832 254.1648,745.5962 C254.0218,745.6752 250.6568,747.5942 251.0168,752.5092 C251.0478,752.9502 250.7168,753.3332 250.2768,753.3652 C250.2578,753.3662 250.2378,753.3672 250.2168,753.3672" id="Fill-520" fill="#E8EAEF"></path>
            <path d="M271.2969,772.4072 L182.3909,772.4072 C181.9479,772.4072 181.5909,772.0492 181.5909,771.6072 C181.5909,771.1652 181.9479,770.8072 182.3909,770.8072 L271.2969,770.8072 C271.7389,770.8072 272.0969,771.1652 272.0969,771.6072 C272.0969,772.0492 271.7389,772.4072 271.2969,772.4072" id="Fill-522" fill="#E8EAEF"></path>
            <path d="M323.6689,771.6572 C323.5609,771.6572 323.4529,771.6362 323.3489,771.5902 L241.8699,736.0042 C241.4659,735.8272 241.2809,735.3552 241.4579,734.9502 C241.6359,734.5452 242.1089,734.3612 242.5109,734.5382 L323.9889,770.1242 C324.3939,770.3012 324.5779,770.7722 324.4009,771.1772 C324.2709,771.4782 323.9769,771.6572 323.6689,771.6572" id="Fill-524" fill="#E8EAEF"></path>
            <path d="M296.8438,736.7412 C296.7108,736.7412 296.5778,736.7092 296.4538,736.6402 C296.0688,736.4272 295.9298,735.9392 296.1438,735.5532 C299.0638,730.2982 303.6048,730.9312 303.7978,730.9602 C304.2348,731.0262 304.5338,731.4352 304.4668,731.8722 C304.3998,732.3072 303.9898,732.6152 303.5598,732.5422 C303.3958,732.5192 299.8958,732.0902 297.5438,736.3292 C297.3968,736.5932 297.1228,736.7412 296.8438,736.7412" id="Fill-526" fill="#E8EAEF"></path>
            <path d="M302.876,740.8984 C302.774,740.8984 302.672,740.8794 302.573,740.8384 C302.164,740.6704 301.969,740.2044 302.136,739.7944 C304.442,734.1744 309.556,733.7104 309.773,733.6924 C310.209,733.6704 310.595,733.9844 310.631,734.4244 C310.667,734.8644 310.341,735.2504 309.901,735.2884 C309.725,735.3034 305.539,735.7174 303.617,740.4024 C303.489,740.7114 303.19,740.8984 302.876,740.8984" id="Fill-528" fill="#E8EAEF"></path>
            <path d="M308.7764,744.7861 C308.7144,744.7861 308.6494,744.7791 308.5874,744.7631 C308.1574,744.6591 307.8954,744.2251 308.0004,743.7961 C309.4664,737.7781 315.7574,737.5111 315.8214,737.5091 C316.2134,737.4771 316.6304,737.8411 316.6454,738.2811 C316.6614,738.7221 316.3154,739.0921 315.8754,739.1081 C315.6644,739.1161 310.7294,739.3531 309.5524,744.1761 C309.4634,744.5411 309.1374,744.7861 308.7764,744.7861" id="Fill-530" fill="#E8EAEF"></path>
        </g>
    </g>
</svg>