<?xml version="1.0" encoding="UTF-8"?>
<svg width="662px" height="782px" viewBox="0 0 662 782" version="1.1" xmlns="http://www.w3.org/2000/svg" xmlns:xlink="http://www.w3.org/1999/xlink">
    <title>Illustration 5 0</title>
    <g id="🤩-Illustrations" stroke="none" stroke-width="1" fill="none" fill-rule="evenodd">
        <g id="Illustration-5">
            <path d="M217.9712,357.2354 C187.9742,357.2354 163.5712,332.8314 163.5712,302.8354 L182.7712,302.8354 C182.7712,322.2444 198.5612,338.0354 217.9712,338.0354 L217.9712,357.2354 Z" id="Fill-698" fill="#CDD1DF"></path>
            <path d="M273.2866,257.8271 C270.3866,257.8271 268.8586,256.3021 267.6336,255.0761 C266.4866,253.9311 265.5806,253.0271 263.6776,253.0271 C261.7706,253.0271 260.8646,253.9311 259.7176,255.0771 C258.4936,256.3021 256.9646,257.8271 254.0646,257.8271 C251.1676,257.8271 249.6426,256.3021 248.4176,255.0761 C247.2746,253.9311 246.3706,253.0271 244.4716,253.0271 C242.5716,253.0271 241.6676,253.9311 240.5246,255.0761 C239.2996,256.3021 237.7746,257.8271 234.8776,257.8271 C231.9836,257.8271 230.4586,256.3021 229.2336,255.0761 C228.0896,253.9311 227.1866,253.0271 225.2866,253.0271 C224.6236,253.0271 224.0866,252.4901 224.0866,251.8271 C224.0866,251.1651 224.6236,250.6271 225.2866,250.6271 C228.1836,250.6271 229.7086,252.1541 230.9336,253.3801 C232.0746,254.5231 232.9776,255.4271 234.8776,255.4271 C236.7776,255.4271 237.6806,254.5231 238.8246,253.3791 C240.0496,252.1531 241.5746,250.6271 244.4716,250.6271 C247.3686,250.6271 248.8926,252.1531 250.1186,253.3791 C251.2616,254.5231 252.1646,255.4271 254.0646,255.4271 C255.9716,255.4271 256.8776,254.5231 258.0246,253.3781 C259.2486,252.1521 260.7776,250.6271 263.6776,250.6271 C266.5746,250.6271 268.1026,252.1521 269.3276,253.3781 C270.4736,254.5221 271.3806,255.4271 273.2866,255.4271 C273.9496,255.4271 274.4866,255.9651 274.4866,256.6271 C274.4866,257.2901 273.9496,257.8271 273.2866,257.8271" id="Fill-700" fill="#CDD1DF"></path>
            <path d="M273.2866,270.6274 C270.3866,270.6274 268.8586,269.1014 267.6336,267.8764 C266.4866,266.7314 265.5806,265.8274 263.6776,265.8274 C261.7706,265.8274 260.8646,266.7314 259.7176,267.8764 C258.4936,269.1024 256.9646,270.6274 254.0646,270.6274 C251.1676,270.6274 249.6426,269.1014 248.4176,267.8764 C247.2746,266.7314 246.3706,265.8274 244.4716,265.8274 C242.5716,265.8274 241.6676,266.7314 240.5246,267.8764 C239.2996,269.1014 237.7746,270.6274 234.8776,270.6274 C231.9836,270.6274 230.4586,269.1014 229.2336,267.8764 C228.0896,266.7314 227.1866,265.8274 225.2866,265.8274 C224.6236,265.8274 224.0866,265.2904 224.0866,264.6274 C224.0866,263.9644 224.6236,263.4274 225.2866,263.4274 C228.1836,263.4274 229.7086,264.9544 230.9336,266.1794 C232.0746,267.3234 232.9776,268.2274 234.8776,268.2274 C236.7776,268.2274 237.6806,267.3234 238.8246,266.1784 C240.0496,264.9534 241.5746,263.4274 244.4716,263.4274 C247.3686,263.4274 248.8926,264.9534 250.1186,266.1784 C251.2616,267.3234 252.1646,268.2274 254.0646,268.2274 C255.9716,268.2274 256.8776,267.3234 258.0246,266.1784 C259.2486,264.9524 260.7776,263.4274 263.6776,263.4274 C266.5746,263.4274 268.1026,264.9524 269.3276,266.1784 C270.4736,267.3224 271.3806,268.2274 273.2866,268.2274 C273.9496,268.2274 274.4866,268.7644 274.4866,269.4274 C274.4866,270.0894 273.9496,270.6274 273.2866,270.6274" id="Fill-702" fill="#CDD1DF"></path>
            <path d="M273.2866,283.4272 C270.3866,283.4272 268.8586,281.9012 267.6336,280.6762 C266.4866,279.5312 265.5806,278.6272 263.6776,278.6272 C261.7706,278.6272 260.8646,279.5312 259.7176,280.6772 C258.4936,281.9022 256.9646,283.4272 254.0646,283.4272 C251.1676,283.4272 249.6426,281.9012 248.4176,280.6762 C247.2746,279.5312 246.3706,278.6272 244.4716,278.6272 C242.5716,278.6272 241.6676,279.5312 240.5246,280.6762 C239.2996,281.9012 237.7746,283.4272 234.8776,283.4272 C231.9836,283.4272 230.4586,281.9012 229.2336,280.6762 C228.0896,279.5312 227.1866,278.6272 225.2866,278.6272 C224.6236,278.6272 224.0866,278.0902 224.0866,277.4272 C224.0866,276.7642 224.6236,276.2272 225.2866,276.2272 C228.1836,276.2272 229.7086,277.7542 230.9336,278.9792 C232.0746,280.1232 232.9776,281.0272 234.8776,281.0272 C236.7776,281.0272 237.6806,280.1232 238.8246,278.9792 C240.0496,277.7532 241.5746,276.2272 244.4716,276.2272 C247.3686,276.2272 248.8926,277.7532 250.1186,278.9792 C251.2616,280.1232 252.1646,281.0272 254.0646,281.0272 C255.9716,281.0272 256.8776,280.1232 258.0246,278.9782 C259.2486,277.7522 260.7776,276.2272 263.6776,276.2272 C266.5746,276.2272 268.1026,277.7522 269.3276,278.9782 C270.4736,280.1222 271.3806,281.0272 273.2866,281.0272 C273.9496,281.0272 274.4866,281.5652 274.4866,282.2272 C274.4866,282.8892 273.9496,283.4272 273.2866,283.4272" id="Fill-704" fill="#CDD1DF"></path>
            <path d="M273.2866,296.2275 C270.3866,296.2275 268.8586,294.7015 267.6336,293.4755 C266.4866,292.3315 265.5806,291.4275 263.6776,291.4275 C261.7706,291.4275 260.8646,292.3315 259.7176,293.4765 C258.4936,294.7025 256.9646,296.2275 254.0646,296.2275 C251.1676,296.2275 249.6426,294.7015 248.4176,293.4755 C247.2746,292.3315 246.3706,291.4275 244.4716,291.4275 C242.5716,291.4275 241.6676,292.3315 240.5246,293.4755 C239.2996,294.7015 237.7746,296.2275 234.8776,296.2275 C231.9836,296.2275 230.4586,294.7015 229.2336,293.4755 C228.0896,292.3315 227.1866,291.4275 225.2866,291.4275 C224.6236,291.4275 224.0866,290.8895 224.0866,290.2275 C224.0866,289.5645 224.6236,289.0275 225.2866,289.0275 C228.1836,289.0275 229.7086,290.5535 230.9336,291.7795 C232.0746,292.9235 232.9776,293.8275 234.8776,293.8275 C236.7776,293.8275 237.6806,292.9235 238.8246,291.7785 C240.0496,290.5535 241.5746,289.0275 244.4716,289.0275 C247.3686,289.0275 248.8926,290.5535 250.1186,291.7785 C251.2616,292.9235 252.1646,293.8275 254.0646,293.8275 C255.9716,293.8275 256.8776,292.9235 258.0246,291.7785 C259.2486,290.5525 260.7776,289.0275 263.6776,289.0275 C266.5746,289.0275 268.1026,290.5525 269.3276,291.7785 C270.4736,292.9225 271.3806,293.8275 273.2866,293.8275 C273.9496,293.8275 274.4866,294.3645 274.4866,295.0275 C274.4866,295.6895 273.9496,296.2275 273.2866,296.2275" id="Fill-706" fill="#CDD1DF"></path>
            <path d="M565.9902,514.2002 C565.9902,515.9672 564.5572,517.4002 562.7902,517.4002 C561.0232,517.4002 559.5902,515.9672 559.5902,514.2002 C559.5902,512.4322 561.0232,511.0002 562.7902,511.0002 C564.5572,511.0002 565.9902,512.4322 565.9902,514.2002" id="Fill-708" fill="#CDD1DF"></path>
            <path d="M597.9902,514.2002 C597.9902,515.9672 596.5572,517.4002 594.7902,517.4002 C593.0232,517.4002 591.5902,515.9672 591.5902,514.2002 C591.5902,512.4322 593.0232,511.0002 594.7902,511.0002 C596.5572,511.0002 597.9902,512.4322 597.9902,514.2002" id="Fill-710" fill="#CDD1DF"></path>
            <path d="M629.9902,514.2002 C629.9902,515.9672 628.5572,517.4002 626.7902,517.4002 C625.0232,517.4002 623.5902,515.9672 623.5902,514.2002 C623.5902,512.4322 625.0232,511.0002 626.7902,511.0002 C628.5572,511.0002 629.9902,512.4322 629.9902,514.2002" id="Fill-712" fill="#CDD1DF"></path>
            <path d="M661.9902,514.2002 C661.9902,515.9672 660.5572,517.4002 658.7902,517.4002 C657.0232,517.4002 655.5902,515.9672 655.5902,514.2002 C655.5902,512.4322 657.0232,511.0002 658.7902,511.0002 C660.5572,511.0002 661.9902,512.4322 661.9902,514.2002" id="Fill-714" fill="#CDD1DF"></path>
            <path d="M567.5903,546.2002 C567.5903,548.8512 565.4413,551.0002 562.7903,551.0002 C560.1393,551.0002 557.9903,548.8512 557.9903,546.2002 C557.9903,543.5492 560.1393,541.4002 562.7903,541.4002 C565.4413,541.4002 567.5903,543.5492 567.5903,546.2002" id="Fill-716" fill="#CDD1DF"></path>
            <path d="M599.5903,546.2002 C599.5903,548.8512 597.4413,551.0002 594.7903,551.0002 C592.1393,551.0002 589.9903,548.8512 589.9903,546.2002 C589.9903,543.5492 592.1393,541.4002 594.7903,541.4002 C597.4413,541.4002 599.5903,543.5492 599.5903,546.2002" id="Fill-718" fill="#CDD1DF"></path>
            <path d="M629.9902,546.2002 C629.9902,547.9672 628.5572,549.4002 626.7902,549.4002 C625.0232,549.4002 623.5902,547.9672 623.5902,546.2002 C623.5902,544.4322 625.0232,543.0002 626.7902,543.0002 C628.5572,543.0002 629.9902,544.4322 629.9902,546.2002" id="Fill-720" fill="#CDD1DF"></path>
            <path d="M661.9902,546.2002 C661.9902,547.9672 660.5572,549.4002 658.7902,549.4002 C657.0232,549.4002 655.5902,547.9672 655.5902,546.2002 C655.5902,544.4322 657.0232,543.0002 658.7902,543.0002 C660.5572,543.0002 661.9902,544.4322 661.9902,546.2002" id="Fill-722" fill="#CDD1DF"></path>
            <path d="M567.5903,578.2002 C567.5903,580.8512 565.4413,583.0002 562.7903,583.0002 C560.1393,583.0002 557.9903,580.8512 557.9903,578.2002 C557.9903,575.5492 560.1393,573.4002 562.7903,573.4002 C565.4413,573.4002 567.5903,575.5492 567.5903,578.2002" id="Fill-724" fill="#CDD1DF"></path>
            <path d="M599.5903,578.2002 C599.5903,580.8512 597.4413,583.0002 594.7903,583.0002 C592.1393,583.0002 589.9903,580.8512 589.9903,578.2002 C589.9903,575.5492 592.1393,573.4002 594.7903,573.4002 C597.4413,573.4002 599.5903,575.5492 599.5903,578.2002" id="Fill-726" fill="#CDD1DF"></path>
            <path d="M631.5903,578.2002 C631.5903,580.8512 629.4413,583.0002 626.7903,583.0002 C624.1393,583.0002 621.9903,580.8512 621.9903,578.2002 C621.9903,575.5492 624.1393,573.4002 626.7903,573.4002 C629.4413,573.4002 631.5903,575.5492 631.5903,578.2002" id="Fill-728" fill="#CDD1DF"></path>
            <path d="M661.9902,578.2002 C661.9902,579.9672 660.5572,581.4002 658.7902,581.4002 C657.0232,581.4002 655.5902,579.9672 655.5902,578.2002 C655.5902,576.4322 657.0232,575.0002 658.7902,575.0002 C660.5572,575.0002 661.9902,576.4322 661.9902,578.2002" id="Fill-730" fill="#CDD1DF"></path>
            <path d="M567.5903,610.2002 C567.5903,612.8512 565.4413,615.0002 562.7903,615.0002 C560.1393,615.0002 557.9903,612.8512 557.9903,610.2002 C557.9903,607.5492 560.1393,605.4002 562.7903,605.4002 C565.4413,605.4002 567.5903,607.5492 567.5903,610.2002" id="Fill-732" fill="#CDD1DF"></path>
            <path d="M599.5903,610.2002 C599.5903,612.8512 597.4413,615.0002 594.7903,615.0002 C592.1393,615.0002 589.9903,612.8512 589.9903,610.2002 C589.9903,607.5492 592.1393,605.4002 594.7903,605.4002 C597.4413,605.4002 599.5903,607.5492 599.5903,610.2002" id="Fill-734" fill="#CDD1DF"></path>
            <path d="M631.5903,610.2002 C631.5903,612.8512 629.4413,615.0002 626.7903,615.0002 C624.1393,615.0002 621.9903,612.8512 621.9903,610.2002 C621.9903,607.5492 624.1393,605.4002 626.7903,605.4002 C629.4413,605.4002 631.5903,607.5492 631.5903,610.2002" id="Fill-736" fill="#CDD1DF"></path>
            <path d="M661.9902,610.2002 C661.9902,611.9672 660.5572,613.4002 658.7902,613.4002 C657.0232,613.4002 655.5902,611.9672 655.5902,610.2002 C655.5902,608.4322 657.0232,607.0002 658.7902,607.0002 C660.5572,607.0002 661.9902,608.4322 661.9902,610.2002" id="Fill-738" fill="#CDD1DF"></path>
            <path d="M581.3721,104.4263 C581.3961,104.1253 581.4631,103.8373 581.4631,103.5303 L581.4631,98.5813 C576.0501,97.1093 569.6051,94.6063 563.8641,90.3443 C557.0861,85.3133 553.0141,76.9323 550.6371,69.9293 L547.8631,69.9293 C541.6771,69.9293 536.6631,74.9443 536.6631,81.1293 L536.6631,93.0933 C543.6641,92.7223 562.2211,93.0733 581.3721,104.4263" id="Fill-740" fill="#CDD1DF"></path>
            <path d="M564.5327,89.4448 C570.0457,93.5368 576.2267,95.9758 581.4627,97.4278 L581.4627,81.1298 C581.4627,74.9438 576.4487,69.9298 570.2627,69.9298 L551.8617,69.9298 C554.2197,76.7208 558.1677,84.7208 564.5327,89.4448" id="Fill-742" fill="#CDD1DF"></path>
            <path d="M567.3174,108.0522 C561.3534,108.6012 557.6244,112.0982 555.6244,114.7292 L570.2624,114.7292 C573.5934,114.7292 576.5504,113.2472 578.6024,110.9402 C575.8054,109.1842 571.9424,107.6242 567.3174,108.0522" id="Fill-744" fill="#CDD1DF"></path>
            <path d="M567.2139,106.937 C572.2509,106.469 576.3889,108.157 579.3429,110.042 C580.2669,108.757 580.9349,107.282 581.2469,105.669 C562.1259,94.164 543.5229,93.836 536.6629,94.211 L536.6629,103.53 C536.6629,109.715 541.6769,114.729 547.8629,114.729 L554.2499,114.729 C556.2429,111.878 560.3369,107.57 567.2139,106.937" id="Fill-746" fill="#CDD1DF"></path>
            <polygon id="Fill-748" fill="#CDD1DF" points="634.7905 427.7998 626.7905 435.7998 618.7905 427.7998 626.7905 419.7998"></polygon>
            <polygon id="Fill-750" fill="#CDD1DF" points="257.2866 576.1738 249.2866 584.1738 241.2866 576.1738 249.2866 568.1738"></polygon>
            <path d="M519.1875,698.3789 L541.5465,781.1909 L621.4585,781.1909 C621.4585,781.1909 625.1855,768.4929 618.0085,756.3469 C608.8165,740.7909 580.8815,741.4409 580.8815,741.4409 L570.1005,698.3789 L519.1875,698.3789 Z" id="Fill-752" fill="#FFC4A3"></path>
            <polygon id="Fill-754" fill="#F99175" points="570.1001 698.3789 519.1871 698.3789 524.6271 718.5259 575.7651 721.0049"></polygon>
            <path d="M395.3843,698.3789 L395.7983,781.1909 L314.1683,781.1909 C314.1683,781.1909 309.2603,766.6979 315.8243,754.8979 C324.1203,739.9829 347.7153,742.0639 347.7153,742.0639 L347.7683,698.3789 L395.3843,698.3789 Z" id="Fill-756" fill="#FFC4A3"></path>
            <polygon id="Fill-758" fill="#F99175" points="395.3843 698.3789 347.7683 698.3789 347.7373 723.7739 395.4813 717.7539"></polygon>
            <path d="M199.2598,146.856 C199.2598,146.856 178.2398,141.749 161.0288,129.776 C153.8058,124.752 158.1988,115.802 165.7898,118.286 C165.7898,118.286 158.8728,114.572 161.2608,108.74 C163.4868,103.306 170.2758,105.795 170.2758,105.795 C170.2758,105.795 165.7178,102.896 167.1008,98.649 C168.4818,94.409 175.6578,94.616 188.2528,98.515 C204.2668,103.473 213.5768,108.877 213.5768,108.877 L208.0158,144.86 L199.2598,146.856 Z" id="Fill-760" fill="#FFC4A3"></path>
            <path d="M181.7305,132.9155 C181.7085,132.9155 181.6865,132.9155 181.6655,132.9135 C181.2085,132.8775 180.8685,132.4785 180.9055,132.0225 C182.0115,117.9215 188.1895,107.0275 188.4525,106.5705 C188.6805,106.1735 189.1805,106.0355 189.5835,106.2645 C189.9805,106.4925 190.1185,106.9985 189.8895,107.3955 C189.8275,107.5035 183.6335,118.4375 182.5555,132.1525 C182.5215,132.5855 182.1585,132.9155 181.7305,132.9155" id="Fill-762" fill="#1D213A"></path>
            <path d="M186.2056,114.2163 C186.0866,114.2163 185.9646,114.1903 185.8496,114.1353 L169.9176,106.5433 C169.5056,106.3463 169.3306,105.8513 169.5276,105.4393 C169.7216,105.0273 170.2146,104.8503 170.6306,105.0483 L186.5616,112.6403 C186.9746,112.8373 187.1496,113.3323 186.9526,113.7443 C186.8116,114.0423 186.5146,114.2163 186.2056,114.2163" id="Fill-764" fill="#1D213A"></path>
            <path d="M182.4521,127.3096 C182.3301,127.3096 182.2051,127.2826 182.0871,127.2246 L165.4241,119.0286 C165.0151,118.8276 164.8461,118.3306 165.0461,117.9206 C165.2461,117.5106 165.7401,117.3386 166.1551,117.5426 L182.8181,125.7386 C183.2271,125.9396 183.3961,126.4366 183.1961,126.8466 C183.0521,127.1396 182.7591,127.3096 182.4521,127.3096" id="Fill-766" fill="#1D213A"></path>
            <path d="M178.8818,201.8823 L19.8838,201.8823 C8.9078,201.8823 0.0098,192.9843 0.0098,182.0073 L0.0098,56.1343 C0.0098,45.1583 8.9078,36.2593 19.8838,36.2593 L178.8818,36.2593 C189.8588,36.2593 198.7568,45.1583 198.7568,56.1343 L198.7568,182.0073 C198.7568,192.9843 189.8588,201.8823 178.8818,201.8823" id="Fill-768" fill="#F3F4F7"></path>
            <path d="M271.9053,172.8345 C269.4213,180.8505 264.9153,189.7945 256.8663,195.8895 C247.2933,203.1105 236.2303,205.6275 226.4583,206.0915 C211.4533,177.5715 198.4353,146.5665 198.4353,146.5665 L202.9733,138.0205 C194.0623,126.0295 198.7663,112.5815 198.7663,112.5815 C198.7663,112.5815 191.8433,110.9905 187.8353,106.9825 C182.6343,101.7825 185.1853,95.4885 191.9753,96.6475 C199.0973,97.8735 206.4843,100.3915 215.8913,107.1155 C223.5433,112.5475 254.9783,151.5355 271.9053,172.8345" id="Fill-770" fill="#FFC4A3"></path>
            <path d="M216.6953,186.7061 C219.7653,193.0391 223.0543,199.6231 226.4583,206.0911 C236.2303,205.6281 247.2933,203.1101 256.8663,195.8891 C264.9153,189.7941 269.4213,180.8511 271.9053,172.8341 C269.1923,169.4211 266.1053,165.5511 262.8043,161.4401 C262.7283,161.7511 255.3773,191.2491 216.6953,186.7061" id="Fill-772" fill="#F99175"></path>
            <path d="M202.9868,138.8228 C202.7428,138.8228 202.5028,138.7118 202.3458,138.5008 C193.2588,126.3068 197.8018,112.8738 197.9988,112.3088 C198.1458,111.8918 198.6058,111.6718 199.0178,111.8178 C199.4368,111.9638 199.6548,112.4188 199.5118,112.8358 C199.4648,112.9678 195.0618,126.0498 203.6278,137.5448 C203.8928,137.8998 203.8178,138.3998 203.4648,138.6638 C203.3208,138.7708 203.1528,138.8228 202.9868,138.8228" id="Fill-774" fill="#1D213A"></path>
            <path d="M282.894,186.709 C282.894,186.709 274.097,175.475 262.808,161.425 C262.809,161.435 264.469,175.72 250.396,186.709 C237.837,196.516 219.523,192.425 219.484,192.416 C227.04,207.666 235.673,223.73 243.702,235.464 C265.232,266.932 279.886,266.435 306.362,245.953 C335.622,223.318 380.3,171.461 380.3,171.461 L373.252,117.008 C354.393,117.458 282.894,186.709 282.894,186.709" id="Fill-776" fill="#D3D6E2"></path>
            <path d="M297.396,205.8779 C297.162,205.8779 296.927,205.7739 296.768,205.5739 L282.265,187.2059 C281.99,186.8579 282.049,186.3559 282.396,186.0809 C282.743,185.8109 283.243,185.8649 283.521,186.2129 L298.024,204.5819 C298.299,204.9289 298.24,205.4319 297.893,205.7059 C297.746,205.8219 297.571,205.8779 297.396,205.8779" id="Fill-778" fill="#1D213A"></path>
            <path d="M457.6997,59.6968 L453.3147,124.4598 C453.3147,124.4598 439.2747,130.7078 421.6767,126.7738 C404.3607,122.9038 400.7907,116.7978 400.7907,116.7978 L411.8087,53.6928 L457.6997,59.6968 Z" id="Fill-780" fill="#FFC4A3"></path>
            <path d="M407.9521,47.3022 C407.9521,47.3022 392.4081,52.1012 389.6411,35.2622 C389.6411,35.2622 399.0351,36.8512 400.6401,22.6022 C402.2441,8.3752 410.9821,3.6472 419.0171,9.5612 C419.0171,9.5612 423.1451,-0.9418 435.4181,1.0642 C447.9991,3.1202 458.6701,9.7062 464.5981,19.1912 C470.5261,28.6762 463.8421,46.8412 475.7651,49.5952 C475.7651,49.5952 470.1301,65.5612 451.5221,53.4282 L407.9521,47.3022 Z" id="Fill-782" fill="#1D213A"></path>
            <path d="M357.418,265.7295 C357.418,265.7295 340.556,319.4565 331.659,471.8015 C322.924,621.3645 324.167,712.0485 324.167,712.0485 L417.522,712.0485 L417.522,402.1905 L497.943,712.1735 L592.274,708.3655 C592.274,708.3655 561.111,578.4405 523.88,454.6375 C491.144,345.7835 463.98,265.7295 463.98,265.7295 L357.418,265.7295 Z" id="Fill-784" fill="#1D213A"></path>
            <path d="M483.8545,133.8818 C483.8545,133.8818 469.2715,218.3638 483.8545,288.2568 C483.8545,288.2568 456.3955,303.0748 404.9075,298.1248 C361.8455,293.9838 339.7625,277.8358 339.7625,277.8358 C362.9495,210.7578 373.2515,117.0078 373.2515,117.0078 C373.2515,117.0078 401.0515,115.2258 427.1445,119.0648 C455.6295,123.2548 483.8545,133.8818 483.8545,133.8818" id="Fill-786" fill="#D3D6E2"></path>
            <path d="M483.8545,133.8818 C498.8985,138.5748 517.5315,164.4538 532.4375,186.7088 C547.3435,208.9648 565.0435,245.2138 567.3735,262.2838 C569.7025,279.3538 531.4565,292.7878 520.4295,283.4948 C505.9375,271.2798 467.0295,203.5818 459.1555,178.7378 L483.8545,133.8818 Z" id="Fill-788" fill="#D3D6E2"></path>
            <path d="M490.2056,235.6875 C489.9526,235.6875 489.7026,235.5675 489.5496,235.3425 C489.3806,235.1025 472.7086,210.9095 458.4246,179.0655 C458.2466,178.6625 458.4246,178.1885 458.8276,178.0085 C459.2336,177.8275 459.7056,178.0075 459.8866,178.4115 C474.1056,210.1135 490.6966,234.1925 490.8616,234.4325 C491.1146,234.7955 491.0246,235.2935 490.6616,235.5455 C490.5206,235.6415 490.3646,235.6875 490.2056,235.6875" id="Fill-790" fill="#1D213A"></path>
            <path d="M404.0415,98.1792 C414.7935,98.1792 423.1935,94.9192 423.1935,94.9192 L428.7185,55.9052 L411.8085,53.6932 L404.0415,98.1792 Z" id="Fill-792" fill="#F99175"></path>
            <path d="M417.521,402.9907 C417.159,402.9907 416.834,402.7447 416.743,402.3787 L402.118,341.9627 C399.44,341.4857 387.802,338.8957 380.327,328.9147 C380.062,328.5607 380.134,328.0597 380.49,327.7947 C380.843,327.5337 381.343,327.6017 381.608,327.9557 C389.509,338.5047 402.746,340.4467 402.88,340.4657 C403.206,340.5107 403.471,340.7497 403.549,341.0697 L418.299,402.0027 C418.402,402.4317 418.14,402.8647 417.708,402.9677 C417.646,402.9837 417.583,402.9907 417.521,402.9907" id="Fill-794" fill="#E8EAEF"></path>
            <path d="M455.376,27.7402 C455.376,27.7402 427.054,16.7732 414.387,22.9102 C399.113,30.3092 394.428,67.7442 402.244,82.8702 C410.718,99.2712 438.316,99.0082 447.669,81.7502 C457.008,64.5212 455.376,27.7402 455.376,27.7402" id="Fill-796" fill="#FFC4A3"></path>
            <path d="M458.9453,51.3545 C438.1313,50.3455 431.8303,49.0835 429.8893,32.6595 C428.6603,22.2525 425.9333,17.4645 420.0053,17.0695 C420.0053,17.0695 439.9083,14.6985 461.6333,25.7645 L458.9453,51.3545 Z" id="Fill-798" fill="#1D213A"></path>
            <path d="M361.5303,193.2373 C361.4803,193.2373 361.4303,193.2333 361.3803,193.2233 C360.9463,193.1393 360.6613,192.7203 360.7463,192.2863 C363.4993,177.9873 366.0463,163.0293 368.3183,147.8283 C368.3843,147.3933 368.7593,147.0903 369.2273,147.1543 C369.6653,147.2203 369.9653,147.6273 369.8993,148.0643 C367.6243,163.2873 365.0743,178.2683 362.3153,192.5893 C362.2433,192.9713 361.9083,193.2373 361.5303,193.2373" id="Fill-800" fill="#1D213A"></path>
            <path d="M504.0747,252.8965 C499.8017,262.3365 492.7137,267.8685 485.6247,271.1145 C463.7957,254.6855 440.9397,234.4135 440.9397,234.4135 C426.6297,237.1295 418.7127,227.4575 418.7127,227.4575 C423.4167,236.8315 414.3077,240.9715 408.2127,234.3465 C402.1507,227.7225 404.3697,220.9645 404.3697,220.9645 C400.4947,221.0975 397.1817,216.6915 398.4077,211.4575 C399.6667,206.1905 406.9867,202.7465 406.9867,202.7465 C406.9867,202.7465 398.8047,201.7195 391.3517,197.4795 C384.8597,193.7695 386.6817,184.9585 396.2207,187.0115 C405.7277,189.0985 420.6347,191.9805 438.4547,196.9495 C448.2607,199.6985 477.5097,209.5695 504.1747,219.6065 C507.1887,228.4835 509.4407,241.1375 504.0747,252.8965" id="Fill-802" fill="#FFC4A3"></path>
            <path d="M504.0747,252.8965 C509.4407,241.1375 507.1887,228.4835 504.1747,219.6065 C500.0847,218.0665 495.9367,216.5355 491.8047,215.0285 L491.8027,215.0565 C491.8027,215.0565 495.2297,230.7375 487.5127,243.2075 C480.2117,255.0055 467.0767,256.4875 467.0277,256.4935 C472.9327,261.3025 479.3137,266.3655 485.6247,271.1145 C492.7137,267.8685 499.8017,262.3365 504.0747,252.8965" id="Fill-804" fill="#F99175"></path>
            <path d="M552.519,240.8545 C544.847,235.3195 517.936,224.6025 491.803,215.0555 L491.803,215.0565 C491.803,215.0565 500.206,225.8375 495.276,243.0715 C490.204,260.8055 473.575,261.7715 473.575,261.7715 L473.575,261.7715 C487.118,272.5435 502.004,283.5525 512.148,288.6695 C535.542,300.4705 556.866,294.4665 563.406,281.3725 C570.957,266.2525 568.874,252.6545 552.519,240.8545" id="Fill-806" fill="#D3D6E2"></path>
            <path d="M545.271,237.5127 C545.149,237.5127 545.027,237.4857 544.915,237.4287 C534.702,232.3307 515.743,224.6527 491.527,215.8067 C491.112,215.6557 490.899,215.1967 491.052,214.7817 C491.199,214.3667 491.662,214.1557 492.077,214.3037 C516.346,223.1697 535.365,230.8737 545.627,235.9967 C546.024,236.1937 546.184,236.6747 545.987,237.0697 C545.846,237.3497 545.565,237.5127 545.271,237.5127" id="Fill-808" fill="#1D213A"></path>
            <path d="M453.3145,124.46 L454.6845,104.233 L404.0415,98.179 L400.7905,116.797 C400.7905,116.797 404.3605,122.903 421.6765,126.774 C439.2745,130.708 453.3145,124.46 453.3145,124.46" id="Fill-810" fill="#D3D6E2"></path>
            <path d="M435.7588,128.8311 C435.3308,128.8311 434.9778,128.4931 434.9588,128.0621 C434.9428,127.6211 435.2868,127.2491 435.7278,127.2321 C445.8778,126.8361 452.9208,123.7591 452.9898,123.7281 C453.3898,123.5491 453.8648,123.7301 454.0458,124.1341 C454.2238,124.5381 454.0428,125.0111 453.6398,125.1901 C453.3428,125.3221 446.2678,128.4231 435.7898,128.8311 C435.7798,128.8311 435.7678,128.8311 435.7588,128.8311" id="Fill-812" fill="#1D213A"></path>
            <path d="M404.3555,221.772 C404.3115,221.772 404.2685,221.768 404.2215,221.761 C403.7865,221.687 403.4935,221.274 403.5675,220.838 C404.6215,214.609 409.8365,209.952 417.8715,208.062 C418.3215,207.963 418.7335,208.229 418.8335,208.657 C418.9365,209.087 418.6685,209.518 418.2395,209.62 C408.1365,211.996 405.6995,217.836 405.1435,221.105 C405.0775,221.496 404.7395,221.772 404.3555,221.772" id="Fill-814" fill="#1D213A"></path>
            <path d="M406.9775,203.5532 C406.6745,203.5532 406.3835,203.3802 406.2485,203.0862 C406.0645,202.6842 406.2435,202.2092 406.6455,202.0262 C411.8365,199.6492 416.9675,200.6652 417.1805,200.7082 C417.6115,200.7972 417.8895,201.2202 417.8025,201.6512 C417.7115,202.0852 417.2805,202.3622 416.8585,202.2752 C416.8025,202.2642 412.0205,201.3252 407.3085,203.4802 C407.2025,203.5302 407.0895,203.5532 406.9775,203.5532" id="Fill-816" fill="#1D213A"></path>
            <path d="M618.0088,756.3472 C608.8168,740.7902 580.8818,741.4412 580.8818,741.4412 L579.1418,734.4902 L570.8068,734.4902 C564.8028,734.4902 566.4598,745.4582 566.4598,745.4582 L533.4628,751.2512 L541.5468,781.1902 L621.4598,781.1902 C621.4598,781.1902 625.1858,768.4932 618.0088,756.3472" id="Fill-818" fill="#D3D6E2"></path>
            <path d="M355.5664,734.4897 L347.7244,734.4897 L347.7144,742.0637 C347.7144,742.0637 324.1204,739.9837 315.8244,754.8977 C309.2604,766.6977 314.1684,781.1907 314.1684,781.1907 L395.7984,781.1907 L395.6514,751.9177 L363.5714,745.4577 C363.5714,745.4577 361.6394,734.4897 355.5664,734.4897" id="Fill-820" fill="#D3D6E2"></path>
            <path d="M622.2212,770.0654 L538.3272,770.0654 C537.8872,770.0654 537.5272,769.7084 537.5272,769.2654 C537.5272,768.8234 537.8872,768.4654 538.3272,768.4654 L622.2212,768.4654 C622.6612,768.4654 623.0212,768.8234 623.0212,769.2654 C623.0212,769.7084 622.6612,770.0654 622.2212,770.0654" id="Fill-822" fill="#1D213A"></path>
            <path d="M395.7397,770.0654 L312.4147,770.0654 C311.9737,770.0654 311.6147,769.7084 311.6147,769.2654 C311.6147,768.8234 311.9737,768.4654 312.4147,768.4654 L395.7397,768.4654 C396.1807,768.4654 396.5397,768.8234 396.5397,769.2654 C396.5397,769.7084 396.1807,770.0654 395.7397,770.0654" id="Fill-824" fill="#1D213A"></path>
            <path d="M353.0962,749.0352 C352.7552,749.0352 352.4402,748.8152 352.3332,748.4732 C351.0992,744.5142 347.4212,742.8092 347.3842,742.7932 C346.9832,742.6112 346.8022,742.1372 346.9872,741.7342 C347.1682,741.3322 347.6302,741.1512 348.0462,741.3352 C348.2212,741.4152 352.4182,743.3602 353.8582,747.9972 C353.9902,748.4192 353.7552,748.8682 353.3332,748.9992 C353.2552,749.0232 353.1742,749.0352 353.0962,749.0352" id="Fill-826" fill="#1D213A"></path>
            <path d="M345.7681,749.814 C345.3991,749.814 345.0651,749.557 344.9871,749.181 C343.8741,743.982 340.2331,742.967 340.0771,742.927 C339.6521,742.814 339.3961,742.379 339.5051,741.953 C339.6181,741.525 340.0461,741.268 340.4711,741.376 C340.6651,741.424 345.2211,742.634 346.5491,748.847 C346.6431,749.279 346.3681,749.704 345.9361,749.796 C345.8801,749.809 345.8211,749.814 345.7681,749.814" id="Fill-828" fill="#1D213A"></path>
            <path d="M337.624,750.1914 C337.271,750.1914 336.949,749.9584 336.853,749.6024 C335.73,745.4984 332.743,744.1024 332.615,744.0454 C332.215,743.8634 332.034,743.3904 332.215,742.9884 C332.393,742.5834 332.862,742.4074 333.268,742.5834 C333.421,742.6514 337.068,744.3154 338.396,749.1804 C338.512,749.6074 338.262,750.0464 337.833,750.1634 C337.765,750.1824 337.693,750.1914 337.624,750.1914" id="Fill-830" fill="#1D213A"></path>
            <path d="M575.7056,749.2944 C575.6706,749.2944 575.6336,749.2924 575.5966,749.2864 C575.1586,749.2254 574.8526,748.8214 574.9116,748.3834 C575.8056,741.9924 580.4836,740.7174 580.6806,740.6654 C581.1186,740.5544 581.5456,740.8144 581.6556,741.2414 C581.7646,741.6674 581.5086,742.1024 581.0836,742.2134 C580.9276,742.2564 577.2366,743.3134 576.4986,748.6054 C576.4426,749.0054 576.0996,749.2944 575.7056,749.2944" id="Fill-832" fill="#1D213A"></path>
            <path d="M584.4712,749.6143 C584.4402,749.6143 584.4052,749.6123 584.3712,749.6083 C583.9332,749.5533 583.6242,749.1543 583.6772,748.7163 C584.4962,742.1113 588.5962,741.1573 588.7682,741.1203 C589.1992,741.0273 589.6272,741.3023 589.7182,741.7343 C589.8112,742.1643 589.5402,742.5873 589.1122,742.6823 C588.9772,742.7153 585.9362,743.5063 585.2642,748.9123 C585.2152,749.3183 584.8712,749.6143 584.4712,749.6143" id="Fill-834" fill="#1D213A"></path>
            <path d="M592.9053,750.6729 C592.8863,750.6729 592.8683,750.6719 592.8493,750.6709 C592.4083,750.6409 592.0773,750.2589 592.1083,749.8179 C592.5403,743.5639 595.7963,742.3919 595.9333,742.3449 C596.3523,742.2009 596.8053,742.4299 596.9493,742.8469 C597.0873,743.2619 596.8683,743.7109 596.4583,743.8569 C596.3333,743.9049 594.0523,744.8589 593.7023,749.9279 C593.6743,750.3499 593.3243,750.6729 592.9053,750.6729" id="Fill-836" fill="#1D213A"></path>
            <path d="M448.771,52.5522 C441.215,52.5522 435.193,50.8602 431.337,47.5682 C428.171,44.8692 426.581,41.1992 426.605,36.6582 C426.674,23.5742 426.165,19.2282 419.837,17.8512 C419.402,17.7572 419.13,17.3312 419.224,16.8992 C419.318,16.4682 419.752,16.1952 420.174,16.2872 C427.959,17.9812 428.271,24.0972 428.206,36.6662 C428.184,40.7152 429.587,43.9722 432.374,46.3502 C437.415,50.6542 447.052,52.0092 458.815,50.0672 C459.249,49.9872 459.662,50.2902 459.737,50.7252 C459.809,51.1612 459.512,51.5732 459.077,51.6452 C455.402,52.2522 451.949,52.5522 448.771,52.5522" id="Fill-838" fill="#1D213A"></path>
            <path d="M451.5225,53.4282 C451.5225,53.4282 458.1145,49.2912 463.4975,51.5682 C470.4535,54.5112 468.2585,66.8882 461.6335,70.4082 C454.5855,74.1512 449.1515,70.6152 449.1515,70.6152 L451.5225,53.4282 Z" id="Fill-840" fill="#FFC4A3"></path>
            <path d="M389.5273,32.9165 C389.3773,32.9165 389.2273,32.9135 389.0743,32.9075 C388.6333,32.8895 388.2903,32.5185 388.3053,32.0765 C388.3243,31.6365 388.7363,31.2745 389.1363,31.3085 C394.8643,31.5145 396.9113,26.7005 399.2213,21.1065 C401.1523,16.4245 403.3403,11.1175 408.2713,8.6205 C414.4623,5.4985 417.7083,10.5875 417.7333,10.6375 C417.9673,11.0115 417.8523,11.5025 417.4803,11.7355 C417.1143,11.9695 416.6143,11.8595 416.3773,11.4855 C416.2773,11.3255 413.8373,7.5945 408.9963,10.0485 C404.5923,12.2765 402.6143,17.0755 400.6993,21.7165 C398.4273,27.2245 396.0803,32.9155 389.5273,32.9165" id="Fill-842" fill="#1D213A"></path>
            <path d="M476.4365,46.9165 C476.4245,46.9165 476.4155,46.9165 476.4025,46.9155 C470.9055,46.6765 469.2705,39.9115 467.5365,32.7495 C465.9985,26.3945 464.2585,19.1915 459.6395,16.1445 C459.2705,15.9005 459.1675,15.4045 459.4115,15.0365 C459.6585,14.6655 460.1585,14.5695 460.5205,14.8085 C465.6655,18.2035 467.4865,25.7315 469.0925,32.3735 C470.7495,39.2185 472.1775,45.1305 476.4715,45.3175 C476.9115,45.3365 477.2555,45.7095 477.2365,46.1505 C477.2175,46.5805 476.8615,46.9165 476.4365,46.9165" id="Fill-844" fill="#1D213A"></path>
            <path d="M456.4585,61.3398 C456.3585,61.3398 456.2555,61.3208 456.1555,61.2798 C455.7465,61.1128 455.5525,60.6458 455.7175,60.2368 C457.3645,56.2068 461.2745,55.4388 463.1525,55.6028 C463.5925,55.6408 463.9155,56.0268 463.8805,56.4658 C463.8425,56.9018 463.5245,57.2478 463.0185,57.1958 C462.8395,57.1888 458.8055,56.9078 457.1995,60.8428 C457.0715,61.1528 456.7745,61.3398 456.4585,61.3398" id="Fill-846" fill="#1D213A"></path>
            <path d="M403.0908,50.8843 C403.0908,51.9713 403.9718,52.8533 405.0598,52.8533 C406.1468,52.8533 407.0288,51.9713 407.0288,50.8843 C407.0288,49.7973 406.1468,48.9153 405.0598,48.9153 C403.9718,48.9153 403.0908,49.7973 403.0908,50.8843" id="Fill-848" fill="#1D213A"></path>
            <path d="M429.6997,54.0894 C429.6997,55.1764 430.5807,56.0574 431.6687,56.0574 C432.7557,56.0574 433.6377,55.1764 433.6377,54.0894 C433.6377,53.0024 432.7557,52.1204 431.6687,52.1204 C430.5807,52.1204 429.6997,53.0024 429.6997,54.0894" id="Fill-850" fill="#1D213A"></path>
            <path d="M411.417,41.3071 C410.557,42.4841 407.806,42.0121 404.924,41.8181 C402.051,41.5081 399.261,41.4951 398.618,40.1871 C397.928,38.9281 400.897,36.2171 405.38,36.6021 C409.862,37.0011 412.314,40.1861 411.417,41.3071" id="Fill-852" fill="#1D213A"></path>
            <path d="M438.7803,46.2139 C437.7283,47.2239 435.1013,46.2809 432.2963,45.5899 C429.5213,44.7859 426.7763,44.2889 426.3693,42.8879 C425.9093,41.5289 429.3033,39.3749 433.6513,40.5329 C437.9963,41.7039 439.8583,45.2659 438.7803,46.2139" id="Fill-854" fill="#1D213A"></path>
            <path d="M413.0146,64.1182 C411.5306,64.1182 410.0836,63.5942 409.0966,62.8222 C407.6276,61.6732 407.0926,60.0122 407.6616,58.3782 C407.9526,57.5532 408.5086,56.9282 409.2706,56.5692 C410.4676,56.0042 411.9336,56.1902 412.8366,56.4052 L413.9716,52.2222 C414.0896,51.7972 414.5306,51.5402 414.9516,51.6592 C415.3776,51.7752 415.6306,52.2142 415.5146,52.6402 L414.1676,57.6092 C414.1086,57.8262 413.9616,58.0072 413.7646,58.1102 C413.5646,58.2142 413.3266,58.2292 413.1206,58.1512 C412.5746,57.9522 410.9466,57.5462 409.9496,58.0182 C409.5676,58.1982 409.3216,58.4802 409.1746,58.9072 C408.7086,60.2342 409.5426,61.1392 410.0836,61.5612 C411.3426,62.5492 413.5966,62.9482 415.1836,61.9062 C415.5496,61.6652 416.0456,61.7682 416.2896,62.1382 C416.5336,62.5072 416.4306,63.0032 416.0586,63.2442 C415.1236,63.8582 414.0586,64.1182 413.0146,64.1182" id="Fill-856" fill="#F99175"></path>
            <path d="M419.7178,70.3179 C416.4168,70.9019 414.7418,68.7519 413.1378,70.6669 C411.2758,72.8889 415.0418,78.4729 420.7108,77.0279 C425.5648,75.7919 426.6108,70.0399 424.4078,69.1409 C422.7308,68.4569 421.7978,69.9499 419.7178,70.3179" id="Fill-858" fill="#1D213A"></path>
            <path d="M417.0884,76.9922 C418.1624,77.2952 419.3774,77.3682 420.7114,77.0282 C423.7514,76.2542 425.2964,73.7072 425.4854,71.6922 C424.8864,71.5142 424.2664,71.3902 423.6094,71.3902 C420.3014,71.3902 417.5834,73.8222 417.0884,76.9922" id="Fill-860" fill="#FF5A5A"></path>
            <path d="M425.6201,71.8569 C425.7831,70.5579 425.4251,69.4409 424.5461,69.0829 C422.8261,68.3799 421.8681,69.9129 419.7341,70.2899 C416.3481,70.8889 414.6301,68.6839 412.9841,70.6479 C412.5061,71.2189 412.3901,72.0049 412.5751,72.8399 C414.0081,73.4749 415.9801,74.0089 418.5591,73.8519 C421.7131,73.6589 424.0841,72.6989 425.6201,71.8569" id="Fill-862" fill="#E8EAEF"></path>
            <path d="M89.6094,61.8599 C89.6094,65.3949 86.7444,68.2599 83.2094,68.2599 C79.6744,68.2599 76.8094,65.3949 76.8094,61.8599 C76.8094,58.3249 79.6744,55.4599 83.2094,55.4599 C86.7444,55.4599 89.6094,58.3249 89.6094,61.8599" id="Fill-864" fill="#848CAE"></path>
            <path d="M64.0098,61.8599 C64.0098,65.3949 61.1438,68.2599 57.6098,68.2599 C54.0748,68.2599 51.2098,65.3949 51.2098,61.8599 C51.2098,58.3249 54.0748,55.4599 57.6098,55.4599 C61.1438,55.4599 64.0098,58.3249 64.0098,61.8599" id="Fill-866" fill="#848CAE"></path>
            <path d="M38.4097,61.8599 C38.4097,65.3949 35.5447,68.2599 32.0097,68.2599 C28.4747,68.2599 25.6097,65.3949 25.6097,61.8599 C25.6097,58.3249 28.4747,55.4599 32.0097,55.4599 C35.5447,55.4599 38.4097,58.3249 38.4097,61.8599" id="Fill-868" fill="#848CAE"></path>
            <path d="M151.4609,135.8452 L47.3049,135.8452 C40.7209,135.8452 35.3829,130.5082 35.3829,123.9232 L35.3829,96.5672 C35.3829,89.9832 40.7209,84.6452 47.3049,84.6452 L151.4609,84.6452 C158.0449,84.6452 163.3829,89.9832 163.3829,96.5672 L163.3829,123.9232 C163.3829,130.5082 158.0449,135.8452 151.4609,135.8452" id="Fill-870" fill="#848CAE"></path>
            <polygon id="Fill-872" fill="#848CAE" points="35.383 155.045 163.383 155.045 163.383 148.645 35.383 148.645"></polygon>
            <polygon id="Fill-874" fill="#848CAE" points="35.383 174.246 163.383 174.246 163.383 167.846 35.383 167.846"></polygon>
        </g>
    </g>
</svg>